<?xml version="1.0" encoding="utf-8"?>
<!-- Generator: Adobe Illustrator 27.4.1, SVG Export Plug-In . SVG Version: 6.00 Build 0)  -->
<svg version="1.1" id="Layer_1" xmlns="http://www.w3.org/2000/svg" xmlns:xlink="http://www.w3.org/1999/xlink" x="0px" y="0px"
	 viewBox="0 0 32 32" style="enable-background:new 0 0 32 32;" xml:space="preserve">
<style type="text/css">
	.st0{fill:#F06681;}
</style>
<g>
	<g>
		<path class="st0" d="M3.3,9.1c3.4,0,6.5,1.1,8.9,3c1.2,0.2,2.5,0.2,3.8,0.2s2.5-0.1,3.8-0.2c2.5-1.9,5.6-3,8.9-3
			c0.2,0,0.4,0,0.6,0l0,0C26.8,4.3,21.8,1,16,1S5.2,4.3,2.7,9.1l0,0C2.9,9.1,3.1,9.1,3.3,9.1z"/>
		<path class="st0" d="M14.1,23.7c0-2.6,0.7-5.1,1.9-7.3c-0.9-1.7-2.2-3.2-3.8-4.3c-3.4-0.4-6.6-1.5-9.5-3l0,0C1.6,11.2,1,13.5,1,16
			c0,8.3,6.7,15,15,15l0,0C14.8,28.9,14.1,26.4,14.1,23.7z"/>
		<path class="st0" d="M31,16c0-2.5-0.6-4.9-1.7-6.9l0,0c-2.9,1.5-6.1,2.6-9.5,3c-1.5,1.2-2.8,2.6-3.8,4.3c1.2,2.1,1.9,4.6,1.9,7.3
			S17.3,28.8,16,31l0,0C24.3,31,31,24.3,31,16z"/>
	</g>
</g>
</svg>
