<?xml version="1.0" encoding="utf-8"?>
<!-- Generator: Adobe Illustrator 27.4.1, SVG Export Plug-In . SVG Version: 6.00 Build 0)  -->
<svg version="1.1" id="Layer_1" xmlns="http://www.w3.org/2000/svg" xmlns:xlink="http://www.w3.org/1999/xlink" x="0px" y="0px"
	 viewBox="0 0 32 32" style="enable-background:new 0 0 32 32;" xml:space="preserve">
<style type="text/css">
	.st0{fill:#5697D1;}
	.st1{fill:none;stroke:#8BC53F;stroke-width:8.741038e-02;stroke-miterlimit:10;}
	.st2{fill:#8BC53F;}
	.st3{fill:none;stroke:#FFC52F;stroke-width:8.741038e-02;stroke-miterlimit:10;}
	.st4{fill:#FFC52F;}
	.st5{fill:#FFFFFF;}
	.st6{fill:none;stroke:#FFFFFF;stroke-width:8.741038e-02;stroke-miterlimit:10;}
	.st7{fill:none;stroke:#F37721;stroke-width:6.031083e-02;stroke-miterlimit:10;}
	.st8{fill:#F37721;}
</style>
<g>
	<path class="st0" d="M29,12.3C29,6,23.5,1,16.8,1S4.5,6,4.5,12.3c0,0.6,0.1,1.3,0.2,1.9c0,0.8,0.1,1.5,0.1,1.8
		c0,1.2-2.2,3.5-2.2,3.5s-1.2,1.2,0,1.9c0.3,0.2,2.2,0.4,2.4,0.5c0.1,0.1,0.3,3.8,1,4.8s2.3,0.9,3.4,0.9c0.6,0,1.2,0,1.7-0.1
		c0.2,0.6,0.7,2.9,0.7,3c0,0.3,0.2,0.4,0.3,0.5l9.8-1.7c0.2-0.1,0.3-0.2,0.3-0.5s0.2-1.8,1.3-4.5c1-2.6,3.4-5.9,3.4-5.9l0,0
		C28.3,16.7,29,14.6,29,12.3z"/>
	<g>
		<g>
			<line class="st1" x1="14.7" y1="2.6" x2="13.6" y2="5.3"/>
			<line class="st1" x1="15.2" y1="2.8" x2="13.1" y2="5"/>
			<line class="st1" x1="15.5" y1="3.3" x2="12.8" y2="4.4"/>
			<line class="st1" x1="15.6" y1="3.9" x2="12.7" y2="3.9"/>
			<line class="st1" x1="13.1" y1="2.8" x2="15.2" y2="5"/>
			<line class="st1" x1="13.6" y1="2.6" x2="14.7" y2="5.3"/>
			<line class="st1" x1="14.1" y1="2.4" x2="14.1" y2="13.4"/>
			<path class="st2" d="M15.5,3.9c0,0.1,0,0.1,0.1,0.1s0.1-0.1,0.1-0.1c0-0.1-0.1-0.1-0.1-0.1C15.5,3.8,15.5,3.8,15.5,3.9z"/>
			<path class="st2" d="M12.6,3.9C12.6,4,12.6,4,12.7,4c0.1,0,0.1-0.1,0.1-0.1c0-0.1-0.1-0.1-0.1-0.1C12.6,3.8,12.6,3.8,12.6,3.9z"
				/>
			<path class="st2" d="M15.4,4.4c0,0.1,0,0.2,0.1,0.2c0.1,0,0.2,0,0.2-0.1c0-0.1,0-0.2-0.1-0.2C15.5,4.3,15.4,4.3,15.4,4.4z"/>
			<path class="st2" d="M12.7,3.3c0,0.1,0,0.2,0.1,0.2c0.1,0,0.2,0,0.2-0.1c0-0.1,0-0.2-0.1-0.2C12.8,3.2,12.7,3.2,12.7,3.3z"/>
			<path class="st2" d="M15.1,4.8c0,0,0,0.2,0,0.2c0,0,0.2,0,0.2,0s0-0.2,0-0.2C15.2,4.8,15.2,4.8,15.1,4.8z"/>
			<path class="st2" d="M13,2.8c0,0,0,0.1,0,0.2c0,0,0.2,0,0.2,0c0,0,0-0.2,0-0.2C13.2,2.7,13.1,2.7,13,2.8z"/>
			<path class="st2" d="M14.7,5.1c-0.1,0-0.1,0.1-0.1,0.2c0,0.1,0.1,0.1,0.2,0.1c0.1,0,0.1-0.1,0.1-0.2C14.8,5.1,14.7,5.1,14.7,5.1z
				"/>
			<path class="st2" d="M13.6,2.4c-0.1,0-0.1,0.1-0.1,0.2c0,0.1,0.1,0.1,0.2,0.1c0.1,0,0.1-0.1,0.1-0.2C13.7,2.4,13.6,2.4,13.6,2.4z
				"/>
			<path class="st2" d="M14.1,2.3c-0.1,0-0.1,0.1-0.1,0.1c0,0.1,0.1,0.1,0.1,0.1c0.1,0,0.1-0.1,0.1-0.1C14.3,2.4,14.2,2.3,14.1,2.3z
				"/>
			<path class="st2" d="M13.6,5.1c-0.1,0-0.2,0-0.2,0.1c0,0.1,0,0.2,0.1,0.2c0.1,0,0.2,0,0.2-0.1C13.8,5.2,13.7,5.1,13.6,5.1z"/>
			<path class="st2" d="M14.8,2.4c-0.1,0-0.2,0-0.2,0.1c0,0.1,0,0.2,0.1,0.2c0.1,0,0.2,0,0.2-0.1C14.9,2.5,14.8,2.4,14.8,2.4z"/>
			<path class="st2" d="M13.2,4.8c0,0-0.2,0-0.2,0c0,0,0,0.2,0,0.2s0.2,0,0.2,0C13.3,5,13.3,4.9,13.2,4.8z"/>
			<path class="st2" d="M15.3,2.8c0,0-0.1,0-0.2,0c0,0,0,0.2,0,0.2c0,0,0.2,0,0.2,0C15.3,2.9,15.3,2.8,15.3,2.8z"/>
			<path class="st2" d="M12.9,4.4c0-0.1-0.1-0.1-0.2-0.1c-0.1,0-0.1,0.1-0.1,0.2c0,0.1,0.1,0.1,0.2,0.1C12.9,4.6,12.9,4.5,12.9,4.4z
				"/>
			<path class="st2" d="M15.6,3.3c0-0.1-0.1-0.1-0.2-0.1c-0.1,0-0.1,0.1-0.1,0.2c0,0.1,0.1,0.1,0.2,0.1C15.6,3.4,15.7,3.4,15.6,3.3z
				"/>
			<line class="st1" x1="15.5" y1="4.4" x2="12.8" y2="3.3"/>
			<path class="st2" d="M13.9,3.9c0,0.2,0.1,0.3,0.3,0.3c0.2,0,0.3-0.1,0.3-0.3s-0.1-0.3-0.3-0.3C14,3.6,13.9,3.8,13.9,3.9z"/>
		</g>
		<g>
			<line class="st3" x1="20.3" y1="23.4" x2="21.4" y2="20.7"/>
			<line class="st3" x1="19.8" y1="23" x2="21.8" y2="20.9"/>
			<line class="st3" x1="19.5" y1="22.6" x2="22.2" y2="21.5"/>
			<line class="st3" x1="19.4" y1="22" x2="22.3" y2="22"/>
			<line class="st3" x1="21.8" y1="23" x2="19.8" y2="20.9"/>
			<line class="st3" x1="21.4" y1="23.4" x2="20.3" y2="20.7"/>
			<line class="st3" x1="20.8" y1="23.5" x2="20.8" y2="17.6"/>
			<path class="st4" d="M19.5,22c0-0.1-0.1-0.1-0.1-0.1c-0.1,0-0.1,0.1-0.1,0.1c0,0,0.1,0.1,0.1,0.1C19.5,22.2,19.5,22.1,19.5,22z"
				/>
			<path class="st4" d="M22.4,22c0-0.1-0.1-0.1-0.1-0.1c-0.1,0-0.1,0.1-0.1,0.1c0,0.1,0.1,0.1,0.1,0.1C22.3,22.2,22.4,22.1,22.4,22z
				"/>
			<path class="st4" d="M19.6,21.5c0-0.1,0-0.2-0.1-0.2c-0.1,0-0.2,0-0.2,0.1c0,0.1,0,0.2,0.1,0.2C19.5,21.6,19.6,21.6,19.6,21.5z"
				/>
			<path class="st4" d="M22.3,22.6c0-0.1,0-0.2-0.1-0.2c-0.1,0-0.2,0-0.2,0.1c0,0.1,0,0.2,0.1,0.2C22.2,22.7,22.3,22.7,22.3,22.6z"
				/>
			<path class="st4" d="M19.9,21.1c0,0,0-0.2,0-0.2c0,0-0.2,0-0.2,0c0,0,0,0.2,0,0.2C19.8,21.1,19.8,21.1,19.9,21.1z"/>
			<path class="st4" d="M21.9,23.1c0,0,0-0.1,0-0.2c0,0-0.2,0-0.2,0c0,0,0,0.2,0,0.2C21.8,23.2,21.9,23.2,21.9,23.1z"/>
			<path class="st4" d="M20.3,20.8c0.1,0,0.1-0.1,0.1-0.2c0-0.1-0.1-0.1-0.2-0.1c-0.1,0-0.1,0.1-0.1,0.2
				C20.2,20.8,20.3,20.8,20.3,20.8z"/>
			<path class="st4" d="M21.4,23.5c0.1,0,0.1-0.1,0.1-0.2c0-0.1-0.1-0.1-0.2-0.1c-0.1,0-0.1,0.1-0.1,0.2
				C21.3,23.5,21.4,23.5,21.4,23.5z"/>
			<path class="st4" d="M20.8,23.6c0.1,0,0.1-0.1,0.1-0.1c0-0.1-0.1-0.1-0.1-0.1c-0.1,0-0.1,0.1-0.1,0.1
				C20.7,23.5,20.8,23.6,20.8,23.6z"/>
			<path class="st4" d="M21.3,20.8c0.1,0,0.2,0,0.2-0.1c0-0.1,0-0.2-0.1-0.2c-0.1,0-0.2,0-0.2,0.1C21.2,20.7,21.3,20.8,21.3,20.8z"
				/>
			<path class="st4" d="M20.2,23.5c0.1,0,0.2,0,0.2-0.1c0-0.1,0-0.2-0.1-0.2c-0.1,0-0.2,0-0.2,0.1C20.1,23.4,20.1,23.5,20.2,23.5z"
				/>
			<path class="st4" d="M21.8,21.1c0,0,0.2,0,0.2,0c0,0,0-0.2,0-0.2c0,0-0.2,0-0.2,0C21.7,20.9,21.7,21,21.8,21.1z"/>
			<path class="st4" d="M19.7,23.1c0,0,0.1,0,0.2,0c0,0,0-0.2,0-0.2c0,0-0.2,0-0.2,0C19.6,23,19.6,23.1,19.7,23.1z"/>
			<path class="st4" d="M22,21.5c0,0.1,0.1,0.1,0.2,0.1c0.1,0,0.1-0.1,0.1-0.2c0-0.1-0.1-0.1-0.2-0.1C22.1,21.3,22,21.4,22,21.5z"/>
			<path class="st4" d="M19.3,22.6c0,0.1,0.1,0.1,0.2,0.1c0.1,0,0.1-0.1,0.1-0.2c0-0.1-0.1-0.1-0.2-0.1
				C19.4,22.4,19.3,22.5,19.3,22.6z"/>
			<line class="st3" x1="19.5" y1="21.5" x2="22.2" y2="22.6"/>
			<path class="st4" d="M21.1,22c0-0.2-0.1-0.3-0.3-0.3c-0.2,0-0.3,0.1-0.3,0.3s0.1,0.3,0.3,0.3C21,22.3,21.1,22.2,21.1,22z"/>
		</g>
		<path class="st5" d="M15.5,6c0.2,0.1,0.3,0.4,0.3,0.6c-0.1,0.2-0.4,0.3-0.6,0.3c-0.2-0.1-0.3-0.4-0.3-0.6C15,6.1,15.3,5.9,15.5,6z
			"/>
		<path class="st5" d="M15,7.7c0.3,0,0.5,0.2,0.5,0.5c0,0.3-0.2,0.5-0.5,0.5c-0.3,0-0.5-0.2-0.5-0.5C14.5,8,14.7,7.7,15,7.7z"/>
		<path class="st5" d="M15.2,9.5c0.2-0.1,0.5,0,0.6,0.3c0.1,0.2,0,0.5-0.3,0.6c-0.2,0.1-0.5,0-0.6-0.3C14.8,9.9,14.9,9.6,15.2,9.5z"
			/>
		<line class="st6" x1="19.5" y1="12.7" x2="19.5" y2="3.7"/>
		<line class="st6" x1="24.1" y1="8.2" x2="15" y2="8.2"/>
		<line class="st6" x1="21.3" y1="12.4" x2="17.8" y2="4"/>
		<line class="st6" x1="23.7" y1="6.5" x2="15.3" y2="9.9"/>
		<line class="st6" x1="24.8" y1="13.5" x2="16.3" y2="5"/>
		<line class="st6" x1="22.7" y1="5" x2="14.1" y2="13.6"/>
		<line class="st6" x1="23.7" y1="9.9" x2="15.3" y2="6.5"/>
		<line class="st6" x1="21.3" y1="4" x2="17.8" y2="12.4"/>
		<path class="st5" d="M20,3.7c0,0.3-0.2,0.5-0.5,0.5c-0.3,0-0.5-0.2-0.5-0.5c0-0.3,0.2-0.5,0.5-0.5C19.8,3.2,20,3.4,20,3.7z"/>
		<path class="st5" d="M20,12.7c0,0.3-0.2,0.5-0.5,0.5c-0.3,0-0.5-0.2-0.5-0.5c0-0.3,0.2-0.5,0.5-0.5C19.8,12.3,20,12.5,20,12.7z"/>
		<path class="st5" d="M18.3,3.9c0.1,0.2,0,0.5-0.3,0.6c-0.2,0.1-0.5,0-0.6-0.3c-0.1-0.2,0-0.5,0.3-0.6C17.9,3.5,18.1,3.6,18.3,3.9z
			"/>
		<path class="st5" d="M21.7,12.2c0.1,0.2,0,0.5-0.3,0.6c-0.2,0.1-0.5,0-0.6-0.3c-0.1-0.2,0-0.5,0.3-0.6
			C21.3,11.9,21.6,12,21.7,12.2z"/>
		<path class="st5" d="M16.7,4.7c0.2,0.2,0.2,0.5,0,0.6c-0.2,0.2-0.5,0.2-0.7,0c-0.2-0.2-0.2-0.5,0-0.6C16.1,4.5,16.5,4.5,16.7,4.7z
			"/>
		<path class="st5" d="M23.9,9.5c0.2,0.1,0.3,0.4,0.3,0.6c-0.1,0.2-0.4,0.3-0.6,0.3c-0.2-0.1-0.3-0.4-0.3-0.6
			C23.4,9.5,23.6,9.4,23.9,9.5z"/>
		<path class="st5" d="M24.1,7.7c0.3,0,0.5,0.2,0.5,0.5c0,0.3-0.2,0.5-0.5,0.5c-0.3,0-0.5-0.2-0.5-0.5C23.6,8,23.8,7.7,24.1,7.7z"/>
		<path class="st5" d="M23.5,6c0.2-0.1,0.5,0,0.6,0.3c0.1,0.2,0,0.5-0.3,0.6c-0.2,0.1-0.5,0-0.6-0.3C23.1,6.4,23.3,6.1,23.5,6z"/>
		<path class="st5" d="M22.4,4.7c0.2-0.2,0.5-0.2,0.7,0c0.2,0.2,0.2,0.5,0,0.6c-0.2,0.2-0.5,0.2-0.7,0C22.2,5.2,22.2,4.9,22.4,4.7z"
			/>
		<path class="st5" d="M17.3,12.2c0.1-0.2,0.4-0.3,0.6-0.3c0.2,0.1,0.3,0.4,0.3,0.6c-0.1,0.2-0.4,0.3-0.6,0.3
			C17.3,12.7,17.2,12.4,17.3,12.2z"/>
		<path class="st5" d="M20.8,3.9c0.1-0.2,0.4-0.3,0.6-0.3c0.2,0.1,0.3,0.4,0.3,0.6c-0.1,0.2-0.4,0.3-0.6,0.3
			C20.8,4.4,20.7,4.1,20.8,3.9z"/>
		<circle class="st5" cx="19.5" cy="8.2" r="0.7"/>
		<g>
			<line class="st7" x1="13.4" y1="15.4" x2="14.9" y2="11.8"/>
			<line class="st7" x1="14.1" y1="15.6" x2="14.1" y2="13.4"/>
			<line class="st7" x1="14.9" y1="15.4" x2="13.4" y2="11.8"/>
			<line class="st7" x1="15.6" y1="15" x2="10.1" y2="9.5"/>
			<line class="st7" x1="12.2" y1="13.6" x2="16.1" y2="13.6"/>
			<line class="st7" x1="12.3" y1="14.3" x2="16" y2="12.8"/>
			<line class="st7" x1="11.1" y1="16.6" x2="14.1" y2="13.6"/>
			<path class="st8" d="M15.4,14.9c0.1-0.1,0.2-0.1,0.3,0c0.1,0.1,0.1,0.2,0,0.3c-0.1,0.1-0.2,0.1-0.3,0
				C15.4,15,15.4,14.9,15.4,14.9z"/>
			<path class="st8" d="M15.8,14.3c0-0.1,0.2-0.2,0.2-0.1c0.1,0,0.2,0.2,0.1,0.2c0,0.1-0.2,0.2-0.2,0.1
				C15.8,14.5,15.8,14.4,15.8,14.3z"/>
			<path class="st8" d="M12.1,12.8c0-0.1,0.2-0.1,0.2-0.1c0.1,0,0.2,0.2,0.1,0.2c0,0.1-0.2,0.2-0.2,0.1C12.2,13,12.1,12.8,12.1,12.8
				z"/>
			<path class="st8" d="M16,13.6c0-0.1,0.1-0.2,0.2-0.2c0.1,0,0.2,0.1,0.2,0.2s-0.1,0.2-0.2,0.2C16,13.8,16,13.7,16,13.6z"/>
			<path class="st8" d="M12,13.6c0-0.1,0.1-0.2,0.2-0.2s0.2,0.1,0.2,0.2s-0.1,0.2-0.2,0.2S12,13.7,12,13.6z"/>
			<path class="st8" d="M15.8,12.9c0-0.1,0-0.2,0.1-0.2c0.1,0,0.2,0,0.2,0.1c0,0.1,0,0.2-0.1,0.2C16,13,15.9,13,15.8,12.9z"/>
			<path class="st8" d="M12.1,14.4c0-0.1,0-0.2,0.1-0.2c0.1,0,0.2,0,0.2,0.1c0,0.1,0,0.2-0.1,0.2C12.3,14.5,12.2,14.5,12.1,14.4z"/>
			<path class="st8" d="M14.8,11.9c-0.1,0-0.2-0.2-0.1-0.2c0-0.1,0.2-0.2,0.2-0.1c0.1,0,0.2,0.2,0.1,0.2C15,11.9,15,11.9,14.8,11.9z
				"/>
			<path class="st8" d="M13.3,15.6c-0.1,0-0.1-0.2-0.1-0.2c0-0.1,0.2-0.2,0.2-0.1c0.1,0,0.2,0.2,0.1,0.2
				C13.5,15.6,13.4,15.6,13.3,15.6z"/>
			<path class="st8" d="M14.1,15.7c-0.1,0-0.2-0.1-0.2-0.2c0-0.1,0.1-0.2,0.2-0.2c0.1,0,0.2,0.1,0.2,0.2
				C14.3,15.7,14.2,15.7,14.1,15.7z"/>
			<path class="st8" d="M13.4,11.9c-0.1,0-0.2,0-0.2-0.1c0-0.1,0-0.2,0.1-0.2c0.1,0,0.2,0,0.2,0.1C13.6,11.8,13.6,11.9,13.4,11.9z"
				/>
			<path class="st8" d="M15,15.6c-0.1,0-0.2,0-0.2-0.1c0-0.1,0-0.2,0.1-0.2c0.1,0,0.2,0,0.2,0.1C15.1,15.4,15.1,15.5,15,15.6z"/>
			<line class="st7" x1="16" y1="14.3" x2="12.3" y2="12.8"/>
			<path class="st8" d="M13.9,13.3c0.2-0.2,0.4-0.2,0.5,0c0.2,0.2,0.2,0.4,0,0.5c-0.2,0.2-0.4,0.2-0.5,0
				C13.8,13.7,13.8,13.4,13.9,13.3z"/>
		</g>
		<g>
			<line class="st1" x1="25.9" y1="16.2" x2="23.7" y2="10.8"/>
			<line class="st1" x1="24.8" y1="16.4" x2="24.8" y2="10.6"/>
			<line class="st1" x1="23.7" y1="16.2" x2="25.9" y2="10.8"/>
			<line class="st1" x1="21.1" y1="17.2" x2="26.9" y2="11.5"/>
			<line class="st1" x1="27.7" y1="13.5" x2="21.9" y2="13.5"/>
			<line class="st1" x1="27.5" y1="14.6" x2="22.2" y2="12.4"/>
			<line class="st1" x1="26.9" y1="15.5" x2="24.8" y2="13.5"/>
			<path class="st2" d="M27.1,11.3c-0.1-0.1-0.3-0.1-0.4,0c-0.1,0.1-0.1,0.3,0,0.4c0.1,0.1,0.3,0.1,0.4,0
				C27.2,11.6,27.2,11.4,27.1,11.3z"/>
			<path class="st2" d="M22.4,14.5c0-0.1-0.2-0.2-0.3-0.2c-0.1,0-0.2,0.2-0.2,0.3c0,0.1,0.2,0.2,0.3,0.2
				C22.4,14.8,22.5,14.6,22.4,14.5z"/>
			<path class="st2" d="M27.7,12.3c0-0.1-0.2-0.2-0.3-0.2c-0.1,0-0.2,0.2-0.2,0.3c0,0.1,0.2,0.2,0.3,0.2
				C27.7,12.6,27.8,12.4,27.7,12.3z"/>
			<path class="st2" d="M22.2,13.5c0-0.2-0.1-0.3-0.3-0.3s-0.3,0.1-0.3,0.3s0.1,0.3,0.3,0.3C22.1,13.8,22.2,13.6,22.2,13.5z"/>
			<path class="st2" d="M28,13.5c0-0.2-0.1-0.3-0.3-0.3c-0.2,0-0.3,0.1-0.3,0.3s0.1,0.3,0.3,0.3C27.9,13.7,28,13.6,28,13.5z"/>
			<path class="st2" d="M22.4,12.5c0-0.1,0-0.3-0.2-0.3c-0.1,0-0.3,0-0.3,0.2c0,0.1,0,0.3,0.2,0.3C22.2,12.7,22.3,12.6,22.4,12.5z"
				/>
			<path class="st2" d="M27.7,14.7c0-0.1,0-0.3-0.2-0.3c-0.1,0-0.3,0-0.3,0.2c0,0.1,0,0.3,0.2,0.3C27.5,14.9,27.7,14.9,27.7,14.7z"
				/>
			<path class="st2" d="M27.1,15.7c0.1-0.1,0.1-0.3,0-0.4c-0.1-0.1-0.3-0.1-0.4,0c-0.1,0.1-0.1,0.3,0,0.4
				C26.8,15.8,26.9,15.8,27.1,15.7z"/>
			<path class="st2" d="M23.8,11.1c0.1,0,0.2-0.2,0.2-0.3c-0.1-0.2-0.2-0.2-0.3-0.2c-0.1,0-0.2,0.2-0.2,0.3
				C23.5,11.1,23.7,11.1,23.8,11.1z"/>
			<path class="st2" d="M26,16.4c0.1,0,0.2-0.2,0.2-0.3c0-0.1-0.2-0.2-0.3-0.2c-0.2,0.1-0.2,0.2-0.2,0.3
				C25.7,16.4,25.9,16.5,26,16.4z"/>
			<path class="st2" d="M24.8,10.9c0.2,0,0.3-0.1,0.3-0.3c0-0.2-0.1-0.3-0.3-0.3s-0.3,0.1-0.3,0.3C24.6,10.7,24.7,10.9,24.8,10.9z"
				/>
			<path class="st2" d="M24.8,16.6c0.2,0,0.3-0.1,0.3-0.3s-0.1-0.3-0.3-0.3s-0.3,0.1-0.3,0.3S24.7,16.6,24.8,16.6z"/>
			<path class="st2" d="M25.8,11.1c0.1,0,0.3,0,0.3-0.2c0-0.1,0-0.3-0.2-0.3c-0.1,0-0.3,0-0.3,0.2C25.6,10.9,25.7,11,25.8,11.1z"/>
			<path class="st2" d="M23.6,16.4c0.1,0,0.3,0,0.3-0.2c0-0.1,0-0.3-0.2-0.3c-0.1,0-0.3,0-0.3,0.2C23.4,16.2,23.5,16.4,23.6,16.4z"
				/>
			<line class="st1" x1="22.2" y1="14.6" x2="27.5" y2="12.4"/>
			<path class="st2" d="M25.2,13.1c-0.2-0.2-0.5-0.2-0.8,0c-0.2,0.2-0.2,0.5,0,0.8c0.2,0.2,0.5,0.2,0.8,0
				C25.4,13.7,25.4,13.3,25.2,13.1z"/>
		</g>
		<g>
			<line class="st6" x1="18.7" y1="18.4" x2="23" y2="16.6"/>
			<line class="st6" x1="18.5" y1="17.5" x2="23.1" y2="17.5"/>
			<line class="st6" x1="18.7" y1="16.6" x2="23" y2="18.4"/>
			<line class="st6" x1="19.2" y1="15.8" x2="22.5" y2="19.1"/>
			<line class="st6" x1="20.8" y1="17.8" x2="20.8" y2="15.2"/>
			<line class="st6" x1="19.9" y1="19.6" x2="21.7" y2="15.4"/>
			<line class="st6" x1="19.2" y1="19.1" x2="20.8" y2="17.5"/>
			<path class="st5" d="M19.3,16c0.1-0.1,0.1-0.2,0-0.3c-0.1-0.1-0.2-0.1-0.3,0c-0.1,0.1-0.1,0.2,0,0.3C19.1,16.1,19.2,16.1,19.3,16
				z"/>
			<path class="st5" d="M22.6,19.3c0.1-0.1,0.1-0.2,0-0.3c-0.1-0.1-0.2-0.1-0.3,0c-0.1,0.1-0.1,0.2,0,0.3
				C22.4,19.4,22.5,19.4,22.6,19.3z"/>
			<path class="st5" d="M20,15.5c0.1,0,0.2-0.2,0.1-0.3c0-0.1-0.2-0.2-0.3-0.1c-0.1,0-0.2,0.2-0.1,0.3C19.8,15.5,19.9,15.6,20,15.5z
				"/>
			<path class="st5" d="M21.8,19.8c0.1,0,0.2-0.2,0.1-0.3c0-0.1-0.2-0.2-0.3-0.1c-0.1,0-0.2,0.2-0.1,0.3
				C21.6,19.8,21.7,19.9,21.8,19.8z"/>
			<path class="st5" d="M20.8,15.4c0.1,0,0.2-0.1,0.2-0.2S20.9,15,20.8,15s-0.2,0.1-0.2,0.2C20.6,15.3,20.7,15.4,20.8,15.4z"/>
			<path class="st5" d="M21.6,15.5c0.1,0,0.2,0,0.3-0.1c0-0.1,0-0.2-0.1-0.3s-0.2,0-0.3,0.1C21.5,15.4,21.5,15.5,21.6,15.5z"/>
			<path class="st5" d="M19.9,19.8c0.1,0,0.2,0,0.3-0.1c0-0.1,0-0.2-0.1-0.3c-0.1,0-0.2,0-0.3,0.1C19.7,19.7,19.8,19.8,19.9,19.8z"
				/>
			<path class="st5" d="M19,19.3c0.1,0.1,0.2,0.1,0.3,0c0.1-0.1,0.1-0.2,0-0.3c-0.1-0.1-0.2-0.1-0.3,0S18.9,19.2,19,19.3z"/>
			<path class="st5" d="M22.8,16.7c0,0.1,0.2,0.2,0.3,0.1c0.1,0,0.2-0.2,0.1-0.3c0-0.1-0.2-0.2-0.3-0.1
				C22.8,16.5,22.7,16.6,22.8,16.7z"/>
			<path class="st5" d="M18.5,18.5c0,0.1,0.2,0.2,0.3,0.1c0.1,0,0.2-0.2,0.1-0.3c0-0.1-0.2-0.2-0.3-0.1
				C18.5,18.2,18.4,18.4,18.5,18.5z"/>
			<path class="st5" d="M22.9,17.5c0,0.1,0.1,0.2,0.2,0.2c0.1,0,0.2-0.1,0.2-0.2s-0.1-0.2-0.2-0.2C23,17.3,22.9,17.4,22.9,17.5z"/>
			<path class="st5" d="M18.3,17.5c0,0.1,0.1,0.2,0.2,0.2c0.1,0,0.2-0.1,0.2-0.2s-0.1-0.2-0.2-0.2C18.4,17.3,18.3,17.4,18.3,17.5z"
				/>
			<path class="st5" d="M22.8,18.3c0,0.1,0,0.2,0.1,0.3c0.1,0,0.2,0,0.3-0.1c0-0.1,0-0.2-0.1-0.3C22.9,18.1,22.8,18.2,22.8,18.3z"/>
			<path class="st5" d="M18.5,16.5c0,0.1,0,0.2,0.1,0.3c0.1,0,0.2,0,0.3-0.1c0-0.1,0-0.2-0.1-0.3C18.7,16.4,18.5,16.4,18.5,16.5z"/>
			<line class="st6" x1="19.9" y1="15.4" x2="21.7" y2="19.6"/>
			<path class="st5" d="M21.1,17.8c0.2-0.2,0.2-0.5,0-0.6s-0.5-0.2-0.6,0c-0.2,0.2-0.2,0.5,0,0.6C20.7,18,21,18,21.1,17.8z"/>
		</g>
		<g>
			<line class="st1" x1="10" y1="17" x2="12.7" y2="15.8"/>
			<line class="st1" x1="9.9" y1="16.4" x2="12.8" y2="16.4"/>
			<line class="st1" x1="10" y1="15.8" x2="12.7" y2="17"/>
			<line class="st1" x1="10.3" y1="15.4" x2="12.3" y2="17.5"/>
			<line class="st1" x1="11.3" y1="17.9" x2="11.3" y2="15"/>
			<line class="st1" x1="10.7" y1="17.8" x2="11.9" y2="15.1"/>
			<line class="st1" x1="10.3" y1="17.5" x2="11.3" y2="16.4"/>
			<path class="st2" d="M10.3,15.5c0,0,0-0.2,0-0.2c0,0-0.2,0-0.2,0c0,0,0,0.2,0,0.2C10.2,15.5,10.3,15.5,10.3,15.5z"/>
			<path class="st2" d="M12.4,17.6c0,0,0-0.1,0-0.2c0,0-0.2,0-0.2,0c0,0,0,0.2,0,0.2C12.3,17.6,12.4,17.6,12.4,17.6z"/>
			<path class="st2" d="M10.8,15.2c0.1,0,0.1-0.1,0.1-0.2c0-0.1-0.1-0.1-0.2-0.1c-0.1,0-0.1,0.1-0.1,0.2
				C10.7,15.2,10.7,15.2,10.8,15.2z"/>
			<path class="st2" d="M11.9,17.9c0.1,0,0.1-0.1,0.1-0.2c0-0.1-0.1-0.1-0.2-0.1c-0.1,0-0.1,0.1-0.1,0.2
				C11.8,17.9,11.9,17.9,11.9,17.9z"/>
			<path class="st2" d="M11.3,15.1c0.1,0,0.1-0.1,0.1-0.1c0-0.1-0.1-0.1-0.1-0.1c-0.1,0-0.1,0.1-0.1,0.1
				C11.2,15,11.2,15.1,11.3,15.1z"/>
			<path class="st2" d="M11.3,18c0.1,0,0.1-0.1,0.1-0.1c0-0.1-0.1-0.1-0.1-0.1c-0.1,0-0.1,0.1-0.1,0.1C11.2,18,11.2,18,11.3,18z"/>
			<path class="st2" d="M11.8,15.2c0.1,0,0.2,0,0.2-0.1c0-0.1,0-0.2-0.1-0.2c-0.1,0-0.2,0-0.2,0.1C11.7,15.1,11.8,15.1,11.8,15.2z"
				/>
			<path class="st2" d="M10.7,17.9c0.1,0,0.2,0,0.2-0.1c0-0.1,0-0.2-0.1-0.2c-0.1,0-0.2,0-0.2,0.1C10.6,17.8,10.6,17.9,10.7,17.9z"
				/>
			<path class="st2" d="M10.2,17.6c0,0,0.1,0,0.2,0c0,0,0-0.2,0-0.2c0,0-0.2,0-0.2,0C10.1,17.4,10.1,17.5,10.2,17.6z"/>
			<path class="st2" d="M12.6,15.9c0,0.1,0.1,0.1,0.2,0.1c0.1,0,0.1-0.1,0.1-0.2c0-0.1-0.1-0.1-0.2-0.1
				C12.6,15.8,12.5,15.8,12.6,15.9z"/>
			<path class="st2" d="M9.9,17c0,0.1,0.1,0.1,0.2,0.1c0.1,0,0.1-0.1,0.1-0.2c0-0.1-0.1-0.1-0.2-0.1C9.9,16.9,9.8,17,9.9,17z"/>
			<path class="st2" d="M12.6,16.4c0,0.1,0.1,0.1,0.1,0.1c0.1,0,0.1-0.1,0.1-0.1c0-0.1-0.1-0.1-0.1-0.1
				C12.7,16.3,12.6,16.4,12.6,16.4z"/>
			<path class="st2" d="M9.7,16.4c0,0.1,0.1,0.1,0.1,0.1c0.1,0,0.1-0.1,0.1-0.1c0-0.1-0.1-0.1-0.1-0.1C9.8,16.3,9.7,16.4,9.7,16.4z"
				/>
			<path class="st2" d="M12.6,16.9c0,0.1,0,0.2,0.1,0.2c0.1,0,0.2,0,0.2-0.1c0-0.1,0-0.2-0.1-0.2C12.6,16.8,12.6,16.9,12.6,16.9z"/>
			<path class="st2" d="M9.9,15.8c0,0.1,0,0.2,0.1,0.2c0.1,0,0.2,0,0.2-0.1c0-0.1,0-0.2-0.1-0.2C9.9,15.7,9.9,15.7,9.9,15.8z"/>
			<line class="st1" x1="10.7" y1="15.1" x2="11.9" y2="17.8"/>
			<path class="st2" d="M11.5,16.6c0.1-0.1,0.1-0.3,0-0.4c-0.1-0.1-0.3-0.1-0.4,0c-0.1,0.1-0.1,0.3,0,0.4
				C11.2,16.7,11.4,16.7,11.5,16.6z"/>
		</g>
		<g>
			<line class="st3" x1="8.5" y1="6" x2="11.2" y2="12.5"/>
			<line class="st3" x1="9.9" y1="5.8" x2="9.9" y2="12.8"/>
			<line class="st3" x1="11.2" y1="6" x2="8.5" y2="12.5"/>
			<line class="st3" x1="12.3" y1="6.8" x2="7.4" y2="11.8"/>
			<line class="st3" x1="6.3" y1="9.3" x2="13.4" y2="9.3"/>
			<line class="st3" x1="6.6" y1="7.9" x2="13.1" y2="10.6"/>
			<line class="st3" x1="7.4" y1="6.8" x2="9.9" y2="9.3"/>
			<path class="st4" d="M12.1,7c0.1,0.1,0.3,0.1,0.5,0c0.1-0.1,0.1-0.3,0-0.5c-0.1-0.2-0.3-0.1-0.5,0C12,6.7,12,6.9,12.1,7z"/>
			<path class="st4" d="M7.1,12c0.1,0.1,0.3,0.1,0.5,0c0.1-0.1,0.1-0.3,0-0.5c-0.1-0.1-0.3-0.1-0.5,0C7,11.7,7,11.9,7.1,12z"/>
			<path class="st4" d="M12.8,8c0.1,0.2,0.3,0.2,0.4,0.2c0.2-0.1,0.2-0.3,0.2-0.4c-0.1-0.2-0.3-0.2-0.4-0.2
				C12.8,7.7,12.7,7.9,12.8,8z"/>
			<path class="st4" d="M6.3,10.7c0.1,0.2,0.3,0.2,0.4,0.2c0.2-0.1,0.2-0.3,0.2-0.4c-0.1-0.2-0.3-0.2-0.4-0.2
				C6.3,10.4,6.2,10.6,6.3,10.7z"/>
			<path class="st4" d="M13.1,9.3c0,0.2,0.2,0.3,0.3,0.3c0.2,0,0.3-0.2,0.3-0.3c0-0.2-0.2-0.3-0.3-0.3C13.2,9,13.1,9.1,13.1,9.3z"/>
			<path class="st4" d="M6,9.3c0,0.2,0.2,0.3,0.3,0.3c0.2,0,0.3-0.2,0.3-0.3C6.7,9.1,6.5,9,6.3,9C6.2,9,6,9.1,6,9.3z"/>
			<path class="st4" d="M12.8,10.5c-0.1,0.2,0,0.3,0.2,0.4c0.2,0.1,0.3,0,0.4-0.2s0-0.3-0.2-0.4C13.1,10.3,12.9,10.3,12.8,10.5z"/>
			<path class="st4" d="M6.3,7.8C6.2,8,6.3,8.1,6.5,8.2s0.3,0,0.4-0.2c0.1-0.2,0-0.3-0.2-0.4C6.5,7.6,6.4,7.7,6.3,7.8z"/>
			<path class="st4" d="M7.1,6.5C7,6.6,7,6.8,7.1,7c0.1,0.1,0.3,0.1,0.5,0c0.1-0.1,0.1-0.3,0-0.5C7.5,6.4,7.2,6.4,7.1,6.5z"/>
			<path class="st4" d="M11.1,12.3c-0.2,0.1-0.2,0.3-0.2,0.4c0.1,0.2,0.3,0.2,0.4,0.2c0.2-0.1,0.2-0.3,0.2-0.4
				C11.4,12.3,11.3,12.2,11.1,12.3z"/>
			<path class="st4" d="M8.4,5.7C8.2,5.8,8.1,6,8.2,6.1c0.1,0.2,0.3,0.2,0.4,0.2C8.8,6.2,8.9,6,8.8,5.9C8.8,5.7,8.6,5.7,8.4,5.7z"/>
			<path class="st4" d="M9.9,12.5c-0.2,0-0.3,0.2-0.3,0.3c0,0.2,0.2,0.3,0.3,0.3c0.2,0,0.3-0.2,0.3-0.3C10.2,12.6,10,12.5,9.9,12.5z
				"/>
			<path class="st4" d="M9.9,5.4c-0.2,0-0.3,0.2-0.3,0.3C9.6,5.9,9.7,6,9.9,6c0.2,0,0.3-0.2,0.3-0.3C10.2,5.6,10,5.4,9.9,5.4z"/>
			<path class="st4" d="M8.7,12.3c-0.2-0.1-0.3,0-0.4,0.2c-0.1,0.2,0,0.3,0.2,0.4c0.2,0.1,0.3,0,0.4-0.2C8.9,12.5,8.8,12.3,8.7,12.3
				z"/>
			<path class="st4" d="M11.4,5.7c-0.2-0.1-0.3,0-0.4,0.2s0,0.3,0.2,0.4c0.2,0.1,0.3,0,0.4-0.2C11.6,5.9,11.5,5.8,11.4,5.7z"/>
			<line class="st3" x1="13.1" y1="7.9" x2="6.6" y2="10.6"/>
			<path class="st4" d="M9.4,9.7c0.3,0.3,0.7,0.3,0.9,0c0.3-0.3,0.3-0.7,0-0.9c-0.3-0.3-0.7-0.3-0.9,0C9.1,9,9.1,9.5,9.4,9.7z"/>
		</g>
	</g>
</g>
</svg>
