<?xml version="1.0" encoding="utf-8"?>
<!-- Generator: Adobe Illustrator 27.4.1, SVG Export Plug-In . SVG Version: 6.00 Build 0)  -->
<svg version="1.1" id="Layer_1" xmlns="http://www.w3.org/2000/svg" xmlns:xlink="http://www.w3.org/1999/xlink" x="0px" y="0px"
	 viewBox="0 0 32 32" style="enable-background:new 0 0 32 32;" xml:space="preserve">
<style type="text/css">
	.st0{fill:url(#SVGID_1_);}
	.st1{fill:none;stroke:#FFFFFF;stroke-miterlimit:10;}
	.st2{fill:none;stroke:#FFFFFF;stroke-linecap:round;stroke-linejoin:round;stroke-miterlimit:10;}
	.st3{fill:#FFFFFF;}
</style>
<g>
	<linearGradient id="SVGID_1_" gradientUnits="userSpaceOnUse" x1="16" y1="1" x2="16" y2="31">
		<stop  offset="0" style="stop-color:#37BAEC"/>
		<stop  offset="1" style="stop-color:#58BD84"/>
	</linearGradient>
	<circle class="st0" cx="16" cy="16" r="15"/>
	<g>
		<path class="st1" d="M19.8,9.3c0,2.5-3.8,5.1-3.8,5.1s-3.8-2.6-3.8-5.1s1.7-4,3.8-4S19.8,6.7,19.8,9.3z"/>
		<path class="st1" d="M21.8,9.2c0,3.9-5.8,7.8-5.8,7.8s-5.8-4-5.8-7.8S12.8,3,16,3S21.8,5.3,21.8,9.2z"/>
		<g>
			<g>
				<path class="st2" d="M20.3,24.9c-0.5,0.7-0.4,1.7,0.3,2.2c0.7,0.5,1.7,0.4,2.2-0.3c0.5-0.7,0.4-1.7-0.3-2.2L16,19.7l-6.5,4.9
					c-0.7,0.5-0.8,1.5-0.3,2.2c0.5,0.7,1.5,0.8,2.2,0.3c0.7-0.5,0.8-1.5,0.3-2.2"/>
			</g>
			<path class="st2" d="M22.6,17.5c0.5-0.7,1.5-0.9,2.2-0.4s0.9,1.5,0.4,2.2c-0.5,0.7-1.5,0.9-2.2,0.4l-7-5.3l-7,5.3
				c-0.7,0.5-1.7,0.3-2.2-0.4c-0.5-0.7-0.3-1.7,0.4-2.2s1.7-0.3,2.2,0.4"/>
			<path class="st2" d="M26.3,20.8c0.7,0.5,0.9,1.5,0.4,2.2s-1.5,0.9-2.2,0.4L16,17l-8.5,6.4c-0.7,0.5-1.7,0.3-2.2-0.4
				S5,21.3,5.7,20.8"/>
			<g>
				<polygon class="st3" points="10.9,26.1 10.9,25.5 10.4,25.2 9.9,25.5 9.9,26.1 10.4,26.5 				"/>
			</g>
			<g>
				<polygon class="st3" points="22.1,26.1 22.1,25.5 21.5,25.2 21,25.5 21,26.1 21.5,26.5 				"/>
			</g>
			<g>
				<polygon class="st3" points="25.9,22.5 25.9,21.9 25.4,21.5 24.8,21.9 24.8,22.5 25.4,22.8 				"/>
			</g>
			<g>
				<polygon class="st3" points="7.1,22.5 7.1,21.9 6.6,21.5 6.1,21.9 6.1,22.5 6.6,22.8 				"/>
			</g>
			<g>
				<polygon class="st3" points="24.4,18.7 24.4,18.1 23.9,17.8 23.3,18.1 23.3,18.7 23.9,19 				"/>
			</g>
			<g>
				<polygon class="st3" points="8.6,18.7 8.6,18.1 8,17.8 7.5,18.1 7.5,18.7 8,19 				"/>
			</g>
		</g>
	</g>
</g>
</svg>
