<?xml version="1.0" encoding="utf-8"?>
<!-- Generator: Adobe Illustrator 27.4.1, SVG Export Plug-In . SVG Version: 6.00 Build 0)  -->
<svg version="1.1" id="Layer_1" xmlns="http://www.w3.org/2000/svg" xmlns:xlink="http://www.w3.org/1999/xlink" x="0px" y="0px"
	 viewBox="0 0 145 30.4" style="enable-background:new 0 0 145 30.4;" xml:space="preserve">
<style type="text/css">
	.st0{fill:#4B75B9;}
	.st1{fill:#95C83D;}
</style>
<g>
	<path class="st0" d="M9.2,28.8H3.6c-1.2,0-2-0.3-2.5-0.8c-0.5-0.5-0.7-1.3-0.7-2.5V5.9c0-1.2,0.3-2,0.8-2.5
		c0.5-0.5,1.3-0.8,2.5-0.8h6c1.2,0,2.3,0.1,3.2,0.2c0.9,0.2,1.7,0.5,2.5,0.9C16,4.2,16.5,4.6,17,5.2c0.5,0.6,0.8,1.2,1.1,1.9
		c0.2,0.7,0.4,1.4,0.4,2.2c0,2.6-1.3,4.5-3.9,5.7c3.4,1.1,5.2,3.2,5.2,6.4c0,1.5-0.4,2.8-1.1,3.9c-0.7,1.2-1.8,2-3,2.6
		c-0.8,0.3-1.7,0.6-2.7,0.7C11.8,28.7,10.5,28.8,9.2,28.8z M5.7,6.6v6.8h2.4c1.3,0,2.3-0.1,3.1-0.4c0.7-0.2,1.3-0.7,1.6-1.4
		c0.3-0.5,0.4-1.1,0.4-1.7c0-1.3-0.5-2.2-1.4-2.6c-0.9-0.4-2.4-0.7-4.3-0.7H5.7z M8.8,17.2H5.7v7.6H9c3.6,0,5.4-1.3,5.4-3.9
		c0-1.3-0.5-2.3-1.4-2.9C12,17.5,10.6,17.2,8.8,17.2z"/>
	<path class="st0" d="M25,7.2c-0.7,0-1.3-0.2-1.7-0.6c-0.5-0.4-0.7-1-0.7-1.8c0-0.7,0.2-1.3,0.7-1.7c0.5-0.4,1.1-0.7,1.7-0.7
		c0.6,0,1.2,0.2,1.7,0.6c0.5,0.4,0.7,1,0.7,1.8c0,0.7-0.2,1.3-0.7,1.8C26.2,7,25.6,7.2,25,7.2z M27.4,12.2v14.1c0,1-0.2,1.7-0.7,2.2
		c-0.5,0.5-1.1,0.7-1.8,0.7s-1.3-0.3-1.7-0.8c-0.4-0.5-0.7-1.2-0.7-2.2V12.4c0-1,0.2-1.7,0.7-2.2c0.4-0.5,1-0.7,1.7-0.7
		s1.3,0.2,1.8,0.7C27.2,10.7,27.4,11.3,27.4,12.2z"/>
	<path class="st0" d="M49.2,19.3c0,1.4-0.2,2.8-0.7,4c-0.5,1.2-1.1,2.3-2,3.2c-0.9,0.9-1.9,1.6-3.1,2c-1.2,0.5-2.5,0.7-4,0.7
		c-1.5,0-2.8-0.2-4-0.7c-1.2-0.5-2.2-1.2-3.1-2c-0.9-0.9-1.5-1.9-2-3.1c-0.4-1.2-0.7-2.5-0.7-4c0-1.5,0.2-2.8,0.7-4
		c0.5-1.2,1.1-2.3,1.9-3.1c0.8-0.9,1.9-1.5,3.1-2c1.2-0.5,2.5-0.7,4-0.7c1.5,0,2.8,0.2,4,0.7c1.2,0.5,2.2,1.2,3.1,2
		c0.9,0.9,1.5,1.9,2,3.1C49,16.5,49.2,17.9,49.2,19.3z M44.3,19.3c0-2-0.4-3.5-1.3-4.6c-0.9-1.1-2-1.7-3.5-1.7c-1,0-1.8,0.2-2.5,0.7
		c-0.7,0.5-1.3,1.2-1.7,2.2c-0.4,1-0.6,2.1-0.6,3.4c0,1.3,0.2,2.4,0.6,3.3c0.4,1,0.9,1.7,1.7,2.2c0.7,0.5,1.6,0.8,2.5,0.8
		c1.5,0,2.6-0.6,3.5-1.7C43.9,22.8,44.3,21.3,44.3,19.3z"/>
	<path class="st0" d="M52.2,26V5.4c0-1.1,0.2-1.9,0.7-2.4c0.5-0.5,1.1-0.8,1.9-0.8c0.8,0,1.4,0.3,1.9,0.8s0.7,1.3,0.7,2.4V26
		c0,1.1-0.2,1.9-0.7,2.4s-1.1,0.8-1.9,0.8c-0.8,0-1.4-0.3-1.9-0.8C52.4,27.9,52.2,27.1,52.2,26z"/>
	<path class="st0" d="M66.1,12.1v0.6c0.9-1.1,1.8-2,2.8-2.5c1-0.5,2.2-0.8,3.5-0.8c1.3,0,2.4,0.3,3.4,0.8c1,0.6,1.8,1.3,2.3,2.4
		c0.3,0.6,0.5,1.2,0.6,1.9c0.1,0.7,0.1,1.6,0.1,2.6v9.1c0,1-0.2,1.7-0.7,2.2c-0.4,0.5-1,0.7-1.7,0.7c-0.7,0-1.3-0.3-1.8-0.8
		C74.2,28,74,27.2,74,26.3v-8.1c0-1.6-0.2-2.8-0.7-3.7c-0.4-0.8-1.3-1.3-2.7-1.3c-0.9,0-1.7,0.3-2.4,0.8c-0.7,0.5-1.2,1.2-1.6,2.1
		c-0.2,0.7-0.4,2.1-0.4,4.1v6.1c0,1-0.2,1.7-0.7,2.2c-0.5,0.5-1,0.7-1.8,0.7c-0.7,0-1.3-0.3-1.7-0.8c-0.5-0.5-0.7-1.2-0.7-2.2V12.2
		c0-0.9,0.2-1.6,0.6-2.1c0.4-0.5,1-0.7,1.7-0.7c0.4,0,0.8,0.1,1.2,0.3c0.3,0.2,0.6,0.5,0.8,0.9C66,11.1,66.1,11.6,66.1,12.1z"/>
	<path class="st0" d="M95.7,26.5V26c-0.7,0.7-1.3,1.4-1.9,1.8c-0.6,0.5-1.3,0.8-2.1,1.1c-0.7,0.2-1.6,0.4-2.4,0.4
		c-1.2,0-2.2-0.2-3.2-0.7c-1-0.5-1.9-1.2-2.6-2.1c-0.7-0.9-1.3-2-1.6-3.2c-0.4-1.2-0.6-2.6-0.6-4c0-3,0.7-5.4,2.2-7.1
		c1.5-1.7,3.4-2.5,5.9-2.5c1.4,0,2.6,0.2,3.5,0.7c1,0.5,1.9,1.2,2.8,2.2V5.2c0-1,0.2-1.8,0.6-2.3c0.4-0.5,1-0.8,1.7-0.8
		c0.7,0,1.3,0.2,1.7,0.7c0.4,0.5,0.6,1.2,0.6,2.1v21.5c0,0.9-0.2,1.6-0.6,2.1c-0.4,0.5-1,0.7-1.7,0.7c-0.7,0-1.2-0.2-1.6-0.7
		C95.9,28,95.7,27.3,95.7,26.5z M86.1,19.3c0,1.3,0.2,2.4,0.6,3.4c0.4,0.9,1,1.6,1.7,2.1c0.7,0.5,1.5,0.7,2.3,0.7
		c0.9,0,1.6-0.2,2.3-0.7c0.7-0.4,1.3-1.1,1.7-2c0.4-0.9,0.6-2.1,0.6-3.4c0-1.3-0.2-2.4-0.6-3.3c-0.4-0.9-1-1.6-1.7-2.1
		c-0.7-0.5-1.5-0.7-2.4-0.7c-0.9,0-1.7,0.3-2.4,0.8c-0.7,0.5-1.2,1.2-1.6,2.2C86.3,17,86.1,18.1,86.1,19.3z"/>
	<g>
		<path class="st1" d="M141.4,25.8c0.6,0.7,0.9,1.2,1,1.6c0.1,0.4-0.1,0.7-0.3,1c-0.3,0.3-0.7,0.5-1.1,0.6c-0.4,0.1-0.8,0-1.1-0.2
			c-0.3-0.2-0.7-0.5-1.1-1l-13.9-12.9c-0.8-0.8-1.3-1.6-1.4-2.3c-0.1-0.5,0.1-1,0.5-1.5c0.4-0.4,0.9-0.7,1.6-0.8
			c0.6-0.1,1.1,0,1.6,0.3c0.4,0.3,1,0.8,1.6,1.4L141.4,25.8z"/>
		<path class="st1" d="M142.6,9.9c-0.1-0.5-0.7-3.2-1.2-5c-0.1-0.2-0.1-0.3-0.2-0.3c-0.1,0-0.2,0-0.4,0.2c-1.3,1.1-3.9,3.4-3.9,3.4
			c-0.2,0.2-0.6,0.2-0.8,0l0,0c-0.3-0.2-0.3-0.6-0.1-0.9c1.1-1.4,4.3-5.3,5.7-6.5c0.3-0.2,0.6-0.5,0.9-0.5c0.3,0.1,0.4,0.4,0.5,0.7
			c0.4,1.8,0.7,6.4,0.8,8.5c0,0.4,0,0.8-0.4,0.8C142.9,10.6,142.7,10.3,142.6,9.9z"/>
		<path class="st1" d="M141.2,4.5c-0.4-0.1-0.8,0.1-0.9,0.5l-0.1,0.2c-5,13.4-14.3,21.3-25.9,21l-0.2,0c-0.9,0-2-0.4-2.8-0.7
			c-0.8-0.3-1.5-0.8-2.1-1.5c-0.6-0.7-1-1.7-1.2-2.7l9.3-1.8c1.2-0.2,2.2-0.6,2.8-1.1c0.6-0.5,0.8-1.3,0.6-2.5
			c-0.3-1.3-0.8-2.5-1.7-3.6c-0.9-1.1-2.1-1.9-3.6-2.5c-1.5-0.5-3.2-0.6-5-0.2c-1.4,0.3-2.7,0.8-3.8,1.5c-1.1,0.7-1.9,1.5-2.6,2.6
			c-0.6,1-1,2.2-1.2,3.5c-0.2,1.3-0.1,2.6,0.1,4c0.6,3,1.9,5.2,4,6.6c2,1.4,4.2,1.7,7.3,1.8l0.1,0c12.9,0.3,22.9-9,27.4-24.1l0,0
			C141.8,5,141.6,4.6,141.2,4.5z M108.2,14.7c0.6-1,1.5-1.6,2.7-1.8c1.2-0.2,2.3,0,3.3,0.6c0.9,0.7,1.6,1.8,2,3.4l-8.7,1.7
			C107.4,17,107.6,15.7,108.2,14.7z"/>
		<path class="st1" d="M129.5,28.8c4.2-3.8,8.7-7.3,10.8-14.3l0,0c0.1-0.2-0.1-0.5-0.3-0.5c-0.2-0.1-0.5,0.1-0.5,0.3l0,0.1
			c-2.4,6.3-7.1,9.3-11.3,13c0,0-0.3,0.3-0.3,0.6s0.2,1,1,1.1C129.3,29,129.5,28.8,129.5,28.8z"/>
	</g>
</g>
</svg>
