<?xml version="1.0" encoding="utf-8"?>
<!-- Generator: Adobe Illustrator 23.0.4, SVG Export Plug-In . SVG Version: 6.00 Build 0)  -->
<svg version="1.1" id="Layer_1" xmlns="http://www.w3.org/2000/svg" xmlns:xlink="http://www.w3.org/1999/xlink" x="0px" y="0px"
	 viewBox="0 0 408.9 147.4" style="enable-background:new 0 0 408.9 147.4;" xml:space="preserve">
<style type="text/css">
	.st0{fill:#FFFFFF;}
	.st1{fill:none;stroke:#FFFFFF;stroke-width:4;stroke-linecap:round;stroke-linejoin:round;stroke-miterlimit:10;}
	.st2{fill:#F37920;}
</style>
<g>
	<g>
		<path class="st0" d="M164.8,45.7c-0.6,0.4-1.3,0.8-2.2,0.9c-0.9,0.2-1.8,0.3-2.9,0.3c-1.2,0-2.4-0.2-3.4-0.6
			c-1.1-0.4-2-1.1-2.8-1.9c-0.8-0.9-1.4-1.9-1.9-3.3s-0.7-2.9-0.7-4.7c0-1.9,0.3-3.5,0.8-4.8s1.2-2.4,2-3.3c0.8-0.8,1.8-1.5,2.8-1.8
			c1-0.4,2.1-0.6,3.2-0.6c1.2,0,2.1,0.1,2.9,0.2c0.7,0.1,1.4,0.3,1.9,0.5l-0.6,2.2c-0.9-0.5-2.3-0.7-4-0.7c-0.8,0-1.6,0.1-2.4,0.4
			c-0.8,0.3-1.5,0.8-2.1,1.4c-0.6,0.7-1.1,1.5-1.5,2.6s-0.6,2.4-0.6,3.9c0,1.4,0.2,2.6,0.5,3.7c0.3,1,0.8,1.9,1.4,2.6
			c0.6,0.7,1.3,1.2,2.2,1.6c0.8,0.3,1.7,0.5,2.7,0.5c0.9,0,1.6-0.1,2.3-0.3c0.6-0.2,1.2-0.4,1.6-0.7L164.8,45.7z"/>
		<path class="st0" d="M168.1,26.1h11.1v2.2h-8.7V35h7.9v2.2h-7.9v7.2h8.8v2.2h-11.2L168.1,26.1L168.1,26.1z"/>
		<path class="st0" d="M182.9,26.3c0.7-0.1,1.6-0.2,2.5-0.3c1-0.1,1.8-0.1,2.6-0.1c0.9,0,1.7,0.1,2.5,0.3s1.5,0.5,2.1,1
			c0.6,0.4,1.1,1,1.5,1.7s0.6,1.6,0.6,2.6c0,1.6-0.4,2.9-1.3,3.9s-2,1.6-3.3,2l1.4,1.1l5.1,8.1h-2.8l-5.6-8.8l-2.9-0.4v9.2h-2.4
			L182.9,26.3L182.9,26.3z M188.2,28c-0.3,0-0.5,0-0.8,0s-0.5,0-0.8,0s-0.5,0-0.7,0.1c-0.2,0-0.4,0-0.5,0.1v7.5h2.3
			c1.3,0,2.4-0.3,3.3-1s1.3-1.7,1.3-3.1c0-1-0.4-1.9-1.1-2.6C190.4,28.3,189.5,28,188.2,28z"/>
		<path class="st0" d="M199.9,26.1H211v2.2h-8.7V35h7.9v2.2h-7.9v7.2h8.8v2.2h-11.2L199.9,26.1L199.9,26.1z"/>
		<path class="st0" d="M227,30.8c0,0.5-0.1,1-0.2,1.5c-0.2,0.5-0.4,1-0.7,1.4s-0.7,0.8-1.2,1.1s-1.1,0.6-1.7,0.8v0.1
			c0.6,0.1,1.1,0.3,1.7,0.5c0.5,0.2,1,0.6,1.4,1s0.7,0.9,1,1.5s0.4,1.3,0.4,2.1c0,1-0.2,2-0.7,2.7s-1,1.4-1.7,1.9s-1.5,0.8-2.4,1.1
			c-0.9,0.2-1.8,0.3-2.8,0.3c-0.3,0-0.7,0-1.2,0s-0.9,0-1.4,0s-1-0.1-1.5-0.1s-0.9-0.1-1.3-0.2v-20c0.7-0.1,1.6-0.2,2.5-0.3
			c1-0.1,2-0.1,3.1-0.1c0.8,0,1.5,0.1,2.3,0.2c0.8,0.1,1.5,0.4,2.1,0.7c0.6,0.4,1.2,0.9,1.6,1.5S227,29.8,227,30.8z M218.7,35.1
			c0.3,0,0.7,0,1.2,0s0.9,0,1.2-0.1c0.5-0.2,0.9-0.3,1.3-0.6s0.8-0.5,1.1-0.8s0.6-0.6,0.8-1s0.3-0.8,0.3-1.3c0-0.6-0.1-1.2-0.4-1.6
			c-0.2-0.4-0.6-0.8-1-1c-0.4-0.3-0.9-0.4-1.4-0.5s-1.1-0.2-1.6-0.2c-0.6,0-1.2,0-1.8,0c-0.5,0-0.9,0.1-1.2,0.1V35L218.7,35.1
			L218.7,35.1z M220.3,44.6c0.6,0,1.2-0.1,1.8-0.2s1.1-0.4,1.5-0.7s0.8-0.7,1.1-1.2s0.4-1,0.4-1.7c0-0.8-0.2-1.4-0.5-1.9
			s-0.7-0.9-1.3-1.1c-0.5-0.3-1.1-0.5-1.7-0.6c-0.6-0.1-1.3-0.1-1.9-0.1h-2.5v7.3c0.1,0,0.3,0.1,0.6,0.1s0.5,0,0.8,0.1
			c0.3,0,0.6,0,0.9,0S220.1,44.6,220.3,44.6z"/>
		<path class="st0" d="M231.5,26.3c0.7-0.1,1.6-0.2,2.5-0.3c1-0.1,1.8-0.1,2.6-0.1c0.9,0,1.7,0.1,2.5,0.3s1.5,0.5,2.1,1
			c0.6,0.4,1.1,1,1.5,1.7s0.6,1.6,0.6,2.6c0,1.6-0.4,2.9-1.3,3.9s-2,1.6-3.3,2l1.4,1.1l5.1,8.1h-2.8l-5.6-8.8l-2.9-0.4v9.2h-2.4
			L231.5,26.3L231.5,26.3z M236.7,28c-0.3,0-0.5,0-0.8,0s-0.5,0-0.8,0s-0.5,0-0.7,0.1c-0.2,0-0.4,0-0.5,0.1v7.5h2.3
			c1.3,0,2.4-0.3,3.3-1s1.3-1.7,1.3-3.1c0-1-0.4-1.9-1.1-2.6C239,28.3,238,28,236.7,28z"/>
		<path class="st0" d="M247,36.3c0-3.4,0.7-6,2.2-7.8c1.4-1.8,3.5-2.7,6.1-2.7c1.4,0,2.7,0.3,3.7,0.8s1.9,1.2,2.6,2.1s1.2,2,1.5,3.3
			s0.5,2.7,0.5,4.3c0,3.4-0.7,6-2.2,7.8s-3.5,2.7-6.2,2.7c-1.4,0-2.6-0.3-3.7-0.8c-1-0.5-1.9-1.2-2.6-2.1c-0.7-0.9-1.2-2-1.5-3.3
			C247.1,39.4,247,37.9,247,36.3z M249.5,36.3c0,1.1,0.1,2.2,0.3,3.2s0.6,1.9,1,2.7c0.5,0.8,1.1,1.4,1.8,1.8
			c0.7,0.5,1.6,0.7,2.6,0.7c1.8,0,3.2-0.7,4.2-2.1s1.5-3.5,1.5-6.3c0-1.1-0.1-2.2-0.3-3.2c-0.2-1-0.6-1.9-1-2.7
			c-0.5-0.8-1.1-1.4-1.8-1.8c-0.7-0.5-1.6-0.7-2.6-0.7c-1.8,0-3.2,0.7-4.2,2.1S249.5,33.5,249.5,36.3z"/>
		<path class="st0" d="M272.5,40.1l0.7,3.1l0,0l0.8-3.1l4.9-13.9h2.4l-7.7,20.7h-1.1l-7.9-20.7h2.6L272.5,40.1z"/>
		<path class="st0" d="M291.8,40.9h-7.5l-2,5.6h-2.4l7.7-20.7h1.1l7.7,20.7h-2.6L291.8,40.9z M285.2,38.8h6l-2.3-6.2l-0.7-3.1l0,0
			l-0.7,3.1L285.2,38.8z"/>
		<path class="st0" d="M309,41.3c0-0.8-0.2-1.5-0.7-2s-1.1-1-1.8-1.4c-0.7-0.4-1.5-0.8-2.4-1.1s-1.6-0.8-2.4-1.3
			c-0.7-0.5-1.3-1.1-1.8-1.8s-0.7-1.7-0.7-2.8c0-1.6,0.6-2.9,1.7-3.8c1.1-0.9,2.7-1.4,4.7-1.4c1.2,0,2.3,0.1,3.2,0.3
			c1,0.2,1.7,0.4,2.3,0.7l-0.7,2.2c-0.4-0.2-1.1-0.4-2-0.6c-0.9-0.2-1.8-0.3-2.9-0.3c-1.3,0-2.2,0.3-2.9,0.9c-0.6,0.6-1,1.2-1,2
			s0.2,1.4,0.7,1.9s1.1,1,1.8,1.4c0.7,0.4,1.5,0.8,2.4,1.2s1.6,0.8,2.4,1.4c0.7,0.5,1.3,1.1,1.8,1.8s0.7,1.6,0.7,2.7
			c0,0.9-0.2,1.7-0.5,2.4s-0.8,1.3-1.4,1.8s-1.3,0.9-2.2,1.2s-1.8,0.4-2.9,0.4c-1.5,0-2.7-0.1-3.6-0.3c-1-0.2-1.7-0.5-2.2-0.7
			l0.8-2.2c0.4,0.2,1.1,0.5,2,0.7s1.9,0.4,2.9,0.4c0.6,0,1.2-0.1,1.8-0.2c0.6-0.1,1-0.3,1.5-0.6c0.4-0.3,0.7-0.6,1-1.1
			C308.9,42.4,309,41.9,309,41.3z"/>
		<path class="st0" d="M328.1,45.7c-0.6,0.4-1.3,0.8-2.2,0.9c-0.9,0.2-1.8,0.3-2.9,0.3c-1.2,0-2.4-0.2-3.4-0.6
			c-1.1-0.4-2-1.1-2.8-1.9c-0.8-0.9-1.4-1.9-1.9-3.3s-0.7-2.9-0.7-4.7c0-1.9,0.3-3.5,0.8-4.8s1.2-2.4,2-3.3c0.8-0.8,1.8-1.5,2.8-1.8
			c1-0.4,2.1-0.6,3.2-0.6c1.2,0,2.1,0.1,2.9,0.2c0.7,0.1,1.4,0.3,1.9,0.5l-0.6,2.2c-0.9-0.5-2.3-0.7-4-0.7c-0.8,0-1.6,0.1-2.4,0.4
			c-0.8,0.3-1.5,0.8-2.1,1.4c-0.6,0.7-1.1,1.5-1.5,2.6s-0.6,2.4-0.6,3.9c0,1.4,0.2,2.6,0.5,3.7c0.3,1,0.8,1.9,1.4,2.6
			c0.6,0.7,1.3,1.2,2.2,1.6c0.8,0.3,1.7,0.5,2.7,0.5c0.9,0,1.6-0.1,2.3-0.3c0.6-0.2,1.2-0.4,1.6-0.7L328.1,45.7z"/>
		<path class="st0" d="M342.9,26.1h2.3v13.6c0,1.2-0.2,2.3-0.5,3.2s-0.8,1.6-1.4,2.2s-1.3,1-2.1,1.3s-1.8,0.4-2.8,0.4
			c-2.4,0-4.2-0.5-5.4-1.6c-1.2-1.1-1.8-2.7-1.8-4.9V26.1h2.4V39c0,1,0.1,1.9,0.3,2.6c0.2,0.7,0.5,1.3,0.9,1.7s0.9,0.8,1.5,0.9
			c0.6,0.2,1.3,0.3,2.1,0.3c1.6,0,2.7-0.4,3.4-1.3c0.7-0.9,1-2.3,1-4.3V26.1H342.9z"/>
		<path class="st0" d="M361.9,46.5h-12V26.1h2.4v18.2h9.6V46.5z"/>
		<path class="st0" d="M375.7,40.9h-7.5l-2,5.6h-2.4l7.7-20.7h1.1l7.7,20.7h-2.6L375.7,40.9z M369,38.8h6l-2.3-6.2l-0.7-3.1l0,0
			l-0.7,3.1L369,38.8z"/>
		<path class="st0" d="M383.2,26.3c0.7-0.1,1.6-0.2,2.5-0.3c1-0.1,1.8-0.1,2.6-0.1c0.9,0,1.7,0.1,2.5,0.3s1.5,0.5,2.1,1
			c0.6,0.4,1.1,1,1.5,1.7s0.6,1.6,0.6,2.6c0,1.6-0.4,2.9-1.3,3.9s-2,1.6-3.3,2l1.4,1.1l5.1,8.1H394l-5.6-8.8l-2.9-0.4v9.2h-2.4V26.3
			H383.2z M388.4,28c-0.3,0-0.5,0-0.8,0s-0.5,0-0.8,0s-0.5,0-0.7,0.1c-0.2,0-0.4,0-0.5,0.1v7.5h2.3c1.3,0,2.4-0.3,3.3-1
			s1.3-1.7,1.3-3.1c0-1-0.4-1.9-1.1-2.6C390.7,28.3,389.7,28,388.4,28z"/>
		<path class="st0" d="M151.8,57.1c0.4-0.1,0.8-0.1,1.2-0.1s0.9,0,1.4-0.1c0.5,0,1,0,1.5,0s0.9,0,1.3,0c1.6,0,3,0.3,4.2,0.8
			s2.2,1.2,3,2.1s1.4,2,1.7,3.2c0.4,1.3,0.6,2.6,0.6,4.2c0,1.4-0.2,2.7-0.5,4c-0.4,1.3-0.9,2.4-1.7,3.4s-1.8,1.8-3,2.4
			s-2.7,0.9-4.5,0.9c-0.3,0-0.7,0-1.2,0s-1,0-1.5-0.1c-0.5,0-1-0.1-1.5-0.1c-0.4,0-0.8,0-1-0.1V57.1z M157.3,59.1
			c-0.3,0-0.5,0-0.8,0s-0.6,0-0.9,0c-0.3,0-0.6,0-0.8,0.1c-0.2,0-0.4,0-0.6,0.1v16.3c0.1,0,0.3,0,0.6,0s0.6,0,0.8,0s0.6,0,0.8,0
			c0.3,0,0.5,0,0.6,0c1.4,0,2.5-0.2,3.4-0.7s1.7-1.1,2.2-1.9s0.9-1.7,1.2-2.7c0.2-1,0.3-2.1,0.3-3.2c0-1-0.1-1.9-0.3-2.9
			c-0.2-1-0.6-1.8-1.1-2.6s-1.2-1.4-2.1-1.9C159.7,59.3,158.6,59.1,157.3,59.1z"/>
		<path class="st0" d="M170.8,57.1h2.4v20.4h-2.4V57.1z"/>
		<path class="st0" d="M187.1,72.3c0-0.8-0.2-1.5-0.7-2s-1.1-1-1.8-1.4s-1.5-0.8-2.4-1.1s-1.6-0.8-2.4-1.3c-0.7-0.5-1.3-1.1-1.8-1.8
			c-0.5-0.7-0.7-1.7-0.7-2.8c0-1.6,0.6-2.9,1.7-3.8c1.1-0.9,2.7-1.4,4.7-1.4c1.2,0,2.3,0.1,3.2,0.3c1,0.2,1.7,0.4,2.3,0.7l-0.7,2.2
			c-0.4-0.2-1.1-0.4-2-0.6s-1.8-0.3-2.9-0.3c-1.3,0-2.2,0.3-2.9,0.9c-0.6,0.6-1,1.2-1,2s0.2,1.4,0.7,1.9c0.5,0.5,1.1,1,1.8,1.4
			s1.5,0.8,2.4,1.2c0.9,0.4,1.6,0.8,2.4,1.4c0.7,0.5,1.3,1.1,1.8,1.8c0.5,0.7,0.7,1.6,0.7,2.7c0,0.9-0.2,1.7-0.5,2.4
			c-0.3,0.7-0.8,1.3-1.4,1.8c-0.6,0.5-1.3,0.9-2.2,1.2s-1.8,0.4-2.9,0.4c-1.5,0-2.7-0.1-3.6-0.3c-1-0.2-1.7-0.5-2.2-0.7l0.8-2.2
			c0.4,0.2,1.1,0.5,2,0.7s1.9,0.4,2.9,0.4c0.6,0,1.2-0.1,1.8-0.2s1-0.3,1.5-0.6c0.4-0.3,0.7-0.6,1-1.1
			C187,73.4,187.1,72.9,187.1,72.3z"/>
		<path class="st0" d="M192.9,57.1H204v2.2h-8.7V66h7.9v2.2h-7.9v7.2h8.8v2.2h-11.2L192.9,57.1L192.9,57.1z"/>
		<path class="st0" d="M218.6,71.9h-7.5l-2,5.6h-2.4l7.7-20.7h1.1l7.7,20.7h-2.6L218.6,71.9z M211.9,69.8h6l-2.3-6.2l-0.7-3.1l0,0
			l-0.7,3.1L211.9,69.8z"/>
		<path class="st0" d="M235.8,72.3c0-0.8-0.2-1.5-0.7-2s-1.1-1-1.8-1.4s-1.5-0.8-2.4-1.1s-1.6-0.8-2.4-1.3c-0.7-0.5-1.3-1.1-1.8-1.8
			c-0.5-0.7-0.7-1.6-0.7-2.7c0-1.6,0.6-2.9,1.7-3.8c1.1-0.9,2.7-1.4,4.7-1.4c1.2,0,2.3,0.1,3.2,0.3c1,0.2,1.7,0.4,2.3,0.7l-0.7,2.2
			c-0.4-0.2-1.1-0.4-2-0.6s-1.8-0.3-2.9-0.3c-1.3,0-2.2,0.3-2.9,0.9c-0.6,0.6-1,1.2-1,2s0.2,1.4,0.7,1.9c0.5,0.5,1.1,1,1.8,1.4
			s1.5,0.8,2.4,1.2c0.9,0.4,1.6,0.8,2.4,1.4c0.7,0.5,1.3,1.1,1.8,1.8c0.5,0.7,0.7,1.6,0.7,2.7c0,0.9-0.2,1.7-0.5,2.4
			c-0.3,0.7-0.8,1.3-1.4,1.8c-0.6,0.5-1.3,0.9-2.2,1.2s-1.8,0.4-2.9,0.4c-1.5,0-2.7-0.1-3.6-0.3c-1-0.2-1.7-0.5-2.2-0.7l0.8-2.2
			c0.4,0.2,1.1,0.5,2,0.7s1.9,0.4,2.9,0.4c0.6,0,1.2-0.1,1.8-0.2s1-0.3,1.5-0.6c0.4-0.3,0.7-0.6,1-1.1
			C235.7,73.4,235.8,72.9,235.8,72.3z"/>
		<path class="st0" d="M241.6,57.1h11.1v2.2H244V66h7.9v2.2H244v7.2h8.8v2.2h-11.2V57.1z"/>
	</g>
	<g>
		<g>
			<path class="st0" d="M157.6,98.7h-1v8.1h-3.7V87.9h3.7v8.4l0.9-0.4l5.2-8h4.2l-5.5,7.9l-1.5,1l1.5,1.1l6.3,8.9h-4.6L157.6,98.7z"
				/>
			<path class="st0" d="M174.1,96.9l-1.5-3h-0.1l0.4,3v9.9h-3.5v-19h2.7l7.2,10.1l1.4,2.9h0.1l-0.4-2.9V88h3.5v19h-2.7L174.1,96.9z"
				/>
			<path class="st0" d="M186.2,97.3c0-3.1,0.7-5.6,2.1-7.3c1.4-1.7,3.4-2.6,5.9-2.6c1.3,0,2.5,0.2,3.5,0.7s1.8,1.1,2.5,2
				s1.2,1.9,1.5,3.1s0.5,2.5,0.5,4c0,3.2-0.7,5.6-2.1,7.3c-1.4,1.7-3.4,2.6-5.9,2.6c-1.4,0-2.6-0.2-3.6-0.7s-1.8-1.1-2.5-2
				s-1.1-1.9-1.5-3.1C186.3,100.1,186.2,98.8,186.2,97.3z M190.1,97.3c0,1,0.1,1.8,0.2,2.6s0.4,1.5,0.7,2.1s0.8,1,1.3,1.4
				c0.5,0.3,1.1,0.5,1.9,0.5c1.3,0,2.3-0.5,3.1-1.5s1.1-2.7,1.1-5c0-0.9-0.1-1.8-0.2-2.6c-0.2-0.8-0.4-1.5-0.7-2.1s-0.7-1.1-1.3-1.4
				c-0.5-0.3-1.2-0.5-1.9-0.5c-1.3,0-2.3,0.5-3.1,1.6C190.4,93.4,190.1,95.1,190.1,97.3z"/>
			<path class="st0" d="M209,98.4l0.4,3.3h0.1l0.4-3.4l3.3-10.5h2.4l3.2,10.6l0.4,3.3h0.1l0.4-3.4l2.3-10.5h3.8l-5.2,19H218
				l-3.4-10.5l-0.5-2.9H214l-0.5,2.9l-3.3,10.5h-2.6l-5.2-19h4L209,98.4z"/>
			<path class="st0" d="M239.2,106.8h-12V87.9h3.7v15.6h8.3V106.8z"/>
			<path class="st0" d="M240.8,87.9H252v3.3h-7.5v4.4h6.8v3.3h-6.8v4.6h7.6v3.3h-11.3V87.9z"/>
			<path class="st0" d="M254.6,87.9c0.4-0.1,0.8-0.1,1.3-0.1c0.5,0,1-0.1,1.5-0.1s1,0,1.5,0s0.9,0,1.3,0c1.7,0,3.1,0.2,4.3,0.7
				c1.2,0.5,2.2,1.1,2.9,2c0.7,0.8,1.3,1.9,1.6,3c0.3,1.2,0.5,2.5,0.5,3.9c0,1.3-0.2,2.5-0.5,3.7s-0.9,2.2-1.6,3.2s-1.8,1.7-3,2.2
				c-1.2,0.6-2.8,0.8-4.6,0.8c-0.3,0-0.7,0-1.1,0c-0.5,0-1,0-1.5-0.1c-0.5,0-1-0.1-1.5-0.1s-0.8-0.1-1.1-0.1L254.6,87.9L254.6,87.9z
				 M260.4,90.9c-0.4,0-0.8,0-1.2,0c-0.4,0-0.7,0-0.9,0.1v12.7c0.1,0,0.2,0,0.4,0c0.2,0,0.4,0,0.6,0s0.4,0,0.6,0s0.3,0,0.4,0
				c1,0,1.9-0.2,2.6-0.6s1.2-0.9,1.6-1.5s0.7-1.3,0.8-2.1c0.2-0.8,0.2-1.6,0.2-2.5c0-0.7-0.1-1.5-0.2-2.2s-0.4-1.4-0.8-2
				s-0.9-1.1-1.6-1.5S261.4,90.9,260.4,90.9z"/>
			<path class="st0" d="M278.3,96.9h7v8.4c-0.8,0.6-1.7,1.1-2.7,1.4c-1.1,0.3-2.1,0.4-3.1,0.4c-1.2,0-2.3-0.2-3.4-0.6
				s-1.9-1-2.7-1.8c-0.8-0.8-1.3-1.8-1.8-3.1c-0.4-1.2-0.6-2.7-0.6-4.4c0-1.8,0.3-3.3,0.8-4.5c0.5-1.3,1.2-2.3,2-3.1
				c0.8-0.8,1.8-1.4,2.8-1.7s2.1-0.5,3.2-0.5s2,0.1,2.8,0.2c0.8,0.2,1.5,0.3,2,0.5l-0.8,3.1c-0.5-0.2-1-0.3-1.5-0.4
				c-0.6-0.1-1.3-0.1-2.1-0.1c-0.8,0-1.5,0.1-2.1,0.4c-0.6,0.2-1.2,0.6-1.7,1.1s-0.8,1.2-1.1,2c-0.3,0.8-0.4,1.8-0.4,3
				c0,1.1,0.1,2.1,0.4,2.9s0.6,1.5,1.1,2s1,0.9,1.6,1.2c0.6,0.3,1.2,0.4,1.9,0.4c0.5,0,0.9-0.1,1.4-0.2c0.4-0.1,0.8-0.3,1.1-0.5
				v-3.6l-4.1-0.4L278.3,96.9L278.3,96.9z"/>
			<path class="st0" d="M287.9,87.9h11.2v3.3h-7.5v4.4h6.8v3.3h-6.8v4.6h7.6v3.3h-11.3L287.9,87.9L287.9,87.9z"/>
			<path class="st0" d="M308.3,88.1c0.8-0.1,1.6-0.3,2.5-0.3s1.8-0.1,2.7-0.1c0.9,0,1.9,0.1,2.8,0.2s1.8,0.5,2.6,0.9
				s1.4,1.1,1.8,1.9c0.5,0.8,0.7,1.9,0.7,3.2c0,1.2-0.2,2.2-0.6,3s-1,1.5-1.6,2c-0.7,0.5-1.5,0.9-2.3,1.1c-0.9,0.2-1.8,0.4-2.7,0.4
				c-0.1,0-0.2,0-0.4,0s-0.4,0-0.6,0s-0.4,0-0.6,0s-0.4,0-0.4-0.1v6.5h-3.7V88.1H308.3z M313.8,90.8c-0.4,0-0.7,0-1,0
				s-0.6,0.1-0.8,0.1V97c0.1,0,0.2,0,0.3,0.1c0.1,0,0.3,0,0.5,0s0.3,0,0.5,0s0.3,0,0.3,0c0.5,0,1,0,1.4-0.1c0.5-0.1,0.9-0.3,1.3-0.5
				s0.7-0.6,0.9-1c0.2-0.4,0.3-1,0.3-1.7c0-0.6-0.1-1.1-0.3-1.5c-0.2-0.4-0.5-0.7-0.9-0.9c-0.4-0.2-0.8-0.4-1.2-0.5
				C314.7,90.8,314.3,90.8,313.8,90.8z"/>
			<path class="st0" d="M322.8,97.3c0-3.1,0.7-5.6,2.1-7.3c1.4-1.7,3.4-2.6,5.9-2.6c1.3,0,2.5,0.2,3.5,0.7s1.8,1.1,2.5,2
				s1.2,1.9,1.5,3.1s0.5,2.5,0.5,4c0,3.2-0.7,5.6-2.1,7.3c-1.4,1.7-3.4,2.6-5.9,2.6c-1.4,0-2.6-0.2-3.6-0.7s-1.8-1.1-2.5-2
				s-1.1-1.9-1.5-3.1C323,100.1,322.8,98.8,322.8,97.3z M326.7,97.3c0,1,0.1,1.8,0.2,2.6s0.4,1.5,0.7,2.1c0.3,0.6,0.8,1,1.3,1.4
				c0.5,0.3,1.1,0.5,1.9,0.5c1.3,0,2.3-0.5,3.1-1.5s1.1-2.7,1.1-5c0-0.9-0.1-1.8-0.2-2.6c-0.2-0.8-0.4-1.5-0.7-2.1
				c-0.3-0.6-0.7-1.1-1.3-1.4c-0.5-0.3-1.2-0.5-1.9-0.5c-1.3,0-2.3,0.5-3.1,1.6C327.1,93.4,326.7,95.1,326.7,97.3z"/>
			<path class="st0" d="M341.2,88.1c0.4-0.1,0.9-0.1,1.3-0.2c0.5-0.1,1-0.1,1.4-0.1c0.5,0,0.9-0.1,1.4-0.1c0.4,0,0.9,0,1.2,0
				c0.9,0,1.8,0.1,2.6,0.2c0.9,0.2,1.6,0.4,2.3,0.8c0.7,0.4,1.2,0.9,1.6,1.6s0.6,1.6,0.6,2.6c0,1.5-0.4,2.8-1.1,3.8s-1.7,1.6-2.9,2
				l1.3,0.8l4.3,7.2h-4.3l-4.3-7.4l-1.9-0.4v7.7H341V88.1H341.2z M346.9,90.9c-0.4,0-0.8,0-1.1,0c-0.4,0-0.7,0.1-0.9,0.1v5.5h1.6
				c1,0,1.8-0.2,2.5-0.7c0.6-0.5,0.9-1.2,0.9-2.3c0-0.8-0.3-1.4-0.8-1.9S347.8,90.9,346.9,90.9z"/>
			<path class="st0" d="M370.2,91.2h-5.5v15.6H361V91.2h-5.5v-3.3h14.7V91.2z"/>
			<path class="st0" d="M379.2,102.6h-5.8l-1.4,4.2h-3.7l6.8-19h2.7l6.8,19h-3.9L379.2,102.6z M374.4,99.6h4l-1.4-4.2l-0.6-3h-0.1
				l-0.6,3L374.4,99.6z"/>
			<path class="st0" d="M398,106.8h-12V87.9h3.7v15.6h8.3V106.8z"/>
		</g>
	</g>
</g>
<g>
	<g>
		<path class="st1" d="M104.4,103.8c2.3-8.3,12.2-19.5,12.2-19.5c5.8-8,9.2-17.6,9.2-27.9c0-27.8-24.4-50.3-54.5-50.3
			s-52,19.4-55.5,50c-0.3,2.9,1.3,6,1.8,8.7c0.8,3.1,1.4,4.1,0.9,5.6C16.7,76.2,7.3,89.6,7.3,89.6s-2.1,3.5,0.8,5.5
			c1.4,0.9,11.7,1.7,12.2,2.3c0.6,0.5,2.7,20.1,5.7,24.2c2.9,4.1,8.5,4.4,13.5,3.6c2.5-0.4,7.9-2.1,10.2-2.2
			c9.6-2.1,10.8,11.6,11.7,19.8l47.2-16.3C106.3,121.1,102.7,110,104.4,103.8z"/>
	</g>
	<path class="st0" d="M115.1,52.2c-2.1,2.3-4.1,2.8-7.6,3.7c-1.8,0.5-4.9,0.5-8,2.2c-0.3,0.2-0.6,0.4-0.9,0.6
		c0.1-1.2,0.5-2.9,1.5-4.5c2.3-3.4,6.3-3.6,8.5-5c2.3-1.3,3.8-3.6,4.1-6.6c0,0-1.2,5-6.6,6.4c-3.2,0.8-6.6,2.7-8.3,5.6
		c-1.3,2.2-1.5,4.7-1.6,5.7c-1.8,1.5-2.7,2.8-3.2,3.6c0,0-1.4-1.9-3.9-4c0-0.1-0.1-0.2-0.1-0.2c-5.5-10.4-5.5-14.2-3.6-16.8
		c3.1-4.3,9.5-2.9,16-7.7c5.6-4.3,5.6-9.9,5.6-9.9s-1,5.5-5.8,8.9c-5.5,3.9-9.4,3.3-13.2,4.9c-0.1,0-0.2,0.1-0.3,0.2
		c0.1-0.3,0.2-0.6,0.3-0.9c0.6-2.4-0.5-5.1-1.8-7.2c-2.9-5,0.7-10.2,0.7-10.2c-1.3,1.8-3.2,4.6-2.1,9.1c0.5,1.9,2.6,3.9,2.2,7
		c-0.2,1.4-1.2,3-1.8,3.7l0,0c-2,1.6-3,3.7-3.1,5.6c-0.2,3.6,0.9,6.8,2.8,10.8c-1.8-0.9-4-1.7-6.4-2.1c-1.2-1.1-4.2-4.1-3.8-7.5
		c0.5-4.3,1.4-7.6,0.1-11.2c-1.5-4.4-5.3-6.4-8-7.3c-6-6.8-4-14.6-4-14.6s-3.2,7.3,1.6,14.1c-0.1,0-0.2,0-0.3,0
		c-1.9,0-10.4-2.4-14.6-7.8c0,0,4.3,7,13.5,8.9c5.1,1.1,6.8,2.1,8.6,4.9c1.9,2.9,1.3,5.9,0.4,11.8c-0.6,3.7,0.3,6.2,1.6,8.5
		c-1.9,0.1-3.9,0.5-6,1.2c-0.6,0.2-1.2,0.4-1.8,0.5c0-1.1,0-4.6-4.6-7.9c-3.1-2.3-6-2.8-8.4-5.9C49.7,38.6,53,32,53,32
		s-1.9,2.6-2.2,6.3c-0.3,2.9,1.4,5.1,2.3,6.3c2.1,2.9,5.7,3.3,8.6,6.3c2.4,2.4,1.6,4.7,1.6,6.2C56.7,58.2,51,56.5,47,51.8
		c-7.8-9.3-0.7-30.3-0.7-30.3s-5.5,9.9-4.1,22.9c-6.5-7.6-14.3-3.3-14.3-3.3s9.5-3.4,14.8,7c0.4,1.5,0.9,3,1.8,4.5c0,0,0,0,0,0.1
		l0,0c1.5,2.6,3.9,4.9,7.4,6.5c-1.1,0.6-3.8,1.7-5.5,1.3c-1.9-0.4-2.2-2.5-4.7-3.3c-1.5-0.5-2.5-0.4-3.4-0.8
		c-0.9-0.3-1.1-2.6-2.4-3.4c-0.5-0.3-1.8-0.5-2.7-0.6s-1.7-0.7-1.7-0.7c0.3,0.7,1.8,1.6,2.5,1.7c0.7,0.1,1.3,0.2,2.1,2.2
		s1.6,2,4.1,2.7c2.4,0.8,2.1,2.9,4.7,4c2.6,1.2,6.1,0,9.4-1.1c0.7-0.2,1.5-0.4,2.4-0.6c8.6,2,12.9-2.1,20.2-0.6
		c11.7,2.4,12,9.7,12.4,15.6c0.1,0.8,0,1.7-0.2,2.6c-0.2-0.2-0.5-0.5-0.7-0.7c-1.3-1.7-0.9-5.1-3.2-7.9c-1.1-1.4-3.1-3.4-6.8-2.8
		c-4.1,0.6-6,4.1-12.7,3.7C59.8,70.1,55.2,66,55.2,66s3,4.8,10,5.5c10.1,1.1,10.9-4.9,16.3-2.5c3,1.3,2.5,4.4,3.8,8.8
		c0.5,1.8,1.6,3.3,2.8,4.4c-2.7,12.2-5.1,32.8,1.4,51l10.3-3.6c-4.6-11.6-9-29.6-3.8-49.3c0,0,0.8-6-0.2-9.7c-0.5-1.7,1.5-7,5.2-9.6
		c4.7-3.3,11.7-2.7,14.8-7.1c2-2.9,2.5-9.8,2.5-9.8S117.1,50.1,115.1,52.2z"/>
	<g>
		<path class="st0" d="M94.1,74.6v-0.5c-0.6,0.4,9.2-8.5,17.9-5.7c0,0-8.2-2.1-17.4,7.6L94.1,74.6z"/>
	</g>
	<path class="st0" d="M38.8,33.6c0,3.6-3.6,6.6-3.6,6.6s-3.6-2.9-3.6-6.6s3.6-6.6,3.6-6.6S38.8,30,38.8,33.6z"/>
	<path class="st0" d="M34.8,49.3c-3.5,1.1-7.4-1.6-7.4-1.6s1.8-4.3,5.3-5.4s7.4,1.6,7.4,1.6S38.3,48.3,34.8,49.3z"/>
	<path class="st0" d="M41.4,68.8c-3.1,1.9-7.5,0.5-7.5,0.5s0.6-4.6,3.6-6.6s7.5-0.5,7.5-0.5S44.5,66.8,41.4,68.8z"/>
	<path class="st0" d="M30,60c-3.6,0.7-7.1-2.3-7.1-2.3s2.2-4.1,5.8-4.8s7.1,2.3,7.1,2.3S33.5,59.4,30,60z"/>
	<path class="st0" d="M52.3,31.6c-3.1,1.2-6.7-0.9-6.7-0.9s1.3-4,4.4-5.2c3.1-1.2,6.7,0.9,6.7,0.9S55.4,30.5,52.3,31.6z"/>
	<path class="st0" d="M107.4,39.2c-3.6-0.2-6.4-4-6.4-4s3.1-3.4,6.8-3.2c3.6,0.2,6.4,4,6.4,4S111,39.4,107.4,39.2z"/>
	<path class="st0" d="M92.2,49.9c-2.8,2.3-7.4,1.4-7.4,1.4s0-4.7,2.8-7s7.4-1.4,7.4-1.4S95,47.6,92.2,49.9z"/>
	<path class="st0" d="M57.2,75.5c-2.7,1.8-6.8,0.6-6.8,0.6s0.4-4.2,3.1-6c2.7-1.8,6.8-0.6,6.8-0.6S60,73.7,57.2,75.5z"/>
	<path class="st0" d="M75.8,25.7c-0.8,3.5-5,5.6-5,5.6s-2.9-3.7-2.1-7.2s5-5.6,5-5.6S76.6,22.1,75.8,25.7z"/>
	<path class="st0" d="M84.4,36c1.1,3.5-1.4,7.4-1.4,7.4s-4.3-1.7-5.4-5.2s1.4-7.4,1.4-7.4S83.3,32.5,84.4,36z"/>
	<path class="st0" d="M104.6,43.9c1.4,2.8-0.3,6.5-0.3,6.5s-3.9-0.9-5.4-3.7c-1.4-2.8,0.3-6.5,0.3-6.5S103.2,41.1,104.6,43.9z"/>
	<path class="st0" d="M85.1,16.2c1.9,3.1,0.4,7.5,0.4,7.5S80.9,23.1,79,20s-0.4-7.5-0.4-7.5S83.2,13.1,85.1,16.2z"/>
	<path class="st2" d="M100.6,28.4c0.4,4.4-3.6,8.4-3.6,8.4s-4.7-3.2-5.1-7.6s3.6-8.4,3.6-8.4S100.2,24,100.6,28.4z"/>
	<path class="st0" d="M55,22.1c-3.4-1.4-4.8-5.8-4.8-5.8s4.1-2.3,7.5-0.9s4.8,5.8,4.8,5.8S58.3,23.5,55,22.1z"/>
	<path class="st0" d="M65.5,42.7c-2.3-2.8-1.4-7.4-1.4-7.4s4.7,0,7,2.8s1.4,7.4,1.4,7.4S67.8,45.5,65.5,42.7z"/>
	<path class="st0" d="M64.8,68.3c-1.8-2.3-1.1-5.9-1.1-5.9s3.7,0,5.6,2.3c1.8,2.3,1.1,5.9,1.1,5.9S66.7,70.6,64.8,68.3z"/>
	<path class="st0" d="M112.9,65.6c-1.9,2.3-5.8,2.2-5.8,2.2s-0.7-3.8,1.2-6c1.9-2.3,5.8-2.2,5.8-2.2S114.8,63.3,112.9,65.6z"/>
	<path class="st0" d="M60.9,40.1c-1,3.5-5.3,5.3-5.3,5.3S53,41.6,54,38.1s5.3-5.3,5.3-5.3S62,36.6,60.9,40.1z"/>
	<path class="st0" d="M51.5,47.3c-0.7,3-4.2,4.8-4.2,4.8S44.8,49,45.4,46s4.2-4.8,4.2-4.8S52.1,44.3,51.5,47.3z"/>
</g>
<g>
	<g>
		<g>
			<g>
				<path class="st0" d="M152.9,117.3h2.9c1.1,0,1.8,0.1,2.4,0.7c0.4,0.4,0.6,1,0.6,1.7s-0.2,1.2-0.7,1.7s-1.1,0.7-2.6,0.7h-1.4v3.8
					h-1.2V117.3z M154.1,121.1h1.4c0.8,0,2-0.1,2-1.5s-1.1-1.4-1.8-1.4H154v2.9H154.1z"/>
				<path class="st0" d="M162.7,119.8c2.4,0,3,1.9,3,3.2c0,1.8-1,3.2-3,3.2s-3-1.4-3-3.1C159.6,121.5,160.3,119.8,162.7,119.8z
					 M162.6,125.3c0.9,0,1.8-0.6,1.8-2.4c0-1.5-0.7-2.3-1.8-2.3c-0.7,0-1.9,0.5-1.9,2.3C160.8,124.2,161.3,125.3,162.6,125.3z"/>
				<path class="st0" d="M167.6,119.9l1.5,4.8l1.5-4.8h1.5l1.4,4.7l1.5-4.7h1.2l-2.1,6h-1.3l-1.4-5l-1.6,5h-1.3l-2-6H167.6z"/>
				<path class="st0" d="M177.9,123.1c0,1.2,0.5,2.2,1.7,2.2c0.7,0,1.3-0.4,1.4-1.2h1.1c0,0.3-0.1,0.8-0.5,1.3
					c-0.3,0.3-0.9,0.8-2.1,0.8c-1.9,0-2.8-1.2-2.8-3.1c0-1.2,0.2-2.2,1.2-2.8c0.6-0.4,1.3-0.4,1.6-0.4c2.7,0,2.6,2.4,2.6,3.4h-4.2
					V123.1z M181.1,122.3c0-0.6-0.1-1.8-1.5-1.8c-0.7,0-1.6,0.4-1.6,1.8H181.1z"/>
				<path class="st0" d="M183.9,121.1c0-0.4,0-0.8-0.1-1.2h1.1v1.2c0.2-0.8,0.9-1.1,1.4-1.2c0.3,0,0.6,0,0.8,0v1.1
					c-0.1,0-0.1,0-0.2,0c-0.1,0-0.2,0-0.3,0c-1.3,0-1.6,0.8-1.6,1.8v3.2h-1.1L183.9,121.1L183.9,121.1z"/>
				<path class="st0" d="M189.3,123.1c0,1.2,0.5,2.2,1.7,2.2c0.7,0,1.3-0.4,1.4-1.2h1.1c0,0.3-0.1,0.8-0.5,1.3
					c-0.3,0.3-0.9,0.8-2.1,0.8c-1.9,0-2.8-1.2-2.8-3.1c0-1.2,0.2-2.2,1.2-2.8c0.6-0.4,1.3-0.4,1.6-0.4c2.7,0,2.6,2.4,2.6,3.4h-4.2
					V123.1z M192.5,122.3c0-0.6-0.1-1.8-1.5-1.8c-0.7,0-1.6,0.4-1.6,1.8H192.5z"/>
				<path class="st0" d="M199.5,117.3h1.1v7.7c0,0.1,0,0.6,0,1h-1.1v-1c-0.1,0.2-0.2,0.4-0.5,0.6c-0.5,0.3-1.1,0.4-1.5,0.4
					c-0.8,0-2.6-0.4-2.6-3.1c0-2.3,1.3-3.3,2.7-3.3c1.3,0,1.7,0.8,1.9,1L199.5,117.3L199.5,117.3z M199.1,121.2
					c-0.2-0.3-0.7-0.6-1.3-0.6c-1.7,0-1.7,2-1.7,2.4c0,1.1,0.3,2.3,1.7,2.3c1.8,0,1.8-2,1.8-2.4C199.5,122,199.3,121.5,199.1,121.2z
					"/>
				<path class="st0" d="M207.1,120.8c0.2-0.3,0.6-1,2-1c0.6,0,1.4,0.1,1.9,0.8c0.3,0.3,0.7,0.9,0.7,2.3c0,1.2-0.3,1.8-0.6,2.2
					c-0.5,0.7-1.3,1-2.1,1c-0.3,0-0.8,0-1.3-0.4c-0.3-0.2-0.5-0.4-0.6-0.6v0.9H206v-1.1v-7.6h1.1L207.1,120.8L207.1,120.8z
					 M208.8,120.5c-1.7,0-1.7,2-1.7,2.4s0,2.3,1.7,2.3c1.4,0,1.7-1.4,1.7-2.3C210.5,122.3,210.4,120.5,208.8,120.5z"/>
				<path class="st0" d="M216,126l-0.9,2.2h-1.2l0.9-2.3l-2.5-6h1.3l1.9,4.7l1.9-4.7h1.2L216,126z"/>
				<path class="st0" d="M222.4,119.9h1.1v-1.3l1.1-0.4v1.6h1.3v0.8h-1.4v3.6c0,0.3,0,0.8,0.8,0.8c0.2,0,0.4,0,0.5-0.1v0.9
					c-0.2,0-0.5,0.1-0.9,0.1c-1,0-1.5-0.3-1.5-1.3v-4h-1.1L222.4,119.9L222.4,119.9z"/>
				<path class="st0" d="M227.2,117.3h1.1v3.5c0.4-0.6,1.1-1,2-1c0.6,0,1.5,0.2,1.9,1c0.1,0.2,0.2,0.5,0.2,1.4v3.8h-1.2v-3.6
					c0-0.5,0-1.7-1.3-1.7c-0.8,0-1.3,0.5-1.4,0.8c-0.2,0.3-0.2,0.9-0.2,1.3v3.2h-1.1V117.3z"/>
				<path class="st0" d="M235.2,123.1c0,1.2,0.5,2.2,1.7,2.2c0.7,0,1.3-0.4,1.4-1.2h1.1c0,0.3-0.1,0.8-0.5,1.3
					c-0.3,0.3-0.9,0.8-2.1,0.8c-1.9,0-2.8-1.2-2.8-3.1c0-1.2,0.2-2.2,1.2-2.8c0.6-0.4,1.3-0.4,1.6-0.4c2.7,0,2.6,2.4,2.6,3.4h-4.2
					V123.1z M238.4,122.3c0-0.6-0.1-1.8-1.5-1.8c-0.7,0-1.6,0.4-1.6,1.8H238.4z"/>
				<path class="st0" d="M251.6,115.9l4.5,13h-2.8l-0.9-2.8h-5.1l-1,2.8h-2.7l4.7-13H251.6z M251.7,124l-1.8-5.5L248,124H251.7z"/>
				<path class="st0" d="M257.6,115.9h4.6l2.8,9.5l3-9.5h4.4v13h-2.9v-11.2l-3.5,11.2h-2.3l-3.5-11.2v11.2h-2.6V115.9z"/>
				<path class="st0" d="M274.8,116h4c1.9,0,3.4,0.1,4.5,1.4c0.7,0.8,0.8,1.8,0.8,2.4c0,1.5-0.6,2.8-1.7,3.5c-1,0.6-2.3,0.6-3,0.6
					h-1.9v5.1h-2.8v-13H274.8z M277.5,121.8h1.1c0.9,0,2.6,0,2.6-2c0-1.8-1.5-1.8-2.3-1.8h-1.4V121.8z"/>
				<path class="st0" d="M285.1,123.2h4.5v2h-4.5V123.2z"/>
				<path class="st0" d="M293.2,118.1h-3.9v-2.2h10.6v2.2H296V129h-2.8L293.2,118.1L293.2,118.1z"/>
				<path class="st0" d="M300.7,126.4l3.3-3c0.6-0.5,1.2-1.1,1.9-1.9c0.7-0.8,0.9-1.2,0.9-1.8c0-1-0.6-1.6-1.5-1.6
					c-1.4,0-1.6,1.5-1.6,1.8h-2.8c0-0.5,0-1.4,0.7-2.4c0.7-0.9,2.1-1.4,3.6-1.4c2.7,0,4.2,1.5,4.2,3.4c0,1.3-0.5,3-5.9,7.3
					c1.8,0,2-0.1,3.5-0.1c1.9,0,2.1,0,2.6-0.1v2.1h-8.8v-2.3H300.7z"/>
				<path class="st0" d="M311.5,116h4.3c0.7,0,2.9,0,4.5,1.2s2.2,3.3,2.2,5.1c0,4-2.1,6.1-4.6,6.5c-0.5,0.1-1,0.1-2.3,0.1h-4.1V116z
					 M314.3,126.8c0.3,0,0.8,0,1.1,0c1.2,0,2.2-0.1,3-0.9c1.1-1.1,1.2-3,1.2-3.7c0-1.8-0.6-3.5-2.4-4c-0.6-0.2-1.3-0.3-2.9-0.2
					L314.3,126.8L314.3,126.8z"/>
				<path class="st0" d="M324.4,116h2.8v5.6l4.4-5.6h3.3l-4.8,5.8l5.2,7.2h-3.5l-4.6-6.6v6.6h-2.8V116z"/>
				<path class="st0" d="M336.5,116h4c1.9,0,3.4,0.1,4.5,1.4c0.7,0.8,0.8,1.8,0.8,2.4c0,1.5-0.6,2.8-1.7,3.5c-1,0.6-2.3,0.6-3,0.6
					h-1.9v5.1h-2.7V116z M339.3,121.8h1.1c0.9,0,2.6,0,2.6-2c0-1.8-1.5-1.8-2.3-1.8h-1.4L339.3,121.8L339.3,121.8z"/>
				<path class="st0" d="M352.4,120.9c0-0.3,0-0.4,0-1h1.1v1c0.6-0.9,1.6-1.1,2.1-1.1c1.3,0,2.5,0.9,2.5,3.1s-1.3,3.2-2.7,3.2
					c-0.9,0-1.5-0.4-1.8-0.9v3h-1.1v-7.3H352.4z M355.2,125.3c0.3,0,0.9-0.1,1.3-0.6c0.4-0.6,0.5-1.5,0.5-1.9c0-1.1-0.3-2.2-1.7-2.2
					c-1.8,0-1.8,1.9-1.8,2.4C353.5,123.8,353.6,125.3,355.2,125.3z"/>
				<path class="st0" d="M359.8,117.3h1.1v8.6h-1.1V117.3z"/>
				<path class="st0" d="M366.7,125.9c-0.1-0.3-0.1-0.6-0.1-0.9c-0.5,1-1.4,1.1-1.9,1.1c-1.4,0-2.1-0.8-2.1-1.8
					c0-0.5,0.2-1.2,1.1-1.8c0.6-0.4,1.6-0.4,2.1-0.4c0.3,0,0.5,0,0.8,0c0-0.7,0-1.1-0.2-1.3c-0.2-0.3-0.7-0.4-1-0.4
					c-1.1,0-1.2,0.8-1.2,1h-1.1c0-0.3,0.1-0.7,0.4-1.1c0.5-0.5,1.3-0.6,1.9-0.6c0.9,0,1.8,0.3,2.1,0.9c0.2,0.4,0.2,0.6,0.2,0.9v2.9
					c0,0.1,0,0.9,0.1,1.5H366.7z M365.9,123c-0.5,0-2.2,0-2.2,1.2c0,0.4,0.2,1,1.2,1c0.6,0,1-0.2,1.3-0.6c0.3-0.4,0.3-0.7,0.3-1.6
					C366.3,123,366.2,123,365.9,123z"/>
				<path class="st0" d="M368.8,119.9h1.1v-1.3l1.1-0.4v1.6h1.3v0.8H371v3.6c0,0.3,0,0.8,0.8,0.8c0.2,0,0.4,0,0.5-0.1v0.9
					c-0.2,0-0.5,0.1-0.9,0.1c-1,0-1.5-0.3-1.5-1.3v-4h-1.1V119.9z"/>
				<path class="st0" d="M377.1,118.1c-0.2,0-0.4,0-0.7,0c-0.9,0-0.9,0.5-0.9,0.9v0.9h1.4v0.8h-1.4v5.2h-1.1v-5.2h-1.2v-0.8h1.2
					v-0.7c0-0.8,0-1.1,0.3-1.4c0.3-0.4,0.7-0.7,1.5-0.7c0.3,0,0.7,0,0.9,0.1L377.1,118.1L377.1,118.1z"/>
				<path class="st0" d="M380.7,119.8c2.4,0,3,1.9,3,3.2c0,1.8-1,3.2-3,3.2s-3-1.4-3-3.1C377.7,121.5,378.4,119.8,380.7,119.8z
					 M380.7,125.3c0.9,0,1.8-0.6,1.8-2.4c0-1.5-0.7-2.3-1.8-2.3c-0.7,0-1.9,0.5-1.9,2.3C378.9,124.2,379.4,125.3,380.7,125.3z"/>
				<path class="st0" d="M385.4,121.1c0-0.4,0-0.8-0.1-1.2h1.1v1.2c0.2-0.8,0.9-1.1,1.4-1.2c0.3,0,0.6,0,0.8,0v1.1
					c-0.1,0-0.1,0-0.2,0s-0.2,0-0.3,0c-1.3,0-1.6,0.8-1.6,1.8v3.2h-1.1L385.4,121.1L385.4,121.1z"/>
				<path class="st0" d="M390,120.7v-0.8h1.1v0.9c0.6-0.9,1.4-1,1.9-1c1.3,0,1.8,0.7,2,1.1c0.2-0.3,0.7-1.1,2-1.1
					c0.9,0,2.2,0.4,2.2,2.1v4h-1.1V122c0-0.5-0.1-0.8-0.2-0.9c-0.2-0.3-0.6-0.5-1.2-0.5c-0.7,0-1.1,0.4-1.3,0.6
					c-0.3,0.4-0.3,1-0.3,1.3v3.4H394v-4c0-0.7-0.4-1.3-1.3-1.3c-0.8,0-1.2,0.5-1.3,0.7c-0.3,0.3-0.3,0.8-0.3,1.2v3.4H390L390,120.7
					L390,120.7z"/>
			</g>
		</g>
	</g>
</g>
</svg>
