<?xml version="1.0" encoding="utf-8"?>
<!-- Generator: Adobe Illustrator 23.0.4, SVG Export Plug-In . SVG Version: 6.00 Build 0)  -->
<svg version="1.1" id="Layer_1" xmlns="http://www.w3.org/2000/svg" xmlns:xlink="http://www.w3.org/1999/xlink" x="0px" y="0px"
	 viewBox="0 0 147.9 47" style="enable-background:new 0 0 147.9 47;" xml:space="preserve">
<style type="text/css">
	.st0{fill:#FFFFFF;}
</style>
<g>
	<g>
		<g>
			<g>
				<path class="st0" d="M117,19.4c-0.2-0.2-0.6-0.3-1-0.4c-0.3-0.1-0.7-0.1-1.1-0.1c-0.2,0-0.6,0-0.8,0s-0.5,0.1-0.6,0.1v4.8
					c0.1,0,0.2,0,0.2,0.1c0.1,0,0.2,0,0.3,0c0.2,0,0.2,0,0.4,0c0.2,0,0.2,0,0.2,0c0.4,0,0.7,0,1.1-0.1c0.4-0.1,0.7-0.2,1-0.4
					c0.3-0.2,0.6-0.5,0.7-0.8c0.2-0.3,0.2-0.8,0.2-1.3s-0.1-0.8-0.2-1.1C117.5,19.8,117.2,19.6,117,19.4z"/>
				<path class="st0" d="M115.4,14.7L115.4,14.7L115.4,14.7H95.8v4.5v13.9l0,0h19.4l0,0l0,0c5.1,0,9.2-4.1,9.2-9.2
					S120.4,14.7,115.4,14.7z M106.5,31.4l-4.4-6.3h-0.7v6.3h-2.9V16.6h2.9v6.6l0.6-0.3l4-6.2h3.3l-4.3,6.2l-1.1,0.8l1.2,0.8l4.9,7
					C110.2,31.4,106.5,31.4,106.5,31.4z M120.4,23.6c-0.3,0.6-0.7,1.1-1.3,1.5c-0.6,0.4-1.1,0.7-1.9,0.9c-0.6,0.2-1.4,0.2-2.1,0.2
					c-0.1,0-0.2,0-0.3,0c-0.2,0-0.3,0-0.5,0c-0.2,0-0.3,0-0.5,0c-0.2,0-0.2,0-0.3-0.1v5.1h-2.9V16.8c0.6-0.1,1.2-0.2,1.9-0.2
					c0.7-0.1,1.5-0.1,2.1-0.1c0.7,0,1.5,0.1,2.2,0.2c0.7,0.1,1.4,0.3,2,0.7c0.6,0.3,1.1,0.9,1.5,1.5c0.4,0.6,0.6,1.5,0.6,2.5
					C120.9,22.3,120.7,23,120.4,23.6z"/>
			</g>
			<g>
				<path class="st0" d="M62.3,32.4c-0.6,0.4-1.2,0.6-2,0.8c-0.8,0.2-1.7,0.2-2.6,0.2c-1.1,0-2.1-0.2-3.1-0.6c-1-0.3-1.9-1-2.6-1.7
					c-0.7-0.8-1.3-1.8-1.7-3c-0.4-1.2-0.6-2.7-0.6-4.3c0-1.7,0.2-3.2,0.7-4.4c0.5-1.2,1.1-2.2,1.9-2.9c0.7-0.7,1.6-1.3,2.6-1.7
					c1-0.3,1.9-0.6,2.9-0.6c1.1,0,1.9,0.1,2.6,0.2c0.6,0.1,1.2,0.2,1.7,0.5l-0.6,1.9c-0.8-0.4-2-0.6-3.6-0.6c-0.7,0-1.5,0.2-2.1,0.4
					c-0.7,0.2-1.3,0.7-1.9,1.3s-1,1.4-1.3,2.3c-0.4,1-0.6,2.2-0.6,3.6c0,1.3,0.2,2.3,0.5,3.3s0.7,1.7,1.3,2.3
					c0.6,0.6,1.2,1.1,1.9,1.5c0.7,0.3,1.5,0.5,2.4,0.5c0.8,0,1.5-0.1,2.1-0.2c0.6-0.2,1.1-0.3,1.5-0.6L62.3,32.4z"/>
				<path class="st0" d="M70.2,27.4l0.6,2.8l0,0l0.6-2.8l4.5-12.6h2.2l-7,18.8h-1L63,14.7h2.4L70.2,27.4z"/>
				<path class="st0" d="M79.8,14.7c0.3-0.1,0.7-0.1,1.1-0.1c0.4,0,0.8-0.1,1.3-0.1c0.5,0,0.9,0,1.3,0s0.8,0,1.2,0
					c1.5,0,2.8,0.2,3.8,0.6c1.1,0.5,1.9,1.1,2.7,1.9c0.7,0.8,1.2,1.8,1.5,2.9c0.3,1.1,0.5,2.4,0.5,3.8c0,1.2-0.2,2.4-0.5,3.6
					c-0.3,1.1-0.8,2.2-1.5,3.1c-0.7,0.9-1.6,1.6-2.8,2.1c-1.1,0.6-2.5,0.8-4,0.8c-0.2,0-0.6,0-1.1,0s-0.9,0-1.4-0.1
					c-0.5,0-0.9-0.1-1.3-0.1s-0.7-0.1-0.9-0.1L79.8,14.7L79.8,14.7z M84.8,16.4c-0.2,0-0.5,0-0.7,0s-0.6,0-0.8,0s-0.5,0-0.7,0.1
					c-0.2,0-0.4,0-0.5,0.1v14.7c0.1,0,0.2,0,0.5,0c0.2,0,0.5,0,0.7,0s0.5,0,0.7,0c0.2,0,0.4,0,0.5,0c1.2,0,2.3-0.2,3.1-0.6
					c0.8-0.4,1.5-1,2-1.7c0.5-0.7,0.9-1.5,1.1-2.4c0.2-0.9,0.3-1.9,0.3-2.8c0-0.9-0.1-1.7-0.3-2.6c-0.2-0.9-0.6-1.6-1-2.3
					c-0.5-0.7-1.1-1.3-1.9-1.7C87,16.7,86,16.4,84.8,16.4z"/>
			</g>
		</g>
	</g>
	<g>
		<path class="st0" d="M26.7,25.1c-0.1,0.2-0.2,0.4-0.5,0.5c0.2,0.1,0.4,0.3,0.5,0.5c0.1-0.2,0.3-0.3,0.5-0.5
			C27,25.5,26.8,25.3,26.7,25.1z"/>
		<path class="st0" d="M26.7,27.4c-0.1,0.2-0.2,0.3-0.5,0.5c0.2,0.1,0.3,0.3,0.4,0.5c0.1-0.2,0.3-0.4,0.5-0.5
			C27,27.8,26.8,27.6,26.7,27.4z"/>
		<path class="st0" d="M24.5,27.5c-0.1,0.2-0.2,0.3-0.4,0.4c0.2,0.1,0.3,0.2,0.4,0.4c0.1-0.2,0.2-0.3,0.4-0.5
			C24.7,27.8,24.6,27.7,24.5,27.5z"/>
		<path class="st0" d="M24.6,23.1c-0.1,0.2-0.3,0.4-0.5,0.5c0.2,0.1,0.3,0.2,0.4,0.5c0.1-0.2,0.3-0.4,0.6-0.6
			C24.8,23.3,24.6,23.2,24.6,23.1z"/>
		<path class="st0" d="M26.7,21.8c0.1-0.2,0.3-0.4,0.5-0.5c-0.2-0.1-0.3-0.2-0.4-0.4c-0.1,0.2-0.2,0.3-0.5,0.5
			C26.4,21.5,26.6,21.6,26.7,21.8z"/>
		<path class="st0" d="M28.9,21.9c0.1-0.2,0.3-0.4,0.6-0.6c-0.2-0.1-0.5-0.3-0.6-0.6c-0.1,0.2-0.3,0.4-0.5,0.5
			C28.6,21.4,28.8,21.6,28.9,21.9z"/>
		<path class="st0" d="M26.7,29.5c-0.1,0.2-0.3,0.4-0.6,0.6c0.2,0.2,0.5,0.3,0.6,0.6c0.1-0.2,0.3-0.5,0.6-0.6
			C27.1,30,26.8,29.7,26.7,29.5z"/>
		<path class="st0" d="M24.5,25.1c-0.1,0.2-0.2,0.3-0.4,0.5c0.2,0.1,0.3,0.2,0.4,0.4c0.1-0.2,0.2-0.2,0.4-0.3
			C24.7,25.5,24.6,25.3,24.5,25.1z"/>
		<ellipse transform="matrix(0.7072 -0.707 0.707 0.7072 -8.7955 25.7333)" class="st0" cx="26.7" cy="23.5" rx="0.5" ry="0.6"/>
		<path class="st0" d="M22.3,25.2c-0.1,0.2-0.2,0.3-0.4,0.5c0.2,0.1,0.3,0.2,0.4,0.3c0.1-0.2,0.2-0.3,0.4-0.4
			C22.5,25.5,22.4,25.3,22.3,25.2z"/>
		<ellipse transform="matrix(0.7071 -0.7071 0.7071 0.7071 -10.7188 21.1016)" class="st0" cx="20.1" cy="23.5" rx="0.6" ry="0.5"/>
		<path class="st0" d="M22.2,21.7c0.1-0.2,0.2-0.3,0.4-0.4c-0.1-0.1-0.2-0.2-0.2-0.2c-0.1,0.2-0.2,0.2-0.4,0.4
			C22,21.5,22.1,21.5,22.2,21.7z"/>
		<path class="st0" d="M22.3,24c0.1-0.2,0.2-0.3,0.4-0.4c-0.2-0.1-0.3-0.2-0.5-0.5c-0.1,0.2-0.2,0.3-0.4,0.4
			C22,23.6,22.2,23.7,22.3,24z"/>
		<path class="st0" d="M20.1,29.5c-0.2,0.2-0.3,0.5-0.6,0.6c0.2,0.1,0.5,0.3,0.6,0.6c0.1-0.2,0.3-0.5,0.6-0.6
			C20.4,29.9,20.3,29.7,20.1,29.5z"/>
		<path class="st0" d="M24.6,21.7c0.1-0.2,0.2-0.2,0.3-0.3c-0.2-0.1-0.3-0.2-0.4-0.4c-0.1,0.1-0.2,0.2-0.3,0.3
			C24.3,21.4,24.5,21.5,24.6,21.7z"/>
		<path class="st0" d="M22.3,29.6C22.2,29.8,22,30,21.8,30c0.2,0.2,0.4,0.3,0.6,0.6c0.1-0.2,0.3-0.5,0.6-0.6
			C22.7,30,22.4,29.8,22.3,29.6z"/>
		<path class="st0" d="M20.1,27.4c-0.1,0.2-0.2,0.3-0.5,0.5c0.2,0.1,0.4,0.3,0.5,0.5c0.1-0.2,0.2-0.3,0.4-0.5
			C20.3,27.8,20.2,27.6,20.1,27.4z"/>
		<path class="st0" d="M22.3,27.5c-0.1,0.2-0.2,0.2-0.4,0.3c0.2,0.1,0.3,0.2,0.4,0.5c0.1-0.2,0.2-0.3,0.3-0.4
			C22.5,27.9,22.4,27.7,22.3,27.5z"/>
		<path class="st0" d="M28.9,24.1c0.2-0.3,0.4-0.6,0.7-0.6c-0.3-0.1-0.6-0.3-0.7-0.6c-0.1,0.2-0.3,0.5-0.6,0.6
			C28.6,23.6,28.8,23.8,28.9,24.1z"/>
		<path class="st0" d="M24.5,29.5c-0.2,0.2-0.3,0.5-0.6,0.6c0.2,0.1,0.5,0.3,0.6,0.6c0.1-0.2,0.3-0.5,0.6-0.6
			C24.8,29.9,24.6,29.7,24.5,29.5z"/>
		<path class="st0" d="M26.7,31.6c-0.2,0.3-0.4,0.6-0.6,0.6c0.4,0.2,0.7,0.6,0.7,1.1c0-0.6,0.5-1.1,1.1-1.1
			C27.3,32.2,26.9,32,26.7,31.6z"/>
		<path class="st0" d="M17.8,21.9c0.1-0.2,0.3-0.5,0.6-0.6c-0.2-0.1-0.4-0.3-0.5-0.5c-0.2,0.2-0.3,0.4-0.6,0.6
			C17.6,21.5,17.7,21.6,17.8,21.9z"/>
		<path class="st0" d="M17.9,24.1c0.1-0.2,0.3-0.5,0.6-0.6c-0.2-0.2-0.5-0.3-0.6-0.6c-0.2,0.3-0.4,0.5-0.7,0.6
			C17.5,23.6,17.7,23.8,17.9,24.1z"/>
		<path class="st0" d="M20.7,32.2c-0.3-0.2-0.6-0.4-0.6-0.6c-0.2,0.4-0.6,0.7-1.1,0.7c0.6,0,1.1,0.5,1.1,1.1
			C20.1,32.9,20.3,32.5,20.7,32.2z"/>
		<path class="st0" d="M28.9,26.3c0.2-0.3,0.4-0.6,0.7-0.6c-0.3-0.1-0.6-0.3-0.7-0.6c-0.1,0.2-0.3,0.5-0.6,0.6
			C28.6,25.8,28.8,26,28.9,26.3z"/>
		<path class="st0" d="M23.5,5.2c-10,0-18.2,8.1-18.2,18.2s8.2,18.2,18.2,18.2s18.2-8.2,18.2-18.2S33.6,5.2,23.5,5.2z M38.7,17.5
			c0.2,0,0.5,0.2,0.5,0.5c0,0.2-0.2,0.5-0.5,0.5s-0.5-0.2-0.5-0.5C38.2,17.7,38.4,17.5,38.7,17.5z M38.7,19.5c0.4,0,0.6,0.3,0.6,0.6
			s-0.3,0.6-0.6,0.6c-0.4,0-0.6-0.3-0.6-0.6S38.3,19.5,38.7,19.5z M36.5,15c0.4,0,0.8,0.3,0.8,0.8c0,0.4-0.3,0.8-0.8,0.8
			c-0.4,0-0.8-0.3-0.8-0.8C35.7,15.4,36.1,15,36.5,15z M34.4,13c0.3,0,0.6,0.3,0.6,0.6s-0.3,0.6-0.6,0.6s-0.6-0.3-0.6-0.6
			S33.9,13,34.4,13z M34.4,14.9c0.5,0,0.9,0.4,0.9,0.9c0,0.5-0.4,0.9-0.9,0.9c-0.5,0-0.9-0.4-0.9-0.9C33.4,15.3,33.8,14.9,34.4,14.9
			z M32.1,12.7c0.5,0,0.9,0.4,0.9,0.9c0,0.5-0.4,0.9-0.9,0.9c-0.5,0-0.9-0.4-0.9-0.9C31.2,13.1,31.6,12.7,32.1,12.7z M32.1,14.8
			c0.6,0,1,0.4,1,1s-0.4,1-1,1s-1-0.4-1-1S31.6,14.8,32.1,14.8z M33.1,18c0,0.5-0.4,0.9-0.9,0.9c-0.5,0-0.9-0.4-0.9-0.9
			c0-0.5,0.4-0.9,0.9-0.9C32.7,17.1,33.1,17.5,33.1,18z M30,12.7c0.5,0,0.9,0.4,0.9,0.9c0,0.5-0.4,0.9-0.9,0.9
			c-0.5,0-0.9-0.4-0.9-0.9C29.1,13.1,29.5,12.7,30,12.7z M30,14.9c0.5,0,0.9,0.4,0.9,0.9c0,0.5-0.4,0.9-0.9,0.9
			c-0.5,0-0.9-0.4-0.9-0.9C29.1,15.3,29.5,14.9,30,14.9z M30,17.1c0.5,0,0.9,0.4,0.9,0.9c0,0.5-0.4,0.9-0.9,0.9
			c-0.5,0-0.9-0.4-0.9-0.9C29.1,17.5,29.5,17.1,30,17.1z M27.8,12.8c0.4,0,0.8,0.3,0.8,0.8c0,0.4-0.3,0.8-0.8,0.8
			c-0.4,0-0.8-0.3-0.8-0.8C27,13.2,27.3,12.8,27.8,12.8z M27.8,14.9c0.5,0,0.9,0.4,0.9,0.9c0,0.5-0.4,0.9-0.9,0.9s-0.9-0.4-0.9-0.9
			C26.8,15.3,27.2,14.9,27.8,14.9z M25.6,13.2c0.2,0,0.4,0.2,0.4,0.4S25.8,14,25.6,14s-0.4-0.2-0.4-0.4
			C25.2,13.4,25.4,13.2,25.6,13.2z M25.6,14.9c0.5,0,0.9,0.4,0.9,0.9c0,0.5-0.4,0.9-0.9,0.9s-0.9-0.4-0.9-0.9
			C24.6,15.3,25,14.9,25.6,14.9z M23.4,15.1c0.4,0,0.7,0.3,0.7,0.7s-0.3,0.7-0.7,0.7c-0.4,0-0.7-0.3-0.7-0.7S23,15.1,23.4,15.1z
			 M21.2,13.2c0.2,0,0.4,0.2,0.4,0.4S21.5,14,21.2,14c-0.2,0-0.4-0.2-0.4-0.4C20.8,13.4,21,13.2,21.2,13.2z M21.2,14.9
			c0.5,0,0.9,0.4,0.9,0.9c0,0.5-0.4,0.9-0.9,0.9c-0.5,0-0.9-0.4-0.9-0.9C20.3,15.3,20.7,14.9,21.2,14.9z M19,12.8
			c0.4,0,0.8,0.3,0.8,0.8c0,0.4-0.3,0.8-0.8,0.8c-0.4,0-0.8-0.3-0.8-0.8C18.2,13.2,18.6,12.8,19,12.8z M19,14.9
			c0.5,0,0.9,0.4,0.9,0.9c0,0.5-0.4,0.9-0.9,0.9s-0.9-0.4-0.9-0.9C18.1,15.3,18.5,14.9,19,14.9z M16.9,12.7c0.5,0,0.9,0.4,0.9,0.9
			c0,0.5-0.4,0.9-0.9,0.9S16,14.1,16,13.6C15.9,13.1,16.3,12.7,16.9,12.7z M16.9,14.9c0.5,0,0.9,0.4,0.9,0.9c0,0.5-0.4,0.9-0.9,0.9
			S16,16.3,16,15.8C15.9,15.3,16.3,14.9,16.9,14.9z M16.9,17.1c0.5,0,0.9,0.4,0.9,0.9c0,0.5-0.4,0.9-0.9,0.9S16,18.5,16,18
			C16,17.5,16.3,17.1,16.9,17.1z M14.7,12.7c0.5,0,0.9,0.4,0.9,0.9c0,0.5-0.4,0.9-0.9,0.9c-0.5,0-0.9-0.4-0.9-0.9
			C13.7,13.1,14.1,12.7,14.7,12.7z M14.7,14.8c0.6,0,1,0.4,1,1s-0.4,1-1,1c-0.6,0-1-0.4-1-1S14.1,14.8,14.7,14.8z M15.6,18
			c0,0.5-0.4,0.9-0.9,0.9c-0.5,0-0.9-0.4-0.9-0.9c0-0.5,0.4-0.9,0.9-0.9C15.2,17.1,15.6,17.5,15.6,18z M12.4,13
			c0.3,0,0.6,0.3,0.6,0.6s-0.3,0.6-0.6,0.6s-0.6-0.3-0.6-0.6C11.8,13.3,12.1,13,12.4,13z M12.4,14.9c0.5,0,0.9,0.4,0.9,0.9
			c0,0.5-0.4,0.9-0.9,0.9c-0.5,0.1-0.9-0.3-0.9-0.9C11.5,15.3,11.9,14.9,12.4,14.9z M10.3,15c0.4,0,0.8,0.3,0.8,0.8
			c0,0.4-0.3,0.8-0.8,0.8c-0.4,0-0.8-0.3-0.8-0.8C9.5,15.4,9.8,15,10.3,15z M8.1,17.5c0.2,0,0.5,0.2,0.5,0.5c0,0.2-0.2,0.5-0.5,0.5
			c-0.2,0-0.5-0.2-0.5-0.5C7.5,17.7,7.8,17.5,8.1,17.5z M8.1,25.1c-0.3,0-0.6-0.2-0.6-0.6S7.8,24,8.1,24c0.3,0,0.6,0.2,0.6,0.6
			C8.6,24.9,8.4,25.1,8.1,25.1z M8.1,23.1c-0.4,0-0.6-0.3-0.6-0.6s0.3-0.6,0.6-0.6c0.3,0,0.6,0.3,0.6,0.6S8.4,23.1,8.1,23.1z
			 M8.1,20.9c-0.4,0-0.6-0.3-0.6-0.6c0-0.3,0.3-0.6,0.6-0.6c0.3,0,0.6,0.3,0.6,0.6C8.8,20.6,8.4,20.9,8.1,20.9z M10.3,29.5
			c-0.3,0-0.6-0.2-0.6-0.6c0-0.3,0.2-0.6,0.6-0.6c0.3,0,0.6,0.2,0.6,0.6C10.8,29.2,10.5,29.5,10.3,29.5z M10.3,27.5
			c-0.4,0-0.8-0.3-0.8-0.8c0-0.4,0.3-0.8,0.8-0.8c0.4,0,0.8,0.3,0.8,0.8C11,27.2,10.7,27.5,10.3,27.5z M10.3,25.5
			c-0.5,0-0.9-0.4-0.9-0.9s0.4-0.9,0.9-0.9s0.9,0.4,0.9,0.9S10.8,25.5,10.3,25.5z M10.3,23.3c-0.5,0-0.9-0.4-0.9-0.9
			s0.4-0.9,0.9-0.9s0.9,0.4,0.9,0.9C11.2,22.8,10.8,23.3,10.3,23.3z M10.3,21.1c-0.5,0-0.9-0.4-0.9-0.9s0.4-0.9,0.9-0.9
			s0.9,0.4,0.9,0.9S10.8,21.1,10.3,21.1z M10.3,18.9c-0.5,0-0.9-0.4-0.9-0.9s0.4-0.9,0.9-0.9s0.9,0.4,0.9,0.9S10.8,18.9,10.3,18.9z
			 M12.4,31.8c-0.4,0-0.6-0.3-0.6-0.6c0-0.3,0.3-0.6,0.6-0.6c0.4,0,0.6,0.3,0.6,0.6C13.1,31.5,12.8,31.8,12.4,31.8z M12.4,29.8
			c-0.5,0-0.9-0.4-0.9-0.9s0.4-0.9,0.9-0.9c0.5,0,0.9,0.4,0.9,0.9C13.4,29.4,13,29.8,12.4,29.8z M12.4,27.7c-0.6,0-1-0.4-1-1
			c0-0.6,0.4-1,1-1c0.6,0,1,0.4,1,1C13.4,27.3,13,27.7,12.4,27.7z M12.4,25.6c-0.6,0-1-0.4-1-1s0.4-1,1-1c0.6,0,1,0.4,1,1
			C13.5,25.1,13,25.6,12.4,25.6z M12.4,23.4c-0.6,0-1-0.4-1-1c0-0.6,0.4-1,1-1c0.6,0,1,0.4,1,1C13.5,22.9,13,23.4,12.4,23.4z
			 M12.4,21.1c-0.6,0-1-0.4-1-1s0.4-1,1-1c0.6,0,1,0.4,1,1S13,21.1,12.4,21.1z M12.4,18.9c-0.6,0-1-0.4-1-1s0.4-1,1-1
			c0.6,0,1,0.4,1,1C13.5,18.5,13,18.9,12.4,18.9z M14.7,34c-0.4,0-0.7-0.3-0.7-0.7c0-0.4,0.3-0.7,0.7-0.7c0.4,0,0.7,0.3,0.7,0.7
			C15.3,33.7,15,34,14.7,34z M14.7,32.1c-0.5,0-0.9-0.4-0.9-0.9c0-0.5,0.4-0.9,0.9-0.9c0.5,0,0.9,0.4,0.9,0.9
			C15.6,31.7,15.2,32.1,14.7,32.1z M14.7,29.9c-0.6,0-1-0.4-1-1s0.4-1,1-1c0.6,0,1,0.4,1,1C15.6,29.5,15.2,29.9,14.7,29.9z M16.9,36
			c-0.3,0-0.6-0.2-0.6-0.6s0.2-0.6,0.6-0.6s0.6,0.2,0.6,0.6S17.1,36,16.9,36z M16.9,34.3c-0.5,0-0.9-0.4-0.9-0.9
			c0-0.5,0.4-0.9,0.9-0.9s0.9,0.4,0.9,0.9C17.7,33.8,17.3,34.3,16.9,34.3z M16.9,32.1c-0.5,0-0.9-0.4-0.9-0.9c0-0.5,0.4-0.9,0.9-0.9
			s0.9,0.4,0.9,0.9C17.7,31.7,17.3,32.1,16.9,32.1z M19,36.4c-0.5,0-0.9-0.4-0.9-0.9c0-0.5,0.4-0.9,0.9-0.9s0.9,0.4,0.9,0.9
			C19.9,36,19.5,36.4,19,36.4z M21.2,38.2c-0.3,0-0.6-0.2-0.6-0.6c0-0.3,0.2-0.6,0.6-0.6s0.6,0.2,0.6,0.6
			C21.8,38,21.5,38.2,21.2,38.2z M23.4,38.6c-0.5,0-0.9-0.4-0.9-0.9c0-0.5,0.4-0.9,0.9-0.9c0.5,0,0.9,0.4,0.9,0.9
			C24.3,38.2,23.9,38.6,23.4,38.6z M23.4,36.4c-0.5,0-0.9-0.4-0.9-0.9c0-0.5,0.4-0.9,0.9-0.9c0.5,0,0.9,0.4,0.9,0.9
			C24.3,36,23.9,36.4,23.4,36.4z M23.4,34.3c-0.6,0-1-0.4-1-1c0-0.6,0.4-1,1-1c0.6,0,1,0.4,1,1C24.4,33.8,23.9,34.3,23.4,34.3z
			 M25.6,38.2c-0.3,0-0.6-0.2-0.6-0.6c0-0.3,0.2-0.6,0.6-0.6c0.3,0,0.6,0.2,0.6,0.6C26.2,38,25.8,38.2,25.6,38.2z M27.8,36.4
			c-0.5,0-0.9-0.4-0.9-0.9c0-0.5,0.4-0.9,0.9-0.9s0.9,0.4,0.9,0.9C28.7,36,28.3,36.4,27.8,36.4z M30,36c-0.3,0-0.6-0.2-0.6-0.6
			s0.2-0.6,0.6-0.6c0.3,0,0.6,0.2,0.6,0.6S30.2,36,30,36z M30,34.3c-0.5,0-0.9-0.4-0.9-0.9c0-0.5,0.4-0.9,0.9-0.9
			c0.5,0,0.9,0.4,0.9,0.9C30.9,33.8,30.5,34.3,30,34.3z M30,32.1c-0.5,0-0.9-0.4-0.9-0.9c0-0.5,0.4-0.9,0.9-0.9
			c0.5,0,0.9,0.4,0.9,0.9C30.9,31.7,30.5,32.1,30,32.1z M32.1,34c-0.4,0-0.7-0.3-0.7-0.7c0-0.4,0.3-0.7,0.7-0.7
			c0.4,0,0.7,0.3,0.7,0.7C32.8,33.7,32.5,34,32.1,34z M31.1,22.1c0.1-0.5,0.6-0.8,1.1-0.8c0.6,0,1.1,0.5,1.1,1.1
			c0,0.6-0.5,1.1-1.1,1.1c-0.5,0-1-0.3-1.1-0.8c-0.1,0.4-0.4,0.7-0.8,0.9c0.4,0.2,0.7,0.5,0.8,1c0.1-0.5,0.5-0.9,1.1-0.9
			c0.6,0,1.1,0.5,1.1,1.1c0,0.6-0.5,1.1-1.1,1.1c-0.6,0-1-0.4-1.1-0.9c-0.1,0.5-0.4,0.8-0.8,1c0.4,0.2,0.7,0.5,0.8,1
			c0.1-0.5,0.5-0.9,1.1-0.9c0.6,0,1.1,0.5,1.1,1.1s-0.5,1.1-1.1,1.1c-0.6,0-1-0.4-1.1-0.9c-0.1,0.6-0.5,1-1,1
			c0.5,0.1,0.9,0.5,0.9,1.1c0,0.6-0.5,1.1-1.1,1.1c-0.5,0-0.9-0.3-1-0.7c-0.1,0.4-0.4,0.7-0.7,0.9c0.4,0.2,0.7,0.6,0.7,1.1
			c0,0.6-0.5,1.1-1.1,1.1c0.6,0,1.1,0.5,1.1,1.1s-0.5,1.1-1.1,1.1c-0.6,0-1.1-0.5-1.1-1.1c0,0.6-0.5,1.1-1.1,1.1
			c0.6,0,1.1,0.5,1.1,1.1s-0.5,1.1-1.1,1.1s-1.1-0.5-1.1-1.1s0.5-1.1,1.1-1.1c-0.6,0-1.1-0.5-1.1-1.1c0-0.5,0.3-0.9,0.7-1.1
			c-0.3-0.2-0.6-0.4-0.6-0.6c-0.2,0.4-0.6,0.7-1.1,0.7c-0.5,0-0.9-0.2-1.1-0.6c-0.2,0.3-0.4,0.6-0.6,0.6c0.4,0.2,0.7,0.6,0.7,1.1
			c0,0.6-0.5,1.1-1.1,1.1c0.6,0,1.1,0.5,1.1,1.1c0,0.6-0.5,1.1-1.1,1.1c-0.6,0-1.1-0.5-1.1-1.1c0-0.6,0.5-1.1,1.1-1.1
			c-0.6,0-1.1-0.5-1.1-1.1c0,0.6-0.5,1.1-1.1,1.1S18,33.8,18,33.3c0-0.6,0.5-1.1,1.1-1.1c-0.6,0-1.1-0.5-1.1-1.1
			c0-0.5,0.3-0.9,0.7-1.1c-0.4-0.2-0.6-0.5-0.7-0.9c-0.2,0.4-0.5,0.7-1,0.7c-0.6,0-1.1-0.5-1.1-1.1c0-0.6,0.4-1,0.9-1.1
			c-0.6-0.1-1.1-0.6-1.1-1.1c0,0.6-0.5,1.1-1.1,1.1c-0.6,0-1.1-0.5-1.1-1.1s0.5-1.1,1.1-1.1c0.6,0,1.1,0.5,1.1,1.1
			c0-0.5,0.3-1,0.8-1.1c-0.5-0.2-0.8-0.6-0.8-1.1c0,0.6-0.5,1.1-1.1,1.1c-0.6,0-1.1-0.5-1.1-1.1s0.5-1.1,1.1-1.1
			c0.6,0,1.1,0.5,1.1,1.1c0-0.5,0.3-1,0.8-1.1c-0.4-0.2-0.7-0.5-0.8-1c-0.1,0.6-0.5,1-1.1,1c-0.6,0-1.1-0.5-1.1-1.1s0.5-1.1,1.1-1.1
			c0.6,0,1,0.4,1.1,1c0.1-0.4,0.3-0.7,0.6-0.9c-0.3-0.2-0.6-0.4-0.7-0.7c-0.2,0.4-0.6,0.6-1.1,0.6c-0.6,0-1.1-0.5-1.1-1.1
			c0-0.6,0.5-1.1,1.1-1.1c0.5,0,0.8,0.2,1.1,0.6c0.2-0.5,0.6-0.8,1.2-0.8c0.5,0,0.9,0.2,1.1,0.6c0.2-0.3,0.5-0.6,0.9-0.6
			c-0.4-0.1-0.7-0.5-0.7-1c0-0.6,0.4-1,1-1c0.6,0,1,0.4,1,1c0,0.5-0.3,0.9-0.7,1c0.3,0.1,0.6,0.2,0.8,0.5c0.2-0.2,0.4-0.5,0.6-0.6
			c-0.3-0.2-0.6-0.5-0.6-0.9c0-0.6,0.5-1.1,1.1-1.1s1.1,0.5,1.1,1.1c0,0.4-0.2,0.7-0.6,0.9c0.2,0.1,0.5,0.2,0.6,0.5
			c0.2-0.2,0.5-0.5,0.8-0.5c-0.4-0.1-0.6-0.5-0.6-0.9c0-0.5,0.4-0.9,0.9-0.9s0.9,0.4,0.9,0.9c0,0.4-0.3,0.8-0.6,0.9
			c0.3,0.1,0.6,0.2,0.9,0.6c0.2-0.2,0.4-0.4,0.6-0.5c-0.3-0.2-0.6-0.5-0.6-0.9c0-0.6,0.5-1.1,1.1-1.1c0.6,0,1.1,0.5,1.1,1.1
			c0,0.4-0.2,0.7-0.6,0.9c0.3,0.1,0.5,0.3,0.6,0.6c0.2-0.2,0.5-0.5,0.8-0.5c-0.4-0.1-0.7-0.5-0.7-1c0-0.6,0.4-1,1-1c0.6,0,1,0.4,1,1
			c0,0.5-0.3,0.9-0.7,1c0.4,0.1,0.6,0.3,0.9,0.6c0.2-0.4,0.6-0.6,1.1-0.6c0.6,0,1,0.3,1.1,0.8c0.2-0.4,0.6-0.6,1-0.6
			c0.6,0,1.1,0.5,1.1,1.1s-0.5,1.1-1.1,1.1c-0.4,0-0.8-0.2-1-0.6c-0.2,0.3-0.4,0.6-0.6,0.7C30.8,21.5,31,21.8,31.1,22.1z M34.4,27.7
			c-0.6,0-1-0.4-1-1c0-0.6,0.4-1,1-1c0.6,0,1,0.4,1,1C35.2,27.3,34.8,27.7,34.4,27.7z M34.4,25.6c-0.6,0-1-0.4-1-1s0.4-1,1-1
			c0.6,0,1,0.4,1,1C35.3,25.1,34.8,25.6,34.4,25.6z M34.4,23.4c-0.6,0-1-0.4-1-1c0-0.6,0.4-1,1-1c0.6,0,1,0.4,1,1
			C35.3,22.9,34.8,23.4,34.4,23.4z M34.4,21.1c-0.6,0-1-0.4-1-1s0.4-1,1-1c0.6,0,1,0.4,1,1S34.8,21.1,34.4,21.1z M34.4,18.9
			c-0.6,0-1-0.4-1-1s0.4-1,1-1c0.6,0,1,0.4,1,1S34.8,18.9,34.4,18.9z M36.5,29.5c-0.3,0-0.6-0.2-0.6-0.6c0-0.3,0.2-0.6,0.6-0.6
			c0.3,0,0.6,0.2,0.6,0.6C37,29.2,36.8,29.5,36.5,29.5z M36.5,27.5c-0.4,0-0.8-0.3-0.8-0.8c0-0.4,0.3-0.8,0.8-0.8
			c0.4,0,0.8,0.3,0.8,0.8C37.3,27.2,36.9,27.5,36.5,27.5z M36.5,25.5c-0.5,0-0.9-0.4-0.9-0.9s0.4-0.9,0.9-0.9c0.5,0,0.9,0.4,0.9,0.9
			S37,25.5,36.5,25.5z M36.5,23.3c-0.5,0-0.9-0.4-0.9-0.9s0.4-0.9,0.9-0.9c0.5,0,0.9,0.4,0.9,0.9C37.4,22.8,37,23.3,36.5,23.3z
			 M36.5,21.1c-0.5,0-0.9-0.4-0.9-0.9s0.4-0.9,0.9-0.9c0.5,0,0.9,0.4,0.9,0.9S37,21.1,36.5,21.1z M36.5,18.9c-0.5,0-0.9-0.4-0.9-0.9
			s0.4-0.9,0.9-0.9c0.5,0,0.9,0.4,0.9,0.9S37,18.9,36.5,18.9z M38.7,25.1c-0.3,0-0.6-0.2-0.6-0.6s0.2-0.6,0.6-0.6s0.6,0.2,0.6,0.6
			C39.2,24.9,39,25.1,38.7,25.1z M38.7,23.1c-0.4,0-0.6-0.3-0.6-0.6s0.3-0.6,0.6-0.6c0.4,0,0.6,0.3,0.6,0.6S39.1,23.1,38.7,23.1z"/>
		<path class="st0" d="M17.9,25c-0.2,0.3-0.4,0.6-0.7,0.6c0.3,0.1,0.6,0.3,0.7,0.6c0.1-0.2,0.3-0.5,0.6-0.6
			C18.2,25.5,18,25.3,17.9,25z"/>
		<path class="st0" d="M17.9,27.2c-0.2,0.4-0.5,0.6-0.9,0.6c0.4,0.1,0.7,0.3,0.9,0.7c0.1-0.3,0.3-0.6,0.6-0.8
			C18.2,27.7,18,27.5,17.9,27.2z"/>
		<path class="st0" d="M20.1,25.1c-0.1,0.2-0.3,0.4-0.6,0.5c0.2,0.1,0.4,0.2,0.5,0.5c0.1-0.2,0.2-0.4,0.5-0.5
			C20.3,25.5,20.2,25.3,20.1,25.1z"/>
		<path class="st0" d="M28.9,27.2c-0.1,0.2-0.3,0.5-0.6,0.6c0.3,0.2,0.6,0.5,0.6,0.8c0.1-0.4,0.5-0.7,0.9-0.7
			C29.4,27.9,29.1,27.6,28.9,27.2z"/>
		<path class="st0" d="M20.1,21.8c0.1-0.2,0.2-0.3,0.4-0.5c-0.2-0.1-0.3-0.2-0.5-0.5c-0.1,0.2-0.2,0.3-0.4,0.4
			C19.9,21.4,20,21.5,20.1,21.8z"/>
	</g>
</g>
</svg>
