<?xml version="1.0" encoding="utf-8"?>
<!-- Generator: Adobe Illustrator 23.0.4, SVG Export Plug-In . SVG Version: 6.00 Build 0)  -->
<svg version="1.1" id="Layer_1" xmlns="http://www.w3.org/2000/svg" xmlns:xlink="http://www.w3.org/1999/xlink" x="0px" y="0px"
	 viewBox="0 0 415.1 143.1" style="enable-background:new 0 0 415.1 143.1;" xml:space="preserve">
<style type="text/css">
	.st0{fill:#FFFFFF;}
</style>
<g>
	<g>
		<path class="st0" d="M177.9,44.9c-0.6,0.5-1.4,0.8-2.4,1c-1,0.2-2,0.3-3.1,0.3c-1.3,0-2.6-0.2-3.7-0.7c-1.2-0.5-2.2-1.1-3-2.1
			c-0.9-0.9-1.5-2.1-2-3.5c-0.5-1.4-0.8-3.1-0.8-5.1c0-2.1,0.3-3.8,0.8-5.2s1.3-2.6,2.2-3.5s1.9-1.6,3.1-2c1.1-0.4,2.3-0.6,3.5-0.6
			c1.3,0,2.3,0.1,3.1,0.2c0.8,0.1,1.5,0.3,2,0.6l-0.6,2.3c-1-0.5-2.4-0.8-4.3-0.8c-0.9,0-1.7,0.2-2.6,0.5s-1.6,0.8-2.3,1.5
			c-0.7,0.7-1.2,1.6-1.6,2.8c-0.4,1.2-0.6,2.6-0.6,4.3c0,1.5,0.2,2.8,0.6,4c0.4,1.1,0.9,2.1,1.6,2.8c0.7,0.8,1.4,1.3,2.3,1.7
			s1.9,0.6,2.9,0.6c0.9,0,1.8-0.1,2.5-0.3c0.7-0.2,1.3-0.4,1.8-0.7L177.9,44.9z"/>
		<path class="st0" d="M193,39.7H185l-2.2,6.1h-2.6l8.3-22.4h1.2l8.4,22.4h-2.8L193,39.7z M185.8,37.5h6.5l-2.4-6.7l-0.8-3.3h0
			l-0.8,3.4L185.8,37.5z"/>
		<path class="st0" d="M201.1,24c0.8-0.1,1.7-0.3,2.8-0.3c1-0.1,2-0.1,2.9-0.1c1,0,1.9,0.1,2.8,0.3c0.9,0.2,1.6,0.6,2.3,1
			c0.7,0.5,1.2,1.1,1.6,1.9c0.4,0.8,0.6,1.7,0.6,2.8c0,1.7-0.5,3.1-1.4,4.2c-0.9,1.1-2.1,1.8-3.6,2.1l1.5,1.2l5.5,8.7h-3.1l-6.1-9.5
			l-3.1-0.5v10h-2.6V24z M206.8,25.8c-0.3,0-0.6,0-0.9,0s-0.6,0-0.9,0c-0.3,0-0.5,0-0.8,0.1c-0.2,0-0.4,0.1-0.6,0.1v8.1h2.5
			c1.4,0,2.6-0.4,3.6-1.1c0.9-0.7,1.4-1.8,1.4-3.3c0-1.1-0.4-2.1-1.2-2.8C209.2,26.2,208.2,25.8,206.8,25.8z"/>
		<path class="st0" d="M219.4,23.8c0.4-0.1,0.8-0.1,1.3-0.1c0.5,0,1-0.1,1.5-0.1c0.5,0,1.1,0,1.6,0c0.5,0,1,0,1.4,0
			c1.8,0,3.3,0.3,4.6,0.8c1.3,0.5,2.4,1.3,3.2,2.3s1.5,2.1,1.9,3.5c0.4,1.4,0.6,2.9,0.6,4.5c0,1.5-0.2,2.9-0.6,4.3
			c-0.4,1.4-1,2.6-1.8,3.7s-1.9,1.9-3.3,2.6c-1.3,0.6-3,1-4.9,1c-0.3,0-0.8,0-1.3,0c-0.5,0-1.1,0-1.7-0.1c-0.6,0-1.1-0.1-1.6-0.1
			c-0.5,0-0.8-0.1-1-0.1V23.8z M225.4,25.9c-0.3,0-0.6,0-0.9,0c-0.3,0-0.6,0-1,0c-0.3,0-0.6,0-0.9,0.1c-0.3,0-0.5,0-0.6,0.1v17.6
			c0.1,0,0.3,0,0.6,0c0.3,0,0.6,0,0.9,0c0.3,0,0.6,0,0.9,0c0.3,0,0.5,0,0.6,0c1.5,0,2.7-0.3,3.7-0.8c1-0.5,1.8-1.2,2.4-2
			c0.6-0.9,1-1.8,1.3-2.9c0.3-1.1,0.4-2.2,0.4-3.4c0-1-0.1-2.1-0.3-3.1c-0.2-1-0.6-2-1.2-2.8c-0.6-0.8-1.3-1.5-2.3-2.1
			C228,26.2,226.8,25.9,225.4,25.9z"/>
		<path class="st0" d="M240,23.8h2.6v22H240V23.8z"/>
		<path class="st0" d="M247.1,34.8c0-3.7,0.8-6.5,2.3-8.5c1.6-2,3.8-2.9,6.6-2.9c1.6,0,2.9,0.3,4,0.8c1.1,0.5,2.1,1.3,2.8,2.3
			c0.7,1,1.3,2.2,1.7,3.6c0.4,1.4,0.5,3,0.5,4.7c0,3.7-0.8,6.5-2.3,8.5c-1.6,2-3.8,2.9-6.7,2.9c-1.5,0-2.9-0.3-4-0.8
			c-1.1-0.5-2.1-1.3-2.8-2.3c-0.7-1-1.3-2.2-1.7-3.6C247.3,38.1,247.1,36.6,247.1,34.8z M249.9,34.8c0,1.2,0.1,2.4,0.4,3.5
			c0.2,1.1,0.6,2.1,1.1,2.9s1.1,1.5,1.9,2c0.8,0.5,1.7,0.7,2.8,0.7c2,0,3.5-0.7,4.6-2.2c1.1-1.5,1.7-3.8,1.7-6.9
			c0-1.2-0.1-2.3-0.4-3.4c-0.2-1.1-0.6-2.1-1.1-2.9s-1.2-1.5-2-2c-0.8-0.5-1.7-0.7-2.8-0.7c-1.9,0-3.4,0.7-4.6,2.2
			C250.4,29.5,249.9,31.7,249.9,34.8z"/>
		<path class="st0" d="M274.7,39l0.8,3.3h0l0.8-3.4l5.3-15.1h2.6l-8.3,22.4h-1.2l-8.5-22.4h2.9L274.7,39z"/>
		<path class="st0" d="M295.6,39.7h-8.1l-2.2,6.1h-2.6l8.3-22.4h1.2l8.4,22.4h-2.8L295.6,39.7z M288.4,37.5h6.5l-2.4-6.7l-0.8-3.3h0
			l-0.8,3.4L288.4,37.5z"/>
		<path class="st0" d="M314.2,40.2c0-0.9-0.3-1.6-0.8-2.2c-0.5-0.6-1.2-1-2-1.5c-0.8-0.4-1.6-0.8-2.6-1.2s-1.8-0.8-2.6-1.4
			c-0.8-0.5-1.4-1.2-2-2c-0.5-0.8-0.8-1.8-0.8-3c0-1.7,0.6-3.1,1.8-4.1c1.2-1,2.9-1.5,5.1-1.5c1.3,0,2.4,0.1,3.5,0.3
			c1,0.2,1.9,0.4,2.5,0.7l-0.8,2.3c-0.5-0.2-1.2-0.5-2.1-0.7c-0.9-0.2-2-0.3-3.2-0.3c-1.4,0-2.4,0.3-3.1,0.9c-0.7,0.6-1,1.3-1,2.2
			c0,0.8,0.3,1.5,0.8,2c0.5,0.5,1.2,1,2,1.5c0.8,0.4,1.6,0.9,2.6,1.3c0.9,0.4,1.8,0.9,2.6,1.5c0.8,0.6,1.4,1.2,2,2
			c0.5,0.8,0.8,1.7,0.8,2.9c0,0.9-0.2,1.8-0.5,2.6c-0.3,0.8-0.8,1.4-1.5,2c-0.7,0.5-1.4,1-2.4,1.3c-0.9,0.3-2,0.4-3.2,0.4
			c-1.6,0-2.9-0.1-3.9-0.4s-1.8-0.5-2.4-0.8l0.9-2.3c0.5,0.3,1.2,0.5,2.1,0.8c0.9,0.3,2,0.4,3.2,0.4c0.7,0,1.3-0.1,2-0.2
			c0.6-0.1,1.1-0.4,1.6-0.7c0.4-0.3,0.8-0.7,1.1-1.1C314.1,41.4,314.2,40.9,314.2,40.2z"/>
		<path class="st0" d="M334.8,44.9c-0.6,0.5-1.4,0.8-2.4,1c-1,0.2-2,0.3-3.1,0.3c-1.3,0-2.6-0.2-3.7-0.7c-1.2-0.5-2.2-1.1-3-2.1
			c-0.9-0.9-1.5-2.1-2-3.5c-0.5-1.4-0.8-3.1-0.8-5.1c0-2.1,0.3-3.8,0.8-5.2s1.3-2.6,2.2-3.5s1.9-1.6,3.1-2c1.1-0.4,2.3-0.6,3.5-0.6
			c1.3,0,2.3,0.1,3.1,0.2c0.8,0.1,1.5,0.3,2,0.6l-0.6,2.3c-1-0.5-2.4-0.8-4.3-0.8c-0.9,0-1.7,0.2-2.6,0.5s-1.6,0.8-2.3,1.5
			c-0.7,0.7-1.2,1.6-1.6,2.8c-0.4,1.2-0.6,2.6-0.6,4.3c0,1.5,0.2,2.8,0.6,4c0.4,1.1,0.9,2.1,1.6,2.8c0.7,0.8,1.4,1.3,2.3,1.7
			s1.9,0.6,2.9,0.6c0.9,0,1.8-0.1,2.5-0.3c0.7-0.2,1.3-0.4,1.8-0.7L334.8,44.9z"/>
		<path class="st0" d="M350.8,23.8h2.5v14.7c0,1.3-0.2,2.5-0.5,3.4s-0.8,1.8-1.5,2.4c-0.6,0.6-1.4,1.1-2.3,1.4
			c-0.9,0.3-1.9,0.4-3,0.4c-2.6,0-4.6-0.6-5.9-1.8c-1.3-1.2-2-3-2-5.4V23.8h2.6v14c0,1.1,0.1,2.1,0.3,2.8c0.2,0.8,0.6,1.4,1,1.9
			c0.4,0.5,1,0.8,1.7,1c0.7,0.2,1.4,0.3,2.3,0.3c1.7,0,2.9-0.5,3.7-1.4c0.7-0.9,1.1-2.5,1.1-4.6V23.8z"/>
		<path class="st0" d="M371.4,45.9h-13v-22h2.6v19.7h10.4V45.9z"/>
		<path class="st0" d="M386.3,39.7h-8.1l-2.2,6.1h-2.6l8.3-22.4h1.2l8.4,22.4h-2.8L386.3,39.7z M379,37.5h6.5l-2.4-6.7l-0.8-3.3h0
			l-0.8,3.4L379,37.5z"/>
		<path class="st0" d="M394.3,24c0.8-0.1,1.7-0.3,2.8-0.3c1-0.1,2-0.1,2.9-0.1c1,0,1.9,0.1,2.8,0.3c0.9,0.2,1.6,0.6,2.3,1
			c0.7,0.5,1.2,1.1,1.6,1.9c0.4,0.8,0.6,1.7,0.6,2.8c0,1.7-0.5,3.1-1.4,4.2c-0.9,1.1-2.1,1.8-3.6,2.1l1.5,1.2l5.5,8.7h-3.1l-6.1-9.5
			l-3.1-0.5v10h-2.6V24z M400,25.8c-0.3,0-0.6,0-0.9,0s-0.6,0-0.9,0c-0.3,0-0.5,0-0.8,0.1c-0.2,0-0.4,0.1-0.6,0.1v8.1h2.5
			c1.4,0,2.6-0.4,3.6-1.1c0.9-0.7,1.4-1.8,1.4-3.3c0-1.1-0.4-2.1-1.2-2.8C402.5,26.2,401.4,25.8,400,25.8z"/>
		<path class="st0" d="M163.8,55.8c0.4-0.1,0.8-0.1,1.3-0.1c0.5,0,1-0.1,1.5-0.1c0.5,0,1.1,0,1.6,0c0.5,0,1,0,1.4,0
			c1.8,0,3.3,0.3,4.6,0.8c1.3,0.5,2.4,1.3,3.2,2.3s1.5,2.1,1.9,3.5c0.4,1.4,0.6,2.9,0.6,4.5c0,1.5-0.2,2.9-0.6,4.3
			c-0.4,1.4-1,2.6-1.8,3.7s-1.9,1.9-3.3,2.6c-1.3,0.6-3,1-4.9,1c-0.3,0-0.8,0-1.3,0c-0.5,0-1.1,0-1.7-0.1c-0.6,0-1.1-0.1-1.6-0.1
			c-0.5,0-0.8-0.1-1-0.1V55.8z M169.7,57.9c-0.3,0-0.6,0-0.9,0c-0.3,0-0.6,0-1,0c-0.3,0-0.6,0-0.9,0.1c-0.3,0-0.5,0-0.6,0.1v17.6
			c0.1,0,0.3,0,0.6,0c0.3,0,0.6,0,0.9,0c0.3,0,0.6,0,0.9,0c0.3,0,0.5,0,0.6,0c1.5,0,2.7-0.3,3.7-0.8c1-0.5,1.8-1.2,2.4-2
			c0.6-0.9,1-1.8,1.3-2.9c0.3-1.1,0.4-2.2,0.4-3.4c0-1-0.1-2.1-0.3-3.1c-0.2-1-0.6-2-1.2-2.8c-0.6-0.8-1.3-1.5-2.3-2.1
			C172.4,58.2,171.2,57.9,169.7,57.9z"/>
		<path class="st0" d="M184.3,55.8h2.6v22h-2.6V55.8z"/>
		<path class="st0" d="M202,72.2c0-0.9-0.3-1.6-0.8-2.2c-0.5-0.6-1.2-1-2-1.5c-0.8-0.4-1.6-0.8-2.6-1.2s-1.8-0.8-2.6-1.4
			c-0.8-0.5-1.4-1.2-2-2c-0.5-0.8-0.8-1.8-0.8-3c0-1.7,0.6-3.1,1.8-4.1c1.2-1,2.9-1.5,5.1-1.5c1.3,0,2.4,0.1,3.5,0.3
			c1,0.2,1.9,0.4,2.5,0.7l-0.8,2.3c-0.5-0.2-1.2-0.5-2.1-0.7c-0.9-0.2-2-0.3-3.2-0.3c-1.4,0-2.4,0.3-3.1,0.9c-0.7,0.6-1,1.3-1,2.2
			c0,0.8,0.3,1.5,0.8,2c0.5,0.5,1.2,1,2,1.5c0.8,0.4,1.6,0.9,2.6,1.3c0.9,0.4,1.8,0.9,2.6,1.5c0.8,0.6,1.4,1.2,2,2
			c0.5,0.8,0.8,1.7,0.8,2.9c0,0.9-0.2,1.8-0.5,2.6c-0.3,0.8-0.8,1.4-1.5,2c-0.7,0.5-1.4,1-2.4,1.3c-0.9,0.3-2,0.4-3.2,0.4
			c-1.6,0-2.9-0.1-3.9-0.4s-1.8-0.5-2.4-0.8l0.9-2.3c0.5,0.3,1.2,0.5,2.1,0.8c0.9,0.3,2,0.4,3.2,0.4c0.7,0,1.3-0.1,2-0.2
			c0.6-0.1,1.1-0.4,1.6-0.7c0.4-0.3,0.8-0.7,1.1-1.1C201.9,73.4,202,72.9,202,72.2z"/>
		<path class="st0" d="M208.2,55.8h12v2.3h-9.4v7.2h8.6v2.3h-8.6v7.8h9.5v2.3h-12.2V55.8z"/>
		<path class="st0" d="M236,71.7h-8.1l-2.2,6.1h-2.6l8.3-22.4h1.2l8.4,22.4h-2.8L236,71.7z M228.8,69.5h6.5l-2.4-6.7l-0.8-3.3h0
			l-0.8,3.4L228.8,69.5z"/>
		<path class="st0" d="M254.6,72.2c0-0.9-0.3-1.6-0.8-2.2c-0.5-0.6-1.2-1-2-1.5c-0.8-0.4-1.6-0.8-2.6-1.2s-1.8-0.8-2.6-1.4
			c-0.8-0.5-1.4-1.2-2-2c-0.5-0.8-0.8-1.8-0.8-3c0-1.7,0.6-3.1,1.8-4.1c1.2-1,2.9-1.5,5.1-1.5c1.3,0,2.4,0.1,3.5,0.3
			c1,0.2,1.9,0.4,2.5,0.7l-0.8,2.3c-0.5-0.2-1.2-0.5-2.1-0.7c-0.9-0.2-2-0.3-3.2-0.3c-1.4,0-2.4,0.3-3.1,0.9c-0.7,0.6-1,1.3-1,2.2
			c0,0.8,0.3,1.5,0.8,2c0.5,0.5,1.2,1,2,1.5c0.8,0.4,1.6,0.9,2.6,1.3c0.9,0.4,1.8,0.9,2.6,1.5c0.8,0.6,1.4,1.2,2,2
			c0.5,0.8,0.8,1.7,0.8,2.9c0,0.9-0.2,1.8-0.5,2.6c-0.3,0.8-0.8,1.4-1.5,2c-0.7,0.5-1.4,1-2.4,1.3c-0.9,0.3-2,0.4-3.2,0.4
			c-1.6,0-2.9-0.1-3.9-0.4s-1.8-0.5-2.4-0.8l0.9-2.3c0.5,0.3,1.2,0.5,2.1,0.8c0.9,0.3,2,0.4,3.2,0.4c0.7,0,1.3-0.1,2-0.2
			c0.6-0.1,1.1-0.4,1.6-0.7c0.4-0.3,0.8-0.7,1.1-1.1C254.5,73.4,254.6,72.9,254.6,72.2z"/>
		<path class="st0" d="M260.8,55.8h12v2.3h-9.4v7.2h8.6v2.3h-8.6v7.8h9.5v2.3h-12.2V55.8z"/>
	</g>
	<g>
		<g>
			<path class="st0" d="M169.4,99h-1v8.1h-3.7V88.2h3.7v8.4l0.9-0.4l5.2-8h4.2l-5.5,7.9l-1.5,1l1.5,1.1l6.3,8.9H175L169.4,99z"/>
			<path class="st0" d="M185.8,97.3l-1.5-3h-0.1l0.4,3v9.9h-3.5v-19h2.7l7.2,10.1l1.4,2.9h0.1l-0.4-2.9v-9.9h3.5v19h-2.7L185.8,97.3
				z"/>
			<path class="st0" d="M198,97.7c0-3.1,0.7-5.6,2.1-7.3c1.4-1.7,3.4-2.6,5.9-2.6c1.3,0,2.5,0.2,3.5,0.7c1,0.5,1.8,1.1,2.5,2
				c0.7,0.9,1.2,1.9,1.5,3.1c0.3,1.2,0.5,2.5,0.5,4c0,3.2-0.7,5.6-2.1,7.3c-1.4,1.7-3.4,2.6-5.9,2.6c-1.4,0-2.6-0.2-3.6-0.7
				c-1-0.5-1.8-1.1-2.5-2c-0.7-0.9-1.1-1.9-1.5-3.1C198.1,100.5,198,99.1,198,97.7z M201.9,97.7c0,1,0.1,1.8,0.2,2.6
				s0.4,1.5,0.7,2.1c0.3,0.6,0.8,1,1.3,1.4c0.5,0.3,1.1,0.5,1.9,0.5c1.3,0,2.3-0.5,3.1-1.5s1.1-2.7,1.1-5c0-0.9-0.1-1.8-0.2-2.6
				c-0.2-0.8-0.4-1.5-0.7-2.1c-0.3-0.6-0.7-1.1-1.3-1.4c-0.5-0.3-1.2-0.5-1.9-0.5c-1.3,0-2.3,0.5-3.1,1.6
				C202.2,93.8,201.9,95.4,201.9,97.7z"/>
			<path class="st0" d="M220.8,98.8l0.4,3.3h0.1l0.4-3.4l3.3-10.5h2.4l3.2,10.6l0.4,3.3h0.1l0.4-3.4l2.3-10.5h3.8l-5.2,19h-2.5
				l-3.4-10.5l-0.5-2.9h-0.1l-0.5,2.9l-3.3,10.5h-2.6l-5.2-19h4L220.8,98.8z"/>
			<path class="st0" d="M250.9,107.1h-12V88.2h3.7v15.6h8.3V107.1z"/>
			<path class="st0" d="M252.5,88.2h11.2v3.3h-7.5v4.4h6.8v3.3h-6.8v4.6h7.6v3.3h-11.3V88.2z"/>
			<path class="st0" d="M266.4,88.2c0.4-0.1,0.8-0.1,1.3-0.1c0.5,0,1-0.1,1.5-0.1c0.5,0,1,0,1.5,0c0.5,0,0.9,0,1.3,0
				c1.7,0,3.1,0.2,4.3,0.7c1.2,0.5,2.2,1.1,2.9,2c0.7,0.8,1.3,1.9,1.6,3c0.3,1.2,0.5,2.5,0.5,3.9c0,1.3-0.2,2.5-0.5,3.7
				s-0.9,2.2-1.6,3.2s-1.8,1.7-3,2.2c-1.2,0.6-2.8,0.8-4.6,0.8c-0.3,0-0.7,0-1.1,0c-0.5,0-1,0-1.5-0.1c-0.5,0-1-0.1-1.5-0.1
				s-0.8-0.1-1.1-0.1V88.2z M272.2,91.2c-0.4,0-0.8,0-1.2,0c-0.4,0-0.7,0-0.9,0.1V104c0.1,0,0.2,0,0.4,0c0.2,0,0.4,0,0.6,0
				c0.2,0,0.4,0,0.6,0c0.2,0,0.3,0,0.4,0c1,0,1.9-0.2,2.6-0.6c0.7-0.4,1.2-0.9,1.6-1.5c0.4-0.6,0.7-1.3,0.8-2.1
				c0.2-0.8,0.2-1.6,0.2-2.5c0-0.7-0.1-1.5-0.2-2.2c-0.1-0.7-0.4-1.4-0.8-2c-0.4-0.6-0.9-1.1-1.6-1.5S273.2,91.2,272.2,91.2z"/>
			<path class="st0" d="M290.1,97.3h7v8.4c-0.8,0.6-1.7,1.1-2.7,1.4c-1.1,0.3-2.1,0.4-3.1,0.4c-1.2,0-2.3-0.2-3.4-0.6
				s-1.9-1-2.7-1.8c-0.8-0.8-1.3-1.8-1.8-3.1c-0.4-1.2-0.6-2.7-0.6-4.4c0-1.8,0.3-3.3,0.8-4.5c0.5-1.3,1.2-2.3,2-3.1
				c0.8-0.8,1.8-1.4,2.8-1.7s2.1-0.5,3.2-0.5s2,0.1,2.8,0.2c0.8,0.2,1.5,0.3,2,0.5l-0.8,3.1c-0.5-0.2-1-0.3-1.5-0.4
				c-0.6-0.1-1.3-0.1-2.1-0.1c-0.8,0-1.5,0.1-2.1,0.4c-0.6,0.2-1.2,0.6-1.7,1.1c-0.5,0.5-0.8,1.2-1.1,2c-0.3,0.8-0.4,1.8-0.4,3
				c0,1.1,0.1,2.1,0.4,2.9c0.3,0.8,0.6,1.5,1.1,2s1,0.9,1.6,1.2c0.6,0.3,1.2,0.4,1.9,0.4c0.5,0,0.9-0.1,1.4-0.2
				c0.4-0.1,0.8-0.3,1.1-0.5v-3.6l-4.1-0.4V97.3z"/>
			<path class="st0" d="M299.7,88.2h11.2v3.3h-7.5v4.4h6.8v3.3h-6.8v4.6h7.6v3.3h-11.3V88.2z"/>
			<path class="st0" d="M320.1,88.4c0.8-0.1,1.6-0.3,2.5-0.3s1.8-0.1,2.7-0.1c0.9,0,1.9,0.1,2.8,0.2s1.8,0.5,2.6,0.9
				s1.4,1.1,1.8,1.9c0.5,0.8,0.7,1.9,0.7,3.2c0,1.2-0.2,2.2-0.6,3c-0.4,0.8-1,1.5-1.6,2c-0.7,0.5-1.5,0.9-2.3,1.1
				c-0.9,0.2-1.8,0.4-2.7,0.4c-0.1,0-0.2,0-0.4,0s-0.4,0-0.6,0c-0.2,0-0.4,0-0.6,0c-0.2,0-0.4,0-0.4-0.1v6.5h-3.7V88.4z M325.6,91.1
				c-0.4,0-0.7,0-1,0c-0.3,0-0.6,0.1-0.8,0.1v6.1c0.1,0,0.2,0,0.3,0.1c0.1,0,0.3,0,0.5,0c0.2,0,0.3,0,0.5,0s0.3,0,0.3,0
				c0.5,0,1,0,1.4-0.1c0.5-0.1,0.9-0.3,1.3-0.5c0.4-0.2,0.7-0.6,0.9-1c0.2-0.4,0.3-1,0.3-1.7c0-0.6-0.1-1.1-0.3-1.5
				c-0.2-0.4-0.5-0.7-0.9-0.9c-0.4-0.2-0.8-0.4-1.2-0.5C326.5,91.2,326,91.1,325.6,91.1z"/>
			<path class="st0" d="M334.6,97.7c0-3.1,0.7-5.6,2.1-7.3c1.4-1.7,3.4-2.6,5.9-2.6c1.3,0,2.5,0.2,3.5,0.7c1,0.5,1.8,1.1,2.5,2
				c0.7,0.9,1.2,1.9,1.5,3.1c0.3,1.2,0.5,2.5,0.5,4c0,3.2-0.7,5.6-2.1,7.3c-1.4,1.7-3.4,2.6-5.9,2.6c-1.4,0-2.6-0.2-3.6-0.7
				c-1-0.5-1.8-1.1-2.5-2c-0.7-0.9-1.1-1.9-1.5-3.1C334.8,100.5,334.6,99.1,334.6,97.7z M338.5,97.7c0,1,0.1,1.8,0.2,2.6
				s0.4,1.5,0.7,2.1c0.3,0.6,0.8,1,1.3,1.4c0.5,0.3,1.1,0.5,1.9,0.5c1.3,0,2.3-0.5,3.1-1.5s1.1-2.7,1.1-5c0-0.9-0.1-1.8-0.2-2.6
				c-0.2-0.8-0.4-1.5-0.7-2.1c-0.3-0.6-0.7-1.1-1.3-1.4c-0.5-0.3-1.2-0.5-1.9-0.5c-1.3,0-2.3,0.5-3.1,1.6
				C338.9,93.8,338.5,95.4,338.5,97.7z"/>
			<path class="st0" d="M353,88.4c0.4-0.1,0.9-0.1,1.3-0.2c0.5-0.1,1-0.1,1.4-0.1c0.5,0,0.9-0.1,1.4-0.1c0.4,0,0.9,0,1.2,0
				c0.9,0,1.8,0.1,2.6,0.2c0.9,0.2,1.6,0.4,2.3,0.8c0.7,0.4,1.2,0.9,1.6,1.6c0.4,0.7,0.6,1.6,0.6,2.6c0,1.5-0.4,2.8-1.1,3.8
				c-0.7,1-1.7,1.6-2.9,2l1.3,0.8l4.3,7.2h-4.3l-4.3-7.4l-1.9-0.4v7.7H353V88.4z M358.7,91.2c-0.4,0-0.8,0-1.1,0
				c-0.4,0-0.7,0.1-0.9,0.1v5.5h1.6c1,0,1.8-0.2,2.5-0.7c0.6-0.5,0.9-1.2,0.9-2.3c0-0.8-0.3-1.4-0.8-1.9S359.6,91.2,358.7,91.2z"/>
			<path class="st0" d="M382,91.5h-5.5v15.6h-3.7V91.5h-5.5v-3.3H382V91.5z"/>
			<path class="st0" d="M391,102.9h-5.8l-1.4,4.2h-3.7l6.8-19h2.7l6.8,19h-3.9L391,102.9z M386.2,100h4l-1.4-4.2l-0.6-3h-0.1l-0.6,3
				L386.2,100z"/>
			<path class="st0" d="M409.8,107.1h-12V88.2h3.7v15.6h8.3V107.1z"/>
		</g>
	</g>
</g>
<g>
	<path class="st0" d="M83.4,78.5c-0.4,0.8-1,1.4-1.7,1.9c0.8,0.5,1.4,1.1,1.8,1.9c0.5-0.8,1.1-1.4,1.9-1.8
		C84.6,80.1,83.9,79.4,83.4,78.5z"/>
	<path class="st0" d="M83.5,87.1c-0.4,0.8-1,1.4-1.8,1.8c0.7,0.5,1.3,1.1,1.6,1.8c0.4-0.8,1.1-1.5,1.9-1.9
		C84.6,88.5,84,87.9,83.5,87.1z"/>
	<path class="st0" d="M75.1,87.6c-0.4,0.6-1,1.1-1.6,1.5c0.6,0.4,1.1,1,1.4,1.6c0.4-0.7,0.9-1.4,1.6-1.8
		C76,88.6,75.5,88.2,75.1,87.6z"/>
	<path class="st0" d="M75.2,70.6c-0.5,0.8-1.1,1.4-1.9,1.9c0.6,0.4,1.1,1,1.5,1.7c0.5-0.9,1.2-1.6,2.1-2.1
		C76.3,71.7,75.7,71.2,75.2,70.6z"/>
	<path class="st0" d="M83.3,65.8c0.4-0.8,1.1-1.5,1.9-2c-0.7-0.4-1.2-0.9-1.7-1.5c-0.4,0.7-1.1,1.3-1.8,1.8
		C82.4,64.5,82.9,65.1,83.3,65.8z"/>
	<path class="st0" d="M92,66.1c0.4-0.9,1.2-1.6,2.1-2.1c-1-0.4-1.8-1.2-2.3-2.1c-0.4,0.8-1.1,1.4-1.9,1.9
		C90.8,64.3,91.5,65.1,92,66.1z"/>
	<path class="st0" d="M83.4,95.2c-0.5,0.9-1.2,1.6-2.1,2.1c1,0.5,1.7,1.4,2.2,2.4c0.4-1,1.3-1.8,2.3-2.3
		C84.8,97,83.9,96.2,83.4,95.2z"/>
	<path class="st0" d="M74.9,78.5c-0.4,0.7-0.9,1.3-1.5,1.7c0.7,0.4,1.3,0.9,1.7,1.6c0.4-0.6,0.9-1,1.5-1.4
		C75.9,80,75.3,79.3,74.9,78.5z"/>
	<ellipse transform="matrix(0.7072 -0.707 0.707 0.7072 -26.6038 80.0587)" class="st0" cx="83.3" cy="72.1" rx="1.9" ry="2.1"/>
	<path class="st0" d="M66.7,78.6c-0.4,0.7-1,1.3-1.7,1.8c0.6,0.3,1.1,0.8,1.5,1.3c0.4-0.6,1-1.1,1.6-1.5
		C67.5,79.8,67,79.3,66.7,78.6z"/>
	<ellipse transform="matrix(0.7071 -0.7071 0.7071 0.7071 -33.9454 62.3426)" class="st0" cx="58.3" cy="72.1" rx="2.1" ry="1.9"/>
	<path class="st0" d="M66.3,65.2c0.4-0.6,0.9-1.1,1.4-1.6c-0.4-0.3-0.8-0.7-1.1-1.1c-0.4,0.6-1,1.1-1.6,1.4
		C65.6,64.4,66,64.8,66.3,65.2z"/>
	<path class="st0" d="M66.7,74c0.4-0.6,0.9-1.2,1.5-1.6c-0.7-0.4-1.4-1-1.8-1.8c-0.4,0.6-1,1.1-1.6,1.4C65.5,72.5,66.2,73.2,66.7,74
		z"/>
	<path class="st0" d="M58.2,95.2c-0.5,1-1.4,1.7-2.4,2.2c1,0.4,1.8,1.3,2.3,2.3c0.4-1,1.2-1.9,2.2-2.4
		C59.4,96.8,58.7,96.1,58.2,95.2z"/>
	<path class="st0" d="M75.2,65.3c0.3-0.5,0.8-0.9,1.3-1.3c-0.6-0.4-1.2-0.9-1.6-1.5c-0.3,0.4-0.7,0.8-1.1,1.1
		C74.4,64.1,74.9,64.7,75.2,65.3z"/>
	<path class="st0" d="M66.7,95.3c-0.5,0.8-1.2,1.5-2,2c0.9,0.5,1.7,1.3,2.1,2.3c0.5-1,1.2-1.7,2.2-2.2C68,97,67.2,96.2,66.7,95.3z"
		/>
	<path class="st0" d="M58.1,87.1c-0.4,0.7-1.1,1.3-1.8,1.7c0.8,0.4,1.5,1.1,1.9,1.9c0.4-0.7,0.9-1.4,1.6-1.8
		C59.1,88.5,58.5,87.9,58.1,87.1z"/>
	<path class="st0" d="M66.5,87.7c-0.4,0.5-0.9,0.9-1.4,1.3c0.7,0.4,1.2,1,1.6,1.7c0.3-0.6,0.8-1.1,1.4-1.5
		C67.4,88.8,66.9,88.3,66.5,87.7z"/>
	<path class="st0" d="M91.9,74.6c0.5-1.2,1.5-2.1,2.8-2.4c-1.2-0.4-2.2-1.2-2.7-2.3c-0.4,1-1.2,1.9-2.2,2.4
		C90.7,72.7,91.5,73.6,91.9,74.6z"/>
	<path class="st0" d="M74.9,95.2c-0.5,1-1.4,1.7-2.4,2.2c1,0.4,1.8,1.3,2.3,2.3c0.4-1,1.2-1.9,2.2-2.4
		C76.1,96.8,75.4,96.1,74.9,95.2z"/>
	<path class="st0" d="M83.5,103.2c-0.5,1.2-1.4,2.1-2.6,2.6c1.6,0.7,2.6,2.2,2.6,4c0-2.2,1.8-4,4-4
		C85.7,105.8,84.2,104.7,83.5,103.2z"/>
	<path class="st0" d="M49.7,66.1c0.4-1,1.2-1.8,2.1-2.3c-0.8-0.4-1.4-1.1-1.9-1.9c-0.5,0.9-1.3,1.7-2.3,2.1
		C48.5,64.4,49.2,65.2,49.7,66.1z"/>
	<path class="st0" d="M49.7,74.6c0.4-1,1.2-1.9,2.2-2.4c-1-0.5-1.8-1.3-2.2-2.4c-0.5,1.1-1.5,2-2.7,2.3
		C48.2,72.5,49.2,73.4,49.7,74.6z"/>
	<path class="st0" d="M60.7,105.8c-1.2-0.5-2.1-1.4-2.6-2.6c-0.7,1.6-2.2,2.6-4,2.6c2.2,0,4,1.8,4,4C58.1,108,59.2,106.4,60.7,105.8
		z"/>
	<path class="st0" d="M91.9,83c0.5-1.2,1.5-2.1,2.8-2.4c-1.2-0.4-2.3-1.3-2.8-2.4c-0.4,1.1-1.2,1.9-2.3,2.4
		C90.7,81,91.5,81.9,91.9,83z"/>
	<path class="st0" d="M71.3,2C32.8,2,1.5,33.3,1.5,71.8s31.2,69.8,69.8,69.8S141,110.3,141,71.8S109.8,2,71.3,2z M129.4,49.3
		c1.1,0,1.9,0.9,1.9,1.9c0,1.1-0.9,1.9-1.9,1.9c-1.1,0-1.9-0.9-1.9-1.9C127.5,50.1,128.3,49.3,129.4,49.3z M129.4,57
		c1.4,0,2.6,1.2,2.6,2.6s-1.2,2.6-2.6,2.6s-2.6-1.2-2.6-2.6S128,57,129.4,57z M121,39.8c1.7,0,3.1,1.4,3.1,3.1
		c0,1.7-1.4,3.1-3.1,3.1c-1.7,0-3.1-1.4-3.1-3.1C117.9,41.2,119.3,39.8,121,39.8z M112.6,32c1.4,0,2.5,1.1,2.5,2.5
		c0,1.4-1.1,2.5-2.5,2.5c-1.4,0-2.5-1.1-2.5-2.5C110.2,33.1,111.3,32,112.6,32z M112.6,39.4c1.9,0,3.5,1.6,3.5,3.5s-1.6,3.5-3.5,3.5
		c-1.9,0-3.5-1.6-3.5-3.5S110.7,39.4,112.6,39.4z M104.2,31c1.9,0,3.5,1.6,3.5,3.5c0,1.9-1.6,3.5-3.5,3.5s-3.5-1.6-3.5-3.5
		C100.7,32.6,102.3,31,104.2,31z M104.2,39.1c2.1,0,3.8,1.7,3.8,3.8s-1.7,3.8-3.8,3.8c-2.1,0-3.8-1.7-3.8-3.8S102.1,39.1,104.2,39.1
		z M107.7,51.2c0,1.9-1.6,3.5-3.5,3.5s-3.5-1.6-3.5-3.5s1.6-3.5,3.5-3.5S107.7,49.3,107.7,51.2z M95.9,31c1.9,0,3.5,1.6,3.5,3.5
		c0,1.9-1.6,3.5-3.5,3.5c-1.9,0-3.5-1.6-3.5-3.5C92.5,32.6,94,31,95.9,31z M95.9,39.4c1.9,0,3.5,1.6,3.5,3.5s-1.6,3.5-3.5,3.5
		c-1.9,0-3.5-1.6-3.5-3.5S94,39.4,95.9,39.4z M95.9,47.7c1.9,0,3.5,1.6,3.5,3.5s-1.6,3.5-3.5,3.5c-1.9,0-3.5-1.6-3.5-3.5
		S94,47.7,95.9,47.7z M87.5,31.4c1.7,0,3.1,1.4,3.1,3.1c0,1.7-1.4,3.1-3.1,3.1s-3.1-1.4-3.1-3.1C84.5,32.8,85.8,31.4,87.5,31.4z
		 M87.5,39.4c1.9,0,3.5,1.6,3.5,3.5s-1.6,3.5-3.5,3.5s-3.5-1.6-3.5-3.5S85.6,39.4,87.5,39.4z M79.2,33c0.8,0,1.5,0.7,1.5,1.5
		c0,0.8-0.7,1.5-1.5,1.5c-0.8,0-1.5-0.7-1.5-1.5C77.6,33.6,78.3,33,79.2,33z M79.2,39.4c1.9,0,3.5,1.6,3.5,3.5s-1.6,3.5-3.5,3.5
		s-3.5-1.6-3.5-3.5S77.2,39.4,79.2,39.4z M70.8,40.1c1.5,0,2.8,1.2,2.8,2.8s-1.2,2.8-2.8,2.8c-1.5,0-2.8-1.2-2.8-2.8
		S69.2,40.1,70.8,40.1z M62.5,33c0.8,0,1.5,0.7,1.5,1.5c0,0.8-0.7,1.5-1.5,1.5c-0.8,0-1.5-0.7-1.5-1.5C60.9,33.6,61.6,33,62.5,33z
		 M62.5,39.4c1.9,0,3.5,1.6,3.5,3.5s-1.6,3.5-3.5,3.5c-1.9,0-3.5-1.6-3.5-3.5S60.6,39.4,62.5,39.4z M54.1,31.4
		c1.7,0,3.1,1.4,3.1,3.1c0,1.7-1.4,3.1-3.1,3.1c-1.7,0-3.1-1.4-3.1-3.1C51,32.8,52.4,31.4,54.1,31.4z M54.1,39.4
		c1.9,0,3.5,1.6,3.5,3.5s-1.6,3.5-3.5,3.5c-1.9,0-3.5-1.6-3.5-3.5S52.2,39.4,54.1,39.4z M45.7,31c1.9,0,3.5,1.6,3.5,3.5
		c0,1.9-1.6,3.5-3.5,3.5s-3.5-1.6-3.5-3.5C42.2,32.6,43.8,31,45.7,31z M45.7,39.4c1.9,0,3.5,1.6,3.5,3.5s-1.6,3.5-3.5,3.5
		s-3.5-1.6-3.5-3.5S43.8,39.4,45.7,39.4z M45.7,47.7c1.9,0,3.5,1.6,3.5,3.5s-1.6,3.5-3.5,3.5s-3.5-1.6-3.5-3.5S43.8,47.7,45.7,47.7z
		 M37.3,31c1.9,0,3.5,1.6,3.5,3.5c0,1.9-1.6,3.5-3.5,3.5s-3.5-1.6-3.5-3.5C33.8,32.6,35.4,31,37.3,31z M37.3,39.1
		c2.1,0,3.8,1.7,3.8,3.8s-1.7,3.8-3.8,3.8c-2.1,0-3.8-1.7-3.8-3.8S35.2,39.1,37.3,39.1z M40.8,51.2c0,1.9-1.6,3.5-3.5,3.5
		s-3.5-1.6-3.5-3.5s1.6-3.5,3.5-3.5S40.8,49.3,40.8,51.2z M28.9,32c1.4,0,2.5,1.1,2.5,2.5c0,1.4-1.1,2.5-2.5,2.5
		c-1.4,0-2.5-1.1-2.5-2.5C26.5,33.1,27.6,32,28.9,32z M28.9,39.4c1.9,0,3.5,1.6,3.5,3.5s-1.6,3.5-3.5,3.5c-1.9,0-3.5-1.6-3.5-3.5
		S27,39.4,28.9,39.4z M20.6,39.8c1.7,0,3.1,1.4,3.1,3.1c0,1.7-1.4,3.1-3.1,3.1c-1.7,0-3.1-1.4-3.1-3.1
		C17.6,41.2,18.9,39.8,20.6,39.8z M12.2,49.3c1.1,0,1.9,0.9,1.9,1.9c0,1.1-0.9,1.9-1.9,1.9c-1.1,0-1.9-0.9-1.9-1.9
		C10.3,50.1,11.2,49.3,12.2,49.3z M12.2,78.4c-1.1,0-2.1-0.9-2.1-2.1c0-1.1,0.9-2.1,2.1-2.1c1.1,0,2.1,0.9,2.1,2.1
		C14.3,77.5,13.4,78.4,12.2,78.4z M12.2,70.6c-1.4,0-2.6-1.2-2.6-2.6s1.2-2.6,2.6-2.6s2.6,1.2,2.6,2.6S13.7,70.6,12.2,70.6z
		 M12.2,62.2c-1.4,0-2.6-1.2-2.6-2.6s1.2-2.6,2.6-2.6s2.6,1.2,2.6,2.6S13.7,62.2,12.2,62.2z M20.6,95.1c-1.1,0-2.1-0.9-2.1-2.1
		c0-1.1,0.9-2.1,2.1-2.1c1.1,0,2.1,0.9,2.1,2.1C22.7,94.2,21.8,95.1,20.6,95.1z M20.6,87.7c-1.6,0-3-1.3-3-3s1.3-3,3-3
		c1.6,0,3,1.3,3,3S22.3,87.7,20.6,87.7z M20.6,79.8c-1.9,0-3.5-1.6-3.5-3.5s1.6-3.5,3.5-3.5c1.9,0,3.5,1.6,3.5,3.5
		S22.5,79.8,20.6,79.8z M20.6,71.4c-1.9,0-3.5-1.6-3.5-3.5c0-1.9,1.6-3.5,3.5-3.5c1.9,0,3.5,1.6,3.5,3.5
		C24.1,69.9,22.5,71.4,20.6,71.4z M20.6,63c-1.9,0-3.5-1.6-3.5-3.5s1.6-3.5,3.5-3.5c1.9,0,3.5,1.6,3.5,3.5S22.5,63,20.6,63z
		 M20.6,54.7c-1.9,0-3.5-1.6-3.5-3.5s1.6-3.5,3.5-3.5c1.9,0,3.5,1.6,3.5,3.5S22.5,54.7,20.6,54.7z M28.9,104c-1.4,0-2.6-1.2-2.6-2.6
		s1.2-2.6,2.6-2.6c1.4,0,2.6,1.2,2.6,2.6S30.4,104,28.9,104z M28.9,96.5c-1.9,0-3.5-1.6-3.5-3.5s1.6-3.5,3.5-3.5
		c1.9,0,3.5,1.6,3.5,3.5S30.8,96.5,28.9,96.5z M28.9,88.4c-2,0-3.7-1.6-3.7-3.7c0-2,1.6-3.7,3.7-3.7c2,0,3.7,1.6,3.7,3.7
		C32.6,86.8,31,88.4,28.9,88.4z M28.9,80.1c-2.1,0-3.8-1.7-3.8-3.8c0-2.1,1.7-3.8,3.8-3.8c2.1,0,3.8,1.7,3.8,3.8
		C32.7,78.4,31,80.1,28.9,80.1z M28.9,71.7c-2.1,0-3.8-1.7-3.8-3.8c0-2.1,1.7-3.8,3.8-3.8c2.1,0,3.8,1.7,3.8,3.8
		C32.7,70,31,71.7,28.9,71.7z M28.9,63.3c-2.1,0-3.8-1.7-3.8-3.8s1.7-3.8,3.8-3.8c2.1,0,3.8,1.7,3.8,3.8S31,63.3,28.9,63.3z
		 M28.9,55c-2.1,0-3.8-1.7-3.8-3.8c0-2.1,1.7-3.8,3.8-3.8c2.1,0,3.8,1.7,3.8,3.8C32.7,53.3,31,55,28.9,55z M37.3,112.6
		c-1.5,0-2.8-1.2-2.8-2.8c0-1.5,1.2-2.8,2.8-2.8s2.8,1.2,2.8,2.8C40.1,111.3,38.8,112.6,37.3,112.6z M37.3,104.9
		c-1.9,0-3.5-1.6-3.5-3.5s1.6-3.5,3.5-3.5s3.5,1.6,3.5,3.5S39.2,104.9,37.3,104.9z M37.3,96.8c-2.1,0-3.8-1.7-3.8-3.8
		c0-2.1,1.7-3.8,3.8-3.8c2.1,0,3.8,1.7,3.8,3.8C41.1,95.1,39.4,96.8,37.3,96.8z M45.7,120.2c-1.1,0-2-0.9-2-2s0.9-2,2-2s2,0.9,2,2
		S46.8,120.2,45.7,120.2z M45.7,113.3c-1.9,0-3.5-1.6-3.5-3.5c0-1.9,1.6-3.5,3.5-3.5s3.5,1.6,3.5,3.5
		C49.2,111.7,47.6,113.3,45.7,113.3z M45.7,104.9c-1.9,0-3.5-1.6-3.5-3.5s1.6-3.5,3.5-3.5s3.5,1.6,3.5,3.5S47.6,104.9,45.7,104.9z
		 M54.1,121.7c-1.9,0-3.5-1.6-3.5-3.5s1.6-3.5,3.5-3.5c1.9,0,3.5,1.6,3.5,3.5S56,121.7,54.1,121.7z M62.5,128.7
		c-1.1,0-2.1-0.9-2.1-2.1s0.9-2.1,2.1-2.1c1.1,0,2.1,0.9,2.1,2.1S63.6,128.7,62.5,128.7z M70.8,130.1c-1.9,0-3.5-1.6-3.5-3.5
		s1.6-3.5,3.5-3.5c1.9,0,3.5,1.6,3.5,3.5S72.7,130.1,70.8,130.1z M70.8,121.7c-1.9,0-3.5-1.6-3.5-3.5s1.6-3.5,3.5-3.5
		c1.9,0,3.5,1.6,3.5,3.5S72.7,121.7,70.8,121.7z M70.8,113.6c-2.1,0-3.8-1.7-3.8-3.8c0-2.1,1.7-3.8,3.8-3.8c2.1,0,3.8,1.7,3.8,3.8
		C74.6,111.9,72.9,113.6,70.8,113.6z M79.2,128.7c-1.1,0-2.1-0.9-2.1-2.1s0.9-2.1,2.1-2.1c1.1,0,2.1,0.9,2.1,2.1
		S80.3,128.7,79.2,128.7z M87.5,121.7c-1.9,0-3.5-1.6-3.5-3.5s1.6-3.5,3.5-3.5s3.5,1.6,3.5,3.5S89.5,121.7,87.5,121.7z M95.9,120.2
		c-1.1,0-2-0.9-2-2s0.9-2,2-2s2,0.9,2,2S97.1,120.2,95.9,120.2z M95.9,113.3c-1.9,0-3.5-1.6-3.5-3.5c0-1.9,1.6-3.5,3.5-3.5
		c1.9,0,3.5,1.6,3.5,3.5C99.4,111.7,97.9,113.3,95.9,113.3z M95.9,104.9c-1.9,0-3.5-1.6-3.5-3.5s1.6-3.5,3.5-3.5
		c1.9,0,3.5,1.6,3.5,3.5S97.9,104.9,95.9,104.9z M104.2,112.6c-1.5,0-2.8-1.2-2.8-2.8c0-1.5,1.2-2.8,2.8-2.8s2.8,1.2,2.8,2.8
		C107,111.3,105.7,112.6,104.2,112.6z M100.2,67c0.4-1.8,2-3.2,4-3.2c2.3,0,4.1,1.8,4.1,4.1s-1.8,4.1-4.1,4.1c-1.9,0-3.6-1.4-4-3.2
		c-0.3,1.6-1.5,2.8-3,3.3c1.7,0.5,2.9,1.9,3.1,3.7c0.3-2,1.9-3.5,3.9-3.5c2.2,0,4,1.8,4,4s-1.8,4-4,4c-2,0-3.7-1.5-3.9-3.5
		c-0.2,1.8-1.4,3.2-3.1,3.7c1.7,0.5,2.9,1.9,3.1,3.7c0.3-2,1.9-3.5,3.9-3.5c2.2,0,4,1.8,4,4s-1.8,4-4,4c-2,0-3.7-1.5-3.9-3.5
		c-0.2,2-1.8,3.6-3.8,3.8c2,0.3,3.5,1.9,3.5,3.9c0,2.2-1.8,4-4,4c-1.8,0-3.3-1.2-3.8-2.9c-0.4,1.5-1.4,2.7-2.8,3.3
		c1.6,0.7,2.6,2.2,2.6,4c0,2.4-2,4.4-4.4,4.4c2.2,0,4,1.8,4,4s-1.8,4-4,4s-4-1.8-4-4c0,2.4-2,4.4-4.4,4.4c2.2,0,4,1.8,4,4
		s-1.8,4-4,4s-4-1.8-4-4s1.8-4,4-4c-2.4,0-4.4-2-4.4-4.4c0-1.8,1.1-3.4,2.6-4c-1.2-0.5-2.1-1.4-2.6-2.6c-0.7,1.6-2.2,2.6-4,2.6
		c-1.8,0-3.3-1-4-2.5c-0.5,1.1-1.4,2-2.6,2.5c1.6,0.7,2.6,2.2,2.6,4c0,2.4-2,4.4-4.4,4.4c2.2,0,4,1.8,4,4s-1.8,4-4,4s-4-1.8-4-4
		s1.8-4,4-4c-2.4,0-4.4-2-4.4-4.4c0,2.2-1.8,4-4,4s-4-1.8-4-4s1.8-4,4-4c-2.4,0-4.4-2-4.4-4.4c0-1.8,1.1-3.4,2.6-4
		c-1.4-0.6-2.5-1.8-2.8-3.3c-0.5,1.7-2,2.9-3.8,2.9c-2.2,0-4-1.8-4-4c0-2,1.5-3.7,3.5-3.9c-2.2-0.3-3.9-2.1-3.9-4.3c0,2.2-1.8,4-4,4
		s-4-1.8-4-4s1.8-4,4-4s4,1.8,4,4c0-2,1.3-3.7,3.1-4.2c-1.8-0.5-3.1-2.2-3.1-4.2c0,2.2-1.8,4-4,4s-4-1.8-4-4s1.8-4,4-4s4,1.8,4,4
		c0-2,1.3-3.7,3.1-4.2c-1.7-0.5-2.9-1.9-3.1-3.7c-0.3,2-2,3.6-4,3.6c-2.3,0-4.1-1.8-4.1-4.1s1.8-4.1,4.1-4.1c2.1,0,3.8,1.6,4,3.6
		c0.2-1.5,1.1-2.8,2.5-3.5c-1.2-0.5-2.2-1.6-2.6-2.8c-0.6,1.5-2.1,2.6-3.9,2.6c-2.3,0-4.2-1.9-4.2-4.2s1.9-4.2,4.2-4.2
		c1.7,0,3.2,1.1,3.9,2.6c0.7-1.9,2.4-3.2,4.5-3.2c1.8,0,3.4,1,4.2,2.5c0.7-1.2,1.9-2.1,3.3-2.4c-1.7-0.4-2.9-1.9-2.9-3.7
		c0-2.1,1.7-3.8,3.8-3.8c2.1,0,3.8,1.7,3.8,3.8c0,1.8-1.2,3.3-2.9,3.7c1.3,0.2,2.4,1,3.1,2c0.6-1,1.5-1.7,2.6-2.1
		c-1.3-0.7-2.2-2-2.2-3.5c0-2.2,1.8-4,4-4s4,1.8,4,4c0,1.5-0.9,2.9-2.2,3.5c1,0.4,1.8,1,2.4,1.8c0.8-1,1.9-1.7,3.2-2
		c-1.5-0.4-2.6-1.7-2.6-3.4c0-1.9,1.6-3.5,3.5-3.5c1.9,0,3.5,1.6,3.5,3.5c0,1.6-1.1,3-2.6,3.4c1.3,0.2,2.5,1,3.3,2
		c0.6-0.8,1.4-1.5,2.4-1.9c-1.3-0.7-2.2-2-2.2-3.5c0-2.2,1.8-4,4-4s4,1.8,4,4c0,1.5-0.9,2.9-2.2,3.5c1.1,0.4,2,1.2,2.6,2.1
		c0.7-1,1.8-1.8,3.1-2c-1.7-0.4-2.9-1.9-2.9-3.7c0-2.1,1.7-3.8,3.8-3.8s3.8,1.7,3.8,3.8c0,1.8-1.2,3.3-2.9,3.7
		c1.4,0.3,2.6,1.2,3.3,2.4c0.8-1.5,2.4-2.5,4.2-2.5c2,0,3.8,1.3,4.5,3.1c0.7-1.5,2.1-2.5,3.8-2.5c2.3,0,4.2,1.9,4.2,4.2
		s-1.9,4.2-4.2,4.2c-1.7,0-3.2-1-3.8-2.5c-0.5,1.2-1.4,2.2-2.6,2.7C99,64.6,100,65.7,100.2,67z M112.6,88.4c-2,0-3.7-1.6-3.7-3.7
		c0-2,1.6-3.7,3.7-3.7c2,0,3.7,1.6,3.7,3.7C116.3,86.8,114.6,88.4,112.6,88.4z M112.6,80.1c-2.1,0-3.8-1.7-3.8-3.8
		c0-2.1,1.7-3.8,3.8-3.8c2.1,0,3.8,1.7,3.8,3.8C116.4,78.4,114.7,80.1,112.6,80.1z M112.6,71.7c-2.1,0-3.8-1.7-3.8-3.8
		c0-2.1,1.7-3.8,3.8-3.8c2.1,0,3.8,1.7,3.8,3.8C116.4,70,114.7,71.7,112.6,71.7z M112.6,63.3c-2.1,0-3.8-1.7-3.8-3.8
		s1.7-3.8,3.8-3.8c2.1,0,3.8,1.7,3.8,3.8S114.7,63.3,112.6,63.3z M112.6,55c-2.1,0-3.8-1.7-3.8-3.8c0-2.1,1.7-3.8,3.8-3.8
		c2.1,0,3.8,1.7,3.8,3.8C116.4,53.3,114.7,55,112.6,55z M121,95.1c-1.1,0-2.1-0.9-2.1-2.1c0-1.1,0.9-2.1,2.1-2.1
		c1.1,0,2.1,0.9,2.1,2.1C123.1,94.2,122.1,95.1,121,95.1z M121,87.7c-1.6,0-3-1.3-3-3s1.3-3,3-3s3,1.3,3,3S122.6,87.7,121,87.7z
		 M121,79.8c-1.9,0-3.5-1.6-3.5-3.5s1.6-3.5,3.5-3.5s3.5,1.6,3.5,3.5S122.9,79.8,121,79.8z M121,71.4c-1.9,0-3.5-1.6-3.5-3.5
		c0-1.9,1.6-3.5,3.5-3.5s3.5,1.6,3.5,3.5C124.5,69.9,122.9,71.4,121,71.4z M121,63c-1.9,0-3.5-1.6-3.5-3.5s1.6-3.5,3.5-3.5
		s3.5,1.6,3.5,3.5S122.9,63,121,63z M121,54.7c-1.9,0-3.5-1.6-3.5-3.5s1.6-3.5,3.5-3.5s3.5,1.6,3.5,3.5S122.9,54.7,121,54.7z
		 M129.4,78.4c-1.1,0-2.1-0.9-2.1-2.1c0-1.1,0.9-2.1,2.1-2.1c1.1,0,2.1,0.9,2.1,2.1C131.5,77.5,130.5,78.4,129.4,78.4z M129.4,70.6
		c-1.4,0-2.6-1.2-2.6-2.6s1.2-2.6,2.6-2.6s2.6,1.2,2.6,2.6S130.8,70.6,129.4,70.6z"/>
	<path class="st0" d="M49.7,78.1c-0.5,1.2-1.5,2.1-2.8,2.4c1.2,0.4,2.3,1.3,2.8,2.4c0.4-1.1,1.2-1.9,2.3-2.4
		C51,80,50.2,79.2,49.7,78.1z"/>
	<path class="st0" d="M49.7,86.5c-0.6,1.4-1.9,2.4-3.5,2.6c1.6,0.2,2.9,1.3,3.3,2.9c0.3-1.3,1.2-2.4,2.4-3.1
		C50.9,88.4,50.1,87.5,49.7,86.5z"/>
	<path class="st0" d="M58.2,78.5c-0.5,0.9-1.2,1.6-2,2c0.8,0.4,1.5,1,1.9,1.8c0.4-0.8,1.1-1.4,1.8-1.9C59.2,80,58.6,79.3,58.2,78.5z
		"/>
	<path class="st0" d="M91.9,86.5c-0.4,1-1.2,1.9-2.2,2.4c1.2,0.6,2.1,1.7,2.4,3.1c0.4-1.5,1.7-2.6,3.3-2.9
		C93.8,88.9,92.5,87.9,91.9,86.5z"/>
	<path class="st0" d="M58.3,65.8c0.4-0.7,0.9-1.3,1.5-1.7c-0.7-0.4-1.4-1-1.8-1.8c-0.4,0.6-1,1.1-1.7,1.5
		C57.2,64.2,57.9,64.9,58.3,65.8z"/>
</g>
<g>
	<g>
		<g>
			<g>
				<path class="st0" d="M165.4,122.1h2.9c1.1,0,1.8,0.1,2.4,0.7c0.4,0.4,0.6,1,0.6,1.7c0,0.7-0.2,1.2-0.7,1.7
					c-0.5,0.5-1.1,0.7-2.6,0.7h-1.4v3.8h-1.2V122.1z M166.6,125.9h1.4c0.8,0,2-0.1,2-1.5c0-1.4-1.1-1.4-1.8-1.4h-1.7V125.9z"/>
				<path class="st0" d="M175.2,124.6c2.4,0,3,1.9,3,3.2c0,1.8-1,3.2-3,3.2c-2,0-3-1.4-3-3.1C172.1,126.3,172.8,124.6,175.2,124.6z
					 M175.1,130.1c0.9,0,1.8-0.6,1.8-2.4c0-1.5-0.7-2.3-1.8-2.3c-0.7,0-1.9,0.5-1.9,2.3C173.3,129,173.8,130.1,175.1,130.1z"/>
				<path class="st0" d="M180.1,124.7l1.5,4.8l1.5-4.8h1.5l1.4,4.7l1.5-4.7h1.2l-2.1,6h-1.3l-1.4-5l-1.6,5h-1.3l-2-6H180.1z"/>
				<path class="st0" d="M190.4,127.9c0,1.2,0.5,2.2,1.7,2.2c0.7,0,1.3-0.4,1.4-1.2h1.1c0,0.3-0.1,0.8-0.5,1.3
					c-0.3,0.3-0.9,0.8-2.1,0.8c-1.9,0-2.8-1.2-2.8-3.1c0-1.2,0.2-2.2,1.2-2.8c0.6-0.4,1.3-0.4,1.6-0.4c2.7,0,2.6,2.4,2.6,3.4H190.4z
					 M193.6,127.1c0-0.6-0.1-1.8-1.5-1.8c-0.7,0-1.6,0.4-1.6,1.8H193.6z"/>
				<path class="st0" d="M196.4,125.9c0-0.4,0-0.8-0.1-1.2h1.1l0,1.2c0.2-0.8,0.9-1.1,1.4-1.2c0.3,0,0.6,0,0.8,0v1.1
					c-0.1,0-0.1,0-0.2,0c-0.1,0-0.2,0-0.3,0c-1.3,0-1.6,0.8-1.6,1.8v3.2h-1.1V125.9z"/>
				<path class="st0" d="M201.8,127.9c0,1.2,0.5,2.2,1.7,2.2c0.7,0,1.3-0.4,1.4-1.2h1.1c0,0.3-0.1,0.8-0.5,1.3
					c-0.3,0.3-0.9,0.8-2.1,0.8c-1.9,0-2.8-1.2-2.8-3.1c0-1.2,0.2-2.2,1.2-2.8c0.6-0.4,1.3-0.4,1.6-0.4c2.7,0,2.6,2.4,2.6,3.4H201.8z
					 M205,127.1c0-0.6-0.1-1.8-1.5-1.8c-0.7,0-1.6,0.4-1.6,1.8H205z"/>
				<path class="st0" d="M212,122.1h1.1v7.7c0,0.1,0,0.6,0,1H212l0-1c-0.1,0.2-0.2,0.4-0.5,0.6c-0.5,0.3-1.1,0.4-1.5,0.4
					c-0.8,0-2.6-0.4-2.6-3.1c0-2.3,1.3-3.3,2.7-3.3c1.3,0,1.7,0.8,1.9,1V122.1z M211.6,126c-0.2-0.3-0.7-0.6-1.3-0.6
					c-1.7,0-1.7,2-1.7,2.4c0,1.1,0.3,2.3,1.7,2.3c1.8,0,1.8-2,1.8-2.4C212,126.8,211.8,126.3,211.6,126z"/>
				<path class="st0" d="M219.6,125.6c0.2-0.3,0.6-1,2-1c0.6,0,1.4,0.1,1.9,0.8c0.3,0.3,0.7,0.9,0.7,2.3c0,1.2-0.3,1.8-0.6,2.2
					c-0.5,0.7-1.3,1-2.1,1c-0.3,0-0.8,0-1.3-0.4c-0.3-0.2-0.5-0.4-0.6-0.6l0,0.9h-1.1l0-1.1v-7.6h1.1V125.6z M221.3,125.3
					c-1.7,0-1.7,2-1.7,2.4c0,0.4,0,2.3,1.7,2.3c1.4,0,1.7-1.4,1.7-2.3C223,127.1,222.9,125.3,221.3,125.3z"/>
				<path class="st0" d="M228.5,130.8l-0.9,2.2h-1.2l0.9-2.3l-2.5-6h1.3l1.9,4.7l1.9-4.7h1.2L228.5,130.8z"/>
				<path class="st0" d="M234.9,124.7h1.1v-1.3l1.1-0.4v1.6h1.3v0.8H237v3.6c0,0.3,0,0.8,0.8,0.8c0.2,0,0.4,0,0.5-0.1v0.9
					c-0.2,0-0.5,0.1-0.9,0.1c-1,0-1.5-0.3-1.5-1.3v-4h-1.1V124.7z"/>
				<path class="st0" d="M239.7,122.1h1.1v3.5c0.4-0.6,1.1-1,2-1c0.6,0,1.5,0.2,1.9,1c0.1,0.2,0.2,0.5,0.2,1.4v3.8h-1.2v-3.6
					c0-0.5,0-1.7-1.3-1.7c-0.8,0-1.3,0.5-1.4,0.8c-0.2,0.3-0.2,0.9-0.2,1.3v3.2h-1.1V122.1z"/>
				<path class="st0" d="M247.7,127.9c0,1.2,0.5,2.2,1.7,2.2c0.7,0,1.3-0.4,1.4-1.2h1.1c0,0.3-0.1,0.8-0.5,1.3
					c-0.3,0.3-0.9,0.8-2.1,0.8c-1.9,0-2.8-1.2-2.8-3.1c0-1.2,0.2-2.2,1.2-2.8c0.6-0.4,1.3-0.4,1.6-0.4c2.7,0,2.6,2.4,2.6,3.4H247.7z
					 M250.9,127.1c0-0.6-0.1-1.8-1.5-1.8c-0.7,0-1.6,0.4-1.6,1.8H250.9z"/>
				<path class="st0" d="M264.1,120.7l4.5,13h-2.8l-0.9-2.8h-5.1l-1,2.8h-2.7l4.7-13H264.1z M264.2,128.8l-1.8-5.5l-1.9,5.5H264.2z"
					/>
				<path class="st0" d="M270.1,120.7h4.6l2.8,9.5l3-9.5h4.4v13H282v-11.2l-3.5,11.2h-2.3l-3.5-11.2v11.2h-2.6V120.7z"/>
				<path class="st0" d="M287.3,120.8h4c1.9,0,3.4,0.1,4.5,1.4c0.7,0.8,0.8,1.8,0.8,2.4c0,1.5-0.6,2.8-1.7,3.5c-1,0.6-2.3,0.6-3,0.6
					h-1.9v5.1h-2.8V120.8z M290,126.6h1.1c0.9,0,2.6,0,2.6-2c0-1.8-1.5-1.8-2.3-1.8H290V126.6z"/>
				<path class="st0" d="M297.6,128h4.5v2h-4.5V128z"/>
				<path class="st0" d="M305.7,122.9h-3.9v-2.2h10.6v2.2h-3.9v10.9h-2.8V122.9z"/>
				<path class="st0" d="M313.2,131.2l3.3-3c0.6-0.5,1.2-1.1,1.9-1.9c0.7-0.8,0.9-1.2,0.9-1.8c0-1-0.6-1.6-1.5-1.6
					c-1.4,0-1.6,1.5-1.6,1.8h-2.8c0-0.5,0-1.4,0.7-2.4c0.7-0.9,2.1-1.4,3.6-1.4c2.7,0,4.2,1.5,4.2,3.4c0,1.3-0.5,3-5.9,7.3
					c1.8,0,2-0.1,3.5-0.1c1.9,0,2.1,0,2.6-0.1v2.1h-8.8V131.2z"/>
				<path class="st0" d="M324,120.8l4.3,0c0.7,0,2.9,0,4.5,1.2c1.6,1.2,2.2,3.3,2.2,5.1c0,4-2.1,6.1-4.6,6.5c-0.5,0.1-1,0.1-2.3,0.1
					H324V120.8z M326.8,131.6c0.3,0,0.8,0,1.1,0c1.2,0,2.2-0.1,3-0.9c1.1-1.1,1.2-3,1.2-3.7c0-1.8-0.6-3.5-2.4-4
					c-0.6-0.2-1.3-0.3-2.9-0.2V131.6z"/>
				<path class="st0" d="M336.9,120.8h2.8v5.6l4.4-5.6h3.3l-4.8,5.8l5.2,7.2h-3.5l-4.6-6.6v6.6h-2.8V120.8z"/>
				<path class="st0" d="M349,120.8h4c1.9,0,3.4,0.1,4.5,1.4c0.7,0.8,0.8,1.8,0.8,2.4c0,1.5-0.6,2.8-1.7,3.5c-1,0.6-2.3,0.6-3,0.6
					h-1.9v5.1H349V120.8z M351.8,126.6h1.1c0.9,0,2.6,0,2.6-2c0-1.8-1.5-1.8-2.3-1.8h-1.4V126.6z"/>
				<path class="st0" d="M364.9,125.7c0-0.3,0-0.4,0-1h1.1l0,1c0.6-0.9,1.6-1.1,2.1-1.1c1.3,0,2.5,0.9,2.5,3.1
					c0,2.2-1.3,3.2-2.7,3.2c-0.9,0-1.5-0.4-1.8-0.9v3h-1.1V125.7z M367.7,130.1c0.3,0,0.9-0.1,1.3-0.6c0.4-0.6,0.5-1.5,0.5-1.9
					c0-1.1-0.3-2.2-1.7-2.2c-1.8,0-1.8,1.9-1.8,2.4C366,128.6,366.1,130.1,367.7,130.1z"/>
				<path class="st0" d="M372.3,122.1h1.1v8.6h-1.1V122.1z"/>
				<path class="st0" d="M379.2,130.7c-0.1-0.3-0.1-0.6-0.1-0.9c-0.5,1-1.4,1.1-1.9,1.1c-1.4,0-2.1-0.8-2.1-1.8
					c0-0.5,0.2-1.2,1.1-1.8c0.6-0.4,1.6-0.4,2.1-0.4c0.3,0,0.5,0,0.8,0c0-0.7,0-1.1-0.2-1.3c-0.2-0.3-0.7-0.4-1-0.4
					c-1.1,0-1.2,0.8-1.2,1h-1.1c0-0.3,0.1-0.7,0.4-1.1c0.5-0.5,1.3-0.6,1.9-0.6c0.9,0,1.8,0.3,2.1,0.9c0.2,0.4,0.2,0.6,0.2,0.9
					l0,2.9c0,0.1,0,0.9,0.1,1.5H379.2z M378.4,127.8c-0.5,0-2.2,0-2.2,1.2c0,0.4,0.2,1,1.2,1c0.6,0,1-0.2,1.3-0.6
					c0.3-0.4,0.3-0.7,0.3-1.6C378.8,127.8,378.7,127.8,378.4,127.8z"/>
				<path class="st0" d="M381.3,124.7h1.1v-1.3l1.1-0.4v1.6h1.3v0.8h-1.3v3.6c0,0.3,0,0.8,0.8,0.8c0.2,0,0.4,0,0.5-0.1v0.9
					c-0.2,0-0.5,0.1-0.9,0.1c-1,0-1.5-0.3-1.5-1.3v-4h-1.1V124.7z"/>
				<path class="st0" d="M389.6,122.9c-0.2,0-0.4,0-0.7,0c-0.9,0-0.9,0.5-0.9,0.9v0.9h1.4v0.8h-1.4v5.2h-1.1v-5.2h-1.2v-0.8h1.2V124
					c0-0.8,0-1.1,0.3-1.4c0.3-0.4,0.7-0.7,1.5-0.7c0.3,0,0.7,0,0.9,0.1V122.9z"/>
				<path class="st0" d="M393.2,124.6c2.4,0,3,1.9,3,3.2c0,1.8-1,3.2-3,3.2c-2,0-3-1.4-3-3.1C390.2,126.3,390.9,124.6,393.2,124.6z
					 M393.2,130.1c0.9,0,1.8-0.6,1.8-2.4c0-1.5-0.7-2.3-1.8-2.3c-0.7,0-1.9,0.5-1.9,2.3C391.4,129,391.9,130.1,393.2,130.1z"/>
				<path class="st0" d="M397.9,125.9c0-0.4,0-0.8-0.1-1.2h1.1l0,1.2c0.2-0.8,0.9-1.1,1.4-1.2c0.3,0,0.6,0,0.8,0v1.1
					c-0.1,0-0.1,0-0.2,0c-0.1,0-0.2,0-0.3,0c-1.3,0-1.6,0.8-1.6,1.8v3.2h-1.1V125.9z"/>
				<path class="st0" d="M402.5,125.5l0-0.8h1.1v0.9c0.6-0.9,1.4-1,1.9-1c1.3,0,1.8,0.7,2,1.1c0.2-0.3,0.7-1.1,2-1.1
					c0.9,0,2.2,0.4,2.2,2.1v4h-1.1v-3.9c0-0.5-0.1-0.8-0.2-0.9c-0.2-0.3-0.6-0.5-1.2-0.5c-0.7,0-1.1,0.4-1.3,0.6
					c-0.3,0.4-0.3,1-0.3,1.3v3.4h-1.1v-4c0-0.7-0.4-1.3-1.3-1.3c-0.8,0-1.2,0.5-1.3,0.7c-0.3,0.3-0.3,0.8-0.3,1.2v3.4h-1.1V125.5z"
					/>
			</g>
		</g>
	</g>
</g>
</svg>
