<?xml version="1.0" encoding="utf-8"?>
<!-- Generator: Adobe Illustrator 26.1.0, SVG Export Plug-In . SVG Version: 6.00 Build 0)  -->
<svg version="1.1" id="Layer_1" xmlns="http://www.w3.org/2000/svg" xmlns:xlink="http://www.w3.org/1999/xlink" x="0px" y="0px"
	 viewBox="0 0 48.7 62.1" style="enable-background:new 0 0 48.7 62.1;" xml:space="preserve">
<style type="text/css">
	.st0{fill:#FFFFFF;}
</style>
<g>
	<path class="st0" d="M25.5,59.2l-4-2.8l-0.8-0.6c-0.3-0.2-0.5-0.5-0.7-0.7c-1.1,1.1-2.1,2.5-2.6,4.1c2.1,0.6,4.4,0.9,6.8,0.9
		c0.8,0,1.6,0,2.3-0.1C26.2,59.8,25.8,59.5,25.5,59.2z"/>
	<path class="st0" d="M24.2,1.3c-10.3,0-23,16.5-23,32.8c0,13.1,6.1,22.1,15.7,25c0.3-2,1-3.8,2-5.3c-1.4-2-2.2-4.7-2.2-7.6h0
		c0,0,0,0,0,0c0,0,0,0,0,0h0c0-4.1,1.6-7.6,4-9.6l0.8-0.6l4-2.8c0.3-0.2,0.6-0.5,0.9-0.7c0.1-0.4,0.4-0.7,0.8-0.8
		c1.7-1.7,3.2-4,3.2-6.5h0.3c0,4.1-1.6,7.6-4,9.6l-4.8,3.4c-2.1,1.6-4.9,4.6-5,8c0,2.4,1.4,4.6,3,6.3c0.2-0.2,0.5-0.5,0.7-0.7
		l0.8-0.6l4-2.8c2.1-1.6,5-4.6,5-8h0.3c0,4.1-1.6,7.6-4,9.6l-4.8,3.4c-0.2,0.1-0.3,0.3-0.5,0.4c0.2,0.1,0.3,0.3,0.5,0.4l4.8,3.4
		c0.7,0.6,1.3,1.4,1.9,2.2c11.2-1.9,18.6-11.3,18.6-25.7C47.2,17.9,34.5,1.3,24.2,1.3z M28.9,3.2c0.4,0,0.7,0.3,0.7,0.7
		c0,0.4-0.3,0.7-0.7,0.7c-0.4,0-0.7-0.3-0.7-0.7C28.1,3.5,28.5,3.2,28.9,3.2z M27.3,5.1c0.5,0,1,0.4,1,1c0,0.5-0.4,1-1,1
		c-0.5,0-1-0.4-1-1C26.3,5.5,26.8,5.1,27.3,5.1z M19.3,9.5c0,0.4-0.3,0.7-0.7,0.7c-0.4,0-0.7-0.3-0.7-0.7c0-0.4,0.3-0.7,0.7-0.7
		C18.9,8.8,19.3,9.1,19.3,9.5z M17.8,13.8c0-0.4,0.3-0.7,0.7-0.7c0.4,0,0.7,0.3,0.7,0.7c0,0.4-0.3,0.7-0.7,0.7
		C18.1,14.6,17.8,14.2,17.8,13.8z M18.2,15.9c0,0.3-0.3,0.6-0.6,0.6c-0.3,0-0.6-0.3-0.6-0.6c0-0.3,0.3-0.6,0.6-0.6
		C17.9,15.3,18.2,15.6,18.2,15.9z M18.2,7.4c0,0.3-0.3,0.6-0.6,0.6c-0.3,0-0.6-0.3-0.6-0.6c0-0.3,0.3-0.6,0.6-0.6
		C17.9,6.8,18.2,7.1,18.2,7.4z M17.1,4.9c0.3,0,0.5,0.2,0.5,0.5c0,0.3-0.2,0.5-0.5,0.5c-0.3,0-0.5-0.2-0.5-0.5
		C16.6,5.1,16.8,4.9,17.1,4.9z M17.1,17.4c0.3,0,0.5,0.2,0.5,0.5c0,0.3-0.2,0.5-0.5,0.5c-0.3,0-0.5-0.2-0.5-0.5
		C16.6,17.6,16.8,17.4,17.1,17.4z M16.6,20.8c0-0.3,0.2-0.5,0.5-0.5c0.3,0,0.5,0.2,0.5,0.5c0,0.3-0.2,0.5-0.5,0.5
		C16.8,21.4,16.6,21.1,16.6,20.8z M16.9,22.9c0-0.3,0.3-0.6,0.6-0.6c0.3,0,0.6,0.3,0.6,0.6c0,0.3-0.3,0.6-0.6,0.6
		C17.2,23.5,16.9,23.2,16.9,22.9z M18.5,25.7c-0.4,0-0.7-0.3-0.7-0.7s0.3-0.7,0.7-0.7c0.4,0,0.7,0.3,0.7,0.7S18.9,25.7,18.5,25.7z
		 M20.1,28.1c-0.5,0-1-0.4-1-1c0-0.5,0.4-1,1-1c0.5,0,1,0.4,1,1C21.1,27.7,20.6,28.1,20.1,28.1z M20.1,12.6c-0.5,0-1-0.4-1-1
		c0-0.5,0.4-1,1-1c0.5,0,1,0.4,1,1C21.1,12.2,20.6,12.6,20.1,12.6z M22.3,8.7c0.6,0,1.1,0.5,1.1,1.2S23,11,22.3,11
		c-0.6,0-1.1-0.5-1.1-1.2S21.7,8.7,22.3,8.7z M22.5,30.3c-0.6,0-1.1-0.5-1.1-1.2c0-0.6,0.5-1.2,1.1-1.2c0.6,0,1.1,0.5,1.1,1.2
		C23.6,29.8,23.1,30.3,22.5,30.3z M22.5,14.8c-0.6,0-1.1-0.5-1.1-1.2c0-0.6,0.5-1.2,1.1-1.2c0.6,0,1.1,0.5,1.1,1.2
		C23.6,14.3,23.1,14.8,22.5,14.8z M24.9,6.9c0.6,0,1.1,0.5,1.1,1.2c0,0.6-0.5,1.2-1.1,1.2c-0.6,0-1.1-0.5-1.1-1.2
		C23.8,7.5,24.3,6.9,24.9,6.9z M25.1,32c-0.6,0-1.1-0.5-1.1-1.2c0-0.6,0.5-1.2,1.1-1.2s1.1,0.5,1.1,1.2C26.2,31.5,25.7,32,25.1,32z
		 M25.1,16.6c-0.6,0-1.1-0.5-1.1-1.2c0-0.6,0.5-1.2,1.1-1.2s1.1,0.5,1.1,1.2C26.2,16.1,25.7,16.6,25.1,16.6z M27.3,18.2
		c-0.5,0-1-0.4-1-1c0-0.5,0.4-1,1-1c0.5,0,1,0.4,1,1C28.3,17.8,27.9,18.2,27.3,18.2z M28.1,19.4c0-0.4,0.3-0.7,0.7-0.7
		c0.4,0,0.7,0.3,0.7,0.7c0,0.4-0.3,0.7-0.7,0.7C28.5,20.2,28.1,19.8,28.1,19.4z M29.2,21.5c0-0.3,0.3-0.6,0.6-0.6
		c0.3,0,0.6,0.3,0.6,0.6c0,0.3-0.3,0.6-0.6,0.6C29.5,22.1,29.2,21.8,29.2,21.5z M28.1,34.9c0-0.4,0.3-0.7,0.7-0.7
		c0.4,0,0.7,0.3,0.7,0.7s-0.3,0.7-0.7,0.7C28.5,35.6,28.1,35.3,28.1,34.9z M29.2,36.9c0-0.3,0.3-0.6,0.6-0.6c0.3,0,0.6,0.3,0.6,0.6
		c0,0.3-0.3,0.6-0.6,0.6C29.5,37.6,29.2,37.3,29.2,36.9z M30.3,39.5c-0.3,0-0.5-0.2-0.5-0.5c0-0.3,0.2-0.5,0.5-0.5
		c0.3,0,0.5,0.2,0.5,0.5C30.8,39.3,30.6,39.5,30.3,39.5z M30.3,24.1c-0.3,0-0.5-0.2-0.5-0.5c0-0.3,0.2-0.5,0.5-0.5
		c0.3,0,0.5,0.2,0.5,0.5C30.8,23.8,30.6,24.1,30.3,24.1z"/>
</g>
</svg>
