<?xml version="1.0" encoding="utf-8"?>
<!-- Generator: Adobe Illustrator 27.4.1, SVG Export Plug-In . SVG Version: 6.00 Build 0)  -->
<svg version="1.1" id="Layer_1" xmlns="http://www.w3.org/2000/svg" xmlns:xlink="http://www.w3.org/1999/xlink" x="0px" y="0px"
	 viewBox="0 0 20 20" style="enable-background:new 0 0 20 20;" xml:space="preserve">
<style type="text/css">
	.st0{fill:#AFABD4;}
	.st1{fill:#D3D0E8;}
	.st2{fill:none;stroke:#AFABD4;stroke-width:0.6212;stroke-linejoin:round;stroke-miterlimit:10;}
</style>
<g>
	<circle class="st0" cx="10" cy="5.3" r="1.1"/>
	<path class="st1" d="M17.5,4.7c-0.1-0.3-0.4-0.4-0.7-0.3L9.9,6.8L3,4.3C2.7,4.2,2.4,4.4,2.3,4.7c-0.1,0.3,0,0.6,0.3,0.7l5.7,2V12
		l-2.2,6c-0.1,0.4,0.1,0.7,0.4,0.9s0.7,0,0.8-0.4l2.1-5.8h0.7l2.1,5.8c0.1,0.4,0.5,0.5,0.9,0.4s0.5-0.5,0.4-0.9l-2.1-6V7.3l5.7-2
		C17.5,5.2,17.6,4.9,17.5,4.7z"/>
	<path class="st0" d="M17,6.9H2.9c-0.3,0-0.5,0.2-0.5,0.5c0,0.3,0.2,0.5,0.5,0.5h5.6v3.3v1.5v6c0,0.4,0.3,0.7,0.7,0.7
		s0.7-0.3,0.7-0.7v-6h0.4v6c0,0.4,0.3,0.7,0.7,0.7s0.7-0.3,0.7-0.7v-6v-1.5V7.9H17c0.3,0,0.5-0.2,0.5-0.5C17.6,7.1,17.3,6.9,17,6.9z
		"/>
	<circle class="st2" cx="10" cy="10" r="9.4"/>
	<path class="st1" d="M5.4,7.6H3c-0.1,0-0.2-0.1-0.2-0.2l0,0c0-0.1,0.1-0.2,0.2-0.2h2.4c0.1,0,0.2,0.1,0.2,0.2l0,0
		C5.6,7.5,5.5,7.6,5.4,7.6z"/>
	<path class="st1" d="M8.5,7.6H6c-0.1,0-0.2-0.1-0.2-0.2l0,0c0-0.1,0.1-0.2,0.2-0.2h2.4c0.1,0,0.1,0.1,0.1,0.2l0,0
		C8.6,7.5,8.5,7.6,8.5,7.6z"/>
	<path class="st1" d="M13.9,7.6h-2.4c-0.1,0-0.1-0.1-0.1-0.2l0,0c0-0.1,0.1-0.2,0.1-0.2h2.4C14,7.3,14,7.3,14,7.4l0,0
		C14,7.5,14,7.6,13.9,7.6z"/>
	<path class="st1" d="M16.9,7.6h-2.5c-0.1,0-0.1-0.1-0.1-0.2l0,0c0-0.1,0.1-0.2,0.1-0.2h2.5c0.1,0,0.1,0.1,0.1,0.2l0,0
		C17.1,7.5,17,7.6,16.9,7.6z"/>
	<path class="st1" d="M8.9,15.2v-2.9c0-0.1,0.1-0.2,0.2-0.2l0,0c0.1,0,0.2,0.1,0.2,0.2v3c0,0.1-0.1,0.2-0.2,0.2l0,0
		C9,15.4,8.9,15.3,8.9,15.2z"/>
	<path class="st1" d="M8.9,18.8v-3c0-0.1,0.1-0.2,0.2-0.2l0,0c0.1,0,0.2,0.1,0.2,0.2v3c0,0.1-0.1,0.2-0.2,0.2l0,0
		C9,19,8.9,18.9,8.9,18.8z"/>
	<path class="st1" d="M10.6,15.2v-2.9c0-0.1,0.1-0.2,0.2-0.2l0,0c0.1,0,0.2,0.1,0.2,0.2v3c0,0.1-0.1,0.2-0.2,0.2l0,0
		C10.7,15.4,10.6,15.3,10.6,15.2z"/>
	<path class="st1" d="M10.6,18.8v-3c0-0.1,0.1-0.2,0.2-0.2l0,0c0.1,0,0.2,0.1,0.2,0.2v3c0,0.1-0.1,0.2-0.2,0.2l0,0
		C10.7,19,10.6,18.9,10.6,18.8z"/>
	<circle class="st1" cx="10" cy="5.3" r="0.7"/>
	<path class="st1" d="M10,8.1L10,8.1C9.8,8.1,9.7,8,9.7,7.9V7.6c0-0.1,0.1-0.2,0.2-0.2l0,0c0.1,0,0.2,0.1,0.2,0.2v0.2
		C10.2,8,10.1,8.1,10,8.1z"/>
	<path class="st1" d="M10,9L10,9C9.8,9,9.7,8.9,9.7,8.8V8.5c0-0.1,0.1-0.2,0.2-0.2l0,0c0.1,0,0.2,0.1,0.2,0.2v0.2
		C10.2,8.9,10.1,9,10,9z"/>
	<path class="st1" d="M10,9.9L10,9.9c-0.1,0-0.2-0.1-0.2-0.2V9.4c0-0.1,0.1-0.2,0.2-0.2l0,0c0.1,0,0.2,0.1,0.2,0.2v0.2
		C10.2,9.8,10.1,9.9,10,9.9z"/>
	<path class="st1" d="M10,10.9L10,10.9c-0.1,0-0.2-0.1-0.2-0.2v-0.2c0-0.1,0.1-0.2,0.2-0.2l0,0c0.1,0,0.2,0.1,0.2,0.2v0.2
		C10.2,10.8,10.1,10.9,10,10.9z"/>
	<path class="st1" d="M10,11.8L10,11.8c-0.1,0-0.2-0.1-0.2-0.2v-0.2c0-0.1,0.1-0.2,0.2-0.2l0,0c0.1,0,0.2,0.1,0.2,0.2v0.2
		C10.2,11.7,10.1,11.8,10,11.8z"/>
</g>
</svg>
