<?xml version="1.0" encoding="utf-8"?>
<!-- Generator: Adobe Illustrator 27.4.1, SVG Export Plug-In . SVG Version: 6.00 Build 0)  -->
<svg version="1.1" id="Layer_1" xmlns="http://www.w3.org/2000/svg" xmlns:xlink="http://www.w3.org/1999/xlink" x="0px" y="0px"
	 viewBox="0 0 20 20" style="enable-background:new 0 0 20 20;" xml:space="preserve">
<style type="text/css">
	.st0{fill:#009BC8;}
</style>
<g>
	<path class="st0" d="M8.7,12.7c0.7,0.7,1.9,0.7,2.7,0c0.7-0.7,0.7-1.9,0-2.7c-0.7-0.7-1.9-0.7-2.7,0C7.9,10.7,7.9,11.9,8.7,12.7z
		 M9.6,10.9c0.2-0.2,0.6-0.2,0.8,0c0.2,0.2,0.2,0.6,0,0.8c-0.2,0.2-0.6,0.2-0.8,0S9.4,11.1,9.6,10.9z"/>
	<polygon class="st0" points="12,1.1 10,6.6 8,1.1 10,2.6 	"/>
	<polygon class="st0" points="0.2,14.6 6,13.6 2.2,18.1 2.5,15.6 	"/>
	<polygon class="st0" points="17.8,18.1 14.1,13.6 19.8,14.6 17.5,15.6 	"/>
	<path class="st0" d="M14,15.3c-2.2,2.2-5.8,2.2-8,0c-0.1-0.1-0.2-0.2-0.2-0.3l-0.7,0.8c0.1,0.1,0.1,0.1,0.2,0.2
		c2.6,2.6,6.9,2.6,9.6,0c0.1-0.1,0.1-0.1,0.2-0.2l-0.7-0.8C14.2,15.2,14.1,15.2,14,15.3z"/>
	<path class="st0" d="M11.1,5.8C12.2,6,13.2,6.5,14,7.3c1.5,1.5,2,3.8,1.4,5.7l1.1,0.2c0.7-2.3,0.1-4.9-1.7-6.7
		c-0.9-0.9-2.1-1.5-3.3-1.8L11.1,5.8z"/>
	<path class="st0" d="M3.5,13.2L4.6,13C4,11.1,4.4,8.8,6,7.3C6.8,6.5,7.8,6,8.8,5.8l-0.4-1C7.3,5,6.2,5.6,5.2,6.5
		C3.4,8.4,2.8,10.9,3.5,13.2z"/>
</g>
</svg>
