<?xml version="1.0" encoding="utf-8"?>
<!-- Generator: Adobe Illustrator 27.4.1, SVG Export Plug-In . SVG Version: 6.00 Build 0)  -->
<svg version="1.1" id="Layer_1" xmlns="http://www.w3.org/2000/svg" xmlns:xlink="http://www.w3.org/1999/xlink" x="0px" y="0px"
	 viewBox="0 0 20 20" style="enable-background:new 0 0 20 20;" xml:space="preserve">
<style type="text/css">
	.st0{fill:none;stroke:#00A983;stroke-width:0.5576;stroke-linejoin:round;stroke-miterlimit:10;}
	.st1{fill:none;stroke:#00A983;stroke-width:0.3485;stroke-linecap:round;stroke-linejoin:round;stroke-miterlimit:10;}
</style>
<g>
	<path class="st0" d="M10.6,0.6c4.9,0.3,8.9,4.4,8.9,9.4c0,5.2-4.3,9.5-9.5,9.5S0.5,15.2,0.5,10c0-5,3.9-9.1,8.8-9.4v7.8
		c0,3.2-1.8,6-4.4,7.5l0,0c-0.9-1.1-1.5-2.6-1.5-4.1c0-3.6,2.9-6.5,6.5-6.5s6.5,2.9,6.5,6.5c0,1.6-0.6,3-1.5,4.1l0,0
		c-2.6-1.5-4.4-4.3-4.4-7.5L10.6,0.6L10.6,0.6z"/>
	<g>
		<line class="st1" x1="9" y1="5.7" x2="5.2" y2="13.5"/>
		<line class="st1" x1="5.7" y1="8.5" x2="7.7" y2="8.3"/>
		<line class="st1" x1="4.4" y1="11.7" x2="6.2" y2="11.5"/>
		<line class="st1" x1="6.9" y1="10.2" x2="8" y2="11.1"/>
	</g>
	<g>
		<line class="st1" x1="10.9" y1="5.7" x2="14.7" y2="13.5"/>
		<line class="st1" x1="14.2" y1="8.5" x2="12.2" y2="8.3"/>
		<line class="st1" x1="15.5" y1="11.7" x2="13.8" y2="11.5"/>
		<line class="st1" x1="13" y1="10.2" x2="11.9" y2="11.1"/>
	</g>
</g>
</svg>
