<?xml version="1.0" encoding="utf-8"?>
<!-- Generator: Adobe Illustrator 24.2.0, SVG Export Plug-In . SVG Version: 6.00 Build 0)  -->
<svg version="1.1" id="Layer_1" xmlns="http://www.w3.org/2000/svg" xmlns:xlink="http://www.w3.org/1999/xlink" x="0px" y="0px"
	 viewBox="0 0 20 20" style="enable-background:new 0 0 20 20;" xml:space="preserve">
<style type="text/css">
	.st0{fill:#5481C1;}
	.st1{fill:none;stroke:#FFFFFF;stroke-width:0.4633;stroke-linecap:round;stroke-linejoin:round;stroke-miterlimit:10;}
	.st2{fill:#F298BF;}
	.st3{fill:#BCD431;}
	.st4{fill:#D8B888;}
</style>
<g>
	<path class="st0" d="M17.6,14.4V5.7c0-0.3-0.2-0.6-0.4-0.8L9.7,0.6c-0.3-0.2-0.6-0.2-0.9,0L1.3,4.9C1.1,5.1,0.9,5.4,0.9,5.7v8.7
		c0,0.3,0.2,0.6,0.4,0.8l7.5,4.3c0.3,0.2,0.6,0.2,0.9,0l7.5-4.3C17.5,15,17.6,14.7,17.6,14.4z"/>
	<g>
		<path class="st1" d="M15,7.2c-0.5,0.6-1.3,1.1-2.1,1.1h-0.7c-4.2,0-7.5,3.4-7.5,7.5l0,1.5"/>
		<line class="st1" x1="4.1" y1="11.6" x2="4.9" y2="13.7"/>
		<line class="st1" x1="5.5" y1="12.3" x2="7.1" y2="12.5"/>
		<line class="st1" x1="6.5" y1="10.8" x2="5.9" y2="9"/>
		<line class="st1" x1="7.7" y1="9.8" x2="9.8" y2="10.4"/>
		<line class="st1" x1="9.4" y1="8.8" x2="9.5" y2="7.7"/>
		<line class="st1" x1="11.5" y1="8.4" x2="12.8" y2="9.3"/>
		<line class="st1" x1="13.2" y1="8.3" x2="13.7" y2="7.2"/>
	</g>
	<path class="st2" d="M18.6,3.5c-0.3,0-0.6,0.3-0.6,0.6c0,0.3,0.3,0.6,0.6,0.6s0.6-0.3,0.6-0.6C19.2,3.8,18.9,3.5,18.6,3.5z"/>
	<path class="st3" d="M17.6,5.2c-0.3,0-0.5,0.2-0.5,0.5c0,0.3,0.2,0.5,0.5,0.5c0.3,0,0.5-0.2,0.5-0.5C18.1,5.4,17.9,5.2,17.6,5.2z"
		/>
	<circle class="st3" cx="18.6" cy="6.5" r="0.6"/>
	<circle class="st3" cx="7" cy="8.9" r="0.6"/>
	<circle class="st3" cx="5.8" cy="7.8" r="0.6"/>
	<path class="st4" d="M4.3,8.1c-0.4,0-0.7,0.3-0.7,0.7c0,0.4,0.3,0.7,0.7,0.7C4.7,9.5,5,9.1,5,8.8C5,8.4,4.7,8.1,4.3,8.1z"/>
	<circle class="st3" cx="16.5" cy="9.2" r="0.6"/>
	<circle class="st3" cx="2.8" cy="11.3" r="0.9"/>
	<path class="st4" d="M15.2,8c-0.3,0-0.5,0.2-0.5,0.5S14.9,9,15.2,9c0.3,0,0.5-0.2,0.5-0.5S15.5,8,15.2,8z"/>
	<circle class="st3" cx="9.3" cy="11.2" r="0.4"/>
	<path class="st4" d="M14.6,5.9c-0.2,0-0.4,0.2-0.4,0.4s0.2,0.4,0.4,0.4c0.2,0,0.4-0.2,0.4-0.4C15.1,6.1,14.9,5.9,14.6,5.9z"/>
	<circle class="st3" cx="13.3" cy="6.3" r="0.5"/>
	<circle class="st3" cx="10.5" cy="7.5" r="0.4"/>
	<circle class="st3" cx="9.6" cy="6.9" r="0.4"/>
	<circle class="st3" cx="11.3" cy="6.6" r="0.5"/>
	<circle class="st3" cx="9.9" cy="9.5" r="0.4"/>
	<path class="st2" d="M13.2,9.7c-0.2,0-0.4,0.2-0.4,0.4c0,0.2,0.2,0.4,0.4,0.4c0.2,0,0.4-0.2,0.4-0.4C13.6,9.9,13.5,9.7,13.2,9.7z"
		/>
	<circle class="st3" cx="13.8" cy="9" r="0.4"/>
	<circle class="st3" cx="15.8" cy="7.2" r="0.4"/>
	<circle class="st3" cx="17.4" cy="4.6" r="0.4"/>
	<circle class="st3" cx="19" cy="5.3" r="0.4"/>
	<circle class="st3" cx="9.2" cy="12.5" r="0.4"/>
	<circle class="st3" cx="7.8" cy="14.9" r="0.4"/>
	<circle class="st3" cx="7.9" cy="12.8" r="0.4"/>
	<circle class="st3" cx="7.2" cy="14" r="0.4"/>
	<circle class="st3" cx="3.8" cy="13.1" r="0.4"/>
	<path class="st2" d="M5,10.6c-0.3,0-0.6,0.3-0.6,0.6c0,0.3,0.3,0.6,0.6,0.6s0.6-0.3,0.6-0.6C5.6,10.8,5.3,10.6,5,10.6z"/>
	<circle class="st3" cx="5.3" cy="9.9" r="0.4"/>
	<circle class="st3" cx="4" cy="10.3" r="0.4"/>
	<path class="st3" d="M12.4,6.8c-0.3,0-0.6,0.3-0.6,0.6c0,0.3,0.3,0.6,0.6,0.6S13,7.7,13,7.4C13,7,12.7,6.8,12.4,6.8z"/>
	<circle class="st3" cx="14.8" cy="9.9" r="0.7"/>
	<circle class="st3" cx="12.2" cy="11" r="0.6"/>
	<path class="st3" d="M10.6,10.9c-0.3,0-0.6,0.3-0.6,0.6c0,0.3,0.3,0.6,0.6,0.6c0.3,0,0.6-0.3,0.6-0.6
		C11.2,11.1,10.9,10.9,10.6,10.9z"/>
	<circle class="st3" cx="3.5" cy="14.4" r="0.6"/>
	<path class="st4" d="M2.5,12.5c-0.3,0-0.6,0.3-0.6,0.6c0,0.3,0.3,0.6,0.6,0.6c0.3,0,0.6-0.3,0.6-0.6C3.1,12.7,2.8,12.5,2.5,12.5z"
		/>
	<path class="st4" d="M8.6,13.2c-0.3,0-0.6,0.3-0.6,0.6c0,0.3,0.3,0.6,0.6,0.6c0.3,0,0.6-0.3,0.6-0.6C9.2,13.4,9,13.2,8.6,13.2z"/>
	<path class="st4" d="M6.1,12.8c-0.3,0-0.5,0.2-0.5,0.5c0,0.3,0.2,0.5,0.5,0.5s0.5-0.2,0.5-0.5C6.6,13.1,6.4,12.8,6.1,12.8z"/>
	<path class="st2" d="M6.1,14.3c-0.5,0-0.9,0.4-0.9,0.9S5.6,16,6.1,16S7,15.6,7,15.2S6.6,14.3,6.1,14.3z"/>
	<circle class="st3" cx="16" cy="5.6" r="0.9"/>
	<path class="st2" d="M17.3,6.7c-0.5,0-0.9,0.4-0.9,0.9s0.4,0.9,0.9,0.9c0.5,0,0.9-0.4,0.9-0.9C18.1,7.1,17.7,6.7,17.3,6.7z"/>
	<path class="st2" d="M8.2,6.8c-0.5,0-0.9,0.4-0.9,0.9s0.4,0.9,0.9,0.9S9,8.1,9,7.6S8.6,6.8,8.2,6.8z"/>
	<circle class="st3" cx="11.3" cy="9.8" r="0.8"/>
	<path class="st3" d="M7.8,10.5c-0.5,0-0.8,0.4-0.8,0.8c0,0.5,0.4,0.8,0.8,0.8c0.5,0,0.8-0.4,0.8-0.8C8.6,10.8,8.3,10.5,7.8,10.5z"
		/>
</g>
</svg>
