<?xml version="1.0" encoding="utf-8"?>
<!-- Generator: Adobe Illustrator 23.0.4, SVG Export Plug-In . SVG Version: 6.00 Build 0)  -->
<svg version="1.1" id="Layer_1" xmlns="http://www.w3.org/2000/svg" xmlns:xlink="http://www.w3.org/1999/xlink" x="0px" y="0px"
	 viewBox="0 0 20 20" style="enable-background:new 0 0 20 20;" xml:space="preserve">
<style type="text/css">
	.st0{fill:#F7941D;}
	.st1{fill:#FFFFFF;}
</style>
<g>
	<circle class="st0" cx="10" cy="10" r="9.9"/>
	<path class="st1" d="M16.1,6.9c-1.4-1.4-3.6-1.4-5,0L10,8L8.9,6.9c-1.4-1.4-3.6-1.4-5,0c-1.4,1.4-1.4,3.6,0,5l3.6,3.6c0,0,0,0,0,0
		c0.7,0.7,1.6,1,2.5,1c0.9,0,1.8-0.3,2.5-1c0,0,0,0,0,0l3.6-3.6C17.4,10.5,17.4,8.2,16.1,6.9z M12.2,14.5c-1,0-1.7-0.8-1.7-1.7
		s0.8-1.7,1.7-1.7s1.7,0.8,1.7,1.7S13.2,14.5,12.2,14.5z"/>
</g>
</svg>
