<?xml version="1.0" encoding="utf-8"?>
<!-- Generator: Adobe Illustrator 27.4.1, SVG Export Plug-In . SVG Version: 6.00 Build 0)  -->
<svg version="1.1" id="Layer_1" xmlns="http://www.w3.org/2000/svg" xmlns:xlink="http://www.w3.org/1999/xlink" x="0px" y="0px"
	 viewBox="0 0 20 20" style="enable-background:new 0 0 20 20;" xml:space="preserve">
<style type="text/css">
	.st0{fill:#5697D1;}
	.st1{fill:none;stroke:#8BC53F;stroke-width:5.729132e-02;stroke-miterlimit:10;}
	.st2{fill:#8BC53F;}
	.st3{fill:none;stroke:#FFC52F;stroke-width:5.729132e-02;stroke-miterlimit:10;}
	.st4{fill:#FFC52F;}
	.st5{fill:#FFFFFF;}
	.st6{fill:none;stroke:#FFFFFF;stroke-width:5.729132e-02;stroke-miterlimit:10;}
	.st7{fill:none;stroke:#F37721;stroke-width:3.952087e-02;stroke-miterlimit:10;}
	.st8{fill:#F37721;}
</style>
<g>
	<path class="st0" d="M18.7,7.5c0-4.1-3.6-7.4-8-7.4s-8,3.3-8,7.4c0,0.4,0.1,0.8,0.1,1.2c0,0.5,0.1,1,0.1,1.2c0,0.8-1.5,2.3-1.5,2.3
		s-0.8,0.8,0,1.3c0.2,0.1,1.5,0.3,1.5,0.3c0.1,0.1,0.2,2.5,0.7,3.1s1.5,0.6,2.3,0.6c0.4,0,0.8,0,1.1-0.1c0.1,0.4,0.5,1.9,0.5,2
		c0,0.2,0.1,0.3,0.2,0.3l6.4-1.1c0.1-0.1,0.2-0.1,0.2-0.3c0-0.2,0.2-1.2,0.9-2.9c0.7-1.7,2.2-3.9,2.2-3.9l0,0
		C18.2,10.4,18.7,9,18.7,7.5z"/>
	<g>
		<g>
			<line class="st1" x1="9.3" y1="1.2" x2="8.6" y2="2.9"/>
			<line class="st1" x1="9.6" y1="1.4" x2="8.3" y2="2.7"/>
			<line class="st1" x1="9.8" y1="1.7" x2="8" y2="2.4"/>
			<line class="st1" x1="9.9" y1="2.1" x2="8" y2="2.1"/>
			<line class="st1" x1="8.3" y1="1.4" x2="9.6" y2="2.7"/>
			<line class="st1" x1="8.6" y1="1.2" x2="9.3" y2="2.9"/>
			<line class="st1" x1="8.9" y1="1.1" x2="8.9" y2="8.3"/>
			<path class="st2" d="M9.8,2.1C9.8,2.1,9.8,2.1,9.8,2.1c0.1,0.1,0.2,0,0.2,0C10,2,9.9,2,9.8,2.1C9.8,1.9,9.8,2,9.8,2.1z"/>
			<path class="st2" d="M7.9,2.1C7.9,2.1,7.9,2.1,7.9,2.1C8,2.1,8,2.1,8,2.1C8,2,8,2,7.9,2.1C7.9,1.9,7.9,2,7.9,2.1z"/>
			<path class="st2" d="M9.7,2.4c0,0.1,0,0.1,0.1,0.1c0.1,0,0.1,0,0.1-0.1c0-0.1,0-0.1-0.1-0.1C9.8,2.3,9.8,2.3,9.7,2.4z"/>
			<path class="st2" d="M8,1.6c0,0.1,0,0.1,0.1,0.1c0.1,0,0.1,0,0.1-0.1c0-0.1,0-0.1-0.1-0.1C8,1.6,8,1.6,8,1.6z"/>
			<path class="st2" d="M9.6,2.7c0,0,0,0.1,0,0.1c0,0,0.1,0,0.1,0s0-0.1,0-0.1C9.6,2.6,9.6,2.6,9.6,2.7z"/>
			<path class="st2" d="M8.2,1.3c0,0,0,0.1,0,0.1c0,0,0.1,0,0.1,0s0-0.1,0-0.1C8.3,1.3,8.2,1.3,8.2,1.3z"/>
			<path class="st2" d="M9.3,2.9C9.2,2.9,9.2,2.9,9.2,3C9.3,3,9.3,3,9.3,3c0.1,0,0.1-0.1,0.1-0.1C9.4,2.9,9.3,2.8,9.3,2.9z"/>
			<path class="st2" d="M8.5,1.1c-0.1,0-0.1,0.1-0.1,0.1c0,0.1,0.1,0.1,0.1,0.1c0.1,0,0.1-0.1,0.1-0.1C8.6,1.1,8.6,1.1,8.5,1.1z"/>
			<path class="st2" d="M8.9,1C8.9,1,8.8,1.1,8.9,1c-0.1,0.1,0,0.2,0,0.2C9,1.2,9,1.1,8.9,1C9,1,9,1,8.9,1z"/>
			<path class="st2" d="M8.6,2.9c-0.1,0-0.1,0-0.1,0.1C8.5,3,8.5,3,8.5,3C8.6,3,8.6,3,8.6,3C8.7,2.9,8.6,2.9,8.6,2.9z"/>
			<path class="st2" d="M9.3,1.1c-0.1,0-0.1,0-0.1,0.1c0,0.1,0,0.1,0.1,0.1c0.1,0,0.1,0,0.1-0.1C9.4,1.1,9.4,1.1,9.3,1.1z"/>
			<path class="st2" d="M8.3,2.7c0,0-0.1,0-0.1,0c0,0,0,0.1,0,0.1c0,0,0.1,0,0.1,0C8.3,2.8,8.3,2.7,8.3,2.7z"/>
			<path class="st2" d="M9.7,1.3c0,0-0.1,0-0.1,0c0,0,0,0.1,0,0.1c0,0,0.1,0,0.1,0C9.7,1.4,9.7,1.3,9.7,1.3z"/>
			<path class="st2" d="M8.1,2.4C8.1,2.3,8,2.3,8,2.3C8,2.4,7.9,2.4,8,2.4C8,2.5,8,2.5,8.1,2.5C8.1,2.5,8.1,2.4,8.1,2.4z"/>
			<path class="st2" d="M9.9,1.6c0-0.1-0.1-0.1-0.1-0.1c-0.1,0-0.1,0.1-0.1,0.1c0,0.1,0.1,0.1,0.1,0.1C9.9,1.7,9.9,1.7,9.9,1.6z"/>
			<line class="st1" x1="9.8" y1="2.4" x2="8" y2="1.7"/>
			<path class="st2" d="M8.7,2.1c0,0.1,0.1,0.2,0.2,0.2c0.1,0,0.2-0.1,0.2-0.2c0-0.1-0.1-0.2-0.2-0.2C8.8,1.9,8.7,1.9,8.7,2.1z"/>
		</g>
		<g>
			<line class="st3" x1="12.9" y1="14.8" x2="13.7" y2="13"/>
			<line class="st3" x1="12.6" y1="14.6" x2="14" y2="13.2"/>
			<line class="st3" x1="12.4" y1="14.3" x2="14.2" y2="13.6"/>
			<line class="st3" x1="12.3" y1="13.9" x2="14.2" y2="13.9"/>
			<line class="st3" x1="14" y1="14.6" x2="12.6" y2="13.2"/>
			<line class="st3" x1="13.7" y1="14.8" x2="12.9" y2="13"/>
			<line class="st3" x1="13.3" y1="14.9" x2="13.3" y2="11"/>
			<path class="st4" d="M12.4,13.9C12.4,13.9,12.4,13.8,12.4,13.9c-0.1-0.1-0.2,0-0.2,0S12.3,14,12.4,13.9
				C12.4,14,12.4,14,12.4,13.9z"/>
			<path class="st4" d="M14.3,13.9C14.3,13.9,14.3,13.8,14.3,13.9c-0.1-0.1-0.2,0-0.2,0C14.2,14,14.2,14,14.3,13.9
				C14.3,14,14.3,14,14.3,13.9z"/>
			<path class="st4" d="M12.5,13.6c0-0.1,0-0.1-0.1-0.1c-0.1,0-0.1,0-0.1,0.1c0,0.1,0,0.1,0.1,0.1C12.4,13.7,12.5,13.6,12.5,13.6z"
				/>
			<path class="st4" d="M14.3,14.3c0-0.1,0-0.1-0.1-0.1c-0.1,0-0.1,0-0.1,0.1c0,0.1,0,0.1,0.1,0.1C14.2,14.4,14.2,14.4,14.3,14.3z"
				/>
			<path class="st4" d="M12.7,13.3c0,0,0-0.1,0-0.1s-0.1,0-0.1,0s0,0.1,0,0.1C12.6,13.3,12.7,13.3,12.7,13.3z"/>
			<path class="st4" d="M14,14.6c0,0,0-0.1,0-0.1c0,0-0.1,0-0.1,0s0,0.1,0,0.1C13.9,14.7,14,14.7,14,14.6z"/>
			<path class="st4" d="M13,13.1C13,13.1,13,13,13,13c0-0.1-0.1-0.1-0.1-0.1c-0.1,0-0.1,0.1-0.1,0.1C12.9,13.1,12.9,13.1,13,13.1z"
				/>
			<path class="st4" d="M13.7,14.9c0.1,0,0.1-0.1,0.1-0.1c0-0.1-0.1-0.1-0.1-0.1c-0.1,0-0.1,0.1-0.1,0.1
				C13.6,14.9,13.7,14.9,13.7,14.9z"/>
			<path class="st4" d="M13.3,15C13.4,15,13.4,14.9,13.3,15c0.1-0.1,0-0.2,0-0.2C13.3,14.8,13.2,14.9,13.3,15
				C13.2,14.9,13.3,15,13.3,15z"/>
			<path class="st4" d="M13.6,13.1c0.1,0,0.1,0,0.1-0.1c0-0.1,0-0.1-0.1-0.1c-0.1,0-0.1,0-0.1,0.1C13.6,13.1,13.6,13.1,13.6,13.1z"
				/>
			<path class="st4" d="M12.9,14.9c0.1,0,0.1,0,0.1-0.1c0-0.1,0-0.1-0.1-0.1c-0.1,0-0.1,0-0.1,0.1C12.8,14.8,12.9,14.9,12.9,14.9z"
				/>
			<path class="st4" d="M13.9,13.3c0,0,0.1,0,0.1,0s0-0.1,0-0.1s-0.1,0-0.1,0C13.9,13.2,13.9,13.3,13.9,13.3z"/>
			<path class="st4" d="M12.5,14.6c0,0,0.1,0,0.1,0c0,0,0-0.1,0-0.1s-0.1,0-0.1,0C12.5,14.6,12.5,14.6,12.5,14.6z"/>
			<path class="st4" d="M14.1,13.6c0,0.1,0.1,0.1,0.1,0.1c0.1,0,0.1-0.1,0.1-0.1c0-0.1-0.1-0.1-0.1-0.1
				C14.1,13.5,14.1,13.5,14.1,13.6z"/>
			<path class="st4" d="M12.3,14.3c0,0.1,0.1,0.1,0.1,0.1c0.1,0,0.1-0.1,0.1-0.1c0-0.1-0.1-0.1-0.1-0.1
				C12.3,14.2,12.3,14.3,12.3,14.3z"/>
			<line class="st3" x1="12.4" y1="13.6" x2="14.2" y2="14.3"/>
			<path class="st4" d="M13.5,13.9c0-0.1-0.1-0.2-0.2-0.2c-0.1,0-0.2,0.1-0.2,0.2c0,0.1,0.1,0.2,0.2,0.2
				C13.4,14.1,13.5,14,13.5,13.9z"/>
		</g>
		<path class="st5" d="M9.8,3.4C10,3.5,10.1,3.7,10,3.9C9.9,4,9.8,4.1,9.6,4C9.5,4,9.4,3.8,9.4,3.6C9.5,3.5,9.7,3.4,9.8,3.4z"/>
		<path class="st5" d="M9.5,4.6c0.2,0,0.3,0.2,0.3,0.3c0,0.2-0.2,0.3-0.3,0.3C9.3,5.2,9.2,5,9.2,4.9C9.2,4.7,9.3,4.6,9.5,4.6z"/>
		<path class="st5" d="M9.6,5.7c0.2-0.1,0.4,0,0.4,0.2c0.1,0.2,0,0.4-0.2,0.4c-0.2,0.1-0.4,0-0.4-0.2C9.4,6,9.4,5.8,9.6,5.7z"/>
		<line class="st6" x1="12.4" y1="7.8" x2="12.4" y2="1.9"/>
		<line class="st6" x1="15.4" y1="4.9" x2="9.5" y2="4.9"/>
		<line class="st6" x1="13.6" y1="7.6" x2="11.3" y2="2.1"/>
		<line class="st6" x1="15.2" y1="3.7" x2="9.7" y2="6"/>
		<line class="st6" x1="15.9" y1="8.4" x2="10.3" y2="2.8"/>
		<line class="st6" x1="14.6" y1="2.8" x2="8.9" y2="8.4"/>
		<line class="st6" x1="15.2" y1="6" x2="9.7" y2="3.7"/>
		<line class="st6" x1="13.6" y1="2.1" x2="11.3" y2="7.6"/>
		<path class="st5" d="M12.8,1.9c0,0.2-0.2,0.3-0.3,0.3c-0.2,0-0.3-0.2-0.3-0.3c0-0.2,0.2-0.3,0.3-0.3C12.6,1.6,12.8,1.7,12.8,1.9z"
			/>
		<path class="st5" d="M12.8,7.8c0,0.2-0.2,0.3-0.3,0.3c-0.2,0-0.3-0.2-0.3-0.3c0-0.2,0.2-0.3,0.3-0.3C12.6,7.5,12.8,7.7,12.8,7.8z"
			/>
		<path class="st5" d="M11.6,2c0.1,0.2,0,0.4-0.2,0.4c-0.2,0.1-0.4,0-0.4-0.2c-0.1-0.2,0-0.4,0.2-0.4C11.4,1.8,11.5,1.8,11.6,2z"/>
		<path class="st5" d="M13.9,7.5c0.1,0.2,0,0.4-0.2,0.4c-0.2,0.1-0.4,0-0.4-0.2c-0.1-0.2,0-0.4,0.2-0.4C13.6,7.3,13.8,7.3,13.9,7.5z
			"/>
		<path class="st5" d="M10.6,2.6c0.1,0.1,0.1,0.3,0,0.4c-0.1,0.1-0.3,0.1-0.4,0c-0.1-0.1-0.1-0.3,0-0.4C10.2,2.4,10.4,2.4,10.6,2.6z
			"/>
		<path class="st5" d="M15.3,5.7c0.2,0.1,0.2,0.3,0.2,0.4c-0.1,0.2-0.3,0.2-0.4,0.2c-0.2-0.1-0.2-0.3-0.2-0.4
			C15,5.7,15.1,5.7,15.3,5.7z"/>
		<path class="st5" d="M15.4,4.6c0.2,0,0.3,0.2,0.3,0.3c0,0.2-0.2,0.3-0.3,0.3c-0.2,0-0.3-0.2-0.3-0.3C15.1,4.7,15.2,4.6,15.4,4.6z"
			/>
		<path class="st5" d="M15.1,3.4c0.2-0.1,0.4,0,0.4,0.2c0.1,0.2,0,0.4-0.2,0.4c-0.2,0.1-0.4,0-0.4-0.2C14.8,3.7,14.9,3.5,15.1,3.4z"
			/>
		<path class="st5" d="M14.3,2.6c0.1-0.1,0.3-0.1,0.4,0c0.1,0.1,0.1,0.3,0,0.4c-0.1,0.1-0.3,0.1-0.4,0C14.2,2.9,14.2,2.7,14.3,2.6z"
			/>
		<path class="st5" d="M11,7.5c0.1-0.2,0.3-0.2,0.4-0.2c0.2,0.1,0.2,0.3,0.2,0.4c-0.1,0.2-0.3,0.2-0.4,0.2C11,7.8,11,7.7,11,7.5z"/>
		<path class="st5" d="M13.3,2c0.1-0.2,0.3-0.2,0.4-0.2c0.2,0.1,0.2,0.3,0.2,0.4c-0.1,0.2-0.3,0.2-0.4,0.2C13.3,2.4,13.2,2.2,13.3,2
			z"/>
		<circle class="st5" cx="12.4" cy="4.9" r="0.5"/>
		<g>
			<line class="st7" x1="8.4" y1="9.6" x2="9.4" y2="7.2"/>
			<line class="st7" x1="8.9" y1="9.7" x2="8.9" y2="8.3"/>
			<line class="st7" x1="9.4" y1="9.6" x2="8.4" y2="7.2"/>
			<line class="st7" x1="9.9" y1="9.3" x2="6.3" y2="5.7"/>
			<line class="st7" x1="7.6" y1="8.4" x2="10.2" y2="8.4"/>
			<line class="st7" x1="7.7" y1="8.9" x2="10.1" y2="7.9"/>
			<line class="st7" x1="6.9" y1="10.4" x2="8.9" y2="8.4"/>
			<path class="st8" d="M9.8,9.2c0.1-0.1,0.1-0.1,0.2,0c0.1,0.1,0.1,0.1,0,0.2c-0.1,0.1-0.1,0.1-0.2,0C9.7,9.4,9.7,9.3,9.8,9.2z"/>
			<path class="st8" d="M10,8.8c0-0.1,0.1-0.1,0.2-0.1c0.1,0,0.1,0.1,0.1,0.2C10.2,9,10.2,9,10.1,9C10,9,10,8.9,10,8.8z"/>
			<path class="st8" d="M7.6,7.9c0-0.1,0.1-0.1,0.2-0.1c0.1,0,0.1,0.1,0.1,0.2C7.8,8,7.7,8,7.7,8C7.6,8,7.6,7.9,7.6,7.9z"/>
			<path class="st8" d="M10.1,8.4c0-0.1,0.1-0.1,0.1-0.1c0.1,0,0.1,0.1,0.1,0.1c0,0.1-0.1,0.1-0.1,0.1C10.2,8.5,10.1,8.5,10.1,8.4z"
				/>
			<path class="st8" d="M7.5,8.4c0-0.1,0.1-0.1,0.1-0.1c0.1,0,0.1,0.1,0.1,0.1c0,0.1-0.1,0.1-0.1,0.1S7.5,8.5,7.5,8.4z"/>
			<path class="st8" d="M10,7.9c0-0.1,0-0.1,0.1-0.2c0.1,0,0.1,0,0.2,0.1c0,0.1,0,0.1-0.1,0.2C10.1,8,10.1,8,10,7.9z"/>
			<path class="st8" d="M7.6,8.9c0-0.1,0-0.1,0.1-0.2c0.1,0,0.1,0,0.2,0.1c0,0.1,0,0.1-0.1,0.2C7.7,9,7.6,9,7.6,8.9z"/>
			<path class="st8" d="M9.4,7.3c-0.1,0-0.1-0.1-0.1-0.2c0-0.1,0.1-0.1,0.2-0.1c0.1,0,0.1,0.1,0.1,0.2C9.5,7.3,9.5,7.3,9.4,7.3z"/>
			<path class="st8" d="M8.4,9.7c-0.1,0-0.1-0.1-0.1-0.2c0-0.1,0.1-0.1,0.2-0.1c0.1,0,0.1,0.1,0.1,0.2C8.5,9.7,8.4,9.7,8.4,9.7z"/>
			<path class="st8" d="M8.9,9.8c-0.1,0-0.1-0.1-0.1-0.1c0-0.1,0.1-0.1,0.1-0.1c0.1,0,0.1,0.1,0.1,0.1C9.1,9.8,9,9.8,8.9,9.8z"/>
			<path class="st8" d="M8.5,7.3c-0.1,0-0.1,0-0.2-0.1c0-0.1,0-0.1,0.1-0.2c0.1,0,0.1,0,0.2,0.1C8.6,7.2,8.5,7.3,8.5,7.3z"/>
			<path class="st8" d="M9.5,9.7c-0.1,0-0.1,0-0.2-0.1c0-0.1,0-0.1,0.1-0.2c0.1,0,0.1,0,0.2,0.1C9.6,9.6,9.5,9.7,9.5,9.7z"/>
			<line class="st7" x1="10.1" y1="8.9" x2="7.7" y2="7.9"/>
			<path class="st8" d="M8.7,8.2c0.1-0.1,0.3-0.1,0.4,0c0.1,0.1,0.1,0.3,0,0.4C9,8.7,8.8,8.7,8.7,8.6C8.7,8.5,8.7,8.3,8.7,8.2z"/>
		</g>
		<g>
			<line class="st1" x1="16.7" y1="10.1" x2="15.2" y2="6.6"/>
			<line class="st1" x1="15.9" y1="10.2" x2="15.9" y2="6.5"/>
			<line class="st1" x1="15.2" y1="10.1" x2="16.7" y2="6.6"/>
			<line class="st1" x1="13.5" y1="10.8" x2="17.3" y2="7"/>
			<line class="st1" x1="17.8" y1="8.3" x2="14" y2="8.3"/>
			<line class="st1" x1="17.7" y1="9.1" x2="14.2" y2="7.6"/>
			<line class="st1" x1="17.3" y1="9.7" x2="15.9" y2="8.4"/>
			<path class="st2" d="M17.4,6.9c-0.1-0.1-0.2-0.1-0.3,0s-0.1,0.2,0,0.3s0.2,0.1,0.3,0C17.4,7.1,17.4,6.9,17.4,6.9z"/>
			<path class="st2" d="M14.3,9c0-0.1-0.1-0.1-0.2-0.1C14,8.9,14,9,14,9.1c0,0.1,0.1,0.1,0.2,0.1C14.3,9.2,14.4,9.1,14.3,9z"/>
			<path class="st2" d="M17.8,7.6c0-0.1-0.1-0.1-0.2-0.1c-0.1,0-0.1,0.1-0.1,0.2c0,0.1,0.1,0.1,0.2,0.1S17.9,7.7,17.8,7.6z"/>
			<path class="st2" d="M14.2,8.3c0-0.1-0.1-0.2-0.2-0.2c-0.1,0-0.2,0.1-0.2,0.2c0,0.1,0.1,0.2,0.2,0.2C14.1,8.5,14.2,8.4,14.2,8.3z
				"/>
			<path class="st2" d="M18,8.3c0-0.1-0.1-0.2-0.2-0.2c-0.1,0-0.2,0.1-0.2,0.2c0,0.1,0.1,0.2,0.2,0.2S18,8.4,18,8.3z"/>
			<path class="st2" d="M14.3,7.7c0-0.1,0-0.2-0.1-0.2c-0.1,0-0.2,0-0.2,0.1c0,0.1,0,0.2,0.1,0.2C14.2,7.8,14.3,7.8,14.3,7.7z"/>
			<path class="st2" d="M17.8,9.1c0-0.1,0-0.2-0.1-0.2c-0.1,0-0.2,0-0.2,0.1c0,0.1,0,0.2,0.1,0.2C17.7,9.3,17.8,9.2,17.8,9.1z"/>
			<path class="st2" d="M17.4,9.8c0.1-0.1,0.1-0.2,0-0.3c-0.1-0.1-0.2-0.1-0.3,0c-0.1,0.1-0.1,0.2,0,0.3C17.2,9.9,17.3,9.9,17.4,9.8
				z"/>
			<path class="st2" d="M15.3,6.8c0.1,0,0.1-0.1,0.1-0.2c-0.1-0.1-0.2-0.1-0.2-0.1c-0.1,0-0.1,0.1-0.1,0.2
				C15.1,6.7,15.2,6.8,15.3,6.8z"/>
			<path class="st2" d="M16.7,10.3c0.1,0,0.1-0.1,0.1-0.2c0-0.1-0.1-0.1-0.2-0.1c-0.1,0.1-0.1,0.2-0.1,0.2
				C16.5,10.3,16.6,10.3,16.7,10.3z"/>
			<path class="st2" d="M15.9,6.6c0.1,0,0.2-0.1,0.2-0.2c0-0.1-0.1-0.2-0.2-0.2c-0.1,0-0.2,0.1-0.2,0.2C15.7,6.5,15.8,6.6,15.9,6.6z
				"/>
			<path class="st2" d="M15.9,10.4c0.1,0,0.2-0.1,0.2-0.2c0-0.1-0.1-0.2-0.2-0.2c-0.1,0-0.2,0.1-0.2,0.2
				C15.7,10.3,15.8,10.4,15.9,10.4z"/>
			<path class="st2" d="M16.6,6.8c0.1,0,0.2,0,0.2-0.1c0-0.1,0-0.2-0.1-0.2c-0.1,0-0.2,0-0.2,0.1C16.5,6.6,16.5,6.7,16.6,6.8z"/>
			<path class="st2" d="M15.1,10.3c0.1,0,0.2,0,0.2-0.1c0-0.1,0-0.2-0.1-0.2c-0.1,0-0.2,0-0.2,0.1C15,10.1,15,10.2,15.1,10.3z"/>
			<line class="st1" x1="14.2" y1="9.1" x2="17.7" y2="7.6"/>
			<path class="st2" d="M16.2,8.1C16,8,15.8,8,15.7,8.1c-0.1,0.1-0.1,0.4,0,0.5c0.1,0.1,0.4,0.1,0.5,0C16.3,8.5,16.3,8.2,16.2,8.1z"
				/>
		</g>
		<g>
			<line class="st6" x1="11.9" y1="11.5" x2="14.7" y2="10.4"/>
			<line class="st6" x1="11.8" y1="11" x2="14.8" y2="11"/>
			<line class="st6" x1="11.9" y1="10.4" x2="14.7" y2="11.5"/>
			<line class="st6" x1="12.2" y1="9.9" x2="14.4" y2="12"/>
			<line class="st6" x1="13.3" y1="11.2" x2="13.3" y2="9.5"/>
			<line class="st6" x1="12.7" y1="12.4" x2="13.9" y2="9.6"/>
			<line class="st6" x1="12.2" y1="12" x2="13.3" y2="11"/>
			<path class="st5" d="M12.3,10c0.1-0.1,0.1-0.2,0-0.2c-0.1-0.1-0.2-0.1-0.2,0c-0.1,0.1-0.1,0.2,0,0.2C12.2,10,12.3,10,12.3,10z"/>
			<path class="st5" d="M14.5,12.1c0.1-0.1,0.1-0.2,0-0.2c-0.1-0.1-0.2-0.1-0.2,0c-0.1,0.1-0.1,0.2,0,0.2S14.4,12.2,14.5,12.1z"/>
			<path class="st5" d="M12.8,9.7c0.1,0,0.1-0.1,0.1-0.2c0-0.1-0.1-0.1-0.2-0.1c-0.1,0-0.1,0.1-0.1,0.2C12.6,9.7,12.7,9.7,12.8,9.7z
				"/>
			<path class="st5" d="M13.9,12.5c0.1,0,0.1-0.1,0.1-0.2c0-0.1-0.1-0.1-0.2-0.1c-0.1,0-0.1,0.1-0.1,0.2
				C13.8,12.5,13.9,12.5,13.9,12.5z"/>
			<path class="st5" d="M13.3,9.6c0.1,0,0.1-0.1,0.1-0.1c0-0.1-0.1-0.1-0.1-0.1c-0.1,0-0.1,0.1-0.1,0.1C13.2,9.5,13.2,9.6,13.3,9.6z
				"/>
			<path class="st5" d="M13.8,9.7c0.1,0,0.2,0,0.2-0.1c0-0.1,0-0.2-0.1-0.2c-0.1,0-0.2,0-0.2,0.1C13.7,9.6,13.8,9.7,13.8,9.7z"/>
			<path class="st5" d="M12.7,12.5c0.1,0,0.2,0,0.2-0.1c0-0.1,0-0.2-0.1-0.2c-0.1,0-0.2,0-0.2,0.1C12.6,12.4,12.6,12.5,12.7,12.5z"
				/>
			<path class="st5" d="M12.1,12.1c0.1,0.1,0.2,0.1,0.2,0c0.1-0.1,0.1-0.2,0-0.2c-0.1-0.1-0.2-0.1-0.2,0
				C12.1,12,12.1,12.1,12.1,12.1z"/>
			<path class="st5" d="M14.6,10.4c0,0.1,0.1,0.1,0.2,0.1c0.1,0,0.1-0.1,0.1-0.2c0-0.1-0.1-0.1-0.2-0.1
				C14.6,10.3,14.6,10.4,14.6,10.4z"/>
			<path class="st5" d="M11.8,11.6c0,0.1,0.1,0.1,0.2,0.1c0.1,0,0.1-0.1,0.1-0.2c0-0.1-0.1-0.1-0.2-0.1
				C11.8,11.5,11.7,11.5,11.8,11.6z"/>
			<path class="st5" d="M14.7,11c0,0.1,0.1,0.1,0.1,0.1c0.1,0,0.1-0.1,0.1-0.1s-0.1-0.1-0.1-0.1C14.7,10.8,14.7,10.9,14.7,11z"/>
			<path class="st5" d="M11.6,11c0,0.1,0.1,0.1,0.1,0.1c0.1,0,0.1-0.1,0.1-0.1s-0.1-0.1-0.1-0.1C11.7,10.8,11.6,10.9,11.6,11z"/>
			<path class="st5" d="M14.6,11.5c0,0.1,0,0.2,0.1,0.2c0.1,0,0.2,0,0.2-0.1c0-0.1,0-0.2-0.1-0.2C14.7,11.4,14.6,11.4,14.6,11.5z"/>
			<path class="st5" d="M11.8,10.3c0,0.1,0,0.2,0.1,0.2c0.1,0,0.2,0,0.2-0.1c0-0.1,0-0.2-0.1-0.2C11.9,10.2,11.8,10.3,11.8,10.3z"/>
			<line class="st6" x1="12.7" y1="9.6" x2="13.9" y2="12.4"/>
			<path class="st5" d="M13.5,11.2c0.1-0.1,0.1-0.3,0-0.4c-0.1-0.1-0.3-0.1-0.4,0c-0.1,0.1-0.1,0.3,0,0.4
				C13.2,11.3,13.4,11.3,13.5,11.2z"/>
		</g>
		<g>
			<line class="st1" x1="6.2" y1="10.6" x2="8" y2="9.9"/>
			<line class="st1" x1="6.1" y1="10.3" x2="8" y2="10.3"/>
			<line class="st1" x1="6.2" y1="9.9" x2="8" y2="10.6"/>
			<line class="st1" x1="6.4" y1="9.6" x2="7.8" y2="10.9"/>
			<line class="st1" x1="7.1" y1="11.2" x2="7.1" y2="9.3"/>
			<line class="st1" x1="6.7" y1="11.2" x2="7.4" y2="9.4"/>
			<line class="st1" x1="6.4" y1="10.9" x2="7.1" y2="10.3"/>
			<path class="st2" d="M6.4,9.6c0,0,0-0.1,0-0.1c0,0-0.1,0-0.1,0c0,0,0,0.1,0,0.1C6.4,9.7,6.4,9.7,6.4,9.6z"/>
			<path class="st2" d="M7.8,11c0,0,0-0.1,0-0.1c0,0-0.1,0-0.1,0c0,0,0,0.1,0,0.1C7.7,11,7.8,11,7.8,11z"/>
			<path class="st2" d="M6.7,9.5c0.1,0,0.1-0.1,0.1-0.1c0-0.1-0.1-0.1-0.1-0.1c-0.1,0-0.1,0.1-0.1,0.1C6.6,9.5,6.7,9.5,6.7,9.5z"/>
			<path class="st2" d="M7.5,11.2c0.1,0,0.1-0.1,0.1-0.1c0-0.1-0.1-0.1-0.1-0.1c-0.1,0-0.1,0.1-0.1,0.1C7.4,11.2,7.4,11.3,7.5,11.2z
				"/>
			<path class="st2" d="M7.1,9.4C7.1,9.4,7.1,9.3,7.1,9.4c0.1-0.1,0-0.2,0-0.2C7,9.2,7,9.3,7.1,9.4C7,9.4,7,9.4,7.1,9.4z"/>
			<path class="st2" d="M7.1,11.3C7.1,11.3,7.1,11.3,7.1,11.3c0.1-0.1,0-0.2,0-0.2C7,11.2,7,11.2,7.1,11.3C7,11.3,7,11.3,7.1,11.3z"
				/>
			<path class="st2" d="M7.4,9.5c0.1,0,0.1,0,0.1-0.1c0-0.1,0-0.1-0.1-0.1c-0.1,0-0.1,0-0.1,0.1C7.3,9.4,7.4,9.4,7.4,9.5z"/>
			<path class="st2" d="M6.7,11.2c0.1,0,0.1,0,0.1-0.1c0-0.1,0-0.1-0.1-0.1c-0.1,0-0.1,0-0.1,0.1C6.6,11.2,6.6,11.2,6.7,11.2z"/>
			<path class="st2" d="M6.3,11c0,0,0.1,0,0.1,0c0,0,0-0.1,0-0.1c0,0-0.1,0-0.1,0C6.3,10.9,6.3,11,6.3,11z"/>
			<path class="st2" d="M7.9,9.9C7.9,10,8,10,8,10C8,10,8.1,9.9,8,9.9C8,9.8,8,9.8,7.9,9.8C7.9,9.8,7.9,9.9,7.9,9.9z"/>
			<path class="st2" d="M6.1,10.7c0,0.1,0.1,0.1,0.1,0.1c0.1,0,0.1-0.1,0.1-0.1c0-0.1-0.1-0.1-0.1-0.1C6.1,10.6,6.1,10.6,6.1,10.7z"
				/>
			<path class="st2" d="M7.9,10.3C7.9,10.3,8,10.3,7.9,10.3c0.1,0.1,0.2,0,0.2,0C8.1,10.2,8,10.2,7.9,10.3C8,10.2,7.9,10.2,7.9,10.3
				z"/>
			<path class="st2" d="M6,10.3C6,10.3,6.1,10.3,6,10.3c0.1,0.1,0.2,0,0.2,0C6.2,10.2,6.1,10.2,6,10.3C6.1,10.2,6,10.2,6,10.3z"/>
			<path class="st2" d="M7.9,10.6c0,0.1,0,0.1,0.1,0.1c0.1,0,0.1,0,0.1-0.1c0-0.1,0-0.1-0.1-0.1C7.9,10.5,7.9,10.5,7.9,10.6z"/>
			<path class="st2" d="M6.1,9.9c0,0.1,0,0.1,0.1,0.1c0.1,0,0.1,0,0.1-0.1c0-0.1,0-0.1-0.1-0.1C6.2,9.8,6.1,9.8,6.1,9.9z"/>
			<line class="st1" x1="6.7" y1="9.4" x2="7.4" y2="11.2"/>
			<path class="st2" d="M7.2,10.4c0.1-0.1,0.1-0.2,0-0.3c-0.1-0.1-0.2-0.1-0.3,0c-0.1,0.1-0.1,0.2,0,0.3C7,10.5,7.1,10.5,7.2,10.4z"
				/>
		</g>
		<g>
			<line class="st3" x1="5.2" y1="3.4" x2="7" y2="7.7"/>
			<line class="st3" x1="6.1" y1="3.3" x2="6.1" y2="7.9"/>
			<line class="st3" x1="7" y1="3.4" x2="5.2" y2="7.7"/>
			<line class="st3" x1="7.8" y1="3.9" x2="4.5" y2="7.2"/>
			<line class="st3" x1="3.8" y1="5.6" x2="8.4" y2="5.6"/>
			<line class="st3" x1="4" y1="4.7" x2="8.3" y2="6.5"/>
			<line class="st3" x1="4.5" y1="3.9" x2="6.1" y2="5.6"/>
			<path class="st4" d="M7.6,4.1c0.1,0.1,0.2,0.1,0.3,0C8,4,8,3.9,7.9,3.8c-0.1-0.1-0.2-0.1-0.3,0C7.5,3.9,7.5,4,7.6,4.1z"/>
			<path class="st4" d="M4.3,7.3c0.1,0.1,0.2,0.1,0.3,0c0.1-0.1,0.1-0.2,0-0.3C4.6,7,4.4,7,4.3,7C4.3,7.1,4.3,7.3,4.3,7.3z"/>
			<path class="st4" d="M8.1,4.8c0.1,0.1,0.2,0.2,0.3,0.1c0.1-0.1,0.2-0.2,0.1-0.3C8.4,4.5,8.3,4.4,8.2,4.5C8.1,4.5,8,4.7,8.1,4.8z"
				/>
			<path class="st4" d="M3.8,6.5C3.9,6.6,4,6.7,4.1,6.6c0.1-0.1,0.2-0.2,0.1-0.3S4,6.2,3.9,6.3C3.8,6.3,3.8,6.4,3.8,6.5z"/>
			<path class="st4" d="M8.2,5.6c0,0.1,0.1,0.2,0.2,0.2c0.1,0,0.2-0.1,0.2-0.2c0-0.1-0.1-0.2-0.2-0.2C8.3,5.4,8.2,5.4,8.2,5.6z"/>
			<path class="st4" d="M3.6,5.6c0,0.1,0.1,0.2,0.2,0.2C3.9,5.8,4,5.7,4,5.6c0-0.1-0.1-0.2-0.2-0.2C3.7,5.4,3.6,5.4,3.6,5.6z"/>
			<path class="st4" d="M8.1,6.4C8,6.5,8.1,6.6,8.2,6.7c0.1,0.1,0.2,0,0.3-0.1c0.1-0.1,0-0.2-0.1-0.3C8.2,6.2,8.1,6.3,8.1,6.4z"/>
			<path class="st4" d="M3.8,4.6c-0.1,0.1,0,0.2,0.1,0.3c0.1,0.1,0.2,0,0.3-0.1c0.1-0.1,0-0.2-0.1-0.3C4,4.5,3.8,4.5,3.8,4.6z"/>
			<path class="st4" d="M4.3,3.8C4.3,3.9,4.3,4,4.3,4.1c0.1,0.1,0.2,0.1,0.3,0c0.1-0.1,0.1-0.2,0-0.3C4.6,3.7,4.4,3.7,4.3,3.8z"/>
			<path class="st4" d="M6.9,7.5C6.8,7.6,6.8,7.7,6.8,7.8C6.9,7.9,7,8,7.1,7.9s0.2-0.2,0.1-0.3C7.1,7.5,7,7.5,6.9,7.5z"/>
			<path class="st4" d="M5.1,3.2C5,3.3,5,3.4,5,3.5s0.2,0.2,0.3,0.1c0.1-0.1,0.2-0.2,0.1-0.3C5.4,3.2,5.3,3.2,5.1,3.2z"/>
			<path class="st4" d="M6.1,7.7C6,7.7,5.9,7.8,5.9,7.9C5.9,8,6,8.1,6.1,8.1c0.1,0,0.2-0.1,0.2-0.2C6.3,7.8,6.2,7.7,6.1,7.7z"/>
			<path class="st4" d="M6.1,3C6,3,5.9,3.1,5.9,3.2c0,0.1,0.1,0.2,0.2,0.2c0.1,0,0.2-0.1,0.2-0.2C6.3,3.1,6.2,3,6.1,3z"/>
			<path class="st4" d="M5.3,7.5C5.2,7.5,5.1,7.5,5,7.6s0,0.2,0.1,0.3s0.2,0,0.3-0.1C5.5,7.7,5.4,7.6,5.3,7.5z"/>
			<path class="st4" d="M7.1,3.2C7,3.2,6.9,3.2,6.8,3.3c-0.1,0.1,0,0.2,0.1,0.3c0.1,0.1,0.2,0,0.3-0.1C7.3,3.4,7.2,3.3,7.1,3.2z"/>
			<line class="st3" x1="8.3" y1="4.7" x2="4" y2="6.5"/>
			<path class="st4" d="M5.8,5.9c0.2,0.2,0.5,0.2,0.6,0c0.2-0.2,0.2-0.5,0-0.6C6.2,5.1,6,5.1,5.8,5.3C5.7,5.4,5.7,5.7,5.8,5.9z"/>
		</g>
	</g>
</g>
</svg>
