<?xml version="1.0" encoding="utf-8"?>
<!-- Generator: Adobe Illustrator 27.4.1, SVG Export Plug-In . SVG Version: 6.00 Build 0)  -->
<svg version="1.1" id="Layer_1" xmlns="http://www.w3.org/2000/svg" xmlns:xlink="http://www.w3.org/1999/xlink" x="0px" y="0px"
	 viewBox="0 0 20 20" style="enable-background:new 0 0 20 20;" xml:space="preserve">
<style type="text/css">
	.st0{fill:none;stroke:#F28CB9;stroke-width:0.75;stroke-miterlimit:10;}
	.st1{fill:none;stroke:#FFCA05;stroke-width:0.75;stroke-miterlimit:10;}
	.st2{fill:none;stroke:#F28CB9;stroke-width:0.75;stroke-linejoin:round;stroke-miterlimit:10;}
	.st3{fill:none;stroke:#F28CB9;stroke-width:0.75;stroke-linecap:round;stroke-miterlimit:10;}
	.st4{fill:none;stroke:#FFCA05;stroke-width:0.75;stroke-linejoin:round;stroke-miterlimit:10;}
</style>
<g>
	<path class="st0" d="M19.1,7.6c-1-4.1-4.7-7.1-9.1-7.1s-8.1,3-9.1,7.1"/>
	<path class="st1" d="M19.4,10c0-0.8-0.1-1.6-0.3-2.3C18,8.2,17,9,16.3,9.9l0,0"/>
	<path class="st2" d="M6.5,10c0-1.2,0.6-2.2,1.5-2.9C6.2,7.5,4.7,8.6,3.7,10l0,0"/>
	<path class="st3" d="M12,7.1c-0.6-0.2-1.3-0.3-2.1-0.3c-0.7,0-1.4,0.1-2,0.3"/>
	<path class="st1" d="M0.9,12.3c1,4.1,4.7,7.1,9.1,7.1s8.1-3,9.1-7.1"/>
	<path class="st0" d="M0.6,10L0.6,10c0,0.8,0.1,1.6,0.3,2.3C2,11.7,2.9,10.9,3.7,10l0,0l0,0"/>
	<path class="st4" d="M3.7,10L3.7,10L3.7,10c1.1,1.4,2.6,2.4,4.3,2.9C7,12.2,6.5,11.2,6.5,10l0,0"/>
	<path class="st4" d="M13.5,10L13.5,10c0,1.2-0.6,2.2-1.5,2.9c1.7-0.4,3.2-1.5,4.3-2.9l0,0l0,0"/>
	<path class="st1" d="M7.9,12.8c0.6,0.2,1.3,0.3,2,0.3c0.7,0,1.4-0.1,2.1-0.3"/>
	<line class="st0" x1="10" y1="6.8" x2="10" y2="8.5"/>
	<line class="st1" x1="10" y1="11.4" x2="10" y2="13.1"/>
	<path class="st1" d="M11.5,10c0,0.8-0.7,1.5-1.5,1.5S8.5,10.8,8.5,10"/>
	<path class="st0" d="M8.5,10c0-0.8,0.7-1.5,1.5-1.5s1.5,0.7,1.5,1.5"/>
	<path class="st1" d="M3.7,10C3.7,9.9,3.7,9.9,3.7,10C2.9,9,2,8.2,0.9,7.6C0.7,8.4,0.6,9.2,0.6,10"/>
	<path class="st0" d="M16.3,10L16.3,10L16.3,10c0.7,1,1.7,1.8,2.8,2.3c0.2-0.8,0.3-1.5,0.3-2.3l0,0"/>
	<path class="st2" d="M16.3,10C16.3,9.9,16.3,9.9,16.3,10c-1.1-1.4-2.6-2.4-4.3-2.9c0.9,0.7,1.5,1.7,1.5,2.9"/>
</g>
</svg>
