<?xml version="1.0" encoding="utf-8"?>
<!-- Generator: Adobe Illustrator 23.0.4, SVG Export Plug-In . SVG Version: 6.00 Build 0)  -->
<svg version="1.1" id="Layer_1" xmlns="http://www.w3.org/2000/svg" xmlns:xlink="http://www.w3.org/1999/xlink" x="0px" y="0px"
	 viewBox="0 0 20 20" style="enable-background:new 0 0 20 20;" xml:space="preserve">
<style type="text/css">
	.st0{fill:#EEEDF6;stroke:#D4D9EE;stroke-width:0.5703;stroke-miterlimit:10;}
	.st1{fill:#D4D9EE;stroke:#D4D9EE;stroke-width:0.5703;stroke-miterlimit:10;}
	.st2{fill:#ACB9DF;}
	.st3{fill:#8298CD;}
	.st4{fill:none;stroke:#ACB9DF;stroke-width:0.2044;stroke-miterlimit:10;}
	.st5{fill:none;stroke:#8298CD;stroke-width:0.1789;stroke-miterlimit:10;}
</style>
<g>
	<g>
		<path class="st0" d="M19.6,10.8c0.5-5.3-3.4-10-8.7-10.5S0.9,3.8,0.5,9.1c0,0.5-0.1,0.9,0,1.4c1.4-0.6,2.9-0.8,4.5-0.7
			c4.8,0.4,8.5,4.4,8.7,9.1C16.9,17.6,19.3,14.6,19.6,10.8z"/>
		<path class="st1" d="M4.9,9.8c-1.6-0.1-3.1,0.1-4.5,0.7c0.2,4.7,3.9,8.6,8.7,9.1c1.6,0.1,3.1-0.1,4.5-0.7
			C13.4,14.2,9.7,10.3,4.9,9.8z"/>
	</g>
	<g>
		<g>
			<path class="st2" d="M13.5,6.5c2.8,2.8,3,8.2,1.7,9.5S8.5,17,5.7,14.2S2.3,8.6,5.1,5.8S10.7,3.7,13.5,6.5z"/>
			<g>
				<path class="st3" d="M13.2,14.1c-0.4,0-0.5,0.2-0.8,0.3c-0.9,0.1-1.4-2.3-2.7-3c-1.4-0.8-4,0.1-4.9,1.8c0.3,0.3,0.6,0.7,0.9,1
					c2.8,2.8,8.2,3,9.5,1.7c0,0,0,0,0,0C15,15,13.9,14,13.2,14.1z"/>
			</g>
		</g>
		<path class="st4" d="M9.4,12.4c0,1.1-0.9,2-2,2"/>
		<path class="st5" d="M13,8.8c0,1.1-0.9,2-2,2"/>
	</g>
</g>
</svg>
