<?xml version="1.0" encoding="utf-8"?>
<!-- Generator: Adobe Illustrator 23.0.4, SVG Export Plug-In . SVG Version: 6.00 Build 0)  -->
<svg version="1.1" id="Layer_1" xmlns="http://www.w3.org/2000/svg" xmlns:xlink="http://www.w3.org/1999/xlink" x="0px" y="0px"
	 viewBox="0 0 20 20" style="enable-background:new 0 0 20 20;" xml:space="preserve">
<style type="text/css">
	.st0{fill:#5DBB56;}
	.st1{fill:#FFFFFF;}
	.st2{fill:#F47920;}
</style>
<g>
	<g>
		<path class="st0" d="M15.4,14.1c0.3-1.2,1.8-2.8,1.8-2.8c0.8-1.1,1.3-2.5,1.3-4c0-4-3.5-7.2-7.8-7.2c-4.3,0-7.5,2.8-8,7.2
			c0,0.4,0.2,0.9,0.3,1.3C3.1,9,3.2,9.1,3.1,9.3c-0.3,0.8-1.6,2.8-1.6,2.8s-0.3,0.5,0.1,0.8c0.2,0.1,1.7,0.2,1.8,0.3
			c0.1,0.1,0.4,2.9,0.8,3.5c0.4,0.6,1.2,0.6,1.9,0.5c0.4-0.1,1.1-0.3,1.5-0.3c1.4-0.3,1.5,1.7,1.7,2.8l6.8-2.3
			C15.7,16.6,15.2,15,15.4,14.1z"/>
	</g>
	<path class="st1" d="M17,6.7c-0.3,0.3-0.6,0.4-1.1,0.5c-0.3,0.1-0.7,0.1-1.1,0.3c0,0-0.1,0.1-0.1,0.1c0-0.2,0.1-0.4,0.2-0.6
		c0.3-0.5,0.9-0.5,1.2-0.7c0.3-0.2,0.5-0.5,0.6-0.9c0,0-0.2,0.7-0.9,0.9c-0.5,0.1-1,0.4-1.2,0.8c-0.2,0.3-0.2,0.7-0.2,0.8
		c-0.3,0.2-0.4,0.4-0.5,0.5c0,0-0.2-0.3-0.6-0.6c0,0,0,0,0,0c-0.8-1.5-0.8-2-0.5-2.4C13.2,4.8,14.1,5,15,4.3
		c0.8-0.6,0.8-1.4,0.8-1.4S15.7,3.6,15,4.1c-0.8,0.6-1.4,0.5-1.9,0.7c0,0,0,0,0,0c0,0,0-0.1,0-0.1c0.1-0.3-0.1-0.7-0.3-1
		c-0.4-0.7,0.1-1.5,0.1-1.5c-0.2,0.3-0.5,0.7-0.3,1.3c0.1,0.3,0.4,0.6,0.3,1c0,0.2-0.2,0.4-0.3,0.5l0,0c-0.3,0.2-0.4,0.5-0.4,0.8
		c0,0.5,0.1,1,0.4,1.5c-0.3-0.1-0.6-0.2-0.9-0.3C11.5,7,11.1,6.5,11.2,6c0.1-0.6,0.2-1.1,0-1.6c-0.2-0.6-0.8-0.9-1.1-1
		c-0.9-1-0.6-2.1-0.6-2.1S9,2.3,9.7,3.3c0,0,0,0,0,0C9.4,3.3,8.2,3,7.6,2.2c0,0,0.6,1,1.9,1.3c0.7,0.2,1,0.3,1.2,0.7
		C11,4.6,10.9,5,10.8,5.9c-0.1,0.5,0,0.9,0.2,1.2c-0.3,0-0.6,0.1-0.9,0.2c-0.1,0-0.2,0.1-0.3,0.1c0-0.2,0-0.7-0.7-1.1
		C8.8,5.9,8.4,5.8,8,5.3c-0.4-0.6,0-1.5,0-1.5S7.8,4.2,7.7,4.7c0,0.4,0.2,0.7,0.3,0.9c0.3,0.4,0.8,0.5,1.2,0.9
		c0.4,0.4,0.2,0.7,0.2,0.9C8.6,7.6,7.8,7.3,7.2,6.7C6.1,5.3,7.1,2.3,7.1,2.3S6.3,3.7,6.5,5.6C5.6,4.5,4.4,5.1,4.4,5.1s1.4-0.5,2.1,1
		c0.1,0.2,0.1,0.4,0.3,0.6c0,0,0,0,0,0l0,0C7,7.1,7.4,7.5,7.9,7.7C7.7,7.8,7.4,8,7.1,7.9C6.8,7.8,6.8,7.5,6.4,7.4
		C6.2,7.4,6.1,7.4,5.9,7.3c-0.1,0-0.2-0.4-0.3-0.5c-0.1,0-0.3-0.1-0.4-0.1C5.1,6.7,5,6.7,5,6.7c0,0.1,0.3,0.2,0.4,0.2
		c0.1,0,0.2,0,0.3,0.3c0.1,0.3,0.2,0.3,0.6,0.4C6.6,7.7,6.5,8,6.9,8.2c0.4,0.2,0.9,0,1.3-0.2C8.3,8,8.5,8,8.6,7.9
		c1.2,0.3,1.9-0.3,2.9-0.1c1.7,0.3,1.7,1.4,1.8,2.2c0,0.1,0,0.2,0,0.4c0,0-0.1-0.1-0.1-0.1c-0.2-0.2-0.1-0.7-0.5-1.1
		c-0.2-0.2-0.4-0.5-1-0.4c-0.6,0.1-0.9,0.6-1.8,0.5C9,9.3,8.4,8.7,8.4,8.7s0.4,0.7,1.4,0.8c1.5,0.2,1.6-0.7,2.3-0.4
		c0.4,0.2,0.4,0.6,0.5,1.3c0.1,0.3,0.2,0.5,0.4,0.6c-0.4,1.8-0.7,4.7,0.2,7.3l1.5-0.5c-0.7-1.7-1.3-4.2-0.5-7.1c0,0,0.1-0.9,0-1.4
		c-0.1-0.2,0.2-1,0.8-1.4c0.7-0.5,1.7-0.4,2.1-1c0.3-0.4,0.4-1.4,0.4-1.4S17.3,6.4,17,6.7z"/>
	<g>
		<path class="st1" d="M14,9.9L14,9.9c-0.1,0,1.3-1.3,2.6-0.9c0,0-1.2-0.3-2.5,1.1L14,9.9z"/>
	</g>
	<path class="st1" d="M6,4.1C6,4.6,5.5,5,5.5,5S5,4.6,5,4.1s0.5-0.9,0.5-0.9S6,3.5,6,4.1z"/>
	<path class="st1" d="M5.4,6.3C4.9,6.5,4.4,6.1,4.4,6.1s0.3-0.6,0.8-0.8c0.5-0.2,1.1,0.2,1.1,0.2S5.9,6.2,5.4,6.3z"/>
	<path class="st1" d="M6.4,9.1C5.9,9.4,5.3,9.2,5.3,9.2s0.1-0.7,0.5-0.9s1.1-0.1,1.1-0.1S6.8,8.8,6.4,9.1z"/>
	<path class="st1" d="M4.7,7.8c-0.5,0.1-1-0.3-1-0.3S4,6.9,4.6,6.8s1,0.3,1,0.3S5.3,7.7,4.7,7.8z"/>
	<path class="st1" d="M8,3.8C7.5,3.9,7,3.6,7,3.6s0.2-0.6,0.6-0.7c0.4-0.2,1,0.1,1,0.1S8.4,3.6,8,3.8z"/>
	<path class="st1" d="M15.9,4.9c-0.5,0-0.9-0.6-0.9-0.6s0.5-0.5,1-0.5c0.5,0,0.9,0.6,0.9,0.6S16.4,4.9,15.9,4.9z"/>
	<path class="st1" d="M13.7,6.4c-0.4,0.3-1.1,0.2-1.1,0.2s0-0.7,0.4-1c0.4-0.3,1.1-0.2,1.1-0.2S14.1,6.1,13.7,6.4z"/>
	<path class="st1" d="M8.7,10.1c-0.4,0.3-1,0.1-1,0.1s0.1-0.6,0.4-0.9c0.4-0.3,1-0.1,1-0.1S9.1,9.8,8.7,10.1z"/>
	<path class="st1" d="M11.3,2.9c-0.1,0.5-0.7,0.8-0.7,0.8s-0.4-0.5-0.3-1C10.4,2.2,11,1.9,11,1.9S11.4,2.4,11.3,2.9z"/>
	<path class="st1" d="M12.6,4.4c0.2,0.5-0.2,1.1-0.2,1.1s-0.6-0.2-0.8-0.7s0.2-1.1,0.2-1.1S12.4,3.9,12.6,4.4z"/>
	<path class="st1" d="M15.5,5.5c0.2,0.4,0,0.9,0,0.9s-0.6-0.1-0.8-0.5c-0.2-0.4,0-0.9,0-0.9S15.3,5.1,15.5,5.5z"/>
	<path class="st1" d="M12.7,1.6c0.3,0.4,0.1,1.1,0.1,1.1s-0.7-0.1-0.9-0.5S11.7,1,11.7,1S12.4,1.1,12.7,1.6z"/>
	<path class="st2" d="M14.9,3.3c0.1,0.6-0.5,1.2-0.5,1.2s-0.7-0.5-0.7-1.1c-0.1-0.6,0.5-1.2,0.5-1.2S14.8,2.7,14.9,3.3z"/>
	<path class="st1" d="M8.3,2.4C7.9,2.2,7.7,1.6,7.7,1.6s0.6-0.3,1.1-0.1s0.7,0.8,0.7,0.8S8.8,2.6,8.3,2.4z"/>
	<path class="st1" d="M9.8,5.3C9.5,4.9,9.7,4.3,9.7,4.3s0.7,0,1,0.4s0.2,1.1,0.2,1.1S10.2,5.8,9.8,5.3z"/>
	<path class="st1" d="M9.8,9C9.5,8.7,9.6,8.2,9.6,8.2s0.5,0,0.8,0.3s0.2,0.8,0.2,0.8S10,9.4,9.8,9z"/>
	<path class="st1" d="M16.6,8.6C16.4,9,15.8,9,15.8,9S15.7,8.4,16,8.1c0.3-0.3,0.8-0.3,0.8-0.3S16.9,8.3,16.6,8.6z"/>
	<path class="st1" d="M9.2,5C9.1,5.5,8.4,5.7,8.4,5.7S8.1,5.2,8.2,4.7S9,3.9,9,3.9S9.3,4.5,9.2,5z"/>
	<path class="st1" d="M7.8,6C7.7,6.5,7.2,6.7,7.2,6.7S6.9,6.3,7,5.8c0.1-0.4,0.6-0.7,0.6-0.7S7.9,5.6,7.8,6z"/>
</g>
</svg>
