<?xml version="1.0" encoding="utf-8"?>
<!-- Generator: Adobe Illustrator 27.4.1, SVG Export Plug-In . SVG Version: 6.00 Build 0)  -->
<svg version="1.1" id="Layer_1" xmlns="http://www.w3.org/2000/svg" xmlns:xlink="http://www.w3.org/1999/xlink" x="0px" y="0px"
	 viewBox="0 0 20 20" style="enable-background:new 0 0 20 20;" xml:space="preserve">
<style type="text/css">
	.st0{fill:url(#SVGID_1_);}
	.st1{fill:url(#SVGID_00000034086411884118592910000016821863085602825657_);}
	.st2{fill:#F79821;}
	.st3{fill:url(#SVGID_00000042738929494509854880000011651693039177857699_);}
	.st4{fill:url(#SVGID_00000165215761811999749690000011890613307712380087_);}
	.st5{fill:url(#SVGID_00000074410952699215948710000001947216565950597257_);}
	.st6{fill:url(#SVGID_00000154387394451010694470000013064346722382764433_);}
	.st7{fill:url(#SVGID_00000047052450270482408770000013029169563084217271_);}
	.st8{fill:url(#SVGID_00000178902355831659601780000001384156410843707825_);}
	.st9{fill:url(#SVGID_00000046303201627097391470000014360946887168010684_);}
</style>
<g>
	<linearGradient id="SVGID_1_" gradientUnits="userSpaceOnUse" x1="9.9344" y1="1.0625" x2="9.9344" y2="18.4835">
		<stop  offset="0.3221" style="stop-color:#74BDE9"/>
		<stop  offset="0.999" style="stop-color:#23C3F3"/>
	</linearGradient>
	<path class="st0" d="M19.4,8.7l-3.8-6.5c-0.4-0.7-1.2-1.1-2-1.1H6.2c-0.8,0-1.6,0.4-2,1.1L0.4,8.7C0,9.5,0,10.3,0.4,11l3.8,6.5
		c0.4,0.7,1.2,1.1,2,1.1h7.5c0.8,0,1.6-0.4,2-1.1l3.8-6.5C19.8,10.3,19.8,9.5,19.4,8.7z M14,15.9c0,0.6-0.1,1.2-0.2,1.7h0
		c-0.1,0.2-0.3,0.4-0.5,0.4H6.5c-0.2,0-0.4-0.1-0.5-0.3h0c-0.1-0.5-0.2-1.1-0.2-1.7c0-3,1.2-4.7,2.3-5.7l0,0c0,0,0.6,0.3,1.7,0.3
		c0,0-0.9-0.4-1.2-0.7C7.4,9,5.9,7.3,5.9,3.8c0-0.6,0.1-1.2,0.2-1.7c0,0,0,0,0,0c0,0,0,0,0,0h0c0.1-0.2,0.2-0.4,0.5-0.4h6.8
		c0.2,0,0.4,0.2,0.5,0.4h0c0,0,0,0,0,0c0,0,0,0,0,0C13.9,2.6,14,3.2,14,3.8c0,3.5-1.6,5.2-2.8,6C12.4,10.7,14,12.4,14,15.9z"/>
	<g>
		
			<linearGradient id="SVGID_00000090978386097886635370000014971938306860509073_" gradientUnits="userSpaceOnUse" x1="8.2668" y1="1.0625" x2="8.2668" y2="18.4835">
			<stop  offset="0.3221" style="stop-color:#74BDE9"/>
			<stop  offset="0.999" style="stop-color:#23C3F3"/>
		</linearGradient>
		<path style="fill:url(#SVGID_00000090978386097886635370000014971938306860509073_);" d="M9.3,2.4H7.2c-0.3,0-0.6,0.2-0.6,0.6V3
			c0,0.3,0.2,0.6,0.6,0.6h2.1c0.3,0,0.6-0.2,0.6-0.6V2.9C9.9,2.6,9.6,2.4,9.3,2.4z"/>
		<path class="st2" d="M12.6,2.4h-2.1c-0.3,0-0.6,0.2-0.6,0.6V3c0,0.3,0.2,0.6,0.6,0.6h2.1c0.3,0,0.6-0.2,0.6-0.6V2.9
			C13.2,2.6,13,2.4,12.6,2.4z"/>
	</g>
	<g>
		
			<linearGradient id="SVGID_00000096033538480069133650000005632758979725218999_" gradientUnits="userSpaceOnUse" x1="8.4237" y1="1.0625" x2="8.4237" y2="18.4835">
			<stop  offset="0.3221" style="stop-color:#74BDE9"/>
			<stop  offset="0.999" style="stop-color:#23C3F3"/>
		</linearGradient>
		<path style="fill:url(#SVGID_00000096033538480069133650000005632758979725218999_);" d="M9.6,4.4H7.2C6.9,4.4,6.7,4.7,6.7,5v0.1
			c0,0.3,0.2,0.6,0.6,0.6h2.4c0.3,0,0.6-0.2,0.6-0.6V5C10.2,4.7,9.9,4.4,9.6,4.4z"/>
		<path class="st2" d="M12.6,4.4h-1.8c-0.3,0-0.6,0.2-0.6,0.6v0.1c0,0.3,0.2,0.6,0.6,0.6h1.8c0.3,0,0.6-0.2,0.6-0.6V5
			C13.2,4.7,13,4.4,12.6,4.4z"/>
	</g>
	<g>
		
			<linearGradient id="SVGID_00000071519447102659444150000013892070923670858635_" gradientUnits="userSpaceOnUse" x1="9.0352" y1="1.0625" x2="9.0352" y2="18.4835">
			<stop  offset="0.3221" style="stop-color:#74BDE9"/>
			<stop  offset="0.999" style="stop-color:#23C3F3"/>
		</linearGradient>
		<path style="fill:url(#SVGID_00000071519447102659444150000013892070923670858635_);" d="M9.9,6.5H8.1c-0.3,0-0.6,0.2-0.6,0.6v0.1
			c0,0.3,0.2,0.6,0.6,0.6h1.8c0.3,0,0.6-0.2,0.6-0.6V7.1C10.5,6.8,10.2,6.5,9.9,6.5z"/>
		<path class="st2" d="M11.7,6.5h-0.6c-0.3,0-0.6,0.2-0.6,0.6v0.1c0,0.3,0.2,0.6,0.6,0.6h0.6c0.3,0,0.6-0.2,0.6-0.6V7.1
			C12.3,6.8,12,6.5,11.7,6.5z"/>
	</g>
	
		<linearGradient id="SVGID_00000053525368509859439610000009481864141383676291_" gradientUnits="userSpaceOnUse" x1="9.9344" y1="1.0625" x2="9.9344" y2="18.4835">
		<stop  offset="0.3221" style="stop-color:#74BDE9"/>
		<stop  offset="0.999" style="stop-color:#23C3F3"/>
	</linearGradient>
	<path style="fill:url(#SVGID_00000053525368509859439610000009481864141383676291_);" d="M10,11.7L10,11.7c-0.4,0-0.6,0.2-0.6,0.6
		v0.1c0,0.3,0.2,0.6,0.6,0.6H10c0.3,0,0.6-0.2,0.6-0.6v-0.1C10.5,11.9,10.3,11.7,10,11.7z"/>
	<path class="st2" d="M10,13.2L10,13.2c-0.4,0-0.6,0.2-0.6,0.6v0.1c0,0.3,0.2,0.6,0.6,0.6H10c0.3,0,0.6-0.2,0.6-0.6v-0.1
		C10.5,13.5,10.3,13.2,10,13.2z"/>
	
		<linearGradient id="SVGID_00000148637445230519632120000011803559114728360340_" gradientUnits="userSpaceOnUse" x1="9.9344" y1="1.0625" x2="9.9344" y2="18.4835">
		<stop  offset="0.3221" style="stop-color:#74BDE9"/>
		<stop  offset="0.999" style="stop-color:#23C3F3"/>
	</linearGradient>
	<path style="fill:url(#SVGID_00000148637445230519632120000011803559114728360340_);" d="M10,14.8L10,14.8c-0.4,0-0.6,0.2-0.6,0.6
		v0.1c0,0.3,0.2,0.6,0.6,0.6H10c0.3,0,0.6-0.2,0.6-0.6v-0.1C10.5,15,10.3,14.8,10,14.8z"/>
	<path class="st2" d="M10,16.3L10,16.3c-0.4,0-0.6,0.2-0.6,0.6v0.1c0,0.3,0.2,0.6,0.6,0.6H10c0.3,0,0.6-0.2,0.6-0.6v-0.1
		C10.5,16.6,10.3,16.3,10,16.3z"/>
	
		<linearGradient id="SVGID_00000008115770164007820940000005929311127917152172_" gradientUnits="userSpaceOnUse" x1="8.3928" y1="1.0625" x2="8.3928" y2="18.4835">
		<stop  offset="0.3221" style="stop-color:#74BDE9"/>
		<stop  offset="0.999" style="stop-color:#23C3F3"/>
	</linearGradient>
	<path style="fill:url(#SVGID_00000008115770164007820940000005929311127917152172_);" d="M8.4,16.3L8.4,16.3
		c-0.4,0-0.6,0.2-0.6,0.6v0.1c0,0.3,0.2,0.6,0.6,0.6h0.1c0.3,0,0.6-0.2,0.6-0.6v-0.1C9,16.6,8.7,16.3,8.4,16.3z"/>
	<path class="st2" d="M6.9,16.3L6.9,16.3c-0.4,0-0.6,0.2-0.6,0.6v0.1c0,0.3,0.2,0.6,0.6,0.6h0.1c0.3,0,0.6-0.2,0.6-0.6v-0.1
		C7.5,16.6,7.2,16.3,6.9,16.3z"/>
	<path class="st2" d="M13,16.3L13,16.3c-0.4,0-0.6,0.2-0.6,0.6v0.1c0,0.3,0.2,0.6,0.6,0.6H13c0.3,0,0.6-0.2,0.6-0.6v-0.1
		C13.6,16.6,13.3,16.3,13,16.3z"/>
	
		<linearGradient id="SVGID_00000152232037243785147070000002459458397249581247_" gradientUnits="userSpaceOnUse" x1="11.4408" y1="1.0625" x2="11.4408" y2="18.4835">
		<stop  offset="0.3221" style="stop-color:#74BDE9"/>
		<stop  offset="0.999" style="stop-color:#23C3F3"/>
	</linearGradient>
	<path style="fill:url(#SVGID_00000152232037243785147070000002459458397249581247_);" d="M11.5,16.3L11.5,16.3
		c-0.4,0-0.6,0.2-0.6,0.6v0.1c0,0.3,0.2,0.6,0.6,0.6h0.1c0.3,0,0.6-0.2,0.6-0.6v-0.1C12,16.6,11.8,16.3,11.5,16.3z"/>
	<path class="st2" d="M8.4,14.8L8.4,14.8c-0.4,0-0.6,0.2-0.6,0.6v0.1c0,0.3,0.2,0.6,0.6,0.6h0.1c0.3,0,0.6-0.2,0.6-0.6v-0.1
		C9,15,8.7,14.8,8.4,14.8z"/>
	<path class="st2" d="M11.5,14.8L11.5,14.8c-0.4,0-0.6,0.2-0.6,0.6v0.1c0,0.3,0.2,0.6,0.6,0.6h0.1c0.3,0,0.6-0.2,0.6-0.6v-0.1
		C12,15,11.8,14.8,11.5,14.8z"/>
	<path class="st2" d="M9.5,10.4c-0.1,0.1-0.1,0.2-0.1,0.4c0,0.3,0.3,0.6,0.6,0.6h0c0.3,0,0.5-0.2,0.6-0.5L9.5,10.4z"/>
	
		<linearGradient id="SVGID_00000168090209848518774060000016498074043250238597_" gradientUnits="userSpaceOnUse" x1="9.94" y1="1.0625" x2="9.94" y2="18.4835">
		<stop  offset="0.3221" style="stop-color:#74BDE9"/>
		<stop  offset="0.999" style="stop-color:#23C3F3"/>
	</linearGradient>
	<path style="fill:url(#SVGID_00000168090209848518774060000016498074043250238597_);" d="M10.3,9.4c0.1-0.1,0.2-0.3,0.2-0.4v0
		c0-0.3-0.3-0.6-0.6-0.6h0c-0.3,0-0.5,0.2-0.6,0.5L10.3,9.4z"/>
</g>
</svg>
