<?xml version="1.0" encoding="utf-8"?>
<!-- Generator: Adobe Illustrator 23.0.4, SVG Export Plug-In . SVG Version: 6.00 Build 0)  -->
<svg version="1.1" id="Layer_1" xmlns="http://www.w3.org/2000/svg" xmlns:xlink="http://www.w3.org/1999/xlink" x="0px" y="0px"
	 viewBox="0 0 20 20" style="enable-background:new 0 0 20 20;" xml:space="preserve">
<style type="text/css">
	.st0{fill:#2B93D1;}
	.st1{fill:#FFFFFF;}
</style>
<g>
	<path class="st0" d="M18,19.8H2c-1,0-1.8-0.8-1.8-1.8V2C0.2,1,1,0.2,2,0.2h16c1,0,1.8,0.8,1.8,1.8v16C19.8,19,19,19.8,18,19.8z"/>
	<g>
		<g>
			<g>
				<path class="st1" d="M10,4C9.3,4,8.8,4.6,8.8,5.3c0,0.2,0,0.4,0.1,0.5l-3.5,6c-0.3-0.1-0.6-0.1-0.9-0.1c-1.7,0-3,1.4-3,3
					c0,1.7,1.4,3,3,3c0.8,0,1.6-0.3,2.1-0.9l-0.8-0.8c-0.4,0.3-0.8,0.6-1.4,0.6c-1.1,0-1.9-0.9-1.9-1.9c0-1.1,0.9-1.9,1.9-1.9
					c0.6,0,1.1,0.3,1.5,0.7l0.6-1l3.5-6c0.6-0.1,1.1-0.6,1.1-1.2C11.2,4.6,10.7,4,10,4z"/>
				<path class="st1" d="M15.5,13.5l-3.5-6c0.6-0.6,1-1.3,1-2.2c0-1.7-1.4-3-3-3c-1.7,0-3,1.4-3,3C7,5.5,7,5.8,7.1,6l1.1-0.3
					c0-0.2-0.1-0.3-0.1-0.5c0-1.1,0.9-1.9,1.9-1.9c1.1,0,1.9,0.9,1.9,1.9c0,1-0.7,1.8-1.7,1.9l0.6,1l3.5,6c-0.1,0.2-0.1,0.3-0.1,0.5
					c0,0.7,0.6,1.2,1.2,1.2c0.7,0,1.2-0.6,1.2-1.2C16.7,14.1,16.2,13.5,15.5,13.5z"/>
				<path class="st1" d="M16.2,11.8L16,12.8c0.8,0.2,1.4,1,1.4,1.9c0,1.1-0.9,1.9-1.9,1.9c-1.1,0-1.9-0.9-1.9-1.9
					c0-0.2,0-0.5,0.1-0.7h-1.1h-7c-0.2-0.3-0.6-0.5-1-0.5c-0.7,0-1.2,0.6-1.2,1.2c0,0.7,0.6,1.2,1.2,1.2c0.4,0,0.8-0.2,1-0.5h7
					c0.3,1.3,1.5,2.3,2.9,2.3c1.7,0,3-1.4,3-3C18.5,13.3,17.5,12.1,16.2,11.8z"/>
			</g>
		</g>
	</g>
</g>
</svg>
