<?xml version="1.0" encoding="utf-8"?>
<!-- Generator: Adobe Illustrator 27.4.1, SVG Export Plug-In . SVG Version: 6.00 Build 0)  -->
<svg version="1.1" id="Layer_1" xmlns="http://www.w3.org/2000/svg" xmlns:xlink="http://www.w3.org/1999/xlink" x="0px" y="0px"
	 viewBox="0 0 20 20" style="enable-background:new 0 0 20 20;" xml:space="preserve">
<style type="text/css">
	.st0{fill:#FFFFFF;}
	.st1{fill:#F06681;}
</style>
<g>
	<circle class="st0" cx="10" cy="9.9" r="9.9"/>
	<g>
		<path class="st1" d="M1.9,5.5C4,5.5,6,6.2,7.6,7.5C8.4,7.6,9.2,7.6,10,7.6s1.6-0.1,2.4-0.2c1.6-1.2,3.6-1.9,5.7-1.9
			c0.1,0,0.2,0,0.4,0l0,0c-1.6-3-4.8-5.1-8.5-5.1S3.1,2.5,1.5,5.5l0,0C1.6,5.5,1.8,5.5,1.9,5.5z"/>
		<path class="st1" d="M8.7,14.8c0-1.7,0.4-3.3,1.2-4.6c-0.6-1.1-1.4-2-2.4-2.8C5.4,7.2,3.4,6.5,1.5,5.5l0,0
			C0.8,6.9,0.4,8.4,0.4,9.9c0,5.3,4.3,9.6,9.6,9.6l0,0C9.2,18.1,8.7,16.5,8.7,14.8z"/>
		<path class="st1" d="M19.5,9.9c0-1.6-0.4-3.1-1.1-4.4l0,0c-1.9,1-3.9,1.7-6.1,1.9c-1,0.8-1.8,1.7-2.4,2.8c0.8,1.4,1.2,2.9,1.2,4.6
			s-0.4,3.3-1.2,4.6l0,0C15.2,19.5,19.5,15.2,19.5,9.9z"/>
	</g>
</g>
</svg>
