<?xml version="1.0" encoding="utf-8"?>
<!-- Generator: Adobe Illustrator 27.4.1, SVG Export Plug-In . SVG Version: 6.00 Build 0)  -->
<svg version="1.1" id="Layer_1" xmlns="http://www.w3.org/2000/svg" xmlns:xlink="http://www.w3.org/1999/xlink" x="0px" y="0px"
	 viewBox="0 0 20 20" style="enable-background:new 0 0 20 20;" xml:space="preserve">
<style type="text/css">
	.st0{fill:none;stroke:#80C242;stroke-width:0.4255;stroke-miterlimit:10;}
	.st1{fill:#F59695;}
	.st2{fill:#80C242;}
	.st3{fill:#00BCF1;}
	.st4{fill:url(#SVGID_1_);}
	.st5{fill:url(#SVGID_00000177450622751498216190000000024485225548901254_);}
</style>
<g>
	<path class="st0" d="M13.4,1.4h-7c-1,0-1.8,0.5-2.3,1.3l-3.5,6c-0.5,0.8-0.5,1.8,0,2.7l3.5,6c0.5,0.8,1.4,1.3,2.3,1.3h7
		c1,0,1.8-0.5,2.3-1.3l3.5-6c0.5-0.8,0.5-1.8,0-2.7l-3.5-6C15.2,1.9,14.3,1.4,13.4,1.4z"/>
	<g>
		<g>
			<path class="st1" d="M11.3,8.3c0.1,0.2,0.2,0.4,0.2,0.7c0,0.7-0.5,1.2-1.2,1.2S9.1,9.7,9.1,9c0-0.3,0.1-0.5,0.2-0.7l1-1.4
				L11.3,8.3z"/>
			<path class="st2" d="M11.3,10.6c0.1,0.2,0.2,0.4,0.2,0.7c0,0.7-0.5,1.2-1.2,1.2S9.1,12,9.1,11.3c0-0.3,0.1-0.5,0.2-0.7l1-1.4
				L11.3,10.6z"/>
			<path class="st3" d="M10.1,9.4c0.1,0.2,0.2,0.4,0.2,0.7c0,0.7-0.5,1.2-1.2,1.2s-1.2-0.5-1.2-1.2c0-0.3,0.1-0.5,0.2-0.7l1-1.4
				L10.1,9.4z"/>
		</g>
		<radialGradient id="SVGID_1_" cx="9.9464" cy="10.5146" r="7.4682" gradientUnits="userSpaceOnUse">
			<stop  offset="0.5191" style="stop-color:#00BCF1"/>
			<stop  offset="0.9009" style="stop-color:#A8CE38"/>
		</radialGradient>
		<path class="st4" d="M12.6,11.6c0.6,0,1.2,0.5,1.2,1.2v0.4l-0.4,0.5c-0.1,0.1-0.1,0.2-0.1,0.3c0,0.3,0.2,0.5,0.6,0.5
			c0.3,0,0.5-0.2,0.5-0.6c0-0.1,0-0.2-0.1-0.3l-0.4-0.5v-0.4c0-0.7-0.6-1.3-1.3-1.3h-0.6c0.1-0.2,0.1-0.3,0.2-0.5H14
			c0.5,0,0.9,0.3,1,0.7l0,0.6c0,0.1,0,0.2,0.1,0.3c0.2,0.3,0.5,0.3,0.8,0.2c0.3-0.2,0.3-0.5,0.2-0.8c-0.1-0.1-0.2-0.2-0.3-0.2
			l-0.6-0.3c-0.2-0.5-0.6-0.8-1.2-0.8h-1.7c0-0.2,0.1-0.4,0.1-0.6h2.9l0.5,0.4c0.1,0.1,0.2,0.1,0.3,0.1c0.3,0,0.5-0.2,0.5-0.5
			s-0.2-0.5-0.5-0.5c-0.1,0-0.2,0-0.3,0.1L15.3,10h-2.9c0-0.2,0-0.4-0.1-0.6H14c0.5,0,1-0.3,1.2-0.8l0.6-0.3c0.1,0,0.2-0.1,0.3-0.2
			c0.2-0.3,0.1-0.6-0.2-0.8s-0.6-0.1-0.8,0.2C15,7.7,15,7.8,15,7.9l0,0.6c-0.2,0.4-0.6,0.7-1,0.7h-1.7c-0.1-0.2-0.1-0.3-0.2-0.5h0.6
			c0.7,0,1.3-0.6,1.3-1.3V7.1l0.4-0.5c0.1-0.1,0.1-0.2,0.1-0.3c0-0.3-0.2-0.5-0.5-0.6c-0.3,0-0.5,0.2-0.6,0.5c0,0.1,0,0.2,0.1,0.3
			l0.4,0.5v0.4c0,0.6-0.5,1.2-1.2,1.2H12c-0.3-0.6-0.7-1.1-0.6-2.3c0.1-0.7,0.7-1.6,1.9-1.7c2.5-0.3,4.7,2.5,4.7,5.5h0c0,0,0,0,0,0
			c0,0,0,0,0,0h0c0,3.1-2.2,5.8-4.7,5.5c-1.2-0.1-1.8-1-1.9-1.7c-0.1-1.1,0.3-1.6,0.6-2.3H12.6z"/>
		
			<radialGradient id="SVGID_00000106109420451259403650000015045813700357749636_" cx="9.9464" cy="10.5146" r="7.4682" gradientUnits="userSpaceOnUse">
			<stop  offset="0.5191" style="stop-color:#00BCF1"/>
			<stop  offset="0.9009" style="stop-color:#A8CE38"/>
		</radialGradient>
		<path style="fill:url(#SVGID_00000106109420451259403650000015045813700357749636_);" d="M7.2,11.6c-0.6,0-1.2,0.5-1.2,1.2v0.4
			l0.4,0.5c0.1,0.1,0.1,0.2,0.1,0.3c0,0.3-0.2,0.5-0.6,0.5c-0.3,0-0.5-0.2-0.5-0.6c0-0.1,0-0.2,0.1-0.3l0.4-0.5v-0.4
			c0-0.7,0.6-1.3,1.3-1.3h0.6c-0.1-0.2-0.1-0.3-0.2-0.5H5.8c-0.5,0-0.9,0.3-1,0.7l0,0.6c0,0.1,0,0.2-0.1,0.3C4.6,12.9,4.2,13,4,12.8
			c-0.3-0.2-0.3-0.5-0.2-0.8C3.8,12,3.9,11.9,4,11.9l0.6-0.3c0.2-0.5,0.6-0.8,1.2-0.8h1.7c0-0.2-0.1-0.4-0.1-0.6H4.5L4,10.6
			c-0.1,0.1-0.2,0.1-0.3,0.1c-0.3,0-0.5-0.2-0.5-0.5s0.2-0.5,0.5-0.5c0.1,0,0.2,0,0.3,0.1L4.5,10h2.9c0-0.2,0-0.4,0.1-0.6H5.8
			c-0.5,0-1-0.3-1.2-0.8L4,8.4c-0.1,0-0.2-0.1-0.3-0.2C3.6,7.9,3.7,7.6,4,7.4s0.6-0.1,0.8,0.2c0.1,0.1,0.1,0.2,0.1,0.3l0,0.6
			c0.2,0.4,0.6,0.7,1,0.7h1.7c0.1-0.2,0.1-0.3,0.2-0.5H7.2c-0.7,0-1.3-0.6-1.3-1.3V7.1L5.5,6.5C5.4,6.4,5.4,6.3,5.4,6.2
			c0-0.3,0.2-0.5,0.5-0.6c0.3,0,0.5,0.2,0.6,0.5c0,0.1,0,0.2-0.1,0.3L6,7.1v0.4c0,0.6,0.5,1.2,1.2,1.2h0.6C8.1,8,8.5,7.5,8.4,6.3
			C8.4,5.6,7.7,4.7,6.5,4.6C4,4.3,1.8,7.1,1.8,10.1h0c0,0,0,0,0,0c0,0,0,0,0,0h0c0,3.1,2.2,5.8,4.7,5.5c1.2-0.1,1.8-1,1.9-1.7
			c0.1-1.1-0.3-1.6-0.6-2.3H7.2z"/>
	</g>
</g>
</svg>
