<?xml version="1.0" encoding="utf-8"?>
<!-- Generator: Adobe Illustrator 24.1.0, SVG Export Plug-In . SVG Version: 6.00 Build 0)  -->
<svg version="1.1" id="Layer_1" xmlns="http://www.w3.org/2000/svg" xmlns:xlink="http://www.w3.org/1999/xlink" x="0px" y="0px"
	 viewBox="0 0 32.7 32.7" style="enable-background:new 0 0 32.7 32.7;" xml:space="preserve">
<style type="text/css">
	.st0{fill:#FFFFFF;}
</style>
<path class="st0" d="M16.3,0.3c-8.8,0-16,7.2-16,16s7.2,16,16,16s16-7.2,16-16S25.2,0.3,16.3,0.3z M28.8,24.2c0,1.4-1.1,2.5-2.5,2.5
	c-0.1,0-0.1,0-0.1,0H7.4v-0.1c-2.7-0.4-4.8-2.8-4.8-5.6c0-2.5,1.6-4.5,3.8-5.3v-0.1c0-4.3,3.5-7.8,7.8-7.8c4.1,0,7.4,3.1,7.8,7
	c0.4-0.1,0.9-0.2,1.3-0.2c2.7,0,4.8,2.2,4.8,4.8c0,0.9-0.2,1.8-0.7,2.5C28.3,22.3,28.9,23.2,28.8,24.2z M24.9,12.6
	c-1.7-0.9-2.4-3.1-1.4-4.9c0.5-1,1.4-1.6,2.3-1.8c0,0.2-0.1,0.3-0.2,0.4c-1,1.7-0.4,3.9,1.4,4.9c0.9,0.4,1.8,0.5,2.7,0.3
	C28.7,12.9,26.7,13.4,24.9,12.6z"/>
<g>
	<rect x="12.8" y="13.9" class="st0" width="4.5" height="5.4"/>
	<polygon class="st0" points="15,24.7 21.3,18.4 8.8,18.4 	"/>
</g>
</svg>
