<?xml version="1.0" encoding="utf-8"?>
<!-- Generator: Adobe Illustrator 26.1.0, SVG Export Plug-In . SVG Version: 6.00 Build 0)  -->
<svg version="1.1" id="Layer_1" xmlns="http://www.w3.org/2000/svg" xmlns:xlink="http://www.w3.org/1999/xlink" x="0px" y="0px"
	 viewBox="0 0 37.9 36.9" style="enable-background:new 0 0 37.9 36.9;" xml:space="preserve">
<style type="text/css">
	.st0{fill:#FFFFFF;}
</style>
<g>
	<path class="st0" d="M18.7,0.2C8.9,0.2,0.8,8.2,0.8,18.1S8.9,36,18.7,36s17.9-8.1,17.9-17.9S28.7,0.2,18.7,0.2z M32.7,26.9
		c0,1.6-1.2,2.8-2.8,2.8c-0.1,0-0.1,0-0.1,0h-21v-0.1c-3-0.4-5.4-3.1-5.4-6.3c0-2.8,1.8-5,4.3-5.9v-0.1c0-4.8,3.9-8.7,8.7-8.7
		c4.6,0,8.3,3.5,8.7,7.8c0.4-0.1,1-0.2,1.5-0.2c3,0,5.4,2.5,5.4,5.4c0,1-0.2,2-0.8,2.8C32.2,24.8,32.8,25.8,32.7,26.9z M28.4,13.9
		c-1.9-1-2.7-3.5-1.6-5.5c0.6-1.1,1.6-1.8,2.6-2c0,0.2-0.1,0.3-0.2,0.4c-1.1,1.9-0.4,4.4,1.6,5.5c1,0.4,2,0.6,3,0.3
		C32.6,14.3,30.4,14.8,28.4,13.9z"/>
	<polygon class="st0" points="19.8,20.4 19.8,15.4 14.8,15.4 14.8,20.4 10.3,20.4 17.3,27.5 24.3,20.4 	"/>
</g>
</svg>
