<?xml version="1.0" encoding="utf-8"?>
<!-- Generator: Adobe Illustrator 23.0.4, SVG Export Plug-In . SVG Version: 6.00 Build 0)  -->
<svg version="1.1" id="Layer_1" xmlns="http://www.w3.org/2000/svg" xmlns:xlink="http://www.w3.org/1999/xlink" x="0px" y="0px"
	 viewBox="0 0 142.8 47" style="enable-background:new 0 0 142.8 47;" xml:space="preserve">
<style type="text/css">
	.st0{fill:#FFFFFF;}
	.st1{fill:#6DCEF5;}
	.st2{fill:#00BCF1;}
	.st3{fill:#F69451;}
	.st4{fill:#F4824E;}
	.st5{fill:#9C97C9;}
	.st6{fill:#B6A9A6;}
	.st7{fill:#FFDD00;}
	.st8{fill:#FBAE17;}
	.st9{fill:#A5CD39;}
	.st10{fill:#98C93C;}
	.st11{fill:#B1A335;}
	.st12{fill:#BED630;}
</style>
<g>
	<g>
		<g>
			<path class="st0" d="M132.6,20.1c-0.3-0.2-0.6-0.3-1-0.4s-0.8-0.1-1.2-0.1c-0.3,0-0.6,0-0.9,0s-0.5,0-0.7,0.1v5.2
				c0.1,0,0.2,0,0.3,0s0.3,0,0.4,0c0.1,0,0.3,0,0.4,0c0.1,0,0.2,0,0.3,0c0.4,0,0.8,0,1.2-0.1s0.8-0.2,1.1-0.4
				c0.3-0.2,0.6-0.5,0.8-0.9s0.3-0.8,0.3-1.4c0-0.5-0.1-0.9-0.3-1.2C133.2,20.6,132.9,20.3,132.6,20.1z"/>
			<path class="st0" d="M130.9,15.1L130.9,15.1L130.9,15.1h-21V20v14.9l0,0h21l0,0l0,0c5.5,0,9.9-4.4,9.9-9.9S136.4,15.1,130.9,15.1
				z M121.4,33.1l-4.7-6.8h-0.8v6.8h-3.1v-16h3.1v7.1l0.7-0.3l4.4-6.7h3.6l-4.6,6.7l-1.2,0.9l1.3,0.9l5.3,7.5h-4
				C121.4,33.2,121.4,33.1,121.4,33.1z M136.4,24.7c-0.3,0.7-0.8,1.3-1.4,1.7c-0.6,0.4-1.2,0.8-2,1c-0.7,0.2-1.5,0.3-2.3,0.3
				c-0.1,0-0.2,0-0.4,0s-0.3,0-0.5,0s-0.4,0-0.5,0c-0.2,0-0.3,0-0.4,0v5.5h-3.1V17.3c0.6-0.1,1.3-0.2,2.1-0.3
				c0.8-0.1,1.5-0.1,2.3-0.1s1.6,0.1,2.4,0.2s1.5,0.4,2.2,0.8c0.6,0.4,1.2,0.9,1.6,1.6c0.4,0.7,0.6,1.6,0.6,2.7
				C136.9,23.2,136.7,24,136.4,24.7z"/>
		</g>
	</g>
</g>
<g>
	<g>
		<polygon class="st1" points="3.3,24.5 3.3,44 3.4,44 8.1,22.1 		"/>
		<polygon class="st2" points="25.6,32.4 29.3,27.7 17.7,17.1 12,20.1 		"/>
		<path class="st3" d="M3.3,3.9L3.3,3.9L3.3,3.9z"/>
		<polygon class="st4" points="17.7,17.1 29.3,27.7 43.4,9.3 43.4,3.9 		"/>
		<polygon class="st5" points="9.1,17.5 12,20.1 17.7,17.1 3.3,3.9 3.3,24.5 8.1,22.1 		"/>
		<polygon class="st6" points="43.4,3.9 3.3,3.9 3.3,3.9 17.7,17.1 		"/>
		<polygon class="st7" points="25.6,32.4 38.5,44 43.4,44 43.4,40.6 29.3,27.7 		"/>
		<polygon class="st8" points="43.4,40.6 43.4,9.3 29.3,27.7 		"/>
		<polygon class="st9" points="3.4,44 3.4,44 38.5,44 38.5,44 16.6,44 		"/>
		<polygon class="st10" points="25.6,32.4 12,20.1 8.1,22.1 3.4,44 16.6,44 		"/>
		<polygon class="st11" points="8.1,22.1 12,20.1 9.1,17.5 		"/>
		<polygon class="st12" points="16.6,44 38.5,44 25.6,32.4 		"/>
	</g>
	<g>
		<path class="st0" d="M23.4,11.8c-1.4,0-2.5,1.1-2.5,2.5c0,0.4,0.1,0.8,0.3,1.1l-7.1,12.3c-0.6-0.2-1.2-0.3-1.8-0.3
			c-3.4,0-6.2,2.8-6.2,6.2s2.8,6.2,6.2,6.2c1.7,0,3.3-0.7,4.4-1.8L15,36.5c-0.7,0.7-1.7,1.2-2.8,1.2c-2.2,0-4-1.8-4-4s1.8-4,4-4
			c1.2,0,2.3,0.6,3.1,1.5l1.2-2l7.1-12.4c1.3-0.1,2.3-1.2,2.3-2.5C25.9,12.9,24.7,11.8,23.4,11.8z"/>
		<path class="st0" d="M34.7,31.1l-7.1-12.3c1.2-1.1,2-2.7,2-4.5c0-3.4-2.8-6.2-6.2-6.2s-6.2,2.8-6.2,6.2c0,0.6,0.1,1.1,0.2,1.6
			l2.2-0.6c-0.1-0.3-0.1-0.7-0.1-1c0-2.2,1.8-4,4-4s4,1.8,4,4c0,2-1.5,3.6-3.4,3.9l1.2,2l7.1,12.4c-0.2,0.3-0.2,0.7-0.2,1.1
			c0,1.4,1.1,2.5,2.5,2.5s2.5-1.1,2.5-2.5C37.1,32.3,36,31.2,34.7,31.1z"/>
		<path class="st0" d="M36.1,27.7l-0.6,2.2c1.7,0.5,2.9,2,2.9,3.8c0,2.2-1.8,4-4,4s-4-1.8-4-4c0-0.5,0.1-1,0.3-1.4h-2.3H14.3
			c-0.5-0.7-1.2-1.1-2.1-1.1c-1.4,0-2.5,1.1-2.5,2.5c0,1.4,1.1,2.5,2.5,2.5c0.9,0,1.6-0.4,2.1-1.1h14.3c0.6,2.7,3.1,4.8,6,4.8
			c3.4,0,6.2-2.8,6.2-6.2C40.7,30.8,38.8,28.4,36.1,27.7z"/>
	</g>
</g>
<g>
	<path class="st0" d="M66.7,33.8c-0.6,0.4-1.3,0.7-2.2,0.9c-0.9,0.2-1.8,0.3-2.8,0.3c-1.2,0-2.3-0.2-3.4-0.6c-1-0.4-2-1-2.7-1.9
		c-0.8-0.8-1.4-1.9-1.9-3.2C53.2,28,53,26.5,53,24.7c0-1.9,0.3-3.4,0.8-4.8c0.5-1.3,1.2-2.4,2-3.2c0.8-0.8,1.8-1.4,2.8-1.8
		c1-0.4,2.1-0.6,3.1-0.6c1.1,0,2.1,0.1,2.8,0.2c0.7,0.1,1.3,0.3,1.9,0.5l-0.6,2.1c-0.9-0.5-2.2-0.7-3.9-0.7c-0.8,0-1.6,0.1-2.3,0.4
		c-0.8,0.3-1.4,0.8-2,1.4s-1.1,1.5-1.4,2.5c-0.4,1-0.5,2.3-0.5,3.9c0,1.4,0.2,2.6,0.5,3.6s0.8,1.9,1.4,2.6c0.6,0.7,1.3,1.2,2.1,1.5
		s1.7,0.5,2.6,0.5c0.9,0,1.6-0.1,2.2-0.3c0.6-0.2,1.2-0.4,1.6-0.7L66.7,33.8z"/>
	<path class="st0" d="M85.2,21.2l0.3-3h-0.1l-1.1,2.7L79,30h-0.7l-5.5-9l-1-2.7h-0.1l0.4,3v13.4h-2.2v-20h1.8l6.2,10.2l0.9,2.2h0.1
		l0.9-2.3l6-10.2h1.9v20h-2.4V21.2H85.2z"/>
	<path class="st0" d="M92,14.6c0.4-0.1,0.8-0.1,1.2-0.1c0.4,0,0.9,0,1.4-0.1c0.5,0,1,0,1.4,0c0.5,0,0.9,0,1.3,0c1.6,0,3,0.2,4.2,0.7
		s2.1,1.2,2.9,2.1s1.3,1.9,1.7,3.2c0.4,1.2,0.6,2.6,0.6,4.1c0,1.4-0.2,2.6-0.5,3.9c-0.4,1.2-0.9,2.3-1.7,3.3c-0.8,1-1.7,1.7-3,2.3
		c-1.2,0.6-2.7,0.9-4.4,0.9c-0.3,0-0.7,0-1.2,0s-1,0-1.5-0.1c-0.5,0-1-0.1-1.4-0.1s-0.8,0-0.9-0.1L92,14.6L92,14.6z M97.4,16.5
		c-0.2,0-0.5,0-0.8,0s-0.6,0-0.9,0s-0.5,0-0.8,0.1c-0.2,0-0.4,0-0.6,0.1v16c0.1,0,0.3,0,0.5,0c0.3,0,0.5,0,0.8,0s0.6,0,0.8,0
		c0.3,0,0.4,0,0.5,0c1.3,0,2.4-0.2,3.4-0.7c0.9-0.5,1.6-1.1,2.2-1.8c0.5-0.8,0.9-1.7,1.2-2.7c0.2-1,0.3-2,0.3-3.1
		c0-0.9-0.1-1.9-0.3-2.8c-0.2-0.9-0.6-1.8-1.1-2.6c-0.5-0.8-1.2-1.4-2.1-1.9C99.8,16.8,98.7,16.5,97.4,16.5z"/>
</g>
</svg>
