<?xml version="1.0" encoding="utf-8"?>
<!-- Generator: Adobe Illustrator 23.0.4, SVG Export Plug-In . SVG Version: 6.00 Build 0)  -->
<svg version="1.1" id="Layer_1" xmlns="http://www.w3.org/2000/svg" xmlns:xlink="http://www.w3.org/1999/xlink" x="0px" y="0px"
	 viewBox="0 0 131.1 47" style="enable-background:new 0 0 131.1 47;" xml:space="preserve">
<style type="text/css">
	.st0{fill:#FFFFFF;}
</style>
<g>
	<g>
		<path class="st0" d="M3.5,4.3v19.6v19.6h39.1V4.3H3.5z M23,8.4c3.3,0,6,2.7,6,6c0,1.7-0.7,3.3-1.9,4.4l6.9,12
			c1.3,0.1,2.3,1.2,2.3,2.4c0,1.4-1.1,2.5-2.5,2.5c-1.4,0-2.5-1.1-2.5-2.5c0-0.4,0.1-0.7,0.2-1.1l-6.9-12l-1.1-2
			c1.9-0.3,3.3-1.9,3.3-3.8c0-2.1-1.7-3.9-3.9-3.9c-2.1,0-3.9,1.7-3.9,3.9c0,0.3,0,0.7,0.1,1L17.2,16c-0.1-0.5-0.2-1-0.2-1.6
			C17,11.1,19.7,8.4,23,8.4z M12.2,39.3c-3.3,0-6-2.7-6-6s2.7-6,6-6c0.6,0,1.2,0.1,1.7,0.3l6.9-12c-0.2-0.3-0.3-0.7-0.3-1.1
			c0-1.4,1.1-2.5,2.5-2.5c1.4,0,2.5,1.1,2.5,2.5c0,1.3-1,2.3-2.2,2.4l-6.9,12l-1.1,1.9c-0.7-0.9-1.8-1.4-3-1.4
			c-2.1,0-3.9,1.7-3.9,3.9c0,2.1,1.7,3.9,3.9,3.9c1.1,0,2-0.4,2.7-1.1l1.5,1.5C15.3,38.6,13.8,39.3,12.2,39.3z M33.9,39.3
			c-2.8,0-5.2-2-5.9-4.6H14.2c-0.4,0.6-1.2,1.1-2,1.1c-1.4,0-2.5-1.1-2.5-2.5c0-1.4,1.1-2.5,2.5-2.5c0.8,0,1.6,0.4,2,1.1H28h2.3
			c-0.2,0.4-0.3,0.9-0.3,1.4c0,2.1,1.7,3.9,3.9,3.9c2.1,0,3.9-1.7,3.9-3.9c0-1.8-1.2-3.3-2.8-3.7l0.6-2.1c2.6,0.7,4.5,3,4.5,5.8
			C39.9,36.6,37.2,39.3,33.9,39.3z"/>
	</g>
	<g>
		<g>
			<path class="st0" d="M118.9,20.1c-0.3-0.2-0.6-0.3-1-0.4c-0.4-0.1-0.8-0.1-1.2-0.1c-0.3,0-0.6,0-0.9,0c-0.3,0-0.5,0-0.7,0.1v5.2
				c0.1,0,0.2,0,0.3,0c0.1,0,0.3,0,0.4,0c0.1,0,0.3,0,0.4,0s0.2,0,0.3,0c0.4,0,0.8,0,1.2-0.1c0.4-0.1,0.8-0.2,1.1-0.4
				c0.3-0.2,0.6-0.5,0.8-0.9c0.2-0.4,0.3-0.8,0.3-1.4c0-0.5-0.1-0.9-0.3-1.2C119.5,20.6,119.2,20.3,118.9,20.1z"/>
			<path class="st0" d="M117.2,15.1C117.2,15.1,117.2,15.1,117.2,15.1L117.2,15.1h-21v4.9v14.9l0,0h21v0c0,0,0,0,0,0
				c5.5,0,9.9-4.4,9.9-9.9S122.7,15.1,117.2,15.1z M107.7,33.1l-4.7-6.8h-0.8v6.8h-3.1V17.1h3.1v7.1l0.7-0.3l4.4-6.7h3.6l-4.6,6.7
				l-1.2,0.9l1.3,0.9l5.3,7.5H107.7z M122.7,24.7c-0.3,0.7-0.8,1.3-1.4,1.7c-0.6,0.4-1.2,0.8-2,1c-0.7,0.2-1.5,0.3-2.3,0.3
				c-0.1,0-0.2,0-0.4,0c-0.2,0-0.3,0-0.5,0c-0.2,0-0.4,0-0.5,0c-0.2,0-0.3,0-0.4,0v5.5h-3.1V17.3c0.6-0.1,1.3-0.2,2.1-0.3
				c0.8-0.1,1.5-0.1,2.3-0.1c0.8,0,1.6,0.1,2.4,0.2c0.8,0.1,1.5,0.4,2.2,0.8c0.6,0.4,1.2,0.9,1.6,1.6c0.4,0.7,0.6,1.6,0.6,2.7
				C123.2,23.2,123,24,122.7,24.7z"/>
		</g>
		<g>
			<path class="st0" d="M69.8,21.3l0.3-3H70L68.9,21l-5.2,9H63l-5.5-9l-1-2.7h-0.1l0.4,3v13.4h-2.2V14.7h1.8l6.2,10.2l0.9,2.2h0.1
				l0.9-2.3l6-10.1h1.9v19.9h-2.4V21.3z"/>
			<path class="st0" d="M76.8,14.7c0.4-0.1,0.8-0.1,1.2-0.1c0.4,0,0.9,0,1.4-0.1c0.5,0,1,0,1.4,0s0.9,0,1.3,0c1.6,0,3,0.2,4.1,0.7
				c1.2,0.5,2.1,1.2,2.9,2.1c0.8,0.9,1.3,1.9,1.7,3.2c0.4,1.2,0.6,2.6,0.6,4.1c0,1.3-0.2,2.6-0.5,3.9c-0.4,1.2-0.9,2.3-1.7,3.3
				c-0.8,1-1.7,1.7-3,2.3c-1.2,0.6-2.7,0.9-4.4,0.9c-0.3,0-0.7,0-1.2,0s-1,0-1.5-0.1s-1-0.1-1.4-0.1c-0.4,0-0.8,0-0.9-0.1V14.7z
				 M82.2,16.6c-0.2,0-0.5,0-0.8,0c-0.3,0-0.6,0-0.9,0c-0.3,0-0.5,0-0.8,0.1c-0.2,0-0.4,0-0.6,0.1v16c0.1,0,0.3,0,0.5,0
				c0.3,0,0.5,0,0.8,0s0.6,0,0.8,0c0.3,0,0.4,0,0.5,0c1.3,0,2.4-0.2,3.3-0.7c0.9-0.5,1.6-1.1,2.2-1.8c0.5-0.8,0.9-1.7,1.2-2.7
				c0.2-1,0.3-2,0.3-3.1c0-0.9-0.1-1.9-0.3-2.8c-0.2-0.9-0.6-1.8-1.1-2.6c-0.5-0.8-1.2-1.4-2.1-1.9C84.6,16.9,83.5,16.6,82.2,16.6z"
				/>
		</g>
	</g>
</g>
</svg>
