<?xml version="1.0" encoding="utf-8"?>
<!-- Generator: Adobe Illustrator 23.0.4, SVG Export Plug-In . SVG Version: 6.00 Build 0)  -->
<svg version="1.1" id="Layer_1" xmlns="http://www.w3.org/2000/svg" xmlns:xlink="http://www.w3.org/1999/xlink" x="0px" y="0px"
	 viewBox="0 0 510.7 122.7" style="enable-background:new 0 0 510.7 122.7;" xml:space="preserve">
<style type="text/css">
	.st0{fill:#FFFFFF;}
	.st1{fill:#6DCEF5;}
	.st2{fill:#00BCF1;}
	.st3{fill:#F69451;}
	.st4{fill:#F4824E;}
	.st5{fill:#9C97C9;}
	.st6{fill:#B6A9A6;}
	.st7{fill:#FFDD00;}
	.st8{fill:#FBAE17;}
	.st9{fill:#A5CD39;}
	.st10{fill:#98C93C;}
	.st11{fill:#B1A335;}
	.st12{fill:#BED630;}
</style>
<g>
	<g>
		<g>
			<path class="st0" d="M162.5,39.7l0.4-3.8h-0.2l-1.4,3.5l-6.6,11.4h-0.9l-6.9-11.4l-1.3-3.4h-0.2l0.5,3.7v17h-2.8V31.5h2.2
				l7.9,12.9l1.2,2.8h0.1l1.1-2.9l7.5-12.8h2.3v25.2h-3L162.5,39.7L162.5,39.7z"/>
			<path class="st0" d="M171.2,31.5h13.7v2.7h-10.7v8.2h9.8V45h-9.8v9h10.9v2.7h-13.9V31.5z"/>
			<path class="st0" d="M206.9,34.1H199v22.5h-3V34.1h-7.8v-2.7h18.7V34.1z"/>
			<path class="st0" d="M219.8,49.7h-9.2l-2.5,7h-3l9.5-25.6h1.4l9.6,25.6h-3.2L219.8,49.7z M211.5,47.1h7.4l-2.8-7.7l-0.9-3.8l0,0
				l-0.9,3.9L211.5,47.1z"/>
			<path class="st0" d="M244.1,37.2c0,0.6-0.1,1.2-0.3,1.8s-0.5,1.2-0.9,1.7s-0.9,1-1.5,1.4s-1.3,0.7-2.1,0.9v0.1
				c0.7,0.1,1.4,0.3,2.1,0.6s1.2,0.7,1.7,1.2s0.9,1.1,1.2,1.8s0.5,1.6,0.5,2.6c0,1.3-0.3,2.4-0.8,3.4c-0.5,0.9-1.2,1.7-2.1,2.3
				c-0.9,0.6-1.9,1-3,1.3s-2.3,0.4-3.5,0.4c-0.4,0-0.9,0-1.4,0c-0.6,0-1.1,0-1.7-0.1c-0.6,0-1.2-0.1-1.8-0.1
				c-0.6-0.1-1.1-0.1-1.6-0.3V31.7c0.9-0.1,1.9-0.3,3.1-0.4s2.5-0.1,3.9-0.1c0.9,0,1.9,0.1,2.9,0.2c1,0.2,1.9,0.5,2.6,0.9
				s1.4,1.1,2,1.9C243.8,35,244.1,36,244.1,37.2z M233.7,42.6c0.4,0,0.9,0,1.5,0s1.1-0.1,1.4-0.1c0.6-0.2,1.1-0.4,1.6-0.7
				s1-0.6,1.4-1s0.7-0.8,0.9-1.3s0.3-1,0.3-1.6c0-0.8-0.2-1.4-0.5-2c-0.3-0.5-0.7-0.9-1.2-1.2s-1.1-0.5-1.7-0.7
				c-0.6-0.1-1.3-0.2-2-0.2c-0.8,0-1.5,0-2.2,0.1c-0.7,0-1.2,0.1-1.5,0.2v8.6L233.7,42.6L233.7,42.6z M235.7,54.4
				c0.8,0,1.5-0.1,2.2-0.3s1.4-0.5,1.9-0.9c0.6-0.4,1-0.9,1.3-1.5s0.5-1.3,0.5-2.1c0-1-0.2-1.8-0.6-2.4c-0.4-0.6-0.9-1.1-1.5-1.4
				c-0.6-0.3-1.4-0.6-2.1-0.7c-0.8-0.1-1.6-0.2-2.4-0.2h-3.1v9c0.2,0,0.4,0.1,0.7,0.1s0.6,0,1,0.1c0.4,0,0.7,0,1.1,0.1
				C235.1,54.4,235.4,54.4,235.7,54.4z"/>
			<path class="st0" d="M248.4,44.1c0-4.2,0.9-7.4,2.7-9.7c1.8-2.2,4.3-3.4,7.6-3.4c1.8,0,3.3,0.3,4.6,0.9c1.3,0.6,2.4,1.5,3.2,2.6
				c0.9,1.1,1.5,2.5,1.9,4.1s0.6,3.4,0.6,5.3c0,4.2-0.9,7.4-2.7,9.7c-1.8,2.2-4.3,3.4-7.7,3.4c-1.8,0-3.3-0.3-4.6-0.9
				c-1.3-0.6-2.4-1.5-3.2-2.6c-0.9-1.1-1.5-2.5-1.9-4.1C248.6,47.8,248.4,46,248.4,44.1z M251.6,44.1c0,1.4,0.1,2.7,0.4,4
				c0.3,1.2,0.7,2.3,1.3,3.3s1.3,1.7,2.2,2.3s2,0.8,3.2,0.8c2.2,0,4-0.8,5.3-2.5s1.9-4.3,1.9-7.8c0-1.4-0.1-2.7-0.4-3.9
				s-0.7-2.4-1.3-3.3c-0.6-0.9-1.3-1.7-2.2-2.3c-0.9-0.6-2-0.8-3.2-0.8c-2.2,0-3.9,0.8-5.2,2.5C252.2,37.9,251.6,40.5,251.6,44.1z"
				/>
			<path class="st0" d="M288.6,56.7h-14.9V31.5h3V54h11.9V56.7z"/>
			<path class="st0" d="M292.5,31.5h3v25.2h-3V31.5z"/>
			<path class="st0" d="M317.7,55.6c-0.7,0.6-1.6,0.9-2.7,1.2c-1.1,0.2-2.3,0.3-3.5,0.3c-1.5,0-2.9-0.3-4.2-0.8s-2.5-1.3-3.5-2.4
				c-1-1.1-1.8-2.4-2.3-4c-0.6-1.6-0.9-3.6-0.9-5.8c0-2.4,0.3-4.3,1-6c0.6-1.6,1.5-3,2.5-4s2.2-1.8,3.5-2.3s2.6-0.7,4-0.7
				s2.6,0.1,3.5,0.2c0.9,0.2,1.7,0.4,2.3,0.6l-0.7,2.7c-1.2-0.6-2.8-0.9-4.9-0.9c-1,0-2,0.2-2.9,0.5s-1.8,0.9-2.6,1.8
				c-0.8,0.8-1.4,1.9-1.8,3.2c-0.5,1.3-0.7,2.9-0.7,4.9c0,1.7,0.2,3.2,0.6,4.5s1,2.4,1.8,3.2c0.8,0.9,1.6,1.5,2.7,1.9
				c1,0.4,2.1,0.6,3.3,0.6c1.1,0,2-0.1,2.8-0.3s1.5-0.5,2-0.8L317.7,55.6z"/>
			<path class="st0" d="M331.7,31.5c0.5-0.1,1-0.1,1.5-0.2c0.6,0,1.2-0.1,1.8-0.1c0.6,0,1.2,0,1.8,0c0.6,0,1.1,0,1.6,0
				c2,0,3.8,0.3,5.2,0.9c1.5,0.6,2.7,1.5,3.7,2.6s1.7,2.5,2.1,4c0.5,1.6,0.7,3.3,0.7,5.1c0,1.7-0.2,3.3-0.7,4.9
				c-0.4,1.6-1.1,3-2.1,4.2s-2.2,2.2-3.7,2.9s-3.4,1.1-5.6,1.1c-0.4,0-0.9,0-1.5,0s-1.2,0-1.9-0.1c-0.6,0-1.2-0.1-1.8-0.1
				c-0.6,0-0.9-0.1-1.2-0.1V31.5H331.7z M338.5,33.8c-0.3,0-0.7,0-1,0s-0.7,0-1.1,0s-0.7,0-1,0.1c-0.3,0-0.5,0-0.7,0.1v20.2
				c0.1,0,0.3,0,0.7,0.1c0.3,0,0.7,0,1,0c0.4,0,0.7,0,1,0s0.6,0,0.7,0c1.7,0,3.1-0.3,4.2-0.9c1.1-0.6,2.1-1.3,2.7-2.3
				c0.7-1,1.2-2.1,1.5-3.3c0.3-1.3,0.4-2.6,0.4-3.9c0-1.2-0.1-2.4-0.4-3.5c-0.3-1.2-0.7-2.3-1.4-3.2c-0.6-1-1.5-1.7-2.6-2.4
				C341.6,34.1,340.2,33.8,338.5,33.8z"/>
			<path class="st0" d="M355.1,31.5h3v25.2h-3V31.5z"/>
			<path class="st0" d="M375.3,50.3c0-1-0.3-1.8-0.9-2.5c-0.6-0.6-1.4-1.2-2.2-1.7c-0.9-0.5-1.9-1-2.9-1.4c-1.1-0.4-2-1-2.9-1.6
				s-1.7-1.4-2.2-2.3c-0.6-0.9-0.9-2-0.9-3.4c0-2,0.7-3.5,2.1-4.7s3.3-1.7,5.8-1.7c1.5,0,2.8,0.1,4,0.3c1.2,0.2,2.1,0.5,2.8,0.8
				l-0.9,2.7c-0.6-0.3-1.4-0.5-2.4-0.8c-1.1-0.2-2.3-0.4-3.6-0.4c-1.6,0-2.8,0.4-3.6,1.1s-1.2,1.5-1.2,2.5c0,0.9,0.3,1.7,0.9,2.3
				s1.3,1.2,2.2,1.7c0.9,0.5,1.9,1,2.9,1.5c1.1,0.5,2,1,2.9,1.7c0.9,0.6,1.6,1.4,2.2,2.3c0.6,0.9,0.9,2,0.9,3.3
				c0,1.1-0.2,2.1-0.6,2.9c-0.4,0.9-0.9,1.6-1.7,2.2c-0.7,0.6-1.6,1.1-2.7,1.4c-1.1,0.3-2.3,0.5-3.6,0.5c-1.8,0-3.3-0.1-4.5-0.4
				c-1.2-0.3-2.1-0.6-2.7-0.9l1-2.7c0.6,0.3,1.4,0.6,2.4,0.9s2.3,0.4,3.6,0.4c0.8,0,1.5-0.1,2.2-0.2c0.7-0.2,1.3-0.4,1.8-0.8
				s0.9-0.8,1.2-1.3C375.1,51.6,375.3,51,375.3,50.3z"/>
			<path class="st0" d="M381.6,44.1c0-4.2,0.9-7.4,2.7-9.7s4.3-3.4,7.6-3.4c1.8,0,3.3,0.3,4.6,0.9c1.3,0.6,2.4,1.5,3.2,2.6
				c0.9,1.1,1.5,2.5,1.9,4.1s0.6,3.4,0.6,5.3c0,4.2-0.9,7.4-2.7,9.7s-4.3,3.4-7.6,3.4c-1.8,0-3.3-0.3-4.6-0.9s-2.4-1.5-3.2-2.6
				s-1.5-2.5-1.9-4.1C381.8,47.8,381.6,46,381.6,44.1z M384.8,44.1c0,1.4,0.1,2.7,0.4,4c0.3,1.2,0.7,2.3,1.3,3.3s1.3,1.7,2.2,2.3
				c0.9,0.6,2,0.8,3.2,0.8c2.2,0,4-0.8,5.3-2.5s1.9-4.3,1.9-7.8c0-1.4-0.1-2.7-0.4-3.9c-0.3-1.3-0.7-2.4-1.3-3.3
				c-0.6-0.9-1.3-1.7-2.2-2.3c-0.9-0.6-2-0.8-3.2-0.8c-2.2,0-3.9,0.8-5.2,2.5S384.8,40.5,384.8,44.1z"/>
			<path class="st0" d="M406.9,31.7c0.9-0.2,2-0.3,3.2-0.4s2.3-0.1,3.3-0.1c1.1,0,2.2,0.1,3.2,0.4c1,0.2,1.9,0.6,2.6,1.2
				s1.4,1.3,1.8,2.2c0.5,0.9,0.7,2,0.7,3.2c0,2-0.5,3.6-1.6,4.8s-2.4,2-4.1,2.4l1.7,1.3l6.3,10h-3.5l-6.9-10.9l-3.5-0.5v11.4h-3v-25
				H406.9z M413.4,33.8c-0.3,0-0.6,0-1,0c-0.3,0-0.7,0-1,0s-0.6,0-0.9,0.1c-0.3,0-0.5,0.1-0.7,0.1v9.3h2.8c1.7,0,3-0.4,4.1-1.2
				s1.6-2.1,1.6-3.8c0-1.3-0.4-2.4-1.3-3.2C416.2,34.2,415,33.8,413.4,33.8z"/>
			<path class="st0" d="M427.8,31.5c0.5-0.1,1-0.1,1.5-0.2c0.6,0,1.2-0.1,1.8-0.1c0.6,0,1.2,0,1.8,0c0.6,0,1.1,0,1.6,0
				c2,0,3.8,0.3,5.2,0.9c1.5,0.6,2.7,1.5,3.7,2.6s1.7,2.5,2.1,4c0.5,1.6,0.7,3.3,0.7,5.1c0,1.7-0.2,3.3-0.7,4.9
				c-0.4,1.6-1.1,3-2.1,4.2s-2.2,2.2-3.7,2.9s-3.4,1.1-5.6,1.1c-0.4,0-0.9,0-1.5,0s-1.2,0-1.9-0.1c-0.6,0-1.2-0.1-1.8-0.1
				c-0.6,0-0.9-0.1-1.2-0.1V31.5H427.8z M434.6,33.8c-0.3,0-0.7,0-1,0s-0.7,0-1.1,0s-0.7,0-1,0.1c-0.3,0-0.5,0-0.7,0.1v20.2
				c0.1,0,0.3,0,0.7,0.1c0.3,0,0.7,0,1,0c0.4,0,0.7,0,1,0s0.6,0,0.7,0c1.7,0,3.1-0.3,4.2-0.9c1.1-0.6,2.1-1.3,2.7-2.3
				c0.7-1,1.2-2.1,1.5-3.3c0.3-1.3,0.4-2.6,0.4-3.9c0-1.2-0.1-2.4-0.4-3.5c-0.3-1.2-0.7-2.3-1.4-3.2c-0.6-1-1.5-1.7-2.6-2.4
				C437.7,34.1,436.3,33.8,434.6,33.8z"/>
			<path class="st0" d="M450.9,31.5h13.7v2.7h-10.7v8.2h9.8V45h-9.8v9h10.9v2.7h-13.9V31.5z"/>
			<path class="st0" d="M469.2,31.7c0.9-0.2,2-0.3,3.2-0.4s2.3-0.1,3.3-0.1c1.1,0,2.2,0.1,3.2,0.4c1,0.2,1.9,0.6,2.6,1.2
				s1.4,1.3,1.8,2.2c0.5,0.9,0.7,2,0.7,3.2c0,2-0.5,3.6-1.6,4.8s-2.4,2-4.1,2.4l1.7,1.3l6.3,10h-3.5l-6.9-10.9l-3.5-0.5v11.4h-3v-25
				H469.2z M475.7,33.8c-0.3,0-0.6,0-1,0c-0.3,0-0.7,0-1,0s-0.6,0-0.9,0.1c-0.3,0-0.5,0.1-0.7,0.1v9.3h2.8c1.7,0,3-0.4,4.1-1.2
				s1.6-2.1,1.6-3.8c0-1.3-0.4-2.4-1.3-3.2C478.5,34.2,477.3,33.8,475.7,33.8z"/>
			<path class="st0" d="M502.1,50.3c0-1-0.3-1.8-0.9-2.5c-0.6-0.6-1.4-1.2-2.2-1.7c-0.9-0.5-1.9-1-2.9-1.4c-1.1-0.4-2-1-2.9-1.6
				s-1.7-1.4-2.2-2.3c-0.6-0.9-0.9-2-0.9-3.4c0-2,0.7-3.5,2.1-4.7s3.3-1.7,5.8-1.7c1.5,0,2.8,0.1,4,0.3c1.2,0.2,2.1,0.5,2.8,0.8
				l-0.9,2.7c-0.6-0.3-1.4-0.5-2.4-0.8c-1.1-0.2-2.3-0.4-3.6-0.4c-1.6,0-2.8,0.4-3.6,1.1s-1.2,1.5-1.2,2.5c0,0.9,0.3,1.7,0.9,2.3
				s1.3,1.2,2.2,1.7c0.9,0.5,1.9,1,2.9,1.5c1.1,0.5,2,1,2.9,1.7c0.9,0.6,1.6,1.4,2.2,2.3c0.6,0.9,0.9,2,0.9,3.3
				c0,1.1-0.2,2.1-0.6,2.9c-0.4,0.9-0.9,1.6-1.7,2.2c-0.7,0.6-1.6,1.1-2.7,1.4c-1.1,0.3-2.3,0.5-3.6,0.5c-1.8,0-3.3-0.1-4.5-0.4
				c-1.2-0.3-2.1-0.6-2.7-0.9l1-2.7c0.6,0.3,1.4,0.6,2.4,0.9s2.3,0.4,3.6,0.4c0.8,0,1.5-0.1,2.2-0.2c0.7-0.2,1.3-0.4,1.8-0.8
				s0.9-0.8,1.2-1.3C501.9,51.6,502.1,51,502.1,50.3z"/>
		</g>
		<g>
			<g>
				<path class="st0" d="M147.8,83.6h-1.1v9h-4.1v-21h4.1v9.3l1-0.4l5.8-8.9h4.7l-6.1,8.8l-1.6,1.1l1.7,1.2l7,9.9H154L147.8,83.6z"
					/>
				<path class="st0" d="M166.2,81.6l-1.6-3.3h-0.1l0.5,3.3v11h-3.9V71.4h3l8,11.2l1.6,3.2h0.2l-0.5-3.2v-11h3.9v21.1h-3L166.2,81.6
					z"/>
				<path class="st0" d="M179.7,82.1c0-3.5,0.8-6.2,2.3-8.1s3.7-2.8,6.6-2.8c1.5,0,2.8,0.3,3.9,0.8c1.1,0.5,2,1.3,2.8,2.2
					c0.7,1,1.3,2.1,1.6,3.4c0.4,1.3,0.5,2.8,0.5,4.5c0,3.5-0.8,6.2-2.3,8.1s-3.7,2.8-6.6,2.8c-1.5,0-2.8-0.3-4-0.8s-2-1.3-2.8-2.2
					c-0.7-1-1.3-2.1-1.6-3.5C179.9,85.2,179.7,83.7,179.7,82.1z M184,82.1c0,1.1,0.1,2,0.3,2.9s0.5,1.7,0.8,2.3
					c0.4,0.6,0.8,1.1,1.4,1.5s1.3,0.5,2.1,0.5c1.5,0,2.6-0.6,3.4-1.7c0.8-1.1,1.2-3,1.2-5.5c0-1-0.1-2-0.3-2.9s-0.4-1.6-0.8-2.3
					c-0.4-0.7-0.8-1.2-1.4-1.5c-0.6-0.4-1.3-0.6-2.1-0.6c-1.5,0-2.6,0.6-3.4,1.8C184.4,77.7,184,79.6,184,82.1z"/>
				<path class="st0" d="M205.1,83.3l0.4,3.7h0.1l0.4-3.8l3.7-11.7h2.7l3.6,11.7l0.4,3.7h0.1l0.5-3.8l2.5-11.7h4.2l-5.8,21.1h-2.8
					l-3.8-11.7l-0.5-3.2h-0.1l-0.5,3.2l-3.7,11.6h-2.9l-5.8-21.1h4.5L205.1,83.3z"/>
				<path class="st0" d="M238.7,92.6h-13.3v-21h4.1v17.3h9.2V92.6z"/>
				<path class="st0" d="M240.5,71.6H253v3.7h-8.3v4.9h7.6v3.7h-7.6V89h8.5v3.7h-12.6L240.5,71.6L240.5,71.6z"/>
				<path class="st0" d="M255.9,71.6c0.4-0.1,0.9-0.1,1.4-0.2c0.5,0,1.1-0.1,1.6-0.1c0.6,0,1.1,0,1.6,0s1,0,1.4,0
					c1.9,0,3.5,0.3,4.8,0.8s2.4,1.2,3.2,2.2c0.8,0.9,1.4,2.1,1.8,3.4s0.6,2.7,0.6,4.3c0,1.4-0.2,2.8-0.5,4.1c-0.4,1.3-1,2.5-1.8,3.5
					s-1.9,1.8-3.3,2.5c-1.4,0.6-3.1,0.9-5.1,0.9c-0.3,0-0.7,0-1.3,0c-0.5,0-1.1,0-1.6-0.1s-1.1-0.1-1.6-0.1s-0.9-0.1-1.2-0.1
					L255.9,71.6L255.9,71.6z M262.4,74.9c-0.4,0-0.9,0-1.3,0c-0.5,0-0.8,0-1,0.1v14.1c0.1,0,0.2,0,0.4,0c0.2,0,0.4,0,0.6,0
					s0.4,0,0.6,0s0.3,0,0.4,0c1.2,0,2.1-0.2,2.9-0.6s1.4-1,1.8-1.6c0.4-0.7,0.8-1.5,0.9-2.4c0.2-0.9,0.3-1.8,0.3-2.7
					c0-0.8-0.1-1.6-0.2-2.5s-0.5-1.6-0.9-2.2c-0.4-0.7-1-1.2-1.8-1.6C264.5,75.1,263.5,74.9,262.4,74.9z"/>
				<path class="st0" d="M282.4,81.6h7.8V91c-0.8,0.7-1.8,1.2-3,1.5s-2.3,0.5-3.5,0.5c-1.3,0-2.6-0.2-3.7-0.6c-1.2-0.4-2.1-1.1-3-2
					s-1.5-2-2-3.4s-0.7-3-0.7-4.9c0-2,0.3-3.7,0.9-5.1s1.3-2.5,2.2-3.4s2-1.5,3.1-1.9c1.2-0.4,2.3-0.6,3.5-0.6s2.3,0.1,3.2,0.3
					s1.6,0.4,2.2,0.6l-0.8,3.5c-0.5-0.2-1.1-0.4-1.7-0.5s-1.4-0.2-2.4-0.2c-0.9,0-1.7,0.1-2.4,0.4s-1.3,0.7-1.9,1.3
					c-0.5,0.6-0.9,1.3-1.2,2.3s-0.4,2-0.4,3.4c0,1.3,0.1,2.3,0.4,3.3s0.7,1.7,1.2,2.2s1.1,1,1.8,1.3s1.4,0.4,2.1,0.4
					c0.5,0,1-0.1,1.5-0.2s0.9-0.3,1.3-0.6v-4l-4.5-0.5V81.6z"/>
				<path class="st0" d="M293.1,71.6h12.5v3.7h-8.3v4.9h7.6v3.7h-7.6V89h8.5v3.7h-12.6V71.6H293.1z"/>
				<path class="st0" d="M315.9,71.8c0.8-0.2,1.8-0.3,2.8-0.4s2-0.1,3-0.1s2.1,0.1,3.1,0.3c1.1,0.2,2,0.5,2.8,1s1.5,1.2,2.1,2.1
					c0.5,0.9,0.8,2.1,0.8,3.6c0,1.3-0.2,2.4-0.7,3.3s-1.1,1.7-1.8,2.2s-1.6,1-2.6,1.3s-2,0.4-3,0.4c-0.1,0-0.3,0-0.5,0s-0.5,0-0.7,0
					s-0.5,0-0.7,0s-0.4,0-0.5-0.1v7.2h-4.1L315.9,71.8L315.9,71.8z M322,74.8c-0.4,0-0.8,0-1.1,0c-0.4,0-0.7,0.1-0.9,0.1v6.8
					c0.1,0,0.2,0,0.4,0.1c0.2,0,0.3,0,0.5,0s0.4,0,0.5,0s0.3,0,0.4,0c0.5,0,1.1,0,1.6-0.1s1-0.3,1.4-0.6c0.4-0.3,0.8-0.6,1-1.1
					s0.4-1.1,0.4-1.9c0-0.7-0.1-1.2-0.4-1.6c-0.2-0.4-0.6-0.8-0.9-1c-0.4-0.3-0.8-0.4-1.3-0.5C323.1,74.9,322.5,74.8,322,74.8z"/>
				<path class="st0" d="M332.1,82.1c0-3.5,0.8-6.2,2.3-8.1s3.7-2.8,6.6-2.8c1.5,0,2.8,0.3,3.9,0.8s2,1.3,2.8,2.2
					c0.7,1,1.3,2.1,1.7,3.4c0.4,1.3,0.5,2.8,0.5,4.5c0,3.5-0.8,6.2-2.3,8.1S343.9,93,341,93c-1.5,0-2.8-0.3-4-0.8s-2-1.3-2.8-2.2
					c-0.7-1-1.3-2.1-1.6-3.5C332.3,85.2,332.1,83.7,332.1,82.1z M336.5,82.1c0,1.1,0.1,2,0.3,2.9c0.2,0.9,0.5,1.7,0.8,2.3
					c0.4,0.6,0.8,1.1,1.4,1.5s1.3,0.5,2.1,0.5c1.5,0,2.6-0.6,3.4-1.7s1.2-3,1.2-5.5c0-1-0.1-2-0.3-2.9c-0.2-0.9-0.4-1.6-0.8-2.3
					c-0.4-0.7-0.8-1.2-1.4-1.5s-1.3-0.6-2.1-0.6c-1.5,0-2.6,0.6-3.4,1.8C336.9,77.7,336.5,79.6,336.5,82.1z"/>
				<path class="st0" d="M352.6,71.8c0.5-0.1,1-0.2,1.5-0.2c0.5-0.1,1.1-0.1,1.6-0.2c0.5,0,1-0.1,1.5-0.1s1,0,1.4,0
					c1,0,1.9,0.1,2.9,0.3c0.9,0.2,1.8,0.5,2.5,0.9c0.8,0.4,1.3,1,1.8,1.8s0.7,1.7,0.7,2.9c0,1.7-0.4,3.1-1.2,4.2s-1.9,1.8-3.2,2.2
					l1.5,0.9l4.8,8h-4.7l-4.8-8.2l-2.2-0.4v8.6h-4.1L352.6,71.8L352.6,71.8z M358.9,74.9c-0.4,0-0.8,0-1.2,0c-0.4,0-0.7,0.1-0.9,0.1
					v6.1h1.7c1.1,0,2-0.3,2.7-0.8s1-1.4,1-2.6c0-0.9-0.3-1.6-0.8-2.1C360.8,75.2,360,74.9,358.9,74.9z"/>
				<path class="st0" d="M384.9,75.2h-6.1v17.3h-4.1V75.2h-6.2v-3.7h16.4L384.9,75.2L384.9,75.2z"/>
				<path class="st0" d="M395,87.9h-6.5l-1.6,4.7h-4.1l7.6-21.2h3l7.6,21.2h-4.3L395,87.9z M389.6,84.6h4.5l-1.6-4.7l-0.6-3.3h-0.1
					l-0.6,3.3L389.6,84.6z"/>
				<path class="st0" d="M415.9,92.6h-13.3v-21h4.1v17.3h9.2L415.9,92.6L415.9,92.6z"/>
			</g>
		</g>
	</g>
</g>
<g>
	<g>
		<polygon class="st1" points="3.2,63.3 3.2,120.8 3.5,120.8 17.3,56.1 		"/>
		<polygon class="st2" points="68.9,86.5 79.7,72.6 45.7,41.5 28.7,50.3 		"/>
		<polygon class="st3" points="3.2,2.7 3.2,2.7 3.2,2.7 		"/>
		<polygon class="st4" points="45.7,41.5 79.7,72.6 121.4,18.7 121.4,2.7 		"/>
		<polygon class="st5" points="20.2,42.6 28.7,50.3 45.7,41.5 3.2,2.7 3.2,63.3 17.3,56.1 		"/>
		<polygon class="st6" points="121.4,2.7 3.2,2.7 3.2,2.7 45.7,41.5 		"/>
		<polygon class="st7" points="68.9,86.5 106.9,120.8 121.4,120.8 121.4,110.7 79.7,72.6 		"/>
		<polygon class="st8" points="121.4,110.7 121.4,18.7 79.7,72.6 		"/>
		<polygon class="st9" points="3.5,120.8 3.5,120.8 106.9,120.8 106.9,120.8 42.4,120.8 		"/>
		<polygon class="st10" points="68.9,86.5 28.7,50.3 17.3,56.1 3.5,120.8 42.4,120.8 		"/>
		<polygon class="st11" points="17.3,56.1 28.7,50.3 20.2,42.6 		"/>
		<polygon class="st12" points="42.4,120.8 106.9,120.8 68.9,86.5 		"/>
	</g>
	<g>
		<path class="st0" d="M62.3,25.8c-4.1,0-7.4,3.3-7.4,7.4c0,1.2,0.3,2.3,0.8,3.3l-21,36.3c-1.7-0.5-3.4-0.8-5.2-0.8
			c-10.1,0-18.2,8.2-18.2,18.2c0,10.1,8.2,18.2,18.2,18.2c5,0,9.6-2.1,12.9-5.4l-4.6-4.6c-2.1,2.1-5,3.4-8.2,3.4
			c-6.4,0-11.7-5.2-11.7-11.7c0-6.4,5.2-11.7,11.7-11.7c3.7,0,6.9,1.7,9.1,4.3l3.4-5.9l21-36.4c3.8-0.3,6.8-3.5,6.8-7.4
			C69.7,29.2,66.4,25.8,62.3,25.8z"/>
		<path class="st0" d="M95.7,82.9l-21-36.3c3.5-3.3,5.8-8,5.8-13.3c0-10.1-8.2-18.2-18.2-18.2C52.2,15,44,23.2,44,33.3
			c0,1.6,0.2,3.2,0.6,4.7l6.4-1.7c-0.3-1-0.4-2-0.4-3c0-6.4,5.2-11.7,11.7-11.7c6.4,0,11.7,5.2,11.7,11.7c0,5.9-4.4,10.7-10,11.5
			l3.4,5.9l21,36.4c-0.5,1-0.7,2-0.7,3.2c0,4.1,3.3,7.4,7.4,7.4c4.1,0,7.4-3.3,7.4-7.4C102.6,86.4,99.6,83.2,95.7,82.9z"/>
		<path class="st0" d="M99.9,72.7l-1.7,6.3c5,1.3,8.6,5.9,8.6,11.2c0,6.4-5.2,11.7-11.7,11.7c-6.4,0-11.7-5.2-11.7-11.7
			c0-1.5,0.3-2.9,0.8-4.2h-6.8h-42c-1.3-2-3.6-3.2-6.1-3.2c-4.1,0-7.4,3.3-7.4,7.4c0,4.1,3.3,7.4,7.4,7.4c2.5,0,4.8-1.3,6.1-3.2h42
			c1.9,8,9.1,14,17.7,14c10.1,0,18.2-8.2,18.2-18.2C113.4,81.8,107.7,74.8,99.9,72.7z"/>
	</g>
</g>
</svg>
