<?xml version="1.0" encoding="utf-8"?>
<!-- Generator: Adobe Illustrator 23.0.4, SVG Export Plug-In . SVG Version: 6.00 Build 0)  -->
<svg version="1.1" id="Layer_1" xmlns="http://www.w3.org/2000/svg" xmlns:xlink="http://www.w3.org/1999/xlink" x="0px" y="0px"
	 viewBox="0 0 489.4 122.7" style="enable-background:new 0 0 489.4 122.7;" xml:space="preserve">
<style type="text/css">
	.st0{fill:#FFFFFF;}
	.st1{fill:#6DCEF5;}
	.st2{fill:#00BCF1;}
	.st3{fill:#F69451;}
	.st4{fill:#F4824E;}
	.st5{fill:#9C97C9;}
	.st6{fill:#B6A9A6;}
	.st7{fill:#FFDD00;}
	.st8{fill:#FBAE17;}
	.st9{fill:#A5CD39;}
	.st10{fill:#98C93C;}
	.st11{fill:#B1A335;}
	.st12{fill:#BED630;}
</style>
<g>
	<g>
		<g>
			<g>
				<path class="st0" d="M147.8,104.6h-1.1v9h-4.1v-21h4.1v9.3l1-0.4l5.8-8.9h4.7l-6.1,8.8l-1.6,1.1l1.7,1.2l7,9.9H154L147.8,104.6z
					"/>
				<path class="st0" d="M166.2,102.6l-1.6-3.3h-0.1l0.5,3.3v11h-3.9V92.4h3l8,11.2l1.6,3.2h0.2l-0.5-3.2v-11h3.9v21.1h-3
					L166.2,102.6z"/>
				<path class="st0" d="M179.7,103.1c0-3.5,0.8-6.2,2.3-8.1s3.7-2.8,6.6-2.8c1.5,0,2.8,0.3,3.9,0.8c1.1,0.5,2,1.3,2.8,2.2
					c0.7,1,1.3,2.1,1.6,3.4c0.4,1.3,0.5,2.8,0.5,4.5c0,3.5-0.8,6.2-2.3,8.1s-3.7,2.8-6.6,2.8c-1.5,0-2.8-0.3-4-0.8s-2-1.3-2.8-2.2
					c-0.7-1-1.3-2.1-1.6-3.5C179.9,106.2,179.7,104.7,179.7,103.1z M184,103.1c0,1.1,0.1,2,0.3,2.9s0.5,1.7,0.8,2.3
					c0.4,0.6,0.8,1.1,1.4,1.5s1.3,0.5,2.1,0.5c1.5,0,2.6-0.6,3.4-1.7c0.8-1.1,1.2-3,1.2-5.5c0-1-0.1-2-0.3-2.9s-0.4-1.6-0.8-2.3
					c-0.4-0.7-0.8-1.2-1.4-1.5c-0.6-0.4-1.3-0.6-2.1-0.6c-1.5,0-2.6,0.6-3.4,1.8C184.4,98.7,184,100.6,184,103.1z"/>
				<path class="st0" d="M205.1,104.3l0.4,3.7h0.1l0.4-3.8l3.7-11.7h2.7l3.6,11.7l0.4,3.7h0.1l0.5-3.8l2.5-11.7h4.2l-5.8,21.1h-2.8
					l-3.8-11.7l-0.5-3.2h-0.1l-0.5,3.2l-3.7,11.6h-2.9l-5.8-21.1h4.5L205.1,104.3z"/>
				<path class="st0" d="M238.7,113.6h-13.3v-21h4.1v17.3h9.2V113.6z"/>
				<path class="st0" d="M240.5,92.6H253v3.7h-8.3v4.9h7.6v3.7h-7.6v5.1h8.5v3.7h-12.6L240.5,92.6L240.5,92.6z"/>
				<path class="st0" d="M255.9,92.6c0.4-0.1,0.9-0.1,1.4-0.2c0.5,0,1.1-0.1,1.6-0.1c0.6,0,1.1,0,1.6,0s1,0,1.4,0
					c1.9,0,3.5,0.3,4.8,0.8s2.4,1.2,3.2,2.2c0.8,0.9,1.4,2.1,1.8,3.4s0.6,2.7,0.6,4.3c0,1.4-0.2,2.8-0.5,4.1c-0.4,1.3-1,2.5-1.8,3.5
					s-1.9,1.8-3.3,2.5c-1.4,0.6-3.1,0.9-5.1,0.9c-0.3,0-0.7,0-1.3,0c-0.5,0-1.1,0-1.6-0.1s-1.1-0.1-1.6-0.1s-0.9-0.1-1.2-0.1
					L255.9,92.6L255.9,92.6z M262.4,95.9c-0.4,0-0.9,0-1.3,0c-0.5,0-0.8,0-1,0.1v14.1c0.1,0,0.2,0,0.4,0c0.2,0,0.4,0,0.6,0
					s0.4,0,0.6,0s0.3,0,0.4,0c1.2,0,2.1-0.2,2.9-0.6s1.4-1,1.8-1.6c0.4-0.7,0.8-1.5,0.9-2.4c0.2-0.9,0.3-1.8,0.3-2.7
					c0-0.8-0.1-1.6-0.2-2.5s-0.5-1.6-0.9-2.2c-0.4-0.7-1-1.2-1.8-1.6C264.5,96.1,263.5,95.9,262.4,95.9z"/>
				<path class="st0" d="M282.4,102.6h7.8v9.4c-0.8,0.7-1.8,1.2-3,1.5s-2.3,0.5-3.5,0.5c-1.3,0-2.6-0.2-3.7-0.6
					c-1.2-0.4-2.1-1.1-3-2s-1.5-2-2-3.4s-0.7-3-0.7-4.9c0-2,0.3-3.7,0.9-5.1s1.3-2.5,2.2-3.4s2-1.5,3.1-1.9c1.2-0.4,2.3-0.6,3.5-0.6
					s2.3,0.1,3.2,0.3s1.6,0.4,2.2,0.6l-0.8,3.5c-0.5-0.2-1.1-0.4-1.7-0.5s-1.4-0.2-2.4-0.2c-0.9,0-1.7,0.1-2.4,0.4s-1.3,0.7-1.9,1.3
					c-0.5,0.6-0.9,1.3-1.2,2.3s-0.4,2-0.4,3.4c0,1.3,0.1,2.3,0.4,3.3s0.7,1.7,1.2,2.2s1.1,1,1.8,1.3s1.4,0.4,2.1,0.4
					c0.5,0,1-0.1,1.5-0.2s0.9-0.3,1.3-0.6v-4l-4.5-0.5V102.6z"/>
				<path class="st0" d="M293.1,92.6h12.5v3.7h-8.3v4.9h7.6v3.7h-7.6v5.1h8.5v3.7h-12.6V92.6H293.1z"/>
				<path class="st0" d="M315.9,92.8c0.8-0.2,1.8-0.3,2.8-0.4s2-0.1,3-0.1s2.1,0.1,3.1,0.3c1.1,0.2,2,0.5,2.8,1s1.5,1.2,2.1,2.1
					c0.5,0.9,0.8,2.1,0.8,3.6c0,1.3-0.2,2.4-0.7,3.3s-1.1,1.7-1.8,2.2s-1.6,1-2.6,1.3s-2,0.4-3,0.4c-0.1,0-0.3,0-0.5,0s-0.5,0-0.7,0
					s-0.5,0-0.7,0s-0.4,0-0.5-0.1v7.2h-4.1L315.9,92.8L315.9,92.8z M322,95.8c-0.4,0-0.8,0-1.1,0c-0.4,0-0.7,0.1-0.9,0.1v6.8
					c0.1,0,0.2,0,0.4,0.1c0.2,0,0.3,0,0.5,0s0.4,0,0.5,0s0.3,0,0.4,0c0.5,0,1.1,0,1.6-0.1s1-0.3,1.4-0.6c0.4-0.3,0.8-0.6,1-1.1
					s0.4-1.1,0.4-1.9c0-0.7-0.1-1.2-0.4-1.6c-0.2-0.4-0.6-0.8-0.9-1c-0.4-0.3-0.8-0.4-1.3-0.5C323.1,95.9,322.5,95.8,322,95.8z"/>
				<path class="st0" d="M332.1,103.1c0-3.5,0.8-6.2,2.3-8.1s3.7-2.8,6.6-2.8c1.5,0,2.8,0.3,3.9,0.8s2,1.3,2.8,2.2
					c0.7,1,1.3,2.1,1.7,3.4c0.4,1.3,0.5,2.8,0.5,4.5c0,3.5-0.8,6.2-2.3,8.1s-3.7,2.8-6.6,2.8c-1.5,0-2.8-0.3-4-0.8s-2-1.3-2.8-2.2
					c-0.7-1-1.3-2.1-1.6-3.5C332.3,106.2,332.1,104.7,332.1,103.1z M336.5,103.1c0,1.1,0.1,2,0.3,2.9c0.2,0.9,0.5,1.7,0.8,2.3
					c0.4,0.6,0.8,1.1,1.4,1.5s1.3,0.5,2.1,0.5c1.5,0,2.6-0.6,3.4-1.7s1.2-3,1.2-5.5c0-1-0.1-2-0.3-2.9c-0.2-0.9-0.4-1.6-0.8-2.3
					c-0.4-0.7-0.8-1.2-1.4-1.5s-1.3-0.6-2.1-0.6c-1.5,0-2.6,0.6-3.4,1.8C336.9,98.7,336.5,100.6,336.5,103.1z"/>
				<path class="st0" d="M352.6,92.8c0.5-0.1,1-0.2,1.5-0.2c0.5-0.1,1.1-0.1,1.6-0.2c0.5,0,1-0.1,1.5-0.1s1,0,1.4,0
					c1,0,1.9,0.1,2.9,0.3c0.9,0.2,1.8,0.5,2.5,0.9c0.8,0.4,1.3,1,1.8,1.8s0.7,1.7,0.7,2.9c0,1.7-0.4,3.1-1.2,4.2s-1.9,1.8-3.2,2.2
					l1.5,0.9l4.8,8h-4.7l-4.8-8.2l-2.2-0.4v8.6h-4.1L352.6,92.8L352.6,92.8z M358.9,95.9c-0.4,0-0.8,0-1.2,0c-0.4,0-0.7,0.1-0.9,0.1
					v6.1h1.7c1.1,0,2-0.3,2.7-0.8s1-1.4,1-2.6c0-0.9-0.3-1.6-0.8-2.1C360.8,96.2,360,95.9,358.9,95.9z"/>
				<path class="st0" d="M384.9,96.2h-6.1v17.3h-4.1V96.2h-6.2v-3.7h16.4L384.9,96.2L384.9,96.2z"/>
				<path class="st0" d="M395,108.9h-6.5l-1.6,4.7h-4.1l7.6-21.2h3l7.6,21.2h-4.3L395,108.9z M389.6,105.6h4.5l-1.6-4.7l-0.6-3.3
					h-0.1l-0.6,3.3L389.6,105.6z"/>
				<path class="st0" d="M415.9,113.6h-13.3v-21h4.1v17.3h9.2L415.9,113.6L415.9,113.6z"/>
			</g>
		</g>
	</g>
</g>
<g>
	<g>
		<polygon class="st1" points="3.2,63.3 3.2,120.8 3.5,120.8 17.3,56.1 		"/>
		<polygon class="st2" points="68.9,86.5 79.7,72.6 45.7,41.5 28.7,50.3 		"/>
		<path class="st3" d="M3.2,2.7L3.2,2.7L3.2,2.7z"/>
		<polygon class="st4" points="45.7,41.5 79.7,72.6 121.4,18.7 121.4,2.7 		"/>
		<polygon class="st5" points="20.2,42.6 28.7,50.3 45.7,41.5 3.2,2.7 3.2,63.3 17.3,56.1 		"/>
		<polygon class="st6" points="121.4,2.7 3.2,2.7 3.2,2.7 45.7,41.5 		"/>
		<polygon class="st7" points="68.9,86.5 106.9,120.8 121.4,120.8 121.4,110.7 79.7,72.6 		"/>
		<polygon class="st8" points="121.4,110.7 121.4,18.7 79.7,72.6 		"/>
		<polygon class="st9" points="3.5,120.8 3.5,120.8 106.9,120.8 106.9,120.8 42.4,120.8 		"/>
		<polygon class="st10" points="68.9,86.5 28.7,50.3 17.3,56.1 3.5,120.8 42.4,120.8 		"/>
		<polygon class="st11" points="17.3,56.1 28.7,50.3 20.2,42.6 		"/>
		<polygon class="st12" points="42.4,120.8 106.9,120.8 68.9,86.5 		"/>
	</g>
	<g>
		<path class="st0" d="M62.3,25.8c-4.1,0-7.4,3.3-7.4,7.4c0,1.2,0.3,2.3,0.8,3.3l-21,36.3C33,72.3,31.3,72,29.5,72
			c-10.1,0-18.2,8.2-18.2,18.2c0,10.1,8.2,18.2,18.2,18.2c5,0,9.6-2.1,12.9-5.4l-4.6-4.6c-2.1,2.1-5,3.4-8.2,3.4
			c-6.4,0-11.7-5.2-11.7-11.7c0-6.4,5.2-11.7,11.7-11.7c3.7,0,6.9,1.7,9.1,4.3l3.4-5.9l21-36.4c3.8-0.3,6.8-3.5,6.8-7.4
			C69.7,29.2,66.4,25.8,62.3,25.8z"/>
		<path class="st0" d="M95.7,82.9l-21-36.3c3.5-3.3,5.8-8,5.8-13.3c0-10.1-8.2-18.2-18.2-18.2C52.2,15,44,23.2,44,33.3
			c0,1.6,0.2,3.2,0.6,4.7l6.4-1.7c-0.3-1-0.4-2-0.4-3c0-6.4,5.2-11.7,11.7-11.7c6.4,0,11.7,5.2,11.7,11.7c0,5.9-4.4,10.7-10,11.5
			l3.4,5.9l21,36.4c-0.5,1-0.7,2-0.7,3.2c0,4.1,3.3,7.4,7.4,7.4s7.4-3.3,7.4-7.4C102.6,86.4,99.6,83.2,95.7,82.9z"/>
		<path class="st0" d="M99.9,72.7L98.2,79c5,1.3,8.6,5.9,8.6,11.2c0,6.4-5.2,11.7-11.7,11.7c-6.4,0-11.7-5.2-11.7-11.7
			c0-1.5,0.3-2.9,0.8-4.2h-6.8h-42c-1.3-2-3.6-3.2-6.1-3.2c-4.1,0-7.4,3.3-7.4,7.4s3.3,7.4,7.4,7.4c2.5,0,4.8-1.3,6.1-3.2h42
			c1.9,8,9.1,14,17.7,14c10.1,0,18.2-8.2,18.2-18.2C113.4,81.8,107.7,74.8,99.9,72.7z"/>
	</g>
</g>
<g>
	<path class="st0" d="M159.5,35.2c-0.7,0.6-1.6,0.9-2.8,1.2c-1.1,0.2-2.3,0.3-3.5,0.3c-1.5,0-2.9-0.3-4.3-0.8
		c-1.3-0.5-2.5-1.3-3.5-2.4c-1-1.1-1.8-2.4-2.4-4.1c-0.6-1.7-0.9-3.6-0.9-5.9c0-2.4,0.3-4.4,1-6c0.6-1.7,1.5-3,2.5-4.1
		s2.2-1.8,3.5-2.3c1.3-0.5,2.6-0.7,4-0.7c1.4,0,2.6,0.1,3.5,0.2c0.9,0.2,1.7,0.4,2.4,0.6l-0.7,2.7c-1.2-0.6-2.8-0.9-5-0.9
		c-1,0-2,0.2-2.9,0.5c-1,0.4-1.8,1-2.6,1.8c-0.8,0.8-1.4,1.9-1.8,3.2c-0.5,1.3-0.7,3-0.7,4.9c0,1.7,0.2,3.3,0.7,4.6s1,2.4,1.8,3.3
		c0.8,0.9,1.7,1.5,2.7,2c1,0.4,2.1,0.7,3.3,0.7c1.1,0,2-0.1,2.8-0.3s1.5-0.5,2-0.8L159.5,35.2z"/>
	<path class="st0" d="M161.5,23.6c0-4.2,0.9-7.5,2.7-9.7c1.8-2.3,4.3-3.4,7.6-3.4c1.8,0,3.3,0.3,4.6,0.9c1.3,0.6,2.4,1.5,3.2,2.7
		c0.9,1.1,1.5,2.5,1.9,4.1c0.4,1.6,0.6,3.4,0.6,5.4c0,4.2-0.9,7.5-2.7,9.7c-1.8,2.3-4.4,3.4-7.7,3.4c-1.8,0-3.3-0.3-4.6-0.9
		s-2.4-1.5-3.2-2.7c-0.9-1.1-1.5-2.5-1.9-4.1C161.7,27.4,161.5,25.6,161.5,23.6z M164.7,23.6c0,1.4,0.1,2.7,0.4,4
		c0.3,1.3,0.7,2.4,1.3,3.3c0.6,1,1.3,1.7,2.2,2.3c0.9,0.6,2,0.9,3.2,0.9c2.2,0,4-0.9,5.3-2.6c1.3-1.7,1.9-4.3,1.9-7.9
		c0-1.4-0.1-2.7-0.4-4c-0.3-1.3-0.7-2.4-1.3-3.3c-0.6-1-1.3-1.7-2.2-2.3c-0.9-0.6-2-0.9-3.2-0.9c-2.2,0-4,0.9-5.2,2.6
		C165.4,17.4,164.7,20,164.7,23.6z"/>
	<path class="st0" d="M206.5,19.2l0.4-3.8h-0.2l-1.4,3.5l-6.6,11.4h-0.9l-7-11.5l-1.3-3.4h-0.2l0.5,3.8v17.1H187V10.9h2.2l7.9,13
		l1.2,2.8h0.1l1.1-2.9l7.6-12.9h2.4v25.3h-3V19.2z"/>
	<path class="st0" d="M234.7,19.2l0.4-3.8h-0.2l-1.4,3.5l-6.6,11.4H226l-7-11.5l-1.3-3.4h-0.2l0.5,3.8v17.1h-2.8V10.9h2.2l7.9,13
		l1.2,2.8h0.1l1.1-2.9l7.6-12.9h2.4v25.3h-3V19.2z"/>
	<path class="st0" d="M242.4,23.6c0-4.2,0.9-7.5,2.7-9.7c1.8-2.3,4.3-3.4,7.6-3.4c1.8,0,3.3,0.3,4.6,0.9c1.3,0.6,2.4,1.5,3.2,2.7
		c0.9,1.1,1.5,2.5,1.9,4.1c0.4,1.6,0.6,3.4,0.6,5.4c0,4.2-0.9,7.5-2.7,9.7c-1.8,2.3-4.4,3.4-7.7,3.4c-1.8,0-3.3-0.3-4.6-0.9
		s-2.4-1.5-3.2-2.7c-0.9-1.1-1.5-2.5-1.9-4.1C242.6,27.4,242.4,25.6,242.4,23.6z M245.6,23.6c0,1.4,0.1,2.7,0.4,4
		c0.3,1.3,0.7,2.4,1.3,3.3c0.6,1,1.3,1.7,2.2,2.3c0.9,0.6,2,0.9,3.2,0.9c2.2,0,4-0.9,5.3-2.6c1.3-1.7,1.9-4.3,1.9-7.9
		c0-1.4-0.1-2.7-0.4-4c-0.3-1.3-0.7-2.4-1.3-3.3c-0.6-1-1.3-1.7-2.2-2.3c-0.9-0.6-2-0.9-3.2-0.9c-2.2,0-4,0.9-5.2,2.6
		C246.3,17.4,245.6,20,245.6,23.6z"/>
	<path class="st0" d="M272.5,19.7l-2-3.7h-0.1l0.4,3.7v16.6h-2.8V10.5h1.6l12.1,16.9l1.9,3.5h0.2l-0.4-3.5V10.9h2.8v25.7h-1.6
		L272.5,19.7z"/>
</g>
<g>
	<path class="st0" d="M162.6,59l0.4-3.8h-0.2l-1.4,3.5l-6.6,11.4h-0.9l-7-11.5l-1.3-3.4h-0.2l0.5,3.8V76h-2.8V50.6h2.2l7.9,13
		l1.2,2.8h0.1l1.1-2.9l7.6-12.9h2.4V76h-3V59z"/>
	<path class="st0" d="M171.3,50.6h13.8v2.7h-10.8v8.3h9.9v2.7h-9.9v9h11V76h-14V50.6z"/>
	<path class="st0" d="M207.2,53.3h-7.9V76h-3V53.3h-7.9v-2.7h18.8V53.3z"/>
	<path class="st0" d="M220.2,69h-9.3l-2.5,7h-3l9.6-25.7h1.4l9.6,25.7h-3.2L220.2,69z M211.8,66.4h7.4l-2.8-7.7l-0.9-3.8h0l-0.9,3.9
		L211.8,66.4z"/>
	<path class="st0" d="M244.6,56.4c0,0.6-0.1,1.2-0.3,1.8c-0.2,0.6-0.5,1.2-0.9,1.8c-0.4,0.5-0.9,1-1.5,1.4c-0.6,0.4-1.3,0.7-2.1,0.9
		v0.1c0.7,0.1,1.4,0.3,2.1,0.6s1.2,0.7,1.8,1.2c0.5,0.5,0.9,1.1,1.2,1.8s0.5,1.6,0.5,2.6c0,1.3-0.3,2.4-0.8,3.4
		c-0.5,1-1.3,1.7-2.1,2.3c-0.9,0.6-1.9,1-3,1.3c-1.1,0.3-2.3,0.4-3.5,0.4c-0.4,0-0.9,0-1.4,0c-0.6,0-1.1,0-1.7-0.1s-1.2-0.1-1.8-0.1
		c-0.6-0.1-1.1-0.2-1.6-0.3V50.9c0.9-0.1,1.9-0.3,3.1-0.4c1.2-0.1,2.5-0.1,3.9-0.1c0.9,0,1.9,0.1,2.9,0.2c1,0.2,1.9,0.5,2.7,0.9
		c0.8,0.4,1.5,1.1,2,1.9C244.4,54.2,244.6,55.2,244.6,56.4z M234.2,61.8c0.4,0,0.9,0,1.5,0c0.6,0,1.1-0.1,1.4-0.1
		c0.6-0.2,1.1-0.4,1.6-0.7c0.5-0.3,1-0.6,1.4-1c0.4-0.4,0.7-0.8,0.9-1.3c0.2-0.5,0.3-1,0.3-1.6c0-0.8-0.2-1.5-0.5-2
		s-0.7-0.9-1.2-1.2c-0.5-0.3-1.1-0.5-1.7-0.7c-0.7-0.1-1.3-0.2-2-0.2c-0.8,0-1.5,0-2.2,0.1c-0.7,0-1.2,0.1-1.5,0.2v8.6H234.2z
		 M236.2,73.7c0.8,0,1.5-0.1,2.2-0.3c0.7-0.2,1.4-0.5,1.9-0.9c0.6-0.4,1-0.9,1.3-1.5c0.3-0.6,0.5-1.3,0.5-2.1c0-1-0.2-1.8-0.6-2.4
		c-0.4-0.6-0.9-1.1-1.6-1.4c-0.6-0.3-1.4-0.6-2.2-0.7c-0.8-0.1-1.6-0.2-2.4-0.2h-3.1v9.1c0.2,0,0.4,0.1,0.7,0.1c0.3,0,0.7,0,1,0.1
		c0.4,0,0.7,0,1.1,0.1C235.6,73.7,235.9,73.7,236.2,73.7z"/>
	<path class="st0" d="M249,63.3c0-4.2,0.9-7.5,2.7-9.7c1.8-2.3,4.3-3.4,7.6-3.4c1.8,0,3.3,0.3,4.6,0.9c1.3,0.6,2.4,1.5,3.2,2.7
		c0.9,1.1,1.5,2.5,1.9,4.1c0.4,1.6,0.6,3.4,0.6,5.4c0,4.2-0.9,7.5-2.7,9.7c-1.8,2.3-4.4,3.4-7.7,3.4c-1.8,0-3.3-0.3-4.6-0.9
		s-2.4-1.5-3.2-2.7c-0.9-1.1-1.5-2.5-1.9-4.1C249.2,67.1,249,65.3,249,63.3z M252.1,63.3c0,1.4,0.1,2.7,0.4,4
		c0.3,1.3,0.7,2.4,1.3,3.3c0.6,1,1.3,1.7,2.2,2.3c0.9,0.6,2,0.9,3.2,0.9c2.2,0,4-0.9,5.3-2.6c1.3-1.7,1.9-4.3,1.9-7.9
		c0-1.4-0.1-2.7-0.4-4c-0.3-1.3-0.7-2.4-1.3-3.3c-0.6-1-1.3-1.7-2.2-2.3c-0.9-0.6-2-0.9-3.2-0.9c-2.2,0-4,0.9-5.2,2.6
		C252.8,57.1,252.1,59.8,252.1,63.3z"/>
	<path class="st0" d="M289.4,76h-15V50.6h3v22.7h12V76z"/>
	<path class="st0" d="M293.3,50.6h3V76h-3V50.6z"/>
	<path class="st0" d="M318.6,74.9c-0.7,0.6-1.6,0.9-2.8,1.2c-1.1,0.2-2.3,0.3-3.5,0.3c-1.5,0-2.9-0.3-4.3-0.8
		c-1.3-0.5-2.5-1.3-3.5-2.4c-1-1.1-1.8-2.4-2.4-4.1c-0.6-1.7-0.9-3.6-0.9-5.9c0-2.4,0.3-4.4,1-6c0.6-1.7,1.5-3,2.5-4.1
		s2.2-1.8,3.5-2.3c1.3-0.5,2.6-0.7,4-0.7c1.4,0,2.6,0.1,3.5,0.2c0.9,0.2,1.7,0.4,2.4,0.6l-0.7,2.7c-1.2-0.6-2.8-0.9-5-0.9
		c-1,0-2,0.2-2.9,0.5c-1,0.4-1.8,1-2.6,1.8c-0.8,0.8-1.4,1.9-1.8,3.2c-0.5,1.3-0.7,3-0.7,4.9c0,1.7,0.2,3.3,0.7,4.6s1,2.4,1.8,3.3
		c0.8,0.9,1.7,1.5,2.7,2c1,0.4,2.1,0.7,3.3,0.7c1.1,0,2-0.1,2.8-0.3s1.5-0.5,2-0.8L318.6,74.9z"/>
	<path class="st0" d="M332.8,50.6c0.5-0.1,1-0.1,1.5-0.2s1.2-0.1,1.8-0.1c0.6,0,1.2,0,1.8,0c0.6,0,1.1,0,1.6,0c2,0,3.8,0.3,5.3,0.9
		c1.5,0.6,2.7,1.5,3.7,2.6c1,1.1,1.7,2.5,2.2,4c0.5,1.6,0.7,3.3,0.7,5.2c0,1.7-0.2,3.4-0.7,4.9c-0.4,1.6-1.2,3-2.1,4.2
		c-1,1.2-2.2,2.2-3.8,2.9c-1.5,0.7-3.4,1.1-5.6,1.1c-0.4,0-0.9,0-1.5,0c-0.6,0-1.2,0-1.9-0.1c-0.7,0-1.3-0.1-1.8-0.1
		c-0.6,0-1-0.1-1.2-0.1V50.6z M339.6,53c-0.3,0-0.7,0-1,0s-0.7,0-1.1,0c-0.4,0-0.7,0-1,0.1c-0.3,0-0.5,0-0.7,0.1v20.3
		c0.1,0,0.3,0,0.7,0.1s0.7,0,1,0c0.4,0,0.7,0,1,0c0.3,0,0.6,0,0.7,0c1.7,0,3.1-0.3,4.3-0.9c1.1-0.6,2.1-1.4,2.8-2.3s1.2-2.1,1.5-3.4
		c0.3-1.3,0.4-2.6,0.4-3.9c0-1.2-0.1-2.4-0.4-3.6c-0.3-1.2-0.7-2.3-1.4-3.2c-0.7-1-1.5-1.8-2.6-2.4C342.6,53.3,341.3,53,339.6,53z"
		/>
	<path class="st0" d="M356.3,50.6h3V76h-3V50.6z"/>
	<path class="st0" d="M376.5,69.5c0-1-0.3-1.8-0.9-2.5c-0.6-0.6-1.4-1.2-2.3-1.7s-1.9-1-3-1.4c-1.1-0.4-2-1-3-1.6
		c-0.9-0.6-1.7-1.4-2.3-2.3c-0.6-0.9-0.9-2.1-0.9-3.5c0-2,0.7-3.5,2.1-4.7c1.4-1.2,3.3-1.7,5.9-1.7c1.5,0,2.8,0.1,4,0.3
		c1.2,0.2,2.1,0.5,2.8,0.8l-0.9,2.7c-0.6-0.3-1.4-0.5-2.4-0.8c-1.1-0.2-2.3-0.4-3.6-0.4c-1.6,0-2.8,0.4-3.6,1.1
		c-0.8,0.7-1.2,1.6-1.2,2.5c0,0.9,0.3,1.7,0.9,2.4c0.6,0.6,1.4,1.2,2.3,1.7c0.9,0.5,1.9,1,3,1.5c1.1,0.5,2,1,3,1.7
		c0.9,0.6,1.7,1.4,2.3,2.3c0.6,0.9,0.9,2,0.9,3.3c0,1.1-0.2,2.1-0.6,2.9c-0.4,0.9-1,1.6-1.7,2.2c-0.7,0.6-1.7,1.1-2.7,1.4
		c-1.1,0.3-2.3,0.5-3.6,0.5c-1.8,0-3.3-0.1-4.5-0.4s-2.1-0.6-2.8-0.9l1-2.7c0.6,0.3,1.4,0.6,2.5,0.9c1.1,0.3,2.3,0.4,3.7,0.4
		c0.8,0,1.5-0.1,2.2-0.2c0.7-0.2,1.3-0.4,1.8-0.8c0.5-0.3,0.9-0.8,1.2-1.3S376.5,70.3,376.5,69.5z"/>
	<path class="st0" d="M383.6,50.6h13.8v2.7h-10.8v8.3h9.9v2.7h-9.9v9h11V76h-14V50.6z"/>
	<path class="st0" d="M415.5,69h-9.3l-2.5,7h-3l9.6-25.7h1.4l9.6,25.7h-3.2L415.5,69z M407.2,66.4h7.4l-2.8-7.7l-0.9-3.8h0l-0.9,3.9
		L407.2,66.4z"/>
	<path class="st0" d="M436.8,69.5c0-1-0.3-1.8-0.9-2.5c-0.6-0.6-1.4-1.2-2.3-1.7s-1.9-1-3-1.4c-1.1-0.4-2-1-3-1.6
		c-0.9-0.6-1.7-1.4-2.3-2.3c-0.6-0.9-0.9-2.1-0.9-3.5c0-2,0.7-3.5,2.1-4.7c1.4-1.2,3.3-1.7,5.9-1.7c1.5,0,2.8,0.1,4,0.3
		c1.2,0.2,2.1,0.5,2.8,0.8l-0.9,2.7c-0.6-0.3-1.4-0.5-2.4-0.8c-1.1-0.2-2.3-0.4-3.6-0.4c-1.6,0-2.8,0.4-3.6,1.1
		c-0.8,0.7-1.2,1.6-1.2,2.5c0,0.9,0.3,1.7,0.9,2.4c0.6,0.6,1.4,1.2,2.3,1.7c0.9,0.5,1.9,1,3,1.5c1.1,0.5,2,1,3,1.7
		c0.9,0.6,1.7,1.4,2.3,2.3c0.6,0.9,0.9,2,0.9,3.3c0,1.1-0.2,2.1-0.6,2.9c-0.4,0.9-1,1.6-1.7,2.2c-0.7,0.6-1.7,1.1-2.7,1.4
		c-1.1,0.3-2.3,0.5-3.6,0.5c-1.8,0-3.3-0.1-4.5-0.4s-2.1-0.6-2.8-0.9l1-2.7c0.6,0.3,1.4,0.6,2.5,0.9c1.1,0.3,2.3,0.4,3.7,0.4
		c0.8,0,1.5-0.1,2.2-0.2c0.7-0.2,1.3-0.4,1.8-0.8c0.5-0.3,0.9-0.8,1.2-1.3S436.8,70.3,436.8,69.5z"/>
	<path class="st0" d="M443.9,50.6h13.8v2.7h-10.8v8.3h9.9v2.7h-9.9v9h11V76h-14V50.6z"/>
	<path class="st0" d="M474.4,69.5c0-1-0.3-1.8-0.9-2.5c-0.6-0.6-1.4-1.2-2.3-1.7s-1.9-1-3-1.4c-1.1-0.4-2-1-3-1.6
		c-0.9-0.6-1.7-1.4-2.3-2.3c-0.6-0.9-0.9-2.1-0.9-3.5c0-2,0.7-3.5,2.1-4.7c1.4-1.2,3.3-1.7,5.9-1.7c1.5,0,2.8,0.1,4,0.3
		c1.2,0.2,2.1,0.5,2.8,0.8l-0.9,2.7c-0.6-0.3-1.4-0.5-2.4-0.8c-1.1-0.2-2.3-0.4-3.6-0.4c-1.6,0-2.8,0.4-3.6,1.1
		c-0.8,0.7-1.2,1.6-1.2,2.5c0,0.9,0.3,1.7,0.9,2.4c0.6,0.6,1.4,1.2,2.3,1.7c0.9,0.5,1.9,1,3,1.5c1.1,0.5,2,1,3,1.7
		c0.9,0.6,1.7,1.4,2.3,2.3c0.6,0.9,0.9,2,0.9,3.3c0,1.1-0.2,2.1-0.6,2.9c-0.4,0.9-1,1.6-1.7,2.2c-0.7,0.6-1.7,1.1-2.7,1.4
		c-1.1,0.3-2.3,0.5-3.6,0.5c-1.8,0-3.3-0.1-4.5-0.4s-2.1-0.6-2.8-0.9l1-2.7c0.6,0.3,1.4,0.6,2.5,0.9c1.1,0.3,2.3,0.4,3.7,0.4
		c0.8,0,1.5-0.1,2.2-0.2c0.7-0.2,1.3-0.4,1.8-0.8c0.5-0.3,0.9-0.8,1.2-1.3S474.4,70.3,474.4,69.5z"/>
</g>
</svg>
