<?xml version="1.0" encoding="utf-8"?>
<!-- Generator: Adobe Illustrator 24.1.0, SVG Export Plug-In . SVG Version: 6.00 Build 0)  -->
<svg version="1.1" id="Layer_1" xmlns="http://www.w3.org/2000/svg" xmlns:xlink="http://www.w3.org/1999/xlink" x="0px" y="0px"
	 viewBox="0 0 22 21.9" style="enable-background:new 0 0 22 21.9;" xml:space="preserve">
<style type="text/css">
	.st0{fill:url(#SVGID_1_);}
	.st1{fill:#3D85C6;}
</style>
<g>
	
		<linearGradient id="SVGID_1_" gradientUnits="userSpaceOnUse" x1="10.95" y1="23.2" x2="10.95" y2="3.0652" gradientTransform="matrix(1 0 0 -1 0 24)">
		<stop  offset="0.3242" style="stop-color:#DCDDDE"/>
		<stop  offset="1" style="stop-color:#C7C8CA"/>
	</linearGradient>
	<path class="st0" d="M21,17.9c0,1.7-1.4,3-3,3H3.9c-1.7,0-3-1.4-3-3V3.8c0-1.7,1.4-3,3-3H18c1.7,0,3,1.4,3,3V17.9z"/>
	<g>
		<g>
			<g>
				<polygon class="st1" points="13,3.2 14.6,4.7 11.5,7.7 14.1,10.3 17.2,7.3 18.7,8.8 18.7,3.2 				"/>
			</g>
		</g>
		<g>
			<g>
				<polygon class="st1" points="10.4,14 7.8,11.4 4.8,14.5 3.3,12.9 3.3,18.6 8.9,18.6 7.4,17.1 				"/>
			</g>
		</g>
	</g>
</g>
</svg>
