<?xml version="1.0" encoding="utf-8"?>
<!-- Generator: Adobe Illustrator 23.0.4, SVG Export Plug-In . SVG Version: 6.00 Build 0)  -->
<svg version="1.1" id="Layer_1" xmlns="http://www.w3.org/2000/svg" xmlns:xlink="http://www.w3.org/1999/xlink" x="0px" y="0px"
	 viewBox="0 0 649.5 53.8" style="enable-background:new 0 0 649.5 53.8;" xml:space="preserve">
<style type="text/css">
	.st0{fill:#6DCFF6;}
	.st1{fill:#00BDF2;}
	.st2{fill:#F79552;}
	.st3{fill:#F5834E;}
	.st4{fill:#9D97CA;}
	.st5{fill:#B6AAA7;}
	.st6{fill:#FFDD00;}
	.st7{fill:#FCAF17;}
	.st8{fill:#A6CE39;}
	.st9{fill:#9ACA3C;}
	.st10{fill:#B2A336;}
	.st11{fill:#BFD730;}
	.st12{fill:#FFFFFF;}
</style>
<g>
	<g>
		<g>
			<g>
				<polygon class="st0" points="303.1,27 303.1,49.2 303.2,49.2 308.6,24.2 				"/>
				<polygon class="st1" points="328.5,35.9 332.6,30.5 319.5,18.6 313,21.9 				"/>
				<polygon class="st2" points="303.1,3.5 303.1,3.6 303.1,3.5 				"/>
				<polygon class="st3" points="319.5,18.6 332.6,30.5 348.8,9.7 348.8,3.5 				"/>
				<polygon class="st4" points="309.7,19 313,21.9 319.5,18.6 303.1,3.6 303.1,27 308.6,24.2 				"/>
				<polygon class="st5" points="348.8,3.5 303.1,3.5 303.1,3.6 319.5,18.6 				"/>
				<polygon class="st6" points="328.5,35.9 343.1,49.2 348.8,49.2 348.8,45.3 332.6,30.5 				"/>
				<polygon class="st7" points="348.8,45.3 348.8,9.7 332.6,30.5 				"/>
				<polygon class="st8" points="303.2,49.2 303.2,49.2 343.1,49.2 343.1,49.2 318.2,49.2 				"/>
				<polygon class="st9" points="328.5,35.9 313,21.9 308.6,24.2 303.2,49.2 318.2,49.2 				"/>
				<polygon class="st10" points="308.6,24.2 313,21.9 309.7,19 				"/>
				<polygon class="st11" points="318.2,49.2 343.1,49.2 328.5,35.9 				"/>
			</g>
			<g>
				<path class="st12" d="M325.9,12.5c-1.6,0-2.9,1.3-2.9,2.9c0,0.5,0.1,0.9,0.3,1.3l-8.1,14c-0.6-0.2-1.3-0.3-2-0.3
					c-3.9,0-7,3.1-7,7c0,3.9,3.2,7,7,7c1.9,0,3.7-0.8,5-2.1l-1.8-1.8c-0.8,0.8-1.9,1.3-3.2,1.3c-2.5,0-4.5-2-4.5-4.5
					c0-2.5,2-4.5,4.5-4.5c1.4,0,2.7,0.7,3.5,1.7l1.3-2.3l8.1-14c1.5-0.1,2.6-1.4,2.6-2.9C328.8,13.8,327.5,12.5,325.9,12.5z"/>
				<path class="st12" d="M338.9,34.5l-8.1-14c1.4-1.3,2.2-3.1,2.2-5.1c0-3.9-3.1-7-7-7c-3.9,0-7,3.2-7,7c0,0.6,0.1,1.2,0.2,1.8
					l2.5-0.7c-0.1-0.4-0.2-0.8-0.2-1.2c0-2.5,2-4.5,4.5-4.5c2.5,0,4.5,2,4.5,4.5c0,2.3-1.7,4.1-3.9,4.5l1.3,2.3l8.1,14
					c-0.2,0.4-0.3,0.8-0.3,1.2c0,1.6,1.3,2.9,2.9,2.9c1.6,0,2.9-1.3,2.9-2.9C341.5,35.9,340.3,34.6,338.9,34.5z"/>
				<path class="st12" d="M340.5,30.6l-0.7,2.5c1.9,0.5,3.3,2.3,3.3,4.3c0,2.5-2,4.5-4.5,4.5c-2.5,0-4.5-2-4.5-4.5
					c0-0.6,0.1-1.1,0.3-1.6h-2.6h-16.2c-0.5-0.8-1.4-1.2-2.4-1.2c-1.6,0-2.9,1.3-2.9,2.9c0,1.6,1.3,2.9,2.9,2.9c1,0,1.8-0.5,2.4-1.2
					h16.2c0.7,3.1,3.5,5.4,6.8,5.4c3.9,0,7-3.2,7-7C345.7,34.1,343.5,31.4,340.5,30.6z"/>
			</g>
		</g>
		<g>
			<g>
				<path class="st12" d="M374.2,13.5l0.2-2.2h-0.1l-0.8,2l-3.9,6.7h-0.5l-4.1-6.7l-0.8-2h-0.1l0.3,2.2v10h-1.7V8.6h1.3l4.7,7.6
					l0.7,1.7h0l0.7-1.7l4.4-7.6h1.4v14.9h-1.8V13.5z"/>
				<path class="st12" d="M379.4,8.6h8.1v1.6h-6.3V15h5.8v1.6h-5.8v5.3h6.4v1.6h-8.2V8.6z"/>
				<path class="st12" d="M400.6,10.2H396v13.3h-1.8V10.2h-4.6V8.6h11V10.2z"/>
				<path class="st12" d="M408.4,19.4H403l-1.5,4.1h-1.8l5.6-15.1h0.8l5.7,15.1h-1.9L408.4,19.4z M403.5,17.8h4.4l-1.7-4.5l-0.5-2.3
					h0l-0.5,2.3L403.5,17.8z"/>
				<path class="st12" d="M422.9,12c0,0.4-0.1,0.7-0.2,1.1c-0.1,0.4-0.3,0.7-0.5,1c-0.2,0.3-0.5,0.6-0.9,0.8s-0.8,0.4-1.3,0.6v0.1
					c0.4,0.1,0.8,0.2,1.2,0.4c0.4,0.2,0.7,0.4,1,0.7c0.3,0.3,0.5,0.7,0.7,1.1c0.2,0.4,0.3,0.9,0.3,1.5c0,0.8-0.2,1.4-0.5,2
					c-0.3,0.6-0.7,1-1.3,1.4c-0.5,0.4-1.1,0.6-1.8,0.8c-0.7,0.2-1.3,0.3-2,0.3c-0.2,0-0.5,0-0.9,0s-0.7,0-1,0c-0.4,0-0.7,0-1.1-0.1
					c-0.4,0-0.7-0.1-0.9-0.2V8.7c0.5-0.1,1.1-0.2,1.8-0.2s1.5-0.1,2.3-0.1c0.6,0,1.1,0,1.7,0.1c0.6,0.1,1.1,0.3,1.6,0.5
					c0.5,0.3,0.9,0.6,1.2,1.1C422.8,10.6,422.9,11.3,422.9,12z M416.8,15.1c0.2,0,0.5,0,0.9,0c0.3,0,0.6,0,0.9-0.1
					c0.3-0.1,0.7-0.3,1-0.4s0.6-0.4,0.8-0.6c0.2-0.2,0.4-0.5,0.6-0.8s0.2-0.6,0.2-0.9c0-0.5-0.1-0.9-0.3-1.2
					c-0.2-0.3-0.4-0.5-0.7-0.7c-0.3-0.2-0.6-0.3-1-0.4s-0.8-0.1-1.2-0.1c-0.5,0-0.9,0-1.3,0c-0.4,0-0.7,0.1-0.9,0.1v5.1H416.8z
					 M418,22.1c0.5,0,0.9-0.1,1.3-0.2s0.8-0.3,1.1-0.5c0.3-0.2,0.6-0.5,0.8-0.9c0.2-0.3,0.3-0.7,0.3-1.2c0-0.6-0.1-1-0.4-1.4
					c-0.2-0.4-0.5-0.6-0.9-0.8c-0.4-0.2-0.8-0.3-1.3-0.4c-0.5-0.1-0.9-0.1-1.4-0.1h-1.9V22c0.1,0,0.2,0,0.4,0.1c0.2,0,0.4,0,0.6,0
					c0.2,0,0.4,0,0.7,0C417.6,22.1,417.8,22.1,418,22.1z"/>
				<path class="st12" d="M425.6,16c0-2.5,0.5-4.4,1.6-5.7c1-1.3,2.5-2,4.5-2c1,0,2,0.2,2.7,0.6s1.4,0.9,1.9,1.6
					c0.5,0.7,0.9,1.5,1.1,2.4s0.4,2,0.4,3.2c0,2.5-0.5,4.4-1.6,5.7c-1.1,1.3-2.6,2-4.5,2c-1,0-1.9-0.2-2.7-0.6
					c-0.8-0.4-1.4-0.9-1.9-1.6c-0.5-0.7-0.9-1.5-1.1-2.4C425.7,18.3,425.6,17.2,425.6,16z M427.4,16c0,0.8,0.1,1.6,0.2,2.3
					c0.2,0.7,0.4,1.4,0.8,1.9c0.3,0.6,0.8,1,1.3,1.3c0.5,0.3,1.2,0.5,1.9,0.5c1.3,0,2.4-0.5,3.1-1.5c0.8-1,1.1-2.5,1.1-4.6
					c0-0.8-0.1-1.6-0.2-2.3s-0.4-1.4-0.8-2s-0.8-1-1.3-1.3c-0.5-0.3-1.2-0.5-1.9-0.5c-1.3,0-2.3,0.5-3.1,1.5
					C427.8,12.4,427.4,13.9,427.4,16z"/>
				<path class="st12" d="M449.5,23.5h-8.8V8.6h1.8v13.3h7V23.5z"/>
				<path class="st12" d="M451.9,8.6h1.8v14.9h-1.8V8.6z"/>
				<path class="st12" d="M466.9,22.9c-0.4,0.3-1,0.6-1.6,0.7c-0.7,0.1-1.3,0.2-2.1,0.2c-0.9,0-1.7-0.2-2.5-0.5
					c-0.8-0.3-1.5-0.8-2-1.4c-0.6-0.6-1-1.4-1.4-2.4s-0.5-2.1-0.5-3.5c0-1.4,0.2-2.6,0.6-3.5c0.4-1,0.9-1.8,1.5-2.4s1.3-1.1,2.1-1.4
					c0.8-0.3,1.5-0.4,2.3-0.4c0.9,0,1.5,0,2.1,0.1c0.5,0.1,1,0.2,1.4,0.4l-0.4,1.6c-0.7-0.3-1.7-0.5-2.9-0.5c-0.6,0-1.2,0.1-1.7,0.3
					s-1.1,0.6-1.5,1c-0.4,0.5-0.8,1.1-1.1,1.9s-0.4,1.7-0.4,2.9c0,1,0.1,1.9,0.4,2.7c0.3,0.8,0.6,1.4,1.1,1.9s1,0.9,1.6,1.1
					s1.3,0.4,2,0.4c0.6,0,1.2-0.1,1.7-0.2s0.9-0.3,1.2-0.5L466.9,22.9z"/>
				<path class="st12" d="M475.2,8.6c0.3,0,0.6-0.1,0.9-0.1c0.3,0,0.7,0,1,0c0.4,0,0.7,0,1.1,0c0.3,0,0.7,0,1,0
					c1.2,0,2.2,0.2,3.1,0.6c0.9,0.4,1.6,0.9,2.2,1.5c0.6,0.7,1,1.5,1.3,2.4c0.3,0.9,0.4,1.9,0.4,3c0,1-0.1,2-0.4,2.9
					s-0.7,1.8-1.2,2.5c-0.6,0.7-1.3,1.3-2.2,1.7c-0.9,0.4-2,0.6-3.3,0.6c-0.2,0-0.5,0-0.9,0c-0.4,0-0.7,0-1.1,0
					c-0.4,0-0.7,0-1.1-0.1c-0.3,0-0.6,0-0.7-0.1V8.6z M479.2,10c-0.2,0-0.4,0-0.6,0s-0.4,0-0.6,0c-0.2,0-0.4,0-0.6,0
					c-0.2,0-0.3,0-0.4,0V22c0.1,0,0.2,0,0.4,0c0.2,0,0.4,0,0.6,0c0.2,0,0.4,0,0.6,0c0.2,0,0.3,0,0.4,0c1,0,1.8-0.2,2.5-0.5
					c0.7-0.3,1.2-0.8,1.6-1.4c0.4-0.6,0.7-1.2,0.9-2s0.3-1.5,0.3-2.3c0-0.7-0.1-1.4-0.2-2.1c-0.2-0.7-0.4-1.3-0.8-1.9
					c-0.4-0.6-0.9-1-1.5-1.4C481,10.2,480.2,10,479.2,10z"/>
				<path class="st12" d="M489.2,8.6h1.8v14.9h-1.8V8.6z"/>
				<path class="st12" d="M501.2,19.7c0-0.6-0.2-1.1-0.5-1.5c-0.4-0.4-0.8-0.7-1.3-1c-0.5-0.3-1.1-0.6-1.7-0.8
					c-0.6-0.3-1.2-0.6-1.7-0.9c-0.5-0.4-1-0.8-1.3-1.3s-0.5-1.2-0.5-2c0-1.2,0.4-2.1,1.2-2.8c0.8-0.7,2-1,3.4-1
					c0.9,0,1.7,0.1,2.4,0.2c0.7,0.1,1.3,0.3,1.7,0.5l-0.5,1.6c-0.3-0.2-0.8-0.3-1.4-0.5s-1.3-0.2-2.1-0.2c-0.9,0-1.6,0.2-2.1,0.6
					c-0.5,0.4-0.7,0.9-0.7,1.5c0,0.6,0.2,1,0.5,1.4s0.8,0.7,1.3,1c0.5,0.3,1.1,0.6,1.7,0.9c0.6,0.3,1.2,0.6,1.7,1
					c0.5,0.4,1,0.8,1.3,1.4s0.5,1.2,0.5,2c0,0.6-0.1,1.2-0.3,1.7c-0.2,0.5-0.6,1-1,1.3c-0.4,0.4-1,0.7-1.6,0.9
					c-0.6,0.2-1.3,0.3-2.1,0.3c-1.1,0-1.9-0.1-2.6-0.2s-1.2-0.3-1.6-0.5l0.6-1.6c0.3,0.2,0.8,0.4,1.4,0.5s1.4,0.3,2.2,0.3
					c0.5,0,0.9,0,1.3-0.1c0.4-0.1,0.8-0.2,1.1-0.4s0.5-0.5,0.7-0.8C501.1,20.5,501.2,20.1,501.2,19.7z"/>
				<path class="st12" d="M505.1,16c0-2.5,0.5-4.4,1.6-5.7c1-1.3,2.5-2,4.5-2c1,0,2,0.2,2.7,0.6s1.4,0.9,1.9,1.6
					c0.5,0.7,0.9,1.5,1.1,2.4s0.4,2,0.4,3.2c0,2.5-0.5,4.4-1.6,5.7c-1.1,1.3-2.6,2-4.5,2c-1,0-1.9-0.2-2.7-0.6
					c-0.8-0.4-1.4-0.9-1.9-1.6c-0.5-0.7-0.9-1.5-1.1-2.4C505.2,18.3,505.1,17.2,505.1,16z M506.9,16c0,0.8,0.1,1.6,0.2,2.3
					c0.2,0.7,0.4,1.4,0.8,1.9c0.3,0.6,0.8,1,1.3,1.3c0.5,0.3,1.2,0.5,1.9,0.5c1.3,0,2.4-0.5,3.1-1.5c0.8-1,1.1-2.5,1.1-4.6
					c0-0.8-0.1-1.6-0.2-2.3s-0.4-1.4-0.8-2s-0.8-1-1.3-1.3c-0.5-0.3-1.2-0.5-1.9-0.5c-1.3,0-2.3,0.5-3.1,1.5
					C507.3,12.4,506.9,13.9,506.9,16z"/>
				<path class="st12" d="M520.1,8.7c0.5-0.1,1.2-0.2,1.9-0.2s1.3-0.1,1.9-0.1c0.7,0,1.3,0.1,1.9,0.2c0.6,0.1,1.1,0.4,1.6,0.7
					s0.8,0.8,1.1,1.3c0.3,0.5,0.4,1.2,0.4,1.9c0,1.2-0.3,2.1-1,2.8c-0.6,0.7-1.4,1.2-2.4,1.4l1,0.8l3.7,5.9h-2.1l-4.1-6.4l-2.1-0.3
					v6.7h-1.8V8.7z M524,9.9c-0.2,0-0.4,0-0.6,0c-0.2,0-0.4,0-0.6,0c-0.2,0-0.4,0-0.5,0c-0.2,0-0.3,0-0.4,0.1v5.5h1.7
					c1,0,1.8-0.2,2.4-0.7s1-1.2,1-2.3c0-0.8-0.3-1.4-0.8-1.9C525.6,10.2,524.9,9.9,524,9.9z"/>
				<path class="st12" d="M532.6,8.6c0.3,0,0.6-0.1,0.9-0.1c0.3,0,0.7,0,1,0c0.4,0,0.7,0,1.1,0c0.3,0,0.7,0,1,0
					c1.2,0,2.2,0.2,3.1,0.6c0.9,0.4,1.6,0.9,2.2,1.5c0.6,0.7,1,1.5,1.3,2.4c0.3,0.9,0.4,1.9,0.4,3c0,1-0.1,2-0.4,2.9
					s-0.7,1.8-1.2,2.5c-0.6,0.7-1.3,1.3-2.2,1.7c-0.9,0.4-2,0.6-3.3,0.6c-0.2,0-0.5,0-0.9,0c-0.4,0-0.7,0-1.1,0
					c-0.4,0-0.7,0-1.1-0.1c-0.3,0-0.6,0-0.7-0.1V8.6z M536.6,10c-0.2,0-0.4,0-0.6,0s-0.4,0-0.6,0c-0.2,0-0.4,0-0.6,0
					c-0.2,0-0.3,0-0.4,0V22c0.1,0,0.2,0,0.4,0c0.2,0,0.4,0,0.6,0c0.2,0,0.4,0,0.6,0c0.2,0,0.3,0,0.4,0c1,0,1.8-0.2,2.5-0.5
					c0.7-0.3,1.2-0.8,1.6-1.4c0.4-0.6,0.7-1.2,0.9-2s0.3-1.5,0.3-2.3c0-0.7-0.1-1.4-0.2-2.1c-0.2-0.7-0.4-1.3-0.8-1.9
					c-0.4-0.6-0.9-1-1.5-1.4C538.4,10.2,537.6,10,536.6,10z"/>
				<path class="st12" d="M546.4,8.6h8.1v1.6h-6.3V15h5.8v1.6h-5.8v5.3h6.4v1.6h-8.2V8.6z"/>
				<path class="st12" d="M557.3,8.7c0.5-0.1,1.2-0.2,1.9-0.2s1.3-0.1,1.9-0.1c0.7,0,1.3,0.1,1.9,0.2c0.6,0.1,1.1,0.4,1.6,0.7
					s0.8,0.8,1.1,1.3c0.3,0.5,0.4,1.2,0.4,1.9c0,1.2-0.3,2.1-1,2.8c-0.6,0.7-1.4,1.2-2.4,1.4l1,0.8l3.7,5.9h-2.1l-4.1-6.4l-2.1-0.3
					v6.7h-1.8V8.7z M561.1,9.9c-0.2,0-0.4,0-0.6,0c-0.2,0-0.4,0-0.6,0c-0.2,0-0.4,0-0.5,0c-0.2,0-0.3,0-0.4,0.1v5.5h1.7
					c1,0,1.8-0.2,2.4-0.7s1-1.2,1-2.3c0-0.8-0.3-1.4-0.8-1.9C562.8,10.2,562.1,9.9,561.1,9.9z"/>
				<path class="st12" d="M576.9,19.7c0-0.6-0.2-1.1-0.5-1.5c-0.4-0.4-0.8-0.7-1.3-1c-0.5-0.3-1.1-0.6-1.7-0.8
					c-0.6-0.3-1.2-0.6-1.7-0.9c-0.5-0.4-1-0.8-1.3-1.3s-0.5-1.2-0.5-2c0-1.2,0.4-2.1,1.2-2.8c0.8-0.7,2-1,3.4-1
					c0.9,0,1.7,0.1,2.4,0.2c0.7,0.1,1.3,0.3,1.7,0.5l-0.5,1.6c-0.3-0.2-0.8-0.3-1.4-0.5s-1.3-0.2-2.1-0.2c-0.9,0-1.6,0.2-2.1,0.6
					c-0.5,0.4-0.7,0.9-0.7,1.5c0,0.6,0.2,1,0.5,1.4s0.8,0.7,1.3,1c0.5,0.3,1.1,0.6,1.7,0.9c0.6,0.3,1.2,0.6,1.7,1
					c0.5,0.4,1,0.8,1.3,1.4s0.5,1.2,0.5,2c0,0.6-0.1,1.2-0.3,1.7c-0.2,0.5-0.6,1-1,1.3c-0.4,0.4-1,0.7-1.6,0.9
					c-0.6,0.2-1.3,0.3-2.1,0.3c-1.1,0-1.9-0.1-2.6-0.2s-1.2-0.3-1.6-0.5l0.6-1.6c0.3,0.2,0.8,0.4,1.4,0.5s1.4,0.3,2.2,0.3
					c0.5,0,0.9,0,1.3-0.1c0.4-0.1,0.8-0.2,1.1-0.4s0.5-0.5,0.7-0.8C576.8,20.5,576.9,20.1,576.9,19.7z"/>
			</g>
			<g>
				<g>
					<path class="st12" d="M365.5,39.4h-0.6v5.3h-2.4V32.3h2.4v5.5l0.6-0.2l3.4-5.3h2.8l-3.6,5.2l-1,0.7l1,0.7l4.1,5.8h-3
						L365.5,39.4z"/>
					<path class="st12" d="M376.4,38.2l-1-2h-0.1l0.3,2v6.5h-2.3V32.2h1.8l4.7,6.6l0.9,1.9h0.1l-0.3-1.9v-6.5h2.3v12.5h-1.8
						L376.4,38.2z"/>
					<path class="st12" d="M384.5,38.5c0-2.1,0.5-3.7,1.4-4.8c0.9-1.1,2.2-1.7,3.9-1.7c0.9,0,1.7,0.2,2.3,0.5
						c0.7,0.3,1.2,0.7,1.6,1.3c0.4,0.6,0.8,1.2,1,2c0.2,0.8,0.3,1.7,0.3,2.6c0,2.1-0.5,3.7-1.4,4.8s-2.2,1.7-3.9,1.7
						c-0.9,0-1.7-0.2-2.3-0.5c-0.7-0.3-1.2-0.7-1.6-1.3s-0.8-1.2-1-2C384.6,40.4,384.5,39.5,384.5,38.5z M387,38.5
						c0,0.6,0.1,1.2,0.2,1.7s0.3,1,0.5,1.4c0.2,0.4,0.5,0.7,0.8,0.9c0.3,0.2,0.8,0.3,1.2,0.3c0.9,0,1.5-0.3,2-1
						c0.5-0.7,0.7-1.8,0.7-3.3c0-0.6,0-1.2-0.2-1.7s-0.3-1-0.5-1.4c-0.2-0.4-0.5-0.7-0.8-0.9c-0.3-0.2-0.8-0.3-1.3-0.3
						c-0.9,0-1.5,0.3-2,1C387.3,35.9,387,37,387,38.5z"/>
					<path class="st12" d="M399.6,39.2l0.2,2.2h0.1l0.2-2.2l2.2-6.9h1.6l2.1,6.9l0.2,2.2h0.1l0.3-2.2l1.5-6.9h2.5l-3.4,12.5h-1.6
						l-2.2-6.9L403,36h-0.1l-0.3,1.9l-2.2,6.9h-1.7l-3.4-12.5h2.6L399.6,39.2z"/>
					<path class="st12" d="M419.5,44.7h-7.9V32.3h2.4v10.3h5.4V44.7z"/>
					<path class="st12" d="M420.7,32.3h7.4v2.2h-4.9v2.9h4.5v2.2h-4.5v3h5v2.2h-7.5V32.3z"/>
					<path class="st12" d="M429.8,32.3c0.2,0,0.5-0.1,0.8-0.1c0.3,0,0.6,0,1-0.1c0.3,0,0.7,0,1,0c0.3,0,0.6,0,0.8,0
						c1.1,0,2,0.2,2.8,0.5c0.8,0.3,1.4,0.7,1.9,1.3c0.5,0.6,0.8,1.2,1.1,2c0.2,0.8,0.3,1.6,0.3,2.5c0,0.8-0.1,1.6-0.3,2.4
						s-0.6,1.5-1.1,2.1c-0.5,0.6-1.2,1.1-2,1.5c-0.8,0.4-1.8,0.5-3,0.5c-0.2,0-0.4,0-0.8,0s-0.6,0-1,0c-0.3,0-0.7,0-1-0.1
						s-0.5,0-0.7-0.1V32.3z M433.6,34.3c-0.3,0-0.5,0-0.8,0c-0.3,0-0.5,0-0.6,0.1v8.3c0,0,0.1,0,0.2,0c0.1,0,0.2,0,0.4,0
						s0.3,0,0.4,0s0.2,0,0.3,0c0.7,0,1.3-0.1,1.7-0.4c0.5-0.2,0.8-0.6,1.1-1c0.3-0.4,0.5-0.9,0.6-1.4s0.2-1.1,0.2-1.6
						c0-0.5,0-1-0.1-1.5c-0.1-0.5-0.3-0.9-0.5-1.3c-0.3-0.4-0.6-0.7-1-1C434.9,34.4,434.3,34.3,433.6,34.3z"/>
					<path class="st12" d="M445.5,38.2h4.6v5.5c-0.5,0.4-1.1,0.7-1.8,0.9c-0.7,0.2-1.4,0.3-2,0.3c-0.8,0-1.5-0.1-2.2-0.4
						c-0.7-0.2-1.3-0.6-1.8-1.2c-0.5-0.5-0.9-1.2-1.2-2c-0.3-0.8-0.4-1.8-0.4-2.9c0-1.2,0.2-2.2,0.5-3c0.3-0.8,0.8-1.5,1.3-2
						c0.5-0.5,1.2-0.9,1.9-1.1c0.7-0.2,1.4-0.3,2.1-0.3c0.7,0,1.3,0.1,1.9,0.2s1,0.2,1.3,0.3l-0.5,2c-0.3-0.1-0.6-0.2-1-0.3
						s-0.8-0.1-1.4-0.1c-0.5,0-1,0.1-1.4,0.2c-0.4,0.2-0.8,0.4-1.1,0.8s-0.6,0.8-0.7,1.3c-0.2,0.5-0.3,1.2-0.3,2
						c0,0.7,0.1,1.4,0.2,1.9s0.4,1,0.7,1.3c0.3,0.3,0.6,0.6,1,0.8c0.4,0.2,0.8,0.2,1.3,0.2c0.3,0,0.6,0,0.9-0.1
						c0.3-0.1,0.5-0.2,0.7-0.3V40l-2.7-0.3V38.2z"/>
					<path class="st12" d="M451.9,32.3h7.4v2.2h-4.9v2.9h4.5v2.2h-4.5v3h5v2.2h-7.5V32.3z"/>
					<path class="st12" d="M465.4,32.4c0.5-0.1,1-0.2,1.6-0.2c0.6-0.1,1.2-0.1,1.8-0.1c0.6,0,1.2,0,1.9,0.2c0.6,0.1,1.2,0.3,1.7,0.6
						c0.5,0.3,0.9,0.7,1.2,1.3c0.3,0.5,0.5,1.2,0.5,2.1c0,0.8-0.1,1.4-0.4,2s-0.6,1-1.1,1.3c-0.4,0.3-1,0.6-1.5,0.7
						c-0.6,0.2-1.2,0.2-1.8,0.2c-0.1,0-0.2,0-0.3,0c-0.1,0-0.3,0-0.4,0s-0.3,0-0.4,0s-0.2,0-0.3,0v4.3h-2.4V32.4z M469,34.2
						c-0.2,0-0.5,0-0.7,0s-0.4,0-0.5,0.1v4c0,0,0.1,0,0.2,0c0.1,0,0.2,0,0.3,0s0.2,0,0.3,0s0.2,0,0.2,0c0.3,0,0.6,0,0.9-0.1
						s0.6-0.2,0.8-0.3c0.2-0.2,0.4-0.4,0.6-0.7c0.1-0.3,0.2-0.7,0.2-1.1c0-0.4-0.1-0.7-0.2-1c-0.1-0.3-0.3-0.5-0.6-0.6
						s-0.5-0.3-0.8-0.3C469.6,34.2,469.3,34.2,469,34.2z"/>
					<path class="st12" d="M475.1,38.5c0-2.1,0.5-3.7,1.4-4.8c0.9-1.1,2.2-1.7,3.9-1.7c0.9,0,1.7,0.2,2.3,0.5
						c0.7,0.3,1.2,0.7,1.6,1.3c0.4,0.6,0.8,1.2,1,2c0.2,0.8,0.3,1.7,0.3,2.6c0,2.1-0.5,3.7-1.4,4.8S482,45,480.4,45
						c-0.9,0-1.7-0.2-2.3-0.5c-0.7-0.3-1.2-0.7-1.6-1.3s-0.8-1.2-1-2C475.2,40.4,475.1,39.5,475.1,38.5z M477.6,38.5
						c0,0.6,0.1,1.2,0.2,1.7s0.3,1,0.5,1.4c0.2,0.4,0.5,0.7,0.8,0.9c0.3,0.2,0.8,0.3,1.2,0.3c0.9,0,1.5-0.3,2-1
						c0.5-0.7,0.7-1.8,0.7-3.3c0-0.6,0-1.2-0.2-1.7s-0.3-1-0.5-1.4c-0.2-0.4-0.5-0.7-0.8-0.9c-0.3-0.2-0.8-0.3-1.3-0.3
						c-0.9,0-1.5,0.3-2,1C477.9,35.9,477.6,37,477.6,38.5z"/>
					<path class="st12" d="M487.3,32.4c0.3,0,0.6-0.1,0.9-0.1c0.3,0,0.6-0.1,0.9-0.1c0.3,0,0.6,0,0.9-0.1s0.6,0,0.8,0
						c0.6,0,1.1,0.1,1.7,0.2c0.6,0.1,1.1,0.3,1.5,0.5c0.4,0.3,0.8,0.6,1.1,1.1c0.3,0.5,0.4,1,0.4,1.7c0,1-0.2,1.8-0.7,2.5
						c-0.5,0.6-1.1,1.1-1.9,1.3l0.9,0.5l2.8,4.7h-2.8l-2.8-4.9l-1.3-0.2v5.1h-2.4V32.4z M491,34.3c-0.2,0-0.5,0-0.7,0
						c-0.2,0-0.4,0-0.6,0.1V38h1c0.7,0,1.2-0.2,1.6-0.5c0.4-0.3,0.6-0.8,0.6-1.5c0-0.5-0.2-0.9-0.5-1.2S491.6,34.3,491,34.3z"/>
					<path class="st12" d="M506.4,34.5h-3.6v10.3h-2.4V34.5h-3.6v-2.2h9.7V34.5z"/>
					<path class="st12" d="M512.5,42h-3.8l-0.9,2.7h-2.4l4.5-12.5h1.8l4.5,12.5h-2.6L512.5,42z M509.3,40h2.7l-0.9-2.8l-0.4-2h-0.1
						l-0.4,2L509.3,40z"/>
					<path class="st12" d="M524.9,44.7h-7.9V32.3h2.4v10.3h5.4V44.7z"/>
				</g>
			</g>
		</g>
	</g>
	<g>
		<g>
			<g>
				<g>
					<path class="st12" d="M13.3,32.9V22.7H9.4v-1.4h9.3v1.4h-3.9v10.2H13.3z"/>
					<path class="st12" d="M18.6,26.5c0-0.5,0-1.1-0.1-1.6H20l0,1.6c0.3-1.1,1.2-1.5,1.9-1.6c0.4-0.1,0.8,0,1,0v1.5
						c-0.1,0-0.2,0-0.3-0.1c-0.1,0-0.3,0-0.4,0c-1.8,0-2.2,1.1-2.2,2.4v4.3h-1.5V26.5z"/>
					<path class="st12" d="M28.1,33L27,36h-1.6l1.2-3.1l-3.3-8H25l2.5,6.3l2.6-6.3h1.6L28.1,33z"/>
					<path class="st12" d="M42.9,21.4h1.5v10.3c0,0.2,0,0.9,0.1,1.3H43l0-1.3c-0.1,0.2-0.3,0.6-0.7,0.8c-0.7,0.4-1.4,0.6-2,0.6
						c-1.1,0-3.5-0.6-3.5-4.1c0-3.1,1.7-4.4,3.6-4.4c1.7,0,2.3,1,2.5,1.4V21.4z M42.4,26.6c-0.3-0.4-0.9-0.8-1.8-0.8
						c-2.2,0-2.2,2.7-2.2,3.2c0,1.4,0.4,3.1,2.2,3.1c2.4,0,2.4-2.6,2.4-3.2C43,27.6,42.7,27,42.4,26.6z"/>
					<path class="st12" d="M51.8,32.9c-0.1-0.4-0.1-0.8-0.1-1.2c-0.7,1.3-1.8,1.5-2.5,1.5c-1.8,0-2.8-1-2.8-2.4
						c0-0.6,0.2-1.7,1.4-2.4c0.9-0.5,2.1-0.5,2.8-0.5c0.4,0,0.6,0,1.1,0c0-1,0-1.4-0.3-1.8c-0.3-0.4-1-0.5-1.4-0.5
						c-1.5,0-1.6,1-1.6,1.4h-1.5c0-0.4,0.1-1,0.6-1.5c0.6-0.7,1.7-0.9,2.6-0.9c1.2,0,2.4,0.4,2.8,1.2c0.3,0.5,0.3,0.9,0.3,1.2
						L53,30.9c0,0.1,0,1.2,0.1,2H51.8z M50.8,29c-0.6,0-2.9,0-2.9,1.6c0,0.5,0.3,1.4,1.7,1.4c0.8,0,1.3-0.3,1.7-0.9
						c0.3-0.5,0.4-1,0.4-2.1C51.4,29,51.1,29,50.8,29z"/>
					<path class="st12" d="M54.3,24.9h1.4v-1.7l1.5-0.5v2.2H59V26h-1.8v4.8c0,0.4,0,1.1,1.1,1.1c0.3,0,0.6,0,0.7-0.1V33
						c-0.3,0-0.7,0.1-1.2,0.1c-1.4,0-2-0.4-2-1.7V26h-1.4V24.9z"/>
					<path class="st12" d="M65.5,32.9c-0.1-0.4-0.1-0.8-0.1-1.2c-0.7,1.3-1.8,1.5-2.5,1.5c-1.8,0-2.8-1-2.8-2.4
						c0-0.6,0.2-1.7,1.4-2.4c0.9-0.5,2.1-0.5,2.8-0.5c0.4,0,0.6,0,1.1,0c0-1,0-1.4-0.3-1.8c-0.3-0.4-1-0.5-1.4-0.5
						c-1.5,0-1.6,1-1.6,1.4h-1.5c0-0.4,0.1-1,0.6-1.5c0.6-0.7,1.7-0.9,2.6-0.9c1.2,0,2.4,0.4,2.8,1.2c0.3,0.5,0.3,0.9,0.3,1.2
						l-0.1,3.8c0,0.1,0,1.2,0.1,2H65.5z M64.5,29c-0.6,0-2.9,0-2.9,1.6c0,0.5,0.3,1.4,1.7,1.4c0.8,0,1.3-0.3,1.7-0.9
						c0.3-0.5,0.4-1,0.4-2.1C65.1,29,64.9,29,64.5,29z"/>
					<path class="st12" d="M77.5,22.5c-0.3,0-0.6,0-0.9,0c-1.2,0-1.2,0.6-1.2,1.2v1.3h1.9V26h-1.9v6.9h-1.5V26h-1.6v-1.1h1.6V24
						c0-1.1,0.1-1.5,0.3-1.9c0.3-0.5,1-0.9,2-0.9c0.4,0,0.9,0.1,1.2,0.1V22.5z"/>
					<path class="st12" d="M78.7,26.5c0-0.5,0-1.1-0.1-1.6h1.5l0,1.6c0.3-1.1,1.2-1.5,1.9-1.6c0.4-0.1,0.8,0,1,0v1.5
						c-0.1,0-0.2,0-0.3-0.1c-0.1,0-0.3,0-0.4,0c-1.8,0-2.2,1.1-2.2,2.4v4.3h-1.5V26.5z"/>
					<path class="st12" d="M88.1,24.7c3.2,0,3.9,2.5,3.9,4.2c0,2.4-1.3,4.3-4.1,4.3c-2.7,0-4-1.8-4-4.2C84,27,84.9,24.7,88.1,24.7z
						 M88,32.1c1.1,0,2.4-0.8,2.4-3.2c0-2-0.9-3.1-2.3-3.1c-1,0-2.5,0.6-2.5,3.1C85.6,30.6,86.3,32.1,88,32.1z"/>
					<path class="st12" d="M94.1,26l0-1.1h1.5v1.2c0.8-1.3,1.9-1.4,2.5-1.4c1.8,0,2.3,0.9,2.6,1.5c0.3-0.4,0.9-1.5,2.7-1.5
						c1.2,0,2.9,0.5,2.9,2.8v5.4h-1.5v-5.2c0-0.7-0.1-1-0.3-1.2c-0.3-0.4-0.8-0.7-1.5-0.7c-1,0-1.5,0.6-1.7,0.8
						c-0.4,0.5-0.4,1.4-0.4,1.7v4.5h-1.5v-5.3c0-1-0.6-1.8-1.8-1.8c-1,0-1.6,0.6-1.8,0.9c-0.3,0.5-0.4,1.1-0.4,1.6v4.6h-1.5V26z"/>
					<path class="st12" d="M113.2,26l0-1.1h1.5v1.2c0.8-1.3,1.9-1.4,2.5-1.4c1.8,0,2.3,0.9,2.6,1.5c0.3-0.4,0.9-1.5,2.7-1.5
						c1.2,0,2.9,0.5,2.9,2.8v5.4H124v-5.2c0-0.7-0.1-1-0.3-1.2c-0.3-0.4-0.8-0.7-1.5-0.7c-1,0-1.5,0.6-1.7,0.8
						c-0.4,0.5-0.4,1.4-0.4,1.7v4.5h-1.5v-5.3c0-1-0.6-1.8-1.8-1.8c-1,0-1.6,0.6-1.8,0.9c-0.3,0.5-0.4,1.1-0.4,1.6v4.6h-1.5V26z"/>
					<path class="st12" d="M131.5,24.7c3.2,0,3.9,2.5,3.9,4.2c0,2.4-1.3,4.3-4.1,4.3c-2.7,0-4-1.8-4-4.2
						C127.5,27,128.4,24.7,131.5,24.7z M131.5,32.1c1.1,0,2.4-0.8,2.4-3.2c0-2-0.9-3.1-2.3-3.1c-1,0-2.5,0.6-2.5,3.1
						C129,30.6,129.7,32.1,131.5,32.1z"/>
					<path class="st12" d="M137.7,26.5c0-0.5,0-1.1-0.1-1.6h1.5l0,1.6c0.3-1.1,1.2-1.5,1.9-1.6c0.4-0.1,0.8,0,1,0v1.5
						c-0.1,0-0.2,0-0.3-0.1c-0.1,0-0.3,0-0.4,0c-1.8,0-2.2,1.1-2.2,2.4v4.3h-1.5V26.5z"/>
					<path class="st12" d="M144.5,29.2c0,1.7,0.7,2.9,2.3,2.9c1,0,1.8-0.5,1.9-1.7h1.5c0,0.4-0.1,1.1-0.7,1.7
						c-0.4,0.4-1.2,1.1-2.8,1.1c-2.5,0-3.7-1.6-3.7-4.1c0-1.6,0.3-2.9,1.6-3.8c0.8-0.5,1.7-0.6,2.2-0.6c3.6,0,3.5,3.2,3.5,4.5H144.5
						z M148.7,28.1c0-0.8-0.1-2.4-2-2.4c-1,0-2.2,0.6-2.2,2.4H148.7z"/>
					<path class="st12" d="M162,21.4h1.5v10.3c0,0.2,0,0.9,0.1,1.3h-1.5l0-1.3c-0.1,0.2-0.3,0.6-0.7,0.8c-0.7,0.4-1.4,0.6-2,0.6
						c-1.1,0-3.5-0.6-3.5-4.1c0-3.1,1.7-4.4,3.6-4.4c1.7,0,2.3,1,2.5,1.4V21.4z M161.5,26.6c-0.3-0.4-0.9-0.8-1.8-0.8
						c-2.2,0-2.2,2.7-2.2,3.2c0,1.4,0.4,3.1,2.2,3.1c2.4,0,2.4-2.6,2.4-3.2C162.1,27.6,161.8,27,161.5,26.6z"/>
					<path class="st12" d="M165.8,21.4h1.8v1.6h-1.8V21.4z M166,24.9h1.5v8H166V24.9z"/>
					<path class="st12" d="M171.1,30.6c0,0.6,0.3,1.5,1.8,1.5c0.6,0,1.1-0.1,1.4-0.5c0.2-0.2,0.3-0.5,0.3-0.8c0-0.8-0.6-0.9-1.8-1.2
						c-1.7-0.4-3.1-0.7-3.1-2.4c0-1.5,1.3-2.4,3.1-2.4c1,0,2.4,0.3,2.9,1.2c0.2,0.4,0.2,0.8,0.2,1.2h-1.5c0-1.2-1-1.3-1.6-1.3
						c-0.2,0-1.6,0-1.6,1.2c0,0.7,0.7,0.9,1.1,1c2.2,0.5,2.7,0.7,3.2,1.1c0.4,0.4,0.6,1,0.6,1.5c0,0.9-0.5,1.7-1.1,2
						c-0.7,0.4-1.6,0.5-2.4,0.5c-1.6,0-3.2-0.7-3.1-2.6H171.1z"/>
					<path class="st12" d="M178.9,29.2c0,1.7,0.7,2.9,2.3,2.9c1,0,1.8-0.5,1.9-1.7h1.5c0,0.4-0.1,1.1-0.7,1.7
						c-0.4,0.4-1.2,1.1-2.8,1.1c-2.5,0-3.7-1.6-3.7-4.1c0-1.6,0.3-2.9,1.6-3.8c0.8-0.5,1.7-0.6,2.2-0.6c3.6,0,3.5,3.2,3.5,4.5H178.9
						z M183.1,28.1c0-0.8-0.1-2.4-2-2.4c-1,0-2.2,0.6-2.2,2.4H183.1z"/>
					<path class="st12" d="M191.5,32.9c-0.1-0.4-0.1-0.8-0.1-1.2c-0.7,1.3-1.8,1.5-2.5,1.5c-1.8,0-2.8-1-2.8-2.4
						c0-0.6,0.2-1.7,1.4-2.4c0.9-0.5,2.1-0.5,2.8-0.5c0.4,0,0.6,0,1.1,0c0-1,0-1.4-0.3-1.8c-0.3-0.4-1-0.5-1.4-0.5
						c-1.5,0-1.6,1-1.6,1.4h-1.5c0-0.4,0.1-1,0.6-1.5c0.6-0.7,1.7-0.9,2.6-0.9c1.2,0,2.4,0.4,2.8,1.2c0.3,0.5,0.3,0.9,0.3,1.2
						l-0.1,3.8c0,0.1,0,1.2,0.1,2H191.5z M190.5,29c-0.6,0-2.9,0-2.9,1.6c0,0.5,0.3,1.4,1.7,1.4c0.8,0,1.3-0.3,1.7-0.9
						c0.3-0.5,0.4-1,0.4-2.1C191.1,29,190.8,29,190.5,29z"/>
					<path class="st12" d="M196.1,30.6c0,0.6,0.3,1.5,1.8,1.5c0.6,0,1.1-0.1,1.4-0.5c0.2-0.2,0.3-0.5,0.3-0.8c0-0.8-0.6-0.9-1.8-1.2
						c-1.7-0.4-3.1-0.7-3.1-2.4c0-1.5,1.3-2.4,3.1-2.4c1,0,2.4,0.3,2.9,1.2c0.2,0.4,0.2,0.8,0.2,1.2h-1.5c0-1.2-1-1.3-1.6-1.3
						c-0.2,0-1.6,0-1.6,1.2c0,0.7,0.7,0.9,1.1,1c2.2,0.5,2.7,0.7,3.2,1.1c0.4,0.4,0.6,1,0.6,1.5c0,0.9-0.5,1.7-1.1,2
						c-0.7,0.4-1.6,0.5-2.4,0.5c-1.6,0-3.2-0.7-3.1-2.6H196.1z"/>
					<path class="st12" d="M203.9,29.2c0,1.7,0.7,2.9,2.3,2.9c1,0,1.8-0.5,1.9-1.7h1.5c0,0.4-0.1,1.1-0.7,1.7
						c-0.4,0.4-1.2,1.1-2.8,1.1c-2.5,0-3.7-1.6-3.7-4.1c0-1.6,0.3-2.9,1.6-3.8c0.8-0.5,1.7-0.6,2.2-0.6c3.6,0,3.5,3.2,3.5,4.5H203.9
						z M208.2,28.1c0-0.8-0.1-2.4-2-2.4c-1,0-2.2,0.6-2.2,2.4H208.2z"/>
					<path class="st12" d="M217.3,33.6c0.1,0.9,0.4,1.6,1.9,1.6c2.1,0,2.1-1.5,2.1-3.7c-0.6,1.3-2.2,1.4-2.6,1.4
						c-0.7,0-1.8-0.2-2.5-1c-0.7-0.8-0.9-1.9-0.9-3c0-2.7,1.6-4,3.6-4c1.6,0,2.2,0.8,2.5,1.2l0-1.1h1.5l0,1.5l0,5
						c0,1.9-0.1,2.7-0.4,3.3c-0.7,1.3-2.2,1.4-3.3,1.4c-3.2,0-3.3-1.5-3.4-2.6H217.3z M220.8,30.9c0.3-0.4,0.5-0.8,0.5-2.3
						c0-1-0.2-1.6-0.6-2c-0.4-0.4-1-0.7-1.7-0.7c-1.9,0-2.2,1.9-2.2,2.9c0,1.2,0.4,2.9,2.2,2.9C219.9,31.7,220.5,31.4,220.8,30.9z"
						/>
					<path class="st12" d="M225.5,26.5c0-0.5,0-1.1-0.1-1.6h1.5l0,1.6c0.3-1.1,1.2-1.5,1.9-1.6c0.4-0.1,0.8,0,1,0v1.5
						c-0.1,0-0.2,0-0.3-0.1c-0.1,0-0.3,0-0.4,0c-1.8,0-2.2,1.1-2.2,2.4v4.3h-1.5V26.5z"/>
					<path class="st12" d="M234.9,24.7c3.2,0,3.9,2.5,3.9,4.2c0,2.4-1.3,4.3-4.1,4.3c-2.7,0-4-1.8-4-4.2
						C230.8,27,231.7,24.7,234.9,24.7z M234.8,32.1c1.1,0,2.4-0.8,2.4-3.2c0-2-0.9-3.1-2.3-3.1c-1,0-2.5,0.6-2.5,3.1
						C232.4,30.6,233.1,32.1,234.8,32.1z"/>
					<path class="st12" d="M242.3,24.9v5.2c0,0.8,0.2,1.8,1.7,1.8c0.8,0,1.5-0.3,1.9-0.9c0.3-0.5,0.3-1.1,0.3-1.5v-4.5h1.6v6.5
						c0,0.2,0,1.1,0,1.5h-1.6l0-1.4c-0.3,0.6-0.8,1.5-2.6,1.5c-2,0-2.9-1.1-2.9-2.7v-5.4H242.3z"/>
					<path class="st12" d="M250.4,26.2c0-0.4,0-0.5,0-1.3h1.5l0,1.3c0.8-1.3,2.1-1.5,2.7-1.5c1.7,0,3.4,1.2,3.4,4.2
						c0,3-1.7,4.3-3.7,4.3c-1.2,0-2-0.5-2.5-1.2v4h-1.5V26.2z M254.1,32.1c0.4,0,1.2-0.1,1.7-0.8c0.6-0.8,0.7-1.9,0.7-2.5
						c0-1.4-0.4-2.9-2.2-2.9c-2.4,0-2.4,2.5-2.4,3.3C251.9,30.1,252,32.1,254.1,32.1z"/>
					<path class="st12" d="M260.9,30.6c0,0.6,0.3,1.5,1.8,1.5c0.6,0,1.1-0.1,1.4-0.5c0.2-0.2,0.3-0.5,0.3-0.8c0-0.8-0.6-0.9-1.8-1.2
						c-1.7-0.4-3.1-0.7-3.1-2.4c0-1.5,1.3-2.4,3.1-2.4c1,0,2.4,0.3,2.9,1.2c0.2,0.4,0.2,0.8,0.2,1.2h-1.5c0-1.2-1-1.3-1.6-1.3
						c-0.2,0-1.6,0-1.6,1.2c0,0.7,0.7,0.9,1.1,1c2.2,0.5,2.7,0.7,3.2,1.1c0.4,0.4,0.6,1,0.6,1.5c0,0.9-0.5,1.7-1.1,2
						c-0.7,0.4-1.6,0.5-2.4,0.5c-1.6,0-3.2-0.7-3.1-2.6H260.9z"/>
					<path class="st12" d="M275.5,24.7c3.2,0,3.9,2.5,3.9,4.2c0,2.4-1.3,4.3-4.1,4.3c-2.7,0-4-1.8-4-4.2
						C271.4,27,272.3,24.7,275.5,24.7z M275.4,32.1c1.1,0,2.4-0.8,2.4-3.2c0-2-0.9-3.1-2.3-3.1c-1,0-2.5,0.6-2.5,3.1
						C273,30.6,273.7,32.1,275.4,32.1z"/>
					<path class="st12" d="M281.6,25.8l0-0.9h1.5l0,1.3c0.2-0.3,0.8-1.5,2.6-1.5c0.7,0,2.9,0.3,2.9,2.7v5.5H287v-5.1
						c0-0.5-0.1-1-0.4-1.4c-0.4-0.4-0.9-0.5-1.4-0.5c-1.1,0-2.1,0.8-2.1,2.4v4.6h-1.5V25.8z"/>
				</g>
			</g>
		</g>
	</g>
</g>
</svg>
