<?xml version="1.0" encoding="utf-8"?>
<!-- Generator: Adobe Illustrator 23.0.4, SVG Export Plug-In . SVG Version: 6.00 Build 0)  -->
<svg version="1.1" id="Layer_1" xmlns="http://www.w3.org/2000/svg" xmlns:xlink="http://www.w3.org/1999/xlink" x="0px" y="0px"
	 viewBox="0 0 649.5 53.8" style="enable-background:new 0 0 649.5 53.8;" xml:space="preserve">
<style type="text/css">
	.st0{fill:#6DCEF5;}
	.st1{fill:#00BCF1;}
	.st2{fill:#F69451;}
	.st3{fill:#F4824E;}
	.st4{fill:#9C97C9;}
	.st5{fill:#B6A9A6;}
	.st6{fill:#FFDD00;}
	.st7{fill:#FBAE17;}
	.st8{fill:#A5CD39;}
	.st9{fill:#98C93C;}
	.st10{fill:#B1A335;}
	.st11{fill:#BED630;}
	.st12{fill:#FFFFFF;}
</style>
<g>
	<g>
		<g>
			<g>
				<polygon class="st0" points="294.7,26.7 294.7,48.9 294.8,48.9 300.2,23.9 				"/>
				<polygon class="st1" points="320.1,35.7 324.2,30.3 311.1,18.3 304.6,21.7 				"/>
				<polygon class="st2" points="294.7,3.3 294.7,3.3 294.7,3.3 				"/>
				<polygon class="st3" points="311.1,18.3 324.2,30.3 340.3,9.5 340.3,3.3 				"/>
				<polygon class="st4" points="301.3,18.7 304.6,21.7 311.1,18.3 294.7,3.3 294.7,26.7 300.2,23.9 				"/>
				<polygon class="st5" points="340.3,3.3 294.7,3.3 294.7,3.3 311.1,18.3 				"/>
				<polygon class="st6" points="320.1,35.7 334.7,48.9 340.3,48.9 340.3,45 324.2,30.3 				"/>
				<polygon class="st7" points="340.3,45 340.3,9.5 324.2,30.3 				"/>
				<polygon class="st8" points="294.8,48.9 294.8,48.9 334.7,48.9 334.7,48.9 309.8,48.9 				"/>
				<polygon class="st9" points="320.1,35.7 304.6,21.7 300.2,23.9 294.8,48.9 309.8,48.9 				"/>
				<polygon class="st10" points="300.2,23.9 304.6,21.7 301.3,18.7 				"/>
				<polygon class="st11" points="309.8,48.9 334.7,48.9 320.1,35.7 				"/>
			</g>
			<g>
				<path class="st12" d="M317.5,12.3c-1.6,0-2.9,1.3-2.9,2.9c0,0.5,0.1,0.9,0.3,1.3l-8.1,14c-0.6-0.2-1.3-0.3-2-0.3
					c-3.9,0-7,3.1-7,7c0,3.9,3.2,7,7,7c1.9,0,3.7-0.8,5-2.1l-1.8-1.8c-0.8,0.8-1.9,1.3-3.2,1.3c-2.5,0-4.5-2-4.5-4.5
					c0-2.5,2-4.5,4.5-4.5c1.4,0,2.7,0.7,3.5,1.7l1.3-2.3l8.1-14c1.5-0.1,2.6-1.4,2.6-2.9C320.4,13.5,319.1,12.3,317.5,12.3z"/>
				<path class="st12" d="M330.4,34.3l-8.1-14c1.4-1.3,2.2-3.1,2.2-5.1c0-3.9-3.1-7-7-7c-3.9,0-7,3.2-7,7c0,0.6,0.1,1.2,0.2,1.8
					l2.5-0.7c-0.1-0.4-0.2-0.8-0.2-1.2c0-2.5,2-4.5,4.5-4.5c2.5,0,4.5,2,4.5,4.5c0,2.3-1.7,4.1-3.9,4.5l1.3,2.3l8.1,14
					c-0.2,0.4-0.3,0.8-0.3,1.2c0,1.6,1.3,2.9,2.9,2.9c1.6,0,2.9-1.3,2.9-2.9C333.1,35.6,331.9,34.4,330.4,34.3z"/>
				<path class="st12" d="M332,30.3l-0.7,2.5c1.9,0.5,3.3,2.3,3.3,4.3c0,2.5-2,4.5-4.5,4.5c-2.5,0-4.5-2-4.5-4.5
					c0-0.6,0.1-1.1,0.3-1.6h-2.6h-16.2c-0.5-0.8-1.4-1.2-2.4-1.2c-1.6,0-2.9,1.3-2.9,2.9c0,1.6,1.3,2.9,2.9,2.9c1,0,1.8-0.5,2.4-1.2
					h16.2c0.7,3.1,3.5,5.4,6.8,5.4c3.9,0,7-3.2,7-7C337.3,33.9,335,31.1,332,30.3z"/>
			</g>
		</g>
		<g>
			<g>
				<path class="st12" d="M363.8,22.6c-0.4,0.3-1,0.6-1.6,0.7c-0.7,0.1-1.3,0.2-2.1,0.2c-0.9,0-1.7-0.2-2.5-0.5
					c-0.8-0.3-1.5-0.8-2-1.4c-0.6-0.6-1-1.4-1.4-2.4s-0.5-2.1-0.5-3.5c0-1.4,0.2-2.6,0.6-3.5c0.4-1,0.9-1.8,1.5-2.4s1.3-1.1,2.1-1.4
					c0.8-0.3,1.5-0.4,2.3-0.4c0.9,0,1.5,0,2.1,0.1c0.5,0.1,1,0.2,1.4,0.4l-0.4,1.6c-0.7-0.3-1.7-0.5-2.9-0.5c-0.6,0-1.2,0.1-1.7,0.3
					s-1.1,0.6-1.5,1c-0.4,0.5-0.8,1.1-1.1,1.9s-0.4,1.7-0.4,2.9c0,1,0.1,1.9,0.4,2.7c0.3,0.8,0.6,1.4,1.1,1.9s1,0.9,1.6,1.1
					s1.3,0.4,2,0.4c0.6,0,1.2-0.1,1.7-0.2s0.9-0.3,1.2-0.5L363.8,22.6z"/>
				<path class="st12" d="M365.2,15.8c0-2.5,0.5-4.4,1.6-5.7c1-1.3,2.5-2,4.5-2c1,0,2,0.2,2.7,0.6s1.4,0.9,1.9,1.6
					c0.5,0.7,0.9,1.5,1.1,2.4s0.4,2,0.4,3.2c0,2.5-0.5,4.4-1.6,5.7c-1.1,1.3-2.6,2-4.5,2c-1,0-1.9-0.2-2.7-0.6
					c-0.8-0.4-1.4-0.9-1.9-1.6c-0.5-0.7-0.9-1.5-1.1-2.4C365.3,18,365.2,17,365.2,15.8z M367,15.8c0,0.8,0.1,1.6,0.2,2.3
					c0.2,0.7,0.4,1.4,0.8,1.9c0.3,0.6,0.8,1,1.3,1.3c0.5,0.3,1.2,0.5,1.9,0.5c1.3,0,2.4-0.5,3.1-1.5c0.8-1,1.1-2.5,1.1-4.6
					c0-0.8-0.1-1.6-0.2-2.3s-0.4-1.4-0.8-2s-0.8-1-1.3-1.3c-0.5-0.3-1.2-0.5-1.9-0.5c-1.3,0-2.3,0.5-3.1,1.5
					C367.4,12.2,367,13.7,367,15.8z"/>
				<path class="st12" d="M391.7,13.2l0.2-2.2h-0.1l-0.8,2l-3.9,6.7h-0.5l-4.1-6.7l-0.8-2h-0.1l0.3,2.2v10h-1.7V8.4h1.3l4.7,7.6
					l0.7,1.7h0l0.7-1.7l4.4-7.6h1.4v14.9h-1.8V13.2z"/>
				<path class="st12" d="M408.4,13.2l0.2-2.2h-0.1l-0.8,2l-3.9,6.7h-0.5l-4.1-6.7l-0.8-2h-0.1l0.3,2.2v10H397V8.4h1.3l4.7,7.6
					l0.7,1.7h0l0.7-1.7l4.4-7.6h1.4v14.9h-1.8V13.2z"/>
				<path class="st12" d="M413.1,15.8c0-2.5,0.5-4.4,1.6-5.7c1-1.3,2.5-2,4.5-2c1,0,2,0.2,2.7,0.6s1.4,0.9,1.9,1.6
					c0.5,0.7,0.9,1.5,1.1,2.4s0.4,2,0.4,3.2c0,2.5-0.5,4.4-1.6,5.7c-1.1,1.3-2.6,2-4.5,2c-1,0-1.9-0.2-2.7-0.6
					c-0.8-0.4-1.4-0.9-1.9-1.6c-0.5-0.7-0.9-1.5-1.1-2.4C413.2,18,413.1,17,413.1,15.8z M415,15.8c0,0.8,0.1,1.6,0.2,2.3
					c0.2,0.7,0.4,1.4,0.8,1.9c0.3,0.6,0.8,1,1.3,1.3c0.5,0.3,1.2,0.5,1.9,0.5c1.3,0,2.4-0.5,3.1-1.5c0.8-1,1.1-2.5,1.1-4.6
					c0-0.8-0.1-1.6-0.2-2.3s-0.4-1.4-0.8-2s-0.8-1-1.3-1.3c-0.5-0.3-1.2-0.5-1.9-0.5c-1.3,0-2.3,0.5-3.1,1.5
					C415.3,12.2,415,13.7,415,15.8z"/>
				<path class="st12" d="M430.9,13.5l-1.1-2.2h-0.1l0.2,2.2v9.7h-1.7V8.1h0.9l7.1,9.9l1.1,2h0.1l-0.2-2V8.4h1.7v15.1h-0.9
					L430.9,13.5z"/>
				<path class="st12" d="M459.6,13.2l0.2-2.2h-0.1l-0.8,2l-3.9,6.7h-0.5l-4.1-6.7l-0.8-2h-0.1l0.3,2.2v10h-1.7V8.4h1.3l4.7,7.6
					l0.7,1.7h0l0.7-1.7l4.4-7.6h1.4v14.9h-1.8V13.2z"/>
				<path class="st12" d="M464.9,8.4h8.1v1.6h-6.3v4.9h5.8v1.6h-5.8v5.3h6.4v1.6h-8.2V8.4z"/>
				<path class="st12" d="M486.1,9.9h-4.6v13.3h-1.8V9.9h-4.6V8.4h11V9.9z"/>
				<path class="st12" d="M493.9,19.1h-5.5l-1.5,4.1h-1.8l5.6-15.1h0.8l5.7,15.1h-1.9L493.9,19.1z M489,17.6h4.4l-1.7-4.5l-0.5-2.3
					h0l-0.5,2.3L489,17.6z"/>
				<path class="st12" d="M508.4,11.8c0,0.4-0.1,0.7-0.2,1.1c-0.1,0.4-0.3,0.7-0.5,1c-0.2,0.3-0.5,0.6-0.9,0.8s-0.8,0.4-1.3,0.6v0.1
					c0.4,0.1,0.8,0.2,1.2,0.4c0.4,0.2,0.7,0.4,1,0.7c0.3,0.3,0.5,0.7,0.7,1.1c0.2,0.4,0.3,0.9,0.3,1.5c0,0.8-0.2,1.4-0.5,2
					c-0.3,0.6-0.7,1-1.3,1.4c-0.5,0.4-1.1,0.6-1.8,0.8c-0.7,0.2-1.3,0.3-2,0.3c-0.2,0-0.5,0-0.9,0s-0.7,0-1,0c-0.4,0-0.7,0-1.1-0.1
					c-0.4,0-0.7-0.1-0.9-0.2V8.5c0.5-0.1,1.1-0.2,1.8-0.2s1.5-0.1,2.3-0.1c0.6,0,1.1,0,1.7,0.1c0.6,0.1,1.1,0.3,1.6,0.5
					c0.5,0.3,0.9,0.6,1.2,1.1C508.2,10.4,508.4,11,508.4,11.8z M502.3,14.9c0.2,0,0.5,0,0.9,0c0.3,0,0.6,0,0.9-0.1
					c0.3-0.1,0.7-0.3,1-0.4s0.6-0.4,0.8-0.6c0.2-0.2,0.4-0.5,0.6-0.8s0.2-0.6,0.2-0.9c0-0.5-0.1-0.9-0.3-1.2
					c-0.2-0.3-0.4-0.5-0.7-0.7c-0.3-0.2-0.6-0.3-1-0.4s-0.8-0.1-1.2-0.1c-0.5,0-0.9,0-1.3,0c-0.4,0-0.7,0.1-0.9,0.1v5.1H502.3z
					 M503.4,21.9c0.5,0,0.9-0.1,1.3-0.2s0.8-0.3,1.1-0.5c0.3-0.2,0.6-0.5,0.8-0.9c0.2-0.3,0.3-0.7,0.3-1.2c0-0.6-0.1-1-0.4-1.4
					c-0.2-0.4-0.5-0.6-0.9-0.8c-0.4-0.2-0.8-0.3-1.3-0.4c-0.5-0.1-0.9-0.1-1.4-0.1h-1.9v5.3c0.1,0,0.2,0,0.4,0.1c0.2,0,0.4,0,0.6,0
					c0.2,0,0.4,0,0.7,0C503.1,21.9,503.3,21.9,503.4,21.9z"/>
				<path class="st12" d="M511,15.8c0-2.5,0.5-4.4,1.6-5.7c1-1.3,2.5-2,4.5-2c1,0,2,0.2,2.7,0.6s1.4,0.9,1.9,1.6
					c0.5,0.7,0.9,1.5,1.1,2.4s0.4,2,0.4,3.2c0,2.5-0.5,4.4-1.6,5.7c-1.1,1.3-2.6,2-4.5,2c-1,0-1.9-0.2-2.7-0.6
					c-0.8-0.4-1.4-0.9-1.9-1.6c-0.5-0.7-0.9-1.5-1.1-2.4C511.2,18,511,17,511,15.8z M512.9,15.8c0,0.8,0.1,1.6,0.2,2.3
					c0.2,0.7,0.4,1.4,0.8,1.9c0.3,0.6,0.8,1,1.3,1.3c0.5,0.3,1.2,0.5,1.9,0.5c1.3,0,2.4-0.5,3.1-1.5c0.8-1,1.1-2.5,1.1-4.6
					c0-0.8-0.1-1.6-0.2-2.3s-0.4-1.4-0.8-2s-0.8-1-1.3-1.3c-0.5-0.3-1.2-0.5-1.9-0.5c-1.3,0-2.3,0.5-3.1,1.5
					C513.3,12.2,512.9,13.7,512.9,15.8z"/>
				<path class="st12" d="M534.9,23.3h-8.8V8.4h1.8v13.3h7V23.3z"/>
				<path class="st12" d="M537.4,8.4h1.8v14.9h-1.8V8.4z"/>
				<path class="st12" d="M552.4,22.6c-0.4,0.3-1,0.6-1.6,0.7c-0.7,0.1-1.3,0.2-2.1,0.2c-0.9,0-1.7-0.2-2.5-0.5
					c-0.8-0.3-1.5-0.8-2-1.4c-0.6-0.6-1-1.4-1.4-2.4s-0.5-2.1-0.5-3.5c0-1.4,0.2-2.6,0.6-3.5c0.4-1,0.9-1.8,1.5-2.4s1.3-1.1,2.1-1.4
					c0.8-0.3,1.5-0.4,2.3-0.4c0.9,0,1.5,0,2.1,0.1c0.5,0.1,1,0.2,1.4,0.4l-0.4,1.6c-0.7-0.3-1.7-0.5-2.9-0.5c-0.6,0-1.2,0.1-1.7,0.3
					s-1.1,0.6-1.5,1c-0.4,0.5-0.8,1.1-1.1,1.9s-0.4,1.7-0.4,2.9c0,1,0.1,1.9,0.4,2.7c0.3,0.8,0.6,1.4,1.1,1.9s1,0.9,1.6,1.1
					s1.3,0.4,2,0.4c0.6,0,1.2-0.1,1.7-0.2s0.9-0.3,1.2-0.5L552.4,22.6z"/>
				<path class="st12" d="M560.7,8.4c0.3,0,0.6-0.1,0.9-0.1c0.3,0,0.7,0,1,0c0.4,0,0.7,0,1.1,0c0.3,0,0.7,0,1,0
					c1.2,0,2.2,0.2,3.1,0.6c0.9,0.4,1.6,0.9,2.2,1.5c0.6,0.7,1,1.5,1.3,2.4c0.3,0.9,0.4,1.9,0.4,3c0,1-0.1,2-0.4,2.9
					s-0.7,1.8-1.2,2.5c-0.6,0.7-1.3,1.3-2.2,1.7c-0.9,0.4-2,0.6-3.3,0.6c-0.2,0-0.5,0-0.9,0c-0.4,0-0.7,0-1.1,0
					c-0.4,0-0.7,0-1.1-0.1c-0.3,0-0.6,0-0.7-0.1V8.4z M564.7,9.8c-0.2,0-0.4,0-0.6,0s-0.4,0-0.6,0c-0.2,0-0.4,0-0.6,0
					c-0.2,0-0.3,0-0.4,0v11.9c0.1,0,0.2,0,0.4,0c0.2,0,0.4,0,0.6,0c0.2,0,0.4,0,0.6,0c0.2,0,0.3,0,0.4,0c1,0,1.8-0.2,2.5-0.5
					c0.7-0.3,1.2-0.8,1.6-1.4c0.4-0.6,0.7-1.2,0.9-2s0.3-1.5,0.3-2.3c0-0.7-0.1-1.4-0.2-2.1c-0.2-0.7-0.4-1.3-0.8-1.9
					c-0.4-0.6-0.9-1-1.5-1.4C566.5,9.9,565.7,9.8,564.7,9.8z"/>
				<path class="st12" d="M574.6,8.4h1.8v14.9h-1.8V8.4z"/>
				<path class="st12" d="M586.7,19.5c0-0.6-0.2-1.1-0.5-1.5c-0.4-0.4-0.8-0.7-1.3-1c-0.5-0.3-1.1-0.6-1.7-0.8
					c-0.6-0.3-1.2-0.6-1.7-0.9c-0.5-0.4-1-0.8-1.3-1.3s-0.5-1.2-0.5-2c0-1.2,0.4-2.1,1.2-2.8c0.8-0.7,2-1,3.4-1
					c0.9,0,1.7,0.1,2.4,0.2c0.7,0.1,1.3,0.3,1.7,0.5l-0.5,1.6c-0.3-0.2-0.8-0.3-1.4-0.5s-1.3-0.2-2.1-0.2c-0.9,0-1.6,0.2-2.1,0.6
					c-0.5,0.4-0.7,0.9-0.7,1.5c0,0.6,0.2,1,0.5,1.4s0.8,0.7,1.3,1c0.5,0.3,1.1,0.6,1.7,0.9c0.6,0.3,1.2,0.6,1.7,1s1,0.8,1.3,1.4
					s0.5,1.2,0.5,2c0,0.6-0.1,1.2-0.3,1.7c-0.2,0.5-0.6,1-1,1.3c-0.4,0.4-1,0.7-1.6,0.9c-0.6,0.2-1.3,0.3-2.1,0.3
					c-1.1,0-1.9-0.1-2.6-0.2s-1.2-0.3-1.6-0.5l0.6-1.6c0.3,0.2,0.8,0.4,1.4,0.5s1.4,0.3,2.2,0.3c0.5,0,0.9,0,1.3-0.1
					c0.4-0.1,0.8-0.2,1.1-0.4s0.5-0.5,0.7-0.8C586.6,20.3,586.7,19.9,586.7,19.5z"/>
				<path class="st12" d="M591,8.4h8.1v1.6h-6.3v4.9h5.8v1.6h-5.8v5.3h6.4v1.6H591V8.4z"/>
				<path class="st12" d="M609.8,19.1h-5.5l-1.5,4.1h-1.8l5.6-15.1h0.8l5.7,15.1h-1.9L609.8,19.1z M604.9,17.6h4.4l-1.7-4.5
					l-0.5-2.3h0l-0.5,2.3L604.9,17.6z"/>
				<path class="st12" d="M622.4,19.5c0-0.6-0.2-1.1-0.5-1.5c-0.4-0.4-0.8-0.7-1.3-1c-0.5-0.3-1.1-0.6-1.7-0.8
					c-0.6-0.3-1.2-0.6-1.7-0.9c-0.5-0.4-1-0.8-1.3-1.3s-0.5-1.2-0.5-2c0-1.2,0.4-2.1,1.2-2.8c0.8-0.7,2-1,3.4-1
					c0.9,0,1.7,0.1,2.4,0.2c0.7,0.1,1.3,0.3,1.7,0.5l-0.5,1.6c-0.3-0.2-0.8-0.3-1.4-0.5s-1.3-0.2-2.1-0.2c-0.9,0-1.6,0.2-2.1,0.6
					c-0.5,0.4-0.7,0.9-0.7,1.5c0,0.6,0.2,1,0.5,1.4s0.8,0.7,1.3,1c0.5,0.3,1.1,0.6,1.7,0.9c0.6,0.3,1.2,0.6,1.7,1s1,0.8,1.3,1.4
					s0.5,1.2,0.5,2c0,0.6-0.1,1.2-0.3,1.7c-0.2,0.5-0.6,1-1,1.3c-0.4,0.4-1,0.7-1.6,0.9c-0.6,0.2-1.3,0.3-2.1,0.3
					c-1.1,0-1.9-0.1-2.6-0.2s-1.2-0.3-1.6-0.5l0.6-1.6c0.3,0.2,0.8,0.4,1.4,0.5s1.4,0.3,2.2,0.3c0.5,0,0.9,0,1.3-0.1
					c0.4-0.1,0.8-0.2,1.1-0.4s0.5-0.5,0.7-0.8C622.3,20.3,622.4,19.9,622.4,19.5z"/>
				<path class="st12" d="M626.7,8.4h8.1v1.6h-6.3v4.9h5.8v1.6h-5.8v5.3h6.4v1.6h-8.2V8.4z"/>
				<path class="st12" d="M644.8,19.5c0-0.6-0.2-1.1-0.5-1.5c-0.4-0.4-0.8-0.7-1.3-1c-0.5-0.3-1.1-0.6-1.7-0.8
					c-0.6-0.3-1.2-0.6-1.7-0.9c-0.5-0.4-1-0.8-1.3-1.3s-0.5-1.2-0.5-2c0-1.2,0.4-2.1,1.2-2.8c0.8-0.7,2-1,3.4-1
					c0.9,0,1.7,0.1,2.4,0.2c0.7,0.1,1.3,0.3,1.7,0.5l-0.5,1.6c-0.3-0.2-0.8-0.3-1.4-0.5s-1.3-0.2-2.1-0.2c-0.9,0-1.6,0.2-2.1,0.6
					c-0.5,0.4-0.7,0.9-0.7,1.5c0,0.6,0.2,1,0.5,1.4s0.8,0.7,1.3,1c0.5,0.3,1.1,0.6,1.7,0.9c0.6,0.3,1.2,0.6,1.7,1s1,0.8,1.3,1.4
					s0.5,1.2,0.5,2c0,0.6-0.1,1.2-0.3,1.7c-0.2,0.5-0.6,1-1,1.3c-0.4,0.4-1,0.7-1.6,0.9c-0.6,0.2-1.3,0.3-2.1,0.3
					c-1.1,0-1.9-0.1-2.6-0.2s-1.2-0.3-1.6-0.5l0.6-1.6c0.3,0.2,0.8,0.4,1.4,0.5s1.4,0.3,2.2,0.3c0.5,0,0.9,0,1.3-0.1
					c0.4-0.1,0.8-0.2,1.1-0.4s0.5-0.5,0.7-0.8C644.7,20.3,644.8,19.9,644.8,19.5z"/>
			</g>
			<g>
				<g>
					<path class="st12" d="M357.1,39.2h-0.6v5.3H354V32.1h2.4v5.5l0.6-0.2l3.4-5.3h2.8l-3.6,5.2l-1,0.7l1,0.7l4.1,5.8h-3L357.1,39.2
						z"/>
					<path class="st12" d="M368,38l-1-2h-0.1l0.3,2v6.5h-2.3V32h1.8l4.7,6.6l0.9,1.9h0.1l-0.3-1.9v-6.5h2.3v12.5h-1.8L368,38z"/>
					<path class="st12" d="M376.1,38.3c0-2.1,0.5-3.7,1.4-4.8c0.9-1.1,2.2-1.7,3.9-1.7c0.9,0,1.7,0.2,2.3,0.5
						c0.7,0.3,1.2,0.7,1.6,1.3c0.4,0.6,0.8,1.2,1,2c0.2,0.8,0.3,1.7,0.3,2.6c0,2.1-0.5,3.7-1.4,4.8s-2.2,1.7-3.9,1.7
						c-0.9,0-1.7-0.2-2.3-0.5c-0.7-0.3-1.2-0.7-1.6-1.3s-0.8-1.2-1-2C376.2,40.1,376.1,39.2,376.1,38.3z M378.6,38.3
						c0,0.6,0.1,1.2,0.2,1.7s0.3,1,0.5,1.4c0.2,0.4,0.5,0.7,0.8,0.9c0.3,0.2,0.8,0.3,1.2,0.3c0.9,0,1.5-0.3,2-1
						c0.5-0.7,0.7-1.8,0.7-3.3c0-0.6,0-1.2-0.2-1.7s-0.3-1-0.5-1.4c-0.2-0.4-0.5-0.7-0.8-0.9c-0.3-0.2-0.8-0.3-1.3-0.3
						c-0.9,0-1.5,0.3-2,1C378.9,35.7,378.6,36.8,378.6,38.3z"/>
					<path class="st12" d="M391.2,39l0.2,2.2h0.1l0.2-2.2l2.2-6.9h1.6l2.1,6.9l0.2,2.2h0.1l0.3-2.2l1.5-6.9h2.5l-3.4,12.5h-1.6
						l-2.2-6.9l-0.3-1.9h-0.1l-0.3,1.9l-2.2,6.9h-1.7l-3.4-12.5h2.6L391.2,39z"/>
					<path class="st12" d="M411.1,44.5h-7.9V32.1h2.4v10.3h5.4V44.5z"/>
					<path class="st12" d="M412.2,32.1h7.4v2.2h-4.9v2.9h4.5v2.2h-4.5v3h5v2.2h-7.5V32.1z"/>
					<path class="st12" d="M421.4,32.1c0.2,0,0.5-0.1,0.8-0.1c0.3,0,0.6,0,1-0.1c0.3,0,0.7,0,1,0c0.3,0,0.6,0,0.8,0
						c1.1,0,2,0.2,2.8,0.5c0.8,0.3,1.4,0.7,1.9,1.3c0.5,0.6,0.8,1.2,1.1,2c0.2,0.8,0.3,1.6,0.3,2.5c0,0.8-0.1,1.6-0.3,2.4
						s-0.6,1.5-1.1,2.1c-0.5,0.6-1.2,1.1-2,1.5c-0.8,0.4-1.8,0.5-3,0.5c-0.2,0-0.4,0-0.8,0s-0.6,0-1,0c-0.3,0-0.7,0-1-0.1
						s-0.5,0-0.7-0.1V32.1z M425.2,34.1c-0.3,0-0.5,0-0.8,0c-0.3,0-0.5,0-0.6,0.1v8.3c0,0,0.1,0,0.2,0c0.1,0,0.2,0,0.4,0
						s0.3,0,0.4,0s0.2,0,0.3,0c0.7,0,1.3-0.1,1.7-0.4c0.5-0.2,0.8-0.6,1.1-1c0.3-0.4,0.5-0.9,0.6-1.4s0.2-1.1,0.2-1.6
						c0-0.5,0-1-0.1-1.5c-0.1-0.5-0.3-0.9-0.5-1.3c-0.3-0.4-0.6-0.7-1-1C426.5,34.2,425.9,34.1,425.2,34.1z"/>
					<path class="st12" d="M437.1,38h4.6v5.5c-0.5,0.4-1.1,0.7-1.8,0.9c-0.7,0.2-1.4,0.3-2,0.3c-0.8,0-1.5-0.1-2.2-0.4
						c-0.7-0.2-1.3-0.6-1.8-1.2c-0.5-0.5-0.9-1.2-1.2-2c-0.3-0.8-0.4-1.8-0.4-2.9c0-1.2,0.2-2.2,0.5-3c0.3-0.8,0.8-1.5,1.3-2
						c0.5-0.5,1.2-0.9,1.9-1.1c0.7-0.2,1.4-0.3,2.1-0.3c0.7,0,1.3,0.1,1.9,0.2s1,0.2,1.3,0.3l-0.5,2c-0.3-0.1-0.6-0.2-1-0.3
						S439,34,438.4,34c-0.5,0-1,0.1-1.4,0.2c-0.4,0.2-0.8,0.4-1.1,0.8s-0.6,0.8-0.7,1.3c-0.2,0.5-0.3,1.2-0.3,2
						c0,0.7,0.1,1.4,0.2,1.9s0.4,1,0.7,1.3c0.3,0.3,0.6,0.6,1,0.8c0.4,0.2,0.8,0.2,1.3,0.2c0.3,0,0.6,0,0.9-0.1
						c0.3-0.1,0.5-0.2,0.7-0.3v-2.3l-2.7-0.3V38z"/>
					<path class="st12" d="M443.5,32.1h7.4v2.2h-4.9v2.9h4.5v2.2h-4.5v3h5v2.2h-7.5V32.1z"/>
					<path class="st12" d="M457,32.2c0.5-0.1,1-0.2,1.6-0.2c0.6-0.1,1.2-0.1,1.8-0.1c0.6,0,1.2,0,1.9,0.2c0.6,0.1,1.2,0.3,1.7,0.6
						c0.5,0.3,0.9,0.7,1.2,1.3c0.3,0.5,0.5,1.2,0.5,2.1c0,0.8-0.1,1.4-0.4,2s-0.6,1-1.1,1.3c-0.4,0.3-1,0.6-1.5,0.7
						c-0.6,0.2-1.2,0.2-1.8,0.2c-0.1,0-0.2,0-0.3,0c-0.1,0-0.3,0-0.4,0s-0.3,0-0.4,0s-0.2,0-0.3,0v4.3H457V32.2z M460.6,34
						c-0.2,0-0.5,0-0.7,0s-0.4,0-0.5,0.1v4c0,0,0.1,0,0.2,0c0.1,0,0.2,0,0.3,0s0.2,0,0.3,0s0.2,0,0.2,0c0.3,0,0.6,0,0.9-0.1
						s0.6-0.2,0.8-0.3c0.2-0.2,0.4-0.4,0.6-0.7c0.1-0.3,0.2-0.7,0.2-1.1c0-0.4-0.1-0.7-0.2-1c-0.1-0.3-0.3-0.5-0.6-0.6
						s-0.5-0.3-0.8-0.3C461.2,34,460.9,34,460.6,34z"/>
					<path class="st12" d="M466.7,38.3c0-2.1,0.5-3.7,1.4-4.8c0.9-1.1,2.2-1.7,3.9-1.7c0.9,0,1.7,0.2,2.3,0.5
						c0.7,0.3,1.2,0.7,1.6,1.3c0.4,0.6,0.8,1.2,1,2c0.2,0.8,0.3,1.7,0.3,2.6c0,2.1-0.5,3.7-1.4,4.8s-2.2,1.7-3.9,1.7
						c-0.9,0-1.7-0.2-2.3-0.5c-0.7-0.3-1.2-0.7-1.6-1.3s-0.8-1.2-1-2C466.8,40.1,466.7,39.2,466.7,38.3z M469.2,38.3
						c0,0.6,0.1,1.2,0.2,1.7s0.3,1,0.5,1.4c0.2,0.4,0.5,0.7,0.8,0.9c0.3,0.2,0.8,0.3,1.2,0.3c0.9,0,1.5-0.3,2-1
						c0.5-0.7,0.7-1.8,0.7-3.3c0-0.6,0-1.2-0.2-1.7s-0.3-1-0.5-1.4c-0.2-0.4-0.5-0.7-0.8-0.9c-0.3-0.2-0.8-0.3-1.3-0.3
						c-0.9,0-1.5,0.3-2,1C469.5,35.7,469.2,36.8,469.2,38.3z"/>
					<path class="st12" d="M478.8,32.2c0.3,0,0.6-0.1,0.9-0.1c0.3,0,0.6-0.1,0.9-0.1c0.3,0,0.6,0,0.9-0.1s0.6,0,0.8,0
						c0.6,0,1.1,0.1,1.7,0.2c0.6,0.1,1.1,0.3,1.5,0.5c0.4,0.3,0.8,0.6,1.1,1.1c0.3,0.5,0.4,1,0.4,1.7c0,1-0.2,1.8-0.7,2.5
						c-0.5,0.6-1.1,1.1-1.9,1.3l0.9,0.5l2.8,4.7h-2.8l-2.8-4.9l-1.3-0.2v5.1h-2.4V32.2z M482.6,34.1c-0.2,0-0.5,0-0.7,0
						c-0.2,0-0.4,0-0.6,0.1v3.6h1c0.7,0,1.2-0.2,1.6-0.5c0.4-0.3,0.6-0.8,0.6-1.5c0-0.5-0.2-0.9-0.5-1.2S483.2,34.1,482.6,34.1z"/>
					<path class="st12" d="M498,34.2h-3.6v10.3H492V34.2h-3.6v-2.2h9.7V34.2z"/>
					<path class="st12" d="M504,41.7h-3.8l-0.9,2.7h-2.4l4.5-12.5h1.8l4.5,12.5H505L504,41.7z M500.8,39.8h2.7l-0.9-2.8l-0.4-2h-0.1
						l-0.4,2L500.8,39.8z"/>
					<path class="st12" d="M516.5,44.5h-7.9V32.1h2.4v10.3h5.4V44.5z"/>
				</g>
			</g>
		</g>
	</g>
	<g>
		<g>
			<g>
				<g>
					<path class="st12" d="M4.9,32.7V22.5H1v-1.4h9.3v1.4H6.5v10.2H4.9z"/>
					<path class="st12" d="M10.2,26.3c0-0.5,0-1.1-0.1-1.6h1.5l0,1.6c0.3-1.1,1.2-1.5,1.9-1.6c0.4-0.1,0.8,0,1,0v1.5
						c-0.1,0-0.2,0-0.3-0.1c-0.1,0-0.3,0-0.4,0c-1.8,0-2.2,1.1-2.2,2.4v4.3h-1.5V26.3z"/>
					<path class="st12" d="M19.7,32.8l-1.2,3H17l1.2-3.1l-3.3-8h1.7l2.5,6.3l2.6-6.3h1.6L19.7,32.8z"/>
					<path class="st12" d="M34.5,21.2H36v10.3c0,0.2,0,0.9,0.1,1.3h-1.5l0-1.3c-0.1,0.2-0.3,0.6-0.7,0.8c-0.7,0.4-1.4,0.6-2,0.6
						c-1.1,0-3.5-0.6-3.5-4.1c0-3.1,1.7-4.4,3.6-4.4c1.7,0,2.3,1,2.5,1.4V21.2z M34,26.3c-0.3-0.4-0.9-0.8-1.8-0.8
						c-2.2,0-2.2,2.7-2.2,3.2c0,1.4,0.4,3.1,2.2,3.1c2.4,0,2.4-2.6,2.4-3.2C34.6,27.4,34.3,26.8,34,26.3z"/>
					<path class="st12" d="M43.4,32.7c-0.1-0.4-0.1-0.8-0.1-1.2c-0.7,1.3-1.8,1.5-2.5,1.5c-1.8,0-2.8-1-2.8-2.4
						c0-0.6,0.2-1.7,1.4-2.4c0.9-0.5,2.1-0.5,2.8-0.5c0.4,0,0.6,0,1.1,0c0-1,0-1.4-0.3-1.8c-0.3-0.4-1-0.5-1.4-0.5
						c-1.5,0-1.6,1-1.6,1.4h-1.5c0-0.4,0.1-1,0.6-1.5c0.6-0.7,1.7-0.9,2.6-0.9c1.2,0,2.4,0.4,2.8,1.2c0.3,0.5,0.3,0.9,0.3,1.2
						l-0.1,3.8c0,0.1,0,1.2,0.1,2H43.4z M42.3,28.8c-0.6,0-2.9,0-2.9,1.6c0,0.5,0.3,1.4,1.7,1.4c0.8,0,1.3-0.3,1.7-0.9
						c0.3-0.5,0.4-1,0.4-2.1C42.9,28.8,42.7,28.8,42.3,28.8z"/>
					<path class="st12" d="M45.9,24.6h1.4V23l1.5-0.5v2.2h1.8v1.1h-1.8v4.8c0,0.4,0,1.1,1.1,1.1c0.3,0,0.6,0,0.7-0.1v1.2
						c-0.3,0-0.7,0.1-1.2,0.1c-1.4,0-2-0.4-2-1.7v-5.4h-1.4V24.6z"/>
					<path class="st12" d="M57.1,32.7C57,32.3,57,31.9,57,31.5c-0.7,1.3-1.8,1.5-2.5,1.5c-1.8,0-2.8-1-2.8-2.4
						c0-0.6,0.2-1.7,1.4-2.4c0.9-0.5,2.1-0.5,2.8-0.5c0.4,0,0.6,0,1.1,0c0-1,0-1.4-0.3-1.8c-0.3-0.4-1-0.5-1.4-0.5
						c-1.5,0-1.6,1-1.6,1.4h-1.5c0-0.4,0.1-1,0.6-1.5c0.6-0.7,1.7-0.9,2.6-0.9c1.2,0,2.4,0.4,2.8,1.2c0.3,0.5,0.3,0.9,0.3,1.2
						l-0.1,3.8c0,0.1,0,1.2,0.1,2H57.1z M56.1,28.8c-0.6,0-2.9,0-2.9,1.6c0,0.5,0.3,1.4,1.7,1.4c0.8,0,1.3-0.3,1.7-0.9
						c0.3-0.5,0.4-1,0.4-2.1C56.7,28.8,56.5,28.8,56.1,28.8z"/>
					<path class="st12" d="M69.1,22.3c-0.3,0-0.6,0-0.9,0c-1.2,0-1.2,0.6-1.2,1.2v1.3h1.9v1.1H67v6.9h-1.5v-6.9h-1.6v-1.1h1.6v-0.9
						c0-1.1,0.1-1.5,0.3-1.9c0.3-0.5,1-0.9,2-0.9c0.4,0,0.9,0.1,1.2,0.1V22.3z"/>
					<path class="st12" d="M70.3,26.3c0-0.5,0-1.1-0.1-1.6h1.5l0,1.6c0.3-1.1,1.2-1.5,1.9-1.6c0.4-0.1,0.8,0,1,0v1.5
						c-0.1,0-0.2,0-0.3-0.1c-0.1,0-0.3,0-0.4,0c-1.8,0-2.2,1.1-2.2,2.4v4.3h-1.5V26.3z"/>
					<path class="st12" d="M79.7,24.5c3.2,0,3.9,2.5,3.9,4.2c0,2.4-1.3,4.3-4.1,4.3c-2.7,0-4-1.8-4-4.2
						C75.6,26.8,76.5,24.5,79.7,24.5z M79.6,31.9c1.1,0,2.4-0.8,2.4-3.2c0-2-0.9-3.1-2.3-3.1c-1,0-2.5,0.6-2.5,3.1
						C77.1,30.3,77.8,31.9,79.6,31.9z"/>
					<path class="st12" d="M85.7,25.7l0-1.1h1.5v1.2c0.8-1.3,1.9-1.4,2.5-1.4c1.8,0,2.3,0.9,2.6,1.5c0.3-0.4,0.9-1.5,2.7-1.5
						c1.2,0,2.9,0.5,2.9,2.8v5.4h-1.5v-5.2c0-0.7-0.1-1-0.3-1.2c-0.3-0.4-0.8-0.7-1.5-0.7c-1,0-1.5,0.6-1.7,0.8
						c-0.4,0.5-0.4,1.4-0.4,1.7v4.5h-1.5v-5.3c0-1-0.6-1.8-1.8-1.8c-1,0-1.6,0.6-1.8,0.9c-0.3,0.5-0.4,1.1-0.4,1.6v4.6h-1.5V25.7z"
						/>
					<path class="st12" d="M104.8,25.7l0-1.1h1.5v1.2c0.8-1.3,1.9-1.4,2.5-1.4c1.8,0,2.3,0.9,2.6,1.5c0.3-0.4,0.9-1.5,2.7-1.5
						c1.2,0,2.9,0.5,2.9,2.8v5.4h-1.5v-5.2c0-0.7-0.1-1-0.3-1.2c-0.3-0.4-0.8-0.7-1.5-0.7c-1,0-1.5,0.6-1.7,0.8
						c-0.4,0.5-0.4,1.4-0.4,1.7v4.5h-1.5v-5.3c0-1-0.6-1.8-1.8-1.8c-1,0-1.6,0.6-1.8,0.9c-0.3,0.5-0.4,1.1-0.4,1.6v4.6h-1.5V25.7z"
						/>
					<path class="st12" d="M123.1,24.5c3.2,0,3.9,2.5,3.9,4.2c0,2.4-1.3,4.3-4.1,4.3c-2.7,0-4-1.8-4-4.2
						C119,26.8,120,24.5,123.1,24.5z M123,31.9c1.1,0,2.4-0.8,2.4-3.2c0-2-0.9-3.1-2.3-3.1c-1,0-2.5,0.6-2.5,3.1
						C120.6,30.3,121.3,31.9,123,31.9z"/>
					<path class="st12" d="M129.2,26.3c0-0.5,0-1.1-0.1-1.6h1.5l0,1.6c0.3-1.1,1.2-1.5,1.9-1.6c0.4-0.1,0.8,0,1,0v1.5
						c-0.1,0-0.2,0-0.3-0.1c-0.1,0-0.3,0-0.4,0c-1.8,0-2.2,1.1-2.2,2.4v4.3h-1.5V26.3z"/>
					<path class="st12" d="M136.1,29c0,1.7,0.7,2.9,2.3,2.9c1,0,1.8-0.5,1.9-1.7h1.5c0,0.4-0.1,1.1-0.7,1.7
						c-0.4,0.4-1.2,1.1-2.8,1.1c-2.5,0-3.7-1.6-3.7-4.1c0-1.6,0.3-2.9,1.6-3.8c0.8-0.5,1.7-0.6,2.2-0.6c3.6,0,3.5,3.2,3.5,4.5H136.1
						z M140.3,27.9c0-0.8-0.1-2.4-2-2.4c-1,0-2.2,0.6-2.2,2.4H140.3z"/>
					<path class="st12" d="M153.6,21.2h1.5v10.3c0,0.2,0,0.9,0.1,1.3h-1.5l0-1.3c-0.1,0.2-0.3,0.6-0.7,0.8c-0.7,0.4-1.4,0.6-2,0.6
						c-1.1,0-3.5-0.6-3.5-4.1c0-3.1,1.7-4.4,3.6-4.4c1.7,0,2.3,1,2.5,1.4V21.2z M153,26.3c-0.3-0.4-0.9-0.8-1.8-0.8
						c-2.2,0-2.2,2.7-2.2,3.2c0,1.4,0.4,3.1,2.2,3.1c2.4,0,2.4-2.6,2.4-3.2C153.6,27.4,153.4,26.8,153,26.3z"/>
					<path class="st12" d="M157.4,21.2h1.8v1.6h-1.8V21.2z M157.6,24.7h1.5v8h-1.5V24.7z"/>
					<path class="st12" d="M162.6,30.3c0,0.6,0.3,1.5,1.8,1.5c0.6,0,1.1-0.1,1.4-0.5c0.2-0.2,0.3-0.5,0.3-0.8c0-0.8-0.6-0.9-1.8-1.2
						c-1.7-0.4-3.1-0.7-3.1-2.4c0-1.5,1.3-2.4,3.1-2.4c1,0,2.4,0.3,2.9,1.2c0.2,0.4,0.2,0.8,0.2,1.2h-1.5c0-1.2-1-1.3-1.6-1.3
						c-0.2,0-1.6,0-1.6,1.2c0,0.7,0.7,0.9,1.1,1c2.2,0.5,2.7,0.7,3.2,1.1c0.4,0.4,0.6,1,0.6,1.5c0,0.9-0.5,1.7-1.1,2
						c-0.7,0.4-1.6,0.5-2.4,0.5c-1.6,0-3.2-0.7-3.1-2.6H162.6z"/>
					<path class="st12" d="M170.4,29c0,1.7,0.7,2.9,2.3,2.9c1,0,1.8-0.5,1.9-1.7h1.5c0,0.4-0.1,1.1-0.7,1.7
						c-0.4,0.4-1.2,1.1-2.8,1.1c-2.5,0-3.7-1.6-3.7-4.1c0-1.6,0.3-2.9,1.6-3.8c0.8-0.5,1.7-0.6,2.2-0.6c3.6,0,3.5,3.2,3.5,4.5H170.4
						z M174.7,27.9c0-0.8-0.1-2.4-2-2.4c-1,0-2.2,0.6-2.2,2.4H174.7z"/>
					<path class="st12" d="M183.1,32.7c-0.1-0.4-0.1-0.8-0.1-1.2c-0.7,1.3-1.8,1.5-2.5,1.5c-1.8,0-2.8-1-2.8-2.4
						c0-0.6,0.2-1.7,1.4-2.4c0.9-0.5,2.1-0.5,2.8-0.5c0.4,0,0.6,0,1.1,0c0-1,0-1.4-0.3-1.8c-0.3-0.4-1-0.5-1.4-0.5
						c-1.5,0-1.6,1-1.6,1.4h-1.5c0-0.4,0.1-1,0.6-1.5c0.6-0.7,1.7-0.9,2.6-0.9c1.2,0,2.4,0.4,2.8,1.2c0.3,0.5,0.3,0.9,0.3,1.2
						l-0.1,3.8c0,0.1,0,1.2,0.1,2H183.1z M182,28.8c-0.6,0-2.9,0-2.9,1.6c0,0.5,0.3,1.4,1.7,1.4c0.8,0,1.3-0.3,1.7-0.9
						c0.3-0.5,0.4-1,0.4-2.1C182.6,28.8,182.4,28.8,182,28.8z"/>
					<path class="st12" d="M187.7,30.3c0,0.6,0.3,1.5,1.8,1.5c0.6,0,1.1-0.1,1.4-0.5c0.2-0.2,0.3-0.5,0.3-0.8c0-0.8-0.6-0.9-1.8-1.2
						c-1.7-0.4-3.1-0.7-3.1-2.4c0-1.5,1.3-2.4,3.1-2.4c1,0,2.4,0.3,2.9,1.2c0.2,0.4,0.2,0.8,0.2,1.2H191c0-1.2-1-1.3-1.6-1.3
						c-0.2,0-1.6,0-1.6,1.2c0,0.7,0.7,0.9,1.1,1c2.2,0.5,2.7,0.7,3.2,1.1c0.4,0.4,0.6,1,0.6,1.5c0,0.9-0.5,1.7-1.1,2
						c-0.7,0.4-1.6,0.5-2.4,0.5c-1.6,0-3.2-0.7-3.1-2.6H187.7z"/>
					<path class="st12" d="M195.5,29c0,1.7,0.7,2.9,2.3,2.9c1,0,1.8-0.5,1.9-1.7h1.5c0,0.4-0.1,1.1-0.7,1.7
						c-0.4,0.4-1.2,1.1-2.8,1.1c-2.5,0-3.7-1.6-3.7-4.1c0-1.6,0.3-2.9,1.6-3.8c0.8-0.5,1.7-0.6,2.2-0.6c3.6,0,3.5,3.2,3.5,4.5H195.5
						z M199.7,27.9c0-0.8-0.1-2.4-2-2.4c-1,0-2.2,0.6-2.2,2.4H199.7z"/>
					<path class="st12" d="M208.9,33.3c0.1,0.9,0.4,1.6,1.9,1.6c2.1,0,2.1-1.5,2.1-3.7c-0.6,1.3-2.2,1.4-2.6,1.4
						c-0.7,0-1.8-0.2-2.5-1c-0.7-0.8-0.9-1.9-0.9-3c0-2.7,1.6-4,3.6-4c1.6,0,2.2,0.8,2.5,1.2l0-1.1h1.5l0,1.5l0,5
						c0,1.9-0.1,2.7-0.4,3.3c-0.7,1.3-2.2,1.4-3.3,1.4c-3.2,0-3.3-1.5-3.4-2.6H208.9z M212.4,30.6c0.3-0.4,0.5-0.8,0.5-2.3
						c0-1-0.2-1.6-0.6-2c-0.4-0.4-1-0.7-1.7-0.7c-1.9,0-2.2,1.9-2.2,2.9c0,1.2,0.4,2.9,2.2,2.9C211.5,31.4,212,31.1,212.4,30.6z"/>
					<path class="st12" d="M217.1,26.3c0-0.5,0-1.1-0.1-1.6h1.5l0,1.6c0.3-1.1,1.2-1.5,1.9-1.6c0.4-0.1,0.8,0,1,0v1.5
						c-0.1,0-0.2,0-0.3-0.1c-0.1,0-0.3,0-0.4,0c-1.8,0-2.2,1.1-2.2,2.4v4.3h-1.5V26.3z"/>
					<path class="st12" d="M226.5,24.5c3.2,0,3.9,2.5,3.9,4.2c0,2.4-1.3,4.3-4.1,4.3c-2.7,0-4-1.8-4-4.2
						C222.4,26.8,223.3,24.5,226.5,24.5z M226.4,31.9c1.1,0,2.4-0.8,2.4-3.2c0-2-0.9-3.1-2.3-3.1c-1,0-2.5,0.6-2.5,3.1
						C224,30.3,224.7,31.9,226.4,31.9z"/>
					<path class="st12" d="M233.9,24.7v5.2c0,0.8,0.2,1.8,1.7,1.8c0.8,0,1.5-0.3,1.9-0.9c0.3-0.5,0.3-1.1,0.3-1.5v-4.5h1.6v6.5
						c0,0.2,0,1.1,0,1.5h-1.6l0-1.4c-0.3,0.6-0.8,1.5-2.6,1.5c-2,0-2.9-1.1-2.9-2.7v-5.4H233.9z"/>
					<path class="st12" d="M242,26c0-0.4,0-0.5,0-1.3h1.5l0,1.3c0.8-1.3,2.1-1.5,2.7-1.5c1.7,0,3.4,1.2,3.4,4.2c0,3-1.7,4.3-3.7,4.3
						c-1.2,0-2-0.5-2.5-1.2v4H242V26z M245.7,31.9c0.4,0,1.2-0.1,1.7-0.8c0.6-0.8,0.7-1.9,0.7-2.5c0-1.4-0.4-2.9-2.2-2.9
						c-2.4,0-2.4,2.5-2.4,3.3C243.4,29.9,243.6,31.9,245.7,31.9z"/>
					<path class="st12" d="M252.4,30.3c0,0.6,0.3,1.5,1.8,1.5c0.6,0,1.1-0.1,1.4-0.5c0.2-0.2,0.3-0.5,0.3-0.8c0-0.8-0.6-0.9-1.8-1.2
						c-1.7-0.4-3.1-0.7-3.1-2.4c0-1.5,1.3-2.4,3.1-2.4c1,0,2.4,0.3,2.9,1.2c0.2,0.4,0.2,0.8,0.2,1.2h-1.5c0-1.2-1-1.3-1.6-1.3
						c-0.2,0-1.6,0-1.6,1.2c0,0.7,0.7,0.9,1.1,1c2.2,0.5,2.7,0.7,3.2,1.1c0.4,0.4,0.6,1,0.6,1.5c0,0.9-0.5,1.7-1.1,2
						c-0.7,0.4-1.6,0.5-2.4,0.5c-1.6,0-3.2-0.7-3.1-2.6H252.4z"/>
					<path class="st12" d="M267,24.5c3.2,0,3.9,2.5,3.9,4.2c0,2.4-1.3,4.3-4.1,4.3c-2.7,0-4-1.8-4-4.2C263,26.8,263.9,24.5,267,24.5
						z M266.9,31.9c1.1,0,2.4-0.8,2.4-3.2c0-2-0.9-3.1-2.3-3.1c-1,0-2.5,0.6-2.5,3.1C264.5,30.3,265.2,31.9,266.9,31.9z"/>
					<path class="st12" d="M273.1,25.6l0-0.9h1.5l0,1.3c0.2-0.3,0.8-1.5,2.6-1.5c0.7,0,2.9,0.3,2.9,2.7v5.5h-1.5v-5.1
						c0-0.5-0.1-1-0.4-1.4c-0.4-0.4-0.9-0.5-1.4-0.5c-1.1,0-2.1,0.8-2.1,2.4v4.6h-1.5V25.6z"/>
				</g>
			</g>
		</g>
	</g>
</g>
</svg>
