<?xml version="1.0" encoding="utf-8"?>
<!-- Generator: Adobe Illustrator 23.0.4, SVG Export Plug-In . SVG Version: 6.00 Build 0)  -->
<svg version="1.1" id="Layer_1" xmlns="http://www.w3.org/2000/svg" xmlns:xlink="http://www.w3.org/1999/xlink" x="0px" y="0px"
	 viewBox="0 0 430.5 147.4" style="enable-background:new 0 0 430.5 147.4;" xml:space="preserve">
<style type="text/css">
	.st0{fill:#FFFFFF;stroke:#FFFFFF;stroke-width:4;stroke-miterlimit:10;}
	.st1{fill:#D3D9EE;stroke:#D3D9EE;stroke-width:4;stroke-miterlimit:10;}
	.st2{fill:#ABB8DE;}
	.st3{fill:#8197CC;}
	.st4{fill:none;stroke:#ABB8DE;stroke-width:1.2137;stroke-miterlimit:10;}
	.st5{fill:none;stroke:#8197CC;stroke-width:1.0623;stroke-miterlimit:10;}
	.st6{fill:#FFFFFF;}
</style>
<g>
	<g>
		<g>
			<path class="st0" d="M141.3,80.2c3.5-37.1-23.8-70-60.9-73.4S10.4,30.6,7,67.7c-0.3,3.3-0.4,6.6-0.2,9.9
				c9.7-3.9,20.4-5.7,31.5-4.6c33.8,3.1,59.4,30.7,61.1,63.6C122.1,127.3,138.9,106.1,141.3,80.2z"/>
			<path class="st1" d="M38.3,72.9c-11.1-1-21.9,0.7-31.5,4.6c1.7,32.9,27.3,60.4,61.1,63.6c11.1,1,21.9-0.7,31.5-4.6
				C97.7,103.6,72.1,76,38.3,72.9z"/>
		</g>
		<g>
			<g>
				<path class="st2" d="M91.7,60.2c16.7,16.7,18,48.6,10.3,56.2s-39.6,6.3-56.2-10.3s-20.6-33.5-4.1-50S75.1,43.6,91.7,60.2z"/>
				<g>
					<path class="st3" d="M90.3,105.6c-2.1,0.2-2.8,1.4-4.8,1.6c-5.2,0.6-8.3-13.5-15.8-17.9c-8.5-5-23.5,0.8-29.3,10.8
						c1.6,2,3.5,4,5.5,6c16.7,16.7,48.6,18,56.2,10.3c0.1-0.1,0.2-0.2,0.2-0.3C100.9,110.7,94.2,105.2,90.3,105.6z"/>
				</g>
			</g>
			<path class="st4" d="M67.8,95.4c0,6.6-5.4,11.9-11.9,11.9"/>
			<path class="st5" d="M89,74.1C89,80.7,83.6,86,77.1,86"/>
		</g>
	</g>
	<g>
		<g>
			<g>
				<path class="st6" d="M168.9,58.3c0-1-0.3-1.8-0.9-2.4c-0.6-0.6-1.3-1.1-2.2-1.6S164,53.4,163,53c-1-0.4-1.9-0.9-2.8-1.5
					s-1.6-1.3-2.2-2.2c-0.6-0.9-0.9-2-0.9-3.3c0-1.9,0.7-3.4,2-4.5s3.2-1.7,5.6-1.7c1.4,0,2.7,0.1,3.8,0.3s2,0.5,2.7,0.8l-0.9,2.6
					c-0.5-0.3-1.3-0.5-2.3-0.7s-2.2-0.4-3.5-0.4c-1.5,0-2.7,0.3-3.4,1c-0.8,0.7-1.1,1.5-1.1,2.4s0.3,1.6,0.9,2.2
					c0.6,0.6,1.3,1.1,2.2,1.6s1.8,0.9,2.8,1.4s1.9,1,2.8,1.6c0.9,0.6,1.6,1.3,2.2,2.2c0.6,0.9,0.9,1.9,0.9,3.2c0,1-0.2,2-0.6,2.8
					c-0.4,0.8-0.9,1.5-1.6,2.1c-0.7,0.6-1.6,1.1-2.6,1.4c-1,0.3-2.2,0.5-3.4,0.5c-1.7,0-3.2-0.1-4.3-0.4s-2-0.6-2.6-0.9l1-2.6
					c0.5,0.3,1.3,0.6,2.3,0.9s2.2,0.4,3.5,0.4c0.8,0,1.5-0.1,2.1-0.2c0.7-0.1,1.2-0.4,1.7-0.7c0.5-0.3,0.9-0.8,1.2-1.3
					C168.8,59.6,168.9,59,168.9,58.3z"/>
				<path class="st6" d="M190,64.4h-14.3V40.3h2.9v21.6H190V64.4z"/>
				<path class="st6" d="M193.4,40.3h13.1v2.6h-10.3v7.9h9.4v2.5h-9.4v8.6h10.5v2.6h-13.3V40.3z"/>
				<path class="st6" d="M211,40.3h13.1v2.6h-10.3v7.9h9.4v2.5h-9.4v8.6h10.5v2.6H211V40.3z"/>
				<path class="st6" d="M228.5,40.5c0.9-0.2,1.8-0.3,2.8-0.4c1-0.1,2-0.1,3-0.1c1.1,0,2.1,0.1,3.2,0.3c1.1,0.2,2.1,0.6,3,1.1
					c0.9,0.6,1.6,1.3,2.2,2.3c0.6,1,0.8,2.2,0.8,3.7s-0.3,2.7-0.8,3.7s-1.2,1.8-2.1,2.5c-0.9,0.6-1.9,1.1-3,1.4
					c-1.1,0.3-2.3,0.4-3.5,0.4c-0.1,0-0.3,0-0.6,0s-0.5,0-0.8,0s-0.6,0-0.8-0.1c-0.3,0-0.5,0-0.6-0.1v9.2h-2.9V40.5H228.5z
					 M234.4,42.5c-0.6,0-1.2,0-1.7,0c-0.6,0-1,0.1-1.3,0.2v10c0.1,0,0.3,0.1,0.6,0.1s0.5,0,0.8,0s0.5,0,0.8,0s0.4,0,0.6,0
					c0.8,0,1.6-0.1,2.3-0.2c0.8-0.1,1.5-0.4,2.1-0.8c0.6-0.4,1.1-0.9,1.5-1.7c0.4-0.7,0.6-1.6,0.6-2.7c0-0.9-0.2-1.7-0.5-2.4
					c-0.4-0.6-0.8-1.1-1.4-1.5c-0.6-0.4-1.2-0.6-2-0.8C235.9,42.6,235.1,42.5,234.4,42.5z"/>
				<path class="st6" d="M257,40.3c0.4-0.1,0.9-0.1,1.5-0.2s1.1-0.1,1.7-0.1s1.2,0,1.7,0c0.6,0,1.1,0,1.6,0c1.9,0,3.6,0.3,5,0.9
					c1.4,0.6,2.6,1.4,3.5,2.5s1.6,2.4,2.1,3.8c0.4,1.5,0.7,3.1,0.7,4.9c0,1.6-0.2,3.2-0.6,4.7s-1.1,2.8-2,4s-2.1,2.1-3.6,2.8
					c-1.5,0.7-3.3,1.1-5.3,1.1c-0.4,0-0.8,0-1.4,0s-1.2,0-1.8-0.1c-0.6,0-1.2-0.1-1.7-0.1s-0.9-0.1-1.1-0.1V40.3H257z M263.5,42.5
					c-0.3,0-0.6,0-1,0s-0.7,0-1.1,0c-0.3,0-0.7,0-0.9,0.1c-0.3,0-0.5,0-0.7,0.1V62c0.1,0,0.3,0,0.7,0.1c0.3,0,0.7,0,1,0s0.7,0,1,0
					s0.5,0,0.7,0c1.6,0,3-0.3,4.1-0.8c1.1-0.6,2-1.3,2.6-2.2c0.7-0.9,1.1-2,1.4-3.2c0.3-1.2,0.4-2.5,0.4-3.7c0-1.1-0.1-2.3-0.4-3.4
					c-0.3-1.1-0.7-2.2-1.3-3.1s-1.5-1.7-2.5-2.3C266.4,42.8,265.1,42.5,263.5,42.5z"/>
				<path class="st6" d="M279.4,40.3h2.9v24.1h-2.9V40.3z"/>
				<path class="st6" d="M298.8,58.3c0-1-0.3-1.8-0.9-2.4s-1.3-1.1-2.2-1.6c-0.9-0.5-1.8-0.9-2.8-1.3c-1-0.4-1.9-0.9-2.8-1.5
					s-1.6-1.3-2.2-2.2s-0.9-2-0.9-3.3c0-1.9,0.7-3.4,2-4.5s3.2-1.7,5.6-1.7c1.4,0,2.7,0.1,3.8,0.3c1.1,0.2,2,0.5,2.7,0.8l-0.9,2.6
					c-0.5-0.3-1.3-0.5-2.3-0.7s-2.2-0.4-3.5-0.4c-1.5,0-2.7,0.3-3.4,1c-0.8,0.7-1.1,1.5-1.1,2.4s0.3,1.6,0.9,2.2
					c0.6,0.6,1.3,1.1,2.2,1.6c0.9,0.5,1.8,0.9,2.8,1.4s1.9,1,2.8,1.6s1.6,1.3,2.2,2.2c0.6,0.9,0.9,1.9,0.9,3.2c0,1-0.2,2-0.6,2.8
					s-0.9,1.5-1.6,2.1s-1.6,1.1-2.6,1.4c-1,0.3-2.2,0.5-3.4,0.5c-1.7,0-3.2-0.1-4.3-0.4s-2-0.6-2.6-0.9l1-2.6
					c0.5,0.3,1.3,0.6,2.3,0.9s2.2,0.4,3.5,0.4c0.8,0,1.5-0.1,2.1-0.2c0.7-0.1,1.2-0.4,1.7-0.7c0.5-0.3,0.9-0.8,1.2-1.3
					C298.6,59.6,298.8,59,298.8,58.3z"/>
				<path class="st6" d="M304.9,52.3c0-4,0.9-7.1,2.6-9.3s4.1-3.2,7.3-3.2c1.7,0,3.2,0.3,4.4,0.9c1.2,0.6,2.3,1.4,3.1,2.5
					c0.8,1.1,1.4,2.4,1.8,3.9s0.6,3.2,0.6,5.1c0,4-0.9,7.1-2.6,9.3c-1.7,2.2-4.2,3.2-7.3,3.2c-1.7,0-3.1-0.3-4.4-0.9
					c-1.2-0.6-2.3-1.4-3.1-2.5c-0.8-1.1-1.4-2.4-1.8-3.9S304.9,54.2,304.9,52.3z M307.9,52.3c0,1.3,0.1,2.6,0.4,3.8
					c0.3,1.2,0.7,2.2,1.2,3.2c0.6,0.9,1.3,1.6,2.1,2.2c0.9,0.5,1.9,0.8,3.1,0.8c2.1,0,3.8-0.8,5-2.4s1.8-4.1,1.8-7.5
					c0-1.3-0.1-2.6-0.4-3.8s-0.7-2.3-1.2-3.2c-0.6-0.9-1.3-1.6-2.1-2.2c-0.9-0.5-1.9-0.8-3.1-0.8c-2.1,0-3.8,0.8-5,2.4
					C308.5,46.5,307.9,49,307.9,52.3z"/>
				<path class="st6" d="M329.2,40.5c0.9-0.2,1.9-0.3,3-0.4c1.1-0.1,2.2-0.1,3.1-0.1c1.1,0,2.1,0.1,3,0.3c1,0.2,1.8,0.6,2.5,1.1
					s1.3,1.2,1.7,2.1c0.4,0.9,0.7,1.9,0.7,3.1c0,1.9-0.5,3.4-1.6,4.6c-1,1.2-2.3,2-3.9,2.3l1.7,1.3l6,9.6h-3.3L335.4,54l-3.4-0.5
					v10.9h-2.9L329.2,40.5L329.2,40.5z M335.4,42.5c-0.3,0-0.6,0-0.9,0s-0.6,0-0.9,0s-0.6,0-0.8,0.1c-0.3,0-0.5,0.1-0.6,0.1v8.9h2.7
					c1.6,0,2.9-0.4,3.9-1.2s1.6-2,1.6-3.7c0-1.2-0.4-2.3-1.3-3.1C338.1,42.9,336.9,42.5,335.4,42.5z"/>
				<path class="st6" d="M349.2,40.3c0.4-0.1,0.9-0.1,1.5-0.2s1.1-0.1,1.7-0.1s1.2,0,1.7,0c0.6,0,1.1,0,1.6,0c1.9,0,3.6,0.3,5,0.9
					c1.4,0.6,2.6,1.4,3.5,2.5s1.6,2.4,2.1,3.8c0.4,1.5,0.7,3.1,0.7,4.9c0,1.6-0.2,3.2-0.6,4.7s-1.1,2.8-2,4s-2.1,2.1-3.6,2.8
					c-1.5,0.7-3.3,1.1-5.3,1.1c-0.4,0-0.8,0-1.4,0s-1.2,0-1.8-0.1c-0.6,0-1.2-0.1-1.7-0.1s-0.9-0.1-1.1-0.1V40.3H349.2z M355.7,42.5
					c-0.3,0-0.6,0-1,0s-0.7,0-1.1,0c-0.3,0-0.7,0-0.9,0.1c-0.3,0-0.5,0-0.7,0.1V62c0.1,0,0.3,0,0.7,0.1c0.3,0,0.7,0,1,0s0.7,0,1,0
					s0.5,0,0.7,0c1.6,0,3-0.3,4.1-0.8c1.1-0.6,2-1.3,2.6-2.2c0.7-0.9,1.1-2,1.4-3.2c0.3-1.2,0.4-2.5,0.4-3.7c0-1.1-0.1-2.3-0.4-3.4
					c-0.3-1.1-0.7-2.2-1.3-3.1s-1.5-1.7-2.5-2.3C358.6,42.8,357.3,42.5,355.7,42.5z"/>
				<path class="st6" d="M371.3,40.3h13.1v2.6h-10.3v7.9h9.4v2.5h-9.4v8.6h10.5v2.6h-13.3L371.3,40.3L371.3,40.3z"/>
				<path class="st6" d="M388.9,40.5c0.9-0.2,1.9-0.3,3-0.4C393,40,394.1,40,395,40c1.1,0,2.1,0.1,3,0.3c1,0.2,1.8,0.6,2.5,1.1
					s1.3,1.2,1.7,2.1c0.4,0.9,0.7,1.9,0.7,3.1c0,1.9-0.5,3.4-1.6,4.6c-1,1.2-2.3,2-3.9,2.3l1.7,1.3l6,9.6h-3.3L395.1,54l-3.4-0.5
					v10.9h-2.9L388.9,40.5L388.9,40.5z M395.1,42.5c-0.3,0-0.6,0-0.9,0s-0.6,0-0.9,0s-0.6,0-0.8,0.1c-0.3,0-0.5,0.1-0.6,0.1v8.9h2.7
					c1.6,0,2.9-0.4,3.9-1.2s1.6-2,1.6-3.7c0-1.2-0.4-2.3-1.3-3.1C397.8,42.9,396.6,42.5,395.1,42.5z"/>
			</g>
			<g>
				<path class="st6" d="M163.4,84.7h-1v8.1h-3.7V73.9h3.7v8.4l0.9-0.4l5.2-8h4.2l-5.5,7.9l-1.5,1l1.5,1.1l6.3,8.9H169L163.4,84.7z"
					/>
				<path class="st6" d="M179.8,82.9l-1.5-3h-0.1l0.4,3v9.9h-3.5v-19h2.7l7.2,10.1l1.4,2.9h0.1l-0.4-2.9V74h3.5v19h-2.7L179.8,82.9z
					"/>
				<path class="st6" d="M192,83.3c0-3.1,0.7-5.6,2.1-7.3c1.4-1.7,3.4-2.6,5.9-2.6c1.3,0,2.5,0.2,3.5,0.7s1.8,1.1,2.5,2
					s1.2,1.9,1.5,3.1s0.5,2.5,0.5,4c0,3.2-0.7,5.6-2.1,7.3c-1.4,1.7-3.4,2.6-5.9,2.6c-1.4,0-2.6-0.2-3.6-0.7s-1.8-1.1-2.5-2
					s-1.1-1.9-1.5-3.1C192.1,86.2,192,84.8,192,83.3z M195.8,83.3c0,1,0.1,1.8,0.2,2.6s0.4,1.5,0.7,2.1s0.8,1,1.3,1.4
					c0.5,0.3,1.1,0.5,1.9,0.5c1.3,0,2.3-0.5,3.1-1.5s1.1-2.7,1.1-5c0-0.9-0.1-1.8-0.2-2.6c-0.2-0.8-0.4-1.5-0.7-2.1
					s-0.7-1.1-1.3-1.4c-0.5-0.3-1.2-0.5-1.9-0.5c-1.3,0-2.3,0.5-3.1,1.6C196.2,79.4,195.8,81.1,195.8,83.3z"/>
				<path class="st6" d="M214.8,84.5l0.4,3.3h0.1l0.4-3.4l3.3-10.5h2.4l3.2,10.6l0.4,3.3h0.1l0.4-3.4l2.3-10.5h3.8l-5.2,19h-2.5
					l-3.4-10.5l-0.5-2.9h-0.1l-0.5,2.9l-3.3,10.5h-2.6l-5.2-19h4L214.8,84.5z"/>
				<path class="st6" d="M244.9,92.8h-12V73.9h3.7v15.6h8.3V92.8z"/>
				<path class="st6" d="M246.5,73.9h11.2v3.3h-7.5v4.4h6.8v3.3h-6.8v4.6h7.6v3.3h-11.3L246.5,73.9L246.5,73.9z"/>
				<path class="st6" d="M260.4,73.9c0.4-0.1,0.8-0.1,1.3-0.1s1-0.1,1.5-0.1s1,0,1.5,0s0.9,0,1.3,0c1.7,0,3.1,0.2,4.3,0.7
					c1.2,0.5,2.2,1.1,2.9,2c0.7,0.8,1.3,1.9,1.6,3c0.3,1.2,0.5,2.5,0.5,3.9c0,1.3-0.2,2.5-0.5,3.7s-0.9,2.2-1.6,3.2s-1.8,1.7-3,2.2
					c-1.2,0.6-2.8,0.8-4.6,0.8c-0.3,0-0.7,0-1.1,0c-0.5,0-1,0-1.5-0.1c-0.5,0-1-0.1-1.5-0.1s-0.8-0.1-1.1-0.1L260.4,73.9L260.4,73.9
					z M266.2,76.9c-0.4,0-0.8,0-1.2,0c-0.4,0-0.7,0-0.9,0.1v12.7c0.1,0,0.2,0,0.4,0c0.2,0,0.4,0,0.6,0s0.4,0,0.6,0s0.3,0,0.4,0
					c1,0,1.9-0.2,2.6-0.6s1.2-0.9,1.6-1.5s0.7-1.3,0.8-2.1c0.2-0.8,0.2-1.6,0.2-2.5c0-0.7-0.1-1.5-0.2-2.2s-0.4-1.4-0.8-2
					s-0.9-1.1-1.6-1.5S267.2,76.9,266.2,76.9z"/>
				<path class="st6" d="M284.1,82.9h7v8.4c-0.8,0.6-1.7,1.1-2.7,1.4c-1.1,0.3-2.1,0.4-3.1,0.4c-1.2,0-2.3-0.2-3.4-0.6
					s-1.9-1-2.7-1.8c-0.8-0.8-1.3-1.8-1.8-3.1c-0.4-1.2-0.6-2.7-0.6-4.4c0-1.8,0.3-3.3,0.8-4.5c0.5-1.3,1.2-2.3,2-3.1
					c0.8-0.8,1.8-1.4,2.8-1.7s2.1-0.5,3.2-0.5s2,0.1,2.8,0.2c0.8,0.2,1.5,0.3,2,0.5l-0.8,3.1c-0.5-0.2-1-0.3-1.5-0.4
					c-0.6-0.1-1.3-0.1-2.1-0.1c-0.8,0-1.5,0.1-2.1,0.4c-0.6,0.2-1.2,0.6-1.7,1.1s-0.8,1.2-1.1,2c-0.3,0.8-0.4,1.8-0.4,3
					c0,1.1,0.1,2.1,0.4,2.9s0.6,1.5,1.1,2s1,0.9,1.6,1.2c0.6,0.3,1.2,0.4,1.9,0.4c0.5,0,0.9-0.1,1.4-0.2c0.4-0.1,0.8-0.3,1.1-0.5
					v-3.6l-4.1-0.4L284.1,82.9L284.1,82.9z"/>
				<path class="st6" d="M293.7,73.9h11.2v3.3h-7.5v4.4h6.8v3.3h-6.8v4.6h7.6v3.3h-11.3L293.7,73.9L293.7,73.9z"/>
				<path class="st6" d="M314.1,74.1c0.8-0.1,1.6-0.3,2.5-0.3s1.8-0.1,2.7-0.1c0.9,0,1.9,0.1,2.8,0.2s1.8,0.5,2.6,0.9
					s1.4,1.1,1.8,1.9c0.5,0.8,0.7,1.9,0.7,3.2c0,1.2-0.2,2.2-0.6,3s-1,1.5-1.6,2c-0.7,0.5-1.5,0.9-2.3,1.1c-0.9,0.2-1.8,0.4-2.7,0.4
					c-0.1,0-0.2,0-0.4,0s-0.4,0-0.6,0s-0.4,0-0.6,0s-0.4,0-0.4-0.1v6.5h-3.7V74.1H314.1z M319.6,76.8c-0.4,0-0.7,0-1,0
					s-0.6,0.1-0.8,0.1V83c0.1,0,0.2,0,0.3,0.1c0.1,0,0.3,0,0.5,0s0.3,0,0.5,0s0.3,0,0.3,0c0.5,0,1,0,1.4-0.1
					c0.5-0.1,0.9-0.3,1.3-0.5s0.7-0.6,0.9-1c0.2-0.4,0.3-1,0.3-1.7c0-0.6-0.1-1.1-0.3-1.5c-0.2-0.4-0.5-0.7-0.9-0.9
					c-0.4-0.2-0.8-0.4-1.2-0.5C320.5,76.9,320,76.8,319.6,76.8z"/>
				<path class="st6" d="M328.6,83.3c0-3.1,0.7-5.6,2.1-7.3c1.4-1.7,3.4-2.6,5.9-2.6c1.3,0,2.5,0.2,3.5,0.7s1.8,1.1,2.5,2
					s1.2,1.9,1.5,3.1s0.5,2.5,0.5,4c0,3.2-0.7,5.6-2.1,7.3c-1.4,1.7-3.4,2.6-5.9,2.6c-1.4,0-2.6-0.2-3.6-0.7s-1.8-1.1-2.5-2
					s-1.1-1.9-1.5-3.1C328.8,86.2,328.6,84.8,328.6,83.3z M332.5,83.3c0,1,0.1,1.8,0.2,2.6s0.4,1.5,0.7,2.1c0.3,0.6,0.8,1,1.3,1.4
					c0.5,0.3,1.1,0.5,1.9,0.5c1.3,0,2.3-0.5,3.1-1.5s1.1-2.7,1.1-5c0-0.9-0.1-1.8-0.2-2.6c-0.2-0.8-0.4-1.5-0.7-2.1
					c-0.3-0.6-0.7-1.1-1.3-1.4c-0.5-0.3-1.2-0.5-1.9-0.5c-1.3,0-2.3,0.5-3.1,1.6C332.9,79.4,332.5,81.1,332.5,83.3z"/>
				<path class="st6" d="M347,74.1c0.4-0.1,0.9-0.1,1.3-0.2c0.5-0.1,1-0.1,1.4-0.1c0.5,0,0.9-0.1,1.4-0.1c0.4,0,0.9,0,1.2,0
					c0.9,0,1.8,0.1,2.6,0.2c0.9,0.2,1.6,0.4,2.3,0.8c0.7,0.4,1.2,0.9,1.6,1.6s0.6,1.6,0.6,2.6c0,1.5-0.4,2.8-1.1,3.8s-1.7,1.6-2.9,2
					l1.3,0.8l4.3,7.2h-4.3l-4.3-7.4l-1.9-0.4v7.7H347V74.1z M352.7,76.9c-0.4,0-0.8,0-1.1,0c-0.4,0-0.7,0.1-0.9,0.1v5.5h1.6
					c1,0,1.8-0.2,2.5-0.7c0.6-0.5,0.9-1.2,0.9-2.3c0-0.8-0.3-1.4-0.8-1.9S353.6,76.9,352.7,76.9z"/>
				<path class="st6" d="M376,77.2h-5.5v15.6h-3.7V77.2h-5.5v-3.3H376V77.2z"/>
				<path class="st6" d="M385,88.6h-5.8l-1.4,4.2h-3.7l6.8-19h2.7l6.8,19h-3.9L385,88.6z M380.2,85.6h4l-1.4-4.2l-0.6-3h-0.1l-0.6,3
					L380.2,85.6z"/>
				<path class="st6" d="M403.8,92.8h-12V73.9h3.7v15.6h8.3V92.8z"/>
			</g>
		</g>
		<g>
			<g>
				<g>
					<g>
						<path class="st6" d="M158.5,104.4h2.9c1.1,0,1.8,0.1,2.4,0.7c0.4,0.4,0.6,1,0.6,1.7s-0.2,1.2-0.7,1.7s-1.1,0.7-2.6,0.7h-1.4
							v3.8h-1.2V104.4z M159.7,108.2h1.4c0.8,0,2-0.1,2-1.5s-1.1-1.4-1.8-1.4h-1.7v2.9H159.7z"/>
						<path class="st6" d="M168.3,106.9c2.4,0,3,1.9,3,3.2c0,1.8-1,3.2-3,3.2s-3-1.4-3-3.1C165.2,108.6,165.9,106.9,168.3,106.9z
							 M168.2,112.4c0.9,0,1.8-0.6,1.8-2.4c0-1.5-0.7-2.3-1.8-2.3c-0.7,0-1.9,0.5-1.9,2.3C166.4,111.3,166.9,112.4,168.2,112.4z"/>
						<path class="st6" d="M173.2,107l1.5,4.8l1.5-4.8h1.5l1.4,4.7l1.5-4.7h1.2l-2.1,6h-1.3l-1.4-5l-1.6,5h-1.3l-2-6H173.2z"/>
						<path class="st6" d="M183.5,110.2c0,1.2,0.5,2.2,1.7,2.2c0.7,0,1.3-0.4,1.4-1.2h1.1c0,0.3-0.1,0.8-0.5,1.3
							c-0.3,0.3-0.9,0.8-2.1,0.8c-1.9,0-2.8-1.2-2.8-3.1c0-1.2,0.2-2.2,1.2-2.8c0.6-0.4,1.3-0.4,1.6-0.4c2.7,0,2.6,2.4,2.6,3.4h-4.2
							V110.2z M186.7,109.4c0-0.6-0.1-1.8-1.5-1.8c-0.7,0-1.6,0.4-1.6,1.8H186.7z"/>
						<path class="st6" d="M189.5,108.2c0-0.4,0-0.8-0.1-1.2h1.1v1.2c0.2-0.8,0.9-1.1,1.4-1.2c0.3,0,0.6,0,0.8,0v1.1
							c-0.1,0-0.1,0-0.2,0c-0.1,0-0.2,0-0.3,0c-1.3,0-1.6,0.8-1.6,1.8v3.2h-1.1L189.5,108.2L189.5,108.2z"/>
						<path class="st6" d="M194.9,110.2c0,1.2,0.5,2.2,1.7,2.2c0.7,0,1.3-0.4,1.4-1.2h1.1c0,0.3-0.1,0.8-0.5,1.3
							c-0.3,0.3-0.9,0.8-2.1,0.8c-1.9,0-2.8-1.2-2.8-3.1c0-1.2,0.2-2.2,1.2-2.8c0.6-0.4,1.3-0.4,1.6-0.4c2.7,0,2.6,2.4,2.6,3.4h-4.2
							V110.2z M198.1,109.4c0-0.6-0.1-1.8-1.5-1.8c-0.7,0-1.6,0.4-1.6,1.8H198.1z"/>
						<path class="st6" d="M205.1,104.4h1.1v7.7c0,0.1,0,0.6,0,1h-1.1v-1c-0.1,0.2-0.2,0.4-0.5,0.6c-0.5,0.3-1.1,0.4-1.5,0.4
							c-0.8,0-2.6-0.4-2.6-3.1c0-2.3,1.3-3.3,2.7-3.3c1.3,0,1.7,0.8,1.9,1L205.1,104.4L205.1,104.4z M204.7,108.3
							c-0.2-0.3-0.7-0.6-1.3-0.6c-1.7,0-1.7,2-1.7,2.4c0,1.1,0.3,2.3,1.7,2.3c1.8,0,1.8-2,1.8-2.4
							C205.1,109.1,204.9,108.6,204.7,108.3z"/>
						<path class="st6" d="M212.7,107.9c0.2-0.3,0.6-1,2-1c0.6,0,1.4,0.1,1.9,0.8c0.3,0.3,0.7,0.9,0.7,2.3c0,1.2-0.3,1.8-0.6,2.2
							c-0.5,0.7-1.3,1-2.1,1c-0.3,0-0.8,0-1.3-0.4c-0.3-0.2-0.5-0.4-0.6-0.6v0.9h-1.1V112v-7.6h1.1L212.7,107.9L212.7,107.9z
							 M214.4,107.6c-1.7,0-1.7,2-1.7,2.4s0,2.3,1.7,2.3c1.4,0,1.7-1.4,1.7-2.3C216.1,109.4,216,107.6,214.4,107.6z"/>
						<path class="st6" d="M221.6,113.1l-0.9,2.2h-1.2l0.9-2.3l-2.5-6h1.3l1.9,4.7l1.9-4.7h1.2L221.6,113.1z"/>
						<path class="st6" d="M228,107h1.1v-1.3l1.1-0.4v1.6h1.3v0.8h-1.4v3.6c0,0.3,0,0.8,0.8,0.8c0.2,0,0.4,0,0.5-0.1v0.9
							c-0.2,0-0.5,0.1-0.9,0.1c-1,0-1.5-0.3-1.5-1.3v-4h-1.1L228,107L228,107z"/>
						<path class="st6" d="M232.8,104.4h1.1v3.5c0.4-0.6,1.1-1,2-1c0.6,0,1.5,0.2,1.9,1c0.1,0.2,0.2,0.5,0.2,1.4v3.8h-1.2v-3.6
							c0-0.5,0-1.7-1.3-1.7c-0.8,0-1.3,0.5-1.4,0.8c-0.2,0.3-0.2,0.9-0.2,1.3v3.2h-1.1V104.4z"/>
						<path class="st6" d="M240.8,110.2c0,1.2,0.5,2.2,1.7,2.2c0.7,0,1.3-0.4,1.4-1.2h1.1c0,0.3-0.1,0.8-0.5,1.3
							c-0.3,0.3-0.9,0.8-2.1,0.8c-1.9,0-2.8-1.2-2.8-3.1c0-1.2,0.2-2.2,1.2-2.8c0.6-0.4,1.3-0.4,1.6-0.4c2.7,0,2.6,2.4,2.6,3.4h-4.2
							V110.2z M244,109.4c0-0.6-0.1-1.8-1.5-1.8c-0.7,0-1.6,0.4-1.6,1.8H244z"/>
						<path class="st6" d="M257.2,103l4.5,13h-2.8l-0.9-2.8h-5.1l-1,2.8h-2.7l4.7-13H257.2z M257.3,111.1l-1.8-5.5l-1.9,5.5H257.3z"
							/>
						<path class="st6" d="M263.2,103h4.6l2.8,9.5l3-9.5h4.4v13h-2.9v-11.2l-3.5,11.2h-2.3l-3.5-11.2V116h-2.6V103z"/>
						<path class="st6" d="M280.4,103.1h4c1.9,0,3.4,0.1,4.5,1.4c0.7,0.8,0.8,1.8,0.8,2.4c0,1.5-0.6,2.8-1.7,3.5
							c-1,0.6-2.3,0.6-3,0.6h-1.9v5.1h-2.8v-13H280.4z M283.1,108.9h1.1c0.9,0,2.6,0,2.6-2c0-1.8-1.5-1.8-2.3-1.8h-1.4V108.9z"/>
						<path class="st6" d="M290.7,110.3h4.5v2h-4.5V110.3z"/>
						<path class="st6" d="M298.8,105.2h-3.9V103h10.6v2.2h-3.9v10.9h-2.8L298.8,105.2L298.8,105.2z"/>
						<path class="st6" d="M306.3,113.5l3.3-3c0.6-0.5,1.2-1.1,1.9-1.9c0.7-0.8,0.9-1.2,0.9-1.8c0-1-0.6-1.6-1.5-1.6
							c-1.4,0-1.6,1.5-1.6,1.8h-2.8c0-0.5,0-1.4,0.7-2.4c0.7-0.9,2.1-1.4,3.6-1.4c2.7,0,4.2,1.5,4.2,3.4c0,1.3-0.5,3-5.9,7.3
							c1.8,0,2-0.1,3.5-0.1c1.9,0,2.1,0,2.6-0.1v2.1h-8.8v-2.3H306.3z"/>
						<path class="st6" d="M317.1,103.1h4.3c0.7,0,2.9,0,4.5,1.2s2.2,3.3,2.2,5.1c0,4-2.1,6.1-4.6,6.5c-0.5,0.1-1,0.1-2.3,0.1h-4.1
							V103.1z M319.9,113.9c0.3,0,0.8,0,1.1,0c1.2,0,2.2-0.1,3-0.9c1.1-1.1,1.2-3,1.2-3.7c0-1.8-0.6-3.5-2.4-4
							c-0.6-0.2-1.3-0.3-2.9-0.2L319.9,113.9L319.9,113.9z"/>
						<path class="st6" d="M330,103.1h2.8v5.6l4.4-5.6h3.3l-4.8,5.8l5.2,7.2h-3.5l-4.6-6.6v6.6H330V103.1z"/>
						<path class="st6" d="M342.1,103.1h4c1.9,0,3.4,0.1,4.5,1.4c0.7,0.8,0.8,1.8,0.8,2.4c0,1.5-0.6,2.8-1.7,3.5
							c-1,0.6-2.3,0.6-3,0.6h-1.9v5.1h-2.7V103.1z M344.9,108.9h1.1c0.9,0,2.6,0,2.6-2c0-1.8-1.5-1.8-2.3-1.8h-1.4L344.9,108.9
							L344.9,108.9z"/>
						<path class="st6" d="M358,108c0-0.3,0-0.4,0-1h1.1v1c0.6-0.9,1.6-1.1,2.1-1.1c1.3,0,2.5,0.9,2.5,3.1s-1.3,3.2-2.7,3.2
							c-0.9,0-1.5-0.4-1.8-0.9v3h-1.1V108H358z M360.8,112.4c0.3,0,0.9-0.1,1.3-0.6c0.4-0.6,0.5-1.5,0.5-1.9c0-1.1-0.3-2.2-1.7-2.2
							c-1.8,0-1.8,1.9-1.8,2.4C359.1,110.9,359.2,112.4,360.8,112.4z"/>
						<path class="st6" d="M365.4,104.4h1.1v8.6h-1.1V104.4z"/>
						<path class="st6" d="M372.3,113c-0.1-0.3-0.1-0.6-0.1-0.9c-0.5,1-1.4,1.1-1.9,1.1c-1.4,0-2.1-0.8-2.1-1.8
							c0-0.5,0.2-1.2,1.1-1.8c0.6-0.4,1.6-0.4,2.1-0.4c0.3,0,0.5,0,0.8,0c0-0.7,0-1.1-0.2-1.3c-0.2-0.3-0.7-0.4-1-0.4
							c-1.1,0-1.2,0.8-1.2,1h-1.1c0-0.3,0.1-0.7,0.4-1.1c0.5-0.5,1.3-0.6,1.9-0.6c0.9,0,1.8,0.3,2.1,0.9c0.2,0.4,0.2,0.6,0.2,0.9
							v2.9c0,0.1,0,0.9,0.1,1.5H372.3z M371.5,110.1c-0.5,0-2.2,0-2.2,1.2c0,0.4,0.2,1,1.2,1c0.6,0,1-0.2,1.3-0.6
							c0.3-0.4,0.3-0.7,0.3-1.6C371.9,110.1,371.8,110.1,371.5,110.1z"/>
						<path class="st6" d="M374.4,107h1.1v-1.3l1.1-0.4v1.6h1.3v0.8h-1.3v3.6c0,0.3,0,0.8,0.8,0.8c0.2,0,0.4,0,0.5-0.1v0.9
							c-0.2,0-0.5,0.1-0.9,0.1c-1,0-1.5-0.3-1.5-1.3v-4h-1.1V107z"/>
						<path class="st6" d="M382.7,105.2c-0.2,0-0.4,0-0.7,0c-0.9,0-0.9,0.5-0.9,0.9v0.9h1.4v0.8h-1.4v5.2H380v-5.2h-1.2V107h1.2
							v-0.7c0-0.8,0-1.1,0.3-1.4c0.3-0.4,0.7-0.7,1.5-0.7c0.3,0,0.7,0,0.9,0.1L382.7,105.2L382.7,105.2z"/>
						<path class="st6" d="M386.3,106.9c2.4,0,3,1.9,3,3.2c0,1.8-1,3.2-3,3.2s-3-1.4-3-3.1C383.3,108.6,384,106.9,386.3,106.9z
							 M386.3,112.4c0.9,0,1.8-0.6,1.8-2.4c0-1.5-0.7-2.3-1.8-2.3c-0.7,0-1.9,0.5-1.9,2.3C384.5,111.3,385,112.4,386.3,112.4z"/>
						<path class="st6" d="M391,108.2c0-0.4,0-0.8-0.1-1.2h1.1v1.2c0.2-0.8,0.9-1.1,1.4-1.2c0.3,0,0.6,0,0.8,0v1.1
							c-0.1,0-0.1,0-0.2,0s-0.2,0-0.3,0c-1.3,0-1.6,0.8-1.6,1.8v3.2H391L391,108.2L391,108.2z"/>
						<path class="st6" d="M395.6,107.8V107h1.1v0.9c0.6-0.9,1.4-1,1.9-1c1.3,0,1.8,0.7,2,1.1c0.2-0.3,0.7-1.1,2-1.1
							c0.9,0,2.2,0.4,2.2,2.1v4h-1.1v-3.9c0-0.5-0.1-0.8-0.2-0.9c-0.2-0.3-0.6-0.5-1.2-0.5c-0.7,0-1.1,0.4-1.3,0.6
							c-0.3,0.4-0.3,1-0.3,1.3v3.4h-1.1v-4c0-0.7-0.4-1.3-1.3-1.3c-0.8,0-1.2,0.5-1.3,0.7c-0.3,0.3-0.3,0.8-0.3,1.2v3.4h-1.1
							L395.6,107.8L395.6,107.8z"/>
					</g>
				</g>
			</g>
		</g>
	</g>
</g>
</svg>
