<?xml version="1.0" encoding="utf-8"?>
<!-- Generator: Adobe Illustrator 23.0.4, SVG Export Plug-In . SVG Version: 6.00 Build 0)  -->
<svg version="1.1" id="Layer_1" xmlns="http://www.w3.org/2000/svg" xmlns:xlink="http://www.w3.org/1999/xlink" x="0px" y="0px"
	 viewBox="0 0 114.2 46.8" style="enable-background:new 0 0 114.2 46.8;" xml:space="preserve">
<style type="text/css">
	.st0{fill:#FFFFFF;stroke:#FFFFFF;stroke-width:1.1797;stroke-miterlimit:10;}
	.st1{fill:#D3D9EE;stroke:#D3D9EE;stroke-width:1.1797;stroke-miterlimit:10;}
	.st2{fill:#ABB8DE;}
	.st3{fill:#8197CC;}
	.st4{fill:none;stroke:#ABB8DE;stroke-width:0.3579;stroke-miterlimit:10;}
	.st5{fill:none;stroke:#8197CC;stroke-width:0.3133;stroke-miterlimit:10;}
	.st6{fill:#FFFFFF;}
</style>
<g>
	<g>
		<g>
			<path class="st0" d="M44.4,26.1c1-10.9-7-20.6-18-21.7s-20.6,7-21.7,18c-0.1,1-0.1,2-0.1,2.9c2.9-1.2,6-1.7,9.3-1.4
				c10,0.9,17.5,9,18,18.7C38.8,40,43.7,33.8,44.4,26.1z"/>
			<path class="st1" d="M14.1,24c-3.3-0.3-6.4,0.2-9.3,1.4c0.5,9.7,8.1,17.8,18,18.7c3.3,0.3,6.4-0.2,9.3-1.4
				C31.6,33,24,24.9,14.1,24z"/>
		</g>
		<g>
			<g>
				<path class="st2" d="M29.8,20.2c4.9,4.9,5.3,14.3,3.1,16.6s-11.7,1.9-16.6-3s-6.1-9.9-1.2-14.7S24.9,15.3,29.8,20.2z"/>
				<g>
					<path class="st3" d="M29.4,33.6c-0.6,0.1-0.8,0.4-1.4,0.5c-1.5,0.2-2.4-4-4.7-5.3c-2.5-1.5-6.9,0.2-8.6,3.2
						c0.5,0.6,1,1.2,1.6,1.8c4.9,4.9,14.3,5.3,16.6,3.1c0,0,0-0.1,0.1-0.1C32.5,35.1,30.6,33.5,29.4,33.6z"/>
				</g>
			</g>
			<path class="st4" d="M22.8,30.6c0,1.9-1.6,3.5-3.5,3.5"/>
			<path class="st5" d="M29,24.3c0,1.9-1.6,3.5-3.5,3.5"/>
		</g>
	</g>
	<g>
		<path class="st6" d="M102.5,19.6c-0.2-0.2-0.6-0.4-1-0.4c-0.4-0.1-0.7-0.1-1.1-0.1c-0.2,0-0.6,0-0.8,0s-0.5,0-0.6,0.1v5
			c0,0,0.1,0,0.2,0c0.1,0,0.2,0,0.4,0s0.2,0,0.4,0c0.1,0,0.2,0,0.2,0c0.4,0,0.7,0,1.2-0.1c0.4-0.1,0.7-0.2,1.1-0.4
			c0.4-0.2,0.6-0.5,0.7-0.8c0.2-0.4,0.2-0.8,0.2-1.3s-0.1-0.8-0.2-1.2C103.1,20.1,102.8,19.8,102.5,19.6z"/>
		<path class="st6" d="M100.9,14.8L100.9,14.8L100.9,14.8H80.8v4.6v14.3l0,0h20.1l0,0l0,0c5.2,0,9.4-4.2,9.4-9.4
			S106.1,14.8,100.9,14.8z M91.7,32.1l-4.5-6.5h-0.7v6.5h-3V16.7h3v6.8l0.7-0.4l4.2-6.4h3.4l-4.5,6.4L89.2,24l1.2,0.8l5.1,7.1h-3.8
			V32.1z M106.1,24.1c-0.4,0.6-0.7,1.2-1.3,1.6c-0.6,0.4-1.2,0.7-1.9,1c-0.7,0.2-1.5,0.2-2.2,0.2c-0.1,0-0.2,0-0.4,0
			c-0.1,0-0.4,0-0.5,0c-0.1,0-0.4,0-0.5,0c-0.1,0-0.2,0-0.4,0v5.2h-3V16.9c0.6-0.1,1.3-0.2,2.1-0.2c0.7-0.1,1.5-0.1,2.2-0.1
			s1.6,0.1,2.3,0.2c0.7,0.1,1.5,0.4,2.1,0.7c0.6,0.4,1.1,0.8,1.5,1.6c0.4,0.6,0.6,1.6,0.6,2.5C106.6,22.5,106.5,23.3,106.1,24.1z"/>
	</g>
	<g>
		<path class="st6" d="M58.3,28.9c0-0.7-0.2-1.3-0.7-1.8c-0.5-0.5-1-0.8-1.7-1.3s-1.5-0.7-2.2-1.1c-0.7-0.4-1.6-0.7-2.2-1.2
			s-1.2-1.1-1.7-1.7c-0.5-0.7-0.7-1.6-0.7-2.5c0-1.5,0.5-2.7,1.6-3.5c1.1-0.8,2.5-1.3,4.4-1.3c1.1,0,2.1,0.1,3,0.2
			c1,0.1,1.6,0.4,2.2,0.6l-0.7,2.1c-0.4-0.2-1.1-0.4-1.8-0.6c-0.8-0.2-1.7-0.2-2.8-0.2c-1.2,0-2.1,0.2-2.7,0.8
			c-0.6,0.5-0.8,1.2-0.8,1.9c0,0.7,0.2,1.3,0.7,1.8c0.5,0.5,1,0.8,1.7,1.2c0.7,0.4,1.5,0.7,2.2,1.1c0.8,0.4,1.6,0.7,2.2,1.2
			c0.6,0.5,1.2,1.1,1.7,1.7c0.5,0.7,0.7,1.5,0.7,2.5c0,0.8-0.1,1.6-0.5,2.2c-0.2,0.6-0.7,1.2-1.3,1.7c-0.6,0.5-1.2,0.8-2.1,1.1
			c-0.8,0.2-1.7,0.4-2.7,0.4c-1.3,0-2.5-0.1-3.4-0.4c-0.8-0.2-1.6-0.5-2.1-0.7l0.7-2.1c0.4,0.2,1.1,0.5,1.8,0.7
			C52,31.9,52.9,32,54,32c0.6,0,1.2,0,1.7-0.1c0.5-0.1,1-0.4,1.3-0.6s0.7-0.6,1-1C58.2,29.9,58.3,29.5,58.3,28.9z"/>
		<path class="st6" d="M63.6,14.7c0.4,0,0.7-0.1,1.2-0.1s0.8,0,1.3,0s1,0,1.3,0c0.5,0,0.8,0,1.2,0c1.6,0,2.9,0.2,4,0.7
			c1.1,0.5,2.1,1.1,2.8,1.9c0.7,0.8,1.2,1.8,1.6,3c0.4,1.2,0.5,2.4,0.5,3.9c0,1.3-0.1,2.5-0.5,3.8c-0.4,1.2-0.8,2.3-1.6,3.1
			c-0.7,1-1.7,1.7-2.8,2.2c-1.2,0.6-2.5,0.8-4.2,0.8c-0.2,0-0.7,0-1.1,0c-0.5,0-1,0-1.5,0c-0.5,0-1,0-1.3-0.1c-0.4,0-0.7,0-0.8-0.1
			V14.7H63.6z M68.9,16.5c-0.2,0-0.5,0-0.7,0c-0.2,0-0.6,0-0.8,0s-0.5,0-0.7,0s-0.4,0-0.5,0v15.2c0.1,0,0.2,0,0.5,0
			c0.2,0,0.5,0,0.8,0c0.2,0,0.5,0,0.8,0c0.2,0,0.5,0,0.5,0c1.2,0,2.3-0.2,3.1-0.6c0.8-0.5,1.6-1,2.1-1.8c0.5-0.8,0.8-1.6,1.1-2.5
			c0.2-1,0.4-1.9,0.4-2.9c0-0.8-0.1-1.8-0.2-2.7c-0.2-0.8-0.6-1.7-1.1-2.4c-0.5-0.7-1.1-1.3-1.9-1.8C71.2,16.8,70.1,16.5,68.9,16.5z
			"/>
	</g>
</g>
</svg>
