<?xml version="1.0" encoding="utf-8"?>
<!-- Generator: Adobe Illustrator 27.4.1, SVG Export Plug-In . SVG Version: 6.00 Build 0)  -->
<svg version="1.1" id="Layer_1" xmlns="http://www.w3.org/2000/svg" xmlns:xlink="http://www.w3.org/1999/xlink" x="0px" y="0px"
	 viewBox="0 0 32 32" style="enable-background:new 0 0 32 32;" xml:space="preserve">
<style type="text/css">
	.st0{fill:url(#SVGID_1_);}
	.st1{fill:url(#SVGID_00000178924908238938873380000001726319843212310975_);}
	.st2{fill:#F79821;}
	.st3{fill:url(#SVGID_00000089554038678239540820000017993083317218730122_);}
	.st4{fill:url(#SVGID_00000008856586751419996110000014651741807028559744_);}
	.st5{fill:url(#SVGID_00000093153958005702086500000010584325479043406736_);}
	.st6{fill:url(#SVGID_00000165207489154959579820000003621825118078419887_);}
	.st7{fill:url(#SVGID_00000052817075568676628450000008536699802055850635_);}
	.st8{fill:url(#SVGID_00000026848655388193767480000008256772143735009670_);}
	.st9{fill:url(#SVGID_00000058590742312553168470000010934096090949624765_);}
</style>
<g>
	<linearGradient id="SVGID_1_" gradientUnits="userSpaceOnUse" x1="15.8899" y1="1.9434" x2="15.8899" y2="29.5997">
		<stop  offset="0.3221" style="stop-color:#74BDE9"/>
		<stop  offset="0.999" style="stop-color:#23C3F3"/>
	</linearGradient>
	<path class="st0" d="M31,14.1L25,3.8C24.4,2.7,23.2,2,21.9,2H9.9C8.6,2,7.4,2.7,6.8,3.8l-6,10.3c-0.6,1.1-0.6,2.5,0,3.6l6,10.3
		c0.6,1.1,1.8,1.8,3.1,1.8h11.9c1.3,0,2.5-0.7,3.1-1.8l6-10.3C31.6,16.6,31.6,15.3,31,14.1z M22.4,25.5c0,1-0.1,1.9-0.3,2.8h0
		c-0.1,0.3-0.4,0.6-0.8,0.6H10.5c-0.4,0-0.6-0.2-0.7-0.6h0c-0.2-0.9-0.3-1.8-0.3-2.8c0-4.8,1.9-7.5,3.6-9l0,0c0,0,0.9,0.5,2.7,0.5
		c0,0-1.4-0.6-2-1.1c-1.9-1.3-4.4-4.1-4.4-9.6c0-1,0.1-1.9,0.3-2.7c0,0,0,0,0,0c0,0,0,0,0,0h0C9.8,3.2,10.1,3,10.5,3h10.8
		c0.4,0,0.7,0.3,0.8,0.6h0c0,0,0,0,0,0c0,0,0,0,0,0c0.2,0.9,0.3,1.8,0.3,2.7c0,5.5-2.5,8.3-4.4,9.6C19.9,17.2,22.4,20,22.4,25.5z"/>
	<g>
		
			<linearGradient id="SVGID_00000180364093417409218000000013462130884599393185_" gradientUnits="userSpaceOnUse" x1="13.2425" y1="1.9434" x2="13.2425" y2="29.5997">
			<stop  offset="0.3221" style="stop-color:#74BDE9"/>
			<stop  offset="0.999" style="stop-color:#23C3F3"/>
		</linearGradient>
		<path style="fill:url(#SVGID_00000180364093417409218000000013462130884599393185_);" d="M14.9,4h-3.3c-0.5,0-0.9,0.4-0.9,0.9V5
			c0,0.5,0.4,0.9,0.9,0.9h3.3c0.5,0,0.9-0.4,0.9-0.9V4.9C15.8,4.4,15.4,4,14.9,4z"/>
		<path class="st2" d="M20.2,4h-3.3C16.4,4,16,4.4,16,4.9V5c0,0.5,0.4,0.9,0.9,0.9h3.3c0.5,0,0.9-0.4,0.9-0.9V4.9
			C21.1,4.4,20.7,4,20.2,4z"/>
	</g>
	<g>
		
			<linearGradient id="SVGID_00000171701990637197827920000005319370597719509396_" gradientUnits="userSpaceOnUse" x1="13.4916" y1="1.9434" x2="13.4916" y2="29.5997">
			<stop  offset="0.3221" style="stop-color:#74BDE9"/>
			<stop  offset="0.999" style="stop-color:#23C3F3"/>
		</linearGradient>
		<path style="fill:url(#SVGID_00000171701990637197827920000005319370597719509396_);" d="M15.4,7.3h-3.8c-0.5,0-0.9,0.4-0.9,0.9
			v0.1c0,0.5,0.4,0.9,0.9,0.9h3.8c0.5,0,0.9-0.4,0.9-0.9V8.2C16.3,7.7,15.9,7.3,15.4,7.3z"/>
		<path class="st2" d="M20.2,7.3h-2.8c-0.5,0-0.9,0.4-0.9,0.9v0.1c0,0.5,0.4,0.9,0.9,0.9h2.8c0.5,0,0.9-0.4,0.9-0.9V8.2
			C21.1,7.7,20.7,7.3,20.2,7.3z"/>
	</g>
	<g>
		
			<linearGradient id="SVGID_00000066498913821580919830000001549162868117803653_" gradientUnits="userSpaceOnUse" x1="14.4624" y1="1.9434" x2="14.4624" y2="29.5997">
			<stop  offset="0.3221" style="stop-color:#74BDE9"/>
			<stop  offset="0.999" style="stop-color:#23C3F3"/>
		</linearGradient>
		<path style="fill:url(#SVGID_00000066498913821580919830000001549162868117803653_);" d="M15.9,10.6H13c-0.5,0-0.9,0.4-0.9,0.9
			v0.1c0,0.5,0.4,0.9,0.9,0.9h2.9c0.5,0,0.9-0.4,0.9-0.9v-0.1C16.8,11,16.4,10.6,15.9,10.6z"/>
		<path class="st2" d="M18.8,10.6h-0.9c-0.5,0-0.9,0.4-0.9,0.9v0.1c0,0.5,0.4,0.9,0.9,0.9h0.9c0.5,0,0.9-0.4,0.9-0.9v-0.1
			C19.6,11,19.2,10.6,18.8,10.6z"/>
	</g>
	
		<linearGradient id="SVGID_00000054944575679782461730000007728304397300486547_" gradientUnits="userSpaceOnUse" x1="15.8899" y1="1.9434" x2="15.8899" y2="29.5997">
		<stop  offset="0.3221" style="stop-color:#74BDE9"/>
		<stop  offset="0.999" style="stop-color:#23C3F3"/>
	</linearGradient>
	<path style="fill:url(#SVGID_00000054944575679782461730000007728304397300486547_);" d="M16,18.8h-0.1c-0.5,0-0.9,0.4-0.9,0.9v0.1
		c0,0.5,0.4,0.9,0.9,0.9H16c0.5,0,0.9-0.4,0.9-0.9v-0.1C16.8,19.2,16.4,18.8,16,18.8z"/>
	<path class="st2" d="M16,21.3h-0.1c-0.5,0-0.9,0.4-0.9,0.9v0.1c0,0.5,0.4,0.9,0.9,0.9H16c0.5,0,0.9-0.4,0.9-0.9v-0.1
		C16.8,21.7,16.4,21.3,16,21.3z"/>
	
		<linearGradient id="SVGID_00000042723356351379096570000009355803674126605749_" gradientUnits="userSpaceOnUse" x1="15.8899" y1="1.9434" x2="15.8899" y2="29.5997">
		<stop  offset="0.3221" style="stop-color:#74BDE9"/>
		<stop  offset="0.999" style="stop-color:#23C3F3"/>
	</linearGradient>
	<path style="fill:url(#SVGID_00000042723356351379096570000009355803674126605749_);" d="M16,23.7h-0.1c-0.5,0-0.9,0.4-0.9,0.9v0.1
		c0,0.5,0.4,0.9,0.9,0.9H16c0.5,0,0.9-0.4,0.9-0.9v-0.1C16.8,24.1,16.4,23.7,16,23.7z"/>
	<path class="st2" d="M15.9,26.2h-0.1c-0.5,0-0.9,0.4-0.9,0.9v0.1c0,0.5,0.4,0.9,0.9,0.9h0.1c0.5,0,0.9-0.4,0.9-0.9V27
		C16.8,26.6,16.4,26.2,15.9,26.2z"/>
	
		<linearGradient id="SVGID_00000152966486346460403070000011317283019886530225_" gradientUnits="userSpaceOnUse" x1="13.4425" y1="1.9434" x2="13.4425" y2="29.5997">
		<stop  offset="0.3221" style="stop-color:#74BDE9"/>
		<stop  offset="0.999" style="stop-color:#23C3F3"/>
	</linearGradient>
	<path style="fill:url(#SVGID_00000152966486346460403070000011317283019886530225_);" d="M13.5,26.2h-0.1c-0.5,0-0.9,0.4-0.9,0.9
		v0.1c0,0.5,0.4,0.9,0.9,0.9h0.1c0.5,0,0.9-0.4,0.9-0.9V27C14.4,26.6,14,26.2,13.5,26.2z"/>
	<path class="st2" d="M11.1,26.2H11c-0.5,0-0.9,0.4-0.9,0.9v0.1c0,0.5,0.4,0.9,0.9,0.9h0.1c0.5,0,0.9-0.4,0.9-0.9V27
		C12,26.6,11.6,26.2,11.1,26.2z"/>
	<path class="st2" d="M20.8,26.2h-0.1c-0.5,0-0.9,0.4-0.9,0.9v0.1c0,0.5,0.4,0.9,0.9,0.9h0.1c0.5,0,0.9-0.4,0.9-0.9V27
		C21.6,26.6,21.3,26.2,20.8,26.2z"/>
	
		<linearGradient id="SVGID_00000098914657357313923830000000140420453963955632_" gradientUnits="userSpaceOnUse" x1="18.2814" y1="1.9434" x2="18.2814" y2="29.5997">
		<stop  offset="0.3221" style="stop-color:#74BDE9"/>
		<stop  offset="0.999" style="stop-color:#23C3F3"/>
	</linearGradient>
	<path style="fill:url(#SVGID_00000098914657357313923830000000140420453963955632_);" d="M18.4,26.2h-0.1c-0.5,0-0.9,0.4-0.9,0.9
		v0.1c0,0.5,0.4,0.9,0.9,0.9h0.1c0.5,0,0.9-0.4,0.9-0.9V27C19.2,26.6,18.8,26.2,18.4,26.2z"/>
	<path class="st2" d="M13.5,23.7h-0.1c-0.5,0-0.9,0.4-0.9,0.9v0.1c0,0.5,0.4,0.9,0.9,0.9h0.1c0.5,0,0.9-0.4,0.9-0.9v-0.1
		C14.4,24.1,14,23.7,13.5,23.7z"/>
	<path class="st2" d="M18.4,23.7h-0.1c-0.5,0-0.9,0.4-0.9,0.9v0.1c0,0.5,0.4,0.9,0.9,0.9h0.1c0.5,0,0.9-0.4,0.9-0.9v-0.1
		C19.2,24.1,18.8,23.7,18.4,23.7z"/>
	<path class="st2" d="M15.2,16.7c-0.1,0.2-0.2,0.4-0.2,0.6c0,0.5,0.4,0.9,0.9,0.9h0c0.5,0,0.8-0.3,0.9-0.8L15.2,16.7z"/>
	
		<linearGradient id="SVGID_00000054227898247193012820000005714353921223477160_" gradientUnits="userSpaceOnUse" x1="15.8987" y1="1.9434" x2="15.8987" y2="29.5997">
		<stop  offset="0.3221" style="stop-color:#74BDE9"/>
		<stop  offset="0.999" style="stop-color:#23C3F3"/>
	</linearGradient>
	<path style="fill:url(#SVGID_00000054227898247193012820000005714353921223477160_);" d="M16.5,15.2c0.2-0.2,0.3-0.4,0.3-0.7v0
		c0-0.5-0.4-0.9-0.9-0.9h0c-0.5,0-0.8,0.3-0.9,0.8L16.5,15.2z"/>
</g>
</svg>
