<?xml version="1.0" encoding="utf-8"?>
<!-- Generator: Adobe Illustrator 27.4.1, SVG Export Plug-In . SVG Version: 6.00 Build 0)  -->
<svg version="1.1" id="Layer_1" xmlns="http://www.w3.org/2000/svg" xmlns:xlink="http://www.w3.org/1999/xlink" x="0px" y="0px"
	 viewBox="0 0 32 32" style="enable-background:new 0 0 32 32;" xml:space="preserve">
<style type="text/css">
	.st0{fill:#567BBC;}
	.st1{fill:none;stroke:#FFFFFF;stroke-width:0.6016;stroke-miterlimit:10;}
	.st2{fill:none;stroke:#C8D0EA;stroke-width:0.6016;stroke-miterlimit:10;}
	.st3{fill:none;stroke:#EF65A4;stroke-width:0.6016;stroke-miterlimit:10;}
	.st4{fill:none;stroke:#37B34A;stroke-width:0.6016;stroke-miterlimit:10;}
	.st5{fill:none;stroke:#8BC53F;stroke-width:0.6016;stroke-miterlimit:10;}
	.st6{fill:none;stroke:#C685B9;stroke-width:0.6016;stroke-miterlimit:10;}
	.st7{fill:#37B34A;}
	.st8{fill:#8BC53F;}
	.st9{fill:#FFFFFF;}
	.st10{fill:#C678B1;}
	.st11{fill:#C7CFE9;}
	.st12{fill:#EF65A4;}
</style>
<g>
	<path class="st0" d="M2,9.9v12.2c0,1,0.5,1.9,1.4,2.4l11.2,6.2c0.8,0.5,1.8,0.5,2.7,0l11.2-6.2c0.9-0.5,1.4-1.4,1.4-2.4V9.9
		c0-1-0.5-1.9-1.4-2.4L17.3,1.3c-0.8-0.5-1.8-0.5-2.7,0L3.4,7.5C2.5,8,2,8.9,2,9.9z"/>
	<g>
		<g>
			<g>
				<line class="st1" x1="4.8" y1="9.8" x2="10.4" y2="12.9"/>
			</g>
			<g>
				<line class="st1" x1="10.4" y1="19.1" x2="10.4" y2="12.9"/>
				<line class="st2" x1="10.4" y1="19.1" x2="4.8" y2="22.2"/>
				<line class="st2" x1="10.4" y1="19.1" x2="16" y2="22.2"/>
			</g>
			<g>
				<line class="st3" x1="16" y1="28.4" x2="16" y2="22.2"/>
			</g>
			<g>
				<line class="st4" x1="16" y1="9.8" x2="16" y2="3.6"/>
				<line class="st4" x1="16" y1="9.8" x2="10.4" y2="12.9"/>
				<line class="st5" x1="16" y1="9.8" x2="21.6" y2="12.9"/>
			</g>
			<g>
				<line class="st6" x1="21.6" y1="19.1" x2="21.6" y2="12.9"/>
				<line class="st3" x1="21.6" y1="19.1" x2="16" y2="22.2"/>
				<line class="st6" x1="21.6" y1="19.1" x2="27.2" y2="22.2"/>
			</g>
			<g>
				<line class="st5" x1="27.2" y1="9.8" x2="21.6" y2="12.9"/>
			</g>
		</g>
		<ellipse class="st7" cx="16" cy="3.6" rx="1.3" ry="1.3"/>
		<ellipse class="st8" cx="4.8" cy="9.8" rx="1.3" ry="1.3"/>
		<ellipse class="st9" cx="10.4" cy="12.9" rx="1.3" ry="1.3"/>
		<ellipse class="st7" cx="16" cy="9.8" rx="1.3" ry="1.3"/>
		<ellipse class="st8" cx="21.6" cy="12.9" rx="1.3" ry="1.3"/>
		<ellipse class="st10" cx="27.2" cy="9.8" rx="1.3" ry="1.3"/>
		<ellipse class="st9" cx="4.8" cy="22.2" rx="1.3" ry="1.3"/>
		<ellipse class="st11" cx="10.4" cy="19.1" rx="1.3" ry="1.3"/>
		<ellipse class="st12" cx="16" cy="22.2" rx="1.3" ry="1.3"/>
		<ellipse class="st10" cx="21.6" cy="19.1" rx="1.3" ry="1.3"/>
		<ellipse class="st12" cx="27.2" cy="22.2" rx="1.3" ry="1.3"/>
		<ellipse class="st11" cx="16" cy="28.4" rx="1.3" ry="1.3"/>
	</g>
</g>
</svg>
