<?xml version="1.0" encoding="utf-8"?>
<!-- Generator: Adobe Illustrator 26.1.0, SVG Export Plug-In . SVG Version: 6.00 Build 0)  -->
<svg version="1.1" id="Layer_1" xmlns="http://www.w3.org/2000/svg" xmlns:xlink="http://www.w3.org/1999/xlink" x="0px" y="0px"
	 viewBox="0 0 575.7 144.2" style="enable-background:new 0 0 575.7 144.2;" xml:space="preserve">
<style type="text/css">
	.st0{fill:none;stroke:#FFFFFF;stroke-width:2;stroke-miterlimit:10;}
	.st1{fill:none;stroke:#FFFFFF;stroke-width:3.5816;stroke-miterlimit:10;}
	.st2{fill:#FFFFFF;}
</style>
<g>
	<g>
		<g>
			<g>
				<ellipse class="st0" cx="251" cy="72.1" rx="66.2" ry="67"/>
				<g>
					<path class="st1" d="M232.7,79.9c4.3,5,5.5,7.6,5.5,16.8c0,0,0.3,25.5-26.5,29.3"/>
					<path class="st1" d="M232.7,80c-5.1-5.8-12.3-9.7-20.5-10.5c-8.2-0.8-16,1.7-22.1,6.5c5.1,5.8,12.3,9.7,20.5,10.5
						C218.9,87.2,226.6,84.7,232.7,80z"/>
				</g>
				<g>
					<path class="st1" d="M238.7,65.4c6.2,6.1,5.8,26.2,5.8,35.4c0,0-0.4,24.4-16,34.2"/>
					<path class="st1" d="M238.8,65.5c-0.8-7.7-4.4-15.1-10.6-20.6c-6.3-5.5-14-8-21.7-7.7c0.8,7.7,4.4,15.1,10.6,20.6
						C223.3,63.2,231.1,65.7,238.8,65.5z"/>
				</g>
				<g>
					<path class="st1" d="M269.3,79.9c-4.3,5-5.5,7.6-5.5,16.8c0,0-0.3,25.5,26.5,29.3"/>
					<path class="st1" d="M269.3,80c5.1-5.8,12.3-9.7,20.5-10.5c8.2-0.8,16,1.7,22.1,6.5c-5.1,5.8-12.3,9.7-20.5,10.5
						C283.1,87.2,275.3,84.7,269.3,80z"/>
				</g>
				<g>
					<path class="st1" d="M263.2,65.5c-6.2,6.1-5.7,26.2-5.7,35.3c0,0,0.4,24.4,16,34.2"/>
					<path class="st1" d="M263.2,65.5c0.8-7.7,4.4-15.1,10.6-20.6c6.3-5.5,14-8,21.7-7.7c-0.8,7.7-4.4,15.1-10.6,20.6
						C278.6,63.2,270.8,65.7,263.2,65.5z"/>
				</g>
				<path class="st1" d="M251.2,60.8c-5.2-5.7-8.4-13.3-8.4-21.6c0-8.4,3.2-15.9,8.5-21.6c5.2,5.7,8.4,13.3,8.4,21.6
					C259.6,47.5,256.4,55.1,251.2,60.8z"/>
				<line class="st1" x1="251.2" y1="17.6" x2="251.2" y2="139.1"/>
			</g>
			<line class="st1" x1="190.2" y1="76" x2="232.7" y2="80"/>
			<line class="st1" x1="206.4" y1="37.2" x2="238.7" y2="65.4"/>
			<line class="st1" x1="311.8" y1="75.9" x2="269.3" y2="79.9"/>
			<line class="st1" x1="295.5" y1="37.2" x2="263.2" y2="65.4"/>
		</g>
		<g>
			<g>
				<g>
					<path class="st2" d="M21.2,54c3,0,5.6,0.3,7.8,0.9c2.2,0.6,3.9,1.4,5.3,2.5c1.4,1.1,2.4,2.4,3,3.9c0.6,1.5,1,3.3,1,5.2
						c0,1.1-0.2,2.2-0.5,3.2c-0.3,1-0.8,1.9-1.5,2.8c-0.7,0.9-1.5,1.7-2.6,2.4c-1,0.7-2.3,1.3-3.7,1.8c6.4,1.5,9.6,4.9,9.6,10.5
						c0,2-0.4,3.8-1.1,5.5s-1.8,3.1-3.3,4.4c-1.4,1.2-3.2,2.2-5.3,2.9c-2.1,0.7-4.5,1-7.2,1H5.2V54H21.2z M13.9,60.7v13.6h6.9
						c3,0,5.2-0.5,6.7-1.6c1.5-1.1,2.3-2.8,2.3-5.2c0-2.4-0.7-4.2-2.1-5.2c-1.4-1-3.5-1.6-6.4-1.6H13.9z M22.6,94.1
						c1.6,0,3-0.2,4-0.6c1.1-0.4,2-0.9,2.6-1.6c0.7-0.6,1.1-1.4,1.4-2.3c0.3-0.9,0.4-1.8,0.4-2.8c0-1-0.2-1.9-0.5-2.7
						c-0.3-0.8-0.8-1.5-1.5-2.1c-0.7-0.6-1.6-1-2.6-1.3c-1.1-0.3-2.4-0.5-3.9-0.5h-8.7v13.8H22.6z"/>
					<path class="st2" d="M65.3,82.7v18.2h-8.6V82.7L39.8,54h7.6c0.7,0,1.3,0.2,1.8,0.6c0.4,0.4,0.8,0.8,1.1,1.4l8.5,15.7
						c0.5,0.9,0.9,1.8,1.3,2.6c0.4,0.8,0.7,1.6,1,2.5c0.3-0.8,0.6-1.6,1-2.5s0.8-1.7,1.3-2.6l8.4-15.7c0.2-0.5,0.6-0.9,1.1-1.3
						c0.5-0.4,1.1-0.6,1.8-0.6h7.6L65.3,82.7z"/>
					<path class="st2" d="M127.7,77.4c0,3.4-0.6,6.6-1.7,9.6c-1.1,2.9-2.7,5.5-4.8,7.6c-2.1,2.1-4.5,3.8-7.4,5s-6.1,1.8-9.6,1.8
						c-3.5,0-6.7-0.6-9.6-1.8c-2.9-1.2-5.4-2.9-7.4-5c-2.1-2.1-3.7-4.7-4.8-7.6c-1.1-2.9-1.7-6.1-1.7-9.6s0.6-6.6,1.7-9.6
						c1.1-2.9,2.7-5.5,4.8-7.6c2.1-2.1,4.5-3.8,7.4-5c2.9-1.2,6.1-1.8,9.6-1.8c2.4,0,4.6,0.3,6.6,0.8c2.1,0.6,4,1.3,5.7,2.3
						c1.7,1,3.3,2.2,4.7,3.7c1.4,1.4,2.6,3,3.5,4.8c1,1.8,1.7,3.7,2.2,5.8C127.4,73,127.7,75.1,127.7,77.4z M118.9,77.4
						c0-2.6-0.3-4.9-1-6.9c-0.7-2-1.7-3.8-2.9-5.2s-2.8-2.5-4.6-3.3c-1.8-0.8-3.8-1.1-6.1-1.1c-2.3,0-4.3,0.4-6.1,1.1
						c-1.8,0.8-3.3,1.9-4.6,3.3c-1.3,1.4-2.3,3.2-2.9,5.2c-0.7,2-1,4.4-1,6.9c0,2.6,0.3,4.9,1,6.9c0.7,2,1.7,3.8,2.9,5.2
						c1.3,1.4,2.8,2.5,4.6,3.3c1.8,0.8,3.8,1.1,6.1,1.1c2.3,0,4.3-0.4,6.1-1.1c1.8-0.8,3.3-1.8,4.6-3.3c1.3-1.4,2.2-3.2,2.9-5.2
						C118.5,82.3,118.9,80,118.9,77.4z"/>
					<path class="st2" d="M171.1,100.9h-7.8c-1.5,0-2.5-0.6-3.2-1.8l-9.8-15c-0.4-0.6-0.8-1-1.2-1.2c-0.4-0.2-1.1-0.4-1.9-0.4h-3.7
						v18.3h-8.6V54H149c3.1,0,5.8,0.3,8.1,1c2.3,0.7,4.1,1.6,5.6,2.8c1.4,1.2,2.5,2.6,3.2,4.3c0.7,1.7,1,3.5,1,5.5
						c0,1.6-0.2,3.1-0.7,4.5c-0.5,1.4-1.1,2.7-2,3.8c-0.9,1.1-1.9,2.2-3.2,3c-1.3,0.9-2.7,1.5-4.3,2c0.6,0.3,1.1,0.7,1.5,1.2
						c0.5,0.4,0.9,1,1.3,1.6L171.1,100.9z M148.9,76.3c1.6,0,3-0.2,4.3-0.6c1.2-0.4,2.2-1,3-1.7c0.8-0.7,1.4-1.6,1.8-2.6
						c0.4-1,0.6-2.1,0.6-3.3c0-2.4-0.8-4.2-2.3-5.5c-1.6-1.3-3.9-1.9-7.1-1.9h-5.5v15.6H148.9z"/>
				</g>
			</g>
		</g>
		<g>
			<g>
				<path class="st2" d="M9.4,109.1c1,0,1.8,0.3,2.4,0.8c0.6,0.5,0.9,1.2,0.9,2c0,0.5-0.1,0.9-0.4,1.3c-0.3,0.4-0.6,0.7-1.1,0.9v0.1
					c0.8,0.2,1.4,0.5,1.8,1s0.6,1.1,0.6,1.8c0,0.6-0.2,1.1-0.5,1.6s-0.7,0.8-1.3,1.1c-0.5,0.2-1.2,0.4-1.9,0.4H5.4v-10.9H9.4z
					 M8.8,113.7c0.6,0,1-0.1,1.3-0.4s0.5-0.6,0.5-1.1c0-0.4-0.1-0.8-0.4-1c-0.3-0.2-0.7-0.4-1.2-0.4H7.5v2.9H8.8z M9.3,118.4
					c0.7,0,1.3-0.1,1.6-0.4c0.4-0.3,0.5-0.7,0.5-1.2c0-0.5-0.2-0.8-0.5-1.1c-0.4-0.3-0.8-0.4-1.5-0.4h-2v3.1H9.3z"/>
				<path class="st2" d="M19.4,112.6c0.3,0,0.5,0.1,0.8,0.2c0.2,0.1,0.5,0.3,0.9,0.6l-0.7,1.7c-0.6-0.4-1-0.6-1.3-0.6
					c-0.3,0-0.6,0.1-0.9,0.3c-0.3,0.2-0.5,0.5-0.7,0.9c-0.2,0.4-0.3,0.7-0.3,1.1v3.3h-1.9v-7.3h1.9v1.9h0c0.3-0.7,0.7-1.2,1.1-1.5
					C18.5,112.8,18.9,112.6,19.4,112.6z"/>
				<path class="st2" d="M22.9,109.4c0.3,0,0.6,0.1,0.8,0.3c0.2,0.2,0.3,0.5,0.3,0.8c0,0.3-0.1,0.5-0.3,0.8
					c-0.2,0.2-0.5,0.3-0.8,0.3c-0.3,0-0.5-0.1-0.8-0.3c-0.2-0.2-0.3-0.5-0.3-0.8c0-0.3,0.1-0.6,0.3-0.8S22.6,109.4,22.9,109.4z
					 M23.9,112.8v7.3h-1.9v-7.3H23.9z"/>
				<path class="st2" d="M30.1,112.6c0.8,0,1.4,0.3,1.9,0.8c0.5,0.5,0.7,1.2,0.7,2v4.6h-1.9v-4.4c0-0.5-0.1-0.8-0.3-1.1
					c-0.2-0.3-0.5-0.4-0.9-0.4c-0.3,0-0.6,0.1-0.8,0.3c-0.3,0.2-0.5,0.5-0.9,0.9v4.9h-1.9v-7.3h1.9v1c0.4-0.4,0.7-0.7,1.1-0.9
					S29.6,112.6,30.1,112.6z"/>
				<path class="st2" d="M41.2,112.8v1.4H40c0.2,0.2,0.3,0.5,0.4,0.7s0.1,0.4,0.1,0.7c0,0.6-0.2,1.1-0.7,1.6c-0.4,0.4-1,0.7-2,0.8
					c-0.5,0.1-0.8,0.1-1,0.2c-0.2,0.1-0.2,0.2-0.2,0.4c0,0.2,0.1,0.3,0.3,0.3c0.2,0.1,0.5,0.2,1,0.2c1.1,0.2,1.9,0.4,2.4,0.8
					s0.8,0.8,0.8,1.4c0,0.8-0.3,1.4-0.9,1.8s-1.5,0.6-2.7,0.6c-1.1,0-2-0.2-2.7-0.6s-1-0.9-1-1.6c0-0.9,0.6-1.6,1.9-1.9
					c-0.6-0.2-0.8-0.6-0.8-0.9c0-0.5,0.4-0.9,1.2-1.1v0c-0.6-0.2-1-0.4-1.4-0.8c-0.3-0.4-0.5-0.9-0.5-1.4c0-0.8,0.3-1.4,0.9-1.9
					c0.6-0.5,1.4-0.7,2.3-0.7H41.2z M35.6,121.5c0,0.7,0.7,1,2,1c0.6,0,1-0.1,1.3-0.3s0.5-0.4,0.5-0.7c0-0.3-0.2-0.6-0.5-0.7
					s-0.9-0.2-1.5-0.2c-0.5,0-0.9,0.1-1.2,0.3C35.7,121,35.6,121.2,35.6,121.5z M36,115.4c0,0.4,0.1,0.7,0.4,0.9
					c0.3,0.3,0.6,0.4,1,0.4c0.4,0,0.7-0.1,1-0.4c0.3-0.3,0.4-0.6,0.4-1c0-0.4-0.1-0.7-0.4-0.9s-0.6-0.4-1-0.4c-0.4,0-0.7,0.1-1,0.4
					C36.2,114.7,36,115,36,115.4z"/>
				<path class="st2" d="M47.8,109.1l2.6,3.6l2.7-3.6h2.5l-4.1,5.5v5.4h-2.1v-5.4l-4.1-5.5H47.8z"/>
				<path class="st2" d="M58.7,112.6c0.8,0,1.5,0.2,2.1,0.5c0.6,0.3,1.1,0.8,1.4,1.3c0.3,0.6,0.5,1.2,0.5,1.9c0,0.8-0.2,1.4-0.5,2
					c-0.3,0.6-0.8,1-1.4,1.3s-1.3,0.5-2.1,0.5c-0.8,0-1.5-0.2-2.1-0.5s-1.1-0.8-1.4-1.3c-0.3-0.6-0.5-1.2-0.5-2c0-0.7,0.2-1.4,0.5-2
					s0.8-1,1.4-1.3C57.2,112.8,57.9,112.6,58.7,112.6z M56.7,116.4c0,0.7,0.2,1.3,0.5,1.7c0.4,0.4,0.8,0.7,1.4,0.7
					c0.6,0,1.1-0.2,1.5-0.6c0.4-0.4,0.5-1,0.5-1.8c0-0.7-0.2-1.3-0.5-1.7c-0.4-0.4-0.9-0.6-1.5-0.6c-0.6,0-1.1,0.2-1.4,0.6
					C56.9,115.1,56.7,115.7,56.7,116.4z"/>
				<path class="st2" d="M66.1,112.8v4.5c0,0.5,0.1,0.8,0.4,1.1c0.2,0.2,0.6,0.4,0.9,0.4c0.3,0,0.6-0.1,0.9-0.3
					c0.3-0.2,0.5-0.5,0.7-0.8v-4.8h1.9v7.3H69v-1c-0.7,0.8-1.4,1.1-2.2,1.1c-0.8,0-1.4-0.3-1.9-0.8c-0.5-0.5-0.7-1.2-0.7-2v-4.7
					H66.1z"/>
				<path class="st2" d="M77,112.6c0.3,0,0.5,0.1,0.8,0.2c0.2,0.1,0.5,0.3,0.9,0.6l-0.7,1.7c-0.6-0.4-1-0.6-1.3-0.6
					c-0.3,0-0.6,0.1-0.9,0.3c-0.3,0.2-0.5,0.5-0.7,0.9c-0.2,0.4-0.3,0.7-0.3,1.1v3.3h-1.9v-7.3h1.9v1.9h0c0.3-0.7,0.7-1.2,1.1-1.5
					C76.2,112.8,76.6,112.6,77,112.6z"/>
				<path class="st2" d="M89.8,109c1.1,0,2.1,0.2,3.1,0.7c0.9,0.5,1.6,1.1,2.2,2c0.5,0.9,0.8,1.8,0.8,2.9c0,1-0.3,2-0.8,2.8
					c-0.5,0.9-1.2,1.5-2.2,2c-0.9,0.5-1.9,0.7-3.1,0.7c-1.1,0-2.2-0.2-3.1-0.7c-0.9-0.5-1.6-1.2-2.2-2c-0.5-0.9-0.8-1.8-0.8-2.8
					c0-1,0.3-1.9,0.8-2.8c0.5-0.9,1.2-1.6,2.1-2.1C87.6,109.3,88.7,109,89.8,109z M86,114.6c0,0.7,0.2,1.4,0.5,2s0.8,1,1.4,1.3
					c0.6,0.3,1.2,0.5,2,0.5c1.1,0,2-0.4,2.8-1.1s1.1-1.6,1.1-2.7c0-0.7-0.2-1.4-0.5-2c-0.3-0.6-0.8-1-1.4-1.3
					c-0.6-0.3-1.3-0.5-2-0.5s-1.4,0.2-2,0.5s-1,0.8-1.4,1.3C86.1,113.2,86,113.9,86,114.6z"/>
				<path class="st2" d="M98.6,112.8l1.7,4.2l1.7-4.2h1.2l1.7,4.2l1.7-4.2h2l-3.2,7.4h-0.8l-2-4.5l-2,4.5h-0.8l-3.3-7.4H98.6z"/>
				<path class="st2" d="M113.9,112.6c0.8,0,1.4,0.3,1.9,0.8c0.5,0.5,0.7,1.2,0.7,2v4.6h-1.9v-4.4c0-0.5-0.1-0.8-0.3-1.1
					c-0.2-0.3-0.5-0.4-0.9-0.4c-0.3,0-0.6,0.1-0.8,0.3c-0.3,0.2-0.5,0.5-0.9,0.9v4.9h-1.9v-7.3h1.9v1c0.4-0.4,0.7-0.7,1.1-0.9
					S113.5,112.6,113.9,112.6z"/>
				<path class="st2" d="M126.9,109.1c1,0,1.9,0.3,2.5,0.9c0.6,0.6,1,1.3,1,2.2c0,0.6-0.2,1.2-0.5,1.6s-0.8,0.8-1.4,1.1
					c0.3,0.2,0.7,0.4,0.9,0.8c0.3,0.3,0.6,0.9,1,1.6c0.7,1.3,1.2,2.2,1.5,2.7h-2.4c-0.2-0.2-0.4-0.6-0.7-1.1c-0.6-1.2-1-1.9-1.3-2.3
					c-0.3-0.4-0.6-0.7-0.8-0.9c-0.3-0.2-0.6-0.3-0.9-0.3h-0.8v4.6H123v-10.9H126.9z M126.5,113.8c0.6,0,1-0.1,1.3-0.4
					c0.3-0.3,0.5-0.7,0.5-1.1c0-0.5-0.2-0.9-0.5-1.1c-0.3-0.2-0.8-0.4-1.3-0.4h-1.3v3H126.5z"/>
				<path class="st2" d="M136,112.6c1.1,0,1.9,0.3,2.5,1s0.9,1.6,0.9,2.9v0.3h-5.2c0.1,0.7,0.3,1.2,0.7,1.5s1,0.5,1.7,0.5
					c0.5,0,0.9-0.1,1.3-0.2c0.4-0.2,0.9-0.4,1.3-0.7v1.4c-0.9,0.6-1.9,0.9-3.1,0.9c-1.2,0-2.1-0.3-2.8-1c-0.7-0.7-1.1-1.6-1.1-2.8
					c0-1.1,0.3-2,1-2.7S134.9,112.6,136,112.6z M137.7,115.6c-0.1-0.5-0.2-0.9-0.5-1.2c-0.3-0.3-0.6-0.4-1.1-0.4
					c-0.5,0-0.9,0.1-1.2,0.4c-0.3,0.3-0.5,0.7-0.6,1.3H137.7z"/>
				<path class="st2" d="M143.4,112.6c0.4,0,0.8,0,1.1,0.1c0.4,0.1,0.7,0.2,1.1,0.4v1.5c-0.4-0.2-0.8-0.4-1.2-0.6
					c-0.4-0.1-0.8-0.2-1.1-0.2c-0.3,0-0.5,0.1-0.6,0.2c-0.2,0.1-0.2,0.3-0.2,0.4c0,0.1,0.1,0.2,0.2,0.3s0.5,0.3,1.1,0.6
					c0.8,0.4,1.4,0.8,1.8,1.2c0.3,0.4,0.5,0.8,0.5,1.3c0,0.7-0.2,1.3-0.7,1.7c-0.5,0.4-1.2,0.6-2,0.6c-0.5,0-1-0.1-1.5-0.2
					s-0.8-0.3-1.1-0.4V118c0.9,0.5,1.7,0.8,2.4,0.8c0.3,0,0.6-0.1,0.8-0.2s0.3-0.3,0.3-0.5c0-0.1,0-0.2-0.1-0.3s-0.2-0.2-0.3-0.3
					c-0.1-0.1-0.6-0.3-1.4-0.7c-0.6-0.3-1-0.6-1.3-0.9c-0.3-0.3-0.4-0.7-0.4-1.2c0-0.6,0.3-1.2,0.8-1.5
					C141.9,112.8,142.6,112.6,143.4,112.6z"/>
				<path class="st2" d="M149.3,112.8v4.5c0,0.5,0.1,0.8,0.4,1.1c0.2,0.2,0.6,0.4,0.9,0.4c0.3,0,0.6-0.1,0.9-0.3
					c0.3-0.2,0.5-0.5,0.7-0.8v-4.8h1.9v7.3h-1.9v-1c-0.7,0.8-1.4,1.1-2.2,1.1c-0.8,0-1.4-0.3-1.9-0.8c-0.5-0.5-0.7-1.2-0.7-2v-4.7
					H149.3z"/>
				<path class="st2" d="M158.1,109.1v10.9h-1.9v-10.9H158.1z"/>
				<path class="st2" d="M162.1,110.8h0.2v1.9h2.5v1.5h-2.5v3.4c0,0.3,0.1,0.6,0.3,0.8s0.5,0.3,0.8,0.3c0.4,0,1-0.2,1.5-0.5v1.5
					c-0.7,0.3-1.3,0.5-2,0.5c-0.8,0-1.5-0.2-1.9-0.7c-0.5-0.4-0.7-1.1-0.7-1.8v-3.5h-1.1v-0.3L162.1,110.8z"/>
				<path class="st2" d="M168.4,112.6c0.4,0,0.8,0,1.1,0.1c0.4,0.1,0.7,0.2,1.1,0.4v1.5c-0.4-0.2-0.8-0.4-1.2-0.6
					c-0.4-0.1-0.8-0.2-1.1-0.2c-0.3,0-0.5,0.1-0.6,0.2c-0.2,0.1-0.2,0.3-0.2,0.4c0,0.1,0.1,0.2,0.2,0.3s0.5,0.3,1.1,0.6
					c0.8,0.4,1.4,0.8,1.8,1.2c0.3,0.4,0.5,0.8,0.5,1.3c0,0.7-0.2,1.3-0.7,1.7c-0.5,0.4-1.2,0.6-2,0.6c-0.5,0-1-0.1-1.5-0.2
					s-0.8-0.3-1.1-0.4V118c0.9,0.5,1.7,0.8,2.4,0.8c0.3,0,0.6-0.1,0.8-0.2s0.3-0.3,0.3-0.5c0-0.1,0-0.2-0.1-0.3s-0.2-0.2-0.3-0.3
					c-0.1-0.1-0.6-0.3-1.4-0.7c-0.6-0.3-1-0.6-1.3-0.9c-0.3-0.3-0.4-0.7-0.4-1.2c0-0.6,0.3-1.2,0.8-1.5
					C166.9,112.8,167.5,112.6,168.4,112.6z"/>
			</g>
		</g>
	</g>
	<g>
		<g>
			<path class="st2" d="M331.4,60.6v-4.4h19.3v4.4h-7.1v19.2h-5.2V60.6H331.4z"/>
			<path class="st2" d="M354.3,62.7v3.2h0.1c0.2-0.5,0.5-1,0.9-1.5c0.4-0.5,0.8-0.8,1.3-1.2c0.5-0.3,1-0.6,1.6-0.7
				c0.5-0.2,1.1-0.3,1.7-0.3c0.3,0,0.6,0.1,1,0.2v4.4c-0.2,0-0.5-0.1-0.8-0.1c-0.3,0-0.6,0-0.9,0c-0.9,0-1.6,0.1-2.2,0.4
				c-0.6,0.3-1.1,0.7-1.4,1.2c-0.4,0.5-0.6,1.1-0.8,1.7c-0.2,0.7-0.2,1.4-0.2,2.1v7.7h-4.7V62.7H354.3z"/>
			<path class="st2" d="M362.5,68c0.1-1.1,0.3-2,0.8-2.7c0.5-0.7,1.1-1.3,1.8-1.7s1.6-0.8,2.5-0.9c0.9-0.2,1.9-0.3,2.8-0.3
				c0.9,0,1.7,0.1,2.6,0.2c0.9,0.1,1.7,0.4,2.4,0.7s1.3,0.8,1.8,1.5s0.7,1.5,0.7,2.5V76c0,0.8,0,1.5,0.1,2.2
				c0.1,0.7,0.2,1.2,0.5,1.6h-4.8c-0.1-0.3-0.2-0.5-0.2-0.8c-0.1-0.3-0.1-0.6-0.1-0.8c-0.7,0.8-1.6,1.3-2.6,1.6
				c-1,0.3-2,0.5-3.1,0.5c-0.8,0-1.6-0.1-2.3-0.3c-0.7-0.2-1.3-0.5-1.8-0.9c-0.5-0.4-0.9-0.9-1.2-1.6c-0.3-0.6-0.4-1.4-0.4-2.3
				c0-1,0.2-1.8,0.5-2.4c0.3-0.6,0.8-1.1,1.3-1.5c0.5-0.4,1.2-0.7,1.8-0.8c0.7-0.2,1.4-0.3,2.1-0.4c0.7-0.1,1.4-0.2,2.1-0.3
				c0.7-0.1,1.3-0.2,1.8-0.3c0.5-0.1,0.9-0.3,1.3-0.6c0.3-0.3,0.5-0.6,0.4-1.1c0-0.5-0.1-0.9-0.2-1.2c-0.2-0.3-0.4-0.5-0.7-0.7
				c-0.3-0.2-0.6-0.3-1-0.3c-0.4-0.1-0.8-0.1-1.2-0.1c-0.9,0-1.6,0.2-2.2,0.6c-0.5,0.4-0.8,1.1-0.9,2H362.5z M373.4,71.4
				c-0.2,0.2-0.4,0.3-0.7,0.4s-0.6,0.2-1,0.2c-0.3,0.1-0.7,0.1-1.1,0.2c-0.4,0-0.7,0.1-1.1,0.2c-0.4,0.1-0.7,0.2-1,0.3
				c-0.3,0.1-0.6,0.3-0.9,0.4c-0.3,0.2-0.5,0.4-0.6,0.7c-0.2,0.3-0.2,0.6-0.2,1.1c0,0.4,0.1,0.8,0.2,1.1c0.2,0.3,0.4,0.5,0.6,0.7
				c0.3,0.2,0.6,0.3,0.9,0.3c0.4,0.1,0.7,0.1,1.1,0.1c0.9,0,1.6-0.2,2.1-0.5c0.5-0.3,0.9-0.7,1.1-1.1s0.4-0.9,0.4-1.3
				c0.1-0.4,0.1-0.8,0.1-1.1V71.4z"/>
			<path class="st2" d="M386.1,62.7v2.4h0.1c0.6-1,1.4-1.7,2.3-2.2c0.9-0.5,1.9-0.7,2.9-0.7c1.3,0,2.3,0.2,3.1,0.5
				c0.8,0.3,1.4,0.8,1.9,1.4c0.5,0.6,0.8,1.3,1,2.2c0.2,0.9,0.3,1.8,0.3,2.9v10.5H393v-9.6c0-1.4-0.2-2.5-0.7-3.2s-1.2-1-2.3-1
				c-1.3,0-2.2,0.4-2.8,1.1c-0.6,0.8-0.9,2-0.9,3.7v8.9h-4.7V62.7H386.1z"/>
			<path class="st2" d="M405.2,75.5c0.2,0.4,0.5,0.7,0.8,0.9c0.3,0.2,0.7,0.4,1.1,0.5c0.4,0.1,0.9,0.2,1.3,0.2c0.3,0,0.7,0,1-0.1
				c0.4-0.1,0.7-0.2,1-0.4c0.3-0.2,0.5-0.4,0.7-0.7c0.2-0.3,0.3-0.6,0.3-1c0-0.7-0.5-1.2-1.4-1.6c-0.9-0.4-2.2-0.7-3.9-1.1
				c-0.7-0.2-1.3-0.3-2-0.5c-0.6-0.2-1.2-0.5-1.7-0.8c-0.5-0.3-0.9-0.8-1.2-1.3c-0.3-0.5-0.5-1.1-0.5-1.9c0-1.1,0.2-2,0.6-2.7
				c0.4-0.7,1-1.3,1.7-1.7c0.7-0.4,1.5-0.7,2.4-0.9s1.8-0.2,2.7-0.2c0.9,0,1.8,0.1,2.7,0.3c0.9,0.2,1.6,0.5,2.3,0.9
				c0.7,0.4,1.2,1,1.7,1.7c0.5,0.7,0.7,1.6,0.8,2.6h-4.5c-0.1-0.9-0.4-1.5-1-1.8c-0.6-0.3-1.3-0.5-2.2-0.5c-0.3,0-0.6,0-0.9,0
				c-0.3,0-0.6,0.1-0.8,0.2c-0.3,0.1-0.5,0.3-0.6,0.5c-0.2,0.2-0.3,0.5-0.3,0.8c0,0.4,0.2,0.8,0.5,1c0.3,0.3,0.7,0.5,1.2,0.6
				s1.1,0.3,1.7,0.4c0.6,0.1,1.3,0.3,1.9,0.4c0.7,0.2,1.3,0.3,2,0.6c0.6,0.2,1.2,0.5,1.7,0.9c0.5,0.4,0.9,0.8,1.2,1.4
				c0.3,0.5,0.5,1.2,0.5,2c0,1.1-0.2,2.1-0.7,2.8c-0.5,0.8-1,1.4-1.8,1.8c-0.7,0.5-1.6,0.8-2.5,1c-0.9,0.2-1.9,0.3-2.9,0.3
				c-1,0-2-0.1-2.9-0.3c-0.9-0.2-1.8-0.5-2.5-1s-1.3-1.1-1.8-1.8c-0.5-0.8-0.7-1.7-0.8-2.9h4.5C404.9,74.7,405,75.2,405.2,75.5z"/>
			<path class="st2" d="M417.2,65.8v-3.1h2.8v-1.3c0-1.5,0.5-2.8,1.4-3.7c0.9-1,2.4-1.5,4.3-1.5c0.4,0,0.8,0,1.3,0
				c0.4,0,0.8,0.1,1.2,0.1v3.5c-0.6-0.1-1.1-0.1-1.7-0.1c-0.6,0-1.1,0.1-1.4,0.4s-0.4,0.8-0.4,1.5v1h3.2v3.1h-3.2v13.9H420V65.8
				H417.2z"/>
			<path class="st2" d="M430,67.5c0.4-1.1,1-2.1,1.8-2.8c0.8-0.8,1.7-1.4,2.8-1.8c1.1-0.4,2.3-0.6,3.6-0.6c1.3,0,2.6,0.2,3.6,0.6
				c1.1,0.4,2,1,2.8,1.8c0.8,0.8,1.4,1.7,1.8,2.8c0.4,1.1,0.6,2.3,0.6,3.7c0,1.4-0.2,2.6-0.6,3.7c-0.4,1.1-1,2-1.8,2.8
				c-0.8,0.8-1.7,1.4-2.8,1.8c-1.1,0.4-2.3,0.6-3.6,0.6c-1.3,0-2.6-0.2-3.6-0.6c-1.1-0.4-2-1-2.8-1.8c-0.8-0.8-1.4-1.7-1.8-2.8
				c-0.4-1.1-0.6-2.3-0.6-3.7C429.4,69.9,429.6,68.7,430,67.5z M434.3,73.3c0.1,0.6,0.4,1.2,0.7,1.7c0.3,0.5,0.7,0.9,1.3,1.2
				c0.5,0.3,1.2,0.5,2,0.5s1.5-0.2,2-0.5c0.5-0.3,1-0.7,1.3-1.2c0.3-0.5,0.5-1.1,0.7-1.7c0.1-0.6,0.2-1.3,0.2-2c0-0.7-0.1-1.4-0.2-2
				c-0.1-0.7-0.4-1.2-0.7-1.7c-0.3-0.5-0.7-0.9-1.3-1.2c-0.5-0.3-1.2-0.5-2-0.5s-1.5,0.2-2,0.5c-0.5,0.3-1,0.7-1.3,1.2
				c-0.3,0.5-0.5,1.1-0.7,1.7c-0.1,0.7-0.2,1.3-0.2,2C434.1,71.9,434.2,72.6,434.3,73.3z"/>
			<path class="st2" d="M454.6,62.7v3.2h0.1c0.2-0.5,0.5-1,0.9-1.5c0.4-0.5,0.8-0.8,1.3-1.2c0.5-0.3,1-0.6,1.6-0.7
				c0.5-0.2,1.1-0.3,1.7-0.3c0.3,0,0.6,0.1,1,0.2v4.4c-0.2,0-0.5-0.1-0.8-0.1c-0.3,0-0.6,0-0.9,0c-0.9,0-1.6,0.1-2.2,0.4
				c-0.6,0.3-1.1,0.7-1.4,1.2s-0.6,1.1-0.8,1.7c-0.2,0.7-0.2,1.4-0.2,2.1v7.7h-4.7V62.7H454.6z"/>
			<path class="st2" d="M467.5,62.7V65h0.1c0.6-0.9,1.4-1.6,2.2-2c0.9-0.5,1.9-0.7,3-0.7c1.1,0,2.1,0.2,3,0.6c0.9,0.4,1.6,1.2,2,2.2
				c0.5-0.7,1.2-1.4,2.1-2c0.9-0.6,1.9-0.9,3.1-0.9c0.9,0,1.7,0.1,2.5,0.3c0.8,0.2,1.4,0.6,2,1.1c0.5,0.5,1,1.1,1.3,1.9
				c0.3,0.8,0.5,1.7,0.5,2.8v11.4h-4.7v-9.7c0-0.6,0-1.1-0.1-1.6c0-0.5-0.2-0.9-0.4-1.3c-0.2-0.4-0.5-0.7-0.9-0.9
				c-0.4-0.2-0.9-0.3-1.6-0.3s-1.2,0.1-1.6,0.4s-0.7,0.6-1,1c-0.2,0.4-0.4,0.9-0.5,1.4s-0.1,1-0.1,1.6v9.5h-4.7v-9.6
				c0-0.5,0-1,0-1.5c0-0.5-0.1-1-0.3-1.4c-0.2-0.4-0.4-0.8-0.8-1c-0.4-0.3-1-0.4-1.7-0.4c-0.2,0-0.5,0-0.9,0.1
				c-0.4,0.1-0.7,0.3-1.1,0.6c-0.3,0.3-0.6,0.7-0.9,1.2c-0.2,0.5-0.4,1.2-0.4,2v9.9h-4.7V62.7H467.5z"/>
			<path class="st2" d="M514.1,77.6c-0.5,0.9-1.3,1.6-2.2,2c-0.9,0.4-1.9,0.6-3,0.6c-1.3,0-2.4-0.2-3.4-0.7s-1.8-1.2-2.4-2
				s-1.1-1.8-1.4-2.9c-0.3-1.1-0.5-2.2-0.5-3.4c0-1.1,0.2-2.2,0.5-3.3c0.3-1.1,0.8-2,1.4-2.8s1.4-1.5,2.4-2c0.9-0.5,2-0.7,3.3-0.7
				c1,0,2,0.2,2.9,0.6c0.9,0.4,1.6,1.1,2.2,1.9h0.1v-8.6h4.7v23.6h-4.5L514.1,77.6L514.1,77.6z M513.9,69.2
				c-0.1-0.6-0.4-1.2-0.7-1.7c-0.3-0.5-0.7-0.9-1.2-1.2c-0.5-0.3-1.1-0.5-1.9-0.5c-0.8,0-1.4,0.2-1.9,0.5s-1,0.7-1.3,1.2
				c-0.3,0.5-0.5,1.1-0.7,1.7c-0.1,0.6-0.2,1.3-0.2,2c0,0.7,0.1,1.3,0.2,2c0.2,0.7,0.4,1.2,0.7,1.8c0.3,0.5,0.8,0.9,1.3,1.3
				c0.5,0.3,1.1,0.5,1.9,0.5c0.8,0,1.4-0.2,1.9-0.5c0.5-0.3,0.9-0.7,1.2-1.2c0.3-0.5,0.5-1.1,0.7-1.8c0.1-0.7,0.2-1.3,0.2-2
				C514.1,70.5,514.1,69.8,513.9,69.2z"/>
			<path class="st2" d="M522,68c0.1-1.1,0.3-2,0.8-2.7c0.5-0.7,1.1-1.3,1.8-1.7s1.6-0.8,2.5-0.9c0.9-0.2,1.9-0.3,2.8-0.3
				c0.9,0,1.7,0.1,2.6,0.2c0.9,0.1,1.7,0.4,2.4,0.7c0.7,0.4,1.3,0.8,1.8,1.5s0.7,1.5,0.7,2.5V76c0,0.8,0,1.5,0.1,2.2
				c0.1,0.7,0.2,1.2,0.5,1.6h-4.8c-0.1-0.3-0.2-0.5-0.2-0.8c-0.1-0.3-0.1-0.6-0.1-0.8c-0.7,0.8-1.6,1.3-2.6,1.6
				c-1,0.3-2,0.5-3.1,0.5c-0.8,0-1.6-0.1-2.3-0.3c-0.7-0.2-1.3-0.5-1.8-0.9c-0.5-0.4-0.9-0.9-1.2-1.6c-0.3-0.6-0.4-1.4-0.4-2.3
				c0-1,0.2-1.8,0.5-2.4s0.8-1.1,1.3-1.5s1.2-0.7,1.8-0.8c0.7-0.2,1.4-0.3,2.1-0.4c0.7-0.1,1.4-0.2,2.1-0.3c0.7-0.1,1.3-0.2,1.8-0.3
				c0.5-0.1,0.9-0.3,1.3-0.6c0.3-0.3,0.5-0.6,0.4-1.1c0-0.5-0.1-0.9-0.2-1.2c-0.2-0.3-0.4-0.5-0.7-0.7c-0.3-0.2-0.6-0.3-1-0.3
				c-0.4-0.1-0.8-0.1-1.2-0.1c-0.9,0-1.7,0.2-2.2,0.6c-0.5,0.4-0.8,1.1-0.9,2H522z M532.8,71.4c-0.2,0.2-0.4,0.3-0.7,0.4
				c-0.3,0.1-0.6,0.2-1,0.2c-0.3,0.1-0.7,0.1-1.1,0.2c-0.4,0-0.7,0.1-1.1,0.2c-0.4,0.1-0.7,0.2-1,0.3c-0.3,0.1-0.6,0.3-0.9,0.4
				c-0.3,0.2-0.5,0.4-0.6,0.7s-0.2,0.6-0.2,1.1c0,0.4,0.1,0.8,0.2,1.1c0.2,0.3,0.4,0.5,0.6,0.7c0.3,0.2,0.6,0.3,0.9,0.3
				c0.4,0.1,0.7,0.1,1.1,0.1c0.9,0,1.6-0.2,2.1-0.5c0.5-0.3,0.9-0.7,1.1-1.1s0.4-0.9,0.4-1.3c0.1-0.4,0.1-0.8,0.1-1.1V71.4z"/>
			<path class="st2" d="M550.5,62.7v3.1h-3.4v8.4c0,0.8,0.1,1.3,0.4,1.6c0.3,0.3,0.8,0.4,1.6,0.4c0.3,0,0.5,0,0.8,0
				c0.2,0,0.5-0.1,0.7-0.1v3.6c-0.4,0.1-0.8,0.1-1.3,0.1c-0.5,0-1,0-1.4,0c-0.7,0-1.4,0-2.1-0.1c-0.6-0.1-1.2-0.3-1.7-0.6
				s-0.9-0.7-1.2-1.2c-0.3-0.5-0.4-1.2-0.4-2.1V65.8h-2.8v-3.1h2.8v-5.1h4.7v5.1H550.5z"/>
			<path class="st2" d="M552.5,68c0.1-1.1,0.3-2,0.8-2.7c0.5-0.7,1.1-1.3,1.8-1.7s1.6-0.8,2.5-0.9c0.9-0.2,1.9-0.3,2.8-0.3
				c0.9,0,1.7,0.1,2.6,0.2c0.9,0.1,1.7,0.4,2.4,0.7c0.7,0.4,1.3,0.8,1.8,1.5s0.7,1.5,0.7,2.5V76c0,0.8,0,1.5,0.1,2.2
				c0.1,0.7,0.2,1.2,0.5,1.6h-4.8c-0.1-0.3-0.2-0.5-0.2-0.8c-0.1-0.3-0.1-0.6-0.1-0.8c-0.7,0.8-1.6,1.3-2.6,1.6
				c-1,0.3-2,0.5-3.1,0.5c-0.8,0-1.6-0.1-2.3-0.3c-0.7-0.2-1.3-0.5-1.8-0.9c-0.5-0.4-0.9-0.9-1.2-1.6c-0.3-0.6-0.4-1.4-0.4-2.3
				c0-1,0.2-1.8,0.5-2.4s0.8-1.1,1.3-1.5s1.2-0.7,1.8-0.8c0.7-0.2,1.4-0.3,2.1-0.4c0.7-0.1,1.4-0.2,2.1-0.3c0.7-0.1,1.3-0.2,1.8-0.3
				c0.5-0.1,0.9-0.3,1.3-0.6c0.3-0.3,0.5-0.6,0.4-1.1c0-0.5-0.1-0.9-0.2-1.2c-0.2-0.3-0.4-0.5-0.7-0.7c-0.3-0.2-0.6-0.3-1-0.3
				c-0.4-0.1-0.8-0.1-1.2-0.1c-0.9,0-1.7,0.2-2.2,0.6c-0.5,0.4-0.8,1.1-0.9,2H552.5z M563.4,71.4c-0.2,0.2-0.4,0.3-0.7,0.4
				c-0.3,0.1-0.6,0.2-1,0.2c-0.3,0.1-0.7,0.1-1.1,0.2c-0.4,0-0.7,0.1-1.1,0.2c-0.4,0.1-0.7,0.2-1,0.3c-0.3,0.1-0.6,0.3-0.9,0.4
				c-0.3,0.2-0.5,0.4-0.6,0.7s-0.2,0.6-0.2,1.1c0,0.4,0.1,0.8,0.2,1.1c0.2,0.3,0.4,0.5,0.6,0.7c0.3,0.2,0.6,0.3,0.9,0.3
				c0.4,0.1,0.7,0.1,1.1,0.1c0.9,0,1.6-0.2,2.1-0.5c0.5-0.3,0.9-0.7,1.1-1.1s0.4-0.9,0.4-1.3c0.1-0.4,0.1-0.8,0.1-1.1V71.4z"/>
			<path class="st2" d="M332.9,99.1v-3.9h4.7v3.9H332.9z M337.6,101.7v17.1h-4.7v-17.1H337.6z"/>
			<path class="st2" d="M345.7,101.7v2.4h0.1c0.6-1,1.4-1.7,2.3-2.2c0.9-0.5,1.9-0.7,2.9-0.7c1.3,0,2.3,0.2,3.1,0.5
				c0.8,0.3,1.4,0.8,1.9,1.4c0.5,0.6,0.8,1.3,1,2.2s0.3,1.8,0.3,2.9v10.5h-4.7v-9.6c0-1.4-0.2-2.5-0.7-3.2c-0.4-0.7-1.2-1-2.3-1
				c-1.3,0-2.2,0.4-2.8,1.1c-0.6,0.8-0.9,2-0.9,3.7v8.9h-4.7v-17.1H345.7z"/>
			<path class="st2" d="M370.2,101.7v3.1h-3.4v8.4c0,0.8,0.1,1.3,0.4,1.6c0.3,0.3,0.8,0.4,1.6,0.4c0.3,0,0.5,0,0.8,0
				c0.2,0,0.5-0.1,0.7-0.1v3.6c-0.4,0.1-0.8,0.1-1.3,0.1c-0.5,0-1,0-1.4,0c-0.7,0-1.4,0-2.1-0.1c-0.6-0.1-1.2-0.3-1.7-0.6
				c-0.5-0.3-0.9-0.7-1.2-1.2c-0.3-0.5-0.4-1.2-0.4-2.1v-10.1h-2.8v-3.1h2.8v-5.1h4.7v5.1H370.2z"/>
			<path class="st2" d="M372.6,106.5c0.4-1.1,1-2.1,1.8-2.8c0.8-0.8,1.7-1.4,2.8-1.8c1.1-0.4,2.3-0.6,3.6-0.6c1.3,0,2.6,0.2,3.6,0.6
				c1.1,0.4,2,1,2.8,1.8c0.8,0.8,1.4,1.7,1.8,2.8c0.4,1.1,0.6,2.3,0.6,3.7s-0.2,2.6-0.6,3.7c-0.4,1.1-1,2-1.8,2.8
				c-0.8,0.8-1.7,1.4-2.8,1.8c-1.1,0.4-2.3,0.6-3.6,0.6c-1.3,0-2.6-0.2-3.6-0.6c-1.1-0.4-2-1-2.8-1.8c-0.8-0.8-1.4-1.7-1.8-2.8
				c-0.4-1.1-0.6-2.3-0.6-3.7S372.1,107.7,372.6,106.5z M376.8,112.3c0.1,0.6,0.4,1.2,0.7,1.7c0.3,0.5,0.7,0.9,1.3,1.2
				c0.5,0.3,1.2,0.5,2,0.5s1.5-0.2,2-0.5c0.5-0.3,1-0.7,1.3-1.2c0.3-0.5,0.5-1.1,0.7-1.7c0.1-0.6,0.2-1.3,0.2-2s-0.1-1.4-0.2-2
				c-0.1-0.7-0.4-1.2-0.7-1.7c-0.3-0.5-0.7-0.9-1.3-1.2c-0.5-0.3-1.2-0.5-2-0.5s-1.5,0.2-2,0.5c-0.5,0.3-1,0.7-1.3,1.2
				c-0.3,0.5-0.5,1.1-0.7,1.7c-0.1,0.7-0.2,1.3-0.2,2S376.7,111.6,376.8,112.3z"/>
			<path class="st2" d="M406.9,95.2v12.6l5.9-6.1h5.5l-6.4,6.3l7.2,10.8h-5.7l-4.7-7.6l-1.8,1.7v5.9h-4.7V95.2H406.9z"/>
			<path class="st2" d="M425.2,101.7v2.4h0.1c0.6-1,1.4-1.7,2.3-2.2c0.9-0.5,1.9-0.7,2.9-0.7c1.3,0,2.3,0.2,3.1,0.5
				c0.8,0.3,1.4,0.8,1.9,1.4c0.5,0.6,0.8,1.3,1,2.2c0.2,0.9,0.3,1.8,0.3,2.9v10.5h-4.7v-9.6c0-1.4-0.2-2.5-0.7-3.2
				c-0.4-0.7-1.2-1-2.3-1c-1.3,0-2.2,0.4-2.8,1.1c-0.6,0.8-0.9,2-0.9,3.7v8.9h-4.7v-17.1H425.2z"/>
			<path class="st2" d="M440.4,106.5c0.4-1.1,1-2.1,1.8-2.8c0.8-0.8,1.7-1.4,2.8-1.8c1.1-0.4,2.3-0.6,3.6-0.6c1.3,0,2.6,0.2,3.6,0.6
				c1.1,0.4,2,1,2.8,1.8c0.8,0.8,1.4,1.7,1.8,2.8c0.4,1.1,0.6,2.3,0.6,3.7s-0.2,2.6-0.6,3.7c-0.4,1.1-1,2-1.8,2.8
				c-0.8,0.8-1.7,1.4-2.8,1.8c-1.1,0.4-2.3,0.6-3.6,0.6c-1.3,0-2.6-0.2-3.6-0.6c-1.1-0.4-2-1-2.8-1.8c-0.8-0.8-1.4-1.7-1.8-2.8
				c-0.4-1.1-0.6-2.3-0.6-3.7S440,107.7,440.4,106.5z M444.7,112.3c0.1,0.6,0.4,1.2,0.7,1.7c0.3,0.5,0.7,0.9,1.3,1.2
				c0.5,0.3,1.2,0.5,2,0.5s1.5-0.2,2-0.5c0.5-0.3,1-0.7,1.3-1.2c0.3-0.5,0.5-1.1,0.7-1.7c0.1-0.6,0.2-1.3,0.2-2s-0.1-1.4-0.2-2
				c-0.1-0.7-0.4-1.2-0.7-1.7c-0.3-0.5-0.7-0.9-1.3-1.2c-0.5-0.3-1.2-0.5-2-0.5s-1.5,0.2-2,0.5c-0.5,0.3-1,0.7-1.3,1.2
				c-0.3,0.5-0.5,1.1-0.7,1.7c-0.1,0.7-0.2,1.3-0.2,2S444.5,111.6,444.7,112.3z"/>
			<path class="st2" d="M475.2,118.8l-3-11.5h-0.1l-2.9,11.5h-4.9l-5.4-17.1h5l3.1,11.6h0.1l2.8-11.6h4.6l2.9,11.5h0.1l3.1-11.5h4.8
				l-5.4,17.1H475.2z"/>
			<path class="st2" d="M492.2,95.2v23.6h-4.7V95.2H492.2z"/>
			<path class="st2" d="M500.9,114.7c0.7,0.7,1.7,1,3,1c0.9,0,1.8-0.2,2.4-0.7c0.7-0.5,1.1-1,1.3-1.5h4.1c-0.7,2-1.7,3.5-3,4.4
				c-1.4,0.9-3,1.3-5,1.3c-1.3,0-2.6-0.2-3.6-0.6c-1.1-0.4-2-1-2.7-1.8s-1.3-1.7-1.7-2.8c-0.4-1.1-0.6-2.3-0.6-3.6
				c0-1.3,0.2-2.5,0.6-3.6c0.4-1.1,1-2.1,1.8-2.9c0.8-0.8,1.7-1.4,2.8-1.9s2.2-0.7,3.5-0.7c1.5,0,2.7,0.3,3.8,0.8
				c1.1,0.6,2,1.3,2.7,2.3c0.7,0.9,1.2,2,1.5,3.2c0.3,1.2,0.4,2.5,0.3,3.8h-12.3C499.8,112.9,500.2,114,500.9,114.7z M506.2,105.7
				c-0.6-0.6-1.4-0.9-2.6-0.9c-0.7,0-1.4,0.1-1.9,0.4s-0.9,0.6-1.2,0.9s-0.5,0.8-0.6,1.2s-0.2,0.8-0.2,1.1h7.6
				C507.1,107.2,506.7,106.3,506.2,105.7z"/>
			<path class="st2" d="M526.9,116.6c-0.5,0.9-1.3,1.6-2.2,2c-0.9,0.4-1.9,0.6-3,0.6c-1.3,0-2.4-0.2-3.4-0.7s-1.8-1.2-2.4-2
				s-1.1-1.8-1.4-2.9c-0.3-1.1-0.5-2.2-0.5-3.4c0-1.1,0.2-2.2,0.5-3.3s0.8-2,1.4-2.8c0.6-0.8,1.4-1.5,2.4-2c0.9-0.5,2-0.7,3.3-0.7
				c1,0,2,0.2,2.9,0.6c0.9,0.4,1.6,1.1,2.2,1.9h0.1v-8.6h4.7v23.6H527L526.9,116.6L526.9,116.6z M526.7,108.2
				c-0.1-0.6-0.4-1.2-0.7-1.7c-0.3-0.5-0.7-0.9-1.2-1.2c-0.5-0.3-1.1-0.5-1.9-0.5c-0.8,0-1.4,0.2-1.9,0.5c-0.5,0.3-1,0.7-1.3,1.2
				c-0.3,0.5-0.5,1.1-0.7,1.7c-0.1,0.6-0.2,1.3-0.2,2c0,0.7,0.1,1.3,0.2,2c0.2,0.7,0.4,1.2,0.7,1.8c0.3,0.5,0.8,0.9,1.3,1.3
				c0.5,0.3,1.1,0.5,1.9,0.5c0.8,0,1.4-0.2,1.9-0.5c0.5-0.3,0.9-0.7,1.2-1.2c0.3-0.5,0.5-1.1,0.7-1.8c0.1-0.7,0.2-1.3,0.2-2
				C526.9,109.5,526.8,108.8,526.7,108.2z"/>
			<path class="st2" d="M551.1,120c-0.2,0.9-0.6,1.7-1.2,2.5c-0.6,0.8-1.5,1.4-2.7,1.9c-1.2,0.5-2.7,0.8-4.7,0.8
				c-0.8,0-1.7-0.1-2.6-0.3c-0.9-0.2-1.7-0.5-2.4-1c-0.7-0.4-1.3-1-1.8-1.7c-0.5-0.7-0.7-1.5-0.8-2.5h4.7c0.2,0.9,0.6,1.5,1.3,1.8
				c0.6,0.3,1.4,0.5,2.2,0.5c1.3,0,2.3-0.4,2.9-1.2c0.6-0.8,0.9-1.8,0.9-3v-2.2h-0.1c-0.5,0.9-1.2,1.6-2.2,2c-0.9,0.4-1.9,0.6-3,0.6
				c-1.3,0-2.4-0.2-3.3-0.7s-1.7-1.1-2.3-1.8c-0.6-0.8-1-1.7-1.3-2.7c-0.3-1-0.4-2.2-0.4-3.3c0-1.1,0.2-2.2,0.5-3.2
				c0.3-1,0.8-1.9,1.4-2.7c0.6-0.8,1.4-1.4,2.3-1.9c0.9-0.5,2-0.7,3.2-0.7c1.1,0,2.1,0.2,3,0.6s1.6,1.1,2.1,2.1h0.1v-2.3h4.5v16
				C551.4,118.4,551.3,119.1,551.1,120z M544.7,114.3c0.5-0.3,0.9-0.6,1.3-1.1s0.6-0.9,0.7-1.5c0.2-0.6,0.2-1.1,0.2-1.8
				c0-0.7-0.1-1.4-0.2-2s-0.4-1.2-0.7-1.7c-0.3-0.5-0.7-0.9-1.2-1.2c-0.5-0.3-1.1-0.4-1.9-0.4c-0.7,0-1.2,0.1-1.7,0.4
				c-0.5,0.3-0.9,0.6-1.2,1.1c-0.3,0.5-0.6,1-0.7,1.6c-0.1,0.6-0.2,1.2-0.2,1.8c0,0.6,0.1,1.2,0.2,1.8c0.1,0.6,0.3,1.2,0.6,1.6
				c0.3,0.5,0.7,0.9,1.2,1.2c0.5,0.3,1.1,0.5,1.8,0.5C543.6,114.7,544.2,114.6,544.7,114.3z"/>
			<path class="st2" d="M560.1,114.7c0.7,0.7,1.7,1,3,1c0.9,0,1.8-0.2,2.4-0.7c0.7-0.5,1.1-1,1.3-1.5h4.1c-0.7,2-1.7,3.5-3,4.4
				c-1.4,0.9-3,1.3-5,1.3c-1.3,0-2.6-0.2-3.6-0.6c-1.1-0.4-2-1-2.7-1.8s-1.3-1.7-1.7-2.8c-0.4-1.1-0.6-2.3-0.6-3.6
				c0-1.3,0.2-2.5,0.6-3.6c0.4-1.1,1-2.1,1.8-2.9c0.8-0.8,1.7-1.4,2.8-1.9s2.2-0.7,3.5-0.7c1.5,0,2.7,0.3,3.8,0.8
				c1.1,0.6,2,1.3,2.7,2.3c0.7,0.9,1.2,2,1.5,3.2c0.3,1.2,0.4,2.5,0.3,3.8H559C559,112.9,559.4,114,560.1,114.7z M565.4,105.7
				c-0.6-0.6-1.4-0.9-2.6-0.9c-0.7,0-1.4,0.1-1.9,0.4s-0.9,0.6-1.2,0.9s-0.5,0.8-0.6,1.2s-0.2,0.8-0.2,1.1h7.6
				C566.4,107.2,566,106.3,565.4,105.7z"/>
		</g>
	</g>
</g>
</svg>
