<?xml version="1.0" encoding="utf-8"?>
<!-- Generator: Adobe Illustrator 26.1.0, SVG Export Plug-In . SVG Version: 6.00 Build 0)  -->
<svg version="1.1" id="Layer_1" xmlns="http://www.w3.org/2000/svg" xmlns:xlink="http://www.w3.org/1999/xlink" x="0px" y="0px"
	 viewBox="0 0 322.7 144.2" style="enable-background:new 0 0 322.7 144.2;" xml:space="preserve">
<style type="text/css">
	.st0{fill:none;stroke:#FFFFFF;stroke-width:2;stroke-miterlimit:10;}
	.st1{fill:none;stroke:#FFFFFF;stroke-width:3.5816;stroke-miterlimit:10;}
	.st2{fill:#FFFFFF;}
</style>
<g>
	<g>
		<g>
			<g>
				<ellipse class="st0" cx="251" cy="72.1" rx="66.2" ry="67"/>
				<g>
					<path class="st1" d="M232.7,79.9c4.3,5,5.5,7.6,5.5,16.8c0,0,0.3,25.5-26.5,29.3"/>
					<path class="st1" d="M232.7,80c-5.1-5.8-12.3-9.7-20.5-10.5s-16,1.7-22.1,6.5c5.1,5.8,12.3,9.7,20.5,10.5
						C218.9,87.2,226.6,84.7,232.7,80z"/>
				</g>
				<g>
					<path class="st1" d="M238.7,65.4c6.2,6.1,5.8,26.2,5.8,35.4c0,0-0.4,24.4-16,34.2"/>
					<path class="st1" d="M238.8,65.5c-0.8-7.7-4.4-15.1-10.6-20.6c-6.3-5.5-14-8-21.7-7.7c0.8,7.7,4.4,15.1,10.6,20.6
						C223.3,63.2,231.1,65.7,238.8,65.5z"/>
				</g>
				<g>
					<path class="st1" d="M269.3,79.9c-4.3,5-5.5,7.6-5.5,16.8c0,0-0.3,25.5,26.5,29.3"/>
					<path class="st1" d="M269.3,80c5.1-5.8,12.3-9.7,20.5-10.5s16,1.7,22.1,6.5c-5.1,5.8-12.3,9.7-20.5,10.5
						C283.1,87.2,275.3,84.7,269.3,80z"/>
				</g>
				<g>
					<path class="st1" d="M263.2,65.5c-6.2,6.1-5.7,26.2-5.7,35.3c0,0,0.4,24.4,16,34.2"/>
					<path class="st1" d="M263.2,65.5c0.8-7.7,4.4-15.1,10.6-20.6c6.3-5.5,14-8,21.7-7.7c-0.8,7.7-4.4,15.1-10.6,20.6
						C278.6,63.2,270.8,65.7,263.2,65.5z"/>
				</g>
				<path class="st1" d="M251.2,60.8c-5.2-5.7-8.4-13.3-8.4-21.6c0-8.4,3.2-15.9,8.5-21.6c5.2,5.7,8.4,13.3,8.4,21.6
					C259.6,47.5,256.4,55.1,251.2,60.8z"/>
				<line class="st1" x1="251.2" y1="17.6" x2="251.2" y2="139.1"/>
			</g>
			<line class="st1" x1="190.2" y1="76" x2="232.7" y2="80"/>
			<line class="st1" x1="206.4" y1="37.2" x2="238.7" y2="65.4"/>
			<line class="st1" x1="311.8" y1="75.9" x2="269.3" y2="79.9"/>
			<line class="st1" x1="295.5" y1="37.2" x2="263.2" y2="65.4"/>
		</g>
		<g>
			<g>
				<g>
					<path class="st2" d="M21.2,54c3,0,5.6,0.3,7.8,0.9c2.2,0.6,3.9,1.4,5.3,2.5c1.4,1.1,2.4,2.4,3,3.9s1,3.3,1,5.2
						c0,1.1-0.2,2.2-0.5,3.2s-0.8,1.9-1.5,2.8s-1.5,1.7-2.6,2.4c-1,0.7-2.3,1.3-3.7,1.8c6.4,1.5,9.6,4.9,9.6,10.5
						c0,2-0.4,3.8-1.1,5.5s-1.8,3.1-3.3,4.4c-1.4,1.2-3.2,2.2-5.3,2.9c-2.1,0.7-4.5,1-7.2,1H5.2V54H21.2z M13.9,60.7v13.6h6.9
						c3,0,5.2-0.5,6.7-1.6s2.3-2.8,2.3-5.2c0-2.4-0.7-4.2-2.1-5.2s-3.5-1.6-6.4-1.6C21.3,60.7,13.9,60.7,13.9,60.7z M22.6,94.1
						c1.6,0,3-0.2,4-0.6c1.1-0.4,2-0.9,2.6-1.6c0.7-0.6,1.1-1.4,1.4-2.3s0.4-1.8,0.4-2.8s-0.2-1.9-0.5-2.7c-0.3-0.8-0.8-1.5-1.5-2.1
						s-1.6-1-2.6-1.3c-1.1-0.3-2.4-0.5-3.9-0.5h-8.7V94L22.6,94.1L22.6,94.1z"/>
					<path class="st2" d="M65.3,82.7v18.2h-8.6V82.7L39.8,54h7.6c0.7,0,1.3,0.2,1.8,0.6c0.4,0.4,0.8,0.8,1.1,1.4l8.5,15.7
						c0.5,0.9,0.9,1.8,1.3,2.6c0.4,0.8,0.7,1.6,1,2.5c0.3-0.8,0.6-1.6,1-2.5s0.8-1.7,1.3-2.6L71.8,56c0.2-0.5,0.6-0.9,1.1-1.3
						c0.5-0.4,1.1-0.6,1.8-0.6h7.6L65.3,82.7z"/>
					<path class="st2" d="M127.7,77.4c0,3.4-0.6,6.6-1.7,9.6c-1.1,2.9-2.7,5.5-4.8,7.6c-2.1,2.1-4.5,3.8-7.4,5s-6.1,1.8-9.6,1.8
						s-6.7-0.6-9.6-1.8c-2.9-1.2-5.4-2.9-7.4-5c-2.1-2.1-3.7-4.7-4.8-7.6c-1.1-2.9-1.7-6.1-1.7-9.6s0.6-6.6,1.7-9.6
						c1.1-2.9,2.7-5.5,4.8-7.6c2.1-2.1,4.5-3.8,7.4-5s6.1-1.8,9.6-1.8c2.4,0,4.6,0.3,6.6,0.8c2.1,0.6,4,1.3,5.7,2.3s3.3,2.2,4.7,3.7
						c1.4,1.4,2.6,3,3.5,4.8c1,1.8,1.7,3.7,2.2,5.8C127.4,73,127.7,75.1,127.7,77.4z M118.9,77.4c0-2.6-0.3-4.9-1-6.9
						s-1.7-3.8-2.9-5.2s-2.8-2.5-4.6-3.3c-1.8-0.8-3.8-1.1-6.1-1.1c-2.3,0-4.3,0.4-6.1,1.1c-1.8,0.8-3.3,1.9-4.6,3.3
						c-1.3,1.4-2.3,3.2-2.9,5.2c-0.7,2-1,4.4-1,6.9c0,2.6,0.3,4.9,1,6.9s1.7,3.8,2.9,5.2c1.3,1.4,2.8,2.5,4.6,3.3
						c1.8,0.8,3.8,1.1,6.1,1.1c2.3,0,4.3-0.4,6.1-1.1c1.8-0.8,3.3-1.8,4.6-3.3c1.3-1.4,2.2-3.2,2.9-5.2
						C118.5,82.3,118.9,80,118.9,77.4z"/>
					<path class="st2" d="M171.1,100.9h-7.8c-1.5,0-2.5-0.6-3.2-1.8l-9.8-15c-0.4-0.6-0.8-1-1.2-1.2s-1.1-0.4-1.9-0.4h-3.7v18.3
						h-8.6V54H149c3.1,0,5.8,0.3,8.1,1s4.1,1.6,5.6,2.8c1.4,1.2,2.5,2.6,3.2,4.3s1,3.5,1,5.5c0,1.6-0.2,3.1-0.7,4.5s-1.1,2.7-2,3.8
						c-0.9,1.1-1.9,2.2-3.2,3c-1.3,0.9-2.7,1.5-4.3,2c0.6,0.3,1.1,0.7,1.5,1.2c0.5,0.4,0.9,1,1.3,1.6L171.1,100.9z M148.9,76.3
						c1.6,0,3-0.2,4.3-0.6c1.2-0.4,2.2-1,3-1.7s1.4-1.6,1.8-2.6c0.4-1,0.6-2.1,0.6-3.3c0-2.4-0.8-4.2-2.3-5.5
						c-1.6-1.3-3.9-1.9-7.1-1.9h-5.5v15.6H148.9z"/>
				</g>
			</g>
		</g>
		<g>
			<g>
				<path class="st2" d="M9.4,109.1c1,0,1.8,0.3,2.4,0.8c0.6,0.5,0.9,1.2,0.9,2c0,0.5-0.1,0.9-0.4,1.3c-0.3,0.4-0.6,0.7-1.1,0.9v0.1
					c0.8,0.2,1.4,0.5,1.8,1s0.6,1.1,0.6,1.8c0,0.6-0.2,1.1-0.5,1.6s-0.7,0.8-1.3,1.1c-0.5,0.2-1.2,0.4-1.9,0.4H5.4v-10.9h4V109.1z
					 M8.8,113.7c0.6,0,1-0.1,1.3-0.4s0.5-0.6,0.5-1.1c0-0.4-0.1-0.8-0.4-1c-0.3-0.2-0.7-0.4-1.2-0.4H7.5v2.9H8.8z M9.3,118.4
					c0.7,0,1.3-0.1,1.6-0.4c0.4-0.3,0.5-0.7,0.5-1.2s-0.2-0.8-0.5-1.1c-0.4-0.3-0.8-0.4-1.5-0.4h-2v3.1H9.3z"/>
				<path class="st2" d="M19.4,112.6c0.3,0,0.5,0.1,0.8,0.2c0.2,0.1,0.5,0.3,0.9,0.6l-0.7,1.7c-0.6-0.4-1-0.6-1.3-0.6
					s-0.6,0.1-0.9,0.3c-0.3,0.2-0.5,0.5-0.7,0.9s-0.3,0.7-0.3,1.1v3.3h-1.9v-7.3h1.9v1.9l0,0c0.3-0.7,0.7-1.2,1.1-1.5
					C18.5,112.8,18.9,112.6,19.4,112.6z"/>
				<path class="st2" d="M22.9,109.4c0.3,0,0.6,0.1,0.8,0.3c0.2,0.2,0.3,0.5,0.3,0.8s-0.1,0.5-0.3,0.8c-0.2,0.2-0.5,0.3-0.8,0.3
					s-0.5-0.1-0.8-0.3c-0.2-0.2-0.3-0.5-0.3-0.8s0.1-0.6,0.3-0.8S22.6,109.4,22.9,109.4z M23.9,112.8v7.3H22v-7.3H23.9z"/>
				<path class="st2" d="M30.1,112.6c0.8,0,1.4,0.3,1.9,0.8s0.7,1.2,0.7,2v4.6h-1.9v-4.4c0-0.5-0.1-0.8-0.3-1.1
					c-0.2-0.3-0.5-0.4-0.9-0.4c-0.3,0-0.6,0.1-0.8,0.3c-0.3,0.2-0.5,0.5-0.9,0.9v4.9H26v-7.3h1.9v1c0.4-0.4,0.7-0.7,1.1-0.9
					S29.6,112.6,30.1,112.6z"/>
				<path class="st2" d="M41.2,112.8v1.4H40c0.2,0.2,0.3,0.5,0.4,0.7s0.1,0.4,0.1,0.7c0,0.6-0.2,1.1-0.7,1.6c-0.4,0.4-1,0.7-2,0.8
					c-0.5,0.1-0.8,0.1-1,0.2s-0.2,0.2-0.2,0.4c0,0.2,0.1,0.3,0.3,0.3c0.2,0.1,0.5,0.2,1,0.2c1.1,0.2,1.9,0.4,2.4,0.8
					s0.8,0.8,0.8,1.4c0,0.8-0.3,1.4-0.9,1.8s-1.5,0.6-2.7,0.6c-1.1,0-2-0.2-2.7-0.6s-1-0.9-1-1.6c0-0.9,0.6-1.6,1.9-1.9
					c-0.6-0.2-0.8-0.6-0.8-0.9c0-0.5,0.4-0.9,1.2-1.1l0,0c-0.6-0.2-1-0.4-1.4-0.8c-0.3-0.4-0.5-0.9-0.5-1.4c0-0.8,0.3-1.4,0.9-1.9
					c0.6-0.5,1.4-0.7,2.3-0.7H41.2z M35.6,121.5c0,0.7,0.7,1,2,1c0.6,0,1-0.1,1.3-0.3s0.5-0.4,0.5-0.7c0-0.3-0.2-0.6-0.5-0.7
					s-0.9-0.2-1.5-0.2c-0.5,0-0.9,0.1-1.2,0.3C35.7,121,35.6,121.2,35.6,121.5z M36,115.4c0,0.4,0.1,0.7,0.4,0.9
					c0.3,0.3,0.6,0.4,1,0.4s0.7-0.1,1-0.4s0.4-0.6,0.4-1s-0.1-0.7-0.4-0.9s-0.6-0.4-1-0.4s-0.7,0.1-1,0.4
					C36.2,114.7,36,115,36,115.4z"/>
				<path class="st2" d="M47.8,109.1l2.6,3.6l2.7-3.6h2.5l-4.1,5.5v5.4h-2.1v-5.4l-4.1-5.5H47.8z"/>
				<path class="st2" d="M58.7,112.6c0.8,0,1.5,0.2,2.1,0.5s1.1,0.8,1.4,1.3c0.3,0.6,0.5,1.2,0.5,1.9c0,0.8-0.2,1.4-0.5,2
					s-0.8,1-1.4,1.3s-1.3,0.5-2.1,0.5s-1.5-0.2-2.1-0.5s-1.1-0.8-1.4-1.3c-0.3-0.6-0.5-1.2-0.5-2c0-0.7,0.2-1.4,0.5-2s0.8-1,1.4-1.3
					C57.2,112.8,57.9,112.6,58.7,112.6z M56.7,116.4c0,0.7,0.2,1.3,0.5,1.7c0.4,0.4,0.8,0.7,1.4,0.7c0.6,0,1.1-0.2,1.5-0.6
					s0.5-1,0.5-1.8c0-0.7-0.2-1.3-0.5-1.7c-0.4-0.4-0.9-0.6-1.5-0.6s-1.1,0.2-1.4,0.6C56.9,115.1,56.7,115.7,56.7,116.4z"/>
				<path class="st2" d="M66.1,112.8v4.5c0,0.5,0.1,0.8,0.4,1.1c0.2,0.2,0.6,0.4,0.9,0.4s0.6-0.1,0.9-0.3c0.3-0.2,0.5-0.5,0.7-0.8
					v-4.8h1.9v7.3H69v-1c-0.7,0.8-1.4,1.1-2.2,1.1c-0.8,0-1.4-0.3-1.9-0.8s-0.7-1.2-0.7-2v-4.7C64.2,112.8,66.1,112.8,66.1,112.8z"
					/>
				<path class="st2" d="M77,112.6c0.3,0,0.5,0.1,0.8,0.2c0.2,0.1,0.5,0.3,0.9,0.6l-0.7,1.7c-0.6-0.4-1-0.6-1.3-0.6
					s-0.6,0.1-0.9,0.3c-0.3,0.2-0.5,0.5-0.7,0.9s-0.3,0.7-0.3,1.1v3.3h-1.9v-7.3h1.9v1.9l0,0c0.3-0.7,0.7-1.2,1.1-1.5
					C76.2,112.8,76.6,112.6,77,112.6z"/>
				<path class="st2" d="M89.8,109c1.1,0,2.1,0.2,3.1,0.7c0.9,0.5,1.6,1.1,2.2,2c0.5,0.9,0.8,1.8,0.8,2.9c0,1-0.3,2-0.8,2.8
					c-0.5,0.9-1.2,1.5-2.2,2c-0.9,0.5-1.9,0.7-3.1,0.7c-1.1,0-2.2-0.2-3.1-0.7s-1.6-1.2-2.2-2c-0.5-0.9-0.8-1.8-0.8-2.8
					s0.3-1.9,0.8-2.8s1.2-1.6,2.1-2.1C87.6,109.3,88.7,109,89.8,109z M86,114.6c0,0.7,0.2,1.4,0.5,2s0.8,1,1.4,1.3s1.2,0.5,2,0.5
					c1.1,0,2-0.4,2.8-1.1s1.1-1.6,1.1-2.7c0-0.7-0.2-1.4-0.5-2s-0.8-1-1.4-1.3s-1.3-0.5-2-0.5s-1.4,0.2-2,0.5s-1,0.8-1.4,1.3
					C86.1,113.2,86,113.9,86,114.6z"/>
				<path class="st2" d="M98.6,112.8l1.7,4.2l1.7-4.2h1.2l1.7,4.2l1.7-4.2h2l-3.2,7.4h-0.8l-2-4.5l-2,4.5h-0.8l-3.3-7.4H98.6z"/>
				<path class="st2" d="M113.9,112.6c0.8,0,1.4,0.3,1.9,0.8s0.7,1.2,0.7,2v4.6h-1.9v-4.4c0-0.5-0.1-0.8-0.3-1.1
					c-0.2-0.3-0.5-0.4-0.9-0.4c-0.3,0-0.6,0.1-0.8,0.3c-0.3,0.2-0.5,0.5-0.9,0.9v4.9h-1.9v-7.3h1.9v1c0.4-0.4,0.7-0.7,1.1-0.9
					S113.5,112.6,113.9,112.6z"/>
				<path class="st2" d="M126.9,109.1c1,0,1.9,0.3,2.5,0.9c0.6,0.6,1,1.3,1,2.2c0,0.6-0.2,1.2-0.5,1.6s-0.8,0.8-1.4,1.1
					c0.3,0.2,0.7,0.4,0.9,0.8c0.3,0.3,0.6,0.9,1,1.6c0.7,1.3,1.2,2.2,1.5,2.7h-2.4c-0.2-0.2-0.4-0.6-0.7-1.1c-0.6-1.2-1-1.9-1.3-2.3
					s-0.6-0.7-0.8-0.9c-0.3-0.2-0.6-0.3-0.9-0.3H125v4.6h-2v-10.9L126.9,109.1L126.9,109.1z M126.5,113.8c0.6,0,1-0.1,1.3-0.4
					s0.5-0.7,0.5-1.1c0-0.5-0.2-0.9-0.5-1.1s-0.8-0.4-1.3-0.4h-1.3v3H126.5z"/>
				<path class="st2" d="M136,112.6c1.1,0,1.9,0.3,2.5,1s0.9,1.6,0.9,2.9v0.3h-5.2c0.1,0.7,0.3,1.2,0.7,1.5s1,0.5,1.7,0.5
					c0.5,0,0.9-0.1,1.3-0.2c0.4-0.2,0.9-0.4,1.3-0.7v1.4c-0.9,0.6-1.9,0.9-3.1,0.9c-1.2,0-2.1-0.3-2.8-1s-1.1-1.6-1.1-2.8
					c0-1.1,0.3-2,1-2.7S134.9,112.6,136,112.6z M137.7,115.6c-0.1-0.5-0.2-0.9-0.5-1.2c-0.3-0.3-0.6-0.4-1.1-0.4s-0.9,0.1-1.2,0.4
					s-0.5,0.7-0.6,1.3h3.4V115.6z"/>
				<path class="st2" d="M143.4,112.6c0.4,0,0.8,0,1.1,0.1c0.4,0.1,0.7,0.2,1.1,0.4v1.5c-0.4-0.2-0.8-0.4-1.2-0.6
					c-0.4-0.1-0.8-0.2-1.1-0.2s-0.5,0.1-0.6,0.2c-0.2,0.1-0.2,0.3-0.2,0.4s0.1,0.2,0.2,0.3s0.5,0.3,1.1,0.6c0.8,0.4,1.4,0.8,1.8,1.2
					c0.3,0.4,0.5,0.8,0.5,1.3c0,0.7-0.2,1.3-0.7,1.7c-0.5,0.4-1.2,0.6-2,0.6c-0.5,0-1-0.1-1.5-0.2s-0.8-0.3-1.1-0.4V118
					c0.9,0.5,1.7,0.8,2.4,0.8c0.3,0,0.6-0.1,0.8-0.2s0.3-0.3,0.3-0.5c0-0.1,0-0.2-0.1-0.3s-0.2-0.2-0.3-0.3
					c-0.1-0.1-0.6-0.3-1.4-0.7c-0.6-0.3-1-0.6-1.3-0.9s-0.4-0.7-0.4-1.2c0-0.6,0.3-1.2,0.8-1.5C141.9,112.8,142.6,112.6,143.4,112.6
					z"/>
				<path class="st2" d="M149.3,112.8v4.5c0,0.5,0.1,0.8,0.4,1.1c0.2,0.2,0.6,0.4,0.9,0.4c0.3,0,0.6-0.1,0.9-0.3
					c0.3-0.2,0.5-0.5,0.7-0.8v-4.8h1.9v7.3h-1.9v-1c-0.7,0.8-1.4,1.1-2.2,1.1s-1.4-0.3-1.9-0.8s-0.7-1.2-0.7-2v-4.7
					C147.4,112.8,149.3,112.8,149.3,112.8z"/>
				<path class="st2" d="M158.1,109.1V120h-1.9v-10.9H158.1z"/>
				<path class="st2" d="M162.1,110.8h0.2v1.9h2.5v1.5h-2.5v3.4c0,0.3,0.1,0.6,0.3,0.8s0.5,0.3,0.8,0.3c0.4,0,1-0.2,1.5-0.5v1.5
					c-0.7,0.3-1.3,0.5-2,0.5c-0.8,0-1.5-0.2-1.9-0.7c-0.5-0.4-0.7-1.1-0.7-1.8v-3.5h-1.1v-0.3L162.1,110.8z"/>
				<path class="st2" d="M168.4,112.6c0.4,0,0.8,0,1.1,0.1c0.4,0.1,0.7,0.2,1.1,0.4v1.5c-0.4-0.2-0.8-0.4-1.2-0.6
					c-0.4-0.1-0.8-0.2-1.1-0.2s-0.5,0.1-0.6,0.2c-0.2,0.1-0.2,0.3-0.2,0.4s0.1,0.2,0.2,0.3s0.5,0.3,1.1,0.6c0.8,0.4,1.4,0.8,1.8,1.2
					c0.3,0.4,0.5,0.8,0.5,1.3c0,0.7-0.2,1.3-0.7,1.7c-0.5,0.4-1.2,0.6-2,0.6c-0.5,0-1-0.1-1.5-0.2s-0.8-0.3-1.1-0.4V118
					c0.9,0.5,1.7,0.8,2.4,0.8c0.3,0,0.6-0.1,0.8-0.2s0.3-0.3,0.3-0.5c0-0.1,0-0.2-0.1-0.3s-0.2-0.2-0.3-0.3
					c-0.1-0.1-0.6-0.3-1.4-0.7c-0.6-0.3-1-0.6-1.3-0.9s-0.4-0.7-0.4-1.2c0-0.6,0.3-1.2,0.8-1.5C166.9,112.8,167.5,112.6,168.4,112.6
					z"/>
			</g>
		</g>
	</g>
</g>
</svg>
