<?xml version="1.0" encoding="utf-8"?>
<!-- Generator: Adobe Illustrator 26.1.0, SVG Export Plug-In . SVG Version: 6.00 Build 0)  -->
<svg version="1.1" id="Layer_1" xmlns="http://www.w3.org/2000/svg" xmlns:xlink="http://www.w3.org/1999/xlink" x="0px" y="0px"
	 viewBox="0 0 100.2 44.5" style="enable-background:new 0 0 100.2 44.5;" xml:space="preserve">
<style type="text/css">
	.st0{fill:none;stroke:#FFFFFF;stroke-width:0.6177;stroke-miterlimit:10;}
	.st1{fill:none;stroke:#FFFFFF;stroke-width:1.1061;stroke-miterlimit:10;}
	.st2{fill:#FFFFFF;}
</style>
<g>
	<g>
		<g>
			<ellipse class="st0" cx="21.7" cy="22.3" rx="20.5" ry="20.7"/>
			<g>
				<path class="st1" d="M16,24.7c1.3,1.6,1.7,2.3,1.7,5.2c0,0,0.1,7.9-8.2,9"/>
				<path class="st1" d="M16,24.7c-1.6-1.8-3.8-3-6.3-3.3c-2.5-0.2-4.9,0.5-6.8,2c1.6,1.8,3.8,3,6.3,3.3C11.7,27,14.1,26.2,16,24.7z
					"/>
			</g>
			<g>
				<path class="st1" d="M17.9,20.2c1.9,1.9,1.8,8.1,1.8,10.9c0,0-0.1,7.5-4.9,10.6"/>
				<path class="st1" d="M17.9,20.2c-0.3-2.4-1.4-4.7-3.3-6.4c-1.9-1.7-4.3-2.5-6.7-2.4c0.3,2.4,1.4,4.7,3.3,6.4
					C13.1,19.5,15.5,20.3,17.9,20.2z"/>
			</g>
			<g>
				<path class="st1" d="M27.3,24.7c-1.3,1.6-1.7,2.3-1.7,5.2c0,0-0.1,7.9,8.2,9"/>
				<path class="st1" d="M27.3,24.7c1.6-1.8,3.8-3,6.3-3.3c2.5-0.2,4.9,0.5,6.8,2c-1.6,1.8-3.8,3-6.3,3.3
					C31.6,27,29.2,26.2,27.3,24.7z"/>
			</g>
			<g>
				<path class="st1" d="M25.4,20.2c-1.9,1.9-1.8,8.1-1.8,10.9c0,0,0.1,7.5,4.9,10.6"/>
				<path class="st1" d="M25.4,20.2c0.3-2.4,1.4-4.7,3.3-6.4c1.9-1.7,4.3-2.5,6.7-2.4c-0.3,2.4-1.4,4.7-3.3,6.4
					C30.2,19.5,27.8,20.3,25.4,20.2z"/>
			</g>
			<path class="st1" d="M21.7,18.8c-1.6-1.8-2.6-4.1-2.6-6.7c0-2.6,1-4.9,2.6-6.7c1.6,1.8,2.6,4.1,2.6,6.7
				C24.3,14.7,23.3,17,21.7,18.8z"/>
			<line class="st1" x1="21.7" y1="5.4" x2="21.7" y2="43"/>
		</g>
		<line class="st1" x1="2.9" y1="23.5" x2="16" y2="24.7"/>
		<line class="st1" x1="7.9" y1="11.5" x2="17.9" y2="20.2"/>
		<line class="st1" x1="40.4" y1="23.5" x2="27.3" y2="24.7"/>
		<line class="st1" x1="35.4" y1="11.5" x2="25.4" y2="20.2"/>
	</g>
	<g>
		<g>
			<g>
				<path class="st2" d="M52.3,16.7c0.9,0,1.7,0.1,2.4,0.3c0.7,0.2,1.2,0.4,1.6,0.8c0.4,0.3,0.7,0.7,0.9,1.2c0.2,0.5,0.3,1,0.3,1.6
					c0,0.3,0,0.7-0.1,1c-0.1,0.3-0.3,0.6-0.5,0.9c-0.2,0.3-0.5,0.5-0.8,0.7c-0.3,0.2-0.7,0.4-1.1,0.6c2,0.4,3,1.5,3,3.2
					c0,0.6-0.1,1.2-0.3,1.7c-0.2,0.5-0.6,1-1,1.3c-0.4,0.4-1,0.7-1.6,0.9c-0.6,0.2-1.4,0.3-2.2,0.3h-5.4V16.7H52.3z M50,18.8V23h2.1
					c0.9,0,1.6-0.2,2.1-0.5c0.5-0.3,0.7-0.9,0.7-1.6c0-0.8-0.2-1.3-0.6-1.6c-0.4-0.3-1.1-0.5-2-0.5H50z M52.7,29.1
					c0.5,0,0.9-0.1,1.2-0.2c0.3-0.1,0.6-0.3,0.8-0.5c0.2-0.2,0.3-0.4,0.4-0.7c0.1-0.3,0.1-0.6,0.1-0.9c0-0.3,0-0.6-0.1-0.8
					c-0.1-0.3-0.3-0.5-0.5-0.6c-0.2-0.2-0.5-0.3-0.8-0.4c-0.3-0.1-0.7-0.1-1.2-0.1H50v4.3H52.7z"/>
				<path class="st2" d="M65.9,25.6v5.6h-2.7v-5.6L58,16.7h2.3c0.2,0,0.4,0.1,0.6,0.2c0.1,0.1,0.2,0.3,0.3,0.4l2.6,4.8
					c0.2,0.3,0.3,0.6,0.4,0.8c0.1,0.3,0.2,0.5,0.3,0.8c0.1-0.3,0.2-0.5,0.3-0.8c0.1-0.3,0.2-0.5,0.4-0.8l2.6-4.8
					c0.1-0.1,0.2-0.3,0.3-0.4c0.1-0.1,0.3-0.2,0.6-0.2h2.4L65.9,25.6z"/>
				<path class="st2" d="M85.2,23.9c0,1.1-0.2,2-0.5,3c-0.3,0.9-0.8,1.7-1.5,2.4c-0.6,0.7-1.4,1.2-2.3,1.5c-0.9,0.4-1.9,0.6-3,0.6
					c-1.1,0-2.1-0.2-3-0.6c-0.9-0.4-1.7-0.9-2.3-1.5c-0.6-0.7-1.1-1.4-1.5-2.4c-0.4-0.9-0.5-1.9-0.5-3s0.2-2,0.5-3
					c0.4-0.9,0.8-1.7,1.5-2.4c0.6-0.7,1.4-1.2,2.3-1.5c0.9-0.4,1.9-0.6,3-0.6c0.7,0,1.4,0.1,2.1,0.3c0.6,0.2,1.2,0.4,1.8,0.7
					c0.5,0.3,1,0.7,1.4,1.1c0.4,0.4,0.8,0.9,1.1,1.5c0.3,0.5,0.5,1.1,0.7,1.8C85.1,22.5,85.2,23.2,85.2,23.9z M82.4,23.9
					c0-0.8-0.1-1.5-0.3-2.1c-0.2-0.6-0.5-1.2-0.9-1.6c-0.4-0.4-0.9-0.8-1.4-1c-0.6-0.2-1.2-0.4-1.9-0.4c-0.7,0-1.3,0.1-1.9,0.4
					c-0.6,0.2-1,0.6-1.4,1c-0.4,0.4-0.7,1-0.9,1.6c-0.2,0.6-0.3,1.3-0.3,2.1c0,0.8,0.1,1.5,0.3,2.1c0.2,0.6,0.5,1.2,0.9,1.6
					c0.4,0.4,0.9,0.8,1.4,1s1.2,0.4,1.9,0.4c0.7,0,1.3-0.1,1.9-0.4s1-0.6,1.4-1c0.4-0.4,0.7-1,0.9-1.6
					C82.3,25.4,82.4,24.7,82.4,23.9z"/>
				<path class="st2" d="M98.6,31.2h-2.4c-0.5,0-0.8-0.2-1-0.5l-3-4.6c-0.1-0.2-0.2-0.3-0.4-0.4c-0.1-0.1-0.3-0.1-0.6-0.1H90v5.7
					h-2.7V16.7h4.4c1,0,1.8,0.1,2.5,0.3c0.7,0.2,1.3,0.5,1.7,0.9c0.4,0.4,0.8,0.8,1,1.3c0.2,0.5,0.3,1.1,0.3,1.7
					c0,0.5-0.1,0.9-0.2,1.4c-0.1,0.4-0.3,0.8-0.6,1.2c-0.3,0.4-0.6,0.7-1,0.9c-0.4,0.3-0.8,0.5-1.3,0.6c0.2,0.1,0.3,0.2,0.5,0.4
					c0.1,0.1,0.3,0.3,0.4,0.5L98.6,31.2z M91.7,23.6c0.5,0,0.9-0.1,1.3-0.2c0.4-0.1,0.7-0.3,0.9-0.5c0.2-0.2,0.4-0.5,0.5-0.8
					c0.1-0.3,0.2-0.6,0.2-1c0-0.7-0.2-1.3-0.7-1.7c-0.5-0.4-1.2-0.6-2.2-0.6H90v4.8H91.7z"/>
			</g>
		</g>
	</g>
	<g>
		<g>
			<path class="st2" d="M48.6,33.7c0.3,0,0.6,0.1,0.8,0.2c0.2,0.2,0.3,0.4,0.3,0.6c0,0.2,0,0.3-0.1,0.4c-0.1,0.1-0.2,0.2-0.4,0.3v0
				c0.2,0.1,0.4,0.2,0.5,0.3c0.1,0.2,0.2,0.3,0.2,0.6c0,0.2,0,0.4-0.1,0.5c-0.1,0.1-0.2,0.3-0.4,0.3c-0.2,0.1-0.4,0.1-0.6,0.1h-1.4
				v-3.4H48.6z M48.4,35.1c0.2,0,0.3,0,0.4-0.1c0.1-0.1,0.1-0.2,0.1-0.3c0-0.1,0-0.2-0.1-0.3c-0.1-0.1-0.2-0.1-0.4-0.1H48v0.9H48.4z
				 M48.6,36.6c0.2,0,0.4,0,0.5-0.1c0.1-0.1,0.2-0.2,0.2-0.4c0-0.1-0.1-0.3-0.2-0.3c-0.1-0.1-0.3-0.1-0.4-0.1H48v1H48.6z"/>
			<path class="st2" d="M51.7,34.8c0.1,0,0.2,0,0.2,0.1c0.1,0,0.2,0.1,0.3,0.2L52,35.5c-0.2-0.1-0.3-0.2-0.4-0.2
				c-0.1,0-0.2,0-0.3,0.1c-0.1,0.1-0.2,0.2-0.2,0.3C51,35.8,51,36,51,36.1v1h-0.6v-2.3H51v0.6h0c0.1-0.2,0.2-0.4,0.3-0.5
				C51.5,34.8,51.6,34.8,51.7,34.8z"/>
			<path class="st2" d="M52.8,33.8c0.1,0,0.2,0,0.2,0.1c0.1,0.1,0.1,0.1,0.1,0.2c0,0.1,0,0.2-0.1,0.2c-0.1,0.1-0.1,0.1-0.2,0.1
				c-0.1,0-0.2,0-0.2-0.1c-0.1-0.1-0.1-0.1-0.1-0.2c0-0.1,0-0.2,0.1-0.2C52.6,33.8,52.7,33.8,52.8,33.8z M53.1,34.8v2.3h-0.6v-2.3
				H53.1z"/>
			<path class="st2" d="M55,34.8c0.2,0,0.4,0.1,0.6,0.2c0.1,0.2,0.2,0.4,0.2,0.6v1.4h-0.6v-1.4c0-0.1,0-0.3-0.1-0.3
				c-0.1-0.1-0.2-0.1-0.3-0.1c-0.1,0-0.2,0-0.3,0.1c-0.1,0.1-0.2,0.1-0.3,0.3v1.5h-0.6v-2.3h0.6v0.3c0.1-0.1,0.2-0.2,0.3-0.3
				C54.7,34.8,54.9,34.8,55,34.8z"/>
			<path class="st2" d="M58.5,34.8v0.4h-0.4c0.1,0.1,0.1,0.1,0.1,0.2s0,0.1,0,0.2c0,0.2-0.1,0.3-0.2,0.5c-0.1,0.1-0.3,0.2-0.6,0.3
				c-0.2,0-0.3,0-0.3,0.1c-0.1,0-0.1,0.1-0.1,0.1c0,0,0,0.1,0.1,0.1c0.1,0,0.2,0,0.3,0.1c0.3,0.1,0.6,0.1,0.7,0.3
				c0.2,0.1,0.2,0.3,0.2,0.4c0,0.2-0.1,0.4-0.3,0.5c-0.2,0.1-0.5,0.2-0.8,0.2c-0.3,0-0.6-0.1-0.8-0.2c-0.2-0.1-0.3-0.3-0.3-0.5
				c0-0.3,0.2-0.5,0.6-0.6c-0.2-0.1-0.3-0.2-0.3-0.3c0-0.2,0.1-0.3,0.4-0.3v0c-0.2,0-0.3-0.1-0.4-0.3c-0.1-0.1-0.2-0.3-0.2-0.4
				c0-0.2,0.1-0.4,0.3-0.6c0.2-0.1,0.4-0.2,0.7-0.2H58.5z M56.7,37.5c0,0.2,0.2,0.3,0.6,0.3c0.2,0,0.3,0,0.4-0.1s0.1-0.1,0.1-0.2
				c0-0.1-0.1-0.2-0.2-0.2c-0.1-0.1-0.3-0.1-0.5-0.1c-0.2,0-0.3,0-0.4,0.1C56.8,37.4,56.7,37.4,56.7,37.5z M56.8,35.7
				c0,0.1,0,0.2,0.1,0.3c0.1,0.1,0.2,0.1,0.3,0.1c0.1,0,0.2,0,0.3-0.1c0.1-0.1,0.1-0.2,0.1-0.3c0-0.1,0-0.2-0.1-0.3
				c-0.1-0.1-0.2-0.1-0.3-0.1c-0.1,0-0.2,0-0.3,0.1C56.9,35.4,56.8,35.5,56.8,35.7z"/>
			<path class="st2" d="M60.5,33.7l0.8,1.1l0.8-1.1h0.8l-1.3,1.7v1.7H61v-1.7l-1.3-1.7H60.5z"/>
			<path class="st2" d="M63.8,34.8c0.2,0,0.4,0,0.6,0.1c0.2,0.1,0.3,0.2,0.4,0.4c0.1,0.2,0.2,0.4,0.2,0.6c0,0.2-0.1,0.4-0.2,0.6
				c-0.1,0.2-0.2,0.3-0.4,0.4c-0.2,0.1-0.4,0.2-0.6,0.2c-0.2,0-0.5-0.1-0.6-0.2c-0.2-0.1-0.3-0.2-0.4-0.4c-0.1-0.2-0.2-0.4-0.2-0.6
				c0-0.2,0.1-0.4,0.2-0.6c0.1-0.2,0.3-0.3,0.4-0.4C63.4,34.8,63.6,34.8,63.8,34.8z M63.2,36c0,0.2,0.1,0.4,0.2,0.5
				c0.1,0.1,0.3,0.2,0.4,0.2c0.2,0,0.3-0.1,0.5-0.2c0.1-0.1,0.2-0.3,0.2-0.6c0-0.2-0.1-0.4-0.2-0.5c-0.1-0.1-0.3-0.2-0.5-0.2
				c-0.2,0-0.3,0.1-0.4,0.2C63.3,35.6,63.2,35.7,63.2,36z"/>
			<path class="st2" d="M66.1,34.8v1.4c0,0.1,0,0.3,0.1,0.3c0.1,0.1,0.2,0.1,0.3,0.1c0.1,0,0.2,0,0.3-0.1c0.1-0.1,0.2-0.1,0.2-0.3
				v-1.5h0.6v2.3H67v-0.3c-0.2,0.2-0.4,0.3-0.7,0.3c-0.2,0-0.4-0.1-0.6-0.2c-0.1-0.2-0.2-0.4-0.2-0.6v-1.4H66.1z"/>
			<path class="st2" d="M69.5,34.8c0.1,0,0.2,0,0.2,0.1c0.1,0,0.2,0.1,0.3,0.2l-0.2,0.5c-0.2-0.1-0.3-0.2-0.4-0.2
				c-0.1,0-0.2,0-0.3,0.1c-0.1,0.1-0.2,0.2-0.2,0.3c-0.1,0.1-0.1,0.2-0.1,0.3v1h-0.6v-2.3h0.6v0.6h0c0.1-0.2,0.2-0.4,0.3-0.5
				C69.3,34.8,69.4,34.8,69.5,34.8z"/>
			<path class="st2" d="M73.5,33.7c0.3,0,0.7,0.1,0.9,0.2c0.3,0.1,0.5,0.4,0.7,0.6c0.2,0.3,0.2,0.6,0.2,0.9c0,0.3-0.1,0.6-0.2,0.9
				c-0.2,0.3-0.4,0.5-0.7,0.6c-0.3,0.1-0.6,0.2-1,0.2c-0.3,0-0.7-0.1-1-0.2c-0.3-0.2-0.5-0.4-0.7-0.6c-0.2-0.3-0.2-0.6-0.2-0.9
				c0-0.3,0.1-0.6,0.2-0.9c0.2-0.3,0.4-0.5,0.7-0.6C72.8,33.8,73.1,33.7,73.5,33.7z M72.3,35.4c0,0.2,0.1,0.4,0.2,0.6
				c0.1,0.2,0.2,0.3,0.4,0.4c0.2,0.1,0.4,0.1,0.6,0.1c0.3,0,0.6-0.1,0.9-0.3c0.2-0.2,0.3-0.5,0.3-0.8c0-0.2-0.1-0.4-0.2-0.6
				c-0.1-0.2-0.2-0.3-0.4-0.4c-0.2-0.1-0.4-0.1-0.6-0.1c-0.2,0-0.4,0-0.6,0.1s-0.3,0.2-0.4,0.4C72.3,35,72.3,35.2,72.3,35.4z"/>
			<path class="st2" d="M76.2,34.8l0.5,1.3l0.5-1.3h0.4l0.5,1.3l0.5-1.3h0.6l-1,2.3H78l-0.6-1.4l-0.6,1.4h-0.2l-1-2.3H76.2z"/>
			<path class="st2" d="M80.9,34.8c0.2,0,0.4,0.1,0.6,0.2c0.1,0.2,0.2,0.4,0.2,0.6v1.4h-0.6v-1.4c0-0.1,0-0.3-0.1-0.3
				c-0.1-0.1-0.2-0.1-0.3-0.1c-0.1,0-0.2,0-0.3,0.1c-0.1,0.1-0.2,0.1-0.3,0.3v1.5h-0.6v-2.3h0.6v0.3c0.1-0.1,0.2-0.2,0.3-0.3
				S80.8,34.8,80.9,34.8z"/>
			<path class="st2" d="M84.9,33.7c0.3,0,0.6,0.1,0.8,0.3c0.2,0.2,0.3,0.4,0.3,0.7c0,0.2,0,0.4-0.1,0.5s-0.2,0.3-0.4,0.3
				c0.1,0.1,0.2,0.1,0.3,0.2c0.1,0.1,0.2,0.3,0.3,0.5c0.2,0.4,0.4,0.7,0.5,0.8h-0.7c0-0.1-0.1-0.2-0.2-0.4c-0.2-0.4-0.3-0.6-0.4-0.7
				c-0.1-0.1-0.2-0.2-0.3-0.3c-0.1-0.1-0.2-0.1-0.3-0.1h-0.2v1.4h-0.7v-3.4H84.9z M84.8,35.2c0.2,0,0.3,0,0.4-0.1
				c0.1-0.1,0.1-0.2,0.1-0.3c0-0.2,0-0.3-0.1-0.3c-0.1-0.1-0.2-0.1-0.4-0.1h-0.4v0.9H84.8z"/>
			<path class="st2" d="M87.7,34.8c0.3,0,0.6,0.1,0.8,0.3c0.2,0.2,0.3,0.5,0.3,0.9v0.1h-1.6c0,0.2,0.1,0.4,0.2,0.5s0.3,0.2,0.5,0.2
				c0.1,0,0.3,0,0.4-0.1c0.1,0,0.3-0.1,0.4-0.2v0.4c-0.3,0.2-0.6,0.3-1,0.3c-0.4,0-0.6-0.1-0.9-0.3c-0.2-0.2-0.3-0.5-0.3-0.9
				c0-0.3,0.1-0.6,0.3-0.8C87.1,34.9,87.4,34.8,87.7,34.8z M88.2,35.7c0-0.2-0.1-0.3-0.1-0.4c-0.1-0.1-0.2-0.1-0.3-0.1
				c-0.1,0-0.3,0-0.4,0.1c-0.1,0.1-0.1,0.2-0.2,0.4H88.2z"/>
			<path class="st2" d="M90,34.8c0.1,0,0.2,0,0.3,0c0.1,0,0.2,0.1,0.3,0.1v0.5c-0.1-0.1-0.2-0.1-0.4-0.2c-0.1,0-0.2-0.1-0.3-0.1
				c-0.1,0-0.2,0-0.2,0c0,0-0.1,0.1-0.1,0.1c0,0,0,0.1,0.1,0.1c0,0,0.2,0.1,0.3,0.2c0.3,0.1,0.4,0.3,0.5,0.4
				c0.1,0.1,0.2,0.2,0.2,0.4c0,0.2-0.1,0.4-0.2,0.5c-0.2,0.1-0.4,0.2-0.6,0.2c-0.2,0-0.3,0-0.4-0.1c-0.1,0-0.3-0.1-0.3-0.1v-0.5
				c0.3,0.2,0.5,0.2,0.7,0.2c0.1,0,0.2,0,0.2-0.1c0.1,0,0.1-0.1,0.1-0.1c0,0,0-0.1,0-0.1s-0.1-0.1-0.1-0.1c0,0-0.2-0.1-0.4-0.2
				c-0.2-0.1-0.3-0.2-0.4-0.3c-0.1-0.1-0.1-0.2-0.1-0.4c0-0.2,0.1-0.4,0.2-0.5C89.5,34.9,89.7,34.8,90,34.8z"/>
			<path class="st2" d="M91.8,34.8v1.4c0,0.1,0,0.3,0.1,0.3c0.1,0.1,0.2,0.1,0.3,0.1c0.1,0,0.2,0,0.3-0.1c0.1-0.1,0.2-0.1,0.2-0.3
				v-1.5h0.6v2.3h-0.6v-0.3c-0.2,0.2-0.4,0.3-0.7,0.3c-0.2,0-0.4-0.1-0.6-0.2c-0.1-0.2-0.2-0.4-0.2-0.6v-1.4H91.8z"/>
			<path class="st2" d="M94.5,33.7v3.4H94v-3.4H94.5z"/>
			<path class="st2" d="M95.8,34.2L95.8,34.2l0,0.6h0.8v0.4h-0.8v1c0,0.1,0,0.2,0.1,0.2c0.1,0.1,0.1,0.1,0.3,0.1
				c0.1,0,0.3,0,0.5-0.1V37c-0.2,0.1-0.4,0.1-0.6,0.1c-0.3,0-0.5-0.1-0.6-0.2c-0.1-0.1-0.2-0.3-0.2-0.6v-1.1h-0.4v-0.1L95.8,34.2z"
				/>
			<path class="st2" d="M97.7,34.8c0.1,0,0.2,0,0.3,0c0.1,0,0.2,0.1,0.3,0.1v0.5c-0.1-0.1-0.2-0.1-0.4-0.2c-0.1,0-0.2-0.1-0.3-0.1
				c-0.1,0-0.2,0-0.2,0c0,0-0.1,0.1-0.1,0.1c0,0,0,0.1,0.1,0.1s0.2,0.1,0.3,0.2c0.3,0.1,0.4,0.3,0.5,0.4c0.1,0.1,0.2,0.2,0.2,0.4
				c0,0.2-0.1,0.4-0.2,0.5c-0.2,0.1-0.4,0.2-0.6,0.2c-0.2,0-0.3,0-0.4-0.1C97.1,37,97,37,96.9,37v-0.5c0.3,0.2,0.5,0.2,0.7,0.2
				c0.1,0,0.2,0,0.2-0.1c0.1,0,0.1-0.1,0.1-0.1c0,0,0-0.1,0-0.1c0,0-0.1-0.1-0.1-0.1c0,0-0.2-0.1-0.4-0.2c-0.2-0.1-0.3-0.2-0.4-0.3
				c-0.1-0.1-0.1-0.2-0.1-0.4c0-0.2,0.1-0.4,0.2-0.5C97.3,34.9,97.5,34.8,97.7,34.8z"/>
		</g>
	</g>
</g>
</svg>
