<?xml version="1.0" encoding="utf-8"?>
<!-- Generator: Adobe Illustrator 26.1.0, SVG Export Plug-In . SVG Version: 6.00 Build 0)  -->
<svg version="1.1" id="Layer_1" xmlns="http://www.w3.org/2000/svg" xmlns:xlink="http://www.w3.org/1999/xlink" x="0px" y="0px"
	 viewBox="0 0 65.1 65.1" style="enable-background:new 0 0 65.1 65.1;" xml:space="preserve">
<style type="text/css">
	.st0{fill:none;stroke:#FFFFFF;stroke-width:1.6;stroke-miterlimit:10;}
	.st1{fill:#FFFFFF;}
</style>
<g>
	<circle class="st0" cx="32.7" cy="32" r="30.5"/>
	<g>
		<g>
			<path class="st1" d="M28,24.3c0.1-0.3,0.4-0.7,0.7-0.9l0.6-0.3c0.3-0.2,0.5-0.6,0.4-0.9l-0.2-0.8c-0.1-0.3-0.5-0.6-0.8-0.6
				l-0.7,0c-0.4,0-0.8-0.2-1-0.4c0,0,0,0-0.2-0.2C26.6,20,26.6,20,26.6,20c-0.3-0.2-0.5-0.6-0.4-1l0-0.7c0-0.4-0.2-0.7-0.6-0.8
				l-0.8-0.2c-0.3-0.1-0.7,0.1-0.9,0.4l-0.3,0.6C23.4,18.7,23,19,22.7,19c-0.3,0.1-1.4,0.2-1.7,0l-0.6-0.4c-0.3-0.2-0.7-0.1-1,0.1
				l-0.6,0.6c-0.2,0.2-0.3,0.7-0.1,1l0.4,0.6c0.2,0.3,0.3,0.8,0.2,1.1c-0.1,0.3-0.5,1.3-0.8,1.4l-0.6,0.3c-0.3,0.2-0.5,0.6-0.4,0.9
				l0.2,0.8c0.1,0.3,0.5,0.6,0.8,0.6l0.7,0c0.4,0,0.8,0.2,1,0.4c0,0,0,0,0.2,0.2c0.2,0.2,0.2,0.2,0.2,0.2c0.3,0.2,0.5,0.6,0.4,1
				l0,0.7c0,0.4,0.2,0.7,0.6,0.8l0.8,0.2c0.3,0.1,0.7-0.1,0.9-0.4l0.3-0.6c0.2-0.3,0.5-0.6,0.9-0.7c0.3-0.1,1.4-0.2,1.7,0l0.6,0.4
				c0.3,0.2,0.7,0.1,1-0.1l0.6-0.6c0.2-0.2,0.3-0.7,0.1-1L28,26C27.8,25.7,28,24.6,28,24.3z M24.9,24.7c-0.7,0.7-1.9,0.7-2.6,0
				c-0.7-0.7-0.7-1.9,0-2.6c0.7-0.7,1.9-0.7,2.6,0C25.6,22.9,25.6,24,24.9,24.7z"/>
		</g>
	</g>
	<g>
		<g>
			<path class="st1" d="M48.4,38c0-0.2,0.2-0.5,0.5-0.6l0.4-0.2c0.2-0.1,0.4-0.4,0.3-0.6l-0.2-0.6c-0.1-0.2-0.3-0.4-0.6-0.4l-0.5,0
				c-0.2,0-0.6-0.1-0.7-0.3c0,0,0,0-0.2-0.2C47.4,35,47.4,35,47.4,35c-0.2-0.1-0.3-0.4-0.3-0.7l0-0.5c0-0.2-0.2-0.5-0.4-0.6
				l-0.6-0.2c-0.2-0.1-0.5,0.1-0.6,0.3l-0.2,0.4c-0.1,0.2-0.4,0.4-0.6,0.5c-0.2,0-1,0.1-1.2,0L43.1,34c-0.2-0.1-0.5-0.1-0.7,0.1
				L42,34.5c-0.2,0.2-0.2,0.5-0.1,0.7l0.3,0.4c0.1,0.2,0.2,0.6,0.1,0.8c-0.1,0.2-0.4,0.9-0.6,1l-0.4,0.2C41.1,37.7,41,38,41,38.2
				l0.2,0.6c0.1,0.2,0.3,0.4,0.6,0.4l0.5,0c0.2,0,0.6,0.1,0.7,0.3c0,0,0,0,0.2,0.2c0.2,0.2,0.2,0.2,0.2,0.2c0.2,0.1,0.3,0.4,0.3,0.7
				l0,0.5c0,0.2,0.2,0.5,0.4,0.6l0.6,0.2c0.2,0.1,0.5-0.1,0.6-0.3l0.2-0.4c0.1-0.2,0.4-0.4,0.6-0.5s1-0.1,1.2,0l0.4,0.3
				c0.2,0.1,0.5,0.1,0.7-0.1l0.4-0.4c0.2-0.2,0.2-0.5,0.1-0.7l-0.3-0.4C48.3,38.9,48.4,38.2,48.4,38z M46.2,38.3
				c-0.5,0.5-1.3,0.5-1.8,0c-0.5-0.5-0.5-1.3,0-1.8c0.5-0.5,1.3-0.5,1.8,0C46.7,37,46.7,37.8,46.2,38.3z"/>
		</g>
	</g>
	<g>
		<g>
			<path class="st1" d="M34,41c0.3-0.1,0.5-0.3,0.5-0.6v-0.6c0-0.3-0.2-0.5-0.5-0.6l-0.5-0.1c-0.3,0-0.5-0.3-0.5-0.5
				c0-0.2,0-1,0.2-1.2l0.4-0.3c0.2-0.1,0.3-0.5,0.2-0.7l-0.2-0.6c-0.1-0.2-0.4-0.4-0.6-0.3l-0.5,0.1c-0.3,0.1-0.6-0.1-0.7-0.3
				s-0.4-0.9-0.3-1.1l0.3-0.4c0.1-0.2,0.1-0.5-0.1-0.7l-0.4-0.4c-0.2-0.2-0.5-0.2-0.7-0.1L30,32.9c-0.2,0.1-0.6,0.1-0.8,0
				s-0.7-0.7-0.7-0.9l0.1-0.5c0-0.3-0.1-0.5-0.3-0.6l-0.6-0.2c-0.2-0.1-0.5,0-0.7,0.2l-0.3,0.5c-0.1,0.2-0.5,0.3-0.7,0.3
				c-0.2-0.1-0.9-0.4-1-0.6l-0.1-0.5c-0.1-0.3-0.3-0.5-0.6-0.5h-0.6c-0.3,0-0.5,0.2-0.6,0.5l-0.1,0.5c0,0.3-0.3,0.5-0.5,0.5
				c-0.2,0-1,0-1.2-0.2l-0.3-0.4c-0.1-0.2-0.5-0.3-0.7-0.2l-0.6,0.2c-0.2,0.1-0.4,0.4-0.3,0.6l0.1,0.5c0.1,0.3-0.1,0.6-0.3,0.7
				c-0.2,0.1-0.9,0.4-1.1,0.3l-0.4-0.3c-0.2-0.1-0.5-0.1-0.7,0.1l-0.4,0.4c-0.2,0.2-0.2,0.5-0.1,0.7l0.3,0.4c0.1,0.2,0.1,0.6,0,0.8
				c-0.1,0.2-0.7,0.7-0.9,0.7l-0.5-0.1c-0.3,0-0.5,0.1-0.6,0.3l-0.2,0.6c-0.1,0.2,0,0.5,0.2,0.7l0.5,0.3c0.2,0.1,0.3,0.5,0.3,0.7
				c-0.1,0.2-0.4,0.9-0.6,1l-0.5,0.1c-0.3,0.1-0.5,0.3-0.5,0.6v0.6c0,0.3,0.2,0.5,0.5,0.6l0.5,0.1c0.3,0,0.5,0.3,0.5,0.5
				c0,0.2,0,1-0.2,1.2l-0.4,0.3c-0.2,0.1-0.3,0.5-0.2,0.7l0.2,0.6c0.1,0.2,0.4,0.4,0.6,0.3l0.5-0.1c0.3-0.1,0.6,0.1,0.7,0.3
				s0.4,0.9,0.3,1.1l-0.3,0.4c-0.1,0.2-0.1,0.5,0.1,0.7l0.4,0.4c0.2,0.2,0.5,0.2,0.7,0.1l0.4-0.3c0.2-0.1,0.6-0.1,0.8,0
				c0.2,0.1,0.7,0.7,0.7,0.9L19.6,49c0,0.3,0.1,0.5,0.3,0.6l0.6,0.2c0.2,0.1,0.5,0,0.7-0.2l0.3-0.5c0.1-0.2,0.5-0.3,0.7-0.3
				c0.2,0.1,0.9,0.4,1,0.6l0.1,0.5c0.1,0.3,0.3,0.5,0.6,0.5h0.6c0.3,0,0.5-0.2,0.6-0.5l0.1-0.5c0-0.3,0.3-0.5,0.5-0.5
				c0.2,0,1,0,1.2,0.2l0.3,0.4c0.1,0.2,0.5,0.3,0.7,0.2l0.6-0.2c0.2-0.1,0.4-0.4,0.3-0.6l-0.1-0.5c-0.1-0.3,0.1-0.6,0.3-0.7
				s0.9-0.4,1.1-0.3l0.4,0.3c0.2,0.1,0.5,0.1,0.7-0.1l0.4-0.4c0.2-0.2,0.2-0.5,0.1-0.7L31.4,46c-0.1-0.2-0.1-0.6,0-0.8
				c0.1-0.2,0.7-0.7,0.9-0.7l0.5,0.1c0.3,0,0.5-0.1,0.6-0.3l0.2-0.6c0.1-0.2,0-0.5-0.2-0.7l-0.5-0.3c-0.2-0.1-0.3-0.5-0.3-0.7
				s0.4-0.9,0.6-1L34,41z M26.3,42.3c-1.2,1.2-3.1,1.2-4.3,0c-1.2-1.2-1.2-3.1,0-4.3c1.2-1.2,3.1-1.2,4.3,0
				C27.4,39.2,27.4,41.1,26.3,42.3z"/>
		</g>
	</g>
	<g>
		<g>
			<path class="st1" d="M49.1,25.4c0-0.2,0.3-0.5,0.5-0.5l0.5-0.1c0.3-0.1,0.5-0.3,0.5-0.6l0-0.6c0-0.3-0.2-0.5-0.5-0.6l-0.5-0.1
				c-0.3,0-0.5-0.3-0.5-0.5c0-0.2,0-1,0.2-1.2l0.4-0.3c0.2-0.1,0.3-0.5,0.2-0.7l-0.2-0.6c-0.1-0.2-0.4-0.4-0.6-0.3l-0.5,0.1
				c-0.3,0.1-0.6-0.1-0.7-0.3c-0.1-0.2-0.4-0.9-0.3-1.1l0.3-0.4c0.1-0.2,0.1-0.5-0.1-0.7l-0.4-0.4c-0.2-0.2-0.5-0.2-0.7-0.1
				l-0.4,0.3c-0.2,0.1-0.6,0.1-0.8,0s-0.7-0.7-0.7-0.9l0.1-0.5c0-0.3-0.1-0.5-0.3-0.6l-0.6-0.2c-0.2-0.1-0.5,0-0.7,0.2L42.9,15
				c-0.1,0.2-0.5,0.3-0.7,0.3c-0.2-0.1-0.9-0.4-1-0.6l-0.1-0.5c-0.1-0.3-0.3-0.5-0.6-0.5H40c-0.3,0-0.5,0.2-0.6,0.5l-0.1,0.5
				c0,0.3-0.3,0.5-0.5,0.5c-0.2,0-1,0-1.2-0.2l-0.3-0.4c-0.1-0.2-0.5-0.3-0.7-0.2L36,14.6c-0.2,0.1-0.4,0.4-0.3,0.6l0.1,0.5
				c0.1,0.3-0.1,0.6-0.3,0.7c-0.2,0.1-0.9,0.4-1.1,0.3l-0.4-0.3c-0.2-0.1-0.5-0.1-0.7,0.1l-0.4,0.4c-0.2,0.2-0.2,0.5-0.1,0.7
				l0.3,0.4c0.1,0.2,0.1,0.6,0,0.8s-0.7,0.7-0.9,0.7l-0.5-0.1c-0.3,0-0.5,0.1-0.6,0.3l-0.2,0.6c-0.1,0.2,0,0.5,0.2,0.7l0.5,0.3
				c0.2,0.1,0.3,0.5,0.3,0.7c-0.1,0.2-0.4,0.9-0.6,1l-0.5,0.1c-0.3,0.1-0.5,0.3-0.5,0.6v0.6c0,0.3,0.2,0.5,0.5,0.6L31,25
				c0.3,0,0.5,0.3,0.5,0.5c0,0.2,0,1-0.2,1.2L30.9,27c-0.2,0.1-0.3,0.5-0.2,0.7l0.2,0.6c0.1,0.2,0.4,0.4,0.6,0.3l0.5-0.1
				c0.3-0.1,0.6,0.1,0.7,0.3c0.1,0.2,0.4,0.9,0.3,1.1l-0.3,0.4c-0.1,0.2-0.1,0.5,0.1,0.7l0.4,0.4c0.2,0.2,0.5,0.2,0.7,0.1l0.4-0.3
				c0.2-0.1,0.6-0.1,0.8,0c0.2,0.1,0.7,0.7,0.7,0.9l-0.1,0.5c0,0.3,0.1,0.5,0.3,0.6l0.6,0.2c0.2,0.1,0.5,0,0.7-0.2l0.3-0.5
				c0.1-0.2,0.5-0.3,0.7-0.3c0.2,0.1,0.9,0.4,1,0.6l0.1,0.5c0.1,0.3,0.3,0.5,0.6,0.5h0.6c0.3,0,0.5-0.2,0.6-0.5l0.1-0.5
				c0-0.3,0.3-0.5,0.5-0.5c0.2,0,1,0,1.2,0.2l0.3,0.4c0.1,0.2,0.5,0.3,0.7,0.2l0.6-0.2c0.2-0.1,0.4-0.4,0.3-0.6l-0.1-0.5
				c-0.1-0.3,0.1-0.6,0.3-0.7c0.2-0.1,0.9-0.4,1.1-0.3l0.4,0.3c0.2,0.1,0.5,0.1,0.7-0.1l0.4-0.4c0.2-0.2,0.2-0.5,0.1-0.7l-0.3-0.4
				c-0.1-0.2-0.1-0.6,0-0.8s0.7-0.7,0.9-0.7l0.5,0.1c0.3,0,0.5-0.1,0.6-0.3l0.2-0.6c0.1-0.2,0-0.5-0.2-0.7l-0.5-0.3
				C49.1,26.4,49.1,25.7,49.1,25.4z M42.5,26.1c-1.2,1.2-3.1,1.2-4.3,0c-1.2-1.2-1.2-3.1,0-4.3c1.2-1.2,3.1-1.2,4.3,0
				C43.7,23,43.7,24.9,42.5,26.1z"/>
		</g>
	</g>
</g>
</svg>
