<svg xmlns="http://www.w3.org/2000/svg" version="1.1" id="Layer_1" x="0px" y="0px" viewBox="0 0 310 300" xml:space="preserve" sodipodi:docname="cfde_kc_logo_c.svg" width="310" height="300" inkscape:version="1.3 (0e150ed, 2023-07-21)" xmlns:inkscape="http://www.inkscape.org/namespaces/inkscape" xmlns:sodipodi="http://sodipodi.sourceforge.net/DTD/sodipodi-0.dtd" xmlns:svg="http://www.w3.org/2000/svg"><metadata><rdf:RDF xmlns:rdf="http://www.w3.org/1999/02/22-rdf-syntax-ns#" xmlns:dc="http://purl.org/dc/elements/1.1/"><rdf:Description><dc:creator>RealFaviconGenerator</dc:creator><dc:source>https://realfavicongenerator.net</dc:source></rdf:Description></rdf:RDF></metadata><defs id="defs16"></defs><sodipodi:namedview id="namedview16" pagecolor="#ffffff" bordercolor="#000000" borderopacity="0.25" inkscape:showpageshadow="2" inkscape:pageopacity="0.0" inkscape:pagecheckerboard="0" inkscape:deskcolor="#d1d1d1" showguides="true" inkscape:zoom="0.65452424" inkscape:cx="123.75401" inkscape:cy="191.74233" inkscape:window-width="1456" inkscape:window-height="916" inkscape:window-x="0" inkscape:window-y="38" inkscape:window-maximized="0" inkscape:current-layer="Layer_1"></sodipodi:namedview><style type="text/css" id="style1">
	.st0{fill:#D1D3D4;}
	.st1{fill:#F26722;}
	.st2{fill:#34679A;}
	.st3{enable-background:new    ;}
</style><circle id="circle359" class="st0" cx="91.186768" cy="35.899998" r="8.6999998"></circle><circle id="circle361" class="st0" cx="152.38678" cy="111.2" r="8.6999998"></circle><circle id="circle362" class="st0" cx="213.68677" cy="35.899998" r="8.6999998"></circle><circle id="circle364" class="st0" cx="29.986755" cy="261.90002" r="8.6999998"></circle><circle id="circle365" class="st0" cx="91.186768" cy="186.59999" r="8.6999998"></circle><circle id="circle366" class="st0" cx="91.186768" cy="261.90002" r="8.6999998"></circle><circle id="circle368" class="st0" cx="152.38678" cy="261.90002" r="8.6999998"></circle><circle id="circle369" class="st0" cx="213.78677" cy="186.59999" r="8.6999998"></circle><circle id="circle371" class="st0" cx="275.08676" cy="35.899998" r="8.6999998"></circle><circle id="circle372" class="st0" cx="275.08676" cy="186.59999" r="8.6999998"></circle><path class="st1" d="m 273.78677,253.5 c -92.7,14.6 -110.5,-55.9 -112.7,-66.9 2.2,-11 20.3,-81.2 112.7,-67 l 2.6,-16.8 c -59.7,-9.2 -92.6,13.6 -109.7,34.4 -7,8.6 -12,17.4 -15.4,25.2 -13.7,-25.6 -32.9,-42.5 -44.9,-51.3 14.9,-11.2 40.9,-35 54,-72.5 l -16.1,-5.6 c -16.4,46.9 -57.000001,70.5 -57.400001,70.8 l 4.2,7.4 -4.1,7.4 c 0.4,0.2 41.400001,23.4 57.200001,70 1.1,5.9 8.7,41.3 40.2,64.3 17.8,13 39.6,19.5 65.2,19.5 8.6,0 17.5,-0.7 26.9,-2.2 z" id="path1"></path><circle id="circle376" class="st2" cx="86.986755" cy="111.2" r="22.200001"></circle><circle id="circle377" class="st2" cx="152.38678" cy="35.899998" r="22.1"></circle><circle id="circle378" class="st2" cx="152.38678" cy="186.59999" r="22.1"></circle><circle id="circle379" class="st2" cx="275.08676" cy="111.2" r="22.200001"></circle><circle id="circle380" class="st2" cx="275.08676" cy="260.90002" r="22.200001" style="display:inline"></circle><g id="g383" transform="matrix(0.81930478,0,0,0.81930478,110.80657,1084.975)" style="display:inline">
	<path id="path380" class="st2" d="m -99,-1306.1 c -10.5,2.8 -17.5,10.8 -19,21.6 -2.2,15.6 7.4,28.4 22.9,30.7 7.9,1.2 17.3,-1.2 22.8,-5.8 l 1.8,-1.5 -5.2,-6.2 c -2.8,-3.4 -5.4,-6.3 -5.7,-6.3 -0.2,-0.1 -1.3,0.6 -2.3,1.5 -3.3,2.8 -8.8,2.8 -12.2,0 -3.8,-3.3 -4.8,-8.5 -2.3,-13.2 2.7,-5.4 10.1,-7.1 14.5,-3.3 1,0.8 1.9,1.5 2.2,1.5 0.2,0 2.7,-2.8 5.6,-6.3 l 5.3,-6.3 -1.7,-1.4 c -2.3,-1.9 -6.3,-3.8 -10.2,-4.8 -4,-1.2 -12.8,-1.2 -16.5,-0.2 z"></path>
	<path id="path381" class="st2" d="m -114.7,-1192.9 h 17.8 v -16.6 h 24.2 v -14.2 h -24.2 v -7.4 h 24.2 v -15.4 h -42.1 z"></path>
	<path id="path382" class="st2" d="m -114.7,-1131.6 h 10 c 12.1,0 16.7,-0.7 21.8,-3.1 4.7,-2.3 9.4,-7.3 11.4,-12.1 1.2,-3.1 1.4,-4.6 1.4,-12.4 0,-8.4 -0.1,-9.1 -1.7,-12.4 -3.1,-6.8 -8.8,-11.1 -16.4,-12.7 -1.8,-0.4 -8.5,-0.7 -14.9,-0.7 h -11.7 z m 23.4,-36.8 c 4.2,2.2 5.2,4 5.2,9.7 0,3.9 -0.2,5.2 -1.3,6.6 -1.9,2.5 -4.7,3.9 -8.6,4.3 l -3.4,0.4 v -11.2 -11.1 h 2.6 c 1.7,-0.1 3.9,0.5 5.5,1.3 z"></path>
	<path id="path383" class="st2" d="m -114.7,-1069.6 h 42.1 v -15.4 h -24.8 v -5.4 h 24.8 v -11.7 h -24.8 v -5.7 h 24.8 v -15.4 h -42.1 z"></path>
</g></svg>