<?xml version="1.0" encoding="utf-8"?>
<!-- Generator: Adobe Illustrator 27.4.1, SVG Export Plug-In . SVG Version: 6.00 Build 0)  -->
<svg version="1.1" id="Layer_1" xmlns="http://www.w3.org/2000/svg" xmlns:xlink="http://www.w3.org/1999/xlink" x="0px" y="0px"
	 viewBox="0 0 32 32" style="enable-background:new 0 0 32 32;" xml:space="preserve">
<style type="text/css">
	.st0{fill:#6DCEF5;}
	.st1{fill:#00BCF1;}
	.st2{fill:#F69451;}
	.st3{fill:#F4824E;}
	.st4{fill:#9C97C9;}
	.st5{fill:#B6A9A6;}
	.st6{fill:#FFDD00;}
	.st7{fill:#FBAE17;}
	.st8{fill:#A5CD39;}
	.st9{fill:#98C93C;}
	.st10{fill:#B1A335;}
	.st11{fill:#BED630;}
	.st12{fill:#FFFFFF;}
</style>
<g>
	<g>
		<polygon class="st0" points="0,16.4 0,32 0.1,32 3.8,14.5 		"/>
		<polygon class="st1" points="17.8,22.7 20.7,18.9 11.5,10.5 6.9,12.9 		"/>
		<polygon class="st2" points="0,0 0,0 0,0 		"/>
		<polygon class="st3" points="11.5,10.5 20.7,18.9 32,4.3 32,0 		"/>
		<polygon class="st4" points="4.6,10.8 6.9,12.9 11.5,10.5 0,0 0,16.4 3.8,14.5 		"/>
		<polygon class="st5" points="32,0 0,0 0,0 11.5,10.5 		"/>
		<polygon class="st6" points="17.8,22.7 28.1,32 32,32 32,29.3 20.7,18.9 		"/>
		<polygon class="st7" points="32,29.3 32,4.3 20.7,18.9 		"/>
		<polygon class="st8" points="0.1,32 0.1,32 28.1,32 28.1,32 10.6,32 		"/>
		<polygon class="st9" points="17.8,22.7 6.9,12.9 3.8,14.5 0.1,32 10.6,32 		"/>
		<polygon class="st10" points="3.8,14.5 6.9,12.9 4.6,10.8 		"/>
		<polygon class="st11" points="10.6,32 28.1,32 17.8,22.7 		"/>
	</g>
	<g>
		<path class="st12" d="M16,6.3c-1.1,0-2,0.9-2,2c0,0.3,0.1,0.6,0.2,0.9L8.5,19c-0.4-0.1-0.9-0.2-1.4-0.2c-2.7,0-4.9,2.2-4.9,4.9
			c0,2.7,2.2,4.9,4.9,4.9c1.4,0,2.6-0.6,3.5-1.5L9.3,26c-0.6,0.6-1.4,0.9-2.2,0.9c-1.7,0-3.2-1.4-3.2-3.2c0-1.7,1.4-3.2,3.2-3.2
			c1,0,1.9,0.5,2.5,1.2l0.9-1.6l5.7-9.8c1-0.1,1.8-1,1.8-2C18,7.2,17.1,6.3,16,6.3z"/>
		<path class="st12" d="M25.1,21.7l-5.7-9.8c1-0.9,1.6-2.2,1.6-3.6c0-2.7-2.2-4.9-4.9-4.9c-2.7,0-4.9,2.2-4.9,4.9
			c0,0.4,0.1,0.9,0.2,1.3L13,9.1c-0.1-0.3-0.1-0.5-0.1-0.8c0-1.7,1.4-3.2,3.2-3.2c1.7,0,3.2,1.4,3.2,3.2c0,1.6-1.2,2.9-2.7,3.1
			l0.9,1.6l5.7,9.9c-0.1,0.3-0.2,0.6-0.2,0.9c0,1.1,0.9,2,2,2c1.1,0,2-0.9,2-2C26.9,22.7,26.1,21.8,25.1,21.7z"/>
		<path class="st12" d="M26.2,19l-0.5,1.7c1.3,0.4,2.3,1.6,2.3,3c0,1.7-1.4,3.2-3.2,3.2c-1.7,0-3.2-1.4-3.2-3.2
			c0-0.4,0.1-0.8,0.2-1.1h-1.8H8.8c-0.4-0.5-1-0.9-1.7-0.9c-1.1,0-2,0.9-2,2c0,1.1,0.9,2,2,2c0.7,0,1.3-0.3,1.7-0.9h11.4
			c0.5,2.2,2.5,3.8,4.8,3.8c2.7,0,4.9-2.2,4.9-4.9C29.8,21.4,28.3,19.5,26.2,19z"/>
	</g>
</g>
</svg>
