<?xml version="1.0" encoding="utf-8"?>
<!-- Generator: Adobe Illustrator 27.4.1, SVG Export Plug-In . SVG Version: 6.00 Build 0)  -->
<svg version="1.1" id="Layer_1" xmlns="http://www.w3.org/2000/svg" xmlns:xlink="http://www.w3.org/1999/xlink" x="0px" y="0px"
	 viewBox="0 0 32 32" style="enable-background:new 0 0 32 32;" xml:space="preserve">
<style type="text/css">
	.st0{fill:#00A983;}
	.st1{fill:none;stroke:#FFFFFF;stroke-width:0.8851;stroke-linejoin:round;stroke-miterlimit:10;}
	.st2{fill:none;stroke:#FFFFFF;stroke-width:0.5532;stroke-linecap:round;stroke-linejoin:round;stroke-miterlimit:10;}
</style>
<circle class="st0" cx="16" cy="16" r="15"/>
<g>
	<path class="st1" d="M15,1v12.4c0,5.1-2.8,9.6-6.9,11.9l0,0c-1.5-1.8-2.4-4.1-2.4-6.6C5.7,13,10.3,8.4,16,8.4S26.2,13,26.2,18.7
		c0,2.5-0.9,4.8-2.4,6.6l0,0c-4.1-2.4-6.9-6.8-6.9-11.9V1h0"/>
	<g>
		<line class="st2" x1="14.5" y1="9.1" x2="8.5" y2="21.6"/>
		<line class="st2" x1="9.3" y1="13.5" x2="12.4" y2="13.2"/>
		<line class="st2" x1="7.2" y1="18.6" x2="10" y2="18.3"/>
		<line class="st2" x1="11.2" y1="16.3" x2="12.9" y2="17.7"/>
	</g>
	<g>
		<line class="st2" x1="17.5" y1="9.1" x2="23.5" y2="21.6"/>
		<line class="st2" x1="22.7" y1="13.5" x2="19.6" y2="13.2"/>
		<line class="st2" x1="24.8" y1="18.6" x2="22" y2="18.3"/>
		<line class="st2" x1="20.8" y1="16.3" x2="19.1" y2="17.7"/>
	</g>
</g>
</svg>
