<?xml version="1.0" encoding="utf-8"?>
<!-- Generator: Adobe Illustrator 27.4.1, SVG Export Plug-In . SVG Version: 6.00 Build 0)  -->
<svg version="1.1" id="Layer_1" xmlns="http://www.w3.org/2000/svg" xmlns:xlink="http://www.w3.org/1999/xlink" x="0px" y="0px"
	 viewBox="0 0 32 32" style="enable-background:new 0 0 32 32;" xml:space="preserve">
<style type="text/css">
	.st0{fill:none;stroke:#F28CB9;stroke-width:2;stroke-miterlimit:10;}
	.st1{fill:none;stroke:#FFCA05;stroke-width:2;stroke-miterlimit:10;}
	.st2{fill:none;stroke:#F28CB9;stroke-width:2;stroke-linejoin:round;stroke-miterlimit:10;}
	.st3{fill:none;stroke:#F28CB9;stroke-width:2;stroke-linecap:round;stroke-miterlimit:10;}
	.st4{fill:none;stroke:#FFCA05;stroke-width:2;stroke-linejoin:round;stroke-miterlimit:10;}
</style>
<g>
	<path class="st0" d="M30.5,12.3C28.9,5.8,23,1,16,1S3.2,5.8,1.5,12.3"/>
	<path class="st1" d="M31,16c0-1.3-0.2-2.5-0.5-3.7c-1.8,0.9-3.3,2.2-4.5,3.7l0,0"/>
	<path class="st2" d="M10.4,16c0-1.9,1-3.6,2.4-4.6C10,12.1,7.6,13.8,5.9,16l0,0"/>
	<path class="st3" d="M19.2,11.4c-1-0.3-2.1-0.4-3.3-0.4c-1.1,0-2.2,0.2-3.3,0.4"/>
	<path class="st1" d="M1.5,19.7C3.2,26.2,9,31,16,31s12.9-4.8,14.5-11.3"/>
	<path class="st0" d="M1,16L1,16c0,1.3,0.2,2.5,0.5,3.7c1.8-0.9,3.3-2.2,4.5-3.7l0,0l0,0"/>
	<path class="st4" d="M5.9,16L5.9,16L5.9,16c1.7,2.2,4.1,3.9,6.8,4.6c-1.4-1-2.4-2.7-2.4-4.6l0,0"/>
	<path class="st4" d="M21.6,16L21.6,16c0,1.9-1,3.6-2.4,4.6c2.7-0.7,5.1-2.4,6.8-4.6l0,0l0,0"/>
	<path class="st1" d="M12.8,20.6c1,0.3,2.1,0.4,3.3,0.4c1.1,0,2.2-0.2,3.3-0.4"/>
	<line class="st0" x1="16" y1="11" x2="16" y2="13.6"/>
	<line class="st1" x1="16" y1="18.4" x2="16" y2="21.1"/>
	<path class="st1" d="M18.4,16c0,1.3-1.1,2.4-2.4,2.4s-2.4-1.1-2.4-2.4"/>
	<path class="st0" d="M13.6,16c0-1.3,1.1-2.4,2.4-2.4s2.4,1.1,2.4,2.4"/>
	<path class="st1" d="M5.9,16C5.9,16,5.9,16,5.9,16c-1.2-1.6-2.7-2.8-4.5-3.7C1.2,13.5,1,14.7,1,16"/>
	<path class="st0" d="M26.1,16L26.1,16L26.1,16c1.2,1.6,2.7,2.8,4.5,3.7c0.3-1.2,0.5-2.4,0.5-3.7l0,0"/>
	<path class="st2" d="M26.1,16C26.1,16,26.1,16,26.1,16c-1.7-2.2-4.1-3.8-6.8-4.6c1.4,1,2.4,2.7,2.4,4.6"/>
</g>
</svg>
