<?xml version="1.0" encoding="utf-8"?>
<!-- Generator: Adobe Illustrator 27.4.1, SVG Export Plug-In . SVG Version: 6.00 Build 0)  -->
<svg version="1.1" id="Layer_1" xmlns="http://www.w3.org/2000/svg" xmlns:xlink="http://www.w3.org/1999/xlink" x="0px" y="0px"
	 viewBox="0 0 32 32" style="enable-background:new 0 0 32 32;" xml:space="preserve">
<style type="text/css">
	.st0{fill:#F7941D;}
	.st1{fill:#FFFFFF;}
</style>
<g>
	<circle class="st0" cx="16" cy="16" r="16"/>
	<path class="st1" d="M25.9,11c-2.3-2.3-5.8-2.3-8.1,0L16,12.8L14.2,11C12,8.7,8.4,8.7,6.1,11s-2.3,5.8,0,8.1l5.8,5.8l0,0
		c1.1,1.1,2.6,1.6,4,1.6c1.5,0,2.9-0.5,4-1.6l0,0l5.8-5.8C28,16.8,28,13.1,25.9,11z M19.6,23.3c-1.6,0-2.7-1.3-2.7-2.7
		c0-1.5,1.3-2.7,2.7-2.7s2.7,1.3,2.7,2.7C22.3,22,21.2,23.3,19.6,23.3z"/>
</g>
</svg>
