<?xml version="1.0" encoding="UTF-8" standalone="no"?>
<!-- Created with Inkscape (http://www.inkscape.org/) -->

<svg
   width="86.494011mm"
   height="95.146973mm"
   viewBox="0 0 86.494011 95.146973"
   version="1.1"
   id="svg1"
   xml:space="preserve"
   inkscape:version="1.3 (0e150ed, 2023-07-21)"
   sodipodi:docname="KPN_landing_page_icons.svg"
   xmlns:inkscape="http://www.inkscape.org/namespaces/inkscape"
   xmlns:sodipodi="http://sodipodi.sourceforge.net/DTD/sodipodi-0.dtd"
   xmlns="http://www.w3.org/2000/svg"
   xmlns:svg="http://www.w3.org/2000/svg"><sodipodi:namedview
     id="namedview1"
     pagecolor="#747474"
     bordercolor="#000000"
     borderopacity="0.25"
     inkscape:showpageshadow="2"
     inkscape:pageopacity="0.0"
     inkscape:pagecheckerboard="0"
     inkscape:deskcolor="#d1d1d1"
     inkscape:document-units="mm"
     showguides="true"
     inkscape:zoom="0.40983959"
     inkscape:cx="2489.9986"
     inkscape:cy="884.49239"
     inkscape:window-width="1456"
     inkscape:window-height="916"
     inkscape:window-x="0"
     inkscape:window-y="38"
     inkscape:window-maximized="0"
     inkscape:current-layer="g339" /><defs
     id="defs1" /><g
     inkscape:groupmode="layer"
     id="layer7"
     inkscape:label="Layer 6"
     sodipodi:insensitive="true"
     style="display:none"
     transform="translate(-594.85834,-103.64503)"><rect
       style="display:none;fill:#000000;stroke:none;stroke-width:1;stroke-linecap:round;stroke-linejoin:round;stroke-dasharray:none;paint-order:normal"
       id="rect105"
       width="538.47888"
       height="247.82785"
       x="377.20856"
       y="129.38072"
       rx="1"
       ry="1"
       sodipodi:insensitive="true" /></g><g
     id="g321"
     transform="translate(-239.77786,-154.59271)"
     style="display:inline"
     inkscape:label="curated datasets"
     inkscape:export-filename="portal homepage stats/curated_datasets.svg"
     inkscape:export-xdpi="96"
     inkscape:export-ydpi="96"><path
       style="display:inline;fill:none;stroke:#ffffff;stroke-width:2;stroke-linecap:round;stroke-linejoin:round;stroke-dasharray:none;paint-order:normal"
       d="m 306.09263,183.9926 v 51.93702 c 0,2.2581 -2.90336,6.11077 -6.12921,6.12917 l -36.7989,0.20991 c -2.00241,0.0114 -4.76594,-2.28049 -5.36605,-5.27413"
       id="path105"
       sodipodi:nodetypes="csssc" /><g
       inkscape:groupmode="layer"
       id="g320"
       inkscape:label="Layer 3 copy 1"
       transform="translate(-175.0117,6.3651069)"><path
         style="display:inline;fill:none;stroke:#ffffff;stroke-width:2;stroke-linecap:round;stroke-linejoin:round;stroke-dasharray:none;paint-order:normal"
         d="m 465.15253,168.12515 c 0,0 -36.08902,-1.3697 -38.34514,-1.46526 -2.25612,-0.0956 -4.95737,2.69594 -5.05292,4.95207 l -2.19772,51.89051 c -0.0956,2.25607 2.64218,6.22815 5.86436,6.38303 l 36.75706,1.76687 c 2.2555,0.10844 5.60197,-2.66864 5.75212,-6.21393 l 2.03839,-48.68605"
         id="path106"
         sodipodi:nodetypes="cssssscc" /><g
         id="g318"
         transform="rotate(2.4252004,444.02133,236.66917)"
         style="stroke-width:2;stroke-dasharray:none"><g
           id="g115"
           style="stroke-width:2;stroke-dasharray:none"
           transform="translate(0,1.5875)"><path
             style="display:inline;fill:#ffffff;stroke:#ffffff;stroke-width:2;stroke-linecap:round;stroke-linejoin:round;stroke-dasharray:none;paint-order:normal"
             d="m 429.64141,183.40153 h 5.06661"
             id="path107" /><path
             style="display:inline;fill:#ffffff;stroke:#ffffff;stroke-width:2;stroke-linecap:round;stroke-linejoin:round;stroke-dasharray:none;paint-order:normal"
             d="m 441.28306,183.40153 h 5.06661"
             id="path108" /><path
             style="display:inline;fill:#ffffff;stroke:#ffffff;stroke-width:2;stroke-linecap:round;stroke-linejoin:round;stroke-dasharray:none;paint-order:normal"
             d="m 452.92471,183.40153 h 5.06661"
             id="path115" /></g><g
           id="g119"
           transform="translate(0,9.392709)"
           style="stroke-width:2;stroke-dasharray:none"><path
             style="display:inline;fill:#ffffff;stroke:#ffffff;stroke-width:2;stroke-linecap:round;stroke-linejoin:round;stroke-dasharray:none;paint-order:normal"
             d="m 429.64141,183.40153 h 5.06661"
             id="path116" /><path
             style="display:inline;fill:#ffffff;stroke:#ffffff;stroke-width:2;stroke-linecap:round;stroke-linejoin:round;stroke-dasharray:none;paint-order:normal"
             d="m 441.28306,183.40153 h 5.06661"
             id="path117" /><path
             style="display:inline;fill:#ffffff;stroke:#ffffff;stroke-width:2;stroke-linecap:round;stroke-linejoin:round;stroke-dasharray:none;paint-order:normal"
             d="m 452.92471,183.40153 h 5.06661"
             id="path119" /></g><g
           id="g123"
           transform="translate(0,17.197918)"
           style="stroke-width:2;stroke-dasharray:none"><path
             style="display:inline;fill:#ffffff;stroke:#ffffff;stroke-width:2;stroke-linecap:round;stroke-linejoin:round;stroke-dasharray:none;paint-order:normal"
             d="m 429.64141,183.40153 h 5.06661"
             id="path120" /><path
             style="display:inline;fill:#ffffff;stroke:#ffffff;stroke-width:2;stroke-linecap:round;stroke-linejoin:round;stroke-dasharray:none;paint-order:normal"
             d="m 441.28306,183.40153 h 5.06661"
             id="path121" /><path
             style="display:inline;fill:#ffffff;stroke:#ffffff;stroke-width:2;stroke-linecap:round;stroke-linejoin:round;stroke-dasharray:none;paint-order:normal"
             d="m 452.92471,183.40153 h 5.06661"
             id="path123" /></g><g
           id="g256"
           transform="translate(0,25.003127)"
           style="stroke-width:2;stroke-dasharray:none"><path
             style="display:inline;fill:#ffffff;stroke:#ffffff;stroke-width:2;stroke-linecap:round;stroke-linejoin:round;stroke-dasharray:none;paint-order:normal"
             d="m 429.64141,183.40153 h 5.06661"
             id="path124" /><path
             style="display:inline;fill:#ffffff;stroke:#ffffff;stroke-width:2;stroke-linecap:round;stroke-linejoin:round;stroke-dasharray:none;paint-order:normal"
             d="m 441.28306,183.40153 h 5.06661"
             id="path125" /><path
             style="display:inline;fill:#ffffff;stroke:#ffffff;stroke-width:2;stroke-linecap:round;stroke-linejoin:round;stroke-dasharray:none;paint-order:normal"
             d="m 452.92471,183.40153 h 5.06661"
             id="path254" /></g><g
           id="g317"
           transform="translate(0,32.808336)"
           style="stroke-width:2;stroke-dasharray:none"><path
             style="display:inline;fill:#ffffff;stroke:#ffffff;stroke-width:2;stroke-linecap:round;stroke-linejoin:round;stroke-dasharray:none;paint-order:normal"
             d="m 429.64141,183.40153 h 5.06661"
             id="path314" /><path
             style="display:inline;fill:#ffffff;stroke:#ffffff;stroke-width:2;stroke-linecap:round;stroke-linejoin:round;stroke-dasharray:none;paint-order:normal"
             d="m 441.28306,183.40153 h 5.06661"
             id="path315" /><path
             style="display:inline;fill:#ffffff;stroke:#ffffff;stroke-width:2;stroke-linecap:round;stroke-linejoin:round;stroke-dasharray:none;paint-order:normal"
             d="m 452.92471,183.40153 h 5.06661"
             id="path317" /></g></g><g
         id="g319"
         style="display:inline"><path
           style="fill:none;stroke:#ffffff;stroke-width:2;stroke-linecap:round;stroke-linejoin:round;stroke-dasharray:none;paint-order:normal"
           d="m 496.48544,161.04635 -8.47533,-7.0967 c 0,0 -0.68931,0.68931 -1.8956,0.9478 -1.20628,0.25848 -5.1698,0 -7.15155,-0.0862 -1.98176,-0.0862 -7.15155,-0.25849 -8.27168,0.34465 -1.12012,0.60315 -16.02952,12.14654 -16.02952,12.14654 l 11.50639,0.34855 c 5.63076,-1.33759 11.19653,-5.30304 12.50333,-3.18169 -2.19047,0.30353 -20.21538,5.5932 -20.21538,5.5932 0,0 -1.8956,1.55094 -1.55094,3.96351 0.34465,2.41258 3.44653,2.75723 3.44653,2.75723 0,0 12.75217,-1.89559 13.78613,-1.72327 1.03395,0.17233 5.25595,1.8956 9.04714,0.60315 0,0 4.53104,-1.4795 6.17606,-3.551 z"
           id="path318"
           sodipodi:nodetypes="ccsssccccscsccc" /><path
           style="fill:#ffffff;stroke:none;stroke-width:2;stroke-linecap:round;stroke-linejoin:round;stroke-dasharray:none;paint-order:normal"
           d="m 478.26469,176.44738 c 0,0 -2.52249,-0.3802 -3.52587,-0.65895 -1.00339,-0.27872 -5.41663,0.7206 -5.41663,0.7206 l 0.009,4.53694 c 0,0 3.80222,0.41604 4.06454,-2.67094 0.0418,-0.49129 -0.16249,-1.56918 -0.16249,-1.56918 0,0 1.06499,2.45746 3.32205,1.85263 0,0 1.77215,-0.31342 1.7094,-2.2111 z"
           id="path319"
           sodipodi:nodetypes="csccsccc" /></g></g><rect
       style="display:inline;fill:none;stroke:none;stroke-width:0;stroke-linecap:round;stroke-linejoin:round;stroke-dasharray:none;paint-order:normal"
       id="rect320"
       width="86.493996"
       height="95.146965"
       x="239.77786"
       y="154.59271" /></g></svg>
