<?xml version="1.0" encoding="UTF-8" standalone="no"?>
<!-- Created with Inkscape (http://www.inkscape.org/) -->

<svg
   width="72.065369mm"
   height="96.588417mm"
   viewBox="0 0 72.065369 96.588417"
   version="1.1"
   id="svg1"
   xml:space="preserve"
   inkscape:version="1.3 (0e150ed, 2023-07-21)"
   sodipodi:docname="KPN_landing_page_icons.svg"
   xmlns:inkscape="http://www.inkscape.org/namespaces/inkscape"
   xmlns:sodipodi="http://sodipodi.sourceforge.net/DTD/sodipodi-0.dtd"
   xmlns="http://www.w3.org/2000/svg"
   xmlns:svg="http://www.w3.org/2000/svg"><sodipodi:namedview
     id="namedview1"
     pagecolor="#ffffff"
     bordercolor="#000000"
     borderopacity="0.25"
     inkscape:showpageshadow="2"
     inkscape:pageopacity="0.0"
     inkscape:pagecheckerboard="0"
     inkscape:deskcolor="#d1d1d1"
     inkscape:document-units="mm"
     showguides="true"
     inkscape:zoom="0.36475812"
     inkscape:cx="2323.4575"
     inkscape:cy="952.68612"
     inkscape:window-width="1456"
     inkscape:window-height="916"
     inkscape:window-x="0"
     inkscape:window-y="38"
     inkscape:window-maximized="0"
     inkscape:current-layer="g4"><sodipodi:guide
       position="285.72336,1910.2884"
       orientation="0,-1"
       id="guide174"
       inkscape:locked="false" /><sodipodi:guide
       position="-10.224221,1903.4116"
       orientation="0,-1"
       id="guide175"
       inkscape:locked="false" /></sodipodi:namedview><defs
     id="defs1" /><g
     id="g122"
     transform="translate(-238.84636,-153.47436)"
     inkscape:label="genetic datasets"
     inkscape:export-filename="ganomic_datasets.svg"
     inkscape:export-xdpi="96"
     inkscape:export-ydpi="96"><path
       style="fill:none;stroke:#ffffff;stroke-width:2;stroke-linecap:round;stroke-linejoin:round;stroke-dasharray:none;paint-order:normal"
       d="m 299.33411,178.83651 c 1.25676,-0.003 1.069,-0.005 1.39053,-0.005 2.25814,0 4.83885,2.90329 4.83885,5.16145 v 51.93702 c 0,2.2581 -2.90336,6.11077 -6.12921,6.12917 l -36.7989,0.20991 c -1.93773,0.011 -4.5882,-2.13483 -5.30123,-4.98629"
       id="path111"
       sodipodi:nodetypes="csssssc" /><path
       style="fill:none;stroke:#ffffff;stroke-width:2;stroke-linecap:round;stroke-linejoin:round;stroke-dasharray:none;paint-order:normal"
       d="m 281.33242,173.0476 c 6.34073,-0.02 12.09153,-0.0373 13.04221,-0.0373 2.25814,0 4.83885,2.90329 4.83885,5.16145 v 51.93702 c 0,2.2581 -2.90336,6.11077 -6.12921,6.12917 l -36.7989,0.20991 c -1.93773,0.011 -4.5882,-2.13483 -5.30123,-4.98629"
       id="path112"
       sodipodi:nodetypes="csssssc" /><path
       style="fill:none;stroke:#ffffff;stroke-width:2;stroke-linecap:round;stroke-linejoin:round;stroke-dasharray:none;paint-order:normal"
       d="M 292.74824,180.73825 280.79743,167.287 c 0,0 -29.34073,-0.0975 -31.59887,-0.0975 -2.25814,0 -4.83885,2.90329 -4.83885,5.16145 v 51.93702 c 0,2.2581 2.90336,6.11077 6.12921,6.12917 l 36.7989,0.20991 c 2.25807,0.0129 5.48403,-2.9033 5.48403,-6.45177 0,-3.54848 -0.0236,-43.43716 -0.0236,-43.43716 z"
       id="path113"
       sodipodi:nodetypes="ccsssssscc" /><path
       style="fill:#ffffff;stroke:#ffffff;stroke-width:2;stroke-linecap:round;stroke-linejoin:round;stroke-dasharray:none;paint-order:normal"
       d="m 292.62789,180.69604 -11.69276,-13.09207 0.0677,13.08855 z"
       id="path114"
       sodipodi:nodetypes="cccc" /><g
       inkscape:groupmode="layer"
       id="g19"
       inkscape:label="Layer 3 copy"
       transform="translate(-378.93167,-37.32585)"><path
         style="fill:none;stroke:#ffffff;stroke-width:2;stroke-linecap:round;stroke-linejoin:round;stroke-dasharray:none;paint-order:normal"
         d="m 651.67183,254.98756 c -0.46378,-3.13056 -4.56754,-7.25717 -8.34815,-9.27574 -11.76257,-6.28034 -11.24686,-15.6121 0.11594,-22.26176 4.76306,-2.7874 7.88438,-6.95681 8.11627,-10.08737"
         id="path13"
         sodipodi:nodetypes="cssc" /><path
         style="fill:none;stroke:#ffffff;stroke-width:2;stroke-linecap:round;stroke-linejoin:round;stroke-dasharray:none;paint-order:normal"
         d="m 634.70802,254.98756 c 0.46378,-3.13056 4.56754,-7.25717 8.34815,-9.27574 0.6593,-0.35202 0.60697,-0.41448 1.18937,-0.78466 m 3.33169,-18.08232 c -1.26078,-1.18512 -2.80844,-2.32468 -4.637,-3.39478 -4.76306,-2.7874 -7.88438,-6.95681 -8.11627,-10.08737"
         id="path14"
         sodipodi:nodetypes="csccsc" /><path
         style="fill:none;stroke:#ffffff;stroke-width:2;stroke-linecap:round;stroke-linejoin:round;stroke-dasharray:none;paint-order:normal"
         d="m 639.26554,251.74105 h 7.65248"
         id="path15" /><path
         style="fill:none;stroke:#ffffff;stroke-width:2;stroke-linecap:round;stroke-linejoin:round;stroke-dasharray:none;paint-order:normal"
         d="m 637.65328,234.34905 3.29857,0.0328"
         id="path16"
         sodipodi:nodetypes="cc" /><path
         style="fill:none;stroke:#ffffff;stroke-width:2;stroke-linecap:round;stroke-linejoin:round;stroke-dasharray:none;paint-order:normal"
         d="m 639.69561,239.29275 1.47158,0.008"
         id="path17"
         sodipodi:nodetypes="cc" /><path
         style="fill:none;stroke:#ffffff;stroke-width:2;stroke-linecap:round;stroke-linejoin:round;stroke-dasharray:none;paint-order:normal"
         d="m 640.12178,229.47928 h 3.78979"
         id="path18"
         sodipodi:nodetypes="cc" /><path
         style="fill:none;stroke:#ffffff;stroke-width:2;stroke-linecap:round;stroke-linejoin:round;stroke-dasharray:none;paint-order:normal"
         d="m 639.26554,216.95704 h 7.65248"
         id="path19" /><circle
         style="fill:none;stroke:#ffffff;stroke-width:2;stroke-linecap:round;stroke-linejoin:round;stroke-dasharray:none;paint-order:normal"
         id="path20"
         cx="652.14172"
         cy="237.29086"
         r="8.4334068" /><path
         style="fill:none;stroke:#ffffff;stroke-width:2;stroke-linecap:round;stroke-linejoin:round;stroke-dasharray:none;paint-order:normal"
         d="m 657.87008,243.17836 4.85319,5.09187"
         id="path21"
         sodipodi:nodetypes="cc" /><path
         style="fill:none;stroke:#ffffff;stroke-width:4;stroke-linecap:round;stroke-linejoin:round;stroke-dasharray:none;paint-order:normal"
         d="m 660.97294,246.28122 3.65977,3.81889"
         id="path22"
         sodipodi:nodetypes="cc" /><path
         style="fill:none;stroke:#ffffff;stroke-width:2;stroke-linecap:round;stroke-linejoin:round;stroke-dasharray:none;paint-order:normal"
         d="m 648.94567,234.42383 4.07919,0.0748"
         id="path24"
         sodipodi:nodetypes="cc" /><path
         style="fill:none;stroke:#ffffff;stroke-width:2;stroke-linecap:round;stroke-linejoin:round;stroke-dasharray:none;paint-order:normal"
         d="m 649.24481,239.58393 2.28437,2e-5"
         id="path25"
         sodipodi:nodetypes="cc" /></g><rect
       style="display:inline;fill:none;stroke:none;stroke-width:0;stroke-linecap:round;stroke-linejoin:round;stroke-dasharray:none;paint-order:normal"
       id="rect121"
       width="72.065331"
       height="96.588425"
       x="238.84637"
       y="153.47437" /></g></svg>
