<?xml version="1.0" encoding="UTF-8" standalone="no"?>
<!-- Created with Inkscape (http://www.inkscape.org/) -->

<svg
   width="72.065338mm"
   height="95.191879mm"
   viewBox="0 0 72.065338 95.191879"
   version="1.1"
   id="svg1"
   xml:space="preserve"
   inkscape:version="1.3 (0e150ed, 2023-07-21)"
   sodipodi:docname="KPN_landing_page_icons.svg"
   xmlns:inkscape="http://www.inkscape.org/namespaces/inkscape"
   xmlns:sodipodi="http://sodipodi.sourceforge.net/DTD/sodipodi-0.dtd"
   xmlns="http://www.w3.org/2000/svg"
   xmlns:svg="http://www.w3.org/2000/svg"><sodipodi:namedview
     id="namedview1"
     pagecolor="#747474"
     bordercolor="#000000"
     borderopacity="0.25"
     inkscape:showpageshadow="2"
     inkscape:pageopacity="0.0"
     inkscape:pagecheckerboard="0"
     inkscape:deskcolor="#d1d1d1"
     inkscape:document-units="mm"
     showguides="true"
     inkscape:zoom="0.29274917"
     inkscape:cx="2539.7169"
     inkscape:cy="1197.2707"
     inkscape:window-width="1456"
     inkscape:window-height="916"
     inkscape:window-x="0"
     inkscape:window-y="38"
     inkscape:window-maximized="0"
     inkscape:current-layer="g281" /><defs
     id="defs1" /><g
     inkscape:groupmode="layer"
     id="layer7"
     inkscape:label="Layer 6"
     sodipodi:insensitive="true"
     style="display:none"
     transform="translate(-390.56253,-105.20614)"><rect
       style="display:none;fill:#000000;stroke:none;stroke-width:1;stroke-linecap:round;stroke-linejoin:round;stroke-dasharray:none;paint-order:normal"
       id="rect105"
       width="538.47888"
       height="247.82785"
       x="377.20856"
       y="129.38072"
       rx="1"
       ry="1"
       sodipodi:insensitive="true" /></g><g
     id="g4"
     transform="translate(-236.87768,-59.643688)"
     inkscape:label="genomic datasets"
     inkscape:export-filename="genomic_datasets.svg"
     inkscape:export-xdpi="96"
     inkscape:export-ydpi="96"><path
       style="fill:none;stroke:#ffffff;stroke-width:2;stroke-linecap:round;stroke-linejoin:round;stroke-dasharray:none;paint-order:normal"
       d="m 299.33411,177.77817 c 1.25676,-0.003 1.069,-0.005 1.39053,-0.005 2.25814,0 4.83885,2.90329 4.83885,5.16145 v 51.93702 c 0,2.2581 -2.90336,6.11077 -6.12921,6.12917 l -36.7989,0.20991 c -1.93773,0.011 -4.5882,-2.13483 -5.30123,-4.98629"
       id="path5"
       sodipodi:nodetypes="csssssc" /><path
       style="fill:none;stroke:#ffffff;stroke-width:2;stroke-linecap:round;stroke-linejoin:round;stroke-dasharray:none;paint-order:normal"
       d="m 281.33242,171.98926 c 6.34073,-0.02 12.09153,-0.0373 13.04221,-0.0373 2.25814,0 4.83885,2.90329 4.83885,5.16145 v 51.93702 c 0,2.2581 -2.90336,6.11077 -6.12921,6.12917 l -36.7989,0.20991 c -1.93773,0.011 -4.5882,-2.13483 -5.30123,-4.98629"
       id="path110"
       sodipodi:nodetypes="csssssc" /><path
       style="fill:none;stroke:#ffffff;stroke-width:2;stroke-linecap:round;stroke-linejoin:round;stroke-dasharray:none;paint-order:normal"
       d="m 292.74824,179.67991 -11.95081,-13.45125 c 0,0 -29.34073,-0.0975 -31.59887,-0.0975 -2.25814,0 -4.83885,2.90329 -4.83885,5.16145 v 51.93702 c 0,2.2581 2.90336,6.11077 6.12921,6.12917 l 36.7989,0.20991 c 2.25807,0.0129 5.48403,-2.9033 5.48403,-6.45177 0,-3.54848 -0.0236,-43.43716 -0.0236,-43.43716 z"
       id="path3"
       sodipodi:nodetypes="ccsssssscc" /><path
       style="fill:#ffffff;stroke:#ffffff;stroke-width:2;stroke-linecap:round;stroke-linejoin:round;stroke-dasharray:none;paint-order:normal"
       d="m 292.62789,179.6377 -11.69276,-13.09207 0.0677,13.08855 z"
       id="path4"
       sodipodi:nodetypes="cccc" /><g
       inkscape:groupmode="layer"
       id="layer3"
       inkscape:label="Layer 3"
       transform="translate(-193.90153,-56.674952)"><path
         style="fill:none;stroke:#ffffff;stroke-width:2;stroke-linecap:round;stroke-linejoin:round;stroke-dasharray:none;paint-order:normal"
         d="m 468.03313,274.57655 c -0.46378,-3.13056 -4.56754,-7.25717 -8.34815,-9.27574 -11.76257,-6.28034 -11.24686,-15.6121 0.11594,-22.26176 4.76306,-2.7874 7.88438,-6.95681 8.11627,-10.08737"
         id="path6"
         sodipodi:nodetypes="cssc" /><path
         style="fill:none;stroke:#ffffff;stroke-width:2;stroke-linecap:round;stroke-linejoin:round;stroke-dasharray:none;paint-order:normal"
         d="m 451.06932,274.57655 c 0.46378,-3.13056 4.56754,-7.25717 8.34815,-9.27574 11.76257,-6.28034 11.24686,-15.6121 -0.11594,-22.26176 -4.76306,-2.7874 -7.88438,-6.95681 -8.11627,-10.08737"
         id="path7"
         sodipodi:nodetypes="cssc" /><path
         style="fill:none;stroke:#ffffff;stroke-width:2;stroke-linecap:round;stroke-linejoin:round;stroke-dasharray:none;paint-order:normal"
         d="m 455.62684,271.33004 h 7.65248"
         id="path8" /><path
         style="fill:none;stroke:#ffffff;stroke-width:2;stroke-linecap:round;stroke-linejoin:round;stroke-dasharray:none;paint-order:normal"
         d="m 453.96353,253.89265 11.211,0.0454"
         id="path9"
         sodipodi:nodetypes="cc" /><path
         style="fill:none;stroke:#ffffff;stroke-width:2;stroke-linecap:round;stroke-linejoin:round;stroke-dasharray:none;paint-order:normal"
         d="m 456.37324,258.92374 6.63872,0.0706"
         id="path10"
         sodipodi:nodetypes="cc" /><path
         style="fill:none;stroke:#ffffff;stroke-width:2;stroke-linecap:round;stroke-linejoin:round;stroke-dasharray:none;paint-order:normal"
         d="m 456.5094,249.02288 5.94304,0.0454"
         id="path11"
         sodipodi:nodetypes="cc" /><path
         style="fill:none;stroke:#ffffff;stroke-width:2;stroke-linecap:round;stroke-linejoin:round;stroke-dasharray:none;paint-order:normal"
         d="m 455.62684,236.54603 h 7.65248"
         id="path12" /></g><rect
       style="display:inline;fill:none;stroke:none;stroke-width:0;stroke-linecap:round;stroke-linejoin:round;stroke-dasharray:none;paint-order:normal"
       id="rect108"
       width="72.065331"
       height="95.191872"
       x="238.84637"
       y="153.47437" /></g><g
     id="g40"
     transform="translate(-238.84636,-153.47436)"
     inkscape:label="genomic datasets"
     inkscape:export-filename="genomic_datasets.svg"
     inkscape:export-xdpi="96"
     inkscape:export-ydpi="96"><path
       style="fill:none;stroke:#ffffff;stroke-width:2;stroke-linecap:round;stroke-linejoin:round;stroke-dasharray:none;paint-order:normal"
       d="m 288.22159,177.77817 c 1.25676,-0.003 9.0065,-0.005 9.32803,-0.005 2.25814,0 4.83885,2.90329 4.83885,5.16145 v 51.93702 c 0,2.2581 -2.90336,6.11077 -6.12921,6.12917 l -36.7989,0.20991 c -1.93773,0.011 -4.5882,-2.13483 -5.30123,-4.98629"
       id="path23"
       sodipodi:nodetypes="csssssc" /><path
       style="fill:none;stroke:#ffffff;stroke-width:2;stroke-linecap:round;stroke-linejoin:round;stroke-dasharray:none;paint-order:normal"
       d="m 295.92323,184.97158 -11.95081,-13.45125 c 0,0 -29.34073,-0.0975 -31.59887,-0.0975 -2.25814,0 -4.83885,2.90329 -4.83885,5.16145 v 51.93702 c 0,2.2581 2.90336,6.11077 6.12921,6.12917 l 36.7989,0.20991 c 2.25807,0.0129 5.48403,-2.9033 5.48403,-6.45177 0,-3.54848 -0.0236,-43.43716 -0.0236,-43.43716 z"
       id="path27"
       sodipodi:nodetypes="ccsssssscc" /><path
       style="fill:#ffffff;stroke:#ffffff;stroke-width:2;stroke-linecap:round;stroke-linejoin:round;stroke-dasharray:none;paint-order:normal"
       d="m 295.80288,184.92937 -11.69276,-13.09207 0.0677,13.08855 z"
       id="path28"
       sodipodi:nodetypes="cccc" /><g
       inkscape:groupmode="layer"
       id="g39"
       inkscape:label="Layer 3"
       transform="translate(-193.90153,-56.674952)"><path
         style="fill:none;stroke:#ffffff;stroke-width:2;stroke-linecap:round;stroke-linejoin:round;stroke-dasharray:none;paint-order:normal"
         d="m 471.20812,279.86822 c -0.46378,-3.13056 -4.56754,-7.25717 -8.34815,-9.27574 -11.76257,-6.28034 -11.24686,-15.6121 0.11594,-22.26176 4.76306,-2.7874 7.88438,-6.95681 8.11627,-10.08737"
         id="path33"
         sodipodi:nodetypes="cssc" /><path
         style="fill:none;stroke:#ffffff;stroke-width:2;stroke-linecap:round;stroke-linejoin:round;stroke-dasharray:none;paint-order:normal"
         d="m 454.24431,279.86822 c 0.46378,-3.13056 4.56754,-7.25717 8.34815,-9.27574 11.76257,-6.28034 11.24686,-15.6121 -0.11594,-22.26176 -4.76306,-2.7874 -7.88438,-6.95681 -8.11627,-10.08737"
         id="path34"
         sodipodi:nodetypes="cssc" /><path
         style="fill:none;stroke:#ffffff;stroke-width:2;stroke-linecap:round;stroke-linejoin:round;stroke-dasharray:none;paint-order:normal"
         d="m 458.80183,276.62171 h 7.65248"
         id="path35" /><path
         style="fill:none;stroke:#ffffff;stroke-width:2;stroke-linecap:round;stroke-linejoin:round;stroke-dasharray:none;paint-order:normal"
         d="m 457.13852,259.18432 11.211,0.0454"
         id="path36"
         sodipodi:nodetypes="cc" /><path
         style="fill:none;stroke:#ffffff;stroke-width:2;stroke-linecap:round;stroke-linejoin:round;stroke-dasharray:none;paint-order:normal"
         d="m 459.54823,264.21541 6.63872,0.0706"
         id="path37"
         sodipodi:nodetypes="cc" /><path
         style="fill:none;stroke:#ffffff;stroke-width:2;stroke-linecap:round;stroke-linejoin:round;stroke-dasharray:none;paint-order:normal"
         d="m 459.68439,254.31455 5.94304,0.0454"
         id="path38"
         sodipodi:nodetypes="cc" /><path
         style="fill:none;stroke:#ffffff;stroke-width:2;stroke-linecap:round;stroke-linejoin:round;stroke-dasharray:none;paint-order:normal"
         d="m 458.80183,241.8377 h 7.65248"
         id="path39" /></g><rect
       style="display:inline;fill:none;stroke:none;stroke-width:0;stroke-linecap:round;stroke-linejoin:round;stroke-dasharray:none;paint-order:normal"
       id="rect39"
       width="72.065331"
       height="95.191872"
       x="238.84637"
       y="153.47437" /></g></svg>
