<?xml version="1.0" encoding="utf-8"?>
<!-- Generator: Adobe Illustrator 27.4.1, SVG Export Plug-In . SVG Version: 6.00 Build 0)  -->
<svg version="1.1" id="Layer_1" xmlns="http://www.w3.org/2000/svg" xmlns:xlink="http://www.w3.org/1999/xlink" x="0px" y="0px"
	 viewBox="0 0 32 32" style="enable-background:new 0 0 32 32;" xml:space="preserve">
<style type="text/css">
	.st0{fill:#01B69B;}
	.st1{fill:#FFFFFF;}
	.st2{fill:#F37920;}
</style>
<g>
	<g>
		<path class="st0" d="M24,22.9c0.5-2,2.9-4.6,2.9-4.6c1.4-1.9,2.2-4.1,2.2-6.5C29,5.3,23.3,0,16.2,0S4,4.5,3.2,11.7
			c-0.1,0.7,0.3,1.4,0.4,2c0.2,0.7,0.3,1,0.2,1.3c-0.4,1.4-2.6,4.5-2.6,4.5s-0.5,0.8,0.2,1.3c0.3,0.2,2.7,0.4,2.9,0.5
			c0.1,0.1,0.6,4.7,1.3,5.7c0.7,1,2,1,3.2,0.9c0.6-0.1,1.9-0.5,2.4-0.5c2.2-0.5,2.5,2.7,2.8,4.6L25,28.2
			C24.4,26.9,23.6,24.3,24,22.9z"/>
	</g>
	<path class="st1" d="M26.5,10.8c-0.5,0.5-1,0.7-1.8,0.9c-0.4,0.1-1.2,0.1-1.9,0.5c-0.1,0-0.1,0.1-0.2,0.1c0-0.3,0.1-0.7,0.4-1.1
		c0.6-0.8,1.5-0.9,2-1.2c0.5-0.3,0.9-0.8,1-1.5c0,0-0.3,1.2-1.5,1.5c-0.7,0.2-1.6,0.6-1.9,1.3c-0.3,0.5-0.4,1.1-0.4,1.3
		c-0.4,0.4-0.6,0.7-0.8,0.8c0,0-0.3-0.5-0.9-0.9c0,0,0,0,0-0.1c-1.3-2.4-1.3-3.3-0.9-3.9c0.7-1,2.2-0.7,3.7-1.8
		c1.3-1,1.3-2.3,1.3-2.3s-0.2,1.3-1.4,2.1c-1.3,0.9-2.2,0.8-3.1,1.1c0,0,0,0-0.1,0c0-0.1,0-0.1,0.1-0.2C20.2,7,20,6.3,19.7,5.9
		c-0.7-1.2,0.2-2.4,0.2-2.4c-0.3,0.4-0.8,1.1-0.5,2.1C19.5,6,20,6.5,19.9,7.2c0,0.3-0.3,0.7-0.4,0.9l0,0C19,8.5,18.7,9,18.7,9.4
		c0,0.9,0.2,1.6,0.7,2.5c-0.4-0.2-0.9-0.4-1.5-0.5c-0.3-0.3-1-1-0.9-1.8c0.1-1,0.3-1.8,0-2.6c-0.4-1-1.2-1.5-1.9-1.7
		c-1.4-1.6-0.9-3.4-0.9-3.4s-0.7,1.7,0.4,3.3c0,0-0.1,0-0.1,0c-0.5,0-2.4-0.6-3.4-1.8c0,0,1,1.6,3.2,2.1c1.2,0.2,1.6,0.5,2,1.1
		c0.4,0.7,0.3,1.4,0.1,2.8c-0.1,0.9,0.1,1.5,0.4,2c-0.4,0-0.9,0.1-1.4,0.3c-0.1,0-0.3,0.1-0.4,0.1c0-0.3,0-1.1-1.1-1.9
		c-0.7-0.5-1.4-0.7-2-1.4c-0.7-1,0-2.5,0-2.5s-0.4,0.6-0.5,1.5c-0.1,0.7,0.3,1.2,0.6,1.5c0.5,0.7,1.3,0.8,2,1.5
		c0.6,0.6,0.4,1.1,0.4,1.5c-1.5,0.2-2.9-0.2-3.8-1.3c-1.8-2.2-0.2-7.1-0.2-7.1S9,5.9,9.4,8.9C7.8,7.2,6,8.2,6,8.2s2.2-0.8,3.5,1.6
		c0.1,0.4,0.2,0.7,0.4,1c0,0,0,0,0,0v0c0.4,0.6,0.9,1.1,1.7,1.5c-0.3,0.1-0.9,0.4-1.3,0.3c-0.5-0.1-0.5-0.6-1.1-0.8
		c-0.3-0.1-0.6-0.1-0.8-0.2c-0.2-0.1-0.3-0.6-0.6-0.8c-0.1-0.1-0.4-0.1-0.6-0.1c-0.2,0-0.4-0.2-0.4-0.2c0.1,0.2,0.4,0.4,0.6,0.4
		c0.2,0,0.3,0.1,0.5,0.5c0.2,0.5,0.4,0.5,1,0.6c0.6,0.2,0.5,0.7,1.1,0.9c0.6,0.3,1.4,0,2.2-0.3c0.2-0.1,0.4-0.1,0.6-0.1
		c2,0.5,3-0.5,4.7-0.1c2.8,0.6,2.8,2.3,2.9,3.7c0,0.2,0,0.4,0,0.6c-0.1-0.1-0.1-0.1-0.2-0.2c-0.3-0.4-0.2-1.2-0.8-1.9
		c-0.3-0.3-0.7-0.8-1.6-0.7c-0.9,0.1-1.4,1-3,0.9c-1.4-0.1-2.5-1-2.5-1s0.7,1.1,2.3,1.3c2.4,0.2,2.6-1.1,3.8-0.6
		c0.7,0.3,0.6,1,0.9,2.1c0.1,0.4,0.4,0.8,0.7,1c-0.6,2.9-1.2,7.7,0.3,11.9l2.4-0.9c-1.1-2.7-2.1-6.9-0.9-11.6c0,0,0.2-1.4,0-2.3
		c-0.1-0.4,0.4-1.6,1.2-2.2c1.1-0.8,2.8-0.6,3.5-1.7c0.5-0.7,0.6-2.3,0.6-2.3S27,10.3,26.5,10.8z"/>
	<g>
		<path class="st1" d="M21.6,16v-0.1c-0.1,0.1,2.2-2,4.2-1.3c0,0-1.9-0.5-4.1,1.8L21.6,16z"/>
	</g>
	<path class="st1" d="M8.6,6.4C8.6,7.3,7.7,8,7.7,8S6.9,7.3,6.9,6.4s0.9-1.5,0.9-1.5S8.6,5.6,8.6,6.4z"/>
	<path class="st1" d="M7.6,10.1c-0.8,0.2-1.7-0.4-1.7-0.4s0.4-1,1.2-1.3C8,8.2,8.9,8.8,8.9,8.8S8.4,9.9,7.6,10.1z"/>
	<path class="st1" d="M9.2,14.7c-0.7,0.5-1.8,0.1-1.8,0.1s0.1-1.1,0.9-1.5s1.8-0.1,1.8-0.1S9.9,14.2,9.2,14.7z"/>
	<path class="st1" d="M6.5,12.6c-0.8,0.2-1.7-0.5-1.7-0.5s0.5-1,1.4-1.1c0.8-0.2,1.7,0.5,1.7,0.5S7.3,12.5,6.5,12.6z"/>
	<path class="st1" d="M11.7,6c-0.7,0.3-1.6-0.2-1.6-0.2s0.3-0.9,1-1.2c0.7-0.3,1.6,0.2,1.6,0.2S12.5,5.7,11.7,6z"/>
	<path class="st1" d="M24.7,7.7c-0.9,0-1.5-0.9-1.5-0.9S23.9,6,24.8,6c0.9,0,1.5,0.9,1.5,0.9S25.5,7.8,24.7,7.7z"/>
	<path class="st1" d="M21.1,10.2c-0.7,0.5-1.7,0.3-1.7,0.3s0-1.1,0.7-1.6c0.7-0.5,1.7-0.3,1.7-0.3S21.8,9.7,21.1,10.2z"/>
	<path class="st1" d="M12.9,16.2c-0.6,0.4-1.6,0.1-1.6,0.1s0.1-1,0.7-1.4s1.6-0.1,1.6-0.1S13.5,15.8,12.9,16.2z"/>
	<path class="st1" d="M17.3,4.6c-0.2,0.8-1.2,1.3-1.2,1.3S15.4,5,15.6,4.2c0.2-0.8,1.2-1.3,1.2-1.3S17.4,3.7,17.3,4.6z"/>
	<path class="st1" d="M19.3,7c0.3,0.8-0.3,1.7-0.3,1.7s-1-0.4-1.3-1.2S18,5.8,18,5.8S19,6.2,19.3,7z"/>
	<path class="st1" d="M24,8.9c0.3,0.7-0.1,1.5-0.1,1.5s-0.9-0.2-1.3-0.9C22.4,8.8,22.8,8,22.8,8S23.7,8.2,24,8.9z"/>
	<path class="st1" d="M19.4,2.4c0.4,0.7,0.1,1.8,0.1,1.8S18.4,4,18,3.2c-0.4-0.7-0.1-1.8-0.1-1.8S19,1.6,19.4,2.4z"/>
	<path class="st2" d="M23.1,5.2c0.1,1-0.9,2-0.9,2S21.1,6.4,21,5.4c-0.1-1,0.9-2,0.9-2S23,4.2,23.1,5.2z"/>
	<path class="st1" d="M12.4,3.7c-0.8-0.3-1.1-1.4-1.1-1.4s1-0.5,1.8-0.2c0.8,0.3,1.1,1.4,1.1,1.4S13.2,4.1,12.4,3.7z"/>
	<path class="st1" d="M14.8,8.5c-0.5-0.7-0.3-1.7-0.3-1.7s1.1,0,1.6,0.7s0.3,1.7,0.3,1.7S15.4,9.2,14.8,8.5z"/>
	<path class="st1" d="M14.7,14.6c-0.4-0.5-0.3-1.4-0.3-1.4s0.9,0,1.3,0.5c0.4,0.5,0.3,1.4,0.3,1.4S15.1,15.1,14.7,14.6z"/>
	<path class="st1" d="M26,13.9c-0.5,0.5-1.4,0.5-1.4,0.5s-0.2-0.9,0.3-1.4c0.5-0.5,1.4-0.5,1.4-0.5S26.4,13.4,26,13.9z"/>
	<path class="st1" d="M13.8,8c-0.2,0.8-1.2,1.2-1.2,1.2s-0.6-0.9-0.4-1.7c0.2-0.8,1.2-1.2,1.2-1.2S14,7.1,13.8,8z"/>
	<path class="st1" d="M11.5,9.6c-0.2,0.7-1,1.1-1,1.1S10,10,10.1,9.3c0.2-0.7,1-1.1,1-1.1S11.7,8.9,11.5,9.6z"/>
</g>
</svg>
