<?xml version="1.0" encoding="utf-8"?>
<!-- Generator: Adobe Illustrator 27.4.1, SVG Export Plug-In . SVG Version: 6.00 Build 0)  -->
<svg version="1.1" id="Layer_1" xmlns="http://www.w3.org/2000/svg" xmlns:xlink="http://www.w3.org/1999/xlink" x="0px" y="0px"
	 viewBox="0 0 32 32" style="enable-background:new 0 0 32 32;" xml:space="preserve">
<style type="text/css">
	.st0{fill:#E6E6E6;stroke:#E6E6E6;stroke-width:1.5612;stroke-miterlimit:10;}
	.st1{fill:#D3D9EE;stroke:#D3D9EE;stroke-width:1.5612;stroke-miterlimit:10;}
	.st2{fill:#ABB8DE;}
	.st3{fill:#8197CC;}
	.st4{fill:none;stroke:#ABB8DE;stroke-width:0.4737;stroke-miterlimit:10;}
	.st5{fill:none;stroke:#8197CC;stroke-width:0.4146;stroke-miterlimit:10;}
</style>
<g>
	<g>
		<g>
			<path class="st0" d="M30.9,17.4c0.8-8.2-5.3-15.6-13.5-16.3S1.8,6.4,1.1,14.6C1,15.4,1,16.1,1,16.8c2.2-0.9,4.5-1.3,7-1
				c7.5,0.7,13.2,6.8,13.6,14.1C26.6,27.9,30.4,23.2,30.9,17.4z"/>
			<path class="st1" d="M8,15.8c-2.5-0.2-4.9,0.2-7,1c0.4,7.3,6.1,13.4,13.6,14.1c2.5,0.2,4.9-0.2,7-1C21.2,22.6,15.5,16.5,8,15.8z"
				/>
		</g>
		<g>
			<g>
				<path class="st2" d="M19.9,13c3.7,3.7,4,10.8,2.3,12.5c-1.7,1.7-8.8,1.4-12.5-2.3S5.1,15.7,8.8,12S16.2,9.2,19.9,13z"/>
				<g>
					<path class="st3" d="M19.6,23c-0.5,0-0.6,0.3-1.1,0.4c-1.2,0.1-1.8-3-3.5-4c-1.9-1.1-5.2,0.2-6.5,2.4c0.4,0.4,0.8,0.9,1.2,1.3
						c3.7,3.7,10.8,4,12.5,2.3c0,0,0,0,0.1-0.1C22,24.2,20.5,23,19.6,23z"/>
				</g>
			</g>
			<path class="st4" d="M14.6,20.8c0,1.5-1.2,2.7-2.7,2.7"/>
			<path class="st5" d="M19.3,16c0,1.5-1.2,2.7-2.7,2.7"/>
		</g>
	</g>
</g>
</svg>
