<?xml version="1.0" encoding="utf-8"?>
<!-- Generator: Adobe Illustrator 27.4.1, SVG Export Plug-In . SVG Version: 6.00 Build 0)  -->
<svg version="1.1" id="Layer_1" xmlns="http://www.w3.org/2000/svg" xmlns:xlink="http://www.w3.org/1999/xlink" x="0px" y="0px"
	 viewBox="0 0 32 32" style="enable-background:new 0 0 32 32;" xml:space="preserve">
<style type="text/css">
	.st0{fill:#D3D0E8;}
	.st1{fill:#AFABD4;}
	.st2{fill:#FFFFFF;}
</style>
<g>
	<circle class="st0" cx="16" cy="16" r="15"/>
	<circle class="st1" cx="16" cy="8.5" r="1.8"/>
	<path class="st2" d="M28.1,7.5C27.9,7.1,27.5,6.8,27,7l-11,3.8L5,7C4.5,6.8,4.1,7.1,3.9,7.5C3.8,7.9,4,8.4,4.4,8.6l9.1,3.2v7.4
		l-3.5,9.6c-0.2,0.6,0.1,1.2,0.6,1.4c0.6,0.2,1.2-0.1,1.4-0.6l3.4-9.2h1.1l3.4,9.2c0.2,0.6,0.8,0.8,1.4,0.6s0.8-0.8,0.6-1.4
		l-3.5-9.5v-7.5l9.1-3.2C28,8.4,28.2,7.9,28.1,7.5z"/>
	<path class="st1" d="M27.3,11H4.7c-0.5,0-0.8,0.4-0.8,0.8s0.4,0.8,0.8,0.8h8.8v5.2v2.4v9.6c0,0.6,0.5,1.1,1.1,1.1s1.1-0.5,1.1-1.1
		v-9.6h0.6v9.6c0,0.6,0.5,1.1,1.1,1.1s1.1-0.5,1.1-1.1v-9.6v-2.4v-5.2h8.8c0.5,0,0.8-0.4,0.8-0.8C28.1,11.4,27.7,11,27.3,11z"/>
	<g>
		<path class="st0" d="M8.8,12.1H4.9c-0.1,0-0.2-0.1-0.2-0.2l0,0c0-0.1,0.1-0.2,0.2-0.2h3.9c0.1,0,0.2,0.1,0.2,0.2l0,0
			C9,12,8.9,12.1,8.8,12.1z"/>
		<path class="st0" d="M13.6,12.1H9.7c-0.1,0-0.2-0.1-0.2-0.2l0,0c0-0.1,0.1-0.2,0.2-0.2h3.9c0.1,0,0.2,0.1,0.2,0.2l0,0
			C13.8,12,13.7,12.1,13.6,12.1z"/>
		<path class="st0" d="M22.3,12.1h-3.9c-0.1,0-0.2-0.1-0.2-0.2l0,0c0-0.1,0.1-0.2,0.2-0.2h3.9c0.1,0,0.2,0.1,0.2,0.2l0,0
			C22.5,12,22.4,12.1,22.3,12.1z"/>
		<path class="st0" d="M27.1,12.1h-3.9c-0.1,0-0.2-0.1-0.2-0.2l0,0c0-0.1,0.1-0.2,0.2-0.2h3.9c0.1,0,0.2,0.1,0.2,0.2l0,0
			C27.3,12,27.2,12.1,27.1,12.1z"/>
		<path class="st0" d="M14.3,24.3v-4.7c0-0.2,0.1-0.3,0.3-0.3l0,0c0.2,0,0.3,0.1,0.3,0.3v4.7c0,0.2-0.1,0.3-0.3,0.3l0,0
			C14.5,24.5,14.3,24.4,14.3,24.3z"/>
		<path class="st0" d="M14.3,30.1v-4.7c0-0.2,0.1-0.3,0.3-0.3l0,0c0.2,0,0.3,0.1,0.3,0.3v4.7c0,0.2-0.1,0.3-0.3,0.3l0,0
			C14.5,30.3,14.3,30.2,14.3,30.1z"/>
		<path class="st0" d="M17.1,24.3v-4.7c0-0.2,0.1-0.3,0.3-0.3l0,0c0.2,0,0.3,0.1,0.3,0.3v4.7c0,0.2-0.1,0.3-0.3,0.3l0,0
			C17.2,24.5,17.1,24.4,17.1,24.3z"/>
		<path class="st0" d="M17.1,30.1v-4.7c0-0.2,0.1-0.3,0.3-0.3l0,0c0.2,0,0.3,0.1,0.3,0.3v4.7c0,0.2-0.1,0.3-0.3,0.3l0,0
			C17.2,30.3,17.1,30.2,17.1,30.1z"/>
		<circle class="st0" cx="16" cy="8.5" r="1.2"/>
		<path class="st0" d="M16,13L16,13c-0.2,0-0.4-0.2-0.4-0.4v-0.4c0-0.2,0.2-0.4,0.4-0.4l0,0c0.2,0,0.4,0.2,0.4,0.4v0.4
			C16.4,12.8,16.2,13,16,13z"/>
		<path class="st0" d="M16,14.4L16,14.4c-0.2,0-0.4-0.2-0.4-0.4v-0.4c0-0.2,0.2-0.4,0.4-0.4l0,0c0.2,0,0.4,0.2,0.4,0.4v0.4
			C16.4,14.3,16.2,14.4,16,14.4z"/>
		<path class="st0" d="M16,15.9L16,15.9c-0.2,0-0.4-0.2-0.4-0.4v-0.4c0-0.2,0.2-0.4,0.4-0.4l0,0c0.2,0,0.4,0.2,0.4,0.4v0.4
			C16.4,15.7,16.2,15.9,16,15.9z"/>
		<path class="st0" d="M16,17.4L16,17.4c-0.2,0-0.4-0.2-0.4-0.4v-0.4c0-0.2,0.2-0.4,0.4-0.4l0,0c0.2,0,0.4,0.2,0.4,0.4V17
			C16.4,17.2,16.2,17.4,16,17.4z"/>
		<path class="st0" d="M16,18.9L16,18.9c-0.2,0-0.4-0.2-0.4-0.4v-0.4c0-0.2,0.2-0.4,0.4-0.4l0,0c0.2,0,0.4,0.2,0.4,0.4v0.4
			C16.4,18.7,16.2,18.9,16,18.9z"/>
	</g>
</g>
</svg>
