<?xml version="1.0" encoding="utf-8"?>
<!-- Generator: Adobe Illustrator 27.4.1, SVG Export Plug-In . SVG Version: 6.00 Build 0)  -->
<svg version="1.1" id="Layer_1" xmlns="http://www.w3.org/2000/svg" xmlns:xlink="http://www.w3.org/1999/xlink" x="0px" y="0px"
	 viewBox="0 0 32 32" style="enable-background:new 0 0 32 32;" xml:space="preserve">
<style type="text/css">
	.st0{fill:none;stroke:#80C242;stroke-width:0.6712;stroke-miterlimit:10;}
	.st1{fill:#F59695;}
	.st2{fill:#80C242;}
	.st3{fill:#00BCF1;}
	.st4{fill:url(#SVGID_1_);}
	.st5{fill:url(#SVGID_00000147182632000884853930000009902324524912082576_);}
</style>
<g>
	<path class="st0" d="M21.6,2.3h-11C9.1,2.3,7.7,3.1,7,4.4l-5.5,9.5c-0.7,1.3-0.7,2.9,0,4.2L7,27.6c0.7,1.3,2.1,2.1,3.6,2.1h11
		c1.5,0,2.9-0.8,3.6-2.1l5.5-9.5c0.7-1.3,0.7-2.9,0-4.2l-5.5-9.5C24.5,3.1,23.1,2.3,21.6,2.3z"/>
	<g>
		<g>
			<path class="st1" d="M18.3,13.1c0.2,0.3,0.4,0.7,0.4,1.1c0,1.1-0.9,1.9-1.9,1.9s-1.9-0.9-1.9-1.9c0-0.4,0.1-0.8,0.4-1.1l1.6-2.2
				L18.3,13.1z"/>
			<path class="st2" d="M18.3,16.7c0.2,0.3,0.4,0.7,0.4,1.1c0,1.1-0.9,1.9-1.9,1.9s-1.9-0.9-1.9-1.9c0-0.4,0.1-0.8,0.4-1.1l1.6-2.2
				L18.3,16.7z"/>
			<path class="st3" d="M16.4,14.9c0.2,0.3,0.4,0.7,0.4,1.1c0,1.1-0.9,1.9-1.9,1.9s-1.9-0.9-1.9-1.9c0-0.4,0.1-0.8,0.4-1.1l1.6-2.2
				L16.4,14.9z"/>
		</g>
		<radialGradient id="SVGID_1_" cx="16.1846" cy="16.6227" r="11.7817" gradientUnits="userSpaceOnUse">
			<stop  offset="0.5191" style="stop-color:#00BCF1"/>
			<stop  offset="0.9009" style="stop-color:#A8CE38"/>
		</radialGradient>
		<path class="st4" d="M20.4,18.4c1,0,1.8,0.8,1.8,1.8v0.6l-0.6,0.8c-0.1,0.1-0.2,0.3-0.2,0.5c0,0.5,0.4,0.9,0.9,0.9
			c0.5,0,0.9-0.4,0.9-0.9c0-0.2-0.1-0.4-0.2-0.5l-0.6-0.8v-0.6c0-1.1-0.9-2.1-2.1-2.1h-0.9c0.1-0.2,0.2-0.5,0.3-0.8h2.7
			c0.8,0,1.4,0.5,1.6,1.1l-0.1,1c0,0.2,0,0.4,0.1,0.5c0.3,0.4,0.8,0.5,1.2,0.3c0.4-0.3,0.5-0.8,0.3-1.2c-0.1-0.2-0.2-0.3-0.4-0.3
			l-0.9-0.4c-0.3-0.7-1-1.2-1.8-1.2h-2.7c0.1-0.3,0.1-0.6,0.1-1h4.6l0.8,0.6c0.1,0.1,0.3,0.2,0.5,0.2c0.5,0,0.9-0.4,0.9-0.9
			s-0.4-0.9-0.9-0.9c-0.2,0-0.4,0.1-0.5,0.2l-0.8,0.6H20c0-0.4,0-0.7-0.1-1h2.7c0.8,0,1.5-0.5,1.8-1.2l0.9-0.4
			c0.2-0.1,0.3-0.2,0.4-0.3c0.3-0.4,0.1-0.9-0.3-1.2c-0.4-0.3-0.9-0.1-1.2,0.3c-0.1,0.2-0.1,0.3-0.1,0.5l0.1,1
			c-0.3,0.7-0.9,1.1-1.6,1.1h-2.7c-0.1-0.3-0.2-0.5-0.3-0.8h0.9c1.1,0,2.1-0.9,2.1-2.1v-0.6l0.6-0.8c0.1-0.1,0.2-0.3,0.2-0.5
			c0-0.5-0.4-0.9-0.9-0.9c-0.5,0-0.9,0.4-0.9,0.9c0,0.2,0.1,0.4,0.2,0.5l0.6,0.8v0.6c0,1-0.8,1.8-1.8,1.8h-1c-0.5-1-1.2-1.8-1-3.6
			c0.1-1.2,1.1-2.5,3-2.7c3.9-0.5,7.4,3.9,7.4,8.7h0c0,0,0,0,0,0c0,0,0,0,0,0h0c0,4.8-3.4,9.2-7.4,8.7c-1.9-0.2-2.9-1.6-3-2.7
			c-0.2-1.7,0.5-2.6,1-3.6H20.4z"/>
		
			<radialGradient id="SVGID_00000099637068457819016300000003584537086424089760_" cx="16.1846" cy="16.6227" r="11.7817" gradientUnits="userSpaceOnUse">
			<stop  offset="0.5191" style="stop-color:#00BCF1"/>
			<stop  offset="0.9009" style="stop-color:#A8CE38"/>
		</radialGradient>
		<path style="fill:url(#SVGID_00000099637068457819016300000003584537086424089760_);" d="M11.8,18.4c-1,0-1.8,0.8-1.8,1.8v0.6
			l0.6,0.8c0.1,0.1,0.2,0.3,0.2,0.5c0,0.5-0.4,0.9-0.9,0.9C9.3,23,9,22.6,9,22.2C9,22,9,21.8,9.1,21.7l0.6-0.8v-0.6
			c0-1.1,0.9-2.1,2.1-2.1h0.9c-0.1-0.2-0.2-0.5-0.3-0.8H9.6c-0.8,0-1.4,0.5-1.6,1.1l0.1,1c0,0.2,0,0.4-0.1,0.5
			c-0.3,0.4-0.8,0.5-1.2,0.3c-0.4-0.3-0.5-0.8-0.3-1.2c0.1-0.2,0.2-0.3,0.4-0.3l0.9-0.4c0.3-0.7,1-1.2,1.8-1.2h2.7
			c-0.1-0.3-0.1-0.6-0.1-1H7.6l-0.8,0.6c-0.1,0.1-0.3,0.2-0.5,0.2c-0.5,0-0.9-0.4-0.9-0.9s0.4-0.9,0.9-0.9c0.2,0,0.4,0.1,0.5,0.2
			l0.8,0.6h4.6c0-0.4,0-0.7,0.1-1H9.6c-0.8,0-1.5-0.5-1.8-1.2l-0.9-0.4c-0.2-0.1-0.3-0.2-0.4-0.3c-0.3-0.4-0.1-0.9,0.3-1.2
			c0.4-0.3,0.9-0.1,1.2,0.3c0.1,0.2,0.1,0.3,0.1,0.5l-0.1,1c0.3,0.7,0.9,1.1,1.6,1.1h2.7c0.1-0.3,0.2-0.5,0.3-0.8h-0.9
			c-1.1,0-2.1-0.9-2.1-2.1v-0.6l-0.6-0.8C9,10.2,9,10,9,9.8C9,9.4,9.3,9,9.8,9c0.5,0,0.9,0.4,0.9,0.9c0,0.2-0.1,0.4-0.2,0.5L10,11.2
			v0.6c0,1,0.8,1.8,1.8,1.8h1c0.5-1,1.2-1.8,1-3.6c-0.1-1.2-1.1-2.5-3-2.7C6.8,6.8,3.4,11.2,3.4,16h0c0,0,0,0,0,0c0,0,0,0,0,0h0
			c0,4.8,3.4,9.2,7.4,8.7c1.9-0.2,2.9-1.6,3-2.7c0.2-1.7-0.5-2.6-1-3.6H11.8z"/>
	</g>
</g>
</svg>
