<?xml version="1.0" encoding="utf-8"?>
<!-- Generator: Adobe Illustrator 27.4.1, SVG Export Plug-In . SVG Version: 6.00 Build 0)  -->
<svg version="1.1" id="Layer_1" xmlns="http://www.w3.org/2000/svg" xmlns:xlink="http://www.w3.org/1999/xlink" x="0px" y="0px"
	 viewBox="0 0 32 32" style="enable-background:new 0 0 32 32;" xml:space="preserve">
<style type="text/css">
	.st0{fill:#009BC8;}
</style>
<g>
	<path class="st0" d="M13.8,21c1.2,1.2,3.1,1.2,4.4,0c1.2-1.2,1.2-3.2,0-4.4c-1.2-1.2-3.1-1.2-4.4,0C12.6,17.8,12.6,19.8,13.8,21z
		 M15.3,18.1c0.3-0.3,0.9-0.3,1.3,0c0.3,0.3,0.3,0.9,0,1.3c-0.3,0.3-0.9,0.3-1.3,0C15,19.1,15,18.5,15.3,18.1z"/>
	<polygon class="st0" points="19.2,2 16,11 12.7,2 16,4.4 	"/>
	<polygon class="st0" points="0,24.2 9.4,22.6 3.3,29.9 3.7,25.9 	"/>
	<polygon class="st0" points="28.7,29.9 22.6,22.6 32,24.2 28.3,25.9 	"/>
	<path class="st0" d="M22.6,25.4c-3.6,3.7-9.5,3.7-13.1,0C9.3,25.3,9.2,25.1,9,25l-1.1,1.4c0.1,0.1,0.2,0.2,0.3,0.3
		c4.3,4.4,11.3,4.4,15.6,0c0.1-0.1,0.2-0.2,0.3-0.3L23,25C22.8,25.1,22.7,25.3,22.6,25.4z"/>
	<path class="st0" d="M17.9,9.6c1.7,0.3,3.4,1.2,4.7,2.6c2.5,2.6,3.3,6.2,2.3,9.5l1.8,0.3c1.1-3.8,0.2-8-2.8-11
		c-1.5-1.5-3.4-2.5-5.4-3L17.9,9.6z"/>
	<path class="st0" d="M5.4,21.9l1.7-0.3c-1-3.2-0.2-6.9,2.3-9.4c1.3-1.4,3-2.2,4.7-2.5L13.5,8c-2,0.5-3.8,1.4-5.3,3
		C5.2,13.9,4.3,18.2,5.4,21.9z"/>
</g>
</svg>
