<?xml version="1.0" encoding="utf-8"?>
<!-- Generator: Adobe Illustrator 26.1.0, SVG Export Plug-In . SVG Version: 6.00 Build 0)  -->
<svg version="1.1" id="Layer_1" xmlns="http://www.w3.org/2000/svg" xmlns:xlink="http://www.w3.org/1999/xlink" x="0px" y="0px"
	 viewBox="0 0 48.3 48.3" style="enable-background:new 0 0 48.3 48.3;" xml:space="preserve">
<style type="text/css">
	.st0{fill:#F9A51A;}
	.st1{fill:#FFFFFF;}
</style>
<g>
	<g>
		<polygon class="st0" points="48.3,27.9 20.5,0.1 0.2,0.1 48.3,48.3 		"/>
		<g>
			<path class="st1" d="M23.1,6.9l-1.5,6.6l0,0l4.1-4.1l1.2,1.2l-6.1,6.1l-1.3-1.3L21,8.8l0,0l-4.1,4.1l-1.2-1.2l6.1-6.1L23.1,6.9z"
				/>
			<path class="st1" d="M32.6,16.4l-1.1,1.1l-3.2-3.2L27,15.7l2.9,2.9l-1,1L26,16.7l-1.5,1.5l3.3,3.3l-1.1,1.1L22,18l6.1-6.1
				L32.6,16.4z"/>
			<path class="st1" d="M32.1,28l3.1-5.2l0,0L30,26l-1.3-1.3l4.5-7.7l1.3,1.3l-3.2,5.1l0,0l5.2-3.1l1.2,1.2l-3.1,5.2l0,0l5.2-3.2
				l1.3,1.3l-7.7,4.4L32.1,28z"/>
		</g>
	</g>
</g>
</svg>
