<?xml version="1.0" encoding="UTF-8"?>
<svg id="Layer_1" xmlns="http://www.w3.org/2000/svg" xmlns:xlink="http://www.w3.org/1999/xlink" version="1.1" viewBox="0 0 200 200">
  <!-- Generator: Adobe Illustrator 29.2.1, SVG Export Plug-In . SVG Version: 2.1.0 Build 116)  -->
  <defs>
    <style>
      .st0 {
        fill: url(#linear-gradient2);
      }

      .st1 {
        fill: url(#linear-gradient1);
      }

      .st2 {
        fill: url(#linear-gradient3);
      }

      .st3 {
        fill: url(#linear-gradient5);
      }

      .st4 {
        fill: url(#linear-gradient4);
      }

      .st5 {
        fill: url(#linear-gradient);
      }
    </style>
    <linearGradient id="linear-gradient" x1="100" y1="164.8" x2="100" y2="38.5" gradientTransform="translate(0 202) scale(1 -1)" gradientUnits="userSpaceOnUse">
      <stop offset="0" stop-color="#717dbc"/>
      <stop offset="1" stop-color="#b496c6"/>
      <stop offset="1" stop-color="#231f20"/>
    </linearGradient>
    <linearGradient id="linear-gradient1" x1="100" y1="164.8" x2="100" y2="38.5" xlink:href="#linear-gradient"/>
    <linearGradient id="linear-gradient2" x1="64.6" x2="64.6" xlink:href="#linear-gradient"/>
    <linearGradient id="linear-gradient3" x1="48.6" y1="164.8" x2="48.6" y2="38.5" xlink:href="#linear-gradient"/>
    <linearGradient id="linear-gradient4" x1="135.4" x2="135.4" xlink:href="#linear-gradient"/>
    <linearGradient id="linear-gradient5" x1="151.4" y1="164.8" x2="151.4" y2="38.5" xlink:href="#linear-gradient"/>
  </defs>
  <path class="st5" d="M100,64.5c6.8,0,12.4-5.5,12.4-12.4s-5.6-12.4-12.4-12.4-12.4,5.6-12.4,12.4,5.6,12.4,12.4,12.4Z"/>
  <path class="st1" d="M109.3,69h-18.6l-5.3,7.3v80.9c0,2.6,2.5,4.6,5.5,4.6s5.5-2.1,5.5-4.6v-38.3h7.3v38.3c0,2.6,2.4,4.6,5.5,4.6s5.5-2.1,5.5-4.6v-38.3h0v-42.6s-5.3-7.3-5.3-7.3Z"/>
  <path class="st0" d="M64.6,64.5c6.8,0,12.4-5.5,12.4-12.4s-5.6-12.4-12.4-12.4-12.4,5.6-12.4,12.4,5.6,12.4,12.4,12.4Z"/>
  <path class="st2" d="M74,68.9c0,0,0,.1-.1.2h-18.6s0-.1-.1-.2l-29.3-29.3c-1.8-1.8-4.7-1.8-6.6,0-1.8,1.8-1.8,4.8,0,6.6l29.3,29.3c.4.4.9.7,1.3.9v80.9c0,2.6,2.5,4.6,5.5,4.6s5.5-2.1,5.5-4.6v-38.3h7.3v38.3c0,2.6,2.4,4.6,5.5,4.6s5.5-2.1,5.5-4.6v-38.3h0v-42.6s-5.2-7.4-5.2-7.4Z"/>
  <path class="st4" d="M135.4,64.5c6.8,0,12.4-5.5,12.4-12.4s-5.6-12.4-12.4-12.4-12.4,5.6-12.4,12.4,5.6,12.4,12.4,12.4Z"/>
  <path class="st3" d="M120.8,76.3v80.9c0,2.6,2.4,4.6,5.5,4.6s5.5-2.1,5.5-4.6v-38.3h7.3v38.3c0,2.6,2.4,4.6,5.5,4.6s5.5-2.1,5.5-4.6v-38.3h0v-42.6c.5-.2.9-.5,1.3-.9l29.3-29.3c1.8-1.8,1.8-4.7,0-6.6-1.8-1.8-4.7-1.8-6.6,0l-29.3,29.3s0,.1-.1.2h-18.6l-5.3,7.3h0Z"/>
</svg>