<?xml version="1.0" encoding="UTF-8"?>
<svg id="Layer_1" xmlns="http://www.w3.org/2000/svg" xmlns:xlink="http://www.w3.org/1999/xlink" version="1.1" viewBox="0 0 200 200">
  <!-- Generator: Adobe Illustrator 29.2.1, SVG Export Plug-In . SVG Version: 2.1.0 Build 116)  -->
  <defs>
    <style>
      .st0 {
        fill: url(#linear-gradient);
      }
    </style>
    <linearGradient id="linear-gradient" x1="100" y1="164.7" x2="100" y2="35.3" gradientUnits="userSpaceOnUse">
      <stop offset="0" stop-color="#717dbc"/>
      <stop offset="1" stop-color="#b496c6"/>
      <stop offset="1" stop-color="#231f20"/>
    </linearGradient>
  </defs>
  <path class="st0" d="M143.6,110.8c-4,0-7.8.9-11.2,2.5l-16.8-29.2c6.8-4.9,11.3-12.8,11.3-21.9,0-14.9-12.1-27-26.9-27s-27,12.1-27,27,4.5,17.1,11.4,22l-16.8,29.2c-3.4-1.6-7.3-2.6-11.3-2.6-14.9,0-26.9,12.1-26.9,27s12.1,27,26.9,27,25.4-10.7,26.7-24.4h33.8c1.3,13.7,12.7,24.4,26.7,24.4s26.9-12.1,26.9-27-12.1-27-26.9-27h0ZM88.7,86.6c3.4,1.6,7.3,2.6,11.3,2.6s7.9-1,11.4-2.6l16.7,29.2c-6.3,4.5-10.6,11.6-11.3,19.7h-33.8c-.7-8.1-4.9-15.2-11.2-19.6,0,0,16.8-29.2,16.8-29.2Z"/>
</svg>