<?xml version="1.0" encoding="UTF-8"?><svg id="Layer_1" xmlns="http://www.w3.org/2000/svg" viewBox="0 0 735.95330810546875 81.866143108582037"><defs><style>.cls-1{fill:#6f7cbc;}.cls-2{fill:#6ba0d6;}.cls-3{fill:#b598c7;}.cls-4{fill:#b698c7;}</style></defs><path class="cls-3" d="M555.02752685546875,26.266716839050787c68.96099853515625,10.85357666015625,109.24920654296875,54.50970458984375,166.1181640625,54.50970458984375l-.11151123046875,1.0897216796875h14.91912841796875V.268120647644537c-19.4554443359375-.66558837890625-113.51898193359375-2.234130859375-180.92578125,25.99859619140625Z"/><path class="cls-4" d="M72.85498046875,81.866143108582037c44.60528564453125-.17828369140625,64.49554443359375-24.51123046875,102.76861572265625-24.51123046875,38.41375732421875,0,33.6915283203125,23.248046875,107.068115234375,23.248046875,33.70831298828125,0,58.37445068359375-3.968505859375,78.56146240234375-9.80511474609375-50.47552490234375-10.30816650390625-53.231201171875-33.60333251953125-119.4271240234375-33.60333251953125-85.00067138671875,0-120.9625244140625,44.13494873046875-187.98223876953125,44.13494873046875H0v.53668212890625h72.85498046875Z"/><path class="cls-2" d="M530.337890625,38.829155803894537c7.63018798828125-4.7373046875,15.9385986328125-8.89715576171875,24.68963623046875-12.56243896484375-9.78887939453125-1.5406494140625-20.154296875-2.42169189453125-31.2281494140625-2.42169189453125-84.90777587890625,0-106.3760986328125,30.712646484375-162.54620361328125,46.95281982421875,14.33892822265625,2.92828369140625,32.52191162109375,4.8104248046875,57.11273193359375,4.8104248046875,47.4041748046875,0,75.1475830078125-13.91607666015625,111.97198486328125-36.77911376953125Z"/><path class="cls-1" d="M555.02752685546875,26.266716839050787c-8.75103759765625,3.665283203125-17.0594482421875,7.82513427734375-24.68963623046875,12.56243896484375-36.82440185546875,22.863037109375-64.56781005859375,36.77911376953125-111.97198486328125,36.77911376953125-24.5908203125,0-42.7738037109375-1.88214111328125-57.11273193359375-4.8104248046875-20.18701171875,5.83660888671875-44.8531494140625,9.80511474609375-78.56146240234375,9.80511474609375-73.3765869140625,0-68.65435791015625-23.248046875-107.068115234375-23.248046875-38.2730712890625,0-58.163330078125,24.33294677734375-102.76861572265625,24.51123046875h648.17919921875l.11151123046875-1.0897216796875c-56.86895751953125,0-97.15716552734375-43.6561279296875-166.1181640625-54.50970458984375Z"/></svg>