<?xml version="1.0" encoding="utf-8"?>
<!-- Generator: Adobe Illustrator 27.4.1, SVG Export Plug-In . SVG Version: 6.00 Build 0)  -->
<svg version="1.1" id="Layer_1" xmlns="http://www.w3.org/2000/svg" xmlns:xlink="http://www.w3.org/1999/xlink" x="0px" y="0px"
	 viewBox="0 0 32 32" style="enable-background:new 0 0 32 32;" xml:space="preserve">
<style type="text/css">
	.st0{fill:#5481C1;}
	.st1{fill:none;stroke:#FFFFFF;stroke-width:0.7866;stroke-linecap:round;stroke-linejoin:round;stroke-miterlimit:10;}
	.st2{fill:#F298BF;}
	.st3{fill:#BCD431;}
	.st4{fill:#D8B888;}
</style>
<g>
	<path class="st0" d="M28.9,23.2V8.7c0-0.5-0.3-1-0.7-1.3l-13-7.2c-0.5-0.3-1-0.3-1.6,0l-13,7.2C0.3,7.7,0,8.2,0,8.7v14.5
		c0,0.5,0.3,1,0.7,1.3l13,7.2c0.5,0.3,1,0.3,1.6,0l13-7.2C28.7,24.2,28.9,23.7,28.9,23.2z"/>
	<g>
		<path class="st1" d="M24.4,11.2c-0.9,1-2.2,1.8-3.6,1.8h-1.2c-7.3,0-13,5.7-13,12.5v2.5"/>
		<line class="st1" x1="5.5" y1="18.6" x2="6.9" y2="22.1"/>
		<line class="st1" x1="8" y1="19.8" x2="10.7" y2="20.1"/>
		<line class="st1" x1="9.7" y1="17.2" x2="8.6" y2="14.2"/>
		<line class="st1" x1="11.8" y1="15.6" x2="15.4" y2="16.6"/>
		<line class="st1" x1="14.7" y1="13.9" x2="14.9" y2="12.1"/>
		<line class="st1" x1="18.3" y1="13.2" x2="20.6" y2="14.8"/>
		<line class="st1" x1="21.3" y1="13.1" x2="22.1" y2="11.2"/>
	</g>
	<path class="st2" d="M30.6,5.1c-0.5,0-1,0.5-1,1s0.5,1,1,1s1-0.5,1-1S31.1,5.1,30.6,5.1z"/>
	<path class="st3" d="M28.9,7.9c-0.5,0-0.9,0.3-0.9,0.8c0,0.5,0.3,0.8,0.9,0.8s0.9-0.3,0.9-0.8C29.8,8.2,29.4,7.9,28.9,7.9z"/>
	<ellipse class="st3" cx="30.6" cy="10.1" rx="1" ry="1"/>
	<ellipse class="st3" cx="10.6" cy="14.1" rx="1" ry="1"/>
	<ellipse class="st3" cx="8.5" cy="12.2" rx="1" ry="1"/>
	<path class="st4" d="M5.9,12.8c-0.7,0-1.2,0.5-1.2,1.2s0.5,1.2,1.2,1.2c0.7,0,1.2-0.7,1.2-1.2C7.1,13.2,6.6,12.8,5.9,12.8z"/>
	<ellipse class="st3" cx="27" cy="14.6" rx="1" ry="1"/>
	<ellipse class="st3" cx="3.3" cy="18.1" rx="1.6" ry="1.5"/>
	<path class="st4" d="M24.7,12.6c-0.5,0-0.9,0.3-0.9,0.8c0,0.5,0.3,0.8,0.9,0.8c0.5,0,0.9-0.3,0.9-0.8
		C25.6,12.9,25.3,12.6,24.7,12.6z"/>
	<ellipse class="st3" cx="14.5" cy="17.9" rx="0.7" ry="0.7"/>
	<path class="st4" d="M23.7,9.1c-0.3,0-0.7,0.3-0.7,0.7s0.3,0.7,0.7,0.7s0.7-0.3,0.7-0.7C24.6,9.4,24.2,9.1,23.7,9.1z"/>
	<ellipse class="st3" cx="21.4" cy="9.8" rx="0.9" ry="0.8"/>
	<ellipse class="st3" cx="16.6" cy="11.8" rx="0.7" ry="0.7"/>
	<ellipse class="st3" cx="15" cy="10.8" rx="0.7" ry="0.7"/>
	<ellipse class="st3" cx="18" cy="10.2" rx="0.9" ry="0.8"/>
	<ellipse class="st3" cx="15.6" cy="15.1" rx="0.7" ry="0.7"/>
	<path class="st2" d="M21.3,15.4c-0.3,0-0.7,0.3-0.7,0.7c0,0.3,0.3,0.7,0.7,0.7c0.3,0,0.7-0.3,0.7-0.7C22,15.7,21.8,15.4,21.3,15.4z
		"/>
	<ellipse class="st3" cx="22.3" cy="14.2" rx="0.7" ry="0.7"/>
	<ellipse class="st3" cx="25.8" cy="11.2" rx="0.7" ry="0.7"/>
	<ellipse class="st3" cx="28.5" cy="6.9" rx="0.7" ry="0.7"/>
	<ellipse class="st3" cx="31.3" cy="8.1" rx="0.7" ry="0.7"/>
	<ellipse class="st3" cx="14.4" cy="20.1" rx="0.7" ry="0.7"/>
	<ellipse class="st3" cx="11.9" cy="24.1" rx="0.7" ry="0.7"/>
	<ellipse class="st3" cx="12.1" cy="20.6" rx="0.7" ry="0.7"/>
	<ellipse class="st3" cx="10.9" cy="22.6" rx="0.7" ry="0.7"/>
	<ellipse class="st3" cx="5" cy="21.1" rx="0.7" ry="0.7"/>
	<path class="st2" d="M7.1,16.9c-0.5,0-1,0.5-1,1s0.5,1,1,1s1-0.5,1-1C8.1,17.2,7.6,16.9,7.1,16.9z"/>
	<ellipse class="st3" cx="7.6" cy="15.7" rx="0.7" ry="0.7"/>
	<ellipse class="st3" cx="5.4" cy="16.4" rx="0.7" ry="0.7"/>
	<path class="st3" d="M19.9,10.6c-0.5,0-1,0.5-1,1c0,0.5,0.5,1,1,1s1-0.5,1-1C20.9,10.9,20.4,10.6,19.9,10.6z"/>
	<ellipse class="st3" cx="24" cy="15.7" rx="1.2" ry="1.2"/>
	<ellipse class="st3" cx="19.5" cy="17.6" rx="1" ry="1"/>
	<path class="st3" d="M16.8,17.4c-0.5,0-1,0.5-1,1s0.5,1,1,1s1-0.5,1-1C17.8,17.8,17.3,17.4,16.8,17.4z"/>
	<ellipse class="st3" cx="4.5" cy="23.2" rx="1" ry="1"/>
	<path class="st4" d="M2.8,20.1c-0.5,0-1,0.5-1,1s0.5,1,1,1s1-0.5,1-1C3.8,20.4,3.3,20.1,2.8,20.1z"/>
	<path class="st4" d="M13.3,21.2c-0.5,0-1,0.5-1,1s0.5,1,1,1c0.5,0,1-0.5,1-1C14.4,21.6,14,21.2,13.3,21.2z"/>
	<path class="st4" d="M9,20.6c-0.5,0-0.9,0.3-0.9,0.8s0.3,0.8,0.9,0.8s0.9-0.3,0.9-0.8C9.9,21.1,9.5,20.6,9,20.6z"/>
	<path class="st2" d="M9,23.1c-0.9,0-1.6,0.7-1.6,1.5s0.7,1.3,1.6,1.3c0.9,0,1.6-0.7,1.6-1.3S9.9,23.1,9,23.1z"/>
	<ellipse class="st3" cx="26.1" cy="8.6" rx="1.6" ry="1.5"/>
	<path class="st2" d="M28.4,10.4c-0.9,0-1.6,0.7-1.6,1.5c0,0.8,0.7,1.5,1.6,1.5s1.6-0.7,1.6-1.5C29.8,11.1,29.1,10.4,28.4,10.4z"/>
	<path class="st2" d="M12.6,10.6c-0.9,0-1.6,0.7-1.6,1.5c0,0.8,0.7,1.5,1.6,1.5c0.9,0,1.4-0.8,1.4-1.7S13.3,10.6,12.6,10.6z"/>
	<ellipse class="st3" cx="18" cy="15.6" rx="1.4" ry="1.3"/>
	<path class="st3" d="M11.9,16.8c-0.9,0-1.4,0.7-1.4,1.3c0,0.8,0.7,1.3,1.4,1.3c0.9,0,1.4-0.7,1.4-1.3
		C13.3,17.2,12.8,16.8,11.9,16.8z"/>
</g>
</svg>
