<?xml version="1.0" encoding="utf-8"?>
<!-- Generator: Adobe Illustrator 27.4.1, SVG Export Plug-In . SVG Version: 6.00 Build 0)  -->
<svg version="1.1" id="Layer_1" xmlns="http://www.w3.org/2000/svg" xmlns:xlink="http://www.w3.org/1999/xlink" x="0px" y="0px"
	 viewBox="0 0 32 32" style="enable-background:new 0 0 32 32;" xml:space="preserve">
<style type="text/css">
	.st0{fill:url(#SVGID_1_);}
	.st1{fill:#FFFFFF;}
	.st2{fill:none;stroke:#FFFFFF;stroke-width:0.8609;stroke-linecap:round;stroke-linejoin:round;stroke-miterlimit:10;}
</style>
<g>
	<linearGradient id="SVGID_1_" gradientUnits="userSpaceOnUse" x1="15.9628" y1="0.2749" x2="15.9628" y2="31.8323">
		<stop  offset="0.3231" style="stop-color:#F4825C"/>
		<stop  offset="1" style="stop-color:#BC516F"/>
	</linearGradient>
	<circle class="st0" cx="16" cy="16.1" r="15.8"/>
	<g>
		<g>
			<g>
				<path class="st1" d="M7.6,19.7L7.6,19.7c-0.4,0-0.7-0.3-0.7-0.7V13c0-0.4,0.3-0.7,0.7-0.7h0c0.4,0,0.7,0.3,0.7,0.7v6.1
					C8.3,19.4,8,19.7,7.6,19.7z"/>
				<path class="st1" d="M10.5,19.3L10.5,19.3c-0.4,0-0.7-0.3-0.7-0.7v-5.1c0-0.4,0.3-0.7,0.7-0.7h0c0.4,0,0.7,0.3,0.7,0.7v5.1
					C11.1,19,10.8,19.3,10.5,19.3z"/>
				<path class="st1" d="M13.3,17.9L13.3,17.9c-0.4,0-0.7-0.3-0.7-0.7v-2.4c0-0.4,0.3-0.7,0.7-0.7h0c0.4,0,0.7,0.3,0.7,0.7v2.4
					C13.9,17.6,13.6,17.9,13.3,17.9z"/>
				<path class="st1" d="M16.1,17.4L16.1,17.4c-0.4,0-0.7-0.3-0.7-0.7v-1.4c0-0.4,0.3-0.7,0.7-0.7h0c0.4,0,0.7,0.3,0.7,0.7v1.4
					C16.8,17.1,16.5,17.4,16.1,17.4z"/>
				<path class="st1" d="M18.9,17.9L18.9,17.9c-0.4,0-0.7-0.3-0.7-0.7v-2.4c0-0.4,0.3-0.7,0.7-0.7l0,0c0.4,0,0.7,0.3,0.7,0.7v2.4
					C19.6,17.6,19.3,17.9,18.9,17.9z"/>
				<path class="st1" d="M21.7,19.3L21.7,19.3c-0.4,0-0.7-0.3-0.7-0.7v-5.1c0-0.4,0.3-0.7,0.7-0.7h0c0.4,0,0.7,0.3,0.7,0.7v5.1
					C22.4,19,22.1,19.3,21.7,19.3z"/>
				<path class="st1" d="M24.6,19.7L24.6,19.7c-0.4,0-0.7-0.3-0.7-0.7V13c0-0.4,0.3-0.7,0.7-0.7h0c0.4,0,0.7,0.3,0.7,0.7v6.1
					C25.2,19.4,24.9,19.7,24.6,19.7z"/>
				<path class="st1" d="M27.4,19.3L27.4,19.3c-0.4,0-0.7-0.3-0.7-0.7v-5.1c0-0.4,0.3-0.7,0.7-0.7l0,0c0.4,0,0.7,0.3,0.7,0.7v5.1
					C28.1,19,27.8,19.3,27.4,19.3z"/>
				<g>
					<path class="st1" d="M2.2,17.2v0.1c0,0.3,0.3,0.6,0.6,0.6H5c0.3,0,0.6-0.3,0.6-0.6v-0.1c0-0.3-0.3-0.6-0.6-0.6H2.8
						C2.5,16.6,2.2,16.8,2.2,17.2z"/>
					<path class="st1" d="M4.2,12.6L4.2,12.6c-0.3-0.1-0.7,0.1-0.8,0.4l-1.8,5.5c-0.1,0.3,0.1,0.7,0.4,0.8l0,0
						c0.3,0.1,0.7-0.1,0.8-0.4l1.8-5.5C4.7,13.1,4.5,12.7,4.2,12.6z"/>
					<path class="st1" d="M6,19.4L6,19.4c-0.3,0.1-0.7-0.1-0.8-0.4l-1.8-5.5c-0.1-0.3,0.1-0.7,0.4-0.8h0c0.3-0.1,0.7,0.1,0.8,0.4
						l1.8,5.5C6.5,18.9,6.3,19.3,6,19.4z"/>
				</g>
				<path class="st1" d="M30.4,13.5L30.4,13.5c0,0.4-0.3,0.7-0.7,0.7h-2.4c-0.4,0-0.7-0.3-0.7-0.7v0c0-0.4,0.3-0.7,0.7-0.7h2.4
					C30.1,12.8,30.4,13.1,30.4,13.5z"/>
				<path class="st1" d="M30,16L30,16c0,0.4-0.3,0.7-0.7,0.7h-1.9c-0.4,0-0.7-0.3-0.7-0.7v0c0-0.4,0.3-0.7,0.7-0.7h1.9
					C29.7,15.3,30,15.6,30,16z"/>
			</g>
			<polygon class="st1" points="29.1,17.3 29.1,14.7 30.4,16 			"/>
		</g>
		<path class="st2" d="M6.3,9.2c5.3-5.3,14-5.3,19.4,0"/>
		<path class="st2" d="M25.6,22.9c-5.3,5.3-14,5.3-19.4,0"/>
	</g>
</g>
</svg>
