<?xml version="1.0" encoding="UTF-8"?>
<svg id="Layer_1" xmlns="http://www.w3.org/2000/svg" xmlns:xlink="http://www.w3.org/1999/xlink" version="1.1" viewBox="0 0 200 200">
  <!-- Generator: Adobe Illustrator 29.2.1, SVG Export Plug-In . SVG Version: 2.1.0 Build 116)  -->
  <defs>
    <style>
      .st0 {
        fill: url(#linear-gradient);
      }
    </style>
    <linearGradient id="linear-gradient" x1="100" y1="163.2" x2="100" y2="37.9" gradientUnits="userSpaceOnUse">
      <stop offset="0" stop-color="#717dbc"/>
      <stop offset="1" stop-color="#b496c6"/>
      <stop offset="1" stop-color="#231f20"/>
    </linearGradient>
  </defs>
  <path class="st0" d="M165.5,95.2l-8.4-11.5h-29.4l-.4.6c-6.8-6-12.3-13.7-15.6-22.7h11.7c2.1,8.6,9.8,15,19,15s19.6-8.8,19.6-19.6-8.8-19.6-19.6-19.6-17,6.5-19,15.1h-27v-1.5h-29.3v-2.2h-32.5v16.3h32.5v-.9c10.7,20.4,30.4,33.7,52.1,36.9v61.5h46.3v-67.4h0ZM81.7,63h14.6v-1.5h1.2c2.6,8.8,6.7,16.7,12,23.5-11.2-4.1-21-11.7-27.8-22Z"/>
</svg>