<?xml version="1.0" encoding="UTF-8" standalone="no"?>
<!-- Created with Inkscape (http://www.inkscape.org/) -->

<svg
   width="19.699347mm"
   height="22.145418mm"
   viewBox="0 0 19.699347 22.145418"
   version="1.1"
   id="svg1"
   inkscape:version="1.3 (0e150ed, 2023-07-21)"
   sodipodi:docname="sysbio_v4.svg"
   xmlns:inkscape="http://www.inkscape.org/namespaces/inkscape"
   xmlns:sodipodi="http://sodipodi.sourceforge.net/DTD/sodipodi-0.dtd"
   xmlns="http://www.w3.org/2000/svg"
   xmlns:svg="http://www.w3.org/2000/svg">
  <sodipodi:namedview
     id="namedview1"
     pagecolor="#ffffff"
     bordercolor="#000000"
     borderopacity="0.25"
     inkscape:showpageshadow="2"
     inkscape:pageopacity="0.0"
     inkscape:pagecheckerboard="0"
     inkscape:deskcolor="#d1d1d1"
     inkscape:document-units="mm"
     showguides="true"
     inkscape:zoom="0.65386757"
     inkscape:cx="1963.7004"
     inkscape:cy="516.15957"
     inkscape:window-width="1456"
     inkscape:window-height="916"
     inkscape:window-x="0"
     inkscape:window-y="38"
     inkscape:window-maximized="0"
     inkscape:current-layer="layer1" />
  <defs
     id="defs1" />
  <g
     inkscape:label="Layer 1"
     inkscape:groupmode="layer"
     id="layer1"
     transform="translate(-396.85718,-74.125191)">
    <g
       id="g587"
       inkscape:export-filename="sb-color-h.svg"
       inkscape:export-xdpi="1146.96"
       inkscape:export-ydpi="1146.96">
      <g
         id="g586">
        <path
           style="color:#000000;fill:#ff00c6;stroke-linecap:round;stroke-linejoin:round;-inkscape-stroke:none"
           d="m 403.60937,74.525391 a 0.75,0.75 0 0 0 -1.03906,0.214843 0.75,0.75 0 0 0 0.2168,1.039063 c 0.29526,0.193778 0.44071,0.279202 0.51758,0.328125 a 0.750075,0.750075 0 0 0 0.13672,0.06836 c 0.57831,0.21788 1.03077,0.477683 1.30859,0.775391 0.27782,0.297707 0.42838,0.61959 0.42187,1.195312 a 0.75,0.75 0 0 0 0.74219,0.757813 0.75,0.75 0 0 0 0.75781,-0.740235 c 0.0102,-0.902895 -0.3102,-1.683436 -0.82617,-2.236328 -0.51596,-0.552891 -1.18058,-0.892677 -1.875,-1.154297 l 0.13867,0.06836 c -0.11953,-0.07608 -0.22408,-0.135324 -0.5,-0.316407 z m -5.99414,8.917968 a 0.75,0.75 0 0 0 -0.75781,0.740235 c -0.015,1.32921 0.71913,2.328424 1.64649,2.890625 0.92735,0.5622 2.02857,0.82707 3.07421,1.095703 1.04565,0.268632 2.03499,0.540849 2.66993,0.925781 0.63493,0.384932 0.93344,0.744254 0.92382,1.591797 a 0.75,0.75 0 0 0 0.74219,0.757812 0.75,0.75 0 0 0 0.75781,-0.740234 c 0.0151,-1.329213 -0.71913,-2.328417 -1.64648,-2.890625 -0.92735,-0.562208 -2.02858,-0.82707 -3.07422,-1.095703 -1.04564,-0.268633 -2.03497,-0.540849 -2.66992,-0.925781 -0.63495,-0.384933 -0.93343,-0.744264 -0.92383,-1.591797 a 0.75,0.75 0 0 0 -0.74219,-0.757813 z"
           id="path594" />
        <path
           style="color:#000000;fill:#0000c6;stroke-linecap:round;stroke-linejoin:round;-inkscape-stroke:none"
           d="m 405.14844,74.451172 a 0.75,0.75 0 0 0 -0.54492,0.18164 c -0.77831,0.67416 -2.58365,1.013487 -4.2754,1.519532 -0.84587,0.253022 -1.67659,0.563128 -2.3496,1.130859 -0.67302,0.567731 -1.13318,1.450377 -1.1211,2.517578 0.015,1.325129 0.76584,2.298584 1.69922,2.814453 0.93338,0.515869 2.02529,0.719116 3.05859,0.929688 1.03331,0.210572 2.00812,0.429258 2.63086,0.773437 0.62275,0.34418 0.91612,0.667916 0.92578,1.519532 0.01,0.847541 -0.28888,1.206865 -0.92382,1.591796 -0.63494,0.384932 -1.62429,0.65715 -2.66993,0.925782 -1.04563,0.268631 -2.14686,0.533498 -3.07421,1.095703 -0.92735,0.562204 -1.66154,1.559459 -1.64649,2.888672 0.009,0.805743 0.27089,1.508406 0.70899,2.02539 0.4381,0.516984 1.01222,0.844378 1.61523,1.082032 l -0.0625,-0.02734 c 0,0 0.0876,0.04479 0.18164,0.09766 0.0941,0.05287 0.25611,0.214214 0.0937,0.03711 a 0.75,0.75 0 0 0 1.05859,0.04687 0.75,0.75 0 0 0 0.0469,-1.060546 c -0.2504,-0.273155 -0.33421,-0.259704 -0.46289,-0.332032 -0.12868,-0.07233 -0.24219,-0.128906 -0.24219,-0.128906 a 0.750075,0.750075 0 0 0 -0.0625,-0.02734 c -0.46285,-0.182413 -0.8044,-0.402036 -1.02148,-0.658203 -0.21708,-0.256167 -0.34765,-0.552477 -0.35352,-1.070312 -0.01,-0.847544 0.28889,-1.206865 0.92383,-1.591797 0.63494,-0.384933 1.62429,-0.65715 2.66992,-0.925781 1.04564,-0.268632 2.14687,-0.533501 3.07422,-1.095704 0.92735,-0.562202 1.66154,-1.561414 1.64648,-2.890625 -0.015,-1.32513 -0.76582,-2.298587 -1.69921,-2.814453 -0.93339,-0.515865 -2.02529,-0.719115 -3.0586,-0.929687 -1.0333,-0.210572 -2.00813,-0.429261 -2.63086,-0.773438 -0.62273,-0.344176 -0.91613,-0.667913 -0.92578,-1.519531 -0.008,-0.680475 0.19246,-1.01829 0.58985,-1.353516 0.39739,-0.335225 1.04533,-0.610364 1.8125,-0.839843 1.53433,-0.458959 3.49318,-0.6696 4.82617,-1.824219 a 0.75,0.75 0 0 0 0.0762,-1.056641 0.75,0.75 0 0 0 -0.51367,-0.257812 z"
           id="path593" />
        <path
           style="color:#000000;fill:#ff00c6;stroke-linecap:round;stroke-linejoin:round;-inkscape-stroke:none"
           d="m 405.93164,77.404297 a 0.75,0.75 0 0 0 -0.75977,0.742187 c -0.01,0.851621 -0.30305,1.175356 -0.92578,1.519532 -0.62273,0.344176 -1.59755,0.562865 -2.63086,0.773437 -1.0333,0.210572 -2.1252,0.413821 -3.05859,0.929688 -0.93339,0.515866 -1.68418,1.48932 -1.69922,2.814453 a 0.75,0.75 0 0 0 0.74024,0.759765 0.75,0.75 0 0 0 0.75976,-0.742187 c 0.01,-0.851619 0.30304,-1.175352 0.92578,-1.519531 0.62275,-0.34418 1.59756,-0.562866 2.63086,-0.773438 1.03331,-0.210572 2.12521,-0.413818 3.0586,-0.929687 0.93338,-0.51587 1.68421,-1.489323 1.69921,-2.814454 a 0.75,0.75 0 0 0 -0.74023,-0.759765 z"
           id="path592" />
        <path
           style="color:#000000;fill:#ff00c6;stroke-linecap:round;stroke-linejoin:round;-inkscape-stroke:none"
           d="m 405.93164,89.945312 a 0.75,0.75 0 0 0 -0.75977,0.742188 c -0.007,0.614205 -0.17711,0.923104 -0.48632,1.208984 -0.30922,0.28588 -0.81406,0.523926 -1.44727,0.708985 -1.37148,0.400817 -3.23769,0.499842 -4.69336,1.310547 -0.25697,0.143111 -0.50149,0.312466 -0.72265,0.517578 a 0.75,0.75 0 0 0 -0.041,1.060547 0.75,0.75 0 0 0 1.06055,0.03906 c 0.11795,-0.109388 0.26079,-0.211492 0.43164,-0.306641 0.9679,-0.539053 2.77587,-0.711439 4.38476,-1.18164 0.74282,-0.217091 1.46573,-0.511383 2.04492,-1.046875 0.5792,-0.535492 0.95794,-1.339209 0.96875,-2.294922 a 0.75,0.75 0 0 0 -0.74023,-0.757813 z"
           id="path591" />
        <path
           style="color:#000000;fill:#00b9ff;stroke-linecap:round;stroke-linejoin:bevel;-inkscape-stroke:none"
           d="m 402.85156,78.425781 -1.96094,0.002 a 0.5,0.5 0 0 0 -0.5,0.5 0.5,0.5 0 0 0 0.5,0.5 l 1.9629,-0.002 a 0.5,0.5 0 0 0 0.49804,-0.501953 0.5,0.5 0 0 0 -0.5,-0.498047 z"
           id="path590" />
        <path
           style="color:#000000;fill:#00b9ff;stroke-linecap:round;stroke-linejoin:bevel;-inkscape-stroke:none"
           d="m 400.89453,84.646484 a 0.5,0.5 0 0 0 -0.50391,0.496094 0.5,0.5 0 0 0 0.4961,0.503906 l 1.96094,0.01563 a 0.5,0.5 0 0 0 0.5039,-0.496093 0.5,0.5 0 0 0 -0.49609,-0.503907 z"
           id="path589" />
        <path
           style="color:#000000;fill:#00b9ff;stroke-linecap:round;stroke-linejoin:bevel;-inkscape-stroke:none"
           d="m 400.89453,90.958984 a 0.5,0.5 0 0 0 -0.50391,0.494141 0.5,0.5 0 0 0 0.4961,0.505859 l 1.96094,0.01563 a 0.5,0.5 0 0 0 0.5039,-0.496093 0.5,0.5 0 0 0 -0.49609,-0.503907 z"
           id="path588" />
      </g>
      <g
         id="g585">
        <path
           d="m 413.9153,84.579333 c -0.0494,0.02631 -0.097,0.05404 -0.14779,0.07906 -0.10351,0.05102 -0.21024,0.09939 -0.31884,0.145728 -0.10861,0.04634 -0.21952,0.0903 -0.33228,0.132808 -0.22554,0.08502 -0.45801,0.163429 -0.69454,0.238229 -0.23652,0.0748 -0.47675,0.146163 -0.71675,0.217558 -0.23999,0.07139 -0.47979,0.142759 -0.71572,0.217557 -0.23593,0.0748 -0.46812,0.153217 -0.69246,0.238229 -0.11217,0.04251 -0.22235,0.08647 -0.33021,0.132808 -0.10786,0.04634 -0.21365,0.09471 -0.31626,0.145728 -0.10261,0.05102 -0.20227,0.104681 -0.29869,0.16123 -0.0964,0.05655 -0.18925,0.116385 -0.27854,0.179317 -0.0893,0.06293 -0.1751,0.128788 -0.25631,0.198955 -0.0812,0.07017 -0.15776,0.144472 -0.22996,0.222725 -0.0722,0.07825 -0.13981,0.160857 -0.20206,0.248047 -0.0623,0.08719 -0.11918,0.178974 -0.17053,0.275952 -0.0514,0.09698 -0.0974,0.198824 -0.13694,0.306441 -0.0395,0.107617 -0.0725,0.220924 -0.0992,0.340031 -0.0267,0.119107 -0.0469,0.244239 -0.06,0.375688 -0.013,0.131449 -0.0192,0.269287 -0.0176,0.413928 -8.6e-4,0.07605 4e-4,0.149692 0.004,0.221175 0.003,0.07148 0.008,0.140599 0.0155,0.207739 0.007,0.06714 0.0163,0.132311 0.0269,0.195337 0.0106,0.06303 0.0228,0.123794 0.0367,0.182935 0.0278,0.118282 0.0618,0.2292 0.10128,0.333313 0.0394,0.104113 0.0843,0.20175 0.13333,0.293522 0.049,0.09177 0.10223,0.177638 0.15864,0.258899 0.0564,0.08126 0.11602,0.157899 0.17777,0.230477 0.0617,0.07258 0.12569,0.140982 0.19069,0.206706 0.065,0.06572 0.13074,0.128954 0.19688,0.189652 0.13228,0.121397 0.26485,0.23448 0.38913,0.346749 0.0621,0.05613 0.12232,0.11187 0.17931,0.168465 0.057,0.0566 0.11097,0.113714 0.16072,0.172599 0.0498,0.05889 0.0955,0.119414 0.13591,0.182418 0.007,0.01037 0.0107,0.02205 0.017,0.03256 0.006,-0.0025 0.0119,-0.0058 0.0181,-0.0083 0.11767,-0.0473 0.23829,-0.091 0.36173,-0.132291 0.12344,-0.04129 0.24961,-0.07986 0.37776,-0.116272 0.12815,-0.03641 0.25835,-0.07069 0.39015,-0.103353 0.13181,-0.03266 0.26506,-0.06401 0.39946,-0.09405 0.26882,-0.06009 0.54155,-0.115702 0.81442,-0.172083 0.27288,-0.05638 0.54594,-0.113472 0.81442,-0.175183 0.13425,-0.03086 0.26738,-0.06275 0.39895,-0.09664 0.13156,-0.03388 0.26129,-0.06945 0.38912,-0.107487 0.12783,-0.03804 0.25369,-0.07863 0.37672,-0.121956 0.12303,-0.04332 0.24352,-0.08979 0.3607,-0.139527 0.11719,-0.04974 0.2313,-0.102916 0.34158,-0.160197 0.11028,-0.05728 0.21653,-0.118531 0.31885,-0.184485 0.10232,-0.06595 0.20073,-0.136634 0.29404,-0.21239 0.0933,-0.07576 0.18187,-0.156709 0.2651,-0.243396 0.0416,-0.04334 0.0815,-0.08807 0.1204,-0.134358 0.0389,-0.04629 0.0766,-0.09377 0.11266,-0.143144 0.036,-0.04937 0.0708,-0.100361 0.10387,-0.152962 0.0331,-0.0526 0.0646,-0.106812 0.0946,-0.162781 0.03,-0.05597 0.058,-0.113638 0.0847,-0.173116 0.0267,-0.05948 0.0521,-0.120839 0.0754,-0.183968 0.0233,-0.06313 0.0448,-0.128417 0.0646,-0.195337 0.0198,-0.06692 0.0381,-0.135336 0.0543,-0.206189 0.0162,-0.07085 0.0305,-0.144181 0.0429,-0.219108 0.0124,-0.07493 0.023,-0.151851 0.0315,-0.230994 0.009,-0.07914 0.0146,-0.160414 0.0191,-0.243913 0.004,-0.0835 0.007,-0.168835 0.007,-0.256831 -9.4e-4,-0.08298 -0.004,-0.164103 -0.009,-0.24288 -0.005,-0.07878 -0.0134,-0.155251 -0.0233,-0.22996 -0.01,-0.07471 -0.0216,-0.147814 -0.0357,-0.218591 -0.014,-0.07078 -0.0304,-0.139205 -0.0486,-0.206189 -0.0181,-0.06698 -0.0379,-0.132525 -0.06,-0.195854 -0.022,-0.06333 -0.046,-0.124673 -0.0718,-0.184485 -0.0258,-0.05981 -0.0533,-0.117718 -0.0827,-0.174149 -0.0294,-0.05643 -0.0607,-0.111142 -0.0935,-0.164331 -0.0329,-0.05319 -0.0677,-0.104945 -0.10387,-0.15503 -0.0362,-0.05008 -0.0738,-0.09861 -0.11318,-0.145727 -0.0393,-0.04712 -0.0801,-0.09317 -0.12247,-0.137459 -0.0423,-0.04429 -0.0861,-0.08708 -0.13126,-0.128675 -0.0904,-0.0832 -0.18644,-0.160835 -0.28732,-0.234094 -0.10088,-0.07326 -0.20661,-0.141766 -0.31677,-0.206189 -0.11017,-0.06442 -0.22491,-0.124696 -0.34314,-0.181384 -0.11822,-0.05669 -0.24027,-0.110141 -0.36535,-0.160197 -0.12507,-0.05006 -0.25325,-0.09707 -0.38395,-0.141594 -0.0161,-0.0055 -0.0329,-0.0101 -0.0491,-0.0155 z"
           style="mix-blend-mode:multiply;fill:#ff00c6;stroke-width:1.73822;stroke-linecap:round;stroke-linejoin:round"
           id="path603" />
        <path
           d="m 407.78389,74.125191 v 0.861963 c 0.002,0.144905 0.0112,0.282588 0.0274,0.413928 0.008,0.06567 0.0179,0.129791 0.0295,0.192237 0.0116,0.06245 0.0249,0.123602 0.0398,0.182934 0.0298,0.118665 0.066,0.231087 0.10852,0.337964 0.0425,0.106877 0.0915,0.20788 0.14573,0.303858 0.0543,0.09598 0.11375,0.186884 0.1788,0.272851 0.065,0.08597 0.13542,0.167069 0.21032,0.243913 0.0749,0.07684 0.15443,0.149464 0.23823,0.218074 0.0838,0.06861 0.17179,0.133039 0.26355,0.194304 0.0918,0.06126 0.18752,0.119342 0.28629,0.174149 0.0442,0.0245 0.091,0.04642 0.13642,0.06976 0.005,-0.01263 0.0124,-0.02372 0.0176,-0.03669 0.0241,-0.06028 0.0449,-0.124616 0.062,-0.19327 0.0171,-0.06865 0.0306,-0.141839 0.0398,-0.220658 0.009,-0.07882 0.0138,-0.162953 0.014,-0.253731 1.9e-4,-0.105196 -0.006,-0.20273 -0.0196,-0.293006 -0.0132,-0.09027 -0.033,-0.173421 -0.0579,-0.25063 -0.0249,-0.07721 -0.0547,-0.14846 -0.0894,-0.214457 -0.0347,-0.066 -0.0741,-0.126812 -0.11679,-0.183452 -0.0427,-0.05664 -0.0886,-0.108993 -0.13745,-0.15813 -0.0489,-0.04914 -0.10071,-0.095 -0.154,-0.138493 -0.0533,-0.04349 -0.10844,-0.08433 -0.16433,-0.124023 -0.0559,-0.03969 -0.1123,-0.078 -0.16898,-0.115755 -0.11338,-0.07551 -0.22653,-0.149021 -0.33228,-0.227893 -0.0529,-0.03944 -0.10418,-0.08045 -0.15245,-0.123507 -0.0483,-0.04306 -0.0935,-0.08841 -0.13539,-0.136942 -0.0419,-0.04854 -0.0801,-0.100196 -0.11369,-0.156063 -0.0336,-0.05587 -0.0627,-0.115814 -0.0863,-0.180868 -0.0236,-0.06505 -0.0419,-0.135263 -0.0537,-0.211356 -0.0118,-0.07609 -0.0173,-0.158026 -0.0155,-0.247014 z"
           style="mix-blend-mode:multiply;fill:#ff00c6;stroke-width:1.73822;stroke-linecap:round;stroke-linejoin:round"
           id="path600" />
        <path
           d="m 409.82408,92.071899 c -0.11112,0.04513 -0.22007,0.09262 -0.32504,0.144178 -0.11085,0.05444 -0.21795,0.112995 -0.32092,0.1757 -0.10296,0.0627 -0.20207,0.129437 -0.2961,0.201538 -0.094,0.0721 -0.18312,0.1494 -0.26717,0.232027 -0.042,0.04131 -0.0826,0.084 -0.12195,0.128157 -0.0393,0.04416 -0.0777,0.0898 -0.11421,0.136943 -0.0365,0.04714 -0.0714,0.09598 -0.1049,0.146244 -0.0335,0.05027 -0.0657,0.102014 -0.0961,0.155546 -0.0304,0.05353 -0.0591,0.108424 -0.0863,0.165365 -0.0272,0.05694 -0.0531,0.115727 -0.077,0.176216 -0.0239,0.06049 -0.0458,0.12289 -0.0661,0.187069 -0.0204,0.06418 -0.0391,0.130427 -0.0558,0.198438 -0.0168,0.06801 -0.0314,0.137823 -0.0445,0.209806 -0.013,0.07198 -0.0245,0.146112 -0.0336,0.222209 -0.009,0.0761 -0.0161,0.154259 -0.0212,0.234611 -0.005,0.08035 -0.008,0.162782 -0.009,0.24753 v 1.237134 c -7.6e-4,-0.048 6.2e-4,-0.09526 0.004,-0.141594 0.004,-0.04633 0.01,-0.09166 0.017,-0.136426 0.0151,-0.08954 0.0377,-0.176078 0.0672,-0.259932 0.0294,-0.08385 0.0653,-0.164962 0.10697,-0.243913 0.0416,-0.07895 0.0889,-0.155651 0.14056,-0.230477 0.0516,-0.07483 0.108,-0.147629 0.16743,-0.219108 0.0594,-0.07148 0.12203,-0.14193 0.18707,-0.21084 0.13008,-0.13782 0.26895,-0.270862 0.40825,-0.403076 0.13929,-0.132213 0.27886,-0.263526 0.40979,-0.396358 0.0655,-0.06642 0.12906,-0.133284 0.18914,-0.201021 0.0601,-0.06774 0.117,-0.136352 0.16949,-0.206189 0.0525,-0.06984 0.10043,-0.140709 0.14315,-0.213424 0.0427,-0.07272 0.0799,-0.146871 0.11059,-0.223242 0.0307,-0.07637 0.0553,-0.154839 0.0718,-0.235645 0.008,-0.0404 0.0143,-0.08133 0.0186,-0.12299 0.004,-0.04166 0.007,-0.08411 0.007,-0.127124 9e-5,-0.04317 -0.002,-0.08492 -0.006,-0.125573 -0.004,-0.04065 -0.01,-0.08049 -0.0176,-0.118856 -0.0154,-0.07673 -0.0382,-0.149122 -0.0672,-0.218075 -0.0242,-0.0576 -0.055,-0.1115 -0.0873,-0.164848 z"
           style="mix-blend-mode:multiply;fill:#00b9ff;stroke-width:1.48336;stroke-linecap:round;stroke-linejoin:round"
           id="path604" />
        <path
           d="m 409.44839,77.59113 c -0.0454,-0.02334 -0.0923,-0.04526 -0.13642,-0.06976 -0.0988,-0.05481 -0.19453,-0.112885 -0.28629,-0.174149 -0.0918,-0.06127 -0.17975,-0.125693 -0.26355,-0.194304 -0.0838,-0.06861 -0.16333,-0.14123 -0.23823,-0.218074 -0.0749,-0.07684 -0.14527,-0.157946 -0.21032,-0.243913 -0.065,-0.08597 -0.12454,-0.176874 -0.1788,-0.272851 -0.0543,-0.09598 -0.10321,-0.196981 -0.14573,-0.303858 -0.0425,-0.106877 -0.0787,-0.219299 -0.10852,-0.337964 -0.0149,-0.05933 -0.0282,-0.120489 -0.0398,-0.182934 -0.0116,-0.06245 -0.0213,-0.126566 -0.0295,-0.192237 -0.0162,-0.13134 -0.0257,-0.269023 -0.0274,-0.413928 v 4.993494 8.868709 6.184119 c 9.6e-4,-0.08475 0.004,-0.167179 0.009,-0.24753 0.005,-0.08035 0.0121,-0.158514 0.0212,-0.234611 0.009,-0.0761 0.0206,-0.150226 0.0336,-0.222209 0.013,-0.07198 0.0277,-0.141795 0.0445,-0.209806 0.0168,-0.06801 0.0354,-0.134258 0.0558,-0.198438 0.0204,-0.06418 0.0423,-0.126579 0.0661,-0.187069 0.0239,-0.06049 0.0498,-0.119276 0.077,-0.176216 0.0272,-0.05694 0.0559,-0.111832 0.0863,-0.165365 0.0305,-0.05353 0.0626,-0.10528 0.0961,-0.155546 0.0335,-0.05027 0.0684,-0.0991 0.1049,-0.146244 0.0365,-0.04714 0.0749,-0.09279 0.11421,-0.136943 0.0393,-0.04416 0.0799,-0.08684 0.12195,-0.128157 0.084,-0.08263 0.17313,-0.159927 0.26717,-0.232027 0.094,-0.0721 0.19314,-0.138834 0.2961,-0.201538 0.10297,-0.06271 0.21007,-0.121263 0.32092,-0.1757 0.10497,-0.05155 0.21392,-0.09905 0.32504,-0.144178 -0.006,-0.01051 -0.0104,-0.02219 -0.017,-0.03256 -0.0404,-0.063 -0.0862,-0.123532 -0.13591,-0.182418 -0.0497,-0.05889 -0.10372,-0.116003 -0.16072,-0.172599 -0.057,-0.0566 -0.11718,-0.112331 -0.17931,-0.168465 -0.12428,-0.112269 -0.25685,-0.225352 -0.38913,-0.346749 -0.0661,-0.0607 -0.13189,-0.123929 -0.19688,-0.189652 -0.065,-0.06572 -0.12894,-0.134128 -0.19069,-0.206706 -0.0618,-0.07258 -0.12135,-0.149216 -0.17777,-0.230477 -0.0564,-0.08126 -0.10966,-0.167127 -0.15864,-0.258899 -0.049,-0.09177 -0.0939,-0.189409 -0.13333,-0.293522 -0.0394,-0.104113 -0.0735,-0.215031 -0.10128,-0.333313 -0.0139,-0.05914 -0.0261,-0.119908 -0.0367,-0.182935 -0.0106,-0.06303 -0.0198,-0.128196 -0.0269,-0.195337 -0.007,-0.06714 -0.0123,-0.136256 -0.0155,-0.207739 -0.003,-0.07148 -0.004,-0.145121 -0.004,-0.221175 -0.002,-0.144641 0.005,-0.282479 0.0176,-0.413928 0.013,-0.131449 0.0332,-0.256581 0.06,-0.375688 0.0267,-0.119107 0.0597,-0.232414 0.0992,-0.340031 0.0395,-0.107617 0.0856,-0.209463 0.13694,-0.306441 0.0514,-0.09698 0.10828,-0.188762 0.17053,-0.275952 0.0623,-0.08719 0.12985,-0.169794 0.20206,-0.248047 0.0722,-0.07825 0.14874,-0.152558 0.22996,-0.222725 0.0812,-0.07017 0.16702,-0.136022 0.25631,-0.198955 0.0893,-0.06293 0.18212,-0.122768 0.27854,-0.179317 0.0964,-0.05655 0.19608,-0.110214 0.29869,-0.16123 0.10261,-0.05102 0.2084,-0.09939 0.31626,-0.145728 0.10786,-0.04634 0.21804,-0.0903 0.33021,-0.132808 0.22434,-0.08501 0.45653,-0.16343 0.69246,-0.238229 0.23593,-0.0748 0.47573,-0.146163 0.71572,-0.217557 0.24,-0.07139 0.48023,-0.142758 0.71675,-0.217558 0.23653,-0.0748 0.469,-0.153214 0.69454,-0.238229 0.11276,-0.04251 0.22367,-0.08647 0.33228,-0.132808 0.1086,-0.04634 0.21533,-0.09471 0.31884,-0.145728 0.0508,-0.02503 0.0984,-0.05276 0.14779,-0.07906 -0.11516,-0.03852 -0.23134,-0.07594 -0.34985,-0.111104 -0.27024,-0.0802 -0.54827,-0.152595 -0.82889,-0.221692 -0.28061,-0.0691 -0.56365,-0.134726 -0.84491,-0.201538 -0.28125,-0.06681 -0.56034,-0.134912 -0.8325,-0.208256 -0.13608,-0.03667 -0.27058,-0.07476 -0.40256,-0.114722 -0.13199,-0.03996 -0.26142,-0.08174 -0.38809,-0.12609 -0.12667,-0.04435 -0.25038,-0.09124 -0.37052,-0.141077 -0.12014,-0.04984 -0.23694,-0.102735 -0.34933,-0.159163 -0.1124,-0.05643 -0.22058,-0.116229 -0.32402,-0.180351 -0.10343,-0.06412 -0.20233,-0.132237 -0.29559,-0.205155 -0.0933,-0.07292 -0.18116,-0.150762 -0.26303,-0.233578 -0.0409,-0.04141 -0.08,-0.08407 -0.11782,-0.128157 -0.0379,-0.04409 -0.0744,-0.08952 -0.10904,-0.136426 -0.0346,-0.04691 -0.0675,-0.09535 -0.0987,-0.145211 -0.0312,-0.04986 -0.0606,-0.101037 -0.0884,-0.153996 -0.0277,-0.05296 -0.054,-0.107623 -0.078,-0.163814 -0.024,-0.05619 -0.046,-0.114072 -0.0661,-0.173633 -0.0202,-0.05956 -0.0386,-0.120899 -0.0548,-0.183968 -0.0162,-0.06307 -0.0303,-0.127589 -0.0424,-0.194303 -0.0121,-0.06671 -0.0222,-0.135692 -0.03,-0.206189 -0.008,-0.0705 -0.0132,-0.142623 -0.0165,-0.217041 -0.003,-0.07442 -0.004,-0.150967 -0.003,-0.229444 10e-4,-0.07848 0.005,-0.159172 0.0109,-0.241845 0.006,-0.08267 0.0144,-0.167241 0.0253,-0.254248 0.0109,-0.08701 0.0243,-0.176205 0.0403,-0.267684 0.02,-0.114654 0.0437,-0.2212 0.0703,-0.320911 0.0265,-0.09971 0.0558,-0.192492 0.0879,-0.279053 0.032,-0.08656 0.0669,-0.167157 0.10335,-0.242362 0.0365,-0.0752 0.0748,-0.145198 0.11472,-0.21084 0.0399,-0.06564 0.0812,-0.127129 0.12351,-0.185002 0.0423,-0.05787 0.0856,-0.111917 0.12919,-0.163814 0.0872,-0.103793 0.1761,-0.197704 0.26251,-0.288354 0.0864,-0.09065 0.17022,-0.178413 0.24753,-0.270268 0.0387,-0.04593 0.0758,-0.09267 0.11059,-0.141593 0.0348,-0.04892 0.0672,-0.09978 0.0972,-0.153479 0.0235,-0.04215 0.0441,-0.08776 0.0641,-0.133842 z"
           style="mix-blend-mode:multiply;fill:#0000c6;fill-opacity:1;stroke-width:1.48336;stroke-linecap:round;stroke-linejoin:round"
           id="path602" />
        <path
           d="m 409.44839,77.59113 c -0.0199,0.04608 -0.0406,0.09169 -0.0641,0.133842 -0.03,0.0537 -0.0623,0.104559 -0.0972,0.153479 -0.0348,0.04892 -0.0719,0.09566 -0.11059,0.141593 -0.0773,0.09185 -0.16111,0.179617 -0.24753,0.270268 -0.0864,0.09065 -0.17527,0.184561 -0.26251,0.288354 -0.0436,0.0519 -0.0869,0.105942 -0.12919,0.163814 -0.0423,0.05787 -0.0836,0.11936 -0.12351,0.185002 -0.0399,0.06564 -0.0782,0.135635 -0.11472,0.21084 -0.0365,0.0752 -0.0713,0.155801 -0.10335,0.242362 -0.032,0.08656 -0.0613,0.179342 -0.0879,0.279053 -0.0265,0.09971 -0.0503,0.206257 -0.0703,0.320911 -0.016,0.09148 -0.0294,0.180677 -0.0403,0.267684 -0.0109,0.08701 -0.0193,0.171575 -0.0253,0.254248 -0.006,0.08267 -0.01,0.163369 -0.0109,0.241845 -10e-4,0.07848 -2.3e-4,0.155026 0.003,0.229444 0.003,0.07442 0.009,0.146544 0.0165,0.217041 0.008,0.0705 0.0179,0.139475 0.03,0.206189 0.0121,0.06671 0.0262,0.131235 0.0424,0.194303 0.0162,0.06307 0.0346,0.124407 0.0548,0.183968 0.0202,0.05956 0.0421,0.117442 0.0661,0.173633 0.024,0.05619 0.0503,0.110855 0.078,0.163814 0.0277,0.05296 0.0571,0.104132 0.0884,0.153996 0.0312,0.04986 0.0641,0.0983 0.0987,0.145211 0.0346,0.04691 0.0712,0.09234 0.10904,0.136426 0.0379,0.04409 0.0769,0.08675 0.11782,0.128157 0.0819,0.08282 0.16978,0.16066 0.26303,0.233578 0.0933,0.07292 0.19216,0.141033 0.29559,0.205155 0.10344,0.06412 0.21162,0.123923 0.32402,0.180351 0.11239,0.05643 0.22919,0.109327 0.34933,0.159163 0.12014,0.04984 0.24385,0.09673 0.37052,0.141077 0.12667,0.04435 0.2561,0.08613 0.38809,0.12609 0.13198,0.03996 0.26648,0.07805 0.40256,0.114722 0.27216,0.07334 0.55125,0.141444 0.8325,0.208256 0.28126,0.06681 0.5643,0.132442 0.84491,0.201538 0.28062,0.0691 0.55865,0.141496 0.82889,0.221692 0.11851,0.03517 0.23469,0.07259 0.34985,0.111104 0.0513,-0.02732 0.10383,-0.05335 0.15348,-0.08217 0.0975,-0.05655 0.19167,-0.116381 0.28216,-0.179317 0.0905,-0.06294 0.17737,-0.1293 0.25993,-0.199471 0.0826,-0.07017 0.16091,-0.143952 0.23461,-0.222209 0.0737,-0.07826 0.14281,-0.160852 0.20671,-0.248047 0.0639,-0.08719 0.12255,-0.178969 0.17569,-0.275952 0.0531,-0.09698 0.10065,-0.198819 0.14212,-0.306441 0.0415,-0.107623 0.0771,-0.220918 0.10593,-0.340031 0.0288,-0.119113 0.0509,-0.244233 0.0661,-0.375688 0.0153,-0.131455 0.0235,-0.26928 0.0243,-0.413928 7.9e-4,-0.151482 -0.006,-0.296059 -0.0196,-0.433565 -0.0139,-0.137506 -0.0353,-0.267805 -0.0631,-0.392224 -0.0138,-0.06221 -0.0294,-0.122797 -0.0465,-0.181901 -0.0171,-0.05911 -0.0355,-0.117006 -0.0558,-0.173116 -0.0405,-0.112221 -0.0876,-0.218451 -0.14004,-0.319361 -0.0524,-0.10091 -0.11026,-0.196316 -0.17363,-0.286804 -0.0634,-0.09049 -0.1323,-0.175877 -0.20567,-0.256832 -0.0734,-0.08095 -0.15115,-0.157651 -0.23358,-0.22996 -0.0824,-0.07231 -0.1694,-0.140603 -0.25993,-0.205155 -0.0905,-0.06455 -0.18497,-0.125251 -0.28267,-0.182935 -0.0977,-0.05768 -0.19839,-0.11211 -0.30231,-0.163814 -0.10392,-0.0517 -0.21068,-0.100666 -0.31988,-0.147278 -0.10919,-0.04661 -0.22082,-0.09092 -0.33434,-0.133325 -0.11353,-0.04241 -0.22933,-0.08286 -0.34624,-0.121957 -0.1169,-0.03909 -0.23515,-0.07702 -0.3545,-0.113688 -0.23869,-0.07334 -0.48121,-0.142396 -0.72398,-0.211357 -0.24278,-0.06896 -0.48572,-0.137597 -0.72502,-0.209289 -0.23931,-0.07169 -0.47505,-0.146879 -0.70332,-0.22841 -0.11413,-0.04077 -0.22646,-0.08308 -0.33641,-0.127641 -0.10996,-0.04456 -0.21763,-0.09132 -0.32247,-0.14056 -0.058,-0.02723 -0.1128,-0.05692 -0.16898,-0.08578 z"
           style="mix-blend-mode:multiply;fill:#00b9ff;stroke-width:1.48336;stroke-linecap:round;stroke-linejoin:round"
           id="path601" />
      </g>
    </g>
  </g>
</svg>
